%TF.GenerationSoftware,KiCad,Pcbnew,7.0.9*%
%TF.CreationDate,2024-04-09T14:28:23-05:00*%
%TF.ProjectId,Humidifier Subsystem,48756d69-6469-4666-9965-722053756273,rev?*%
%TF.SameCoordinates,Original*%
%TF.FileFunction,Legend,Top*%
%TF.FilePolarity,Positive*%
%FSLAX46Y46*%
G04 Gerber Fmt 4.6, Leading zero omitted, Abs format (unit mm)*
G04 Created by KiCad (PCBNEW 7.0.9) date 2024-04-09 14:28:23*
%MOMM*%
%LPD*%
G01*
G04 APERTURE LIST*
%ADD10C,0.300000*%
%ADD11C,0.200000*%
%ADD12C,0.150000*%
%ADD13C,0.120000*%
%ADD14C,0.152400*%
%ADD15C,0.127000*%
%ADD16C,0.100000*%
G04 APERTURE END LIST*
D10*
X53797367Y-106585828D02*
X53797367Y-105085828D01*
X53797367Y-105800114D02*
X54654510Y-105800114D01*
X54654510Y-106585828D02*
X54654510Y-105085828D01*
X55368796Y-106585828D02*
X55368796Y-105585828D01*
X55368796Y-105085828D02*
X55297368Y-105157257D01*
X55297368Y-105157257D02*
X55368796Y-105228685D01*
X55368796Y-105228685D02*
X55440225Y-105157257D01*
X55440225Y-105157257D02*
X55368796Y-105085828D01*
X55368796Y-105085828D02*
X55368796Y-105228685D01*
X56725940Y-105585828D02*
X56725940Y-106800114D01*
X56725940Y-106800114D02*
X56654511Y-106942971D01*
X56654511Y-106942971D02*
X56583082Y-107014400D01*
X56583082Y-107014400D02*
X56440225Y-107085828D01*
X56440225Y-107085828D02*
X56225940Y-107085828D01*
X56225940Y-107085828D02*
X56083082Y-107014400D01*
X56725940Y-106514400D02*
X56583082Y-106585828D01*
X56583082Y-106585828D02*
X56297368Y-106585828D01*
X56297368Y-106585828D02*
X56154511Y-106514400D01*
X56154511Y-106514400D02*
X56083082Y-106442971D01*
X56083082Y-106442971D02*
X56011654Y-106300114D01*
X56011654Y-106300114D02*
X56011654Y-105871542D01*
X56011654Y-105871542D02*
X56083082Y-105728685D01*
X56083082Y-105728685D02*
X56154511Y-105657257D01*
X56154511Y-105657257D02*
X56297368Y-105585828D01*
X56297368Y-105585828D02*
X56583082Y-105585828D01*
X56583082Y-105585828D02*
X56725940Y-105657257D01*
X57440225Y-106585828D02*
X57440225Y-105085828D01*
X58083083Y-106585828D02*
X58083083Y-105800114D01*
X58083083Y-105800114D02*
X58011654Y-105657257D01*
X58011654Y-105657257D02*
X57868797Y-105585828D01*
X57868797Y-105585828D02*
X57654511Y-105585828D01*
X57654511Y-105585828D02*
X57511654Y-105657257D01*
X57511654Y-105657257D02*
X57440225Y-105728685D01*
X52440225Y-107500828D02*
X52940225Y-109000828D01*
X52940225Y-109000828D02*
X53440225Y-107500828D01*
X54154510Y-109000828D02*
X54011653Y-108929400D01*
X54011653Y-108929400D02*
X53940224Y-108857971D01*
X53940224Y-108857971D02*
X53868796Y-108715114D01*
X53868796Y-108715114D02*
X53868796Y-108286542D01*
X53868796Y-108286542D02*
X53940224Y-108143685D01*
X53940224Y-108143685D02*
X54011653Y-108072257D01*
X54011653Y-108072257D02*
X54154510Y-108000828D01*
X54154510Y-108000828D02*
X54368796Y-108000828D01*
X54368796Y-108000828D02*
X54511653Y-108072257D01*
X54511653Y-108072257D02*
X54583082Y-108143685D01*
X54583082Y-108143685D02*
X54654510Y-108286542D01*
X54654510Y-108286542D02*
X54654510Y-108715114D01*
X54654510Y-108715114D02*
X54583082Y-108857971D01*
X54583082Y-108857971D02*
X54511653Y-108929400D01*
X54511653Y-108929400D02*
X54368796Y-109000828D01*
X54368796Y-109000828D02*
X54154510Y-109000828D01*
X55511653Y-109000828D02*
X55368796Y-108929400D01*
X55368796Y-108929400D02*
X55297367Y-108786542D01*
X55297367Y-108786542D02*
X55297367Y-107500828D01*
X55868796Y-108000828D02*
X56440224Y-108000828D01*
X56083081Y-107500828D02*
X56083081Y-108786542D01*
X56083081Y-108786542D02*
X56154510Y-108929400D01*
X56154510Y-108929400D02*
X56297367Y-109000828D01*
X56297367Y-109000828D02*
X56440224Y-109000828D01*
X57583082Y-109000828D02*
X57583082Y-108215114D01*
X57583082Y-108215114D02*
X57511653Y-108072257D01*
X57511653Y-108072257D02*
X57368796Y-108000828D01*
X57368796Y-108000828D02*
X57083082Y-108000828D01*
X57083082Y-108000828D02*
X56940224Y-108072257D01*
X57583082Y-108929400D02*
X57440224Y-109000828D01*
X57440224Y-109000828D02*
X57083082Y-109000828D01*
X57083082Y-109000828D02*
X56940224Y-108929400D01*
X56940224Y-108929400D02*
X56868796Y-108786542D01*
X56868796Y-108786542D02*
X56868796Y-108643685D01*
X56868796Y-108643685D02*
X56940224Y-108500828D01*
X56940224Y-108500828D02*
X57083082Y-108429400D01*
X57083082Y-108429400D02*
X57440224Y-108429400D01*
X57440224Y-108429400D02*
X57583082Y-108357971D01*
X58940225Y-108000828D02*
X58940225Y-109215114D01*
X58940225Y-109215114D02*
X58868796Y-109357971D01*
X58868796Y-109357971D02*
X58797367Y-109429400D01*
X58797367Y-109429400D02*
X58654510Y-109500828D01*
X58654510Y-109500828D02*
X58440225Y-109500828D01*
X58440225Y-109500828D02*
X58297367Y-109429400D01*
X58940225Y-108929400D02*
X58797367Y-109000828D01*
X58797367Y-109000828D02*
X58511653Y-109000828D01*
X58511653Y-109000828D02*
X58368796Y-108929400D01*
X58368796Y-108929400D02*
X58297367Y-108857971D01*
X58297367Y-108857971D02*
X58225939Y-108715114D01*
X58225939Y-108715114D02*
X58225939Y-108286542D01*
X58225939Y-108286542D02*
X58297367Y-108143685D01*
X58297367Y-108143685D02*
X58368796Y-108072257D01*
X58368796Y-108072257D02*
X58511653Y-108000828D01*
X58511653Y-108000828D02*
X58797367Y-108000828D01*
X58797367Y-108000828D02*
X58940225Y-108072257D01*
X60225939Y-108929400D02*
X60083082Y-109000828D01*
X60083082Y-109000828D02*
X59797368Y-109000828D01*
X59797368Y-109000828D02*
X59654510Y-108929400D01*
X59654510Y-108929400D02*
X59583082Y-108786542D01*
X59583082Y-108786542D02*
X59583082Y-108215114D01*
X59583082Y-108215114D02*
X59654510Y-108072257D01*
X59654510Y-108072257D02*
X59797368Y-108000828D01*
X59797368Y-108000828D02*
X60083082Y-108000828D01*
X60083082Y-108000828D02*
X60225939Y-108072257D01*
X60225939Y-108072257D02*
X60297368Y-108215114D01*
X60297368Y-108215114D02*
X60297368Y-108357971D01*
X60297368Y-108357971D02*
X59583082Y-108500828D01*
D11*
X46922054Y-102603695D02*
X46922054Y-101803695D01*
X46922054Y-102184647D02*
X47379197Y-102184647D01*
X47379197Y-102603695D02*
X47379197Y-101803695D01*
X48103006Y-102070361D02*
X48103006Y-102603695D01*
X47760149Y-102070361D02*
X47760149Y-102489409D01*
X47760149Y-102489409D02*
X47798244Y-102565600D01*
X47798244Y-102565600D02*
X47874434Y-102603695D01*
X47874434Y-102603695D02*
X47988720Y-102603695D01*
X47988720Y-102603695D02*
X48064911Y-102565600D01*
X48064911Y-102565600D02*
X48103006Y-102527504D01*
X48483959Y-102603695D02*
X48483959Y-102070361D01*
X48483959Y-102146552D02*
X48522054Y-102108457D01*
X48522054Y-102108457D02*
X48598244Y-102070361D01*
X48598244Y-102070361D02*
X48712530Y-102070361D01*
X48712530Y-102070361D02*
X48788721Y-102108457D01*
X48788721Y-102108457D02*
X48826816Y-102184647D01*
X48826816Y-102184647D02*
X48826816Y-102603695D01*
X48826816Y-102184647D02*
X48864911Y-102108457D01*
X48864911Y-102108457D02*
X48941102Y-102070361D01*
X48941102Y-102070361D02*
X49055387Y-102070361D01*
X49055387Y-102070361D02*
X49131578Y-102108457D01*
X49131578Y-102108457D02*
X49169673Y-102184647D01*
X49169673Y-102184647D02*
X49169673Y-102603695D01*
X49550626Y-102603695D02*
X49550626Y-102070361D01*
X49550626Y-101803695D02*
X49512530Y-101841790D01*
X49512530Y-101841790D02*
X49550626Y-101879885D01*
X49550626Y-101879885D02*
X49588721Y-101841790D01*
X49588721Y-101841790D02*
X49550626Y-101803695D01*
X49550626Y-101803695D02*
X49550626Y-101879885D01*
X50274435Y-102603695D02*
X50274435Y-101803695D01*
X50274435Y-102565600D02*
X50198244Y-102603695D01*
X50198244Y-102603695D02*
X50045863Y-102603695D01*
X50045863Y-102603695D02*
X49969673Y-102565600D01*
X49969673Y-102565600D02*
X49931578Y-102527504D01*
X49931578Y-102527504D02*
X49893482Y-102451314D01*
X49893482Y-102451314D02*
X49893482Y-102222742D01*
X49893482Y-102222742D02*
X49931578Y-102146552D01*
X49931578Y-102146552D02*
X49969673Y-102108457D01*
X49969673Y-102108457D02*
X50045863Y-102070361D01*
X50045863Y-102070361D02*
X50198244Y-102070361D01*
X50198244Y-102070361D02*
X50274435Y-102108457D01*
X50655388Y-102603695D02*
X50655388Y-102070361D01*
X50655388Y-101803695D02*
X50617292Y-101841790D01*
X50617292Y-101841790D02*
X50655388Y-101879885D01*
X50655388Y-101879885D02*
X50693483Y-101841790D01*
X50693483Y-101841790D02*
X50655388Y-101803695D01*
X50655388Y-101803695D02*
X50655388Y-101879885D01*
X50922054Y-102070361D02*
X51226816Y-102070361D01*
X51036340Y-102603695D02*
X51036340Y-101917980D01*
X51036340Y-101917980D02*
X51074435Y-101841790D01*
X51074435Y-101841790D02*
X51150625Y-101803695D01*
X51150625Y-101803695D02*
X51226816Y-101803695D01*
X51493483Y-102603695D02*
X51493483Y-102070361D01*
X51493483Y-101803695D02*
X51455387Y-101841790D01*
X51455387Y-101841790D02*
X51493483Y-101879885D01*
X51493483Y-101879885D02*
X51531578Y-101841790D01*
X51531578Y-101841790D02*
X51493483Y-101803695D01*
X51493483Y-101803695D02*
X51493483Y-101879885D01*
X52179197Y-102565600D02*
X52103006Y-102603695D01*
X52103006Y-102603695D02*
X51950625Y-102603695D01*
X51950625Y-102603695D02*
X51874435Y-102565600D01*
X51874435Y-102565600D02*
X51836339Y-102489409D01*
X51836339Y-102489409D02*
X51836339Y-102184647D01*
X51836339Y-102184647D02*
X51874435Y-102108457D01*
X51874435Y-102108457D02*
X51950625Y-102070361D01*
X51950625Y-102070361D02*
X52103006Y-102070361D01*
X52103006Y-102070361D02*
X52179197Y-102108457D01*
X52179197Y-102108457D02*
X52217292Y-102184647D01*
X52217292Y-102184647D02*
X52217292Y-102260838D01*
X52217292Y-102260838D02*
X51836339Y-102337028D01*
X52560149Y-102603695D02*
X52560149Y-102070361D01*
X52560149Y-102222742D02*
X52598244Y-102146552D01*
X52598244Y-102146552D02*
X52636339Y-102108457D01*
X52636339Y-102108457D02*
X52712530Y-102070361D01*
X52712530Y-102070361D02*
X52788720Y-102070361D01*
X53626815Y-102565600D02*
X53741101Y-102603695D01*
X53741101Y-102603695D02*
X53931577Y-102603695D01*
X53931577Y-102603695D02*
X54007768Y-102565600D01*
X54007768Y-102565600D02*
X54045863Y-102527504D01*
X54045863Y-102527504D02*
X54083958Y-102451314D01*
X54083958Y-102451314D02*
X54083958Y-102375123D01*
X54083958Y-102375123D02*
X54045863Y-102298933D01*
X54045863Y-102298933D02*
X54007768Y-102260838D01*
X54007768Y-102260838D02*
X53931577Y-102222742D01*
X53931577Y-102222742D02*
X53779196Y-102184647D01*
X53779196Y-102184647D02*
X53703006Y-102146552D01*
X53703006Y-102146552D02*
X53664911Y-102108457D01*
X53664911Y-102108457D02*
X53626815Y-102032266D01*
X53626815Y-102032266D02*
X53626815Y-101956076D01*
X53626815Y-101956076D02*
X53664911Y-101879885D01*
X53664911Y-101879885D02*
X53703006Y-101841790D01*
X53703006Y-101841790D02*
X53779196Y-101803695D01*
X53779196Y-101803695D02*
X53969673Y-101803695D01*
X53969673Y-101803695D02*
X54083958Y-101841790D01*
X54769673Y-102070361D02*
X54769673Y-102603695D01*
X54426816Y-102070361D02*
X54426816Y-102489409D01*
X54426816Y-102489409D02*
X54464911Y-102565600D01*
X54464911Y-102565600D02*
X54541101Y-102603695D01*
X54541101Y-102603695D02*
X54655387Y-102603695D01*
X54655387Y-102603695D02*
X54731578Y-102565600D01*
X54731578Y-102565600D02*
X54769673Y-102527504D01*
X55150626Y-102603695D02*
X55150626Y-101803695D01*
X55150626Y-102108457D02*
X55226816Y-102070361D01*
X55226816Y-102070361D02*
X55379197Y-102070361D01*
X55379197Y-102070361D02*
X55455388Y-102108457D01*
X55455388Y-102108457D02*
X55493483Y-102146552D01*
X55493483Y-102146552D02*
X55531578Y-102222742D01*
X55531578Y-102222742D02*
X55531578Y-102451314D01*
X55531578Y-102451314D02*
X55493483Y-102527504D01*
X55493483Y-102527504D02*
X55455388Y-102565600D01*
X55455388Y-102565600D02*
X55379197Y-102603695D01*
X55379197Y-102603695D02*
X55226816Y-102603695D01*
X55226816Y-102603695D02*
X55150626Y-102565600D01*
X55836340Y-102565600D02*
X55912531Y-102603695D01*
X55912531Y-102603695D02*
X56064912Y-102603695D01*
X56064912Y-102603695D02*
X56141102Y-102565600D01*
X56141102Y-102565600D02*
X56179198Y-102489409D01*
X56179198Y-102489409D02*
X56179198Y-102451314D01*
X56179198Y-102451314D02*
X56141102Y-102375123D01*
X56141102Y-102375123D02*
X56064912Y-102337028D01*
X56064912Y-102337028D02*
X55950626Y-102337028D01*
X55950626Y-102337028D02*
X55874436Y-102298933D01*
X55874436Y-102298933D02*
X55836340Y-102222742D01*
X55836340Y-102222742D02*
X55836340Y-102184647D01*
X55836340Y-102184647D02*
X55874436Y-102108457D01*
X55874436Y-102108457D02*
X55950626Y-102070361D01*
X55950626Y-102070361D02*
X56064912Y-102070361D01*
X56064912Y-102070361D02*
X56141102Y-102108457D01*
X56445864Y-102070361D02*
X56636340Y-102603695D01*
X56826817Y-102070361D02*
X56636340Y-102603695D01*
X56636340Y-102603695D02*
X56560150Y-102794171D01*
X56560150Y-102794171D02*
X56522055Y-102832266D01*
X56522055Y-102832266D02*
X56445864Y-102870361D01*
X57093483Y-102565600D02*
X57169674Y-102603695D01*
X57169674Y-102603695D02*
X57322055Y-102603695D01*
X57322055Y-102603695D02*
X57398245Y-102565600D01*
X57398245Y-102565600D02*
X57436341Y-102489409D01*
X57436341Y-102489409D02*
X57436341Y-102451314D01*
X57436341Y-102451314D02*
X57398245Y-102375123D01*
X57398245Y-102375123D02*
X57322055Y-102337028D01*
X57322055Y-102337028D02*
X57207769Y-102337028D01*
X57207769Y-102337028D02*
X57131579Y-102298933D01*
X57131579Y-102298933D02*
X57093483Y-102222742D01*
X57093483Y-102222742D02*
X57093483Y-102184647D01*
X57093483Y-102184647D02*
X57131579Y-102108457D01*
X57131579Y-102108457D02*
X57207769Y-102070361D01*
X57207769Y-102070361D02*
X57322055Y-102070361D01*
X57322055Y-102070361D02*
X57398245Y-102108457D01*
X57664912Y-102070361D02*
X57969674Y-102070361D01*
X57779198Y-101803695D02*
X57779198Y-102489409D01*
X57779198Y-102489409D02*
X57817293Y-102565600D01*
X57817293Y-102565600D02*
X57893483Y-102603695D01*
X57893483Y-102603695D02*
X57969674Y-102603695D01*
X58541103Y-102565600D02*
X58464912Y-102603695D01*
X58464912Y-102603695D02*
X58312531Y-102603695D01*
X58312531Y-102603695D02*
X58236341Y-102565600D01*
X58236341Y-102565600D02*
X58198245Y-102489409D01*
X58198245Y-102489409D02*
X58198245Y-102184647D01*
X58198245Y-102184647D02*
X58236341Y-102108457D01*
X58236341Y-102108457D02*
X58312531Y-102070361D01*
X58312531Y-102070361D02*
X58464912Y-102070361D01*
X58464912Y-102070361D02*
X58541103Y-102108457D01*
X58541103Y-102108457D02*
X58579198Y-102184647D01*
X58579198Y-102184647D02*
X58579198Y-102260838D01*
X58579198Y-102260838D02*
X58198245Y-102337028D01*
X58922055Y-102603695D02*
X58922055Y-102070361D01*
X58922055Y-102146552D02*
X58960150Y-102108457D01*
X58960150Y-102108457D02*
X59036340Y-102070361D01*
X59036340Y-102070361D02*
X59150626Y-102070361D01*
X59150626Y-102070361D02*
X59226817Y-102108457D01*
X59226817Y-102108457D02*
X59264912Y-102184647D01*
X59264912Y-102184647D02*
X59264912Y-102603695D01*
X59264912Y-102184647D02*
X59303007Y-102108457D01*
X59303007Y-102108457D02*
X59379198Y-102070361D01*
X59379198Y-102070361D02*
X59493483Y-102070361D01*
X59493483Y-102070361D02*
X59569674Y-102108457D01*
X59569674Y-102108457D02*
X59607769Y-102184647D01*
X59607769Y-102184647D02*
X59607769Y-102603695D01*
X60483960Y-101803695D02*
X60941103Y-101803695D01*
X60712531Y-102603695D02*
X60712531Y-101803695D01*
X61512532Y-102565600D02*
X61436341Y-102603695D01*
X61436341Y-102603695D02*
X61283960Y-102603695D01*
X61283960Y-102603695D02*
X61207770Y-102565600D01*
X61207770Y-102565600D02*
X61169674Y-102489409D01*
X61169674Y-102489409D02*
X61169674Y-102184647D01*
X61169674Y-102184647D02*
X61207770Y-102108457D01*
X61207770Y-102108457D02*
X61283960Y-102070361D01*
X61283960Y-102070361D02*
X61436341Y-102070361D01*
X61436341Y-102070361D02*
X61512532Y-102108457D01*
X61512532Y-102108457D02*
X61550627Y-102184647D01*
X61550627Y-102184647D02*
X61550627Y-102260838D01*
X61550627Y-102260838D02*
X61169674Y-102337028D01*
X61855388Y-102565600D02*
X61931579Y-102603695D01*
X61931579Y-102603695D02*
X62083960Y-102603695D01*
X62083960Y-102603695D02*
X62160150Y-102565600D01*
X62160150Y-102565600D02*
X62198246Y-102489409D01*
X62198246Y-102489409D02*
X62198246Y-102451314D01*
X62198246Y-102451314D02*
X62160150Y-102375123D01*
X62160150Y-102375123D02*
X62083960Y-102337028D01*
X62083960Y-102337028D02*
X61969674Y-102337028D01*
X61969674Y-102337028D02*
X61893484Y-102298933D01*
X61893484Y-102298933D02*
X61855388Y-102222742D01*
X61855388Y-102222742D02*
X61855388Y-102184647D01*
X61855388Y-102184647D02*
X61893484Y-102108457D01*
X61893484Y-102108457D02*
X61969674Y-102070361D01*
X61969674Y-102070361D02*
X62083960Y-102070361D01*
X62083960Y-102070361D02*
X62160150Y-102108457D01*
X62426817Y-102070361D02*
X62731579Y-102070361D01*
X62541103Y-101803695D02*
X62541103Y-102489409D01*
X62541103Y-102489409D02*
X62579198Y-102565600D01*
X62579198Y-102565600D02*
X62655388Y-102603695D01*
X62655388Y-102603695D02*
X62731579Y-102603695D01*
X62998246Y-102603695D02*
X62998246Y-101803695D01*
X62998246Y-102108457D02*
X63074436Y-102070361D01*
X63074436Y-102070361D02*
X63226817Y-102070361D01*
X63226817Y-102070361D02*
X63303008Y-102108457D01*
X63303008Y-102108457D02*
X63341103Y-102146552D01*
X63341103Y-102146552D02*
X63379198Y-102222742D01*
X63379198Y-102222742D02*
X63379198Y-102451314D01*
X63379198Y-102451314D02*
X63341103Y-102527504D01*
X63341103Y-102527504D02*
X63303008Y-102565600D01*
X63303008Y-102565600D02*
X63226817Y-102603695D01*
X63226817Y-102603695D02*
X63074436Y-102603695D01*
X63074436Y-102603695D02*
X62998246Y-102565600D01*
X63836341Y-102603695D02*
X63760151Y-102565600D01*
X63760151Y-102565600D02*
X63722056Y-102527504D01*
X63722056Y-102527504D02*
X63683960Y-102451314D01*
X63683960Y-102451314D02*
X63683960Y-102222742D01*
X63683960Y-102222742D02*
X63722056Y-102146552D01*
X63722056Y-102146552D02*
X63760151Y-102108457D01*
X63760151Y-102108457D02*
X63836341Y-102070361D01*
X63836341Y-102070361D02*
X63950627Y-102070361D01*
X63950627Y-102070361D02*
X64026818Y-102108457D01*
X64026818Y-102108457D02*
X64064913Y-102146552D01*
X64064913Y-102146552D02*
X64103008Y-102222742D01*
X64103008Y-102222742D02*
X64103008Y-102451314D01*
X64103008Y-102451314D02*
X64064913Y-102527504D01*
X64064913Y-102527504D02*
X64026818Y-102565600D01*
X64026818Y-102565600D02*
X63950627Y-102603695D01*
X63950627Y-102603695D02*
X63836341Y-102603695D01*
X64788723Y-102603695D02*
X64788723Y-102184647D01*
X64788723Y-102184647D02*
X64750628Y-102108457D01*
X64750628Y-102108457D02*
X64674437Y-102070361D01*
X64674437Y-102070361D02*
X64522056Y-102070361D01*
X64522056Y-102070361D02*
X64445866Y-102108457D01*
X64788723Y-102565600D02*
X64712532Y-102603695D01*
X64712532Y-102603695D02*
X64522056Y-102603695D01*
X64522056Y-102603695D02*
X64445866Y-102565600D01*
X64445866Y-102565600D02*
X64407770Y-102489409D01*
X64407770Y-102489409D02*
X64407770Y-102413219D01*
X64407770Y-102413219D02*
X64445866Y-102337028D01*
X64445866Y-102337028D02*
X64522056Y-102298933D01*
X64522056Y-102298933D02*
X64712532Y-102298933D01*
X64712532Y-102298933D02*
X64788723Y-102260838D01*
X65169676Y-102603695D02*
X65169676Y-102070361D01*
X65169676Y-102222742D02*
X65207771Y-102146552D01*
X65207771Y-102146552D02*
X65245866Y-102108457D01*
X65245866Y-102108457D02*
X65322057Y-102070361D01*
X65322057Y-102070361D02*
X65398247Y-102070361D01*
X66007771Y-102603695D02*
X66007771Y-101803695D01*
X66007771Y-102565600D02*
X65931580Y-102603695D01*
X65931580Y-102603695D02*
X65779199Y-102603695D01*
X65779199Y-102603695D02*
X65703009Y-102565600D01*
X65703009Y-102565600D02*
X65664914Y-102527504D01*
X65664914Y-102527504D02*
X65626818Y-102451314D01*
X65626818Y-102451314D02*
X65626818Y-102222742D01*
X65626818Y-102222742D02*
X65664914Y-102146552D01*
X65664914Y-102146552D02*
X65703009Y-102108457D01*
X65703009Y-102108457D02*
X65779199Y-102070361D01*
X65779199Y-102070361D02*
X65931580Y-102070361D01*
X65931580Y-102070361D02*
X66007771Y-102108457D01*
X49360150Y-103472647D02*
X49626816Y-103472647D01*
X49741102Y-103891695D02*
X49360150Y-103891695D01*
X49360150Y-103891695D02*
X49360150Y-103091695D01*
X49360150Y-103091695D02*
X49741102Y-103091695D01*
X50541103Y-103815504D02*
X50503007Y-103853600D01*
X50503007Y-103853600D02*
X50388722Y-103891695D01*
X50388722Y-103891695D02*
X50312531Y-103891695D01*
X50312531Y-103891695D02*
X50198245Y-103853600D01*
X50198245Y-103853600D02*
X50122055Y-103777409D01*
X50122055Y-103777409D02*
X50083960Y-103701219D01*
X50083960Y-103701219D02*
X50045864Y-103548838D01*
X50045864Y-103548838D02*
X50045864Y-103434552D01*
X50045864Y-103434552D02*
X50083960Y-103282171D01*
X50083960Y-103282171D02*
X50122055Y-103205980D01*
X50122055Y-103205980D02*
X50198245Y-103129790D01*
X50198245Y-103129790D02*
X50312531Y-103091695D01*
X50312531Y-103091695D02*
X50388722Y-103091695D01*
X50388722Y-103091695D02*
X50503007Y-103129790D01*
X50503007Y-103129790D02*
X50541103Y-103167885D01*
X50883960Y-103472647D02*
X51150626Y-103472647D01*
X51264912Y-103891695D02*
X50883960Y-103891695D01*
X50883960Y-103891695D02*
X50883960Y-103091695D01*
X50883960Y-103091695D02*
X51264912Y-103091695D01*
X51950627Y-103358361D02*
X51950627Y-103891695D01*
X51760151Y-103053600D02*
X51569674Y-103625028D01*
X51569674Y-103625028D02*
X52064913Y-103625028D01*
X52712532Y-103358361D02*
X52712532Y-103891695D01*
X52522056Y-103053600D02*
X52331579Y-103625028D01*
X52331579Y-103625028D02*
X52826818Y-103625028D01*
X53512532Y-103091695D02*
X53131580Y-103091695D01*
X53131580Y-103091695D02*
X53093484Y-103472647D01*
X53093484Y-103472647D02*
X53131580Y-103434552D01*
X53131580Y-103434552D02*
X53207770Y-103396457D01*
X53207770Y-103396457D02*
X53398246Y-103396457D01*
X53398246Y-103396457D02*
X53474437Y-103434552D01*
X53474437Y-103434552D02*
X53512532Y-103472647D01*
X53512532Y-103472647D02*
X53550627Y-103548838D01*
X53550627Y-103548838D02*
X53550627Y-103739314D01*
X53550627Y-103739314D02*
X53512532Y-103815504D01*
X53512532Y-103815504D02*
X53474437Y-103853600D01*
X53474437Y-103853600D02*
X53398246Y-103891695D01*
X53398246Y-103891695D02*
X53207770Y-103891695D01*
X53207770Y-103891695D02*
X53131580Y-103853600D01*
X53131580Y-103853600D02*
X53093484Y-103815504D01*
X53893485Y-103586933D02*
X54503009Y-103586933D01*
X54845865Y-103853600D02*
X54960151Y-103891695D01*
X54960151Y-103891695D02*
X55150627Y-103891695D01*
X55150627Y-103891695D02*
X55226818Y-103853600D01*
X55226818Y-103853600D02*
X55264913Y-103815504D01*
X55264913Y-103815504D02*
X55303008Y-103739314D01*
X55303008Y-103739314D02*
X55303008Y-103663123D01*
X55303008Y-103663123D02*
X55264913Y-103586933D01*
X55264913Y-103586933D02*
X55226818Y-103548838D01*
X55226818Y-103548838D02*
X55150627Y-103510742D01*
X55150627Y-103510742D02*
X54998246Y-103472647D01*
X54998246Y-103472647D02*
X54922056Y-103434552D01*
X54922056Y-103434552D02*
X54883961Y-103396457D01*
X54883961Y-103396457D02*
X54845865Y-103320266D01*
X54845865Y-103320266D02*
X54845865Y-103244076D01*
X54845865Y-103244076D02*
X54883961Y-103167885D01*
X54883961Y-103167885D02*
X54922056Y-103129790D01*
X54922056Y-103129790D02*
X54998246Y-103091695D01*
X54998246Y-103091695D02*
X55188723Y-103091695D01*
X55188723Y-103091695D02*
X55303008Y-103129790D01*
X55645866Y-103891695D02*
X55645866Y-103091695D01*
X55645866Y-103091695D02*
X55950628Y-103091695D01*
X55950628Y-103091695D02*
X56026818Y-103129790D01*
X56026818Y-103129790D02*
X56064913Y-103167885D01*
X56064913Y-103167885D02*
X56103009Y-103244076D01*
X56103009Y-103244076D02*
X56103009Y-103358361D01*
X56103009Y-103358361D02*
X56064913Y-103434552D01*
X56064913Y-103434552D02*
X56026818Y-103472647D01*
X56026818Y-103472647D02*
X55950628Y-103510742D01*
X55950628Y-103510742D02*
X55645866Y-103510742D01*
X56407770Y-103167885D02*
X56445866Y-103129790D01*
X56445866Y-103129790D02*
X56522056Y-103091695D01*
X56522056Y-103091695D02*
X56712532Y-103091695D01*
X56712532Y-103091695D02*
X56788723Y-103129790D01*
X56788723Y-103129790D02*
X56826818Y-103167885D01*
X56826818Y-103167885D02*
X56864913Y-103244076D01*
X56864913Y-103244076D02*
X56864913Y-103320266D01*
X56864913Y-103320266D02*
X56826818Y-103434552D01*
X56826818Y-103434552D02*
X56369675Y-103891695D01*
X56369675Y-103891695D02*
X56864913Y-103891695D01*
X57550628Y-103358361D02*
X57550628Y-103891695D01*
X57360152Y-103053600D02*
X57169675Y-103625028D01*
X57169675Y-103625028D02*
X57664914Y-103625028D01*
X58464914Y-103091695D02*
X58922057Y-103091695D01*
X58693485Y-103891695D02*
X58693485Y-103091695D01*
X59493486Y-103853600D02*
X59417295Y-103891695D01*
X59417295Y-103891695D02*
X59264914Y-103891695D01*
X59264914Y-103891695D02*
X59188724Y-103853600D01*
X59188724Y-103853600D02*
X59150628Y-103777409D01*
X59150628Y-103777409D02*
X59150628Y-103472647D01*
X59150628Y-103472647D02*
X59188724Y-103396457D01*
X59188724Y-103396457D02*
X59264914Y-103358361D01*
X59264914Y-103358361D02*
X59417295Y-103358361D01*
X59417295Y-103358361D02*
X59493486Y-103396457D01*
X59493486Y-103396457D02*
X59531581Y-103472647D01*
X59531581Y-103472647D02*
X59531581Y-103548838D01*
X59531581Y-103548838D02*
X59150628Y-103625028D01*
X60217295Y-103891695D02*
X60217295Y-103472647D01*
X60217295Y-103472647D02*
X60179200Y-103396457D01*
X60179200Y-103396457D02*
X60103009Y-103358361D01*
X60103009Y-103358361D02*
X59950628Y-103358361D01*
X59950628Y-103358361D02*
X59874438Y-103396457D01*
X60217295Y-103853600D02*
X60141104Y-103891695D01*
X60141104Y-103891695D02*
X59950628Y-103891695D01*
X59950628Y-103891695D02*
X59874438Y-103853600D01*
X59874438Y-103853600D02*
X59836342Y-103777409D01*
X59836342Y-103777409D02*
X59836342Y-103701219D01*
X59836342Y-103701219D02*
X59874438Y-103625028D01*
X59874438Y-103625028D02*
X59950628Y-103586933D01*
X59950628Y-103586933D02*
X60141104Y-103586933D01*
X60141104Y-103586933D02*
X60217295Y-103548838D01*
X60598248Y-103891695D02*
X60598248Y-103358361D01*
X60598248Y-103434552D02*
X60636343Y-103396457D01*
X60636343Y-103396457D02*
X60712533Y-103358361D01*
X60712533Y-103358361D02*
X60826819Y-103358361D01*
X60826819Y-103358361D02*
X60903010Y-103396457D01*
X60903010Y-103396457D02*
X60941105Y-103472647D01*
X60941105Y-103472647D02*
X60941105Y-103891695D01*
X60941105Y-103472647D02*
X60979200Y-103396457D01*
X60979200Y-103396457D02*
X61055391Y-103358361D01*
X61055391Y-103358361D02*
X61169676Y-103358361D01*
X61169676Y-103358361D02*
X61245867Y-103396457D01*
X61245867Y-103396457D02*
X61283962Y-103472647D01*
X61283962Y-103472647D02*
X61283962Y-103891695D01*
X62693486Y-103891695D02*
X62236343Y-103891695D01*
X62464915Y-103891695D02*
X62464915Y-103091695D01*
X62464915Y-103091695D02*
X62388724Y-103205980D01*
X62388724Y-103205980D02*
X62312534Y-103282171D01*
X62312534Y-103282171D02*
X62236343Y-103320266D01*
X63455391Y-103891695D02*
X62998248Y-103891695D01*
X63226820Y-103891695D02*
X63226820Y-103091695D01*
X63226820Y-103091695D02*
X63150629Y-103205980D01*
X63150629Y-103205980D02*
X63074439Y-103282171D01*
X63074439Y-103282171D02*
X62998248Y-103320266D01*
D12*
X133070112Y-103946009D02*
X133212969Y-103993628D01*
X133212969Y-103993628D02*
X133260588Y-104041247D01*
X133260588Y-104041247D02*
X133308207Y-104136485D01*
X133308207Y-104136485D02*
X133308207Y-104279342D01*
X133308207Y-104279342D02*
X133260588Y-104374580D01*
X133260588Y-104374580D02*
X133212969Y-104422200D01*
X133212969Y-104422200D02*
X133117731Y-104469819D01*
X133117731Y-104469819D02*
X132736779Y-104469819D01*
X132736779Y-104469819D02*
X132736779Y-103469819D01*
X132736779Y-103469819D02*
X133070112Y-103469819D01*
X133070112Y-103469819D02*
X133165350Y-103517438D01*
X133165350Y-103517438D02*
X133212969Y-103565057D01*
X133212969Y-103565057D02*
X133260588Y-103660295D01*
X133260588Y-103660295D02*
X133260588Y-103755533D01*
X133260588Y-103755533D02*
X133212969Y-103850771D01*
X133212969Y-103850771D02*
X133165350Y-103898390D01*
X133165350Y-103898390D02*
X133070112Y-103946009D01*
X133070112Y-103946009D02*
X132736779Y-103946009D01*
X133927255Y-103469819D02*
X134117731Y-103469819D01*
X134117731Y-103469819D02*
X134212969Y-103517438D01*
X134212969Y-103517438D02*
X134308207Y-103612676D01*
X134308207Y-103612676D02*
X134355826Y-103803152D01*
X134355826Y-103803152D02*
X134355826Y-104136485D01*
X134355826Y-104136485D02*
X134308207Y-104326961D01*
X134308207Y-104326961D02*
X134212969Y-104422200D01*
X134212969Y-104422200D02*
X134117731Y-104469819D01*
X134117731Y-104469819D02*
X133927255Y-104469819D01*
X133927255Y-104469819D02*
X133832017Y-104422200D01*
X133832017Y-104422200D02*
X133736779Y-104326961D01*
X133736779Y-104326961D02*
X133689160Y-104136485D01*
X133689160Y-104136485D02*
X133689160Y-103803152D01*
X133689160Y-103803152D02*
X133736779Y-103612676D01*
X133736779Y-103612676D02*
X133832017Y-103517438D01*
X133832017Y-103517438D02*
X133927255Y-103469819D01*
X134974874Y-103469819D02*
X135165350Y-103469819D01*
X135165350Y-103469819D02*
X135260588Y-103517438D01*
X135260588Y-103517438D02*
X135355826Y-103612676D01*
X135355826Y-103612676D02*
X135403445Y-103803152D01*
X135403445Y-103803152D02*
X135403445Y-104136485D01*
X135403445Y-104136485D02*
X135355826Y-104326961D01*
X135355826Y-104326961D02*
X135260588Y-104422200D01*
X135260588Y-104422200D02*
X135165350Y-104469819D01*
X135165350Y-104469819D02*
X134974874Y-104469819D01*
X134974874Y-104469819D02*
X134879636Y-104422200D01*
X134879636Y-104422200D02*
X134784398Y-104326961D01*
X134784398Y-104326961D02*
X134736779Y-104136485D01*
X134736779Y-104136485D02*
X134736779Y-103803152D01*
X134736779Y-103803152D02*
X134784398Y-103612676D01*
X134784398Y-103612676D02*
X134879636Y-103517438D01*
X134879636Y-103517438D02*
X134974874Y-103469819D01*
X135689160Y-103469819D02*
X136260588Y-103469819D01*
X135974874Y-104469819D02*
X135974874Y-103469819D01*
X118308207Y-104469819D02*
X117974874Y-103993628D01*
X117736779Y-104469819D02*
X117736779Y-103469819D01*
X117736779Y-103469819D02*
X118117731Y-103469819D01*
X118117731Y-103469819D02*
X118212969Y-103517438D01*
X118212969Y-103517438D02*
X118260588Y-103565057D01*
X118260588Y-103565057D02*
X118308207Y-103660295D01*
X118308207Y-103660295D02*
X118308207Y-103803152D01*
X118308207Y-103803152D02*
X118260588Y-103898390D01*
X118260588Y-103898390D02*
X118212969Y-103946009D01*
X118212969Y-103946009D02*
X118117731Y-103993628D01*
X118117731Y-103993628D02*
X117736779Y-103993628D01*
X118736779Y-103946009D02*
X119070112Y-103946009D01*
X119212969Y-104469819D02*
X118736779Y-104469819D01*
X118736779Y-104469819D02*
X118736779Y-103469819D01*
X118736779Y-103469819D02*
X119212969Y-103469819D01*
X119593922Y-104422200D02*
X119736779Y-104469819D01*
X119736779Y-104469819D02*
X119974874Y-104469819D01*
X119974874Y-104469819D02*
X120070112Y-104422200D01*
X120070112Y-104422200D02*
X120117731Y-104374580D01*
X120117731Y-104374580D02*
X120165350Y-104279342D01*
X120165350Y-104279342D02*
X120165350Y-104184104D01*
X120165350Y-104184104D02*
X120117731Y-104088866D01*
X120117731Y-104088866D02*
X120070112Y-104041247D01*
X120070112Y-104041247D02*
X119974874Y-103993628D01*
X119974874Y-103993628D02*
X119784398Y-103946009D01*
X119784398Y-103946009D02*
X119689160Y-103898390D01*
X119689160Y-103898390D02*
X119641541Y-103850771D01*
X119641541Y-103850771D02*
X119593922Y-103755533D01*
X119593922Y-103755533D02*
X119593922Y-103660295D01*
X119593922Y-103660295D02*
X119641541Y-103565057D01*
X119641541Y-103565057D02*
X119689160Y-103517438D01*
X119689160Y-103517438D02*
X119784398Y-103469819D01*
X119784398Y-103469819D02*
X120022493Y-103469819D01*
X120022493Y-103469819D02*
X120165350Y-103517438D01*
X120593922Y-103946009D02*
X120927255Y-103946009D01*
X121070112Y-104469819D02*
X120593922Y-104469819D01*
X120593922Y-104469819D02*
X120593922Y-103469819D01*
X120593922Y-103469819D02*
X121070112Y-103469819D01*
X121355827Y-103469819D02*
X121927255Y-103469819D01*
X121641541Y-104469819D02*
X121641541Y-103469819D01*
X110190476Y-81424819D02*
X110190476Y-82139104D01*
X110190476Y-82139104D02*
X110142857Y-82281961D01*
X110142857Y-82281961D02*
X110047619Y-82377200D01*
X110047619Y-82377200D02*
X109904762Y-82424819D01*
X109904762Y-82424819D02*
X109809524Y-82424819D01*
X111190476Y-82424819D02*
X110619048Y-82424819D01*
X110904762Y-82424819D02*
X110904762Y-81424819D01*
X110904762Y-81424819D02*
X110809524Y-81567676D01*
X110809524Y-81567676D02*
X110714286Y-81662914D01*
X110714286Y-81662914D02*
X110619048Y-81710533D01*
X111571429Y-81520057D02*
X111619048Y-81472438D01*
X111619048Y-81472438D02*
X111714286Y-81424819D01*
X111714286Y-81424819D02*
X111952381Y-81424819D01*
X111952381Y-81424819D02*
X112047619Y-81472438D01*
X112047619Y-81472438D02*
X112095238Y-81520057D01*
X112095238Y-81520057D02*
X112142857Y-81615295D01*
X112142857Y-81615295D02*
X112142857Y-81710533D01*
X112142857Y-81710533D02*
X112095238Y-81853390D01*
X112095238Y-81853390D02*
X111523810Y-82424819D01*
X111523810Y-82424819D02*
X112142857Y-82424819D01*
X140190476Y-108284819D02*
X140190476Y-108999104D01*
X140190476Y-108999104D02*
X140142857Y-109141961D01*
X140142857Y-109141961D02*
X140047619Y-109237200D01*
X140047619Y-109237200D02*
X139904762Y-109284819D01*
X139904762Y-109284819D02*
X139809524Y-109284819D01*
X140619048Y-108380057D02*
X140666667Y-108332438D01*
X140666667Y-108332438D02*
X140761905Y-108284819D01*
X140761905Y-108284819D02*
X141000000Y-108284819D01*
X141000000Y-108284819D02*
X141095238Y-108332438D01*
X141095238Y-108332438D02*
X141142857Y-108380057D01*
X141142857Y-108380057D02*
X141190476Y-108475295D01*
X141190476Y-108475295D02*
X141190476Y-108570533D01*
X141190476Y-108570533D02*
X141142857Y-108713390D01*
X141142857Y-108713390D02*
X140571429Y-109284819D01*
X140571429Y-109284819D02*
X141190476Y-109284819D01*
X141523810Y-108284819D02*
X142142857Y-108284819D01*
X142142857Y-108284819D02*
X141809524Y-108665771D01*
X141809524Y-108665771D02*
X141952381Y-108665771D01*
X141952381Y-108665771D02*
X142047619Y-108713390D01*
X142047619Y-108713390D02*
X142095238Y-108761009D01*
X142095238Y-108761009D02*
X142142857Y-108856247D01*
X142142857Y-108856247D02*
X142142857Y-109094342D01*
X142142857Y-109094342D02*
X142095238Y-109189580D01*
X142095238Y-109189580D02*
X142047619Y-109237200D01*
X142047619Y-109237200D02*
X141952381Y-109284819D01*
X141952381Y-109284819D02*
X141666667Y-109284819D01*
X141666667Y-109284819D02*
X141571429Y-109237200D01*
X141571429Y-109237200D02*
X141523810Y-109189580D01*
X95004819Y-84809523D02*
X95719104Y-84809523D01*
X95719104Y-84809523D02*
X95861961Y-84857142D01*
X95861961Y-84857142D02*
X95957200Y-84952380D01*
X95957200Y-84952380D02*
X96004819Y-85095237D01*
X96004819Y-85095237D02*
X96004819Y-85190475D01*
X96004819Y-83809523D02*
X96004819Y-84380951D01*
X96004819Y-84095237D02*
X95004819Y-84095237D01*
X95004819Y-84095237D02*
X95147676Y-84190475D01*
X95147676Y-84190475D02*
X95242914Y-84285713D01*
X95242914Y-84285713D02*
X95290533Y-84380951D01*
X95004819Y-82904761D02*
X95004819Y-83380951D01*
X95004819Y-83380951D02*
X95481009Y-83428570D01*
X95481009Y-83428570D02*
X95433390Y-83380951D01*
X95433390Y-83380951D02*
X95385771Y-83285713D01*
X95385771Y-83285713D02*
X95385771Y-83047618D01*
X95385771Y-83047618D02*
X95433390Y-82952380D01*
X95433390Y-82952380D02*
X95481009Y-82904761D01*
X95481009Y-82904761D02*
X95576247Y-82857142D01*
X95576247Y-82857142D02*
X95814342Y-82857142D01*
X95814342Y-82857142D02*
X95909580Y-82904761D01*
X95909580Y-82904761D02*
X95957200Y-82952380D01*
X95957200Y-82952380D02*
X96004819Y-83047618D01*
X96004819Y-83047618D02*
X96004819Y-83285713D01*
X96004819Y-83285713D02*
X95957200Y-83380951D01*
X95957200Y-83380951D02*
X95909580Y-83428570D01*
X139790476Y-61654819D02*
X139790476Y-62369104D01*
X139790476Y-62369104D02*
X139742857Y-62511961D01*
X139742857Y-62511961D02*
X139647619Y-62607200D01*
X139647619Y-62607200D02*
X139504762Y-62654819D01*
X139504762Y-62654819D02*
X139409524Y-62654819D01*
X140790476Y-62654819D02*
X140219048Y-62654819D01*
X140504762Y-62654819D02*
X140504762Y-61654819D01*
X140504762Y-61654819D02*
X140409524Y-61797676D01*
X140409524Y-61797676D02*
X140314286Y-61892914D01*
X140314286Y-61892914D02*
X140219048Y-61940533D01*
X141361905Y-62083390D02*
X141266667Y-62035771D01*
X141266667Y-62035771D02*
X141219048Y-61988152D01*
X141219048Y-61988152D02*
X141171429Y-61892914D01*
X141171429Y-61892914D02*
X141171429Y-61845295D01*
X141171429Y-61845295D02*
X141219048Y-61750057D01*
X141219048Y-61750057D02*
X141266667Y-61702438D01*
X141266667Y-61702438D02*
X141361905Y-61654819D01*
X141361905Y-61654819D02*
X141552381Y-61654819D01*
X141552381Y-61654819D02*
X141647619Y-61702438D01*
X141647619Y-61702438D02*
X141695238Y-61750057D01*
X141695238Y-61750057D02*
X141742857Y-61845295D01*
X141742857Y-61845295D02*
X141742857Y-61892914D01*
X141742857Y-61892914D02*
X141695238Y-61988152D01*
X141695238Y-61988152D02*
X141647619Y-62035771D01*
X141647619Y-62035771D02*
X141552381Y-62083390D01*
X141552381Y-62083390D02*
X141361905Y-62083390D01*
X141361905Y-62083390D02*
X141266667Y-62131009D01*
X141266667Y-62131009D02*
X141219048Y-62178628D01*
X141219048Y-62178628D02*
X141171429Y-62273866D01*
X141171429Y-62273866D02*
X141171429Y-62464342D01*
X141171429Y-62464342D02*
X141219048Y-62559580D01*
X141219048Y-62559580D02*
X141266667Y-62607200D01*
X141266667Y-62607200D02*
X141361905Y-62654819D01*
X141361905Y-62654819D02*
X141552381Y-62654819D01*
X141552381Y-62654819D02*
X141647619Y-62607200D01*
X141647619Y-62607200D02*
X141695238Y-62559580D01*
X141695238Y-62559580D02*
X141742857Y-62464342D01*
X141742857Y-62464342D02*
X141742857Y-62273866D01*
X141742857Y-62273866D02*
X141695238Y-62178628D01*
X141695238Y-62178628D02*
X141647619Y-62131009D01*
X141647619Y-62131009D02*
X141552381Y-62083390D01*
X64245181Y-68661905D02*
X65245181Y-68661905D01*
X64245181Y-69233333D02*
X64816610Y-68804762D01*
X65245181Y-69233333D02*
X64673753Y-68661905D01*
X65149943Y-69614286D02*
X65197562Y-69661905D01*
X65197562Y-69661905D02*
X65245181Y-69757143D01*
X65245181Y-69757143D02*
X65245181Y-69995238D01*
X65245181Y-69995238D02*
X65197562Y-70090476D01*
X65197562Y-70090476D02*
X65149943Y-70138095D01*
X65149943Y-70138095D02*
X65054705Y-70185714D01*
X65054705Y-70185714D02*
X64959467Y-70185714D01*
X64959467Y-70185714D02*
X64816610Y-70138095D01*
X64816610Y-70138095D02*
X64245181Y-69566667D01*
X64245181Y-69566667D02*
X64245181Y-70185714D01*
X101254819Y-63409523D02*
X101969104Y-63409523D01*
X101969104Y-63409523D02*
X102111961Y-63457142D01*
X102111961Y-63457142D02*
X102207200Y-63552380D01*
X102207200Y-63552380D02*
X102254819Y-63695237D01*
X102254819Y-63695237D02*
X102254819Y-63790475D01*
X102254819Y-62409523D02*
X102254819Y-62980951D01*
X102254819Y-62695237D02*
X101254819Y-62695237D01*
X101254819Y-62695237D02*
X101397676Y-62790475D01*
X101397676Y-62790475D02*
X101492914Y-62885713D01*
X101492914Y-62885713D02*
X101540533Y-62980951D01*
X101254819Y-62076189D02*
X101254819Y-61457142D01*
X101254819Y-61457142D02*
X101635771Y-61790475D01*
X101635771Y-61790475D02*
X101635771Y-61647618D01*
X101635771Y-61647618D02*
X101683390Y-61552380D01*
X101683390Y-61552380D02*
X101731009Y-61504761D01*
X101731009Y-61504761D02*
X101826247Y-61457142D01*
X101826247Y-61457142D02*
X102064342Y-61457142D01*
X102064342Y-61457142D02*
X102159580Y-61504761D01*
X102159580Y-61504761D02*
X102207200Y-61552380D01*
X102207200Y-61552380D02*
X102254819Y-61647618D01*
X102254819Y-61647618D02*
X102254819Y-61933332D01*
X102254819Y-61933332D02*
X102207200Y-62028570D01*
X102207200Y-62028570D02*
X102159580Y-62076189D01*
X118990476Y-90254819D02*
X118990476Y-90969104D01*
X118990476Y-90969104D02*
X118942857Y-91111961D01*
X118942857Y-91111961D02*
X118847619Y-91207200D01*
X118847619Y-91207200D02*
X118704762Y-91254819D01*
X118704762Y-91254819D02*
X118609524Y-91254819D01*
X119419048Y-90350057D02*
X119466667Y-90302438D01*
X119466667Y-90302438D02*
X119561905Y-90254819D01*
X119561905Y-90254819D02*
X119800000Y-90254819D01*
X119800000Y-90254819D02*
X119895238Y-90302438D01*
X119895238Y-90302438D02*
X119942857Y-90350057D01*
X119942857Y-90350057D02*
X119990476Y-90445295D01*
X119990476Y-90445295D02*
X119990476Y-90540533D01*
X119990476Y-90540533D02*
X119942857Y-90683390D01*
X119942857Y-90683390D02*
X119371429Y-91254819D01*
X119371429Y-91254819D02*
X119990476Y-91254819D01*
X120847619Y-90588152D02*
X120847619Y-91254819D01*
X120609524Y-90207200D02*
X120371429Y-90921485D01*
X120371429Y-90921485D02*
X120990476Y-90921485D01*
X94684819Y-78859523D02*
X95399104Y-78859523D01*
X95399104Y-78859523D02*
X95541961Y-78907142D01*
X95541961Y-78907142D02*
X95637200Y-79002380D01*
X95637200Y-79002380D02*
X95684819Y-79145237D01*
X95684819Y-79145237D02*
X95684819Y-79240475D01*
X95684819Y-77859523D02*
X95684819Y-78430951D01*
X95684819Y-78145237D02*
X94684819Y-78145237D01*
X94684819Y-78145237D02*
X94827676Y-78240475D01*
X94827676Y-78240475D02*
X94922914Y-78335713D01*
X94922914Y-78335713D02*
X94970533Y-78430951D01*
X95684819Y-76907142D02*
X95684819Y-77478570D01*
X95684819Y-77192856D02*
X94684819Y-77192856D01*
X94684819Y-77192856D02*
X94827676Y-77288094D01*
X94827676Y-77288094D02*
X94922914Y-77383332D01*
X94922914Y-77383332D02*
X94970533Y-77478570D01*
X123854819Y-97809523D02*
X124569104Y-97809523D01*
X124569104Y-97809523D02*
X124711961Y-97857142D01*
X124711961Y-97857142D02*
X124807200Y-97952380D01*
X124807200Y-97952380D02*
X124854819Y-98095237D01*
X124854819Y-98095237D02*
X124854819Y-98190475D01*
X124854819Y-96809523D02*
X124854819Y-97380951D01*
X124854819Y-97095237D02*
X123854819Y-97095237D01*
X123854819Y-97095237D02*
X123997676Y-97190475D01*
X123997676Y-97190475D02*
X124092914Y-97285713D01*
X124092914Y-97285713D02*
X124140533Y-97380951D01*
X123854819Y-96476189D02*
X123854819Y-95809523D01*
X123854819Y-95809523D02*
X124854819Y-96238094D01*
X133390476Y-114254819D02*
X133390476Y-114969104D01*
X133390476Y-114969104D02*
X133342857Y-115111961D01*
X133342857Y-115111961D02*
X133247619Y-115207200D01*
X133247619Y-115207200D02*
X133104762Y-115254819D01*
X133104762Y-115254819D02*
X133009524Y-115254819D01*
X133819048Y-114350057D02*
X133866667Y-114302438D01*
X133866667Y-114302438D02*
X133961905Y-114254819D01*
X133961905Y-114254819D02*
X134200000Y-114254819D01*
X134200000Y-114254819D02*
X134295238Y-114302438D01*
X134295238Y-114302438D02*
X134342857Y-114350057D01*
X134342857Y-114350057D02*
X134390476Y-114445295D01*
X134390476Y-114445295D02*
X134390476Y-114540533D01*
X134390476Y-114540533D02*
X134342857Y-114683390D01*
X134342857Y-114683390D02*
X133771429Y-115254819D01*
X133771429Y-115254819D02*
X134390476Y-115254819D01*
X134771429Y-114350057D02*
X134819048Y-114302438D01*
X134819048Y-114302438D02*
X134914286Y-114254819D01*
X134914286Y-114254819D02*
X135152381Y-114254819D01*
X135152381Y-114254819D02*
X135247619Y-114302438D01*
X135247619Y-114302438D02*
X135295238Y-114350057D01*
X135295238Y-114350057D02*
X135342857Y-114445295D01*
X135342857Y-114445295D02*
X135342857Y-114540533D01*
X135342857Y-114540533D02*
X135295238Y-114683390D01*
X135295238Y-114683390D02*
X134723810Y-115254819D01*
X134723810Y-115254819D02*
X135342857Y-115254819D01*
X102666666Y-101284819D02*
X102666666Y-101999104D01*
X102666666Y-101999104D02*
X102619047Y-102141961D01*
X102619047Y-102141961D02*
X102523809Y-102237200D01*
X102523809Y-102237200D02*
X102380952Y-102284819D01*
X102380952Y-102284819D02*
X102285714Y-102284819D01*
X103285714Y-101713390D02*
X103190476Y-101665771D01*
X103190476Y-101665771D02*
X103142857Y-101618152D01*
X103142857Y-101618152D02*
X103095238Y-101522914D01*
X103095238Y-101522914D02*
X103095238Y-101475295D01*
X103095238Y-101475295D02*
X103142857Y-101380057D01*
X103142857Y-101380057D02*
X103190476Y-101332438D01*
X103190476Y-101332438D02*
X103285714Y-101284819D01*
X103285714Y-101284819D02*
X103476190Y-101284819D01*
X103476190Y-101284819D02*
X103571428Y-101332438D01*
X103571428Y-101332438D02*
X103619047Y-101380057D01*
X103619047Y-101380057D02*
X103666666Y-101475295D01*
X103666666Y-101475295D02*
X103666666Y-101522914D01*
X103666666Y-101522914D02*
X103619047Y-101618152D01*
X103619047Y-101618152D02*
X103571428Y-101665771D01*
X103571428Y-101665771D02*
X103476190Y-101713390D01*
X103476190Y-101713390D02*
X103285714Y-101713390D01*
X103285714Y-101713390D02*
X103190476Y-101761009D01*
X103190476Y-101761009D02*
X103142857Y-101808628D01*
X103142857Y-101808628D02*
X103095238Y-101903866D01*
X103095238Y-101903866D02*
X103095238Y-102094342D01*
X103095238Y-102094342D02*
X103142857Y-102189580D01*
X103142857Y-102189580D02*
X103190476Y-102237200D01*
X103190476Y-102237200D02*
X103285714Y-102284819D01*
X103285714Y-102284819D02*
X103476190Y-102284819D01*
X103476190Y-102284819D02*
X103571428Y-102237200D01*
X103571428Y-102237200D02*
X103619047Y-102189580D01*
X103619047Y-102189580D02*
X103666666Y-102094342D01*
X103666666Y-102094342D02*
X103666666Y-101903866D01*
X103666666Y-101903866D02*
X103619047Y-101808628D01*
X103619047Y-101808628D02*
X103571428Y-101761009D01*
X103571428Y-101761009D02*
X103476190Y-101713390D01*
X95004819Y-89109523D02*
X95719104Y-89109523D01*
X95719104Y-89109523D02*
X95861961Y-89157142D01*
X95861961Y-89157142D02*
X95957200Y-89252380D01*
X95957200Y-89252380D02*
X96004819Y-89395237D01*
X96004819Y-89395237D02*
X96004819Y-89490475D01*
X96004819Y-88109523D02*
X96004819Y-88680951D01*
X96004819Y-88395237D02*
X95004819Y-88395237D01*
X95004819Y-88395237D02*
X95147676Y-88490475D01*
X95147676Y-88490475D02*
X95242914Y-88585713D01*
X95242914Y-88585713D02*
X95290533Y-88680951D01*
X95338152Y-87252380D02*
X96004819Y-87252380D01*
X94957200Y-87490475D02*
X95671485Y-87728570D01*
X95671485Y-87728570D02*
X95671485Y-87109523D01*
X140390476Y-99424819D02*
X140390476Y-100139104D01*
X140390476Y-100139104D02*
X140342857Y-100281961D01*
X140342857Y-100281961D02*
X140247619Y-100377200D01*
X140247619Y-100377200D02*
X140104762Y-100424819D01*
X140104762Y-100424819D02*
X140009524Y-100424819D01*
X141390476Y-100424819D02*
X140819048Y-100424819D01*
X141104762Y-100424819D02*
X141104762Y-99424819D01*
X141104762Y-99424819D02*
X141009524Y-99567676D01*
X141009524Y-99567676D02*
X140914286Y-99662914D01*
X140914286Y-99662914D02*
X140819048Y-99710533D01*
X142247619Y-99424819D02*
X142057143Y-99424819D01*
X142057143Y-99424819D02*
X141961905Y-99472438D01*
X141961905Y-99472438D02*
X141914286Y-99520057D01*
X141914286Y-99520057D02*
X141819048Y-99662914D01*
X141819048Y-99662914D02*
X141771429Y-99853390D01*
X141771429Y-99853390D02*
X141771429Y-100234342D01*
X141771429Y-100234342D02*
X141819048Y-100329580D01*
X141819048Y-100329580D02*
X141866667Y-100377200D01*
X141866667Y-100377200D02*
X141961905Y-100424819D01*
X141961905Y-100424819D02*
X142152381Y-100424819D01*
X142152381Y-100424819D02*
X142247619Y-100377200D01*
X142247619Y-100377200D02*
X142295238Y-100329580D01*
X142295238Y-100329580D02*
X142342857Y-100234342D01*
X142342857Y-100234342D02*
X142342857Y-99996247D01*
X142342857Y-99996247D02*
X142295238Y-99901009D01*
X142295238Y-99901009D02*
X142247619Y-99853390D01*
X142247619Y-99853390D02*
X142152381Y-99805771D01*
X142152381Y-99805771D02*
X141961905Y-99805771D01*
X141961905Y-99805771D02*
X141866667Y-99853390D01*
X141866667Y-99853390D02*
X141819048Y-99901009D01*
X141819048Y-99901009D02*
X141771429Y-99996247D01*
X64327832Y-90696905D02*
X65327832Y-90696905D01*
X64327832Y-91268333D02*
X64899261Y-90839762D01*
X65327832Y-91268333D02*
X64756404Y-90696905D01*
X64327832Y-92220714D02*
X64327832Y-91649286D01*
X64327832Y-91935000D02*
X65327832Y-91935000D01*
X65327832Y-91935000D02*
X65184975Y-91839762D01*
X65184975Y-91839762D02*
X65089737Y-91744524D01*
X65089737Y-91744524D02*
X65042118Y-91649286D01*
X109590476Y-119884819D02*
X109590476Y-120599104D01*
X109590476Y-120599104D02*
X109542857Y-120741961D01*
X109542857Y-120741961D02*
X109447619Y-120837200D01*
X109447619Y-120837200D02*
X109304762Y-120884819D01*
X109304762Y-120884819D02*
X109209524Y-120884819D01*
X110019048Y-119980057D02*
X110066667Y-119932438D01*
X110066667Y-119932438D02*
X110161905Y-119884819D01*
X110161905Y-119884819D02*
X110400000Y-119884819D01*
X110400000Y-119884819D02*
X110495238Y-119932438D01*
X110495238Y-119932438D02*
X110542857Y-119980057D01*
X110542857Y-119980057D02*
X110590476Y-120075295D01*
X110590476Y-120075295D02*
X110590476Y-120170533D01*
X110590476Y-120170533D02*
X110542857Y-120313390D01*
X110542857Y-120313390D02*
X109971429Y-120884819D01*
X109971429Y-120884819D02*
X110590476Y-120884819D01*
X111209524Y-119884819D02*
X111304762Y-119884819D01*
X111304762Y-119884819D02*
X111400000Y-119932438D01*
X111400000Y-119932438D02*
X111447619Y-119980057D01*
X111447619Y-119980057D02*
X111495238Y-120075295D01*
X111495238Y-120075295D02*
X111542857Y-120265771D01*
X111542857Y-120265771D02*
X111542857Y-120503866D01*
X111542857Y-120503866D02*
X111495238Y-120694342D01*
X111495238Y-120694342D02*
X111447619Y-120789580D01*
X111447619Y-120789580D02*
X111400000Y-120837200D01*
X111400000Y-120837200D02*
X111304762Y-120884819D01*
X111304762Y-120884819D02*
X111209524Y-120884819D01*
X111209524Y-120884819D02*
X111114286Y-120837200D01*
X111114286Y-120837200D02*
X111066667Y-120789580D01*
X111066667Y-120789580D02*
X111019048Y-120694342D01*
X111019048Y-120694342D02*
X110971429Y-120503866D01*
X110971429Y-120503866D02*
X110971429Y-120265771D01*
X110971429Y-120265771D02*
X111019048Y-120075295D01*
X111019048Y-120075295D02*
X111066667Y-119980057D01*
X111066667Y-119980057D02*
X111114286Y-119932438D01*
X111114286Y-119932438D02*
X111209524Y-119884819D01*
X126190476Y-107054819D02*
X126190476Y-107769104D01*
X126190476Y-107769104D02*
X126142857Y-107911961D01*
X126142857Y-107911961D02*
X126047619Y-108007200D01*
X126047619Y-108007200D02*
X125904762Y-108054819D01*
X125904762Y-108054819D02*
X125809524Y-108054819D01*
X126619048Y-107150057D02*
X126666667Y-107102438D01*
X126666667Y-107102438D02*
X126761905Y-107054819D01*
X126761905Y-107054819D02*
X127000000Y-107054819D01*
X127000000Y-107054819D02*
X127095238Y-107102438D01*
X127095238Y-107102438D02*
X127142857Y-107150057D01*
X127142857Y-107150057D02*
X127190476Y-107245295D01*
X127190476Y-107245295D02*
X127190476Y-107340533D01*
X127190476Y-107340533D02*
X127142857Y-107483390D01*
X127142857Y-107483390D02*
X126571429Y-108054819D01*
X126571429Y-108054819D02*
X127190476Y-108054819D01*
X128095238Y-107054819D02*
X127619048Y-107054819D01*
X127619048Y-107054819D02*
X127571429Y-107531009D01*
X127571429Y-107531009D02*
X127619048Y-107483390D01*
X127619048Y-107483390D02*
X127714286Y-107435771D01*
X127714286Y-107435771D02*
X127952381Y-107435771D01*
X127952381Y-107435771D02*
X128047619Y-107483390D01*
X128047619Y-107483390D02*
X128095238Y-107531009D01*
X128095238Y-107531009D02*
X128142857Y-107626247D01*
X128142857Y-107626247D02*
X128142857Y-107864342D01*
X128142857Y-107864342D02*
X128095238Y-107959580D01*
X128095238Y-107959580D02*
X128047619Y-108007200D01*
X128047619Y-108007200D02*
X127952381Y-108054819D01*
X127952381Y-108054819D02*
X127714286Y-108054819D01*
X127714286Y-108054819D02*
X127619048Y-108007200D01*
X127619048Y-108007200D02*
X127571429Y-107959580D01*
X139790476Y-70854819D02*
X139790476Y-71569104D01*
X139790476Y-71569104D02*
X139742857Y-71711961D01*
X139742857Y-71711961D02*
X139647619Y-71807200D01*
X139647619Y-71807200D02*
X139504762Y-71854819D01*
X139504762Y-71854819D02*
X139409524Y-71854819D01*
X140790476Y-71854819D02*
X140219048Y-71854819D01*
X140504762Y-71854819D02*
X140504762Y-70854819D01*
X140504762Y-70854819D02*
X140409524Y-70997676D01*
X140409524Y-70997676D02*
X140314286Y-71092914D01*
X140314286Y-71092914D02*
X140219048Y-71140533D01*
X141266667Y-71854819D02*
X141457143Y-71854819D01*
X141457143Y-71854819D02*
X141552381Y-71807200D01*
X141552381Y-71807200D02*
X141600000Y-71759580D01*
X141600000Y-71759580D02*
X141695238Y-71616723D01*
X141695238Y-71616723D02*
X141742857Y-71426247D01*
X141742857Y-71426247D02*
X141742857Y-71045295D01*
X141742857Y-71045295D02*
X141695238Y-70950057D01*
X141695238Y-70950057D02*
X141647619Y-70902438D01*
X141647619Y-70902438D02*
X141552381Y-70854819D01*
X141552381Y-70854819D02*
X141361905Y-70854819D01*
X141361905Y-70854819D02*
X141266667Y-70902438D01*
X141266667Y-70902438D02*
X141219048Y-70950057D01*
X141219048Y-70950057D02*
X141171429Y-71045295D01*
X141171429Y-71045295D02*
X141171429Y-71283390D01*
X141171429Y-71283390D02*
X141219048Y-71378628D01*
X141219048Y-71378628D02*
X141266667Y-71426247D01*
X141266667Y-71426247D02*
X141361905Y-71473866D01*
X141361905Y-71473866D02*
X141552381Y-71473866D01*
X141552381Y-71473866D02*
X141647619Y-71426247D01*
X141647619Y-71426247D02*
X141695238Y-71378628D01*
X141695238Y-71378628D02*
X141742857Y-71283390D01*
%TO.C,G\u002A\u002A\u002A*%
G36*
X60811961Y-109628624D02*
G01*
X60808836Y-109631750D01*
X60805710Y-109628624D01*
X60808836Y-109625499D01*
X60811961Y-109628624D01*
G37*
G36*
X60886980Y-109653631D02*
G01*
X60883854Y-109656756D01*
X60880728Y-109653631D01*
X60883854Y-109650505D01*
X60886980Y-109653631D01*
G37*
G36*
X60918238Y-109659882D02*
G01*
X60915112Y-109663008D01*
X60911986Y-109659882D01*
X60915112Y-109656756D01*
X60918238Y-109659882D01*
G37*
G36*
X63356337Y-105671401D02*
G01*
X63353212Y-105674526D01*
X63350086Y-105671401D01*
X63353212Y-105668275D01*
X63356337Y-105671401D01*
G37*
G36*
X63381344Y-105715161D02*
G01*
X63378218Y-105718287D01*
X63375092Y-105715161D01*
X63378218Y-105712036D01*
X63381344Y-105715161D01*
G37*
G36*
X63425104Y-105790180D02*
G01*
X63421979Y-105793306D01*
X63418853Y-105790180D01*
X63421979Y-105787054D01*
X63425104Y-105790180D01*
G37*
G36*
X63450111Y-105833941D02*
G01*
X63446985Y-105837066D01*
X63443859Y-105833941D01*
X63446985Y-105830815D01*
X63450111Y-105833941D01*
G37*
G36*
X63475117Y-105877701D02*
G01*
X63471991Y-105880827D01*
X63468865Y-105877701D01*
X63471991Y-105874576D01*
X63475117Y-105877701D01*
G37*
G36*
X63518877Y-105952720D02*
G01*
X63515752Y-105955846D01*
X63512626Y-105952720D01*
X63515752Y-105949594D01*
X63518877Y-105952720D01*
G37*
G36*
X63543884Y-105996481D02*
G01*
X63540758Y-105999606D01*
X63537632Y-105996481D01*
X63540758Y-105993355D01*
X63543884Y-105996481D01*
G37*
G36*
X63568890Y-106040241D02*
G01*
X63565764Y-106043367D01*
X63562638Y-106040241D01*
X63565764Y-106037116D01*
X63568890Y-106040241D01*
G37*
G36*
X63587644Y-106071499D02*
G01*
X63584519Y-106074625D01*
X63581393Y-106071499D01*
X63584519Y-106068373D01*
X63587644Y-106071499D01*
G37*
G36*
X63612651Y-106115260D02*
G01*
X63609525Y-106118386D01*
X63606399Y-106115260D01*
X63609525Y-106112134D01*
X63612651Y-106115260D01*
G37*
G36*
X63637657Y-106159021D02*
G01*
X63634531Y-106162146D01*
X63631405Y-106159021D01*
X63634531Y-106155895D01*
X63637657Y-106159021D01*
G37*
G36*
X63681417Y-106234039D02*
G01*
X63678292Y-106237165D01*
X63675166Y-106234039D01*
X63678292Y-106230913D01*
X63681417Y-106234039D01*
G37*
G36*
X63706424Y-106277800D02*
G01*
X63703298Y-106280926D01*
X63700172Y-106277800D01*
X63703298Y-106274674D01*
X63706424Y-106277800D01*
G37*
G36*
X63731430Y-106321561D02*
G01*
X63728304Y-106324686D01*
X63725178Y-106321561D01*
X63728304Y-106318435D01*
X63731430Y-106321561D01*
G37*
G36*
X63750184Y-106352818D02*
G01*
X63747059Y-106355944D01*
X63743933Y-106352818D01*
X63747059Y-106349693D01*
X63750184Y-106352818D01*
G37*
G36*
X63775191Y-106396579D02*
G01*
X63772065Y-106399705D01*
X63768939Y-106396579D01*
X63772065Y-106393453D01*
X63775191Y-106396579D01*
G37*
G36*
X63800197Y-106440340D02*
G01*
X63797071Y-106443466D01*
X63793945Y-106440340D01*
X63797071Y-106437214D01*
X63800197Y-106440340D01*
G37*
G36*
X63843957Y-106515358D02*
G01*
X63840832Y-106518484D01*
X63837706Y-106515358D01*
X63840832Y-106512233D01*
X63843957Y-106515358D01*
G37*
G36*
X63868964Y-106559119D02*
G01*
X63865838Y-106562245D01*
X63862712Y-106559119D01*
X63865838Y-106555993D01*
X63868964Y-106559119D01*
G37*
G36*
X63893970Y-106602880D02*
G01*
X63890844Y-106606006D01*
X63887718Y-106602880D01*
X63890844Y-106599754D01*
X63893970Y-106602880D01*
G37*
G36*
X63912724Y-106634138D02*
G01*
X63909599Y-106637263D01*
X63906473Y-106634138D01*
X63909599Y-106631012D01*
X63912724Y-106634138D01*
G37*
G36*
X63937731Y-106677898D02*
G01*
X63934605Y-106681024D01*
X63931479Y-106677898D01*
X63934605Y-106674773D01*
X63937731Y-106677898D01*
G37*
G36*
X63962737Y-106721659D02*
G01*
X63959611Y-106724785D01*
X63956485Y-106721659D01*
X63959611Y-106718533D01*
X63962737Y-106721659D01*
G37*
G36*
X64006497Y-106796678D02*
G01*
X64003372Y-106799803D01*
X64000246Y-106796678D01*
X64003372Y-106793552D01*
X64006497Y-106796678D01*
G37*
G36*
X64031504Y-106840438D02*
G01*
X64028378Y-106843564D01*
X64025252Y-106840438D01*
X64028378Y-106837313D01*
X64031504Y-106840438D01*
G37*
G36*
X64056510Y-106884199D02*
G01*
X64053384Y-106887325D01*
X64050258Y-106884199D01*
X64053384Y-106881073D01*
X64056510Y-106884199D01*
G37*
G36*
X64100271Y-106959218D02*
G01*
X64097145Y-106962343D01*
X64094019Y-106959218D01*
X64097145Y-106956092D01*
X64100271Y-106959218D01*
G37*
G36*
X64125277Y-107002978D02*
G01*
X64122151Y-107006104D01*
X64119025Y-107002978D01*
X64122151Y-106999853D01*
X64125277Y-107002978D01*
G37*
G36*
X64169037Y-107077997D02*
G01*
X64165912Y-107081123D01*
X64162786Y-107077997D01*
X64165912Y-107074871D01*
X64169037Y-107077997D01*
G37*
G36*
X64194044Y-107121758D02*
G01*
X64190918Y-107124883D01*
X64187792Y-107121758D01*
X64190918Y-107118632D01*
X64194044Y-107121758D01*
G37*
G36*
X64219050Y-107165518D02*
G01*
X64215924Y-107168644D01*
X64212798Y-107165518D01*
X64215924Y-107162393D01*
X64219050Y-107165518D01*
G37*
G36*
X64262811Y-107240537D02*
G01*
X64259685Y-107243663D01*
X64256559Y-107240537D01*
X64259685Y-107237411D01*
X64262811Y-107240537D01*
G37*
G36*
X64287817Y-107284298D02*
G01*
X64284691Y-107287423D01*
X64281565Y-107284298D01*
X64284691Y-107281172D01*
X64287817Y-107284298D01*
G37*
G36*
X64312823Y-107328058D02*
G01*
X64309697Y-107331184D01*
X64306571Y-107328058D01*
X64309697Y-107324933D01*
X64312823Y-107328058D01*
G37*
G36*
X64331577Y-107359316D02*
G01*
X64328452Y-107362442D01*
X64325326Y-107359316D01*
X64328452Y-107356190D01*
X64331577Y-107359316D01*
G37*
G36*
X64356584Y-107403077D02*
G01*
X64353458Y-107406203D01*
X64350332Y-107403077D01*
X64353458Y-107399951D01*
X64356584Y-107403077D01*
G37*
G36*
X64381590Y-107446838D02*
G01*
X64378464Y-107449963D01*
X64375338Y-107446838D01*
X64378464Y-107443712D01*
X64381590Y-107446838D01*
G37*
G36*
X64425351Y-107521856D02*
G01*
X64422225Y-107524982D01*
X64419099Y-107521856D01*
X64422225Y-107518730D01*
X64425351Y-107521856D01*
G37*
G36*
X64450357Y-107565617D02*
G01*
X64447231Y-107568743D01*
X64444105Y-107565617D01*
X64447231Y-107562491D01*
X64450357Y-107565617D01*
G37*
G36*
X64475363Y-107609378D02*
G01*
X64472237Y-107612503D01*
X64469111Y-107609378D01*
X64472237Y-107606252D01*
X64475363Y-107609378D01*
G37*
G36*
X64494117Y-107640635D02*
G01*
X64490992Y-107643761D01*
X64487866Y-107640635D01*
X64490992Y-107637509D01*
X64494117Y-107640635D01*
G37*
G36*
X64519124Y-107684396D02*
G01*
X64515998Y-107687522D01*
X64512872Y-107684396D01*
X64515998Y-107681270D01*
X64519124Y-107684396D01*
G37*
G36*
X64544130Y-107728157D02*
G01*
X64541004Y-107731283D01*
X64537878Y-107728157D01*
X64541004Y-107725031D01*
X64544130Y-107728157D01*
G37*
G36*
X64587891Y-107803175D02*
G01*
X64584765Y-107806301D01*
X64581639Y-107803175D01*
X64584765Y-107800049D01*
X64587891Y-107803175D01*
G37*
G36*
X64612897Y-107846936D02*
G01*
X64609771Y-107850062D01*
X64606645Y-107846936D01*
X64609771Y-107843810D01*
X64612897Y-107846936D01*
G37*
G36*
X64637903Y-107890697D02*
G01*
X64634777Y-107893823D01*
X64631651Y-107890697D01*
X64634777Y-107887571D01*
X64637903Y-107890697D01*
G37*
G36*
X64656657Y-107921954D02*
G01*
X64653532Y-107925080D01*
X64650406Y-107921954D01*
X64653532Y-107918829D01*
X64656657Y-107921954D01*
G37*
G36*
X64681664Y-107965715D02*
G01*
X64678538Y-107968841D01*
X64675412Y-107965715D01*
X64678538Y-107962589D01*
X64681664Y-107965715D01*
G37*
G36*
X64706670Y-108009476D02*
G01*
X64703544Y-108012602D01*
X64700418Y-108009476D01*
X64703544Y-108006350D01*
X64706670Y-108009476D01*
G37*
G36*
X64750431Y-108084494D02*
G01*
X64747305Y-108087620D01*
X64744179Y-108084494D01*
X64747305Y-108081369D01*
X64750431Y-108084494D01*
G37*
G36*
X64775437Y-108128255D02*
G01*
X64772311Y-108131381D01*
X64769185Y-108128255D01*
X64772311Y-108125129D01*
X64775437Y-108128255D01*
G37*
G36*
X64800443Y-108172016D02*
G01*
X64797317Y-108175142D01*
X64794191Y-108172016D01*
X64797317Y-108168890D01*
X64800443Y-108172016D01*
G37*
G36*
X64844204Y-108247034D02*
G01*
X64841078Y-108250160D01*
X64837952Y-108247034D01*
X64841078Y-108243909D01*
X64844204Y-108247034D01*
G37*
G36*
X64869210Y-108290795D02*
G01*
X64866084Y-108293921D01*
X64862958Y-108290795D01*
X64866084Y-108287669D01*
X64869210Y-108290795D01*
G37*
G36*
X64894216Y-108334556D02*
G01*
X64891090Y-108337682D01*
X64887964Y-108334556D01*
X64891090Y-108331430D01*
X64894216Y-108334556D01*
G37*
G36*
X64912971Y-108365814D02*
G01*
X64909845Y-108368939D01*
X64906719Y-108365814D01*
X64909845Y-108362688D01*
X64912971Y-108365814D01*
G37*
G36*
X64937977Y-108409574D02*
G01*
X64934851Y-108412700D01*
X64931725Y-108409574D01*
X64934851Y-108406449D01*
X64937977Y-108409574D01*
G37*
G36*
X64956731Y-109659882D02*
G01*
X64953606Y-109663008D01*
X64950480Y-109659882D01*
X64953606Y-109656756D01*
X64956731Y-109659882D01*
G37*
G36*
X64962983Y-108453335D02*
G01*
X64959857Y-108456461D01*
X64956731Y-108453335D01*
X64959857Y-108450209D01*
X64962983Y-108453335D01*
G37*
G36*
X64987989Y-109653631D02*
G01*
X64984863Y-109656756D01*
X64981737Y-109653631D01*
X64984863Y-109650505D01*
X64987989Y-109653631D01*
G37*
G36*
X65006744Y-108528354D02*
G01*
X65003618Y-108531479D01*
X65000492Y-108528354D01*
X65003618Y-108525228D01*
X65006744Y-108528354D01*
G37*
G36*
X65031750Y-108572114D02*
G01*
X65028624Y-108575240D01*
X65025498Y-108572114D01*
X65028624Y-108568989D01*
X65031750Y-108572114D01*
G37*
G36*
X65031750Y-109641127D02*
G01*
X65028624Y-109644253D01*
X65025498Y-109641127D01*
X65028624Y-109638002D01*
X65031750Y-109641127D01*
G37*
G36*
X65044253Y-109634876D02*
G01*
X65041127Y-109638002D01*
X65038001Y-109634876D01*
X65041127Y-109631750D01*
X65044253Y-109634876D01*
G37*
G36*
X65056756Y-108615875D02*
G01*
X65053630Y-108619001D01*
X65050504Y-108615875D01*
X65053630Y-108612749D01*
X65056756Y-108615875D01*
G37*
G36*
X65063007Y-109628624D02*
G01*
X65059882Y-109631750D01*
X65056756Y-109628624D01*
X65059882Y-109625499D01*
X65063007Y-109628624D01*
G37*
G36*
X65075511Y-108647133D02*
G01*
X65072385Y-108650259D01*
X65069259Y-108647133D01*
X65072385Y-108644007D01*
X65075511Y-108647133D01*
G37*
G36*
X65075511Y-109622373D02*
G01*
X65072385Y-109625499D01*
X65069259Y-109622373D01*
X65072385Y-109619247D01*
X65075511Y-109622373D01*
G37*
G36*
X65088014Y-109616121D02*
G01*
X65084888Y-109619247D01*
X65081762Y-109616121D01*
X65084888Y-109612996D01*
X65088014Y-109616121D01*
G37*
G36*
X65100517Y-108690894D02*
G01*
X65097391Y-108694019D01*
X65094265Y-108690894D01*
X65097391Y-108687768D01*
X65100517Y-108690894D01*
G37*
G36*
X65100517Y-109609870D02*
G01*
X65097391Y-109612996D01*
X65094265Y-109609870D01*
X65097391Y-109606744D01*
X65100517Y-109609870D01*
G37*
G36*
X65119271Y-109597367D02*
G01*
X65116146Y-109600492D01*
X65113020Y-109597367D01*
X65116146Y-109594241D01*
X65119271Y-109597367D01*
G37*
G36*
X65125523Y-108734654D02*
G01*
X65122397Y-108737780D01*
X65119271Y-108734654D01*
X65122397Y-108731529D01*
X65125523Y-108734654D01*
G37*
G36*
X65138026Y-109584864D02*
G01*
X65134900Y-109587989D01*
X65131774Y-109584864D01*
X65134900Y-109581738D01*
X65138026Y-109584864D01*
G37*
G36*
X65169284Y-108809673D02*
G01*
X65166158Y-108812799D01*
X65163032Y-108809673D01*
X65166158Y-108806547D01*
X65169284Y-108809673D01*
G37*
G36*
X65194290Y-108853434D02*
G01*
X65191164Y-108856559D01*
X65188038Y-108853434D01*
X65191164Y-108850308D01*
X65194290Y-108853434D01*
G37*
G36*
X65219296Y-108897194D02*
G01*
X65216170Y-108900320D01*
X65213044Y-108897194D01*
X65216170Y-108894069D01*
X65219296Y-108897194D01*
G37*
G36*
X65238051Y-108928452D02*
G01*
X65234925Y-108931578D01*
X65231799Y-108928452D01*
X65234925Y-108925326D01*
X65238051Y-108928452D01*
G37*
G36*
X65244302Y-109478587D02*
G01*
X65241176Y-109481713D01*
X65238051Y-109478587D01*
X65241176Y-109475462D01*
X65244302Y-109478587D01*
G37*
G36*
X65256805Y-109459833D02*
G01*
X65253679Y-109462959D01*
X65250554Y-109459833D01*
X65253679Y-109456707D01*
X65256805Y-109459833D01*
G37*
G36*
X65263057Y-108972213D02*
G01*
X65259931Y-108975339D01*
X65256805Y-108972213D01*
X65259931Y-108969087D01*
X65263057Y-108972213D01*
G37*
G36*
X65269308Y-109441078D02*
G01*
X65266182Y-109444204D01*
X65263057Y-109441078D01*
X65266182Y-109437952D01*
X65269308Y-109441078D01*
G37*
G36*
X65275560Y-109428575D02*
G01*
X65272434Y-109431701D01*
X65269308Y-109428575D01*
X65272434Y-109425449D01*
X65275560Y-109428575D01*
G37*
G36*
X65281811Y-109416072D02*
G01*
X65278686Y-109419198D01*
X65275560Y-109416072D01*
X65278686Y-109412946D01*
X65281811Y-109416072D01*
G37*
G36*
X65288063Y-109403569D02*
G01*
X65284937Y-109406695D01*
X65281811Y-109403569D01*
X65284937Y-109400443D01*
X65288063Y-109403569D01*
G37*
G36*
X65294314Y-109391066D02*
G01*
X65291189Y-109394192D01*
X65288063Y-109391066D01*
X65291189Y-109387940D01*
X65294314Y-109391066D01*
G37*
G36*
X65300566Y-109047231D02*
G01*
X65297440Y-109050357D01*
X65294314Y-109047231D01*
X65297440Y-109044106D01*
X65300566Y-109047231D01*
G37*
G36*
X65306817Y-109359808D02*
G01*
X65303692Y-109362934D01*
X65300566Y-109359808D01*
X65303692Y-109356682D01*
X65306817Y-109359808D01*
G37*
G36*
X65313069Y-109341054D02*
G01*
X65309943Y-109344179D01*
X65306817Y-109341054D01*
X65309943Y-109337928D01*
X65313069Y-109341054D01*
G37*
G36*
X65319321Y-109316047D02*
G01*
X65316195Y-109319173D01*
X65313069Y-109316047D01*
X65316195Y-109312922D01*
X65319321Y-109316047D01*
G37*
G36*
X65325572Y-109134753D02*
G01*
X65322446Y-109137879D01*
X65319321Y-109134753D01*
X65322446Y-109131627D01*
X65325572Y-109134753D01*
G37*
G36*
X65323488Y-109283748D02*
G01*
X65324236Y-109291167D01*
X65323488Y-109292083D01*
X65319772Y-109291225D01*
X65319321Y-109287916D01*
X65321608Y-109282770D01*
X65323488Y-109283748D01*
G37*
G36*
X65167322Y-109560016D02*
G01*
X65163829Y-109564546D01*
X65154705Y-109574265D01*
X65150632Y-109574223D01*
X65150529Y-109573126D01*
X65154801Y-109567908D01*
X65161469Y-109562186D01*
X65168874Y-109556779D01*
X65167322Y-109560016D01*
G37*
G36*
X65223586Y-109503753D02*
G01*
X65220093Y-109508282D01*
X65210969Y-109518001D01*
X65206895Y-109517959D01*
X65206793Y-109516862D01*
X65211065Y-109511644D01*
X65217733Y-109505922D01*
X65225138Y-109500515D01*
X65223586Y-109503753D01*
G37*
G36*
X65330050Y-109195705D02*
G01*
X65331096Y-109215898D01*
X65330050Y-109230089D01*
X65328687Y-109233967D01*
X65327744Y-109226867D01*
X65327445Y-109212897D01*
X65327833Y-109197463D01*
X65328842Y-109191679D01*
X65330050Y-109195705D01*
G37*
G36*
X63022856Y-109663915D02*
G01*
X63188275Y-109663948D01*
X63350742Y-109664013D01*
X63508325Y-109664110D01*
X63659092Y-109664239D01*
X63801111Y-109664399D01*
X63920032Y-109664571D01*
X63988821Y-109664691D01*
X64045308Y-109664809D01*
X64089692Y-109664924D01*
X64122175Y-109665037D01*
X64142957Y-109665146D01*
X64152238Y-109665251D01*
X64150219Y-109665352D01*
X64137101Y-109665449D01*
X64113084Y-109665541D01*
X64078369Y-109665629D01*
X64033155Y-109665711D01*
X63977644Y-109665788D01*
X63912036Y-109665858D01*
X63836532Y-109665922D01*
X63751332Y-109665980D01*
X63656637Y-109666031D01*
X63552647Y-109666074D01*
X63439562Y-109666110D01*
X63317584Y-109666139D01*
X63186913Y-109666158D01*
X63047748Y-109666170D01*
X62934359Y-109666173D01*
X62788719Y-109666168D01*
X62651397Y-109666155D01*
X62522596Y-109666133D01*
X62402516Y-109666103D01*
X62291358Y-109666065D01*
X62189325Y-109666020D01*
X62096618Y-109665968D01*
X62013438Y-109665908D01*
X61939987Y-109665843D01*
X61876466Y-109665771D01*
X61823077Y-109665693D01*
X61780021Y-109665609D01*
X61747500Y-109665521D01*
X61725715Y-109665427D01*
X61714868Y-109665329D01*
X61715160Y-109665227D01*
X61726793Y-109665121D01*
X61749968Y-109665011D01*
X61784886Y-109664898D01*
X61831750Y-109664782D01*
X61890760Y-109664664D01*
X61944546Y-109664571D01*
X62076537Y-109664382D01*
X62219098Y-109664225D01*
X62370299Y-109664099D01*
X62528207Y-109664006D01*
X62690890Y-109663944D01*
X62856417Y-109663913D01*
X63022856Y-109663915D01*
G37*
G36*
X63264627Y-106608405D02*
G01*
X63257445Y-106616971D01*
X63242968Y-106634181D01*
X63221966Y-106659122D01*
X63195206Y-106690883D01*
X63163457Y-106728550D01*
X63127489Y-106771214D01*
X63088069Y-106817961D01*
X63045967Y-106867879D01*
X63006251Y-106914959D01*
X62962921Y-106966378D01*
X62922028Y-107015018D01*
X62884280Y-107060031D01*
X62850384Y-107100564D01*
X62821050Y-107135770D01*
X62796986Y-107164798D01*
X62778899Y-107186797D01*
X62767498Y-107200919D01*
X62763500Y-107206278D01*
X62769195Y-107207644D01*
X62786966Y-107208909D01*
X62816386Y-107210065D01*
X62857028Y-107211101D01*
X62908464Y-107212010D01*
X62970268Y-107212783D01*
X63042013Y-107213410D01*
X63123272Y-107213883D01*
X63131033Y-107213918D01*
X63500634Y-107215531D01*
X63242117Y-107521856D01*
X62983600Y-107828181D01*
X63354894Y-107829794D01*
X63433223Y-107830231D01*
X63503581Y-107830820D01*
X63565348Y-107831550D01*
X63617904Y-107832407D01*
X63660631Y-107833379D01*
X63692909Y-107834454D01*
X63714119Y-107835618D01*
X63723641Y-107836860D01*
X63724120Y-107837267D01*
X63719827Y-107842302D01*
X63707713Y-107855930D01*
X63688371Y-107877497D01*
X63662395Y-107906347D01*
X63630378Y-107941828D01*
X63592915Y-107983286D01*
X63550599Y-108030065D01*
X63504024Y-108081513D01*
X63453785Y-108136974D01*
X63400474Y-108195795D01*
X63344685Y-108257321D01*
X63287014Y-108320899D01*
X63228052Y-108385874D01*
X63168394Y-108451592D01*
X63108635Y-108517400D01*
X63049367Y-108582642D01*
X62991185Y-108646665D01*
X62934682Y-108708815D01*
X62880452Y-108768437D01*
X62829089Y-108824878D01*
X62781187Y-108877483D01*
X62737340Y-108925598D01*
X62698141Y-108968569D01*
X62664185Y-109005741D01*
X62636065Y-109036462D01*
X62614374Y-109060076D01*
X62599708Y-109075930D01*
X62597845Y-109077924D01*
X62584738Y-109090801D01*
X62578171Y-109094622D01*
X62578029Y-109090992D01*
X62580836Y-109083325D01*
X62587734Y-109064862D01*
X62598384Y-109036500D01*
X62612449Y-108999134D01*
X62629590Y-108953661D01*
X62649470Y-108900978D01*
X62671749Y-108841981D01*
X62696090Y-108777566D01*
X62722154Y-108708629D01*
X62749605Y-108636067D01*
X62762942Y-108600824D01*
X62790813Y-108527164D01*
X62817370Y-108456926D01*
X62842287Y-108390978D01*
X62865235Y-108330194D01*
X62885886Y-108275442D01*
X62903911Y-108227595D01*
X62918983Y-108187523D01*
X62930773Y-108156097D01*
X62938953Y-108134188D01*
X62943194Y-108122667D01*
X62943736Y-108121074D01*
X62937679Y-108120642D01*
X62920285Y-108120177D01*
X62892722Y-108119695D01*
X62856156Y-108119208D01*
X62811753Y-108118730D01*
X62760681Y-108118274D01*
X62704105Y-108117854D01*
X62643192Y-108117483D01*
X62621982Y-108117371D01*
X62300228Y-108115752D01*
X62475793Y-107812553D01*
X62508444Y-107756123D01*
X62539229Y-107702832D01*
X62567575Y-107653681D01*
X62592908Y-107609669D01*
X62614652Y-107571796D01*
X62632234Y-107541062D01*
X62645080Y-107518468D01*
X62652613Y-107505013D01*
X62654407Y-107501601D01*
X62652657Y-107499696D01*
X62645215Y-107498071D01*
X62631217Y-107496699D01*
X62609798Y-107495551D01*
X62580094Y-107494598D01*
X62541240Y-107493813D01*
X62492372Y-107493166D01*
X62432626Y-107492628D01*
X62370383Y-107492224D01*
X62083311Y-107490598D01*
X62343932Y-107040488D01*
X62604554Y-106590377D01*
X62943436Y-106588760D01*
X63282318Y-106587143D01*
X63264627Y-106608405D01*
G37*
G36*
X63003606Y-105522768D02*
G01*
X63063684Y-105539783D01*
X63117846Y-105567784D01*
X63166221Y-105606828D01*
X63184096Y-105625684D01*
X63190037Y-105634029D01*
X63201204Y-105651537D01*
X63217655Y-105678305D01*
X63239444Y-105714428D01*
X63266628Y-105760003D01*
X63299264Y-105815126D01*
X63337406Y-105879891D01*
X63381111Y-105954397D01*
X63430436Y-106038738D01*
X63485435Y-106133011D01*
X63546166Y-106237311D01*
X63612684Y-106351735D01*
X63685046Y-106476378D01*
X63763306Y-106611337D01*
X63847522Y-106756708D01*
X63937750Y-106912586D01*
X64034044Y-107079068D01*
X64136463Y-107256250D01*
X64198114Y-107362953D01*
X64276352Y-107498418D01*
X64353041Y-107631267D01*
X64427941Y-107761081D01*
X64500810Y-107887440D01*
X64571408Y-108009925D01*
X64639493Y-108128117D01*
X64704826Y-108241595D01*
X64767165Y-108349941D01*
X64826269Y-108452735D01*
X64881898Y-108549558D01*
X64933810Y-108639990D01*
X64981766Y-108723612D01*
X65025523Y-108800004D01*
X65064842Y-108868747D01*
X65099481Y-108929422D01*
X65129200Y-108981609D01*
X65153757Y-109024888D01*
X65172912Y-109058840D01*
X65186425Y-109083046D01*
X65194054Y-109097087D01*
X65195673Y-109100369D01*
X65201883Y-109118043D01*
X65205938Y-109136076D01*
X65208255Y-109157810D01*
X65209256Y-109186588D01*
X65209398Y-109209771D01*
X65208035Y-109255545D01*
X65203135Y-109293138D01*
X65193482Y-109326657D01*
X65177859Y-109360205D01*
X65155050Y-109397890D01*
X65152525Y-109401744D01*
X65115834Y-109448958D01*
X65073582Y-109486514D01*
X65033081Y-109511757D01*
X65026679Y-109515369D01*
X65021195Y-109518751D01*
X65016220Y-109521910D01*
X65011342Y-109524853D01*
X65006152Y-109527588D01*
X65000240Y-109530123D01*
X64993195Y-109532465D01*
X64984607Y-109534621D01*
X64974066Y-109536600D01*
X64961161Y-109538407D01*
X64945483Y-109540052D01*
X64926621Y-109541541D01*
X64904165Y-109542881D01*
X64877705Y-109544082D01*
X64846830Y-109545148D01*
X64811131Y-109546090D01*
X64770197Y-109546912D01*
X64723617Y-109547625D01*
X64670983Y-109548234D01*
X64611883Y-109548747D01*
X64545907Y-109549171D01*
X64472645Y-109549515D01*
X64391687Y-109549786D01*
X64302622Y-109549990D01*
X64205041Y-109550137D01*
X64098534Y-109550232D01*
X63982689Y-109550284D01*
X63857097Y-109550300D01*
X63721347Y-109550287D01*
X63575030Y-109550253D01*
X63417735Y-109550206D01*
X63249051Y-109550153D01*
X63068570Y-109550101D01*
X62931482Y-109550069D01*
X62741758Y-109550024D01*
X62564143Y-109549969D01*
X62398240Y-109549903D01*
X62243657Y-109549824D01*
X62099997Y-109549729D01*
X61966866Y-109549617D01*
X61843869Y-109549485D01*
X61730612Y-109549333D01*
X61626699Y-109549158D01*
X61531736Y-109548959D01*
X61445328Y-109548733D01*
X61367080Y-109548478D01*
X61296597Y-109548194D01*
X61233485Y-109547877D01*
X61177348Y-109547526D01*
X61127793Y-109547140D01*
X61084423Y-109546716D01*
X61046844Y-109546252D01*
X61014662Y-109545748D01*
X60987482Y-109545199D01*
X60964908Y-109544606D01*
X60946546Y-109543966D01*
X60932001Y-109543277D01*
X60920879Y-109542537D01*
X60912784Y-109541745D01*
X60907322Y-109540899D01*
X60905734Y-109540531D01*
X60847196Y-109518688D01*
X60794008Y-109486223D01*
X60747363Y-109444305D01*
X60708452Y-109394104D01*
X60678465Y-109336789D01*
X60667456Y-109306670D01*
X60657325Y-109259770D01*
X60654132Y-109208224D01*
X60655066Y-109195414D01*
X60788180Y-109195414D01*
X60789962Y-109240999D01*
X60801909Y-109285183D01*
X60822978Y-109326016D01*
X60852127Y-109361547D01*
X60888313Y-109389824D01*
X60930493Y-109408895D01*
X60936683Y-109410683D01*
X60942033Y-109411443D01*
X60952500Y-109412156D01*
X60968422Y-109412823D01*
X60990135Y-109413447D01*
X61017976Y-109414028D01*
X61052284Y-109414568D01*
X61093394Y-109415069D01*
X61141646Y-109415530D01*
X61197375Y-109415955D01*
X61260918Y-109416345D01*
X61332615Y-109416699D01*
X61412800Y-109417021D01*
X61501812Y-109417312D01*
X61599989Y-109417572D01*
X61707666Y-109417803D01*
X61825182Y-109418007D01*
X61952874Y-109418185D01*
X62091078Y-109418338D01*
X62240133Y-109418468D01*
X62400375Y-109418575D01*
X62572142Y-109418662D01*
X62755771Y-109418730D01*
X62931661Y-109418776D01*
X63118677Y-109418812D01*
X63293599Y-109418837D01*
X63456833Y-109418847D01*
X63608788Y-109418842D01*
X63749872Y-109418820D01*
X63880493Y-109418778D01*
X64001059Y-109418714D01*
X64111977Y-109418627D01*
X64213656Y-109418514D01*
X64306505Y-109418374D01*
X64390930Y-109418204D01*
X64467340Y-109418004D01*
X64536142Y-109417769D01*
X64597745Y-109417500D01*
X64652558Y-109417193D01*
X64700987Y-109416847D01*
X64743440Y-109416460D01*
X64780327Y-109416030D01*
X64812054Y-109415555D01*
X64839029Y-109415033D01*
X64861662Y-109414461D01*
X64880359Y-109413839D01*
X64895529Y-109413164D01*
X64907579Y-109412434D01*
X64916919Y-109411647D01*
X64923954Y-109410801D01*
X64929095Y-109409895D01*
X64931978Y-109409166D01*
X64975787Y-109390222D01*
X65013044Y-109362400D01*
X65042891Y-109327527D01*
X65064473Y-109287428D01*
X65076932Y-109243928D01*
X65079412Y-109198852D01*
X65071056Y-109154027D01*
X65062242Y-109131627D01*
X65056844Y-109121409D01*
X65045538Y-109101030D01*
X65028615Y-109070990D01*
X65006363Y-109031792D01*
X64979074Y-108983937D01*
X64947039Y-108927928D01*
X64910547Y-108864264D01*
X64869889Y-108793449D01*
X64825356Y-108715983D01*
X64777239Y-108632369D01*
X64725826Y-108543108D01*
X64671410Y-108448702D01*
X64614280Y-108349652D01*
X64554728Y-108246460D01*
X64493042Y-108139627D01*
X64429515Y-108029656D01*
X64364435Y-107917048D01*
X64298095Y-107802304D01*
X64230783Y-107685927D01*
X64162792Y-107568417D01*
X64094410Y-107450277D01*
X64025929Y-107332008D01*
X63957639Y-107214112D01*
X63889831Y-107097090D01*
X63822794Y-106981444D01*
X63756820Y-106867676D01*
X63692199Y-106756287D01*
X63629221Y-106647780D01*
X63568177Y-106542654D01*
X63509357Y-106441413D01*
X63453052Y-106344558D01*
X63399552Y-106252591D01*
X63349147Y-106166013D01*
X63302129Y-106085325D01*
X63258787Y-106011030D01*
X63219412Y-105943629D01*
X63184294Y-105883624D01*
X63153725Y-105831516D01*
X63127993Y-105787808D01*
X63107391Y-105753000D01*
X63092208Y-105727594D01*
X63082734Y-105712092D01*
X63079391Y-105707080D01*
X63062269Y-105692588D01*
X63039720Y-105677581D01*
X63025084Y-105669571D01*
X63006670Y-105661311D01*
X62989826Y-105656248D01*
X62970410Y-105653635D01*
X62944281Y-105652728D01*
X62931233Y-105652676D01*
X62901658Y-105653112D01*
X62880645Y-105654865D01*
X62864268Y-105658656D01*
X62848601Y-105665207D01*
X62840586Y-105669328D01*
X62817552Y-105683899D01*
X62794982Y-105701787D01*
X62786477Y-105709933D01*
X62781429Y-105717348D01*
X62770442Y-105735101D01*
X62753807Y-105762687D01*
X62731814Y-105799603D01*
X62704755Y-105845345D01*
X62672921Y-105899411D01*
X62636602Y-105961297D01*
X62596091Y-106030499D01*
X62551677Y-106106514D01*
X62503652Y-106188839D01*
X62452306Y-106276970D01*
X62397932Y-106370404D01*
X62340819Y-106468637D01*
X62281259Y-106571167D01*
X62219542Y-106677489D01*
X62155961Y-106787101D01*
X62090805Y-106899498D01*
X62024366Y-107014178D01*
X61956935Y-107130637D01*
X61888803Y-107248371D01*
X61820261Y-107366878D01*
X61751599Y-107485654D01*
X61683109Y-107604195D01*
X61615082Y-107721999D01*
X61547809Y-107838561D01*
X61481581Y-107953378D01*
X61416689Y-108065948D01*
X61353424Y-108175766D01*
X61292076Y-108282329D01*
X61232937Y-108385133D01*
X61176299Y-108483676D01*
X61122451Y-108577454D01*
X61071685Y-108665964D01*
X61024292Y-108748702D01*
X60980562Y-108825164D01*
X60940788Y-108894848D01*
X60905260Y-108957250D01*
X60874268Y-109011866D01*
X60848105Y-109058194D01*
X60827060Y-109095729D01*
X60811426Y-109123969D01*
X60801492Y-109142409D01*
X60797605Y-109150382D01*
X60788180Y-109195414D01*
X60655066Y-109195414D01*
X60657860Y-109157112D01*
X60668037Y-109112872D01*
X60672671Y-109103015D01*
X60683564Y-109082417D01*
X60700681Y-109051142D01*
X60723985Y-109009254D01*
X60753441Y-108956813D01*
X60789013Y-108893884D01*
X60830665Y-108820528D01*
X60878362Y-108736809D01*
X60932066Y-108642790D01*
X60991743Y-108538533D01*
X61057356Y-108424101D01*
X61128870Y-108299557D01*
X61206248Y-108164963D01*
X61289456Y-108020382D01*
X61378456Y-107865878D01*
X61473213Y-107701512D01*
X61573692Y-107527347D01*
X61667082Y-107365568D01*
X61760865Y-107203164D01*
X61848613Y-107051238D01*
X61930534Y-106909434D01*
X62006837Y-106777398D01*
X62077729Y-106654775D01*
X62143420Y-106541209D01*
X62204117Y-106436346D01*
X62260029Y-106339830D01*
X62311363Y-106251306D01*
X62358329Y-106170419D01*
X62401133Y-106096814D01*
X62439986Y-106030136D01*
X62475094Y-105970030D01*
X62506666Y-105916140D01*
X62534910Y-105868113D01*
X62560034Y-105825591D01*
X62582247Y-105788222D01*
X62601757Y-105755648D01*
X62618772Y-105727516D01*
X62633501Y-105703470D01*
X62646150Y-105683156D01*
X62656930Y-105666217D01*
X62666048Y-105652299D01*
X62673712Y-105641047D01*
X62680130Y-105632106D01*
X62685511Y-105625120D01*
X62690063Y-105619735D01*
X62692250Y-105617368D01*
X62739161Y-105575751D01*
X62789911Y-105545530D01*
X62845652Y-105526232D01*
X62907533Y-105517384D01*
X62937484Y-105516685D01*
X63003606Y-105522768D01*
G37*
G36*
X47611961Y-109528624D02*
G01*
X47608836Y-109531750D01*
X47605710Y-109528624D01*
X47608836Y-109525499D01*
X47611961Y-109528624D01*
G37*
G36*
X47686980Y-109553631D02*
G01*
X47683854Y-109556756D01*
X47680728Y-109553631D01*
X47683854Y-109550505D01*
X47686980Y-109553631D01*
G37*
G36*
X47718238Y-109559882D02*
G01*
X47715112Y-109563008D01*
X47711986Y-109559882D01*
X47715112Y-109556756D01*
X47718238Y-109559882D01*
G37*
G36*
X50156337Y-105571401D02*
G01*
X50153212Y-105574526D01*
X50150086Y-105571401D01*
X50153212Y-105568275D01*
X50156337Y-105571401D01*
G37*
G36*
X50181344Y-105615161D02*
G01*
X50178218Y-105618287D01*
X50175092Y-105615161D01*
X50178218Y-105612036D01*
X50181344Y-105615161D01*
G37*
G36*
X50225104Y-105690180D02*
G01*
X50221979Y-105693306D01*
X50218853Y-105690180D01*
X50221979Y-105687054D01*
X50225104Y-105690180D01*
G37*
G36*
X50250111Y-105733941D02*
G01*
X50246985Y-105737066D01*
X50243859Y-105733941D01*
X50246985Y-105730815D01*
X50250111Y-105733941D01*
G37*
G36*
X50275117Y-105777701D02*
G01*
X50271991Y-105780827D01*
X50268865Y-105777701D01*
X50271991Y-105774576D01*
X50275117Y-105777701D01*
G37*
G36*
X50318877Y-105852720D02*
G01*
X50315752Y-105855846D01*
X50312626Y-105852720D01*
X50315752Y-105849594D01*
X50318877Y-105852720D01*
G37*
G36*
X50343884Y-105896481D02*
G01*
X50340758Y-105899606D01*
X50337632Y-105896481D01*
X50340758Y-105893355D01*
X50343884Y-105896481D01*
G37*
G36*
X50368890Y-105940241D02*
G01*
X50365764Y-105943367D01*
X50362638Y-105940241D01*
X50365764Y-105937116D01*
X50368890Y-105940241D01*
G37*
G36*
X50387644Y-105971499D02*
G01*
X50384519Y-105974625D01*
X50381393Y-105971499D01*
X50384519Y-105968373D01*
X50387644Y-105971499D01*
G37*
G36*
X50412651Y-106015260D02*
G01*
X50409525Y-106018386D01*
X50406399Y-106015260D01*
X50409525Y-106012134D01*
X50412651Y-106015260D01*
G37*
G36*
X50437657Y-106059021D02*
G01*
X50434531Y-106062146D01*
X50431405Y-106059021D01*
X50434531Y-106055895D01*
X50437657Y-106059021D01*
G37*
G36*
X50481417Y-106134039D02*
G01*
X50478292Y-106137165D01*
X50475166Y-106134039D01*
X50478292Y-106130913D01*
X50481417Y-106134039D01*
G37*
G36*
X50506424Y-106177800D02*
G01*
X50503298Y-106180926D01*
X50500172Y-106177800D01*
X50503298Y-106174674D01*
X50506424Y-106177800D01*
G37*
G36*
X50531430Y-106221561D02*
G01*
X50528304Y-106224686D01*
X50525178Y-106221561D01*
X50528304Y-106218435D01*
X50531430Y-106221561D01*
G37*
G36*
X50550184Y-106252818D02*
G01*
X50547059Y-106255944D01*
X50543933Y-106252818D01*
X50547059Y-106249693D01*
X50550184Y-106252818D01*
G37*
G36*
X50575191Y-106296579D02*
G01*
X50572065Y-106299705D01*
X50568939Y-106296579D01*
X50572065Y-106293453D01*
X50575191Y-106296579D01*
G37*
G36*
X50600197Y-106340340D02*
G01*
X50597071Y-106343466D01*
X50593945Y-106340340D01*
X50597071Y-106337214D01*
X50600197Y-106340340D01*
G37*
G36*
X50643957Y-106415358D02*
G01*
X50640832Y-106418484D01*
X50637706Y-106415358D01*
X50640832Y-106412233D01*
X50643957Y-106415358D01*
G37*
G36*
X50668964Y-106459119D02*
G01*
X50665838Y-106462245D01*
X50662712Y-106459119D01*
X50665838Y-106455993D01*
X50668964Y-106459119D01*
G37*
G36*
X50693970Y-106502880D02*
G01*
X50690844Y-106506006D01*
X50687718Y-106502880D01*
X50690844Y-106499754D01*
X50693970Y-106502880D01*
G37*
G36*
X50712724Y-106534138D02*
G01*
X50709599Y-106537263D01*
X50706473Y-106534138D01*
X50709599Y-106531012D01*
X50712724Y-106534138D01*
G37*
G36*
X50737731Y-106577898D02*
G01*
X50734605Y-106581024D01*
X50731479Y-106577898D01*
X50734605Y-106574773D01*
X50737731Y-106577898D01*
G37*
G36*
X50762737Y-106621659D02*
G01*
X50759611Y-106624785D01*
X50756485Y-106621659D01*
X50759611Y-106618533D01*
X50762737Y-106621659D01*
G37*
G36*
X50806497Y-106696678D02*
G01*
X50803372Y-106699803D01*
X50800246Y-106696678D01*
X50803372Y-106693552D01*
X50806497Y-106696678D01*
G37*
G36*
X50831504Y-106740438D02*
G01*
X50828378Y-106743564D01*
X50825252Y-106740438D01*
X50828378Y-106737313D01*
X50831504Y-106740438D01*
G37*
G36*
X50856510Y-106784199D02*
G01*
X50853384Y-106787325D01*
X50850258Y-106784199D01*
X50853384Y-106781073D01*
X50856510Y-106784199D01*
G37*
G36*
X50900271Y-106859218D02*
G01*
X50897145Y-106862343D01*
X50894019Y-106859218D01*
X50897145Y-106856092D01*
X50900271Y-106859218D01*
G37*
G36*
X50925277Y-106902978D02*
G01*
X50922151Y-106906104D01*
X50919025Y-106902978D01*
X50922151Y-106899853D01*
X50925277Y-106902978D01*
G37*
G36*
X50969037Y-106977997D02*
G01*
X50965912Y-106981123D01*
X50962786Y-106977997D01*
X50965912Y-106974871D01*
X50969037Y-106977997D01*
G37*
G36*
X50994044Y-107021758D02*
G01*
X50990918Y-107024883D01*
X50987792Y-107021758D01*
X50990918Y-107018632D01*
X50994044Y-107021758D01*
G37*
G36*
X51019050Y-107065518D02*
G01*
X51015924Y-107068644D01*
X51012798Y-107065518D01*
X51015924Y-107062393D01*
X51019050Y-107065518D01*
G37*
G36*
X51062811Y-107140537D02*
G01*
X51059685Y-107143663D01*
X51056559Y-107140537D01*
X51059685Y-107137411D01*
X51062811Y-107140537D01*
G37*
G36*
X51087817Y-107184298D02*
G01*
X51084691Y-107187423D01*
X51081565Y-107184298D01*
X51084691Y-107181172D01*
X51087817Y-107184298D01*
G37*
G36*
X51112823Y-107228058D02*
G01*
X51109697Y-107231184D01*
X51106571Y-107228058D01*
X51109697Y-107224933D01*
X51112823Y-107228058D01*
G37*
G36*
X51131577Y-107259316D02*
G01*
X51128452Y-107262442D01*
X51125326Y-107259316D01*
X51128452Y-107256190D01*
X51131577Y-107259316D01*
G37*
G36*
X51156584Y-107303077D02*
G01*
X51153458Y-107306203D01*
X51150332Y-107303077D01*
X51153458Y-107299951D01*
X51156584Y-107303077D01*
G37*
G36*
X51181590Y-107346838D02*
G01*
X51178464Y-107349963D01*
X51175338Y-107346838D01*
X51178464Y-107343712D01*
X51181590Y-107346838D01*
G37*
G36*
X51225351Y-107421856D02*
G01*
X51222225Y-107424982D01*
X51219099Y-107421856D01*
X51222225Y-107418730D01*
X51225351Y-107421856D01*
G37*
G36*
X51250357Y-107465617D02*
G01*
X51247231Y-107468743D01*
X51244105Y-107465617D01*
X51247231Y-107462491D01*
X51250357Y-107465617D01*
G37*
G36*
X51275363Y-107509378D02*
G01*
X51272237Y-107512503D01*
X51269111Y-107509378D01*
X51272237Y-107506252D01*
X51275363Y-107509378D01*
G37*
G36*
X51294117Y-107540635D02*
G01*
X51290992Y-107543761D01*
X51287866Y-107540635D01*
X51290992Y-107537509D01*
X51294117Y-107540635D01*
G37*
G36*
X51319124Y-107584396D02*
G01*
X51315998Y-107587522D01*
X51312872Y-107584396D01*
X51315998Y-107581270D01*
X51319124Y-107584396D01*
G37*
G36*
X51344130Y-107628157D02*
G01*
X51341004Y-107631283D01*
X51337878Y-107628157D01*
X51341004Y-107625031D01*
X51344130Y-107628157D01*
G37*
G36*
X51387891Y-107703175D02*
G01*
X51384765Y-107706301D01*
X51381639Y-107703175D01*
X51384765Y-107700049D01*
X51387891Y-107703175D01*
G37*
G36*
X51412897Y-107746936D02*
G01*
X51409771Y-107750062D01*
X51406645Y-107746936D01*
X51409771Y-107743810D01*
X51412897Y-107746936D01*
G37*
G36*
X51437903Y-107790697D02*
G01*
X51434777Y-107793823D01*
X51431651Y-107790697D01*
X51434777Y-107787571D01*
X51437903Y-107790697D01*
G37*
G36*
X51456657Y-107821954D02*
G01*
X51453532Y-107825080D01*
X51450406Y-107821954D01*
X51453532Y-107818829D01*
X51456657Y-107821954D01*
G37*
G36*
X51481664Y-107865715D02*
G01*
X51478538Y-107868841D01*
X51475412Y-107865715D01*
X51478538Y-107862589D01*
X51481664Y-107865715D01*
G37*
G36*
X51506670Y-107909476D02*
G01*
X51503544Y-107912602D01*
X51500418Y-107909476D01*
X51503544Y-107906350D01*
X51506670Y-107909476D01*
G37*
G36*
X51550431Y-107984494D02*
G01*
X51547305Y-107987620D01*
X51544179Y-107984494D01*
X51547305Y-107981369D01*
X51550431Y-107984494D01*
G37*
G36*
X51575437Y-108028255D02*
G01*
X51572311Y-108031381D01*
X51569185Y-108028255D01*
X51572311Y-108025129D01*
X51575437Y-108028255D01*
G37*
G36*
X51600443Y-108072016D02*
G01*
X51597317Y-108075142D01*
X51594191Y-108072016D01*
X51597317Y-108068890D01*
X51600443Y-108072016D01*
G37*
G36*
X51644204Y-108147034D02*
G01*
X51641078Y-108150160D01*
X51637952Y-108147034D01*
X51641078Y-108143909D01*
X51644204Y-108147034D01*
G37*
G36*
X51669210Y-108190795D02*
G01*
X51666084Y-108193921D01*
X51662958Y-108190795D01*
X51666084Y-108187669D01*
X51669210Y-108190795D01*
G37*
G36*
X51694216Y-108234556D02*
G01*
X51691090Y-108237682D01*
X51687964Y-108234556D01*
X51691090Y-108231430D01*
X51694216Y-108234556D01*
G37*
G36*
X51712971Y-108265814D02*
G01*
X51709845Y-108268939D01*
X51706719Y-108265814D01*
X51709845Y-108262688D01*
X51712971Y-108265814D01*
G37*
G36*
X51737977Y-108309574D02*
G01*
X51734851Y-108312700D01*
X51731725Y-108309574D01*
X51734851Y-108306449D01*
X51737977Y-108309574D01*
G37*
G36*
X51756731Y-109559882D02*
G01*
X51753606Y-109563008D01*
X51750480Y-109559882D01*
X51753606Y-109556756D01*
X51756731Y-109559882D01*
G37*
G36*
X51762983Y-108353335D02*
G01*
X51759857Y-108356461D01*
X51756731Y-108353335D01*
X51759857Y-108350209D01*
X51762983Y-108353335D01*
G37*
G36*
X51787989Y-109553631D02*
G01*
X51784863Y-109556756D01*
X51781737Y-109553631D01*
X51784863Y-109550505D01*
X51787989Y-109553631D01*
G37*
G36*
X51806744Y-108428354D02*
G01*
X51803618Y-108431479D01*
X51800492Y-108428354D01*
X51803618Y-108425228D01*
X51806744Y-108428354D01*
G37*
G36*
X51831750Y-108472114D02*
G01*
X51828624Y-108475240D01*
X51825498Y-108472114D01*
X51828624Y-108468989D01*
X51831750Y-108472114D01*
G37*
G36*
X51831750Y-109541127D02*
G01*
X51828624Y-109544253D01*
X51825498Y-109541127D01*
X51828624Y-109538002D01*
X51831750Y-109541127D01*
G37*
G36*
X51844253Y-109534876D02*
G01*
X51841127Y-109538002D01*
X51838001Y-109534876D01*
X51841127Y-109531750D01*
X51844253Y-109534876D01*
G37*
G36*
X51856756Y-108515875D02*
G01*
X51853630Y-108519001D01*
X51850504Y-108515875D01*
X51853630Y-108512749D01*
X51856756Y-108515875D01*
G37*
G36*
X51863007Y-109528624D02*
G01*
X51859882Y-109531750D01*
X51856756Y-109528624D01*
X51859882Y-109525499D01*
X51863007Y-109528624D01*
G37*
G36*
X51875511Y-108547133D02*
G01*
X51872385Y-108550259D01*
X51869259Y-108547133D01*
X51872385Y-108544007D01*
X51875511Y-108547133D01*
G37*
G36*
X51875511Y-109522373D02*
G01*
X51872385Y-109525499D01*
X51869259Y-109522373D01*
X51872385Y-109519247D01*
X51875511Y-109522373D01*
G37*
G36*
X51888014Y-109516121D02*
G01*
X51884888Y-109519247D01*
X51881762Y-109516121D01*
X51884888Y-109512996D01*
X51888014Y-109516121D01*
G37*
G36*
X51900517Y-108590894D02*
G01*
X51897391Y-108594019D01*
X51894265Y-108590894D01*
X51897391Y-108587768D01*
X51900517Y-108590894D01*
G37*
G36*
X51900517Y-109509870D02*
G01*
X51897391Y-109512996D01*
X51894265Y-109509870D01*
X51897391Y-109506744D01*
X51900517Y-109509870D01*
G37*
G36*
X51919271Y-109497367D02*
G01*
X51916146Y-109500492D01*
X51913020Y-109497367D01*
X51916146Y-109494241D01*
X51919271Y-109497367D01*
G37*
G36*
X51925523Y-108634654D02*
G01*
X51922397Y-108637780D01*
X51919271Y-108634654D01*
X51922397Y-108631529D01*
X51925523Y-108634654D01*
G37*
G36*
X51938026Y-109484864D02*
G01*
X51934900Y-109487989D01*
X51931774Y-109484864D01*
X51934900Y-109481738D01*
X51938026Y-109484864D01*
G37*
G36*
X51969284Y-108709673D02*
G01*
X51966158Y-108712799D01*
X51963032Y-108709673D01*
X51966158Y-108706547D01*
X51969284Y-108709673D01*
G37*
G36*
X51994290Y-108753434D02*
G01*
X51991164Y-108756559D01*
X51988038Y-108753434D01*
X51991164Y-108750308D01*
X51994290Y-108753434D01*
G37*
G36*
X52019296Y-108797194D02*
G01*
X52016170Y-108800320D01*
X52013044Y-108797194D01*
X52016170Y-108794069D01*
X52019296Y-108797194D01*
G37*
G36*
X52038051Y-108828452D02*
G01*
X52034925Y-108831578D01*
X52031799Y-108828452D01*
X52034925Y-108825326D01*
X52038051Y-108828452D01*
G37*
G36*
X52044302Y-109378587D02*
G01*
X52041176Y-109381713D01*
X52038051Y-109378587D01*
X52041176Y-109375462D01*
X52044302Y-109378587D01*
G37*
G36*
X52056805Y-109359833D02*
G01*
X52053679Y-109362959D01*
X52050554Y-109359833D01*
X52053679Y-109356707D01*
X52056805Y-109359833D01*
G37*
G36*
X52063057Y-108872213D02*
G01*
X52059931Y-108875339D01*
X52056805Y-108872213D01*
X52059931Y-108869087D01*
X52063057Y-108872213D01*
G37*
G36*
X52069308Y-109341078D02*
G01*
X52066182Y-109344204D01*
X52063057Y-109341078D01*
X52066182Y-109337952D01*
X52069308Y-109341078D01*
G37*
G36*
X52075560Y-109328575D02*
G01*
X52072434Y-109331701D01*
X52069308Y-109328575D01*
X52072434Y-109325449D01*
X52075560Y-109328575D01*
G37*
G36*
X52081811Y-109316072D02*
G01*
X52078686Y-109319198D01*
X52075560Y-109316072D01*
X52078686Y-109312946D01*
X52081811Y-109316072D01*
G37*
G36*
X52088063Y-109303569D02*
G01*
X52084937Y-109306695D01*
X52081811Y-109303569D01*
X52084937Y-109300443D01*
X52088063Y-109303569D01*
G37*
G36*
X52094314Y-109291066D02*
G01*
X52091189Y-109294192D01*
X52088063Y-109291066D01*
X52091189Y-109287940D01*
X52094314Y-109291066D01*
G37*
G36*
X52100566Y-108947231D02*
G01*
X52097440Y-108950357D01*
X52094314Y-108947231D01*
X52097440Y-108944106D01*
X52100566Y-108947231D01*
G37*
G36*
X52106817Y-109259808D02*
G01*
X52103692Y-109262934D01*
X52100566Y-109259808D01*
X52103692Y-109256682D01*
X52106817Y-109259808D01*
G37*
G36*
X52113069Y-109241054D02*
G01*
X52109943Y-109244179D01*
X52106817Y-109241054D01*
X52109943Y-109237928D01*
X52113069Y-109241054D01*
G37*
G36*
X52119321Y-109216047D02*
G01*
X52116195Y-109219173D01*
X52113069Y-109216047D01*
X52116195Y-109212922D01*
X52119321Y-109216047D01*
G37*
G36*
X52125572Y-109034753D02*
G01*
X52122446Y-109037879D01*
X52119321Y-109034753D01*
X52122446Y-109031627D01*
X52125572Y-109034753D01*
G37*
G36*
X52123488Y-109183748D02*
G01*
X52124236Y-109191167D01*
X52123488Y-109192083D01*
X52119772Y-109191225D01*
X52119321Y-109187916D01*
X52121608Y-109182770D01*
X52123488Y-109183748D01*
G37*
G36*
X51967322Y-109460016D02*
G01*
X51963829Y-109464546D01*
X51954705Y-109474265D01*
X51950632Y-109474223D01*
X51950529Y-109473126D01*
X51954801Y-109467908D01*
X51961469Y-109462186D01*
X51968874Y-109456779D01*
X51967322Y-109460016D01*
G37*
G36*
X52023586Y-109403753D02*
G01*
X52020093Y-109408282D01*
X52010969Y-109418001D01*
X52006895Y-109417959D01*
X52006793Y-109416862D01*
X52011065Y-109411644D01*
X52017733Y-109405922D01*
X52025138Y-109400515D01*
X52023586Y-109403753D01*
G37*
G36*
X52130050Y-109095705D02*
G01*
X52131096Y-109115898D01*
X52130050Y-109130089D01*
X52128687Y-109133967D01*
X52127744Y-109126867D01*
X52127445Y-109112897D01*
X52127833Y-109097463D01*
X52128842Y-109091679D01*
X52130050Y-109095705D01*
G37*
G36*
X49822856Y-109563915D02*
G01*
X49988275Y-109563948D01*
X50150742Y-109564013D01*
X50308325Y-109564110D01*
X50459092Y-109564239D01*
X50601111Y-109564399D01*
X50720032Y-109564571D01*
X50788821Y-109564691D01*
X50845308Y-109564809D01*
X50889692Y-109564924D01*
X50922175Y-109565037D01*
X50942957Y-109565146D01*
X50952238Y-109565251D01*
X50950219Y-109565352D01*
X50937101Y-109565449D01*
X50913084Y-109565541D01*
X50878369Y-109565629D01*
X50833155Y-109565711D01*
X50777644Y-109565788D01*
X50712036Y-109565858D01*
X50636532Y-109565922D01*
X50551332Y-109565980D01*
X50456637Y-109566031D01*
X50352647Y-109566074D01*
X50239562Y-109566110D01*
X50117584Y-109566139D01*
X49986913Y-109566158D01*
X49847748Y-109566170D01*
X49734359Y-109566173D01*
X49588719Y-109566168D01*
X49451397Y-109566155D01*
X49322596Y-109566133D01*
X49202516Y-109566103D01*
X49091358Y-109566065D01*
X48989325Y-109566020D01*
X48896618Y-109565968D01*
X48813438Y-109565908D01*
X48739987Y-109565843D01*
X48676466Y-109565771D01*
X48623077Y-109565693D01*
X48580021Y-109565609D01*
X48547500Y-109565521D01*
X48525715Y-109565427D01*
X48514868Y-109565329D01*
X48515160Y-109565227D01*
X48526793Y-109565121D01*
X48549968Y-109565011D01*
X48584886Y-109564898D01*
X48631750Y-109564782D01*
X48690760Y-109564664D01*
X48744546Y-109564571D01*
X48876537Y-109564382D01*
X49019098Y-109564225D01*
X49170299Y-109564099D01*
X49328207Y-109564006D01*
X49490890Y-109563944D01*
X49656417Y-109563913D01*
X49822856Y-109563915D01*
G37*
G36*
X50064627Y-106508405D02*
G01*
X50057445Y-106516971D01*
X50042968Y-106534181D01*
X50021966Y-106559122D01*
X49995206Y-106590883D01*
X49963457Y-106628550D01*
X49927489Y-106671214D01*
X49888069Y-106717961D01*
X49845967Y-106767879D01*
X49806251Y-106814959D01*
X49762921Y-106866378D01*
X49722028Y-106915018D01*
X49684280Y-106960031D01*
X49650384Y-107000564D01*
X49621050Y-107035770D01*
X49596986Y-107064798D01*
X49578899Y-107086797D01*
X49567498Y-107100919D01*
X49563500Y-107106278D01*
X49569195Y-107107644D01*
X49586966Y-107108909D01*
X49616386Y-107110065D01*
X49657028Y-107111101D01*
X49708464Y-107112010D01*
X49770268Y-107112783D01*
X49842013Y-107113410D01*
X49923272Y-107113883D01*
X49931033Y-107113918D01*
X50300634Y-107115531D01*
X50042117Y-107421856D01*
X49783600Y-107728181D01*
X50154894Y-107729794D01*
X50233223Y-107730231D01*
X50303581Y-107730820D01*
X50365348Y-107731550D01*
X50417904Y-107732407D01*
X50460631Y-107733379D01*
X50492909Y-107734454D01*
X50514119Y-107735618D01*
X50523641Y-107736860D01*
X50524120Y-107737267D01*
X50519827Y-107742302D01*
X50507713Y-107755930D01*
X50488371Y-107777497D01*
X50462395Y-107806347D01*
X50430378Y-107841828D01*
X50392915Y-107883286D01*
X50350599Y-107930065D01*
X50304024Y-107981513D01*
X50253785Y-108036974D01*
X50200474Y-108095795D01*
X50144685Y-108157321D01*
X50087014Y-108220899D01*
X50028052Y-108285874D01*
X49968394Y-108351592D01*
X49908635Y-108417400D01*
X49849367Y-108482642D01*
X49791185Y-108546665D01*
X49734682Y-108608815D01*
X49680452Y-108668437D01*
X49629089Y-108724878D01*
X49581187Y-108777483D01*
X49537340Y-108825598D01*
X49498141Y-108868569D01*
X49464185Y-108905741D01*
X49436065Y-108936462D01*
X49414374Y-108960076D01*
X49399708Y-108975930D01*
X49397845Y-108977924D01*
X49384738Y-108990801D01*
X49378171Y-108994622D01*
X49378029Y-108990992D01*
X49380836Y-108983325D01*
X49387734Y-108964862D01*
X49398384Y-108936500D01*
X49412449Y-108899134D01*
X49429590Y-108853661D01*
X49449470Y-108800978D01*
X49471749Y-108741981D01*
X49496090Y-108677566D01*
X49522154Y-108608629D01*
X49549605Y-108536067D01*
X49562942Y-108500824D01*
X49590813Y-108427164D01*
X49617370Y-108356926D01*
X49642287Y-108290978D01*
X49665235Y-108230194D01*
X49685886Y-108175442D01*
X49703911Y-108127595D01*
X49718983Y-108087523D01*
X49730773Y-108056097D01*
X49738953Y-108034188D01*
X49743194Y-108022667D01*
X49743736Y-108021074D01*
X49737679Y-108020642D01*
X49720285Y-108020177D01*
X49692722Y-108019695D01*
X49656156Y-108019208D01*
X49611753Y-108018730D01*
X49560681Y-108018274D01*
X49504105Y-108017854D01*
X49443192Y-108017483D01*
X49421982Y-108017371D01*
X49100228Y-108015752D01*
X49275793Y-107712553D01*
X49308444Y-107656123D01*
X49339229Y-107602832D01*
X49367575Y-107553681D01*
X49392908Y-107509669D01*
X49414652Y-107471796D01*
X49432234Y-107441062D01*
X49445080Y-107418468D01*
X49452613Y-107405013D01*
X49454407Y-107401601D01*
X49452657Y-107399696D01*
X49445215Y-107398071D01*
X49431217Y-107396699D01*
X49409798Y-107395551D01*
X49380094Y-107394598D01*
X49341240Y-107393813D01*
X49292372Y-107393166D01*
X49232626Y-107392628D01*
X49170383Y-107392224D01*
X48883311Y-107390598D01*
X49143932Y-106940488D01*
X49404554Y-106490377D01*
X49743436Y-106488760D01*
X50082318Y-106487143D01*
X50064627Y-106508405D01*
G37*
G36*
X49803606Y-105422768D02*
G01*
X49863684Y-105439783D01*
X49917846Y-105467784D01*
X49966221Y-105506828D01*
X49984096Y-105525684D01*
X49990037Y-105534029D01*
X50001204Y-105551537D01*
X50017655Y-105578305D01*
X50039444Y-105614428D01*
X50066628Y-105660003D01*
X50099264Y-105715126D01*
X50137406Y-105779891D01*
X50181111Y-105854397D01*
X50230436Y-105938738D01*
X50285435Y-106033011D01*
X50346166Y-106137311D01*
X50412684Y-106251735D01*
X50485046Y-106376378D01*
X50563306Y-106511337D01*
X50647522Y-106656708D01*
X50737750Y-106812586D01*
X50834044Y-106979068D01*
X50936463Y-107156250D01*
X50998114Y-107262953D01*
X51076352Y-107398418D01*
X51153041Y-107531267D01*
X51227941Y-107661081D01*
X51300810Y-107787440D01*
X51371408Y-107909925D01*
X51439493Y-108028117D01*
X51504826Y-108141595D01*
X51567165Y-108249941D01*
X51626269Y-108352735D01*
X51681898Y-108449558D01*
X51733810Y-108539990D01*
X51781766Y-108623612D01*
X51825523Y-108700004D01*
X51864842Y-108768747D01*
X51899481Y-108829422D01*
X51929200Y-108881609D01*
X51953757Y-108924888D01*
X51972912Y-108958840D01*
X51986425Y-108983046D01*
X51994054Y-108997087D01*
X51995673Y-109000369D01*
X52001883Y-109018043D01*
X52005938Y-109036076D01*
X52008255Y-109057810D01*
X52009256Y-109086588D01*
X52009398Y-109109771D01*
X52008035Y-109155545D01*
X52003135Y-109193138D01*
X51993482Y-109226657D01*
X51977859Y-109260205D01*
X51955050Y-109297890D01*
X51952525Y-109301744D01*
X51915834Y-109348958D01*
X51873582Y-109386514D01*
X51833081Y-109411757D01*
X51826679Y-109415369D01*
X51821195Y-109418751D01*
X51816220Y-109421910D01*
X51811342Y-109424853D01*
X51806152Y-109427588D01*
X51800240Y-109430123D01*
X51793195Y-109432465D01*
X51784607Y-109434621D01*
X51774066Y-109436600D01*
X51761161Y-109438407D01*
X51745483Y-109440052D01*
X51726621Y-109441541D01*
X51704165Y-109442881D01*
X51677705Y-109444082D01*
X51646830Y-109445148D01*
X51611131Y-109446090D01*
X51570197Y-109446912D01*
X51523617Y-109447625D01*
X51470983Y-109448234D01*
X51411883Y-109448747D01*
X51345907Y-109449171D01*
X51272645Y-109449515D01*
X51191687Y-109449786D01*
X51102622Y-109449990D01*
X51005041Y-109450137D01*
X50898534Y-109450232D01*
X50782689Y-109450284D01*
X50657097Y-109450300D01*
X50521347Y-109450287D01*
X50375030Y-109450253D01*
X50217735Y-109450206D01*
X50049051Y-109450153D01*
X49868570Y-109450101D01*
X49731482Y-109450069D01*
X49541758Y-109450024D01*
X49364143Y-109449969D01*
X49198240Y-109449903D01*
X49043657Y-109449824D01*
X48899997Y-109449729D01*
X48766866Y-109449617D01*
X48643869Y-109449485D01*
X48530612Y-109449333D01*
X48426699Y-109449158D01*
X48331736Y-109448959D01*
X48245328Y-109448733D01*
X48167080Y-109448478D01*
X48096597Y-109448194D01*
X48033485Y-109447877D01*
X47977348Y-109447526D01*
X47927793Y-109447140D01*
X47884423Y-109446716D01*
X47846844Y-109446252D01*
X47814662Y-109445748D01*
X47787482Y-109445199D01*
X47764908Y-109444606D01*
X47746546Y-109443966D01*
X47732001Y-109443277D01*
X47720879Y-109442537D01*
X47712784Y-109441745D01*
X47707322Y-109440899D01*
X47705734Y-109440531D01*
X47647196Y-109418688D01*
X47594008Y-109386223D01*
X47547363Y-109344305D01*
X47508452Y-109294104D01*
X47478465Y-109236789D01*
X47467456Y-109206670D01*
X47457325Y-109159770D01*
X47454132Y-109108224D01*
X47455066Y-109095414D01*
X47588180Y-109095414D01*
X47589962Y-109140999D01*
X47601909Y-109185183D01*
X47622978Y-109226016D01*
X47652127Y-109261547D01*
X47688313Y-109289824D01*
X47730493Y-109308895D01*
X47736683Y-109310683D01*
X47742033Y-109311443D01*
X47752500Y-109312156D01*
X47768422Y-109312823D01*
X47790135Y-109313447D01*
X47817976Y-109314028D01*
X47852284Y-109314568D01*
X47893394Y-109315069D01*
X47941646Y-109315530D01*
X47997375Y-109315955D01*
X48060918Y-109316345D01*
X48132615Y-109316699D01*
X48212800Y-109317021D01*
X48301812Y-109317312D01*
X48399989Y-109317572D01*
X48507666Y-109317803D01*
X48625182Y-109318007D01*
X48752874Y-109318185D01*
X48891078Y-109318338D01*
X49040133Y-109318468D01*
X49200375Y-109318575D01*
X49372142Y-109318662D01*
X49555771Y-109318730D01*
X49731661Y-109318776D01*
X49918677Y-109318812D01*
X50093599Y-109318837D01*
X50256833Y-109318847D01*
X50408788Y-109318842D01*
X50549872Y-109318820D01*
X50680493Y-109318778D01*
X50801059Y-109318714D01*
X50911977Y-109318627D01*
X51013656Y-109318514D01*
X51106505Y-109318374D01*
X51190930Y-109318204D01*
X51267340Y-109318004D01*
X51336142Y-109317769D01*
X51397745Y-109317500D01*
X51452558Y-109317193D01*
X51500987Y-109316847D01*
X51543440Y-109316460D01*
X51580327Y-109316030D01*
X51612054Y-109315555D01*
X51639029Y-109315033D01*
X51661662Y-109314461D01*
X51680359Y-109313839D01*
X51695529Y-109313164D01*
X51707579Y-109312434D01*
X51716919Y-109311647D01*
X51723954Y-109310801D01*
X51729095Y-109309895D01*
X51731978Y-109309166D01*
X51775787Y-109290222D01*
X51813044Y-109262400D01*
X51842891Y-109227527D01*
X51864473Y-109187428D01*
X51876932Y-109143928D01*
X51879412Y-109098852D01*
X51871056Y-109054027D01*
X51862242Y-109031627D01*
X51856844Y-109021409D01*
X51845538Y-109001030D01*
X51828615Y-108970990D01*
X51806363Y-108931792D01*
X51779074Y-108883937D01*
X51747039Y-108827928D01*
X51710547Y-108764264D01*
X51669889Y-108693449D01*
X51625356Y-108615983D01*
X51577239Y-108532369D01*
X51525826Y-108443108D01*
X51471410Y-108348702D01*
X51414280Y-108249652D01*
X51354728Y-108146460D01*
X51293042Y-108039627D01*
X51229515Y-107929656D01*
X51164435Y-107817048D01*
X51098095Y-107702304D01*
X51030783Y-107585927D01*
X50962792Y-107468417D01*
X50894410Y-107350277D01*
X50825929Y-107232008D01*
X50757639Y-107114112D01*
X50689831Y-106997090D01*
X50622794Y-106881444D01*
X50556820Y-106767676D01*
X50492199Y-106656287D01*
X50429221Y-106547780D01*
X50368177Y-106442654D01*
X50309357Y-106341413D01*
X50253052Y-106244558D01*
X50199552Y-106152591D01*
X50149147Y-106066013D01*
X50102129Y-105985325D01*
X50058787Y-105911030D01*
X50019412Y-105843629D01*
X49984294Y-105783624D01*
X49953725Y-105731516D01*
X49927993Y-105687808D01*
X49907391Y-105653000D01*
X49892208Y-105627594D01*
X49882734Y-105612092D01*
X49879391Y-105607080D01*
X49862269Y-105592588D01*
X49839720Y-105577581D01*
X49825084Y-105569571D01*
X49806670Y-105561311D01*
X49789826Y-105556248D01*
X49770410Y-105553635D01*
X49744281Y-105552728D01*
X49731233Y-105552676D01*
X49701658Y-105553112D01*
X49680645Y-105554865D01*
X49664268Y-105558656D01*
X49648601Y-105565207D01*
X49640586Y-105569328D01*
X49617552Y-105583899D01*
X49594982Y-105601787D01*
X49586477Y-105609933D01*
X49581429Y-105617348D01*
X49570442Y-105635101D01*
X49553807Y-105662687D01*
X49531814Y-105699603D01*
X49504755Y-105745345D01*
X49472921Y-105799411D01*
X49436602Y-105861297D01*
X49396091Y-105930499D01*
X49351677Y-106006514D01*
X49303652Y-106088839D01*
X49252306Y-106176970D01*
X49197932Y-106270404D01*
X49140819Y-106368637D01*
X49081259Y-106471167D01*
X49019542Y-106577489D01*
X48955961Y-106687101D01*
X48890805Y-106799498D01*
X48824366Y-106914178D01*
X48756935Y-107030637D01*
X48688803Y-107148371D01*
X48620261Y-107266878D01*
X48551599Y-107385654D01*
X48483109Y-107504195D01*
X48415082Y-107621999D01*
X48347809Y-107738561D01*
X48281581Y-107853378D01*
X48216689Y-107965948D01*
X48153424Y-108075766D01*
X48092076Y-108182329D01*
X48032937Y-108285133D01*
X47976299Y-108383676D01*
X47922451Y-108477454D01*
X47871685Y-108565964D01*
X47824292Y-108648702D01*
X47780562Y-108725164D01*
X47740788Y-108794848D01*
X47705260Y-108857250D01*
X47674268Y-108911866D01*
X47648105Y-108958194D01*
X47627060Y-108995729D01*
X47611426Y-109023969D01*
X47601492Y-109042409D01*
X47597605Y-109050382D01*
X47588180Y-109095414D01*
X47455066Y-109095414D01*
X47457860Y-109057112D01*
X47468037Y-109012872D01*
X47472671Y-109003015D01*
X47483564Y-108982417D01*
X47500681Y-108951142D01*
X47523985Y-108909254D01*
X47553441Y-108856813D01*
X47589013Y-108793884D01*
X47630665Y-108720528D01*
X47678362Y-108636809D01*
X47732066Y-108542790D01*
X47791743Y-108438533D01*
X47857356Y-108324101D01*
X47928870Y-108199557D01*
X48006248Y-108064963D01*
X48089456Y-107920382D01*
X48178456Y-107765878D01*
X48273213Y-107601512D01*
X48373692Y-107427347D01*
X48467082Y-107265568D01*
X48560865Y-107103164D01*
X48648613Y-106951238D01*
X48730534Y-106809434D01*
X48806837Y-106677398D01*
X48877729Y-106554775D01*
X48943420Y-106441209D01*
X49004117Y-106336346D01*
X49060029Y-106239830D01*
X49111363Y-106151306D01*
X49158329Y-106070419D01*
X49201133Y-105996814D01*
X49239986Y-105930136D01*
X49275094Y-105870030D01*
X49306666Y-105816140D01*
X49334910Y-105768113D01*
X49360034Y-105725591D01*
X49382247Y-105688222D01*
X49401757Y-105655648D01*
X49418772Y-105627516D01*
X49433501Y-105603470D01*
X49446150Y-105583156D01*
X49456930Y-105566217D01*
X49466048Y-105552299D01*
X49473712Y-105541047D01*
X49480130Y-105532106D01*
X49485511Y-105525120D01*
X49490063Y-105519735D01*
X49492250Y-105517368D01*
X49539161Y-105475751D01*
X49589911Y-105445530D01*
X49645652Y-105426232D01*
X49707533Y-105417384D01*
X49737484Y-105416685D01*
X49803606Y-105422768D01*
G37*
D13*
%TO.C,C6*%
X130665000Y-112561252D02*
X130665000Y-112038748D01*
X132135000Y-112561252D02*
X132135000Y-112038748D01*
%TO.C,R14*%
X114437936Y-65175000D02*
X114892064Y-65175000D01*
X114437936Y-66645000D02*
X114892064Y-66645000D01*
%TO.C,R4*%
X132427064Y-85085000D02*
X131972936Y-85085000D01*
X132427064Y-83615000D02*
X131972936Y-83615000D01*
%TO.C,J12*%
X112330000Y-77990000D02*
X112330000Y-77870000D01*
X112330000Y-77870000D02*
X109670000Y-77870000D01*
X109670000Y-77990000D02*
X109670000Y-77870000D01*
X109670000Y-80530000D02*
X109670000Y-79200000D01*
X111000000Y-80530000D02*
X109670000Y-80530000D01*
%TO.C,J23*%
X139670000Y-112810000D02*
X139670000Y-112930000D01*
X139670000Y-112930000D02*
X142330000Y-112930000D01*
X142330000Y-112810000D02*
X142330000Y-112930000D01*
X142330000Y-110270000D02*
X142330000Y-111600000D01*
X141000000Y-110270000D02*
X142330000Y-110270000D01*
%TO.C,J15*%
X96990000Y-82670000D02*
X96870000Y-82670000D01*
X96870000Y-82670000D02*
X96870000Y-85330000D01*
X96990000Y-85330000D02*
X96870000Y-85330000D01*
X99530000Y-85330000D02*
X98200000Y-85330000D01*
X99530000Y-84000000D02*
X99530000Y-85330000D01*
%TO.C,J18*%
X139390000Y-63470000D02*
X139270000Y-63470000D01*
X139270000Y-63470000D02*
X139270000Y-66130000D01*
X139390000Y-66130000D02*
X139270000Y-66130000D01*
X141930000Y-66130000D02*
X140600000Y-66130000D01*
X141930000Y-64800000D02*
X141930000Y-66130000D01*
%TO.C,C11*%
X135038752Y-82895000D02*
X134516248Y-82895000D01*
X135038752Y-81425000D02*
X134516248Y-81425000D01*
%TO.C,R2*%
X82759718Y-100370001D02*
X82305590Y-100370001D01*
X82759718Y-98900001D02*
X82305590Y-98900001D01*
D14*
%TO.C,K2*%
X72950000Y-60076000D02*
X72950000Y-61346000D01*
X73585000Y-60711000D02*
X72315000Y-60711000D01*
X75627000Y-61473000D02*
X53773002Y-61473000D01*
X75627000Y-77327000D02*
X75627000Y-61473000D01*
X75627000Y-77327000D02*
X53773002Y-77327000D01*
X53773002Y-77327000D02*
X53773002Y-61473000D01*
D15*
%TO.C,D5*%
X122855000Y-115650000D02*
X125705000Y-115650000D01*
X125705000Y-117350000D02*
X122855000Y-117350000D01*
D13*
%TO.C,C7*%
X121865000Y-112523752D02*
X121865000Y-112001248D01*
X123335000Y-112523752D02*
X123335000Y-112001248D01*
D15*
%TO.C,J7*%
X44150002Y-76847500D02*
X44150002Y-61847500D01*
X52400002Y-76847500D02*
X44150002Y-76847500D01*
X52400002Y-76847500D02*
X52400002Y-61847500D01*
X52400002Y-61847500D02*
X44150002Y-61847500D01*
D11*
X48250002Y-77597500D02*
G75*
G03*
X48250002Y-77597500I-100000J0D01*
G01*
D13*
%TO.C,J13*%
X103270000Y-64210000D02*
X103270000Y-64330000D01*
X103270000Y-64330000D02*
X105930000Y-64330000D01*
X105930000Y-64210000D02*
X105930000Y-64330000D01*
X105930000Y-61670000D02*
X105930000Y-63000000D01*
X104600000Y-61670000D02*
X105930000Y-61670000D01*
D15*
%TO.C,D8*%
X115820000Y-116140000D02*
X115820000Y-117340000D01*
X114780000Y-117340000D02*
X114780000Y-116140000D01*
%TO.C,J6*%
X44132654Y-98935001D02*
X44132654Y-83935001D01*
X52382654Y-98935001D02*
X44132654Y-98935001D01*
X52382654Y-98935001D02*
X52382654Y-83935001D01*
X52382654Y-83935001D02*
X44132654Y-83935001D01*
D11*
X48232654Y-99685001D02*
G75*
G03*
X48232654Y-99685001I-100000J0D01*
G01*
D13*
%TO.C,R23*%
X81985002Y-80772936D02*
X81985002Y-81227064D01*
X80515002Y-80772936D02*
X80515002Y-81227064D01*
%TO.C,R8*%
X120177064Y-86335000D02*
X119722936Y-86335000D01*
X120177064Y-84865000D02*
X119722936Y-84865000D01*
%TO.C,C9*%
X131938748Y-90815000D02*
X132461252Y-90815000D01*
X131938748Y-92285000D02*
X132461252Y-92285000D01*
%TO.C,R24*%
X79315002Y-67827064D02*
X79315002Y-67372936D01*
X80785002Y-67827064D02*
X80785002Y-67372936D01*
%TO.C,R15*%
X83772936Y-112265000D02*
X84227064Y-112265000D01*
X83772936Y-113735000D02*
X84227064Y-113735000D01*
D15*
%TO.C,D6*%
X131145000Y-117350000D02*
X128295000Y-117350000D01*
X128295000Y-115650000D02*
X131145000Y-115650000D01*
D13*
%TO.C,J24*%
X121210000Y-94530000D02*
X121330000Y-94530000D01*
X121330000Y-94530000D02*
X121330000Y-91870000D01*
X121210000Y-91870000D02*
X121330000Y-91870000D01*
X118670000Y-91870000D02*
X120000000Y-91870000D01*
X118670000Y-93200000D02*
X118670000Y-91870000D01*
%TO.C,R12*%
X134430200Y-97103064D02*
X134430200Y-96648936D01*
X135900200Y-97103064D02*
X135900200Y-96648936D01*
%TO.C,R22*%
X82877066Y-78535000D02*
X82422938Y-78535000D01*
X82877066Y-77065000D02*
X82422938Y-77065000D01*
D15*
%TO.C,D2*%
X137520000Y-116160000D02*
X137520000Y-117360000D01*
X136480000Y-117360000D02*
X136480000Y-116160000D01*
D13*
%TO.C,D12*%
X79090002Y-73660000D02*
X81010002Y-73660000D01*
X79090002Y-70800000D02*
X79090002Y-73660000D01*
X81010002Y-73660000D02*
X81010002Y-70800000D01*
D14*
%TO.C,U7*%
X77491154Y-99733501D02*
X79142154Y-99733501D01*
X77491154Y-98694641D02*
X77491154Y-99733501D01*
X79142154Y-98422861D02*
X79142154Y-97742141D01*
X77491154Y-96431501D02*
X77491154Y-97470361D01*
X79142154Y-96431501D02*
X77491154Y-96431501D01*
D13*
%TO.C,J11*%
X99210000Y-79380000D02*
X99330000Y-79380000D01*
X99330000Y-79380000D02*
X99330000Y-76720000D01*
X99210000Y-76720000D02*
X99330000Y-76720000D01*
X96670000Y-76720000D02*
X98000000Y-76720000D01*
X96670000Y-78050000D02*
X96670000Y-76720000D01*
D15*
%TO.C,D7*%
X135920000Y-116160000D02*
X135920000Y-117360000D01*
X134880000Y-117360000D02*
X134880000Y-116160000D01*
D13*
%TO.C,J17*%
X120470000Y-98210000D02*
X120470000Y-98330000D01*
X120470000Y-98330000D02*
X123130000Y-98330000D01*
X123130000Y-98210000D02*
X123130000Y-98330000D01*
X123130000Y-95670000D02*
X123130000Y-97000000D01*
X121800000Y-95670000D02*
X123130000Y-95670000D01*
D14*
%TO.C,U10*%
X77640502Y-77851000D02*
X79291502Y-77851000D01*
X77640502Y-76812140D02*
X77640502Y-77851000D01*
X79291502Y-76540360D02*
X79291502Y-75859640D01*
X77640502Y-74549000D02*
X77640502Y-75587860D01*
X79291502Y-74549000D02*
X77640502Y-74549000D01*
D15*
%TO.C,J3*%
X113100000Y-124850000D02*
X113100000Y-124620000D01*
X113100000Y-124850000D02*
X120700000Y-124850000D01*
X120700000Y-124850000D02*
X120700000Y-124620000D01*
%TO.C,U4*%
X123500000Y-89250000D02*
X123500000Y-88705000D01*
X124045000Y-89250000D02*
X123500000Y-89250000D01*
X128500000Y-89250000D02*
X127955000Y-89250000D01*
X128500000Y-88705000D02*
X128500000Y-89250000D01*
X123500000Y-84795000D02*
X123500000Y-84250000D01*
X123500000Y-84250000D02*
X124045000Y-84250000D01*
X128500000Y-84250000D02*
X128500000Y-84795000D01*
X128500000Y-84250000D02*
X127955000Y-84250000D01*
D13*
%TO.C,J22*%
X135530000Y-110990000D02*
X135530000Y-110870000D01*
X135530000Y-110870000D02*
X132870000Y-110870000D01*
X132870000Y-110990000D02*
X132870000Y-110870000D01*
X132870000Y-113530000D02*
X132870000Y-112200000D01*
X134200000Y-113530000D02*
X132870000Y-113530000D01*
%TO.C,C13*%
X99223752Y-75785000D02*
X98701248Y-75785000D01*
X99223752Y-74315000D02*
X98701248Y-74315000D01*
%TO.C,C3*%
X102738748Y-74315000D02*
X103261252Y-74315000D01*
X102738748Y-75785000D02*
X103261252Y-75785000D01*
%TO.C,J8*%
X101670000Y-105810000D02*
X101670000Y-105930000D01*
X101670000Y-105930000D02*
X104330000Y-105930000D01*
X104330000Y-105810000D02*
X104330000Y-105930000D01*
X104330000Y-103270000D02*
X104330000Y-104600000D01*
X103000000Y-103270000D02*
X104330000Y-103270000D01*
%TO.C,R16*%
X66320436Y-112365000D02*
X66774564Y-112365000D01*
X66320436Y-113835000D02*
X66774564Y-113835000D01*
%TO.C,R17*%
X80227064Y-113735000D02*
X79772936Y-113735000D01*
X80227064Y-112265000D02*
X79772936Y-112265000D01*
%TO.C,J14*%
X96990000Y-86970000D02*
X96870000Y-86970000D01*
X96870000Y-86970000D02*
X96870000Y-89630000D01*
X96990000Y-89630000D02*
X96870000Y-89630000D01*
X99530000Y-89630000D02*
X98200000Y-89630000D01*
X99530000Y-88300000D02*
X99530000Y-89630000D01*
%TO.C,R5*%
X132427064Y-94735000D02*
X131972936Y-94735000D01*
X132427064Y-93265000D02*
X131972936Y-93265000D01*
D15*
%TO.C,D9*%
X78582654Y-90085001D02*
X78582654Y-92785001D01*
X76882654Y-90085001D02*
X76882654Y-92785001D01*
D11*
X77832654Y-88635001D02*
G75*
G03*
X77832654Y-88635001I-100000J0D01*
G01*
D13*
%TO.C,R19*%
X79397654Y-89662065D02*
X79397654Y-89207937D01*
X80867654Y-89662065D02*
X80867654Y-89207937D01*
%TO.C,C5*%
X110730000Y-63371252D02*
X110730000Y-62848748D01*
X112200000Y-63371252D02*
X112200000Y-62848748D01*
%TO.C,R9*%
X127227064Y-102835000D02*
X126772936Y-102835000D01*
X127227064Y-101365000D02*
X126772936Y-101365000D01*
%TO.C,C12*%
X114888752Y-71045000D02*
X114366248Y-71045000D01*
X114888752Y-69575000D02*
X114366248Y-69575000D01*
D15*
%TO.C,D4*%
X117420000Y-116140000D02*
X117420000Y-117340000D01*
X116380000Y-117340000D02*
X116380000Y-116140000D01*
%TO.C,U2*%
X105750000Y-71150000D02*
X105915000Y-71150000D01*
X112250000Y-71150000D02*
X112085000Y-71150000D01*
X112250000Y-71150000D02*
X112250000Y-67650000D01*
X105750000Y-67650000D02*
X105750000Y-71150000D01*
X107065000Y-67650000D02*
X105750000Y-67650000D01*
X112250000Y-67650000D02*
X110935000Y-67650000D01*
%TO.C,J2*%
X133200000Y-124850000D02*
X133200000Y-124620000D01*
X133200000Y-124850000D02*
X140800000Y-124850000D01*
X140800000Y-124850000D02*
X140800000Y-124620000D01*
D13*
%TO.C,J16*%
X142530000Y-95990000D02*
X142530000Y-95870000D01*
X142530000Y-95870000D02*
X139870000Y-95870000D01*
X139870000Y-95990000D02*
X139870000Y-95870000D01*
X139870000Y-98530000D02*
X139870000Y-97200000D01*
X141200000Y-98530000D02*
X139870000Y-98530000D01*
D15*
%TO.C,D3*%
X119020000Y-116160000D02*
X119020000Y-117360000D01*
X117980000Y-117360000D02*
X117980000Y-116160000D01*
D13*
%TO.C,R11*%
X118065000Y-97122064D02*
X118065000Y-96667936D01*
X119535000Y-97122064D02*
X119535000Y-96667936D01*
D15*
%TO.C,J1*%
X114500000Y-97600000D02*
X114500000Y-98750000D01*
X112550000Y-97600000D02*
X114500000Y-97600000D01*
X105500000Y-97600000D02*
X107350000Y-97600000D01*
X114500000Y-103850000D02*
X114500000Y-112000000D01*
X114500000Y-112000000D02*
X105500000Y-112000000D01*
X105500000Y-112000000D02*
X105500000Y-97600000D01*
D13*
%TO.C,D10*%
X79172654Y-95495001D02*
X81092654Y-95495001D01*
X79172654Y-92635001D02*
X79172654Y-95495001D01*
X81092654Y-95495001D02*
X81092654Y-92635001D01*
%TO.C,C4*%
X108530000Y-63371252D02*
X108530000Y-62848748D01*
X110000000Y-63371252D02*
X110000000Y-62848748D01*
%TO.C,R10*%
X126772936Y-99365000D02*
X127227064Y-99365000D01*
X126772936Y-100835000D02*
X127227064Y-100835000D01*
D15*
%TO.C,U1*%
X118000000Y-54650000D02*
X136000000Y-54650000D01*
X118000000Y-61370000D02*
X118000000Y-54650000D01*
X118000000Y-79420000D02*
X118000000Y-80150000D01*
X118000000Y-80150000D02*
X119245000Y-80150000D01*
X136000000Y-54650000D02*
X136000000Y-61370000D01*
X136000000Y-79420000D02*
X136000000Y-80150000D01*
X136000000Y-80150000D02*
X134755000Y-80150000D01*
D14*
%TO.C,K1*%
X73032651Y-82111000D02*
X73032651Y-83381000D01*
X73667651Y-82746000D02*
X72397651Y-82746000D01*
X75709651Y-83508000D02*
X53855653Y-83508000D01*
X75709651Y-99362000D02*
X75709651Y-83508000D01*
X75709651Y-99362000D02*
X53855653Y-99362000D01*
X53855653Y-99362000D02*
X53855653Y-83508000D01*
D13*
%TO.C,J20*%
X109070000Y-124410000D02*
X109070000Y-124530000D01*
X109070000Y-124530000D02*
X111730000Y-124530000D01*
X111730000Y-124410000D02*
X111730000Y-124530000D01*
X111730000Y-121870000D02*
X111730000Y-123200000D01*
X110400000Y-121870000D02*
X111730000Y-121870000D01*
D16*
%TO.C,S2*%
X121650000Y-107725000D02*
X121650000Y-106925000D01*
X121150000Y-108925000D02*
X117950000Y-108925000D01*
X117950000Y-105725000D02*
X121150000Y-105725000D01*
X117450000Y-107725000D02*
X117450000Y-106925000D01*
X122550000Y-108325000D02*
G75*
G03*
X122550000Y-108425000I0J-50000D01*
G01*
X122550000Y-108425000D02*
G75*
G03*
X122550000Y-108325000I0J50000D01*
G01*
D13*
%TO.C,R3*%
X132427064Y-87485000D02*
X131972936Y-87485000D01*
X132427064Y-86015000D02*
X131972936Y-86015000D01*
%TO.C,R18*%
X62774564Y-113835000D02*
X62320436Y-113835000D01*
X62774564Y-112365000D02*
X62320436Y-112365000D01*
D15*
%TO.C,D1*%
X139120000Y-116160000D02*
X139120000Y-117360000D01*
X138080000Y-117360000D02*
X138080000Y-116160000D01*
D13*
%TO.C,C2*%
X107463752Y-75645000D02*
X106941248Y-75645000D01*
X107463752Y-74175000D02*
X106941248Y-74175000D01*
%TO.C,C10*%
X114888752Y-68845000D02*
X114366248Y-68845000D01*
X114888752Y-67375000D02*
X114366248Y-67375000D01*
%TO.C,R1*%
X81867654Y-102607937D02*
X81867654Y-103062065D01*
X80397654Y-102607937D02*
X80397654Y-103062065D01*
%TO.C,C1*%
X110778748Y-74175000D02*
X111301252Y-74175000D01*
X110778748Y-75645000D02*
X111301252Y-75645000D01*
D16*
%TO.C,S1*%
X136350000Y-107725000D02*
X136350000Y-106925000D01*
X135850000Y-108925000D02*
X132650000Y-108925000D01*
X132650000Y-105725000D02*
X135850000Y-105725000D01*
X132150000Y-107725000D02*
X132150000Y-106925000D01*
X137250000Y-108325000D02*
G75*
G03*
X137250000Y-108425000I0J-50000D01*
G01*
X137250000Y-108425000D02*
G75*
G03*
X137250000Y-108325000I0J50000D01*
G01*
D13*
%TO.C,R13*%
X114892064Y-64445000D02*
X114437936Y-64445000D01*
X114892064Y-62975000D02*
X114437936Y-62975000D01*
D15*
%TO.C,U3*%
X97450000Y-67550000D02*
X97450000Y-71250000D01*
X97450000Y-71250000D02*
X104150000Y-71250000D01*
X104150000Y-67550000D02*
X97450000Y-67550000D01*
X104150000Y-71250000D02*
X104150000Y-67550000D01*
D11*
X97400000Y-73000000D02*
G75*
G03*
X97400000Y-73000000I-100000J0D01*
G01*
D15*
%TO.C,D11*%
X78300002Y-68450000D02*
X78300002Y-71150000D01*
X76600002Y-68450000D02*
X76600002Y-71150000D01*
D11*
X77550002Y-67000000D02*
G75*
G03*
X77550002Y-67000000I-100000J0D01*
G01*
D15*
%TO.C,J5*%
X75047500Y-123500000D02*
X60047500Y-123500000D01*
X75047500Y-115250000D02*
X75047500Y-123500000D01*
X75047500Y-115250000D02*
X60047500Y-115250000D01*
X60047500Y-115250000D02*
X60047500Y-123500000D01*
D11*
X75897500Y-119500000D02*
G75*
G03*
X75897500Y-119500000I-100000J0D01*
G01*
D14*
%TO.C,U6*%
X134990700Y-99396500D02*
X133339700Y-99396500D01*
X134990700Y-100435360D02*
X134990700Y-99396500D01*
X133339700Y-100707140D02*
X133339700Y-101387860D01*
X134990700Y-102698500D02*
X134990700Y-101659640D01*
X133339700Y-102698500D02*
X134990700Y-102698500D01*
D13*
%TO.C,J25*%
X129010000Y-106330000D02*
X129130000Y-106330000D01*
X129130000Y-106330000D02*
X129130000Y-103670000D01*
X129010000Y-103670000D02*
X129130000Y-103670000D01*
X126470000Y-103670000D02*
X127800000Y-103670000D01*
X126470000Y-105000000D02*
X126470000Y-103670000D01*
%TO.C,R6*%
X132427064Y-89885000D02*
X131972936Y-89885000D01*
X132427064Y-88415000D02*
X131972936Y-88415000D01*
%TO.C,C8*%
X129735000Y-91776248D02*
X129735000Y-92298752D01*
X128265000Y-91776248D02*
X128265000Y-92298752D01*
D14*
%TO.C,U5*%
X118809300Y-102698500D02*
X120460300Y-102698500D01*
X118809300Y-101659640D02*
X118809300Y-102698500D01*
X120460300Y-101387860D02*
X120460300Y-100707140D01*
X118809300Y-99396500D02*
X118809300Y-100435360D01*
X120460300Y-99396500D02*
X118809300Y-99396500D01*
D13*
%TO.C,J19*%
X139390000Y-67270000D02*
X139270000Y-67270000D01*
X139270000Y-67270000D02*
X139270000Y-69930000D01*
X139390000Y-69930000D02*
X139270000Y-69930000D01*
X141930000Y-69930000D02*
X140600000Y-69930000D01*
X141930000Y-68600000D02*
X141930000Y-69930000D01*
%TO.C,R7*%
X120177064Y-89735000D02*
X119722936Y-89735000D01*
X120177064Y-88265000D02*
X119722936Y-88265000D01*
D15*
%TO.C,J4*%
X91900000Y-123400000D02*
X76900000Y-123400000D01*
X91900000Y-115150000D02*
X91900000Y-123400000D01*
X91900000Y-115150000D02*
X76900000Y-115150000D01*
X76900000Y-115150000D02*
X76900000Y-123400000D01*
D11*
X92750000Y-119400000D02*
G75*
G03*
X92750000Y-119400000I-100000J0D01*
G01*
%TD*%
M02*
