%TF.GenerationSoftware,KiCad,Pcbnew,7.0.9*%
%TF.CreationDate,2024-03-05T03:29:11-06:00*%
%TF.ProjectId,Sensor PCB,53656e73-6f72-4205-9043-422e6b696361,rev?*%
%TF.SameCoordinates,Original*%
%TF.FileFunction,Soldermask,Top*%
%TF.FilePolarity,Negative*%
%FSLAX46Y46*%
G04 Gerber Fmt 4.6, Leading zero omitted, Abs format (unit mm)*
G04 Created by KiCad (PCBNEW 7.0.9) date 2024-03-05 03:29:11*
%MOMM*%
%LPD*%
G01*
G04 APERTURE LIST*
G04 Aperture macros list*
%AMRoundRect*
0 Rectangle with rounded corners*
0 $1 Rounding radius*
0 $2 $3 $4 $5 $6 $7 $8 $9 X,Y pos of 4 corners*
0 Add a 4 corners polygon primitive as box body*
4,1,4,$2,$3,$4,$5,$6,$7,$8,$9,$2,$3,0*
0 Add four circle primitives for the rounded corners*
1,1,$1+$1,$2,$3*
1,1,$1+$1,$4,$5*
1,1,$1+$1,$6,$7*
1,1,$1+$1,$8,$9*
0 Add four rect primitives between the rounded corners*
20,1,$1+$1,$2,$3,$4,$5,0*
20,1,$1+$1,$4,$5,$6,$7,0*
20,1,$1+$1,$6,$7,$8,$9,0*
20,1,$1+$1,$8,$9,$2,$3,0*%
G04 Aperture macros list end*
%ADD10RoundRect,0.250000X0.350000X0.450000X-0.350000X0.450000X-0.350000X-0.450000X0.350000X-0.450000X0*%
%ADD11R,1.422400X0.558800*%
%ADD12RoundRect,0.250000X-0.475000X0.337500X-0.475000X-0.337500X0.475000X-0.337500X0.475000X0.337500X0*%
%ADD13RoundRect,0.102000X0.500000X0.350000X-0.500000X0.350000X-0.500000X-0.350000X0.500000X-0.350000X0*%
%ADD14RoundRect,0.250000X-0.337500X-0.475000X0.337500X-0.475000X0.337500X0.475000X-0.337500X0.475000X0*%
%ADD15RoundRect,0.250000X0.450000X-0.350000X0.450000X0.350000X-0.450000X0.350000X-0.450000X-0.350000X0*%
%ADD16RoundRect,0.213600X0.353400X-0.878400X0.353400X0.878400X-0.353400X0.878400X-0.353400X-0.878400X0*%
%ADD17RoundRect,0.894000X0.823000X-0.198000X0.823000X0.198000X-0.823000X0.198000X-0.823000X-0.198000X0*%
%ADD18RoundRect,0.250000X0.337500X0.475000X-0.337500X0.475000X-0.337500X-0.475000X0.337500X-0.475000X0*%
%ADD19RoundRect,0.102000X-0.200000X0.240000X-0.200000X-0.240000X0.200000X-0.240000X0.200000X0.240000X0*%
%ADD20RoundRect,0.102000X-0.750000X-0.450000X0.750000X-0.450000X0.750000X0.450000X-0.750000X0.450000X0*%
%ADD21RoundRect,0.102000X-0.450000X-0.750000X0.450000X-0.750000X0.450000X0.750000X-0.450000X0.750000X0*%
%ADD22RoundRect,0.102000X-0.450000X-0.450000X0.450000X-0.450000X0.450000X0.450000X-0.450000X0.450000X0*%
%ADD23RoundRect,0.250000X-0.350000X-0.450000X0.350000X-0.450000X0.350000X0.450000X-0.350000X0.450000X0*%
%ADD24RoundRect,0.250000X0.475000X-0.337500X0.475000X0.337500X-0.475000X0.337500X-0.475000X-0.337500X0*%
%ADD25O,5.204000X2.704000*%
%ADD26O,4.704000X2.454000*%
%ADD27O,2.454000X4.704000*%
%ADD28RoundRect,0.102000X-0.200000X-0.675000X0.200000X-0.675000X0.200000X0.675000X-0.200000X0.675000X0*%
%ADD29RoundRect,0.102000X-0.800000X-0.700000X0.800000X-0.700000X0.800000X0.700000X-0.800000X0.700000X0*%
%ADD30RoundRect,0.102000X-0.950000X-0.950000X0.950000X-0.950000X0.950000X0.950000X-0.950000X0.950000X0*%
%ADD31O,1.104000X2.004000*%
%ADD32C,3.200000*%
%ADD33RoundRect,0.102000X0.135000X-0.495000X0.135000X0.495000X-0.135000X0.495000X-0.135000X-0.495000X0*%
%ADD34RoundRect,0.102000X0.495000X-0.135000X0.495000X0.135000X-0.495000X0.135000X-0.495000X-0.135000X0*%
%ADD35RoundRect,0.102000X1.625000X-1.625000X1.625000X1.625000X-1.625000X1.625000X-1.625000X-1.625000X0*%
%ADD36RoundRect,0.102000X0.605000X0.365000X-0.605000X0.365000X-0.605000X-0.365000X0.605000X-0.365000X0*%
%ADD37RoundRect,0.102000X-0.605000X-0.365000X0.605000X-0.365000X0.605000X0.365000X-0.605000X0.365000X0*%
G04 APERTURE END LIST*
D10*
%TO.C,R7*%
X120950000Y-89000000D03*
X118950000Y-89000000D03*
%TD*%
D11*
%TO.C,U5*%
X120600000Y-102000000D03*
X120600000Y-100095000D03*
X118669600Y-101047500D03*
%TD*%
D12*
%TO.C,C8*%
X129000000Y-91000000D03*
X129000000Y-93075000D03*
%TD*%
D10*
%TO.C,R6*%
X133200000Y-89150000D03*
X131200000Y-89150000D03*
%TD*%
D11*
%TO.C,U6*%
X133200000Y-100095000D03*
X133200000Y-102000000D03*
X135130400Y-101047500D03*
%TD*%
D10*
%TO.C,R13*%
X115665000Y-63710000D03*
X113665000Y-63710000D03*
%TD*%
D13*
%TO.C,S1*%
X136500000Y-108400000D03*
X132000000Y-108400000D03*
X136500000Y-106250000D03*
X132000000Y-106250000D03*
%TD*%
D14*
%TO.C,C1*%
X110002500Y-74910000D03*
X112077500Y-74910000D03*
%TD*%
D15*
%TO.C,R1*%
X115550000Y-76200000D03*
X115550000Y-74200000D03*
%TD*%
D16*
%TO.C,U2*%
X106765000Y-72540000D03*
X109065000Y-72540000D03*
X111365000Y-72540000D03*
D17*
X109065000Y-66510000D03*
%TD*%
D18*
%TO.C,C10*%
X115665000Y-68110000D03*
X113590000Y-68110000D03*
%TD*%
%TO.C,C2*%
X108240000Y-74910000D03*
X106165000Y-74910000D03*
%TD*%
D19*
%TO.C,D1*%
X138600000Y-116100000D03*
X138600000Y-117420000D03*
%TD*%
D10*
%TO.C,R3*%
X133200000Y-86750000D03*
X131200000Y-86750000D03*
%TD*%
D13*
%TO.C,S2*%
X121800000Y-108400000D03*
X117300000Y-108400000D03*
X121800000Y-106250000D03*
X117300000Y-106250000D03*
%TD*%
D20*
%TO.C,U1*%
X118165000Y-62340000D03*
X118165000Y-63610000D03*
X118165000Y-64880000D03*
X118165000Y-66150000D03*
X118165000Y-67420000D03*
X118165000Y-68690000D03*
X118165000Y-69960000D03*
X118165000Y-71230000D03*
X118165000Y-72500000D03*
X118165000Y-73770000D03*
X118165000Y-75040000D03*
X118165000Y-76310000D03*
X118165000Y-77580000D03*
X118165000Y-78850000D03*
D21*
X119930000Y-80100000D03*
X121200000Y-80100000D03*
X122470000Y-80100000D03*
X123740000Y-80100000D03*
X125010000Y-80100000D03*
X126280000Y-80100000D03*
X127550000Y-80100000D03*
X128820000Y-80100000D03*
X130090000Y-80100000D03*
X131360000Y-80100000D03*
X132630000Y-80100000D03*
X133900000Y-80100000D03*
D20*
X135665000Y-78850000D03*
X135665000Y-77580000D03*
X135665000Y-76310000D03*
X135665000Y-75040000D03*
X135665000Y-73770000D03*
X135665000Y-72500000D03*
X135665000Y-71230000D03*
X135665000Y-69960000D03*
X135665000Y-68690000D03*
X135665000Y-67420000D03*
X135665000Y-66150000D03*
X135665000Y-64880000D03*
X135665000Y-63610000D03*
X135665000Y-62340000D03*
D22*
X125415000Y-70060000D03*
X124015000Y-70060000D03*
X126815000Y-70060000D03*
X124015000Y-71460000D03*
X125415000Y-71460000D03*
X126815000Y-71460000D03*
X124015000Y-68660000D03*
X125415000Y-68660000D03*
X126815000Y-68660000D03*
%TD*%
D23*
%TO.C,R10*%
X126000000Y-100100000D03*
X128000000Y-100100000D03*
%TD*%
D24*
%TO.C,C4*%
X109265000Y-64147500D03*
X109265000Y-62072500D03*
%TD*%
D25*
%TO.C,J1*%
X110000000Y-98300000D03*
D26*
X110000000Y-104300000D03*
D27*
X114700000Y-101300000D03*
%TD*%
D15*
%TO.C,R11*%
X118800000Y-97895000D03*
X118800000Y-95895000D03*
%TD*%
D10*
%TO.C,R2*%
X122465000Y-82110000D03*
X120465000Y-82110000D03*
%TD*%
D19*
%TO.C,D3*%
X118500000Y-116100000D03*
X118500000Y-117420000D03*
%TD*%
D28*
%TO.C,J2*%
X135700000Y-120725000D03*
X136350000Y-120725000D03*
X137000000Y-120725000D03*
X137650000Y-120725000D03*
X138300000Y-120725000D03*
D29*
X133800000Y-120950000D03*
X140200000Y-120950000D03*
D30*
X138200000Y-123400000D03*
X135800000Y-123400000D03*
D31*
X133700000Y-123400000D03*
X140300000Y-123400000D03*
%TD*%
D19*
%TO.C,D4*%
X116900000Y-116080000D03*
X116900000Y-117400000D03*
%TD*%
D18*
%TO.C,C12*%
X115665000Y-70310000D03*
X113590000Y-70310000D03*
%TD*%
%TO.C,C3*%
X112237500Y-78300000D03*
X110162500Y-78300000D03*
%TD*%
D10*
%TO.C,R9*%
X128000000Y-102100000D03*
X126000000Y-102100000D03*
%TD*%
D24*
%TO.C,C5*%
X111465000Y-64147500D03*
X111465000Y-62072500D03*
%TD*%
D10*
%TO.C,R5*%
X133200000Y-94000000D03*
X131200000Y-94000000D03*
%TD*%
D32*
%TO.C,H4*%
X150100000Y-121100000D03*
%TD*%
D33*
%TO.C,U4*%
X124500000Y-89110000D03*
X125000000Y-89110000D03*
X125500000Y-89110000D03*
X126000000Y-89110000D03*
X126500000Y-89110000D03*
X127000000Y-89110000D03*
X127500000Y-89110000D03*
D34*
X128360000Y-88250000D03*
X128360000Y-87750000D03*
X128360000Y-87250000D03*
X128360000Y-86750000D03*
X128360000Y-86250000D03*
X128360000Y-85750000D03*
X128360000Y-85250000D03*
D33*
X127500000Y-84390000D03*
X127000000Y-84390000D03*
X126500000Y-84390000D03*
X126000000Y-84390000D03*
X125500000Y-84390000D03*
X125000000Y-84390000D03*
X124500000Y-84390000D03*
D34*
X123640000Y-85250000D03*
X123640000Y-85750000D03*
X123640000Y-86250000D03*
X123640000Y-86750000D03*
X123640000Y-87250000D03*
X123640000Y-87750000D03*
X123640000Y-88250000D03*
D35*
X126000000Y-86750000D03*
%TD*%
D28*
%TO.C,J3*%
X115600000Y-120725000D03*
X116250000Y-120725000D03*
X116900000Y-120725000D03*
X117550000Y-120725000D03*
X118200000Y-120725000D03*
D29*
X113700000Y-120950000D03*
X120100000Y-120950000D03*
D30*
X118100000Y-123400000D03*
X115700000Y-123400000D03*
D31*
X113600000Y-123400000D03*
X120200000Y-123400000D03*
%TD*%
D19*
%TO.C,D7*%
X135400000Y-116100000D03*
X135400000Y-117420000D03*
%TD*%
%TO.C,D2*%
X137000000Y-116100000D03*
X137000000Y-117420000D03*
%TD*%
D15*
%TO.C,R12*%
X135165200Y-97876000D03*
X135165200Y-95876000D03*
%TD*%
D36*
%TO.C,D6*%
X128040000Y-116500000D03*
X131400000Y-116500000D03*
%TD*%
D14*
%TO.C,C9*%
X131162500Y-91550000D03*
X133237500Y-91550000D03*
%TD*%
D10*
%TO.C,R8*%
X120950000Y-85600000D03*
X118950000Y-85600000D03*
%TD*%
D19*
%TO.C,D8*%
X115300000Y-116080000D03*
X115300000Y-117400000D03*
%TD*%
D24*
%TO.C,C7*%
X122600000Y-113300000D03*
X122600000Y-111225000D03*
%TD*%
D37*
%TO.C,D5*%
X125960000Y-116500000D03*
X122600000Y-116500000D03*
%TD*%
D18*
%TO.C,C11*%
X135815000Y-82160000D03*
X133740000Y-82160000D03*
%TD*%
D32*
%TO.C,H2*%
X101700000Y-121100000D03*
%TD*%
%TO.C,H1*%
X101800000Y-64500000D03*
%TD*%
%TO.C,H3*%
X149881128Y-64600000D03*
%TD*%
D10*
%TO.C,R4*%
X133200000Y-84350000D03*
X131200000Y-84350000D03*
%TD*%
D23*
%TO.C,R14*%
X113665000Y-65910000D03*
X115665000Y-65910000D03*
%TD*%
D24*
%TO.C,C6*%
X131400000Y-113337500D03*
X131400000Y-111262500D03*
%TD*%
M02*
