%TF.GenerationSoftware,KiCad,Pcbnew,7.0.9*%
%TF.CreationDate,2024-03-05T03:29:11-06:00*%
%TF.ProjectId,Sensor PCB,53656e73-6f72-4205-9043-422e6b696361,rev?*%
%TF.SameCoordinates,Original*%
%TF.FileFunction,Legend,Top*%
%TF.FilePolarity,Positive*%
%FSLAX46Y46*%
G04 Gerber Fmt 4.6, Leading zero omitted, Abs format (unit mm)*
G04 Created by KiCad (PCBNEW 7.0.9) date 2024-03-05 03:29:11*
%MOMM*%
%LPD*%
G01*
G04 APERTURE LIST*
%ADD10C,0.200000*%
%ADD11C,0.150000*%
%ADD12C,0.120000*%
%ADD13C,0.152400*%
%ADD14C,0.100000*%
%ADD15C,0.127000*%
G04 APERTURE END LIST*
D10*
X150803695Y-100877945D02*
X150003695Y-100877945D01*
X150384647Y-100877945D02*
X150384647Y-100420802D01*
X150803695Y-100420802D02*
X150003695Y-100420802D01*
X150270361Y-99696993D02*
X150803695Y-99696993D01*
X150270361Y-100039850D02*
X150689409Y-100039850D01*
X150689409Y-100039850D02*
X150765600Y-100001755D01*
X150765600Y-100001755D02*
X150803695Y-99925565D01*
X150803695Y-99925565D02*
X150803695Y-99811279D01*
X150803695Y-99811279D02*
X150765600Y-99735088D01*
X150765600Y-99735088D02*
X150727504Y-99696993D01*
X150803695Y-99316040D02*
X150270361Y-99316040D01*
X150346552Y-99316040D02*
X150308457Y-99277945D01*
X150308457Y-99277945D02*
X150270361Y-99201755D01*
X150270361Y-99201755D02*
X150270361Y-99087469D01*
X150270361Y-99087469D02*
X150308457Y-99011278D01*
X150308457Y-99011278D02*
X150384647Y-98973183D01*
X150384647Y-98973183D02*
X150803695Y-98973183D01*
X150384647Y-98973183D02*
X150308457Y-98935088D01*
X150308457Y-98935088D02*
X150270361Y-98858897D01*
X150270361Y-98858897D02*
X150270361Y-98744612D01*
X150270361Y-98744612D02*
X150308457Y-98668421D01*
X150308457Y-98668421D02*
X150384647Y-98630326D01*
X150384647Y-98630326D02*
X150803695Y-98630326D01*
X150803695Y-98249373D02*
X150270361Y-98249373D01*
X150003695Y-98249373D02*
X150041790Y-98287469D01*
X150041790Y-98287469D02*
X150079885Y-98249373D01*
X150079885Y-98249373D02*
X150041790Y-98211278D01*
X150041790Y-98211278D02*
X150003695Y-98249373D01*
X150003695Y-98249373D02*
X150079885Y-98249373D01*
X150803695Y-97525564D02*
X150003695Y-97525564D01*
X150765600Y-97525564D02*
X150803695Y-97601755D01*
X150803695Y-97601755D02*
X150803695Y-97754136D01*
X150803695Y-97754136D02*
X150765600Y-97830326D01*
X150765600Y-97830326D02*
X150727504Y-97868421D01*
X150727504Y-97868421D02*
X150651314Y-97906517D01*
X150651314Y-97906517D02*
X150422742Y-97906517D01*
X150422742Y-97906517D02*
X150346552Y-97868421D01*
X150346552Y-97868421D02*
X150308457Y-97830326D01*
X150308457Y-97830326D02*
X150270361Y-97754136D01*
X150270361Y-97754136D02*
X150270361Y-97601755D01*
X150270361Y-97601755D02*
X150308457Y-97525564D01*
X150803695Y-97144611D02*
X150270361Y-97144611D01*
X150003695Y-97144611D02*
X150041790Y-97182707D01*
X150041790Y-97182707D02*
X150079885Y-97144611D01*
X150079885Y-97144611D02*
X150041790Y-97106516D01*
X150041790Y-97106516D02*
X150003695Y-97144611D01*
X150003695Y-97144611D02*
X150079885Y-97144611D01*
X150270361Y-96877945D02*
X150270361Y-96573183D01*
X150003695Y-96763659D02*
X150689409Y-96763659D01*
X150689409Y-96763659D02*
X150765600Y-96725564D01*
X150765600Y-96725564D02*
X150803695Y-96649374D01*
X150803695Y-96649374D02*
X150803695Y-96573183D01*
X150270361Y-96382707D02*
X150803695Y-96192231D01*
X150270361Y-96001754D02*
X150803695Y-96192231D01*
X150803695Y-96192231D02*
X150994171Y-96268421D01*
X150994171Y-96268421D02*
X151032266Y-96306516D01*
X151032266Y-96306516D02*
X151070361Y-96382707D01*
X150765600Y-95125564D02*
X150803695Y-95011278D01*
X150803695Y-95011278D02*
X150803695Y-94820802D01*
X150803695Y-94820802D02*
X150765600Y-94744611D01*
X150765600Y-94744611D02*
X150727504Y-94706516D01*
X150727504Y-94706516D02*
X150651314Y-94668421D01*
X150651314Y-94668421D02*
X150575123Y-94668421D01*
X150575123Y-94668421D02*
X150498933Y-94706516D01*
X150498933Y-94706516D02*
X150460838Y-94744611D01*
X150460838Y-94744611D02*
X150422742Y-94820802D01*
X150422742Y-94820802D02*
X150384647Y-94973183D01*
X150384647Y-94973183D02*
X150346552Y-95049373D01*
X150346552Y-95049373D02*
X150308457Y-95087468D01*
X150308457Y-95087468D02*
X150232266Y-95125564D01*
X150232266Y-95125564D02*
X150156076Y-95125564D01*
X150156076Y-95125564D02*
X150079885Y-95087468D01*
X150079885Y-95087468D02*
X150041790Y-95049373D01*
X150041790Y-95049373D02*
X150003695Y-94973183D01*
X150003695Y-94973183D02*
X150003695Y-94782706D01*
X150003695Y-94782706D02*
X150041790Y-94668421D01*
X150765600Y-94020801D02*
X150803695Y-94096992D01*
X150803695Y-94096992D02*
X150803695Y-94249373D01*
X150803695Y-94249373D02*
X150765600Y-94325563D01*
X150765600Y-94325563D02*
X150689409Y-94363659D01*
X150689409Y-94363659D02*
X150384647Y-94363659D01*
X150384647Y-94363659D02*
X150308457Y-94325563D01*
X150308457Y-94325563D02*
X150270361Y-94249373D01*
X150270361Y-94249373D02*
X150270361Y-94096992D01*
X150270361Y-94096992D02*
X150308457Y-94020801D01*
X150308457Y-94020801D02*
X150384647Y-93982706D01*
X150384647Y-93982706D02*
X150460838Y-93982706D01*
X150460838Y-93982706D02*
X150537028Y-94363659D01*
X150270361Y-93639849D02*
X150803695Y-93639849D01*
X150346552Y-93639849D02*
X150308457Y-93601754D01*
X150308457Y-93601754D02*
X150270361Y-93525564D01*
X150270361Y-93525564D02*
X150270361Y-93411278D01*
X150270361Y-93411278D02*
X150308457Y-93335087D01*
X150308457Y-93335087D02*
X150384647Y-93296992D01*
X150384647Y-93296992D02*
X150803695Y-93296992D01*
X150765600Y-92954135D02*
X150803695Y-92877944D01*
X150803695Y-92877944D02*
X150803695Y-92725563D01*
X150803695Y-92725563D02*
X150765600Y-92649373D01*
X150765600Y-92649373D02*
X150689409Y-92611277D01*
X150689409Y-92611277D02*
X150651314Y-92611277D01*
X150651314Y-92611277D02*
X150575123Y-92649373D01*
X150575123Y-92649373D02*
X150537028Y-92725563D01*
X150537028Y-92725563D02*
X150537028Y-92839849D01*
X150537028Y-92839849D02*
X150498933Y-92916039D01*
X150498933Y-92916039D02*
X150422742Y-92954135D01*
X150422742Y-92954135D02*
X150384647Y-92954135D01*
X150384647Y-92954135D02*
X150308457Y-92916039D01*
X150308457Y-92916039D02*
X150270361Y-92839849D01*
X150270361Y-92839849D02*
X150270361Y-92725563D01*
X150270361Y-92725563D02*
X150308457Y-92649373D01*
X150803695Y-92154135D02*
X150765600Y-92230325D01*
X150765600Y-92230325D02*
X150727504Y-92268420D01*
X150727504Y-92268420D02*
X150651314Y-92306516D01*
X150651314Y-92306516D02*
X150422742Y-92306516D01*
X150422742Y-92306516D02*
X150346552Y-92268420D01*
X150346552Y-92268420D02*
X150308457Y-92230325D01*
X150308457Y-92230325D02*
X150270361Y-92154135D01*
X150270361Y-92154135D02*
X150270361Y-92039849D01*
X150270361Y-92039849D02*
X150308457Y-91963658D01*
X150308457Y-91963658D02*
X150346552Y-91925563D01*
X150346552Y-91925563D02*
X150422742Y-91887468D01*
X150422742Y-91887468D02*
X150651314Y-91887468D01*
X150651314Y-91887468D02*
X150727504Y-91925563D01*
X150727504Y-91925563D02*
X150765600Y-91963658D01*
X150765600Y-91963658D02*
X150803695Y-92039849D01*
X150803695Y-92039849D02*
X150803695Y-92154135D01*
X150803695Y-91544610D02*
X150270361Y-91544610D01*
X150422742Y-91544610D02*
X150346552Y-91506515D01*
X150346552Y-91506515D02*
X150308457Y-91468420D01*
X150308457Y-91468420D02*
X150270361Y-91392229D01*
X150270361Y-91392229D02*
X150270361Y-91316039D01*
X150765600Y-90477944D02*
X150803695Y-90363658D01*
X150803695Y-90363658D02*
X150803695Y-90173182D01*
X150803695Y-90173182D02*
X150765600Y-90096991D01*
X150765600Y-90096991D02*
X150727504Y-90058896D01*
X150727504Y-90058896D02*
X150651314Y-90020801D01*
X150651314Y-90020801D02*
X150575123Y-90020801D01*
X150575123Y-90020801D02*
X150498933Y-90058896D01*
X150498933Y-90058896D02*
X150460838Y-90096991D01*
X150460838Y-90096991D02*
X150422742Y-90173182D01*
X150422742Y-90173182D02*
X150384647Y-90325563D01*
X150384647Y-90325563D02*
X150346552Y-90401753D01*
X150346552Y-90401753D02*
X150308457Y-90439848D01*
X150308457Y-90439848D02*
X150232266Y-90477944D01*
X150232266Y-90477944D02*
X150156076Y-90477944D01*
X150156076Y-90477944D02*
X150079885Y-90439848D01*
X150079885Y-90439848D02*
X150041790Y-90401753D01*
X150041790Y-90401753D02*
X150003695Y-90325563D01*
X150003695Y-90325563D02*
X150003695Y-90135086D01*
X150003695Y-90135086D02*
X150041790Y-90020801D01*
X150270361Y-89335086D02*
X150803695Y-89335086D01*
X150270361Y-89677943D02*
X150689409Y-89677943D01*
X150689409Y-89677943D02*
X150765600Y-89639848D01*
X150765600Y-89639848D02*
X150803695Y-89563658D01*
X150803695Y-89563658D02*
X150803695Y-89449372D01*
X150803695Y-89449372D02*
X150765600Y-89373181D01*
X150765600Y-89373181D02*
X150727504Y-89335086D01*
X150803695Y-88954133D02*
X150003695Y-88954133D01*
X150308457Y-88954133D02*
X150270361Y-88877943D01*
X150270361Y-88877943D02*
X150270361Y-88725562D01*
X150270361Y-88725562D02*
X150308457Y-88649371D01*
X150308457Y-88649371D02*
X150346552Y-88611276D01*
X150346552Y-88611276D02*
X150422742Y-88573181D01*
X150422742Y-88573181D02*
X150651314Y-88573181D01*
X150651314Y-88573181D02*
X150727504Y-88611276D01*
X150727504Y-88611276D02*
X150765600Y-88649371D01*
X150765600Y-88649371D02*
X150803695Y-88725562D01*
X150803695Y-88725562D02*
X150803695Y-88877943D01*
X150803695Y-88877943D02*
X150765600Y-88954133D01*
X150765600Y-88268419D02*
X150803695Y-88192228D01*
X150803695Y-88192228D02*
X150803695Y-88039847D01*
X150803695Y-88039847D02*
X150765600Y-87963657D01*
X150765600Y-87963657D02*
X150689409Y-87925561D01*
X150689409Y-87925561D02*
X150651314Y-87925561D01*
X150651314Y-87925561D02*
X150575123Y-87963657D01*
X150575123Y-87963657D02*
X150537028Y-88039847D01*
X150537028Y-88039847D02*
X150537028Y-88154133D01*
X150537028Y-88154133D02*
X150498933Y-88230323D01*
X150498933Y-88230323D02*
X150422742Y-88268419D01*
X150422742Y-88268419D02*
X150384647Y-88268419D01*
X150384647Y-88268419D02*
X150308457Y-88230323D01*
X150308457Y-88230323D02*
X150270361Y-88154133D01*
X150270361Y-88154133D02*
X150270361Y-88039847D01*
X150270361Y-88039847D02*
X150308457Y-87963657D01*
X150270361Y-87658895D02*
X150803695Y-87468419D01*
X150270361Y-87277942D02*
X150803695Y-87468419D01*
X150803695Y-87468419D02*
X150994171Y-87544609D01*
X150994171Y-87544609D02*
X151032266Y-87582704D01*
X151032266Y-87582704D02*
X151070361Y-87658895D01*
X150765600Y-87011276D02*
X150803695Y-86935085D01*
X150803695Y-86935085D02*
X150803695Y-86782704D01*
X150803695Y-86782704D02*
X150765600Y-86706514D01*
X150765600Y-86706514D02*
X150689409Y-86668418D01*
X150689409Y-86668418D02*
X150651314Y-86668418D01*
X150651314Y-86668418D02*
X150575123Y-86706514D01*
X150575123Y-86706514D02*
X150537028Y-86782704D01*
X150537028Y-86782704D02*
X150537028Y-86896990D01*
X150537028Y-86896990D02*
X150498933Y-86973180D01*
X150498933Y-86973180D02*
X150422742Y-87011276D01*
X150422742Y-87011276D02*
X150384647Y-87011276D01*
X150384647Y-87011276D02*
X150308457Y-86973180D01*
X150308457Y-86973180D02*
X150270361Y-86896990D01*
X150270361Y-86896990D02*
X150270361Y-86782704D01*
X150270361Y-86782704D02*
X150308457Y-86706514D01*
X150270361Y-86439847D02*
X150270361Y-86135085D01*
X150003695Y-86325561D02*
X150689409Y-86325561D01*
X150689409Y-86325561D02*
X150765600Y-86287466D01*
X150765600Y-86287466D02*
X150803695Y-86211276D01*
X150803695Y-86211276D02*
X150803695Y-86135085D01*
X150765600Y-85563656D02*
X150803695Y-85639847D01*
X150803695Y-85639847D02*
X150803695Y-85792228D01*
X150803695Y-85792228D02*
X150765600Y-85868418D01*
X150765600Y-85868418D02*
X150689409Y-85906514D01*
X150689409Y-85906514D02*
X150384647Y-85906514D01*
X150384647Y-85906514D02*
X150308457Y-85868418D01*
X150308457Y-85868418D02*
X150270361Y-85792228D01*
X150270361Y-85792228D02*
X150270361Y-85639847D01*
X150270361Y-85639847D02*
X150308457Y-85563656D01*
X150308457Y-85563656D02*
X150384647Y-85525561D01*
X150384647Y-85525561D02*
X150460838Y-85525561D01*
X150460838Y-85525561D02*
X150537028Y-85906514D01*
X150803695Y-85182704D02*
X150270361Y-85182704D01*
X150346552Y-85182704D02*
X150308457Y-85144609D01*
X150308457Y-85144609D02*
X150270361Y-85068419D01*
X150270361Y-85068419D02*
X150270361Y-84954133D01*
X150270361Y-84954133D02*
X150308457Y-84877942D01*
X150308457Y-84877942D02*
X150384647Y-84839847D01*
X150384647Y-84839847D02*
X150803695Y-84839847D01*
X150384647Y-84839847D02*
X150308457Y-84801752D01*
X150308457Y-84801752D02*
X150270361Y-84725561D01*
X150270361Y-84725561D02*
X150270361Y-84611276D01*
X150270361Y-84611276D02*
X150308457Y-84535085D01*
X150308457Y-84535085D02*
X150384647Y-84496990D01*
X150384647Y-84496990D02*
X150803695Y-84496990D01*
X151672647Y-99658897D02*
X151672647Y-99392231D01*
X152091695Y-99277945D02*
X152091695Y-99658897D01*
X152091695Y-99658897D02*
X151291695Y-99658897D01*
X151291695Y-99658897D02*
X151291695Y-99277945D01*
X152015504Y-98477944D02*
X152053600Y-98516040D01*
X152053600Y-98516040D02*
X152091695Y-98630325D01*
X152091695Y-98630325D02*
X152091695Y-98706516D01*
X152091695Y-98706516D02*
X152053600Y-98820802D01*
X152053600Y-98820802D02*
X151977409Y-98896992D01*
X151977409Y-98896992D02*
X151901219Y-98935087D01*
X151901219Y-98935087D02*
X151748838Y-98973183D01*
X151748838Y-98973183D02*
X151634552Y-98973183D01*
X151634552Y-98973183D02*
X151482171Y-98935087D01*
X151482171Y-98935087D02*
X151405980Y-98896992D01*
X151405980Y-98896992D02*
X151329790Y-98820802D01*
X151329790Y-98820802D02*
X151291695Y-98706516D01*
X151291695Y-98706516D02*
X151291695Y-98630325D01*
X151291695Y-98630325D02*
X151329790Y-98516040D01*
X151329790Y-98516040D02*
X151367885Y-98477944D01*
X151672647Y-98135087D02*
X151672647Y-97868421D01*
X152091695Y-97754135D02*
X152091695Y-98135087D01*
X152091695Y-98135087D02*
X151291695Y-98135087D01*
X151291695Y-98135087D02*
X151291695Y-97754135D01*
X151558361Y-97068420D02*
X152091695Y-97068420D01*
X151253600Y-97258896D02*
X151825028Y-97449373D01*
X151825028Y-97449373D02*
X151825028Y-96954134D01*
X151558361Y-96306515D02*
X152091695Y-96306515D01*
X151253600Y-96496991D02*
X151825028Y-96687468D01*
X151825028Y-96687468D02*
X151825028Y-96192229D01*
X151291695Y-95506515D02*
X151291695Y-95887467D01*
X151291695Y-95887467D02*
X151672647Y-95925563D01*
X151672647Y-95925563D02*
X151634552Y-95887467D01*
X151634552Y-95887467D02*
X151596457Y-95811277D01*
X151596457Y-95811277D02*
X151596457Y-95620801D01*
X151596457Y-95620801D02*
X151634552Y-95544610D01*
X151634552Y-95544610D02*
X151672647Y-95506515D01*
X151672647Y-95506515D02*
X151748838Y-95468420D01*
X151748838Y-95468420D02*
X151939314Y-95468420D01*
X151939314Y-95468420D02*
X152015504Y-95506515D01*
X152015504Y-95506515D02*
X152053600Y-95544610D01*
X152053600Y-95544610D02*
X152091695Y-95620801D01*
X152091695Y-95620801D02*
X152091695Y-95811277D01*
X152091695Y-95811277D02*
X152053600Y-95887467D01*
X152053600Y-95887467D02*
X152015504Y-95925563D01*
X151786933Y-95125562D02*
X151786933Y-94516039D01*
X152053600Y-94173182D02*
X152091695Y-94058896D01*
X152091695Y-94058896D02*
X152091695Y-93868420D01*
X152091695Y-93868420D02*
X152053600Y-93792229D01*
X152053600Y-93792229D02*
X152015504Y-93754134D01*
X152015504Y-93754134D02*
X151939314Y-93716039D01*
X151939314Y-93716039D02*
X151863123Y-93716039D01*
X151863123Y-93716039D02*
X151786933Y-93754134D01*
X151786933Y-93754134D02*
X151748838Y-93792229D01*
X151748838Y-93792229D02*
X151710742Y-93868420D01*
X151710742Y-93868420D02*
X151672647Y-94020801D01*
X151672647Y-94020801D02*
X151634552Y-94096991D01*
X151634552Y-94096991D02*
X151596457Y-94135086D01*
X151596457Y-94135086D02*
X151520266Y-94173182D01*
X151520266Y-94173182D02*
X151444076Y-94173182D01*
X151444076Y-94173182D02*
X151367885Y-94135086D01*
X151367885Y-94135086D02*
X151329790Y-94096991D01*
X151329790Y-94096991D02*
X151291695Y-94020801D01*
X151291695Y-94020801D02*
X151291695Y-93830324D01*
X151291695Y-93830324D02*
X151329790Y-93716039D01*
X152091695Y-93373181D02*
X151291695Y-93373181D01*
X151291695Y-93373181D02*
X151291695Y-93068419D01*
X151291695Y-93068419D02*
X151329790Y-92992229D01*
X151329790Y-92992229D02*
X151367885Y-92954134D01*
X151367885Y-92954134D02*
X151444076Y-92916038D01*
X151444076Y-92916038D02*
X151558361Y-92916038D01*
X151558361Y-92916038D02*
X151634552Y-92954134D01*
X151634552Y-92954134D02*
X151672647Y-92992229D01*
X151672647Y-92992229D02*
X151710742Y-93068419D01*
X151710742Y-93068419D02*
X151710742Y-93373181D01*
X151367885Y-92611277D02*
X151329790Y-92573181D01*
X151329790Y-92573181D02*
X151291695Y-92496991D01*
X151291695Y-92496991D02*
X151291695Y-92306515D01*
X151291695Y-92306515D02*
X151329790Y-92230324D01*
X151329790Y-92230324D02*
X151367885Y-92192229D01*
X151367885Y-92192229D02*
X151444076Y-92154134D01*
X151444076Y-92154134D02*
X151520266Y-92154134D01*
X151520266Y-92154134D02*
X151634552Y-92192229D01*
X151634552Y-92192229D02*
X152091695Y-92649372D01*
X152091695Y-92649372D02*
X152091695Y-92154134D01*
X151558361Y-91468419D02*
X152091695Y-91468419D01*
X151253600Y-91658895D02*
X151825028Y-91849372D01*
X151825028Y-91849372D02*
X151825028Y-91354133D01*
X151291695Y-90554133D02*
X151291695Y-90096990D01*
X152091695Y-90325562D02*
X151291695Y-90325562D01*
X152053600Y-89525561D02*
X152091695Y-89601752D01*
X152091695Y-89601752D02*
X152091695Y-89754133D01*
X152091695Y-89754133D02*
X152053600Y-89830323D01*
X152053600Y-89830323D02*
X151977409Y-89868419D01*
X151977409Y-89868419D02*
X151672647Y-89868419D01*
X151672647Y-89868419D02*
X151596457Y-89830323D01*
X151596457Y-89830323D02*
X151558361Y-89754133D01*
X151558361Y-89754133D02*
X151558361Y-89601752D01*
X151558361Y-89601752D02*
X151596457Y-89525561D01*
X151596457Y-89525561D02*
X151672647Y-89487466D01*
X151672647Y-89487466D02*
X151748838Y-89487466D01*
X151748838Y-89487466D02*
X151825028Y-89868419D01*
X152091695Y-88801752D02*
X151672647Y-88801752D01*
X151672647Y-88801752D02*
X151596457Y-88839847D01*
X151596457Y-88839847D02*
X151558361Y-88916038D01*
X151558361Y-88916038D02*
X151558361Y-89068419D01*
X151558361Y-89068419D02*
X151596457Y-89144609D01*
X152053600Y-88801752D02*
X152091695Y-88877943D01*
X152091695Y-88877943D02*
X152091695Y-89068419D01*
X152091695Y-89068419D02*
X152053600Y-89144609D01*
X152053600Y-89144609D02*
X151977409Y-89182705D01*
X151977409Y-89182705D02*
X151901219Y-89182705D01*
X151901219Y-89182705D02*
X151825028Y-89144609D01*
X151825028Y-89144609D02*
X151786933Y-89068419D01*
X151786933Y-89068419D02*
X151786933Y-88877943D01*
X151786933Y-88877943D02*
X151748838Y-88801752D01*
X152091695Y-88420799D02*
X151558361Y-88420799D01*
X151634552Y-88420799D02*
X151596457Y-88382704D01*
X151596457Y-88382704D02*
X151558361Y-88306514D01*
X151558361Y-88306514D02*
X151558361Y-88192228D01*
X151558361Y-88192228D02*
X151596457Y-88116037D01*
X151596457Y-88116037D02*
X151672647Y-88077942D01*
X151672647Y-88077942D02*
X152091695Y-88077942D01*
X151672647Y-88077942D02*
X151596457Y-88039847D01*
X151596457Y-88039847D02*
X151558361Y-87963656D01*
X151558361Y-87963656D02*
X151558361Y-87849371D01*
X151558361Y-87849371D02*
X151596457Y-87773180D01*
X151596457Y-87773180D02*
X151672647Y-87735085D01*
X151672647Y-87735085D02*
X152091695Y-87735085D01*
X152091695Y-86325561D02*
X152091695Y-86782704D01*
X152091695Y-86554132D02*
X151291695Y-86554132D01*
X151291695Y-86554132D02*
X151405980Y-86630323D01*
X151405980Y-86630323D02*
X151482171Y-86706513D01*
X151482171Y-86706513D02*
X151520266Y-86782704D01*
X152091695Y-85563656D02*
X152091695Y-86020799D01*
X152091695Y-85792227D02*
X151291695Y-85792227D01*
X151291695Y-85792227D02*
X151405980Y-85868418D01*
X151405980Y-85868418D02*
X151482171Y-85944608D01*
X151482171Y-85944608D02*
X151520266Y-86020799D01*
D11*
X133070112Y-103946009D02*
X133212969Y-103993628D01*
X133212969Y-103993628D02*
X133260588Y-104041247D01*
X133260588Y-104041247D02*
X133308207Y-104136485D01*
X133308207Y-104136485D02*
X133308207Y-104279342D01*
X133308207Y-104279342D02*
X133260588Y-104374580D01*
X133260588Y-104374580D02*
X133212969Y-104422200D01*
X133212969Y-104422200D02*
X133117731Y-104469819D01*
X133117731Y-104469819D02*
X132736779Y-104469819D01*
X132736779Y-104469819D02*
X132736779Y-103469819D01*
X132736779Y-103469819D02*
X133070112Y-103469819D01*
X133070112Y-103469819D02*
X133165350Y-103517438D01*
X133165350Y-103517438D02*
X133212969Y-103565057D01*
X133212969Y-103565057D02*
X133260588Y-103660295D01*
X133260588Y-103660295D02*
X133260588Y-103755533D01*
X133260588Y-103755533D02*
X133212969Y-103850771D01*
X133212969Y-103850771D02*
X133165350Y-103898390D01*
X133165350Y-103898390D02*
X133070112Y-103946009D01*
X133070112Y-103946009D02*
X132736779Y-103946009D01*
X133927255Y-103469819D02*
X134117731Y-103469819D01*
X134117731Y-103469819D02*
X134212969Y-103517438D01*
X134212969Y-103517438D02*
X134308207Y-103612676D01*
X134308207Y-103612676D02*
X134355826Y-103803152D01*
X134355826Y-103803152D02*
X134355826Y-104136485D01*
X134355826Y-104136485D02*
X134308207Y-104326961D01*
X134308207Y-104326961D02*
X134212969Y-104422200D01*
X134212969Y-104422200D02*
X134117731Y-104469819D01*
X134117731Y-104469819D02*
X133927255Y-104469819D01*
X133927255Y-104469819D02*
X133832017Y-104422200D01*
X133832017Y-104422200D02*
X133736779Y-104326961D01*
X133736779Y-104326961D02*
X133689160Y-104136485D01*
X133689160Y-104136485D02*
X133689160Y-103803152D01*
X133689160Y-103803152D02*
X133736779Y-103612676D01*
X133736779Y-103612676D02*
X133832017Y-103517438D01*
X133832017Y-103517438D02*
X133927255Y-103469819D01*
X134974874Y-103469819D02*
X135165350Y-103469819D01*
X135165350Y-103469819D02*
X135260588Y-103517438D01*
X135260588Y-103517438D02*
X135355826Y-103612676D01*
X135355826Y-103612676D02*
X135403445Y-103803152D01*
X135403445Y-103803152D02*
X135403445Y-104136485D01*
X135403445Y-104136485D02*
X135355826Y-104326961D01*
X135355826Y-104326961D02*
X135260588Y-104422200D01*
X135260588Y-104422200D02*
X135165350Y-104469819D01*
X135165350Y-104469819D02*
X134974874Y-104469819D01*
X134974874Y-104469819D02*
X134879636Y-104422200D01*
X134879636Y-104422200D02*
X134784398Y-104326961D01*
X134784398Y-104326961D02*
X134736779Y-104136485D01*
X134736779Y-104136485D02*
X134736779Y-103803152D01*
X134736779Y-103803152D02*
X134784398Y-103612676D01*
X134784398Y-103612676D02*
X134879636Y-103517438D01*
X134879636Y-103517438D02*
X134974874Y-103469819D01*
X135689160Y-103469819D02*
X136260588Y-103469819D01*
X135974874Y-104469819D02*
X135974874Y-103469819D01*
X118308207Y-104469819D02*
X117974874Y-103993628D01*
X117736779Y-104469819D02*
X117736779Y-103469819D01*
X117736779Y-103469819D02*
X118117731Y-103469819D01*
X118117731Y-103469819D02*
X118212969Y-103517438D01*
X118212969Y-103517438D02*
X118260588Y-103565057D01*
X118260588Y-103565057D02*
X118308207Y-103660295D01*
X118308207Y-103660295D02*
X118308207Y-103803152D01*
X118308207Y-103803152D02*
X118260588Y-103898390D01*
X118260588Y-103898390D02*
X118212969Y-103946009D01*
X118212969Y-103946009D02*
X118117731Y-103993628D01*
X118117731Y-103993628D02*
X117736779Y-103993628D01*
X118736779Y-103946009D02*
X119070112Y-103946009D01*
X119212969Y-104469819D02*
X118736779Y-104469819D01*
X118736779Y-104469819D02*
X118736779Y-103469819D01*
X118736779Y-103469819D02*
X119212969Y-103469819D01*
X119593922Y-104422200D02*
X119736779Y-104469819D01*
X119736779Y-104469819D02*
X119974874Y-104469819D01*
X119974874Y-104469819D02*
X120070112Y-104422200D01*
X120070112Y-104422200D02*
X120117731Y-104374580D01*
X120117731Y-104374580D02*
X120165350Y-104279342D01*
X120165350Y-104279342D02*
X120165350Y-104184104D01*
X120165350Y-104184104D02*
X120117731Y-104088866D01*
X120117731Y-104088866D02*
X120070112Y-104041247D01*
X120070112Y-104041247D02*
X119974874Y-103993628D01*
X119974874Y-103993628D02*
X119784398Y-103946009D01*
X119784398Y-103946009D02*
X119689160Y-103898390D01*
X119689160Y-103898390D02*
X119641541Y-103850771D01*
X119641541Y-103850771D02*
X119593922Y-103755533D01*
X119593922Y-103755533D02*
X119593922Y-103660295D01*
X119593922Y-103660295D02*
X119641541Y-103565057D01*
X119641541Y-103565057D02*
X119689160Y-103517438D01*
X119689160Y-103517438D02*
X119784398Y-103469819D01*
X119784398Y-103469819D02*
X120022493Y-103469819D01*
X120022493Y-103469819D02*
X120165350Y-103517438D01*
X120593922Y-103946009D02*
X120927255Y-103946009D01*
X121070112Y-104469819D02*
X120593922Y-104469819D01*
X120593922Y-104469819D02*
X120593922Y-103469819D01*
X120593922Y-103469819D02*
X121070112Y-103469819D01*
X121355827Y-103469819D02*
X121927255Y-103469819D01*
X121641541Y-104469819D02*
X121641541Y-103469819D01*
D12*
%TO.C,R7*%
X120177064Y-89735000D02*
X119722936Y-89735000D01*
X120177064Y-88265000D02*
X119722936Y-88265000D01*
D13*
%TO.C,U5*%
X118809300Y-102698500D02*
X120460300Y-102698500D01*
X118809300Y-101659640D02*
X118809300Y-102698500D01*
X120460300Y-101387860D02*
X120460300Y-100707140D01*
X118809300Y-99396500D02*
X118809300Y-100435360D01*
X120460300Y-99396500D02*
X118809300Y-99396500D01*
D12*
%TO.C,C8*%
X129735000Y-91776248D02*
X129735000Y-92298752D01*
X128265000Y-91776248D02*
X128265000Y-92298752D01*
%TO.C,R6*%
X132427064Y-89885000D02*
X131972936Y-89885000D01*
X132427064Y-88415000D02*
X131972936Y-88415000D01*
D13*
%TO.C,U6*%
X134990700Y-99396500D02*
X133339700Y-99396500D01*
X134990700Y-100435360D02*
X134990700Y-99396500D01*
X133339700Y-100707140D02*
X133339700Y-101387860D01*
X134990700Y-102698500D02*
X134990700Y-101659640D01*
X133339700Y-102698500D02*
X134990700Y-102698500D01*
X132971400Y-98647500D02*
G75*
G03*
X132971400Y-98647500I-127000J0D01*
G01*
D12*
%TO.C,R13*%
X114892064Y-64445000D02*
X114437936Y-64445000D01*
X114892064Y-62975000D02*
X114437936Y-62975000D01*
D14*
%TO.C,S1*%
X136350000Y-107725000D02*
X136350000Y-106925000D01*
X135850000Y-108925000D02*
X132650000Y-108925000D01*
X132650000Y-105725000D02*
X135850000Y-105725000D01*
X132150000Y-107725000D02*
X132150000Y-106925000D01*
X137250000Y-108325000D02*
G75*
G03*
X137250000Y-108425000I0J-50000D01*
G01*
X137250000Y-108425000D02*
G75*
G03*
X137250000Y-108325000I0J50000D01*
G01*
D12*
%TO.C,C1*%
X110778748Y-74175000D02*
X111301252Y-74175000D01*
X110778748Y-75645000D02*
X111301252Y-75645000D01*
%TO.C,R1*%
X114815000Y-75427064D02*
X114815000Y-74972936D01*
X116285000Y-75427064D02*
X116285000Y-74972936D01*
D15*
%TO.C,U2*%
X105815000Y-71275000D02*
X105980000Y-71275000D01*
X112315000Y-71275000D02*
X112150000Y-71275000D01*
X112315000Y-71275000D02*
X112315000Y-67775000D01*
X105815000Y-67775000D02*
X105815000Y-71275000D01*
X107130000Y-67775000D02*
X105815000Y-67775000D01*
X112315000Y-67775000D02*
X111000000Y-67775000D01*
D12*
%TO.C,C10*%
X114888752Y-68845000D02*
X114366248Y-68845000D01*
X114888752Y-67375000D02*
X114366248Y-67375000D01*
%TO.C,C2*%
X107463752Y-75645000D02*
X106941248Y-75645000D01*
X107463752Y-74175000D02*
X106941248Y-74175000D01*
D15*
%TO.C,D1*%
X139120000Y-116160000D02*
X139120000Y-117360000D01*
X138080000Y-117360000D02*
X138080000Y-116160000D01*
D10*
X138700000Y-115260000D02*
G75*
G03*
X138700000Y-115260000I-100000J0D01*
G01*
D12*
%TO.C,R3*%
X132427064Y-87485000D02*
X131972936Y-87485000D01*
X132427064Y-86015000D02*
X131972936Y-86015000D01*
D14*
%TO.C,S2*%
X121650000Y-107725000D02*
X121650000Y-106925000D01*
X121150000Y-108925000D02*
X117950000Y-108925000D01*
X117950000Y-105725000D02*
X121150000Y-105725000D01*
X117450000Y-107725000D02*
X117450000Y-106925000D01*
D15*
%TO.C,U1*%
X117915000Y-54850000D02*
X135915000Y-54850000D01*
X117915000Y-61570000D02*
X117915000Y-54850000D01*
X117915000Y-79620000D02*
X117915000Y-80350000D01*
X117915000Y-80350000D02*
X119160000Y-80350000D01*
X135915000Y-54850000D02*
X135915000Y-61570000D01*
X135915000Y-79620000D02*
X135915000Y-80350000D01*
X135915000Y-80350000D02*
X134670000Y-80350000D01*
D10*
X116815000Y-62340000D02*
G75*
G03*
X116815000Y-62340000I-100000J0D01*
G01*
D12*
%TO.C,R10*%
X126772936Y-99365000D02*
X127227064Y-99365000D01*
X126772936Y-100835000D02*
X127227064Y-100835000D01*
%TO.C,C4*%
X108530000Y-63371252D02*
X108530000Y-62848748D01*
X110000000Y-63371252D02*
X110000000Y-62848748D01*
D15*
%TO.C,J1*%
X114500000Y-97600000D02*
X114500000Y-98750000D01*
X112550000Y-97600000D02*
X114500000Y-97600000D01*
X105500000Y-97600000D02*
X107350000Y-97600000D01*
X114500000Y-103850000D02*
X114500000Y-112000000D01*
X114500000Y-112000000D02*
X105500000Y-112000000D01*
X105500000Y-112000000D02*
X105500000Y-97600000D01*
D12*
%TO.C,R11*%
X118065000Y-97122064D02*
X118065000Y-96667936D01*
X119535000Y-97122064D02*
X119535000Y-96667936D01*
%TO.C,R2*%
X121692064Y-82845000D02*
X121237936Y-82845000D01*
X121692064Y-81375000D02*
X121237936Y-81375000D01*
D15*
%TO.C,D3*%
X119020000Y-116160000D02*
X119020000Y-117360000D01*
X117980000Y-117360000D02*
X117980000Y-116160000D01*
D10*
X118600000Y-115260000D02*
G75*
G03*
X118600000Y-115260000I-100000J0D01*
G01*
D15*
%TO.C,J2*%
X133200000Y-124850000D02*
X133200000Y-124620000D01*
X133200000Y-124850000D02*
X140800000Y-124850000D01*
X140800000Y-124850000D02*
X140800000Y-124620000D01*
D10*
X132900000Y-119400000D02*
G75*
G03*
X132900000Y-119400000I-100000J0D01*
G01*
D15*
%TO.C,D4*%
X117420000Y-116140000D02*
X117420000Y-117340000D01*
X116380000Y-117340000D02*
X116380000Y-116140000D01*
D12*
%TO.C,C12*%
X114888752Y-71045000D02*
X114366248Y-71045000D01*
X114888752Y-69575000D02*
X114366248Y-69575000D01*
%TO.C,C3*%
X111461252Y-79035000D02*
X110938748Y-79035000D01*
X111461252Y-77565000D02*
X110938748Y-77565000D01*
%TO.C,R9*%
X127227064Y-102835000D02*
X126772936Y-102835000D01*
X127227064Y-101365000D02*
X126772936Y-101365000D01*
%TO.C,C5*%
X110730000Y-63371252D02*
X110730000Y-62848748D01*
X112200000Y-63371252D02*
X112200000Y-62848748D01*
%TO.C,R5*%
X132427064Y-94735000D02*
X131972936Y-94735000D01*
X132427064Y-93265000D02*
X131972936Y-93265000D01*
D15*
%TO.C,U4*%
X123500000Y-89250000D02*
X123500000Y-88705000D01*
X124045000Y-89250000D02*
X123500000Y-89250000D01*
X128500000Y-89250000D02*
X127955000Y-89250000D01*
X128500000Y-88705000D02*
X128500000Y-89250000D01*
X123500000Y-84795000D02*
X123500000Y-84250000D01*
X123500000Y-84250000D02*
X124045000Y-84250000D01*
X128500000Y-84250000D02*
X128500000Y-84795000D01*
X128500000Y-84250000D02*
X127955000Y-84250000D01*
D10*
X124600000Y-90205000D02*
G75*
G03*
X124600000Y-90205000I-100000J0D01*
G01*
D15*
%TO.C,J3*%
X113100000Y-124850000D02*
X113100000Y-124620000D01*
X113100000Y-124850000D02*
X120700000Y-124850000D01*
X120700000Y-124850000D02*
X120700000Y-124620000D01*
D10*
X112800000Y-119400000D02*
G75*
G03*
X112800000Y-119400000I-100000J0D01*
G01*
D15*
%TO.C,D7*%
X135920000Y-116160000D02*
X135920000Y-117360000D01*
X134880000Y-117360000D02*
X134880000Y-116160000D01*
D10*
X135500000Y-115260000D02*
G75*
G03*
X135500000Y-115260000I-100000J0D01*
G01*
D15*
%TO.C,D2*%
X137520000Y-116160000D02*
X137520000Y-117360000D01*
X136480000Y-117360000D02*
X136480000Y-116160000D01*
D12*
%TO.C,R12*%
X134430200Y-97103064D02*
X134430200Y-96648936D01*
X135900200Y-97103064D02*
X135900200Y-96648936D01*
D15*
%TO.C,D6*%
X131145000Y-117350000D02*
X128295000Y-117350000D01*
X128295000Y-115650000D02*
X131145000Y-115650000D01*
D10*
X132820000Y-116500000D02*
G75*
G03*
X132820000Y-116500000I-100000J0D01*
G01*
D12*
%TO.C,C9*%
X131938748Y-90815000D02*
X132461252Y-90815000D01*
X131938748Y-92285000D02*
X132461252Y-92285000D01*
%TO.C,R8*%
X120177064Y-86335000D02*
X119722936Y-86335000D01*
X120177064Y-84865000D02*
X119722936Y-84865000D01*
D15*
%TO.C,D8*%
X115820000Y-116140000D02*
X115820000Y-117340000D01*
X114780000Y-117340000D02*
X114780000Y-116140000D01*
D10*
X115400000Y-115240000D02*
G75*
G03*
X115400000Y-115240000I-100000J0D01*
G01*
D12*
%TO.C,C7*%
X121865000Y-112523752D02*
X121865000Y-112001248D01*
X123335000Y-112523752D02*
X123335000Y-112001248D01*
D15*
%TO.C,D5*%
X122855000Y-115650000D02*
X125705000Y-115650000D01*
X125705000Y-117350000D02*
X122855000Y-117350000D01*
D10*
X121380000Y-116500000D02*
G75*
G03*
X121380000Y-116500000I-100000J0D01*
G01*
D12*
%TO.C,C11*%
X135038752Y-82895000D02*
X134516248Y-82895000D01*
X135038752Y-81425000D02*
X134516248Y-81425000D01*
%TO.C,R4*%
X132427064Y-85085000D02*
X131972936Y-85085000D01*
X132427064Y-83615000D02*
X131972936Y-83615000D01*
%TO.C,R14*%
X114437936Y-65175000D02*
X114892064Y-65175000D01*
X114437936Y-66645000D02*
X114892064Y-66645000D01*
%TO.C,C6*%
X130665000Y-112561252D02*
X130665000Y-112038748D01*
X132135000Y-112561252D02*
X132135000Y-112038748D01*
%TD*%
M02*
