%TF.GenerationSoftware,KiCad,Pcbnew,7.0.9*%
%TF.CreationDate,2024-04-07T16:06:58-05:00*%
%TF.ProjectId,Humidifier Subsystem,48756d69-6469-4666-9965-722053756273,rev?*%
%TF.SameCoordinates,Original*%
%TF.FileFunction,Soldermask,Top*%
%TF.FilePolarity,Negative*%
%FSLAX46Y46*%
G04 Gerber Fmt 4.6, Leading zero omitted, Abs format (unit mm)*
G04 Created by KiCad (PCBNEW 7.0.9) date 2024-04-07 16:06:58*
%MOMM*%
%LPD*%
G01*
G04 APERTURE LIST*
G04 Aperture macros list*
%AMRoundRect*
0 Rectangle with rounded corners*
0 $1 Rounding radius*
0 $2 $3 $4 $5 $6 $7 $8 $9 X,Y pos of 4 corners*
0 Add a 4 corners polygon primitive as box body*
4,1,4,$2,$3,$4,$5,$6,$7,$8,$9,$2,$3,0*
0 Add four circle primitives for the rounded corners*
1,1,$1+$1,$2,$3*
1,1,$1+$1,$4,$5*
1,1,$1+$1,$6,$7*
1,1,$1+$1,$8,$9*
0 Add four rect primitives between the rounded corners*
20,1,$1+$1,$2,$3,$4,$5,0*
20,1,$1+$1,$4,$5,$6,$7,0*
20,1,$1+$1,$6,$7,$8,$9,0*
20,1,$1+$1,$8,$9,$2,$3,0*%
G04 Aperture macros list end*
%ADD10RoundRect,0.102000X0.975000X0.975000X-0.975000X0.975000X-0.975000X-0.975000X0.975000X-0.975000X0*%
%ADD11C,2.154000*%
%ADD12RoundRect,0.250000X0.350000X0.450000X-0.350000X0.450000X-0.350000X-0.450000X0.350000X-0.450000X0*%
%ADD13R,1.422400X0.558800*%
%ADD14RoundRect,0.250000X-0.475000X0.337500X-0.475000X-0.337500X0.475000X-0.337500X0.475000X0.337500X0*%
%ADD15R,1.700000X1.700000*%
%ADD16RoundRect,0.153100X-0.313900X0.553900X-0.313900X-0.553900X0.313900X-0.553900X0.313900X0.553900X0*%
%ADD17RoundRect,0.102000X-1.000000X0.750000X-1.000000X-0.750000X1.000000X-0.750000X1.000000X0.750000X0*%
%ADD18RoundRect,0.102000X-1.000000X1.900000X-1.000000X-1.900000X1.000000X-1.900000X1.000000X1.900000X0*%
%ADD19RoundRect,0.102000X0.500000X0.350000X-0.500000X0.350000X-0.500000X-0.350000X0.500000X-0.350000X0*%
%ADD20RoundRect,0.250000X-0.337500X-0.475000X0.337500X-0.475000X0.337500X0.475000X-0.337500X0.475000X0*%
%ADD21RoundRect,0.250000X-0.350000X-0.450000X0.350000X-0.450000X0.350000X0.450000X-0.350000X0.450000X0*%
%ADD22RoundRect,0.250000X0.337500X0.475000X-0.337500X0.475000X-0.337500X-0.475000X0.337500X-0.475000X0*%
%ADD23RoundRect,0.102000X-0.200000X0.240000X-0.200000X-0.240000X0.200000X-0.240000X0.200000X0.240000X0*%
%ADD24C,1.808000*%
%ADD25RoundRect,0.102000X-0.750000X-0.450000X0.750000X-0.450000X0.750000X0.450000X-0.750000X0.450000X0*%
%ADD26RoundRect,0.102000X-0.450000X-0.750000X0.450000X-0.750000X0.450000X0.750000X-0.450000X0.750000X0*%
%ADD27RoundRect,0.102000X-0.450000X-0.450000X0.450000X-0.450000X0.450000X0.450000X-0.450000X0.450000X0*%
%ADD28RoundRect,0.250000X0.475000X-0.337500X0.475000X0.337500X-0.475000X0.337500X-0.475000X-0.337500X0*%
%ADD29RoundRect,0.250000X0.450000X-0.325000X0.450000X0.325000X-0.450000X0.325000X-0.450000X-0.325000X0*%
%ADD30O,5.204000X2.704000*%
%ADD31O,4.704000X2.454000*%
%ADD32O,2.454000X4.704000*%
%ADD33RoundRect,0.102000X-0.200000X-0.675000X0.200000X-0.675000X0.200000X0.675000X-0.200000X0.675000X0*%
%ADD34RoundRect,0.102000X-0.800000X-0.700000X0.800000X-0.700000X0.800000X0.700000X-0.800000X0.700000X0*%
%ADD35RoundRect,0.102000X-0.950000X-0.950000X0.950000X-0.950000X0.950000X0.950000X-0.950000X0.950000X0*%
%ADD36O,1.104000X2.004000*%
%ADD37RoundRect,0.213600X0.353400X-0.878400X0.353400X0.878400X-0.353400X0.878400X-0.353400X-0.878400X0*%
%ADD38RoundRect,0.894000X0.823000X-0.198000X0.823000X0.198000X-0.823000X0.198000X-0.823000X-0.198000X0*%
%ADD39RoundRect,0.250000X0.450000X-0.350000X0.450000X0.350000X-0.450000X0.350000X-0.450000X-0.350000X0*%
%ADD40C,3.200000*%
%ADD41RoundRect,0.102000X0.135000X-0.495000X0.135000X0.495000X-0.135000X0.495000X-0.135000X-0.495000X0*%
%ADD42RoundRect,0.102000X0.495000X-0.135000X0.495000X0.135000X-0.495000X0.135000X-0.495000X-0.135000X0*%
%ADD43RoundRect,0.102000X1.625000X-1.625000X1.625000X1.625000X-1.625000X1.625000X-1.625000X-1.625000X0*%
%ADD44R,1.320800X0.558800*%
%ADD45RoundRect,0.102000X0.605000X0.365000X-0.605000X0.365000X-0.605000X-0.365000X0.605000X-0.365000X0*%
%ADD46RoundRect,0.102000X0.975000X-0.975000X0.975000X0.975000X-0.975000X0.975000X-0.975000X-0.975000X0*%
%ADD47RoundRect,0.102000X-0.605000X-0.365000X0.605000X-0.365000X0.605000X0.365000X-0.605000X0.365000X0*%
G04 APERTURE END LIST*
D10*
%TO.C,J4*%
X89400000Y-119400000D03*
D11*
X84400000Y-119400000D03*
X79400000Y-119400000D03*
%TD*%
D12*
%TO.C,R7*%
X120950000Y-90300000D03*
X118950000Y-90300000D03*
%TD*%
D13*
%TO.C,U5*%
X122500000Y-102000000D03*
X122500000Y-100095000D03*
X120569600Y-101047500D03*
%TD*%
D14*
%TO.C,C8*%
X129000000Y-91000000D03*
X129000000Y-93075000D03*
%TD*%
D12*
%TO.C,R6*%
X133200000Y-89150000D03*
X131200000Y-89150000D03*
%TD*%
D15*
%TO.C,J25*%
X127000000Y-105000000D03*
%TD*%
D13*
%TO.C,U6*%
X131600000Y-100095000D03*
X131600000Y-102000000D03*
X133530400Y-101047500D03*
%TD*%
D10*
%TO.C,J5*%
X72547500Y-119500000D03*
D11*
X67547500Y-119500000D03*
X62547500Y-119500000D03*
%TD*%
D16*
%TO.C,D11*%
X77450002Y-71480000D03*
X77450002Y-68120000D03*
%TD*%
D17*
%TO.C,U3*%
X102750000Y-122200000D03*
X102750000Y-119900000D03*
X102750000Y-117600000D03*
D18*
X96450000Y-119900000D03*
%TD*%
D12*
%TO.C,R13*%
X115665000Y-63710000D03*
X113665000Y-63710000D03*
%TD*%
D19*
%TO.C,S1*%
X136500000Y-108400000D03*
X132000000Y-108400000D03*
X136500000Y-106250000D03*
X132000000Y-106250000D03*
%TD*%
D20*
%TO.C,C1*%
X110002500Y-74910000D03*
X112077500Y-74910000D03*
%TD*%
D21*
%TO.C,R1*%
X81300000Y-99000000D03*
X83300000Y-99000000D03*
%TD*%
D22*
%TO.C,C10*%
X115665000Y-68110000D03*
X113590000Y-68110000D03*
%TD*%
%TO.C,C2*%
X108240000Y-74910000D03*
X106165000Y-74910000D03*
%TD*%
D23*
%TO.C,D1*%
X138600000Y-116100000D03*
X138600000Y-117420000D03*
%TD*%
D12*
%TO.C,R18*%
X63547500Y-113100000D03*
X61547500Y-113100000D03*
%TD*%
%TO.C,R3*%
X133200000Y-86750000D03*
X131200000Y-86750000D03*
%TD*%
D19*
%TO.C,S2*%
X121800000Y-108400000D03*
X117300000Y-108400000D03*
X121800000Y-106250000D03*
X117300000Y-106250000D03*
%TD*%
D24*
%TO.C,K1*%
X73032651Y-91435000D03*
X71032653Y-85435000D03*
X58832653Y-85435000D03*
X58832653Y-97434998D03*
X71032653Y-97434998D03*
%TD*%
D25*
%TO.C,U1*%
X118250000Y-62140000D03*
X118250000Y-63410000D03*
X118250000Y-64680000D03*
X118250000Y-65950000D03*
X118250000Y-67220000D03*
X118250000Y-68490000D03*
X118250000Y-69760000D03*
X118250000Y-71030000D03*
X118250000Y-72300000D03*
X118250000Y-73570000D03*
X118250000Y-74840000D03*
X118250000Y-76110000D03*
X118250000Y-77380000D03*
X118250000Y-78650000D03*
D26*
X120015000Y-79900000D03*
X121285000Y-79900000D03*
X122555000Y-79900000D03*
X123825000Y-79900000D03*
X125095000Y-79900000D03*
X126365000Y-79900000D03*
X127635000Y-79900000D03*
X128905000Y-79900000D03*
X130175000Y-79900000D03*
X131445000Y-79900000D03*
X132715000Y-79900000D03*
X133985000Y-79900000D03*
D25*
X135750000Y-78650000D03*
X135750000Y-77380000D03*
X135750000Y-76110000D03*
X135750000Y-74840000D03*
X135750000Y-73570000D03*
X135750000Y-72300000D03*
X135750000Y-71030000D03*
X135750000Y-69760000D03*
X135750000Y-68490000D03*
X135750000Y-67220000D03*
X135750000Y-65950000D03*
X135750000Y-64680000D03*
X135750000Y-63410000D03*
X135750000Y-62140000D03*
D27*
X125500000Y-69860000D03*
X124100000Y-69860000D03*
X126900000Y-69860000D03*
X124100000Y-71260000D03*
X125500000Y-71260000D03*
X126900000Y-71260000D03*
X124100000Y-68460000D03*
X125500000Y-68460000D03*
X126900000Y-68460000D03*
%TD*%
D21*
%TO.C,R10*%
X126000000Y-100100000D03*
X128000000Y-100100000D03*
%TD*%
D28*
%TO.C,C4*%
X109265000Y-64147500D03*
X109265000Y-62072500D03*
%TD*%
D29*
%TO.C,D10*%
X80132654Y-94660001D03*
X80132654Y-92610001D03*
%TD*%
D30*
%TO.C,J1*%
X108325000Y-96375000D03*
D31*
X108325000Y-102375000D03*
D32*
X113025000Y-99375000D03*
%TD*%
D12*
%TO.C,R11*%
X118600000Y-97800000D03*
X116600000Y-97800000D03*
%TD*%
D23*
%TO.C,D3*%
X118500000Y-116100000D03*
X118500000Y-117420000D03*
%TD*%
D33*
%TO.C,J2*%
X135700000Y-120725000D03*
X136350000Y-120725000D03*
X137000000Y-120725000D03*
X137650000Y-120725000D03*
X138300000Y-120725000D03*
D34*
X133800000Y-120950000D03*
X140200000Y-120950000D03*
D35*
X138200000Y-123400000D03*
X135800000Y-123400000D03*
D36*
X133700000Y-123400000D03*
X140300000Y-123400000D03*
%TD*%
D37*
%TO.C,U2*%
X106700000Y-72415000D03*
X109000000Y-72415000D03*
X111300000Y-72415000D03*
D38*
X109000000Y-66385000D03*
%TD*%
D23*
%TO.C,D4*%
X116900000Y-116080000D03*
X116900000Y-117400000D03*
%TD*%
D22*
%TO.C,C12*%
X116537500Y-103500000D03*
X114462500Y-103500000D03*
%TD*%
D12*
%TO.C,R9*%
X128000000Y-102100000D03*
X126000000Y-102100000D03*
%TD*%
D28*
%TO.C,C5*%
X111465000Y-64147500D03*
X111465000Y-62072500D03*
%TD*%
D39*
%TO.C,R19*%
X80132654Y-90435001D03*
X80132654Y-88435001D03*
%TD*%
D16*
%TO.C,D9*%
X77732654Y-93115001D03*
X77732654Y-89755001D03*
%TD*%
D12*
%TO.C,R5*%
X133200000Y-94000000D03*
X131200000Y-94000000D03*
%TD*%
D15*
%TO.C,J14*%
X86400000Y-94100000D03*
%TD*%
D12*
%TO.C,R17*%
X81000000Y-113000000D03*
X79000000Y-113000000D03*
%TD*%
D21*
%TO.C,R16*%
X65547500Y-113100000D03*
X67547500Y-113100000D03*
%TD*%
D15*
%TO.C,J8*%
X110200000Y-114400000D03*
%TD*%
D14*
%TO.C,C3*%
X105300000Y-117625000D03*
X105300000Y-119700000D03*
%TD*%
%TO.C,C13*%
X94000000Y-119862500D03*
X94000000Y-121937500D03*
%TD*%
D40*
%TO.C,H4*%
X97000000Y-107600000D03*
%TD*%
D41*
%TO.C,U4*%
X124500000Y-89110000D03*
X125000000Y-89110000D03*
X125500000Y-89110000D03*
X126000000Y-89110000D03*
X126500000Y-89110000D03*
X127000000Y-89110000D03*
X127500000Y-89110000D03*
D42*
X128360000Y-88250000D03*
X128360000Y-87750000D03*
X128360000Y-87250000D03*
X128360000Y-86750000D03*
X128360000Y-86250000D03*
X128360000Y-85750000D03*
X128360000Y-85250000D03*
D41*
X127500000Y-84390000D03*
X127000000Y-84390000D03*
X126500000Y-84390000D03*
X126000000Y-84390000D03*
X125500000Y-84390000D03*
X125000000Y-84390000D03*
X124500000Y-84390000D03*
D42*
X123640000Y-85250000D03*
X123640000Y-85750000D03*
X123640000Y-86250000D03*
X123640000Y-86750000D03*
X123640000Y-87250000D03*
X123640000Y-87750000D03*
X123640000Y-88250000D03*
D43*
X126000000Y-86750000D03*
%TD*%
D33*
%TO.C,J3*%
X115600000Y-120725000D03*
X116250000Y-120725000D03*
X116900000Y-120725000D03*
X117550000Y-120725000D03*
X118200000Y-120725000D03*
D34*
X113700000Y-120950000D03*
X120100000Y-120950000D03*
D35*
X118100000Y-123400000D03*
X115700000Y-123400000D03*
D36*
X113600000Y-123400000D03*
X120200000Y-123400000D03*
%TD*%
D44*
%TO.C,U10*%
X79482002Y-76552500D03*
X79482002Y-74647500D03*
X77450002Y-75600000D03*
%TD*%
D23*
%TO.C,D7*%
X135400000Y-116100000D03*
X135400000Y-117420000D03*
%TD*%
D15*
%TO.C,J11*%
X106400000Y-123200000D03*
%TD*%
D44*
%TO.C,U7*%
X79332654Y-98435001D03*
X79332654Y-96530001D03*
X77300654Y-97482501D03*
%TD*%
D29*
%TO.C,D12*%
X80050002Y-72825000D03*
X80050002Y-70775000D03*
%TD*%
D23*
%TO.C,D2*%
X137000000Y-116100000D03*
X137000000Y-117420000D03*
%TD*%
D12*
%TO.C,R22*%
X83417348Y-75100000D03*
X81417348Y-75100000D03*
%TD*%
D21*
%TO.C,R12*%
X135500000Y-97800000D03*
X137500000Y-97800000D03*
%TD*%
D15*
%TO.C,J24*%
X127100000Y-97100000D03*
%TD*%
D45*
%TO.C,D6*%
X128040000Y-116500000D03*
X131400000Y-116500000D03*
%TD*%
D21*
%TO.C,R15*%
X83000000Y-113000000D03*
X85000000Y-113000000D03*
%TD*%
D39*
%TO.C,R24*%
X80050002Y-68600000D03*
X80050002Y-66600000D03*
%TD*%
D20*
%TO.C,C9*%
X131162500Y-91550000D03*
X133237500Y-91550000D03*
%TD*%
D12*
%TO.C,R8*%
X120950000Y-88200000D03*
X118950000Y-88200000D03*
%TD*%
D21*
%TO.C,R23*%
X81400000Y-77100000D03*
X83400000Y-77100000D03*
%TD*%
D46*
%TO.C,J6*%
X48132654Y-96435001D03*
D11*
X48132654Y-91435001D03*
X48132654Y-86435001D03*
%TD*%
D23*
%TO.C,D8*%
X115300000Y-116080000D03*
X115300000Y-117400000D03*
%TD*%
D46*
%TO.C,J7*%
X48150002Y-74347500D03*
D11*
X48150002Y-69347500D03*
X48150002Y-64347500D03*
%TD*%
D28*
%TO.C,C7*%
X122600000Y-113300000D03*
X122600000Y-111225000D03*
%TD*%
D47*
%TO.C,D5*%
X125960000Y-116500000D03*
X122600000Y-116500000D03*
%TD*%
D24*
%TO.C,K2*%
X72950000Y-69400000D03*
X70950002Y-63400000D03*
X58750002Y-63400000D03*
X58750002Y-75399998D03*
X70950002Y-75399998D03*
%TD*%
D12*
%TO.C,R2*%
X83300000Y-97000000D03*
X81300000Y-97000000D03*
%TD*%
D20*
%TO.C,C11*%
X137462500Y-103500000D03*
X139537500Y-103500000D03*
%TD*%
D40*
%TO.C,H2*%
X49200000Y-117000000D03*
%TD*%
%TO.C,H1*%
X91600000Y-64400000D03*
%TD*%
D15*
%TO.C,J15*%
X86300000Y-72200000D03*
%TD*%
%TO.C,J12*%
X103100000Y-69400000D03*
%TD*%
D40*
%TO.C,H3*%
X112600000Y-90600000D03*
%TD*%
D12*
%TO.C,R4*%
X133200000Y-84350000D03*
X131200000Y-84350000D03*
%TD*%
D21*
%TO.C,R14*%
X113665000Y-65910000D03*
X115665000Y-65910000D03*
%TD*%
D28*
%TO.C,C6*%
X131400000Y-113337500D03*
X131400000Y-111262500D03*
%TD*%
M02*
