%TF.GenerationSoftware,KiCad,Pcbnew,7.0.9*%
%TF.CreationDate,2024-04-07T16:06:58-05:00*%
%TF.ProjectId,Humidifier Subsystem,48756d69-6469-4666-9965-722053756273,rev?*%
%TF.SameCoordinates,Original*%
%TF.FileFunction,Profile,NP*%
%FSLAX46Y46*%
G04 Gerber Fmt 4.6, Leading zero omitted, Abs format (unit mm)*
G04 Created by KiCad (PCBNEW 7.0.9) date 2024-04-07 16:06:58*
%MOMM*%
%LPD*%
G01*
G04 APERTURE LIST*
%TA.AperFunction,Profile*%
%ADD10C,0.100000*%
%TD*%
G04 APERTURE END LIST*
D10*
X63300000Y-95750000D02*
X64000000Y-95050000D01*
X74200000Y-90600000D02*
X74200000Y-90750000D01*
X73300000Y-89700000D02*
X74200000Y-90600000D01*
X73300000Y-87100000D02*
X75200000Y-89050000D01*
X73300000Y-87100000D02*
X63300000Y-87100000D01*
X63300000Y-87100000D02*
X63300000Y-83800000D01*
X63300000Y-83800000D02*
X60800000Y-83800000D01*
X63400000Y-89700000D02*
X73300000Y-89700000D01*
X60800000Y-83800000D02*
X60800000Y-87100000D01*
X60800000Y-87100000D02*
X63400000Y-89700000D01*
X73400000Y-65100000D02*
X63400000Y-65100000D01*
X75300000Y-67000000D02*
X73400000Y-65100000D01*
X73500000Y-67700000D02*
X73400000Y-67700000D01*
X74300000Y-68500000D02*
X73500000Y-67700000D01*
X74300000Y-70200000D02*
X74300000Y-68500000D01*
X60900000Y-61800000D02*
X60900000Y-65100000D01*
X63400000Y-65100000D02*
X63400000Y-61800000D01*
X63400000Y-61800000D02*
X60900000Y-61800000D01*
X63500000Y-67700000D02*
X73400000Y-67700000D01*
X60900000Y-65100000D02*
X63500000Y-67700000D01*
X60800000Y-99050000D02*
X60800000Y-95750000D01*
X75200000Y-94650000D02*
X74800000Y-95050000D01*
X74200000Y-92250000D02*
X74200000Y-90750000D01*
X74800000Y-95050000D02*
X64000000Y-95050000D01*
X73300000Y-93150000D02*
X74200000Y-92250000D01*
X63300000Y-95750000D02*
X63300000Y-99050000D01*
X63300000Y-99050000D02*
X60800000Y-99050000D01*
X63400000Y-93150000D02*
X73300000Y-93150000D01*
X75200000Y-89050000D02*
X75200000Y-94650000D01*
X60800000Y-95750000D02*
X63400000Y-93150000D01*
X60900000Y-73700000D02*
X63500000Y-71100000D01*
X75300000Y-67000000D02*
X75300000Y-72600000D01*
X63500000Y-71100000D02*
X73400000Y-71100000D01*
X64100000Y-73000000D02*
X63400000Y-73700000D01*
X63400000Y-77000000D02*
X60900000Y-77000000D01*
X63400000Y-73700000D02*
X63400000Y-77000000D01*
X73400000Y-71100000D02*
X74300000Y-70200000D01*
X74900000Y-73000000D02*
X64100000Y-73000000D01*
X75300000Y-72600000D02*
X74900000Y-73000000D01*
X60900000Y-77000000D02*
X60900000Y-73700000D01*
X43700000Y-59800000D02*
X143700000Y-59800000D01*
X143700000Y-126000000D01*
X43700000Y-126000000D01*
X43700000Y-59800000D01*
M02*
