%TF.GenerationSoftware,KiCad,Pcbnew,7.0.9*%
%TF.CreationDate,2024-04-07T16:06:57-05:00*%
%TF.ProjectId,Humidifier Subsystem,48756d69-6469-4666-9965-722053756273,rev?*%
%TF.SameCoordinates,Original*%
%TF.FileFunction,Copper,L2,Bot*%
%TF.FilePolarity,Positive*%
%FSLAX46Y46*%
G04 Gerber Fmt 4.6, Leading zero omitted, Abs format (unit mm)*
G04 Created by KiCad (PCBNEW 7.0.9) date 2024-04-07 16:06:57*
%MOMM*%
%LPD*%
G01*
G04 APERTURE LIST*
%TA.AperFunction,ComponentPad*%
%ADD10R,1.950000X1.950000*%
%TD*%
%TA.AperFunction,ComponentPad*%
%ADD11C,1.950000*%
%TD*%
%TA.AperFunction,ComponentPad*%
%ADD12R,1.700000X1.700000*%
%TD*%
%TA.AperFunction,ComponentPad*%
%ADD13C,1.808000*%
%TD*%
%TA.AperFunction,ComponentPad*%
%ADD14O,5.000000X2.500000*%
%TD*%
%TA.AperFunction,ComponentPad*%
%ADD15O,4.500000X2.250000*%
%TD*%
%TA.AperFunction,ComponentPad*%
%ADD16O,2.250000X4.500000*%
%TD*%
%TA.AperFunction,ComponentPad*%
%ADD17O,0.900000X1.800000*%
%TD*%
%TA.AperFunction,ViaPad*%
%ADD18C,0.800000*%
%TD*%
%TA.AperFunction,Conductor*%
%ADD19C,0.700000*%
%TD*%
%TA.AperFunction,Conductor*%
%ADD20C,0.500000*%
%TD*%
%TA.AperFunction,Conductor*%
%ADD21C,0.200000*%
%TD*%
%TA.AperFunction,Conductor*%
%ADD22C,0.250000*%
%TD*%
G04 APERTURE END LIST*
D10*
%TO.P,J4,1,Pin_1*%
%TO.N,+5V*%
X89400000Y-119400000D03*
D11*
%TO.P,J4,2,Pin_2*%
%TO.N,Net-(J4-Pin_2)*%
X84400000Y-119400000D03*
%TO.P,J4,3,Pin_3*%
%TO.N,GND*%
X79400000Y-119400000D03*
%TD*%
D12*
%TO.P,J25,1,Pin_1*%
%TO.N,DTR*%
X127000000Y-105000000D03*
%TD*%
D10*
%TO.P,J5,1,Pin_1*%
%TO.N,+5V*%
X72547500Y-119500000D03*
D11*
%TO.P,J5,2,Pin_2*%
%TO.N,Net-(J5-Pin_2)*%
X67547500Y-119500000D03*
%TO.P,J5,3,Pin_3*%
%TO.N,GND*%
X62547500Y-119500000D03*
%TD*%
D13*
%TO.P,K1,1,1*%
%TO.N,COM_Main*%
X73032651Y-91435000D03*
%TO.P,K1,2,2*%
%TO.N,+3.3V*%
X71032653Y-85435000D03*
%TO.P,K1,3,3*%
%TO.N,Fan_A*%
X58832653Y-85435000D03*
%TO.P,K1,4,4*%
%TO.N,Fan_B*%
X58832653Y-97434998D03*
%TO.P,K1,5,5*%
%TO.N,Net-(D10-K)*%
X71032653Y-97434998D03*
%TD*%
D14*
%TO.P,J1,1*%
%TO.N,+12V*%
X108325000Y-96375000D03*
D15*
%TO.P,J1,2*%
%TO.N,GND*%
X108325000Y-102375000D03*
D16*
%TO.P,J1,3*%
%TO.N,unconnected-(J1-Pad3)*%
X113025000Y-99375000D03*
%TD*%
D17*
%TO.P,J2,S5,SHIELD__4*%
%TO.N,GND*%
X133700000Y-123400000D03*
%TO.P,J2,S6,SHIELD__5*%
X140300000Y-123400000D03*
%TD*%
D12*
%TO.P,J14,1,Pin_1*%
%TO.N,Relay_Signal_ACDC*%
X86400000Y-94100000D03*
%TD*%
%TO.P,J8,1,Pin_1*%
%TO.N,GND*%
X110200000Y-114400000D03*
%TD*%
D17*
%TO.P,J3,S5,SHIELD__4*%
%TO.N,GND*%
X113600000Y-123400000D03*
%TO.P,J3,S6,SHIELD__5*%
X120200000Y-123400000D03*
%TD*%
D12*
%TO.P,J11,1,Pin_1*%
%TO.N,+5V*%
X106400000Y-123200000D03*
%TD*%
%TO.P,J24,1,Pin_1*%
%TO.N,RTS*%
X127100000Y-97100000D03*
%TD*%
D10*
%TO.P,J6,1,1*%
%TO.N,Fan_B*%
X48132654Y-96435001D03*
D11*
%TO.P,J6,2,2*%
%TO.N,COM_Main*%
X48132654Y-91435001D03*
%TO.P,J6,3,3*%
%TO.N,Fan_A*%
X48132654Y-86435001D03*
%TD*%
D10*
%TO.P,J7,1,1*%
%TO.N,Fan_B_DC*%
X48150002Y-74347500D03*
D11*
%TO.P,J7,2,2*%
%TO.N,COM_Main_DC*%
X48150002Y-69347500D03*
%TO.P,J7,3,3*%
%TO.N,Fan_A_DC*%
X48150002Y-64347500D03*
%TD*%
D13*
%TO.P,K2,1,1*%
%TO.N,COM_Main_DC*%
X72950000Y-69400000D03*
%TO.P,K2,2,2*%
%TO.N,+3.3V*%
X70950002Y-63400000D03*
%TO.P,K2,3,3*%
%TO.N,Fan_A_DC*%
X58750002Y-63400000D03*
%TO.P,K2,4,4*%
%TO.N,Fan_B_DC*%
X58750002Y-75399998D03*
%TO.P,K2,5,5*%
%TO.N,Net-(D12-K)*%
X70950002Y-75399998D03*
%TD*%
D12*
%TO.P,J15,1,Pin_1*%
%TO.N,Relay_Signal_DCDC*%
X86300000Y-72200000D03*
%TD*%
%TO.P,J12,1,Pin_1*%
%TO.N,+3.3V*%
X103100000Y-69400000D03*
%TD*%
D18*
%TO.N,+12V*%
X110000000Y-82700000D03*
X105300000Y-115700000D03*
%TO.N,GND*%
X82400000Y-72800000D03*
X82300000Y-94700000D03*
X82300000Y-101600000D03*
X131200000Y-95700000D03*
X124800000Y-92000000D03*
%TO.N,+3.3V*%
X79000000Y-63400000D03*
X127308500Y-91991500D03*
X82100000Y-88400000D03*
X82100000Y-66600000D03*
X79100000Y-85500000D03*
X109000000Y-69400000D03*
X139600000Y-82800000D03*
%TO.N,CHIP_PU*%
X116600000Y-95900000D03*
X115600000Y-70600000D03*
%TO.N,IO0*%
X135800000Y-82800000D03*
X136800000Y-95500000D03*
%TO.N,USB_DP*%
X140000000Y-116800000D03*
X129500000Y-104900000D03*
X129500000Y-96400000D03*
X129500000Y-108700000D03*
%TO.N,USB_DN*%
X136200000Y-112000000D03*
X130300000Y-98600000D03*
X130300000Y-103800000D03*
X134500000Y-110600000D03*
%TO.N,IO20*%
X106850000Y-90050000D03*
X114400000Y-82500000D03*
X109750000Y-87150000D03*
X106200000Y-105700000D03*
X119300000Y-114800000D03*
X102800000Y-104200000D03*
%TO.N,IO19*%
X101700000Y-104800000D03*
X116100000Y-114800000D03*
X106800000Y-87800000D03*
X114400000Y-80300000D03*
X109700000Y-84900000D03*
X106200000Y-109200000D03*
%TO.N,VBUS*%
X113900000Y-116800000D03*
X133200000Y-95700000D03*
X126000000Y-118300000D03*
X128100000Y-114400000D03*
%TO.N,U0RXD*%
X133400000Y-68200000D03*
X118600000Y-82950000D03*
%TO.N,U0TXD*%
X120500000Y-83000000D03*
X125600000Y-77900000D03*
%TO.N,RTS*%
X124500000Y-98700000D03*
X121561747Y-86563654D03*
%TO.N,Relay_Signal_ACDC*%
X85500000Y-97000000D03*
X114200000Y-76400000D03*
%TO.N,Net-(U1-IO35)*%
X86400000Y-111500000D03*
X137300000Y-82700000D03*
%TO.N,Net-(U1-IO36)*%
X138400000Y-82700000D03*
X68900000Y-111500000D03*
%TO.N,Relay_Signal_DCDC*%
X114200000Y-74800000D03*
X85800000Y-75100000D03*
%TD*%
D19*
%TO.N,+12V*%
X104300000Y-100400000D02*
X104300000Y-114700000D01*
X110000000Y-82700000D02*
X108325000Y-84375000D01*
X104300000Y-114700000D02*
X105300000Y-115700000D01*
X108325000Y-96375000D02*
X104300000Y-100400000D01*
X108325000Y-84375000D02*
X108325000Y-96375000D01*
D20*
%TO.N,GND*%
X82300000Y-94700000D02*
X82300000Y-101600000D01*
X82950000Y-73350000D02*
X82400000Y-72800000D01*
X131200000Y-95700000D02*
X130847918Y-95347918D01*
X82300000Y-94700000D02*
X82950000Y-94050000D01*
X128147918Y-95347918D02*
X124800000Y-92000000D01*
X130847918Y-95347918D02*
X128147918Y-95347918D01*
X82950000Y-94050000D02*
X82950000Y-73350000D01*
D19*
%TO.N,+3.3V*%
X109000000Y-69400000D02*
X103100000Y-69400000D01*
D20*
%TO.N,CHIP_PU*%
X116600000Y-95900000D02*
X116600000Y-86400000D01*
X115600000Y-85400000D02*
X115600000Y-70600000D01*
X116600000Y-86400000D02*
X115600000Y-85400000D01*
%TO.N,IO0*%
X135550000Y-92850000D02*
X135850000Y-92850000D01*
X135850000Y-93550000D02*
X135550000Y-93550000D01*
X136200000Y-94900000D02*
X136200000Y-93900000D01*
X136200000Y-84100000D02*
X136200000Y-83350000D01*
X135850000Y-92150000D02*
X135550000Y-92150000D01*
X135550000Y-91450000D02*
X135850000Y-91450000D01*
X135550000Y-88650000D02*
X135850000Y-88650000D01*
X135550000Y-84450000D02*
X135850000Y-84450000D01*
X135850000Y-89350000D02*
X135550000Y-89350000D01*
X136200000Y-83200000D02*
X135800000Y-82800000D01*
X135850000Y-85150000D02*
X135550000Y-85150000D01*
X136200000Y-83350000D02*
X136200000Y-83200000D01*
X135850000Y-90750000D02*
X135550000Y-90750000D01*
X135850000Y-86550000D02*
X135550000Y-86550000D01*
X135850000Y-87950000D02*
X135550000Y-87950000D01*
X135550000Y-90050000D02*
X135850000Y-90050000D01*
X136800000Y-95500000D02*
X136200000Y-94900000D01*
X135550000Y-85850000D02*
X135850000Y-85850000D01*
X135550000Y-87250000D02*
X135850000Y-87250000D01*
X135200000Y-91800000D02*
G75*
G03*
X135550000Y-92150000I350000J0D01*
G01*
X135550000Y-84450000D02*
G75*
G03*
X135200000Y-84800000I0J-350000D01*
G01*
X135850000Y-85850000D02*
G75*
G03*
X136200000Y-85500000I0J350000D01*
G01*
X135550000Y-92850000D02*
G75*
G03*
X135200000Y-93200000I0J-350000D01*
G01*
X135200000Y-90400000D02*
G75*
G03*
X135550000Y-90750000I350000J0D01*
G01*
X135200000Y-89000000D02*
G75*
G03*
X135550000Y-89350000I350000J0D01*
G01*
X135850000Y-91450000D02*
G75*
G03*
X136200000Y-91100000I0J350000D01*
G01*
X136200000Y-89700000D02*
G75*
G03*
X135850000Y-89350000I-350000J0D01*
G01*
X135200000Y-84800000D02*
G75*
G03*
X135550000Y-85150000I350000J0D01*
G01*
X135550000Y-91450000D02*
G75*
G03*
X135200000Y-91800000I0J-350000D01*
G01*
X136200000Y-88300000D02*
G75*
G03*
X135850000Y-87950000I-350000J0D01*
G01*
X135200000Y-87600000D02*
G75*
G03*
X135550000Y-87950000I350000J0D01*
G01*
X135200000Y-93200000D02*
G75*
G03*
X135550000Y-93550000I350000J0D01*
G01*
X136200000Y-93900000D02*
G75*
G03*
X135850000Y-93550000I-350000J0D01*
G01*
X135850000Y-90050000D02*
G75*
G03*
X136200000Y-89700000I0J350000D01*
G01*
X135550000Y-88650000D02*
G75*
G03*
X135200000Y-89000000I0J-350000D01*
G01*
X135850000Y-87250000D02*
G75*
G03*
X136200000Y-86900000I0J350000D01*
G01*
X135550000Y-90050000D02*
G75*
G03*
X135200000Y-90400000I0J-350000D01*
G01*
X135550000Y-85850000D02*
G75*
G03*
X135200000Y-86200000I0J-350000D01*
G01*
X135550000Y-87250000D02*
G75*
G03*
X135200000Y-87600000I0J-350000D01*
G01*
X136200000Y-91100000D02*
G75*
G03*
X135850000Y-90750000I-350000J0D01*
G01*
X135850000Y-92850000D02*
G75*
G03*
X136200000Y-92500000I0J350000D01*
G01*
X135200000Y-86200000D02*
G75*
G03*
X135550000Y-86550000I350000J0D01*
G01*
X135850000Y-84450000D02*
G75*
G03*
X136200000Y-84100000I0J350000D01*
G01*
X135850000Y-88650000D02*
G75*
G03*
X136200000Y-88300000I0J350000D01*
G01*
X136200000Y-86900000D02*
G75*
G03*
X135850000Y-86550000I-350000J0D01*
G01*
X136200000Y-92500000D02*
G75*
G03*
X135850000Y-92150000I-350000J0D01*
G01*
X136200000Y-85500000D02*
G75*
G03*
X135850000Y-85150000I-350000J0D01*
G01*
D21*
%TO.N,USB_DP*%
X136800000Y-112800000D02*
X136500000Y-112800000D01*
X140000000Y-116000000D02*
X140000000Y-116800000D01*
X137800000Y-113800000D02*
X140000000Y-116000000D01*
X137800000Y-113800000D02*
X136800000Y-112800000D01*
X129500000Y-96400000D02*
X129500000Y-104900000D01*
X129500000Y-108700000D02*
X133600000Y-112800000D01*
X133600000Y-112800000D02*
X136500000Y-112800000D01*
%TO.N,USB_DN*%
X130300000Y-98600000D02*
X130300000Y-103800000D01*
X134500000Y-110600000D02*
X134800000Y-110600000D01*
X134800000Y-110600000D02*
X136200000Y-112000000D01*
D22*
%TO.N,IO20*%
X102800000Y-94100000D02*
X106850000Y-90050000D01*
X119300000Y-114800000D02*
X110200000Y-105700000D01*
X109750000Y-87150000D02*
X114400000Y-82500000D01*
X102800000Y-104200000D02*
X102800000Y-94100000D01*
X110200000Y-105700000D02*
X106200000Y-105700000D01*
%TO.N,IO19*%
X113100000Y-111800000D02*
X116100000Y-114800000D01*
X107000000Y-109200000D02*
X109600000Y-111800000D01*
X109600000Y-111800000D02*
X113100000Y-111800000D01*
X106800000Y-87830000D02*
X101700000Y-92930000D01*
X106200000Y-109200000D02*
X107000000Y-109200000D01*
X101700000Y-92930000D02*
X101700000Y-104800000D01*
X114330000Y-80300000D02*
X109730000Y-84900000D01*
D20*
%TO.N,VBUS*%
X133200000Y-103200000D02*
X128100000Y-108300000D01*
D22*
X119700000Y-116100000D02*
X121900000Y-118300000D01*
X114600000Y-116100000D02*
X119700000Y-116100000D01*
X121900000Y-118300000D02*
X126000000Y-118300000D01*
X113900000Y-116800000D02*
X114600000Y-116100000D01*
D20*
X133200000Y-95700000D02*
X133200000Y-103200000D01*
X128100000Y-108300000D02*
X128100000Y-114400000D01*
%TO.N,U0RXD*%
X118600000Y-82950000D02*
X118650000Y-82950000D01*
X118650000Y-82950000D02*
X133400000Y-68200000D01*
%TO.N,U0TXD*%
X120500000Y-83000000D02*
X125600000Y-77900000D01*
D22*
%TO.N,RTS*%
X121561747Y-93961747D02*
X121561747Y-95761747D01*
X127100000Y-97100000D02*
X126100000Y-97100000D01*
X121561747Y-86563654D02*
X121561747Y-93961747D01*
X121561747Y-95761747D02*
X124500000Y-98700000D01*
X126100000Y-97100000D02*
X124500000Y-98700000D01*
D20*
%TO.N,Relay_Signal_ACDC*%
X93600000Y-97000000D02*
X85500000Y-97000000D01*
X114200000Y-76400000D02*
X93600000Y-97000000D01*
%TO.N,Net-(U1-IO35)*%
X139200000Y-95500000D02*
X141000000Y-97300000D01*
X92700000Y-111500000D02*
X86400000Y-111500000D01*
X141000000Y-117002082D02*
X138602082Y-119400000D01*
X141000000Y-97300000D02*
X141000000Y-116800000D01*
X137300000Y-93600000D02*
X139200000Y-95500000D01*
X141000000Y-116800000D02*
X141000000Y-117002082D01*
X138602082Y-119400000D02*
X100600000Y-119400000D01*
X100600000Y-119400000D02*
X92700000Y-111500000D01*
X137300000Y-82700000D02*
X137300000Y-93600000D01*
%TO.N,Net-(U1-IO36)*%
X142200000Y-117400000D02*
X138300000Y-121300000D01*
X69000000Y-111500000D02*
X68900000Y-111500000D01*
X138400000Y-82700000D02*
X138400000Y-93100000D01*
X78800000Y-121300000D02*
X69000000Y-111500000D01*
X142200000Y-96900000D02*
X142200000Y-117400000D01*
X138300000Y-121300000D02*
X78800000Y-121300000D01*
X138400000Y-93100000D02*
X142200000Y-96900000D01*
%TO.N,Relay_Signal_DCDC*%
X87400000Y-76700000D02*
X85800000Y-75100000D01*
X112300000Y-76700000D02*
X95600000Y-76700000D01*
X114200000Y-74800000D02*
X112300000Y-76700000D01*
X95600000Y-76700000D02*
X87400000Y-76700000D01*
%TD*%
%TA.AperFunction,Conductor*%
%TO.N,+3.3V*%
G36*
X143075989Y-60999626D02*
G01*
X143142968Y-61019512D01*
X143188564Y-61072454D01*
X143199614Y-61124010D01*
X143089834Y-96473360D01*
X143069942Y-96540338D01*
X143016996Y-96585929D01*
X142947807Y-96595657D01*
X142884342Y-96566435D01*
X142862236Y-96541116D01*
X142833028Y-96496708D01*
X142792712Y-96431345D01*
X142792711Y-96431344D01*
X142792710Y-96431342D01*
X142788234Y-96425682D01*
X142788281Y-96425644D01*
X142783519Y-96419799D01*
X142783474Y-96419838D01*
X142778834Y-96414308D01*
X142722964Y-96361596D01*
X139186819Y-92825451D01*
X139153334Y-92764128D01*
X139150500Y-92737770D01*
X139150500Y-83234321D01*
X139167113Y-83172321D01*
X139180811Y-83148595D01*
X139227179Y-83068284D01*
X139285674Y-82888256D01*
X139305460Y-82700000D01*
X139285674Y-82511744D01*
X139227179Y-82331716D01*
X139132533Y-82167784D01*
X139005871Y-82027112D01*
X138990369Y-82015849D01*
X138852734Y-81915851D01*
X138852729Y-81915848D01*
X138679807Y-81838857D01*
X138679802Y-81838855D01*
X138526059Y-81806177D01*
X138494646Y-81799500D01*
X138305354Y-81799500D01*
X138273941Y-81806177D01*
X138120197Y-81838855D01*
X138120192Y-81838857D01*
X137947270Y-81915848D01*
X137947265Y-81915851D01*
X137922885Y-81933565D01*
X137857079Y-81957045D01*
X137789025Y-81941219D01*
X137777115Y-81933565D01*
X137752734Y-81915851D01*
X137752729Y-81915848D01*
X137579807Y-81838857D01*
X137579802Y-81838855D01*
X137426059Y-81806177D01*
X137394646Y-81799500D01*
X137205354Y-81799500D01*
X137173941Y-81806177D01*
X137020197Y-81838855D01*
X137020192Y-81838857D01*
X136847270Y-81915848D01*
X136847265Y-81915851D01*
X136694129Y-82027111D01*
X136694128Y-82027112D01*
X136597128Y-82134841D01*
X136537642Y-82171489D01*
X136467785Y-82170158D01*
X136412828Y-82134839D01*
X136405869Y-82127110D01*
X136405864Y-82127106D01*
X136252734Y-82015851D01*
X136252729Y-82015848D01*
X136079807Y-81938857D01*
X136079802Y-81938855D01*
X135934001Y-81907865D01*
X135894646Y-81899500D01*
X135705354Y-81899500D01*
X135672897Y-81906398D01*
X135520197Y-81938855D01*
X135520192Y-81938857D01*
X135347270Y-82015848D01*
X135347265Y-82015851D01*
X135194129Y-82127111D01*
X135067466Y-82267785D01*
X134972821Y-82431715D01*
X134972818Y-82431722D01*
X134914327Y-82611740D01*
X134914326Y-82611744D01*
X134894540Y-82800000D01*
X134914326Y-82988256D01*
X134914327Y-82988259D01*
X134972818Y-83168277D01*
X134972821Y-83168284D01*
X135067467Y-83332216D01*
X135194129Y-83472888D01*
X135267270Y-83526028D01*
X135309936Y-83581358D01*
X135315915Y-83650971D01*
X135283309Y-83712766D01*
X135236796Y-83742868D01*
X135083134Y-83798797D01*
X135083127Y-83798800D01*
X134916369Y-83895078D01*
X134916366Y-83895080D01*
X134768855Y-84018855D01*
X134645080Y-84166366D01*
X134645078Y-84166369D01*
X134548800Y-84333127D01*
X134548797Y-84333134D01*
X134482937Y-84514082D01*
X134449500Y-84703716D01*
X134449500Y-84896283D01*
X134482937Y-85085917D01*
X134548797Y-85266865D01*
X134548800Y-85266872D01*
X134574990Y-85312234D01*
X134644261Y-85432216D01*
X134647601Y-85438000D01*
X134664074Y-85505900D01*
X134647601Y-85562000D01*
X134645079Y-85566367D01*
X134645079Y-85566368D01*
X134634102Y-85585379D01*
X134548800Y-85733127D01*
X134548797Y-85733134D01*
X134482937Y-85914082D01*
X134449500Y-86103716D01*
X134449500Y-86296283D01*
X134482937Y-86485917D01*
X134548797Y-86666865D01*
X134548800Y-86666872D01*
X134647601Y-86838000D01*
X134664074Y-86905900D01*
X134647601Y-86962000D01*
X134548800Y-87133127D01*
X134548797Y-87133134D01*
X134482937Y-87314082D01*
X134449500Y-87503716D01*
X134449500Y-87696283D01*
X134482937Y-87885917D01*
X134548797Y-88066865D01*
X134548800Y-88066872D01*
X134647601Y-88238000D01*
X134664074Y-88305900D01*
X134647601Y-88362000D01*
X134548800Y-88533127D01*
X134548797Y-88533134D01*
X134482937Y-88714082D01*
X134449500Y-88903716D01*
X134449500Y-89096283D01*
X134482937Y-89285917D01*
X134548797Y-89466865D01*
X134548800Y-89466872D01*
X134647601Y-89638000D01*
X134664074Y-89705900D01*
X134647601Y-89762000D01*
X134548800Y-89933127D01*
X134548797Y-89933134D01*
X134482937Y-90114082D01*
X134449500Y-90303716D01*
X134449500Y-90496283D01*
X134482937Y-90685917D01*
X134548797Y-90866865D01*
X134548800Y-90866872D01*
X134647601Y-91038000D01*
X134664074Y-91105900D01*
X134647601Y-91162000D01*
X134548800Y-91333127D01*
X134548797Y-91333134D01*
X134482937Y-91514082D01*
X134449500Y-91703716D01*
X134449500Y-91896283D01*
X134482937Y-92085917D01*
X134548797Y-92266865D01*
X134548800Y-92266872D01*
X134647601Y-92438000D01*
X134664074Y-92505900D01*
X134647601Y-92562000D01*
X134645079Y-92566367D01*
X134645079Y-92566368D01*
X134634102Y-92585379D01*
X134548800Y-92733127D01*
X134548797Y-92733134D01*
X134482937Y-92914082D01*
X134449500Y-93103716D01*
X134449500Y-93296283D01*
X134482937Y-93485917D01*
X134548797Y-93666865D01*
X134548800Y-93666872D01*
X134599571Y-93754809D01*
X134645079Y-93833632D01*
X134649463Y-93838857D01*
X134768855Y-93981144D01*
X134837904Y-94039082D01*
X134916368Y-94104921D01*
X135083132Y-94201202D01*
X135264082Y-94267062D01*
X135347032Y-94281688D01*
X135409635Y-94312714D01*
X135445525Y-94372661D01*
X135449500Y-94403804D01*
X135449500Y-94836294D01*
X135448191Y-94854263D01*
X135444710Y-94878025D01*
X135449264Y-94930064D01*
X135449500Y-94935470D01*
X135449500Y-94943709D01*
X135453306Y-94976274D01*
X135460000Y-95052791D01*
X135461461Y-95059867D01*
X135461403Y-95059878D01*
X135463034Y-95067237D01*
X135463092Y-95067224D01*
X135464757Y-95074250D01*
X135491025Y-95146424D01*
X135515185Y-95219331D01*
X135518236Y-95225874D01*
X135518182Y-95225898D01*
X135521470Y-95232688D01*
X135521521Y-95232663D01*
X135524761Y-95239113D01*
X135524762Y-95239114D01*
X135524763Y-95239117D01*
X135561826Y-95295469D01*
X135566965Y-95303283D01*
X135607287Y-95368655D01*
X135611766Y-95374319D01*
X135611719Y-95374356D01*
X135616482Y-95380202D01*
X135616528Y-95380164D01*
X135621173Y-95385700D01*
X135677019Y-95438387D01*
X135887228Y-95648596D01*
X135917478Y-95697958D01*
X135972819Y-95868280D01*
X135972821Y-95868284D01*
X136067467Y-96032216D01*
X136171870Y-96148167D01*
X136194129Y-96172888D01*
X136347265Y-96284148D01*
X136347270Y-96284151D01*
X136520192Y-96361142D01*
X136520197Y-96361144D01*
X136705354Y-96400500D01*
X136705355Y-96400500D01*
X136894644Y-96400500D01*
X136894646Y-96400500D01*
X137079803Y-96361144D01*
X137252730Y-96284151D01*
X137405871Y-96172888D01*
X137532533Y-96032216D01*
X137627179Y-95868284D01*
X137685674Y-95688256D01*
X137705460Y-95500000D01*
X137691186Y-95364195D01*
X137703755Y-95295469D01*
X137751487Y-95244445D01*
X137819227Y-95227327D01*
X137885469Y-95249549D01*
X137902188Y-95263556D01*
X138607288Y-95968656D01*
X139422617Y-96783985D01*
X140213181Y-97574548D01*
X140246666Y-97635871D01*
X140249500Y-97662229D01*
X140249500Y-115100903D01*
X140229815Y-115167942D01*
X140177011Y-115213697D01*
X140107853Y-115223641D01*
X140044297Y-115194616D01*
X140037819Y-115188584D01*
X137255328Y-112406093D01*
X137249974Y-112399988D01*
X137228284Y-112371720D01*
X137228282Y-112371719D01*
X137228282Y-112371718D01*
X137133566Y-112299040D01*
X137092363Y-112242612D01*
X137085731Y-112187707D01*
X137105460Y-112000000D01*
X137085674Y-111811744D01*
X137027179Y-111631716D01*
X136932533Y-111467784D01*
X136805871Y-111327112D01*
X136805870Y-111327111D01*
X136652734Y-111215851D01*
X136652729Y-111215848D01*
X136479807Y-111138857D01*
X136479802Y-111138855D01*
X136334001Y-111107865D01*
X136294646Y-111099500D01*
X136294645Y-111099500D01*
X136200097Y-111099500D01*
X136133058Y-111079815D01*
X136112416Y-111063181D01*
X135370478Y-110321243D01*
X135340229Y-110271881D01*
X135327179Y-110231716D01*
X135327178Y-110231714D01*
X135327177Y-110231711D01*
X135232534Y-110067785D01*
X135105870Y-109927111D01*
X134952734Y-109815851D01*
X134952729Y-109815848D01*
X134779807Y-109738857D01*
X134779802Y-109738855D01*
X134634001Y-109707865D01*
X134594646Y-109699500D01*
X134405354Y-109699500D01*
X134372897Y-109706398D01*
X134220197Y-109738855D01*
X134220192Y-109738857D01*
X134047270Y-109815848D01*
X134047265Y-109815851D01*
X133894129Y-109927111D01*
X133767466Y-110067785D01*
X133672821Y-110231715D01*
X133672818Y-110231722D01*
X133614327Y-110411740D01*
X133614326Y-110411744D01*
X133594540Y-110600000D01*
X133614326Y-110788256D01*
X133614327Y-110788259D01*
X133672818Y-110968277D01*
X133672821Y-110968284D01*
X133767467Y-111132216D01*
X133842770Y-111215848D01*
X133894129Y-111272888D01*
X134047265Y-111384148D01*
X134047270Y-111384151D01*
X134220192Y-111461142D01*
X134220197Y-111461144D01*
X134405354Y-111500500D01*
X134405355Y-111500500D01*
X134594644Y-111500500D01*
X134594646Y-111500500D01*
X134740428Y-111469513D01*
X134810092Y-111474829D01*
X134853887Y-111503122D01*
X135258221Y-111907456D01*
X135291706Y-111968779D01*
X135294540Y-111995137D01*
X135294540Y-111999998D01*
X135301113Y-112062539D01*
X135288543Y-112131269D01*
X135240811Y-112182292D01*
X135177792Y-112199500D01*
X133900097Y-112199500D01*
X133833058Y-112179815D01*
X133812416Y-112163181D01*
X130441779Y-108792544D01*
X130408294Y-108731221D01*
X130405460Y-108704863D01*
X130405460Y-108700002D01*
X130403388Y-108680288D01*
X130385674Y-108511744D01*
X130327179Y-108331716D01*
X130232533Y-108167784D01*
X130105871Y-108027112D01*
X130105870Y-108027111D01*
X129952734Y-107915851D01*
X129952732Y-107915850D01*
X129835788Y-107863782D01*
X129782552Y-107818531D01*
X129762231Y-107751682D01*
X129781277Y-107684458D01*
X129798540Y-107662826D01*
X133685638Y-103775727D01*
X133699267Y-103763950D01*
X133718530Y-103749610D01*
X133718532Y-103749606D01*
X133718534Y-103749606D01*
X133736663Y-103727999D01*
X133752113Y-103709585D01*
X133755767Y-103705599D01*
X133761589Y-103699778D01*
X133766060Y-103694124D01*
X133781927Y-103674055D01*
X133831302Y-103615214D01*
X133831304Y-103615209D01*
X133835272Y-103609179D01*
X133835323Y-103609212D01*
X133839369Y-103602860D01*
X133839317Y-103602828D01*
X133843109Y-103596679D01*
X133843111Y-103596677D01*
X133875569Y-103527069D01*
X133910040Y-103458433D01*
X133910043Y-103458417D01*
X133912510Y-103451644D01*
X133912568Y-103451665D01*
X133915043Y-103444546D01*
X133914985Y-103444527D01*
X133917256Y-103437672D01*
X133932784Y-103362467D01*
X133939673Y-103333401D01*
X133950500Y-103287721D01*
X133950500Y-103287720D01*
X133951339Y-103280548D01*
X133951397Y-103280554D01*
X133952164Y-103273056D01*
X133952104Y-103273051D01*
X133952733Y-103265860D01*
X133950500Y-103189103D01*
X133950500Y-96234321D01*
X133967113Y-96172321D01*
X133981056Y-96148171D01*
X134027179Y-96068284D01*
X134085674Y-95888256D01*
X134105460Y-95700000D01*
X134085674Y-95511744D01*
X134027179Y-95331716D01*
X133932533Y-95167784D01*
X133805871Y-95027112D01*
X133765641Y-94997883D01*
X133652734Y-94915851D01*
X133652729Y-94915848D01*
X133479807Y-94838857D01*
X133479802Y-94838855D01*
X133334001Y-94807865D01*
X133294646Y-94799500D01*
X133105354Y-94799500D01*
X133072897Y-94806398D01*
X132920197Y-94838855D01*
X132920192Y-94838857D01*
X132747270Y-94915848D01*
X132747265Y-94915851D01*
X132594129Y-95027111D01*
X132467466Y-95167785D01*
X132372821Y-95331715D01*
X132372818Y-95331722D01*
X132317931Y-95500648D01*
X132278493Y-95558324D01*
X132214135Y-95585522D01*
X132145288Y-95573607D01*
X132093813Y-95526363D01*
X132082069Y-95500648D01*
X132027181Y-95331722D01*
X132027180Y-95331721D01*
X132027179Y-95331716D01*
X131932533Y-95167784D01*
X131805871Y-95027112D01*
X131765641Y-94997883D01*
X131652734Y-94915851D01*
X131652729Y-94915848D01*
X131479807Y-94838857D01*
X131479802Y-94838855D01*
X131414970Y-94825075D01*
X131361062Y-94798789D01*
X131359825Y-94797751D01*
X131357510Y-94795809D01*
X131353518Y-94792150D01*
X131347699Y-94786331D01*
X131347695Y-94786327D01*
X131321958Y-94765977D01*
X131263132Y-94716616D01*
X131263131Y-94716615D01*
X131263127Y-94716612D01*
X131257098Y-94712647D01*
X131257130Y-94712598D01*
X131250771Y-94708546D01*
X131250740Y-94708597D01*
X131244598Y-94704809D01*
X131244596Y-94704808D01*
X131244595Y-94704807D01*
X131205392Y-94686526D01*
X131174976Y-94672342D01*
X131131332Y-94650424D01*
X131106351Y-94637878D01*
X131106349Y-94637877D01*
X131106348Y-94637877D01*
X131099563Y-94635407D01*
X131099583Y-94635351D01*
X131092467Y-94632877D01*
X131092449Y-94632933D01*
X131085589Y-94630660D01*
X131055754Y-94624500D01*
X131010352Y-94615125D01*
X130961390Y-94603521D01*
X130935637Y-94597417D01*
X130928465Y-94596579D01*
X130928471Y-94596519D01*
X130920973Y-94595753D01*
X130920968Y-94595813D01*
X130913778Y-94595183D01*
X130837001Y-94597418D01*
X128510148Y-94597418D01*
X128443109Y-94577733D01*
X128422467Y-94561099D01*
X125712770Y-91851402D01*
X125682521Y-91802041D01*
X125647738Y-91694992D01*
X125627181Y-91631721D01*
X125627178Y-91631715D01*
X125532533Y-91467784D01*
X125405871Y-91327112D01*
X125403914Y-91325690D01*
X125252734Y-91215851D01*
X125252729Y-91215848D01*
X125079807Y-91138857D01*
X125079802Y-91138855D01*
X124924756Y-91105900D01*
X124894646Y-91099500D01*
X124705354Y-91099500D01*
X124675244Y-91105900D01*
X124520197Y-91138855D01*
X124520192Y-91138857D01*
X124347270Y-91215848D01*
X124347265Y-91215851D01*
X124194129Y-91327111D01*
X124067466Y-91467785D01*
X123972821Y-91631715D01*
X123972818Y-91631722D01*
X123918142Y-91800000D01*
X123914326Y-91811744D01*
X123894540Y-92000000D01*
X123914326Y-92188256D01*
X123914327Y-92188259D01*
X123972818Y-92368277D01*
X123972821Y-92368284D01*
X124067467Y-92532216D01*
X124177585Y-92654514D01*
X124194129Y-92672888D01*
X124347265Y-92784148D01*
X124347270Y-92784151D01*
X124520191Y-92861142D01*
X124520193Y-92861142D01*
X124520197Y-92861144D01*
X124585329Y-92874987D01*
X124646809Y-92908178D01*
X124647228Y-92908596D01*
X127276451Y-95537819D01*
X127309936Y-95599142D01*
X127304952Y-95668834D01*
X127263080Y-95724767D01*
X127197616Y-95749184D01*
X127188770Y-95749500D01*
X126202129Y-95749500D01*
X126202123Y-95749501D01*
X126142516Y-95755908D01*
X126007671Y-95806202D01*
X126007664Y-95806206D01*
X125892455Y-95892452D01*
X125892452Y-95892455D01*
X125806206Y-96007664D01*
X125806202Y-96007671D01*
X125755908Y-96142517D01*
X125749501Y-96202116D01*
X125749500Y-96202135D01*
X125749500Y-96514547D01*
X125729815Y-96581586D01*
X125713178Y-96602231D01*
X125699412Y-96615996D01*
X125684625Y-96628626D01*
X125668413Y-96640405D01*
X125668411Y-96640407D01*
X125638710Y-96676309D01*
X125634777Y-96680631D01*
X124587681Y-97727728D01*
X124526358Y-97761213D01*
X124456666Y-97756229D01*
X124412319Y-97727728D01*
X122223566Y-95538975D01*
X122190081Y-95477652D01*
X122187247Y-95451294D01*
X122187247Y-87262341D01*
X122206932Y-87195302D01*
X122219097Y-87179369D01*
X122237638Y-87158776D01*
X122294280Y-87095870D01*
X122388926Y-86931938D01*
X122447421Y-86751910D01*
X122467207Y-86563654D01*
X122447421Y-86375398D01*
X122388926Y-86195370D01*
X122294280Y-86031438D01*
X122167618Y-85890766D01*
X122167617Y-85890765D01*
X122014481Y-85779505D01*
X122014476Y-85779502D01*
X121841554Y-85702511D01*
X121841549Y-85702509D01*
X121674322Y-85666965D01*
X121656393Y-85663154D01*
X121467101Y-85663154D01*
X121449172Y-85666965D01*
X121281944Y-85702509D01*
X121281939Y-85702511D01*
X121109017Y-85779502D01*
X121109012Y-85779505D01*
X120955876Y-85890765D01*
X120829213Y-86031439D01*
X120734568Y-86195369D01*
X120734565Y-86195376D01*
X120678725Y-86367235D01*
X120676073Y-86375398D01*
X120656287Y-86563654D01*
X120676073Y-86751910D01*
X120676074Y-86751913D01*
X120734565Y-86931931D01*
X120734568Y-86931938D01*
X120829214Y-87095870D01*
X120857344Y-87127111D01*
X120904397Y-87179369D01*
X120934627Y-87242360D01*
X120936247Y-87262341D01*
X120936247Y-95679002D01*
X120934522Y-95694619D01*
X120934808Y-95694646D01*
X120934073Y-95702412D01*
X120936247Y-95771561D01*
X120936247Y-95801090D01*
X120936248Y-95801107D01*
X120937115Y-95807978D01*
X120937573Y-95813797D01*
X120939037Y-95860371D01*
X120939038Y-95860374D01*
X120944627Y-95879614D01*
X120948571Y-95898658D01*
X120951083Y-95918538D01*
X120968237Y-95961866D01*
X120970129Y-95967394D01*
X120983128Y-96012135D01*
X120993327Y-96029381D01*
X121001885Y-96046850D01*
X121009261Y-96065479D01*
X121036645Y-96103170D01*
X121039853Y-96108054D01*
X121063574Y-96148163D01*
X121063580Y-96148171D01*
X121077737Y-96162327D01*
X121090375Y-96177123D01*
X121102152Y-96193333D01*
X121102153Y-96193334D01*
X121138056Y-96223035D01*
X121142367Y-96226957D01*
X122967826Y-98052417D01*
X123561038Y-98645629D01*
X123594523Y-98706952D01*
X123596678Y-98720348D01*
X123603816Y-98788256D01*
X123614326Y-98888256D01*
X123614327Y-98888259D01*
X123672818Y-99068277D01*
X123672821Y-99068284D01*
X123767467Y-99232216D01*
X123807602Y-99276790D01*
X123894129Y-99372888D01*
X124047265Y-99484148D01*
X124047270Y-99484151D01*
X124220192Y-99561142D01*
X124220197Y-99561144D01*
X124405354Y-99600500D01*
X124405355Y-99600500D01*
X124594644Y-99600500D01*
X124594646Y-99600500D01*
X124779803Y-99561144D01*
X124952730Y-99484151D01*
X125105871Y-99372888D01*
X125232533Y-99232216D01*
X125327179Y-99068284D01*
X125385674Y-98888256D01*
X125403321Y-98720345D01*
X125429905Y-98655732D01*
X125438952Y-98645636D01*
X125750477Y-98334111D01*
X125811798Y-98300628D01*
X125881490Y-98305612D01*
X125912467Y-98322528D01*
X126007664Y-98393793D01*
X126007671Y-98393797D01*
X126142517Y-98444091D01*
X126142516Y-98444091D01*
X126149444Y-98444835D01*
X126202127Y-98450500D01*
X127997872Y-98450499D01*
X128057483Y-98444091D01*
X128192331Y-98393796D01*
X128307546Y-98307546D01*
X128393796Y-98192331D01*
X128444091Y-98057483D01*
X128450500Y-97997873D01*
X128450499Y-96845983D01*
X128470184Y-96778946D01*
X128522987Y-96733191D01*
X128592146Y-96723247D01*
X128655702Y-96752272D01*
X128681885Y-96783984D01*
X128767467Y-96932216D01*
X128867650Y-97043480D01*
X128897880Y-97106471D01*
X128899500Y-97126452D01*
X128899500Y-104173547D01*
X128879815Y-104240586D01*
X128867650Y-104256519D01*
X128767466Y-104367785D01*
X128672821Y-104531715D01*
X128672818Y-104531722D01*
X128630767Y-104661144D01*
X128614326Y-104711744D01*
X128600966Y-104838856D01*
X128597820Y-104868792D01*
X128585979Y-104897569D01*
X128593476Y-104909234D01*
X128597819Y-104931205D01*
X128614326Y-105088256D01*
X128614327Y-105088259D01*
X128672818Y-105268277D01*
X128672821Y-105268284D01*
X128767467Y-105432216D01*
X128839075Y-105511744D01*
X128894129Y-105572888D01*
X129047265Y-105684148D01*
X129047270Y-105684151D01*
X129220192Y-105761142D01*
X129220197Y-105761144D01*
X129291467Y-105776293D01*
X129352949Y-105809485D01*
X129386725Y-105870648D01*
X129382073Y-105940363D01*
X129353367Y-105985264D01*
X127614358Y-107724272D01*
X127600729Y-107736051D01*
X127581468Y-107750390D01*
X127547898Y-107790397D01*
X127544253Y-107794376D01*
X127538409Y-107800222D01*
X127518059Y-107825959D01*
X127468695Y-107884789D01*
X127464729Y-107890819D01*
X127464682Y-107890788D01*
X127460630Y-107897147D01*
X127460679Y-107897177D01*
X127456889Y-107903321D01*
X127424424Y-107972941D01*
X127389960Y-108041566D01*
X127387488Y-108048357D01*
X127387432Y-108048336D01*
X127384960Y-108055450D01*
X127385015Y-108055469D01*
X127382742Y-108062327D01*
X127374975Y-108099946D01*
X127367207Y-108137565D01*
X127360045Y-108167785D01*
X127349498Y-108212286D01*
X127348661Y-108219454D01*
X127348601Y-108219447D01*
X127347835Y-108226945D01*
X127347895Y-108226951D01*
X127347265Y-108234140D01*
X127349500Y-108310916D01*
X127349500Y-113865677D01*
X127332887Y-113927677D01*
X127272821Y-114031714D01*
X127214327Y-114211740D01*
X127214326Y-114211744D01*
X127194540Y-114400000D01*
X127214326Y-114588256D01*
X127214327Y-114588259D01*
X127272818Y-114768277D01*
X127272821Y-114768284D01*
X127367467Y-114932216D01*
X127452911Y-115027111D01*
X127494129Y-115072888D01*
X127647265Y-115184148D01*
X127647270Y-115184151D01*
X127820192Y-115261142D01*
X127820197Y-115261144D01*
X128005354Y-115300500D01*
X128005355Y-115300500D01*
X128194644Y-115300500D01*
X128194646Y-115300500D01*
X128379803Y-115261144D01*
X128552730Y-115184151D01*
X128705871Y-115072888D01*
X128832533Y-114932216D01*
X128927179Y-114768284D01*
X128985674Y-114588256D01*
X129005460Y-114400000D01*
X128985674Y-114211744D01*
X128927179Y-114031716D01*
X128927178Y-114031714D01*
X128867113Y-113927677D01*
X128850500Y-113865677D01*
X128850500Y-109584553D01*
X128870185Y-109517514D01*
X128922989Y-109471759D01*
X128992147Y-109461815D01*
X129041167Y-109481711D01*
X129041637Y-109480899D01*
X129047270Y-109484151D01*
X129220192Y-109561142D01*
X129220197Y-109561144D01*
X129405354Y-109600500D01*
X129499903Y-109600500D01*
X129566942Y-109620185D01*
X129587584Y-109636819D01*
X133144669Y-113193904D01*
X133150020Y-113200005D01*
X133171718Y-113228282D01*
X133297159Y-113324536D01*
X133443238Y-113385044D01*
X133521619Y-113395363D01*
X133599999Y-113405682D01*
X133600000Y-113405682D01*
X133635329Y-113401030D01*
X133643428Y-113400500D01*
X136460639Y-113400500D01*
X136499903Y-113400500D01*
X136566942Y-113420185D01*
X136587584Y-113436819D01*
X139256156Y-116105391D01*
X139289641Y-116166714D01*
X139284657Y-116236406D01*
X139268799Y-116265950D01*
X139267466Y-116267784D01*
X139172821Y-116431715D01*
X139172818Y-116431722D01*
X139130767Y-116561144D01*
X139114326Y-116611744D01*
X139094540Y-116800000D01*
X139114326Y-116988256D01*
X139114327Y-116988259D01*
X139172818Y-117168277D01*
X139172821Y-117168284D01*
X139267467Y-117332216D01*
X139318670Y-117389082D01*
X139350308Y-117424220D01*
X139380538Y-117487211D01*
X139371913Y-117556547D01*
X139345839Y-117594873D01*
X138327533Y-118613181D01*
X138266210Y-118646666D01*
X138239852Y-118649500D01*
X127003954Y-118649500D01*
X126936915Y-118629815D01*
X126891160Y-118577011D01*
X126881216Y-118507853D01*
X126884617Y-118493227D01*
X126885672Y-118488261D01*
X126885674Y-118488256D01*
X126905460Y-118300000D01*
X126885674Y-118111744D01*
X126827179Y-117931716D01*
X126732533Y-117767784D01*
X126605871Y-117627112D01*
X126605870Y-117627111D01*
X126452734Y-117515851D01*
X126452729Y-117515848D01*
X126279807Y-117438857D01*
X126279802Y-117438855D01*
X126134001Y-117407865D01*
X126094646Y-117399500D01*
X125905354Y-117399500D01*
X125872897Y-117406398D01*
X125720197Y-117438855D01*
X125720192Y-117438857D01*
X125547270Y-117515848D01*
X125547265Y-117515851D01*
X125394130Y-117627110D01*
X125394126Y-117627114D01*
X125388400Y-117633474D01*
X125328913Y-117670121D01*
X125296252Y-117674500D01*
X122210452Y-117674500D01*
X122143413Y-117654815D01*
X122122771Y-117638181D01*
X120200803Y-115716212D01*
X120190980Y-115703950D01*
X120190759Y-115704134D01*
X120185786Y-115698123D01*
X120167158Y-115680630D01*
X120135364Y-115650773D01*
X120124919Y-115640328D01*
X120114475Y-115629883D01*
X120108986Y-115625625D01*
X120104561Y-115621847D01*
X120070582Y-115589938D01*
X120070580Y-115589936D01*
X120070577Y-115589935D01*
X120053029Y-115580288D01*
X120036763Y-115569604D01*
X120014772Y-115552546D01*
X120016696Y-115550064D01*
X119978930Y-115509576D01*
X119966461Y-115440828D01*
X119993140Y-115376252D01*
X119997577Y-115371038D01*
X120032533Y-115332216D01*
X120127179Y-115168284D01*
X120185674Y-114988256D01*
X120205460Y-114800000D01*
X120185674Y-114611744D01*
X120127179Y-114431716D01*
X120032533Y-114267784D01*
X119905871Y-114127112D01*
X119905870Y-114127111D01*
X119752734Y-114015851D01*
X119752729Y-114015848D01*
X119579807Y-113938857D01*
X119579802Y-113938855D01*
X119434001Y-113907865D01*
X119394646Y-113899500D01*
X119394645Y-113899500D01*
X119335453Y-113899500D01*
X119268414Y-113879815D01*
X119247772Y-113863181D01*
X111282461Y-105897870D01*
X125649500Y-105897870D01*
X125649501Y-105897876D01*
X125655908Y-105957483D01*
X125706202Y-106092328D01*
X125706206Y-106092335D01*
X125792452Y-106207544D01*
X125792455Y-106207547D01*
X125907664Y-106293793D01*
X125907671Y-106293797D01*
X126042517Y-106344091D01*
X126042516Y-106344091D01*
X126049444Y-106344835D01*
X126102127Y-106350500D01*
X127897872Y-106350499D01*
X127957483Y-106344091D01*
X128092331Y-106293796D01*
X128207546Y-106207546D01*
X128293796Y-106092331D01*
X128344091Y-105957483D01*
X128350500Y-105897873D01*
X128350499Y-104944167D01*
X128363491Y-104899920D01*
X128352522Y-104878137D01*
X128350499Y-104855830D01*
X128350499Y-104102129D01*
X128350498Y-104102123D01*
X128350497Y-104102116D01*
X128344091Y-104042517D01*
X128300529Y-103925722D01*
X128293797Y-103907671D01*
X128293793Y-103907664D01*
X128207547Y-103792455D01*
X128207544Y-103792452D01*
X128092335Y-103706206D01*
X128092328Y-103706202D01*
X127957482Y-103655908D01*
X127957483Y-103655908D01*
X127897883Y-103649501D01*
X127897881Y-103649500D01*
X127897873Y-103649500D01*
X127897864Y-103649500D01*
X126102129Y-103649500D01*
X126102123Y-103649501D01*
X126042516Y-103655908D01*
X125907671Y-103706202D01*
X125907664Y-103706206D01*
X125792455Y-103792452D01*
X125792452Y-103792455D01*
X125706206Y-103907664D01*
X125706202Y-103907671D01*
X125655908Y-104042517D01*
X125649501Y-104102116D01*
X125649501Y-104102123D01*
X125649500Y-104102135D01*
X125649500Y-105897870D01*
X111282461Y-105897870D01*
X110700803Y-105316212D01*
X110690980Y-105303950D01*
X110690759Y-105304134D01*
X110685786Y-105298123D01*
X110682002Y-105294570D01*
X110635364Y-105250773D01*
X110624919Y-105240328D01*
X110614475Y-105229883D01*
X110608986Y-105225625D01*
X110604561Y-105221847D01*
X110570582Y-105189938D01*
X110570580Y-105189936D01*
X110570577Y-105189935D01*
X110553029Y-105180288D01*
X110536763Y-105169604D01*
X110535069Y-105168290D01*
X110520936Y-105157327D01*
X110520935Y-105157326D01*
X110520933Y-105157325D01*
X110478168Y-105138818D01*
X110472922Y-105136248D01*
X110432093Y-105113803D01*
X110432092Y-105113802D01*
X110412693Y-105108822D01*
X110394281Y-105102518D01*
X110375898Y-105094562D01*
X110375892Y-105094560D01*
X110329874Y-105087272D01*
X110324152Y-105086087D01*
X110279021Y-105074500D01*
X110279019Y-105074500D01*
X110258984Y-105074500D01*
X110239586Y-105072973D01*
X110232162Y-105071797D01*
X110219805Y-105069840D01*
X110219804Y-105069840D01*
X110173416Y-105074225D01*
X110167578Y-105074500D01*
X106903748Y-105074500D01*
X106836709Y-105054815D01*
X106811600Y-105033474D01*
X106805873Y-105027114D01*
X106805869Y-105027110D01*
X106652734Y-104915851D01*
X106652729Y-104915848D01*
X106479807Y-104838857D01*
X106479802Y-104838855D01*
X106334001Y-104807865D01*
X106294646Y-104799500D01*
X106105354Y-104799500D01*
X106072897Y-104806398D01*
X105920197Y-104838855D01*
X105920192Y-104838857D01*
X105747270Y-104915848D01*
X105747265Y-104915851D01*
X105594129Y-105027111D01*
X105467466Y-105167785D01*
X105381887Y-105316013D01*
X105331320Y-105364228D01*
X105262713Y-105377452D01*
X105197848Y-105351484D01*
X105157320Y-105294570D01*
X105150500Y-105254013D01*
X105150500Y-102375000D01*
X105569474Y-102375000D01*
X105589547Y-102630064D01*
X105649279Y-102878864D01*
X105747188Y-103115239D01*
X105747190Y-103115242D01*
X105880875Y-103333396D01*
X105880878Y-103333401D01*
X105905703Y-103362467D01*
X106047044Y-103527956D01*
X106149206Y-103615210D01*
X106241598Y-103694121D01*
X106241600Y-103694122D01*
X106241601Y-103694123D01*
X106414374Y-103799998D01*
X106459757Y-103827809D01*
X106459760Y-103827811D01*
X106652544Y-103907664D01*
X106696140Y-103925722D01*
X106944930Y-103985452D01*
X107072401Y-103995484D01*
X107136135Y-104000500D01*
X107136137Y-104000500D01*
X109513865Y-104000500D01*
X109568493Y-103996200D01*
X109705070Y-103985452D01*
X109953860Y-103925722D01*
X110072051Y-103876765D01*
X110190239Y-103827811D01*
X110190240Y-103827810D01*
X110190243Y-103827809D01*
X110408399Y-103694123D01*
X110602956Y-103527956D01*
X110769123Y-103333399D01*
X110902809Y-103115243D01*
X111000722Y-102878860D01*
X111060452Y-102630070D01*
X111080526Y-102375000D01*
X111060452Y-102119930D01*
X111000722Y-101871140D01*
X110966392Y-101788259D01*
X110902811Y-101634760D01*
X110902809Y-101634757D01*
X110769124Y-101416603D01*
X110769121Y-101416598D01*
X110618499Y-101240243D01*
X110602956Y-101222044D01*
X110458776Y-101098903D01*
X110408401Y-101055878D01*
X110408396Y-101055875D01*
X110190242Y-100922190D01*
X110190239Y-100922188D01*
X109953864Y-100824279D01*
X109867939Y-100803650D01*
X109705070Y-100764548D01*
X109705068Y-100764547D01*
X109705065Y-100764547D01*
X109513865Y-100749500D01*
X109513863Y-100749500D01*
X107136137Y-100749500D01*
X107136135Y-100749500D01*
X106944934Y-100764547D01*
X106696135Y-100824279D01*
X106459760Y-100922188D01*
X106459757Y-100922190D01*
X106241603Y-101055875D01*
X106241598Y-101055878D01*
X106047044Y-101222044D01*
X105880878Y-101416598D01*
X105880875Y-101416603D01*
X105747190Y-101634757D01*
X105747188Y-101634760D01*
X105649279Y-101871135D01*
X105649278Y-101871140D01*
X105591824Y-102110452D01*
X105589547Y-102119935D01*
X105569474Y-102375000D01*
X105150500Y-102375000D01*
X105150500Y-100803650D01*
X105170185Y-100736611D01*
X105186819Y-100715969D01*
X105338923Y-100563865D01*
X111399500Y-100563865D01*
X111414547Y-100755065D01*
X111414547Y-100755068D01*
X111414548Y-100755070D01*
X111426211Y-100803650D01*
X111474279Y-101003864D01*
X111572188Y-101240239D01*
X111572190Y-101240242D01*
X111705875Y-101458396D01*
X111705878Y-101458401D01*
X111781200Y-101546591D01*
X111872044Y-101652956D01*
X111996579Y-101759319D01*
X112066598Y-101819121D01*
X112066603Y-101819124D01*
X112284757Y-101952809D01*
X112284760Y-101952811D01*
X112521135Y-102050720D01*
X112521140Y-102050722D01*
X112769930Y-102110452D01*
X113025000Y-102130526D01*
X113280070Y-102110452D01*
X113528860Y-102050722D01*
X113647051Y-102001765D01*
X113765239Y-101952811D01*
X113765240Y-101952810D01*
X113765243Y-101952809D01*
X113983399Y-101819123D01*
X114177956Y-101652956D01*
X114344123Y-101458399D01*
X114477809Y-101240243D01*
X114485348Y-101222044D01*
X114536354Y-101098903D01*
X114575722Y-101003860D01*
X114635452Y-100755070D01*
X114650500Y-100563863D01*
X114650500Y-98186137D01*
X114635452Y-97994930D01*
X114575722Y-97746140D01*
X114572705Y-97738856D01*
X114477811Y-97509760D01*
X114477809Y-97509757D01*
X114344124Y-97291603D01*
X114344121Y-97291598D01*
X114255858Y-97188256D01*
X114177956Y-97097044D01*
X114037864Y-96977394D01*
X113983401Y-96930878D01*
X113983396Y-96930875D01*
X113765242Y-96797190D01*
X113765239Y-96797188D01*
X113528864Y-96699279D01*
X113465852Y-96684151D01*
X113280070Y-96639548D01*
X113280067Y-96639547D01*
X113280064Y-96639547D01*
X113025000Y-96619474D01*
X112769935Y-96639547D01*
X112769931Y-96639547D01*
X112769930Y-96639548D01*
X112711500Y-96653576D01*
X112521135Y-96699279D01*
X112284760Y-96797188D01*
X112284757Y-96797190D01*
X112066603Y-96930875D01*
X112066598Y-96930878D01*
X111872044Y-97097044D01*
X111705878Y-97291598D01*
X111705875Y-97291603D01*
X111572190Y-97509757D01*
X111572188Y-97509760D01*
X111474279Y-97746135D01*
X111414547Y-97994934D01*
X111399500Y-98186135D01*
X111399500Y-100563865D01*
X105338923Y-100563865D01*
X107740969Y-98161819D01*
X107802292Y-98128334D01*
X107828650Y-98125500D01*
X109640500Y-98125500D01*
X109836620Y-98110803D01*
X109836622Y-98110802D01*
X109836630Y-98110802D01*
X110092416Y-98052420D01*
X110336643Y-97956568D01*
X110563857Y-97825386D01*
X110768981Y-97661805D01*
X110947433Y-97469479D01*
X111095228Y-97252704D01*
X111209063Y-97016323D01*
X111286396Y-96765615D01*
X111325500Y-96506182D01*
X111325500Y-96243818D01*
X111286396Y-95984385D01*
X111209063Y-95733677D01*
X111168090Y-95648596D01*
X111095232Y-95497303D01*
X111095231Y-95497302D01*
X111095230Y-95497301D01*
X111095228Y-95497296D01*
X110947433Y-95280521D01*
X110918695Y-95249549D01*
X110768985Y-95088198D01*
X110655733Y-94997883D01*
X110563857Y-94924614D01*
X110336643Y-94793432D01*
X110092416Y-94697580D01*
X110092411Y-94697578D01*
X110092402Y-94697576D01*
X109874818Y-94647914D01*
X109836630Y-94639198D01*
X109836629Y-94639197D01*
X109836625Y-94639197D01*
X109836620Y-94639196D01*
X109640500Y-94624500D01*
X109640494Y-94624500D01*
X109299500Y-94624500D01*
X109232461Y-94604815D01*
X109186706Y-94552011D01*
X109175500Y-94500500D01*
X109175500Y-90667763D01*
X110745787Y-90667763D01*
X110775413Y-90937013D01*
X110775415Y-90937024D01*
X110843926Y-91199082D01*
X110843928Y-91199088D01*
X110949870Y-91448390D01*
X111021998Y-91566575D01*
X111090979Y-91679605D01*
X111090986Y-91679615D01*
X111264253Y-91887819D01*
X111264259Y-91887824D01*
X111465998Y-92068582D01*
X111691910Y-92218044D01*
X111937176Y-92333020D01*
X111937183Y-92333022D01*
X111937185Y-92333023D01*
X112196557Y-92411057D01*
X112196564Y-92411058D01*
X112196569Y-92411060D01*
X112464561Y-92450500D01*
X112464566Y-92450500D01*
X112667636Y-92450500D01*
X112719133Y-92446730D01*
X112870156Y-92435677D01*
X112982758Y-92410593D01*
X113134546Y-92376782D01*
X113134548Y-92376781D01*
X113134553Y-92376780D01*
X113387558Y-92280014D01*
X113623777Y-92147441D01*
X113838177Y-91981888D01*
X114026186Y-91786881D01*
X114183799Y-91566579D01*
X114257787Y-91422669D01*
X114307649Y-91325690D01*
X114307651Y-91325684D01*
X114307656Y-91325675D01*
X114395118Y-91069305D01*
X114444319Y-90802933D01*
X114454212Y-90532235D01*
X114424586Y-90262982D01*
X114356072Y-90000912D01*
X114250130Y-89751610D01*
X114109018Y-89520390D01*
X114064477Y-89466868D01*
X113935746Y-89312180D01*
X113935740Y-89312175D01*
X113734002Y-89131418D01*
X113508092Y-88981957D01*
X113508090Y-88981956D01*
X113262824Y-88866980D01*
X113262819Y-88866978D01*
X113262814Y-88866976D01*
X113003442Y-88788942D01*
X113003428Y-88788939D01*
X112887791Y-88771921D01*
X112735439Y-88749500D01*
X112532369Y-88749500D01*
X112532364Y-88749500D01*
X112329844Y-88764323D01*
X112329831Y-88764325D01*
X112065453Y-88823217D01*
X112065446Y-88823220D01*
X111812439Y-88919987D01*
X111576226Y-89052557D01*
X111576224Y-89052558D01*
X111576223Y-89052559D01*
X111519601Y-89096281D01*
X111361822Y-89218112D01*
X111173822Y-89413109D01*
X111173816Y-89413116D01*
X111016202Y-89633419D01*
X111016199Y-89633424D01*
X110892350Y-89874309D01*
X110892343Y-89874327D01*
X110804884Y-90130685D01*
X110804881Y-90130699D01*
X110755681Y-90397068D01*
X110755680Y-90397075D01*
X110745787Y-90667763D01*
X109175500Y-90667763D01*
X109175500Y-88070878D01*
X109195185Y-88003839D01*
X109247989Y-87958084D01*
X109317147Y-87948140D01*
X109349929Y-87957596D01*
X109470197Y-88011144D01*
X109655354Y-88050500D01*
X109655355Y-88050500D01*
X109844644Y-88050500D01*
X109844646Y-88050500D01*
X110029803Y-88011144D01*
X110202730Y-87934151D01*
X110355871Y-87822888D01*
X110482533Y-87682216D01*
X110577179Y-87518284D01*
X110635674Y-87338256D01*
X110653321Y-87170345D01*
X110679905Y-87105732D01*
X110688952Y-87095636D01*
X114347772Y-83436819D01*
X114409095Y-83403334D01*
X114435453Y-83400500D01*
X114494644Y-83400500D01*
X114494646Y-83400500D01*
X114679803Y-83361144D01*
X114679805Y-83361142D01*
X114685987Y-83359135D01*
X114686816Y-83361687D01*
X114744262Y-83353961D01*
X114807551Y-83383562D01*
X114844790Y-83442681D01*
X114849500Y-83476533D01*
X114849500Y-85336294D01*
X114848191Y-85354263D01*
X114844710Y-85378025D01*
X114849264Y-85430064D01*
X114849500Y-85435470D01*
X114849500Y-85443709D01*
X114853306Y-85476274D01*
X114860000Y-85552791D01*
X114861461Y-85559867D01*
X114861403Y-85559878D01*
X114863034Y-85567237D01*
X114863092Y-85567224D01*
X114864757Y-85574250D01*
X114891025Y-85646424D01*
X114915185Y-85719331D01*
X114918236Y-85725874D01*
X114918182Y-85725898D01*
X114921470Y-85732688D01*
X114921521Y-85732663D01*
X114924761Y-85739113D01*
X114924762Y-85739114D01*
X114924763Y-85739117D01*
X114951324Y-85779502D01*
X114966965Y-85803283D01*
X115007287Y-85868655D01*
X115011766Y-85874319D01*
X115011719Y-85874355D01*
X115016483Y-85880202D01*
X115016529Y-85880164D01*
X115021167Y-85885692D01*
X115021170Y-85885696D01*
X115021173Y-85885698D01*
X115021174Y-85885700D01*
X115077019Y-85938386D01*
X115813181Y-86674548D01*
X115846666Y-86735871D01*
X115849500Y-86762229D01*
X115849500Y-95365677D01*
X115832887Y-95427677D01*
X115772821Y-95531714D01*
X115714327Y-95711740D01*
X115714326Y-95711744D01*
X115694540Y-95900000D01*
X115714326Y-96088256D01*
X115714327Y-96088259D01*
X115772818Y-96268277D01*
X115772821Y-96268284D01*
X115867467Y-96432216D01*
X115983320Y-96560883D01*
X115994129Y-96572888D01*
X116147265Y-96684148D01*
X116147270Y-96684151D01*
X116320192Y-96761142D01*
X116320197Y-96761144D01*
X116505354Y-96800500D01*
X116505355Y-96800500D01*
X116694644Y-96800500D01*
X116694646Y-96800500D01*
X116879803Y-96761144D01*
X117052730Y-96684151D01*
X117205871Y-96572888D01*
X117332533Y-96432216D01*
X117427179Y-96268284D01*
X117485674Y-96088256D01*
X117505460Y-95900000D01*
X117485674Y-95711744D01*
X117427179Y-95531716D01*
X117427178Y-95531714D01*
X117367113Y-95427677D01*
X117350500Y-95365677D01*
X117350500Y-86463705D01*
X117351809Y-86445735D01*
X117352129Y-86443547D01*
X117355289Y-86421977D01*
X117350735Y-86369931D01*
X117350500Y-86364528D01*
X117350500Y-86356297D01*
X117350500Y-86356291D01*
X117346693Y-86323724D01*
X117344672Y-86300619D01*
X117339999Y-86247201D01*
X117338539Y-86240129D01*
X117338597Y-86240116D01*
X117336965Y-86232757D01*
X117336906Y-86232772D01*
X117335242Y-86225753D01*
X117335241Y-86225745D01*
X117308974Y-86153576D01*
X117284814Y-86080666D01*
X117284809Y-86080659D01*
X117281760Y-86074118D01*
X117281815Y-86074091D01*
X117278533Y-86067313D01*
X117278480Y-86067340D01*
X117275235Y-86060880D01*
X117233028Y-85996708D01*
X117213495Y-85965040D01*
X117192712Y-85931345D01*
X117192711Y-85931344D01*
X117192710Y-85931342D01*
X117188234Y-85925682D01*
X117188281Y-85925644D01*
X117183519Y-85919799D01*
X117183474Y-85919838D01*
X117178834Y-85914309D01*
X117178832Y-85914307D01*
X117178830Y-85914304D01*
X117142644Y-85880164D01*
X117122965Y-85861597D01*
X116386819Y-85125451D01*
X116353334Y-85064128D01*
X116350500Y-85037770D01*
X116350500Y-82950000D01*
X117694540Y-82950000D01*
X117714326Y-83138256D01*
X117714327Y-83138259D01*
X117772818Y-83318277D01*
X117772821Y-83318284D01*
X117867467Y-83482216D01*
X117956735Y-83581358D01*
X117994129Y-83622888D01*
X118147265Y-83734148D01*
X118147270Y-83734151D01*
X118320192Y-83811142D01*
X118320197Y-83811144D01*
X118505354Y-83850500D01*
X118505355Y-83850500D01*
X118694644Y-83850500D01*
X118694646Y-83850500D01*
X118879803Y-83811144D01*
X119052730Y-83734151D01*
X119205871Y-83622888D01*
X119332533Y-83482216D01*
X119364081Y-83427572D01*
X119427177Y-83318288D01*
X119428399Y-83315543D01*
X119429532Y-83314209D01*
X119430429Y-83312656D01*
X119430712Y-83312819D01*
X119473642Y-83262299D01*
X119540488Y-83241969D01*
X119607715Y-83261005D01*
X119653977Y-83313365D01*
X119659616Y-83327644D01*
X119672819Y-83368280D01*
X119672821Y-83368284D01*
X119767467Y-83532216D01*
X119811715Y-83581358D01*
X119894129Y-83672888D01*
X120047265Y-83784148D01*
X120047270Y-83784151D01*
X120220192Y-83861142D01*
X120220197Y-83861144D01*
X120405354Y-83900500D01*
X120405355Y-83900500D01*
X120594644Y-83900500D01*
X120594646Y-83900500D01*
X120779803Y-83861144D01*
X120952730Y-83784151D01*
X121105871Y-83672888D01*
X121232533Y-83532216D01*
X121327179Y-83368284D01*
X121382522Y-83197955D01*
X121412769Y-83148597D01*
X125752770Y-78808595D01*
X125814091Y-78775112D01*
X125814427Y-78775039D01*
X125879803Y-78761144D01*
X126052730Y-78684151D01*
X126205871Y-78572888D01*
X126332533Y-78432216D01*
X126427179Y-78268284D01*
X126485674Y-78088256D01*
X126505460Y-77900000D01*
X126485674Y-77711744D01*
X126427179Y-77531716D01*
X126332533Y-77367784D01*
X126205871Y-77227112D01*
X126205870Y-77227111D01*
X126052734Y-77115851D01*
X126052729Y-77115848D01*
X125879802Y-77038855D01*
X125878045Y-77038284D01*
X125877159Y-77037678D01*
X125873866Y-77036212D01*
X125874134Y-77035609D01*
X125820373Y-76998842D01*
X125793180Y-76934481D01*
X125805100Y-76865636D01*
X125828689Y-76832678D01*
X133552771Y-69108595D01*
X133614092Y-69075112D01*
X133614448Y-69075034D01*
X133679803Y-69061144D01*
X133852730Y-68984151D01*
X134005871Y-68872888D01*
X134132533Y-68732216D01*
X134227179Y-68568284D01*
X134285674Y-68388256D01*
X134305460Y-68200000D01*
X134285674Y-68011744D01*
X134227179Y-67831716D01*
X134132533Y-67667784D01*
X134005871Y-67527112D01*
X134005870Y-67527111D01*
X133852734Y-67415851D01*
X133852729Y-67415848D01*
X133679807Y-67338857D01*
X133679802Y-67338855D01*
X133534001Y-67307865D01*
X133494646Y-67299500D01*
X133305354Y-67299500D01*
X133272897Y-67306398D01*
X133120197Y-67338855D01*
X133120192Y-67338857D01*
X132947270Y-67415848D01*
X132947265Y-67415851D01*
X132794129Y-67527111D01*
X132667466Y-67667785D01*
X132572821Y-67831715D01*
X132572819Y-67831719D01*
X132517479Y-68002039D01*
X132487229Y-68051401D01*
X118510725Y-82027905D01*
X118449402Y-82061390D01*
X118448826Y-82061514D01*
X118320196Y-82088856D01*
X118320192Y-82088857D01*
X118147270Y-82165848D01*
X118147265Y-82165851D01*
X117994129Y-82277111D01*
X117867466Y-82417785D01*
X117772821Y-82581715D01*
X117772818Y-82581722D01*
X117714327Y-82761740D01*
X117714326Y-82761744D01*
X117694540Y-82950000D01*
X116350500Y-82950000D01*
X116350500Y-71134321D01*
X116367113Y-71072321D01*
X116427179Y-70968284D01*
X116485674Y-70788256D01*
X116505460Y-70600000D01*
X116485674Y-70411744D01*
X116427179Y-70231716D01*
X116332533Y-70067784D01*
X116205871Y-69927112D01*
X116205870Y-69927111D01*
X116052734Y-69815851D01*
X116052729Y-69815848D01*
X115879807Y-69738857D01*
X115879802Y-69738855D01*
X115734001Y-69707865D01*
X115694646Y-69699500D01*
X115505354Y-69699500D01*
X115472897Y-69706398D01*
X115320197Y-69738855D01*
X115320192Y-69738857D01*
X115147270Y-69815848D01*
X115147265Y-69815851D01*
X114994129Y-69927111D01*
X114867466Y-70067785D01*
X114772821Y-70231715D01*
X114772818Y-70231722D01*
X114731990Y-70357379D01*
X114714326Y-70411744D01*
X114694540Y-70600000D01*
X114714326Y-70788256D01*
X114714327Y-70788259D01*
X114772818Y-70968277D01*
X114772821Y-70968284D01*
X114832887Y-71072321D01*
X114849500Y-71134321D01*
X114849500Y-73915446D01*
X114829815Y-73982485D01*
X114777011Y-74028240D01*
X114707853Y-74038184D01*
X114658831Y-74018290D01*
X114658363Y-74019101D01*
X114652729Y-74015848D01*
X114479807Y-73938857D01*
X114479802Y-73938855D01*
X114334001Y-73907865D01*
X114294646Y-73899500D01*
X114105354Y-73899500D01*
X114072897Y-73906398D01*
X113920197Y-73938855D01*
X113920192Y-73938857D01*
X113747270Y-74015848D01*
X113747265Y-74015851D01*
X113594129Y-74127111D01*
X113467466Y-74267785D01*
X113372821Y-74431715D01*
X113372819Y-74431719D01*
X113317478Y-74602041D01*
X113287228Y-74651403D01*
X112025451Y-75913181D01*
X111964128Y-75946666D01*
X111937770Y-75949500D01*
X87762229Y-75949500D01*
X87695190Y-75929815D01*
X87674548Y-75913181D01*
X86712770Y-74951402D01*
X86682521Y-74902041D01*
X86627179Y-74731716D01*
X86532533Y-74567784D01*
X86405871Y-74427112D01*
X86405870Y-74427111D01*
X86252734Y-74315851D01*
X86252729Y-74315848D01*
X86079807Y-74238857D01*
X86079802Y-74238855D01*
X85934001Y-74207865D01*
X85894646Y-74199500D01*
X85705354Y-74199500D01*
X85672897Y-74206398D01*
X85520197Y-74238855D01*
X85520192Y-74238857D01*
X85347270Y-74315848D01*
X85347265Y-74315851D01*
X85194129Y-74427111D01*
X85067466Y-74567785D01*
X84972821Y-74731715D01*
X84972818Y-74731722D01*
X84917479Y-74902039D01*
X84914326Y-74911744D01*
X84894540Y-75100000D01*
X84914326Y-75288256D01*
X84914327Y-75288259D01*
X84972818Y-75468277D01*
X84972821Y-75468284D01*
X85067467Y-75632216D01*
X85152912Y-75727112D01*
X85194129Y-75772888D01*
X85347265Y-75884148D01*
X85347270Y-75884151D01*
X85520191Y-75961142D01*
X85520194Y-75961142D01*
X85520197Y-75961144D01*
X85554221Y-75968375D01*
X85585329Y-75974988D01*
X85646811Y-76008180D01*
X85647230Y-76008597D01*
X86824267Y-77185634D01*
X86836048Y-77199266D01*
X86850390Y-77218530D01*
X86890420Y-77252119D01*
X86894392Y-77255759D01*
X86899774Y-77261141D01*
X86900224Y-77261591D01*
X86900227Y-77261594D01*
X86925947Y-77281931D01*
X86984788Y-77331304D01*
X86990818Y-77335270D01*
X86990785Y-77335319D01*
X86997147Y-77339372D01*
X86997179Y-77339321D01*
X87003319Y-77343108D01*
X87003323Y-77343111D01*
X87038132Y-77359343D01*
X87072941Y-77375575D01*
X87141565Y-77410039D01*
X87141567Y-77410040D01*
X87141569Y-77410040D01*
X87148357Y-77412511D01*
X87148336Y-77412567D01*
X87155455Y-77415042D01*
X87155474Y-77414986D01*
X87162329Y-77417258D01*
X87237562Y-77432791D01*
X87312279Y-77450500D01*
X87312289Y-77450500D01*
X87319452Y-77451338D01*
X87319444Y-77451397D01*
X87326945Y-77452164D01*
X87326951Y-77452105D01*
X87334140Y-77452734D01*
X87334144Y-77452733D01*
X87334145Y-77452734D01*
X87410918Y-77450500D01*
X95512279Y-77450500D01*
X111788771Y-77450500D01*
X111855810Y-77470185D01*
X111901565Y-77522989D01*
X111911509Y-77592147D01*
X111882484Y-77655703D01*
X111876452Y-77662180D01*
X102599777Y-86938855D01*
X93325451Y-96213181D01*
X93264128Y-96246666D01*
X93237770Y-96249500D01*
X86039337Y-96249500D01*
X85972298Y-96229815D01*
X85966452Y-96225818D01*
X85952734Y-96215851D01*
X85952729Y-96215848D01*
X85779807Y-96138857D01*
X85779802Y-96138855D01*
X85611912Y-96103170D01*
X85594646Y-96099500D01*
X85405354Y-96099500D01*
X85388088Y-96103170D01*
X85220197Y-96138855D01*
X85220192Y-96138857D01*
X85047270Y-96215848D01*
X85047265Y-96215851D01*
X84894129Y-96327111D01*
X84767466Y-96467785D01*
X84672821Y-96631715D01*
X84672818Y-96631722D01*
X84617979Y-96800500D01*
X84614326Y-96811744D01*
X84594540Y-97000000D01*
X84614326Y-97188256D01*
X84614327Y-97188259D01*
X84672818Y-97368277D01*
X84672821Y-97368284D01*
X84767467Y-97532216D01*
X84817945Y-97588277D01*
X84894129Y-97672888D01*
X85047265Y-97784148D01*
X85047270Y-97784151D01*
X85220192Y-97861142D01*
X85220197Y-97861144D01*
X85405354Y-97900500D01*
X85405355Y-97900500D01*
X85594644Y-97900500D01*
X85594646Y-97900500D01*
X85779803Y-97861144D01*
X85952730Y-97784151D01*
X85954776Y-97782664D01*
X85966452Y-97774182D01*
X86032258Y-97750702D01*
X86039337Y-97750500D01*
X93536295Y-97750500D01*
X93554265Y-97751809D01*
X93578023Y-97755289D01*
X93630068Y-97750735D01*
X93635470Y-97750500D01*
X93643704Y-97750500D01*
X93643709Y-97750500D01*
X93655327Y-97749141D01*
X93676276Y-97746693D01*
X93689028Y-97745577D01*
X93752797Y-97739999D01*
X93752805Y-97739996D01*
X93759866Y-97738539D01*
X93759878Y-97738598D01*
X93767243Y-97736965D01*
X93767229Y-97736906D01*
X93774246Y-97735241D01*
X93774255Y-97735241D01*
X93846423Y-97708974D01*
X93919334Y-97684814D01*
X93919343Y-97684807D01*
X93925882Y-97681760D01*
X93925908Y-97681816D01*
X93932690Y-97678532D01*
X93932663Y-97678478D01*
X93939106Y-97675240D01*
X93939117Y-97675237D01*
X94003283Y-97633034D01*
X94068656Y-97592712D01*
X94068662Y-97592705D01*
X94074325Y-97588229D01*
X94074363Y-97588277D01*
X94080200Y-97583522D01*
X94080161Y-97583475D01*
X94085696Y-97578830D01*
X94138385Y-97522982D01*
X107262819Y-84398548D01*
X107324142Y-84365063D01*
X107393834Y-84370047D01*
X107449767Y-84411919D01*
X107474184Y-84477383D01*
X107474500Y-84486229D01*
X107474500Y-86933610D01*
X107454815Y-87000649D01*
X107402011Y-87046404D01*
X107332853Y-87056348D01*
X107277616Y-87033929D01*
X107252733Y-87015850D01*
X107252729Y-87015848D01*
X107079807Y-86938857D01*
X107079802Y-86938855D01*
X106924756Y-86905900D01*
X106894646Y-86899500D01*
X106705354Y-86899500D01*
X106675244Y-86905900D01*
X106520197Y-86938855D01*
X106520192Y-86938857D01*
X106347270Y-87015848D01*
X106347265Y-87015851D01*
X106194129Y-87127111D01*
X106067466Y-87267785D01*
X105972821Y-87431715D01*
X105972818Y-87431722D01*
X105918142Y-87600000D01*
X105914326Y-87611744D01*
X105905441Y-87696281D01*
X105893861Y-87806463D01*
X105892538Y-87806323D01*
X105874855Y-87866545D01*
X105858221Y-87887187D01*
X101316208Y-92429199D01*
X101303951Y-92439020D01*
X101304134Y-92439241D01*
X101298123Y-92444213D01*
X101250772Y-92494636D01*
X101229889Y-92515519D01*
X101229877Y-92515532D01*
X101225621Y-92521017D01*
X101221837Y-92525447D01*
X101189937Y-92559418D01*
X101189936Y-92559420D01*
X101180284Y-92576976D01*
X101169610Y-92593226D01*
X101157329Y-92609061D01*
X101157324Y-92609068D01*
X101138815Y-92651838D01*
X101136245Y-92657084D01*
X101113803Y-92697906D01*
X101108822Y-92717307D01*
X101102521Y-92735710D01*
X101094562Y-92754102D01*
X101094561Y-92754105D01*
X101087271Y-92800127D01*
X101086087Y-92805846D01*
X101074501Y-92850972D01*
X101074500Y-92850982D01*
X101074500Y-92871016D01*
X101072973Y-92890415D01*
X101069840Y-92910194D01*
X101069840Y-92910195D01*
X101074225Y-92956583D01*
X101074500Y-92962421D01*
X101074500Y-104101312D01*
X101054815Y-104168351D01*
X101042650Y-104184284D01*
X100967466Y-104267784D01*
X100872821Y-104431715D01*
X100872818Y-104431722D01*
X100814327Y-104611740D01*
X100814326Y-104611744D01*
X100794540Y-104800000D01*
X100814326Y-104988256D01*
X100814327Y-104988259D01*
X100872818Y-105168277D01*
X100872821Y-105168284D01*
X100967467Y-105332216D01*
X100996291Y-105364228D01*
X101094129Y-105472888D01*
X101247265Y-105584148D01*
X101247270Y-105584151D01*
X101420192Y-105661142D01*
X101420197Y-105661144D01*
X101605354Y-105700500D01*
X101605355Y-105700500D01*
X101794644Y-105700500D01*
X101794646Y-105700500D01*
X101979803Y-105661144D01*
X102152730Y-105584151D01*
X102305871Y-105472888D01*
X102432533Y-105332216D01*
X102527179Y-105168284D01*
X102527182Y-105168272D01*
X102529311Y-105163493D01*
X102574562Y-105110256D01*
X102641411Y-105089935D01*
X102668369Y-105092638D01*
X102705354Y-105100500D01*
X102705355Y-105100500D01*
X102894644Y-105100500D01*
X102894646Y-105100500D01*
X103079803Y-105061144D01*
X103252730Y-104984151D01*
X103252733Y-104984148D01*
X103258363Y-104980899D01*
X103258978Y-104981964D01*
X103318419Y-104960755D01*
X103386473Y-104976580D01*
X103435169Y-105026685D01*
X103449500Y-105084553D01*
X103449500Y-114662911D01*
X103449295Y-114667945D01*
X103444798Y-114723163D01*
X103455729Y-114803392D01*
X103464486Y-114883913D01*
X103464710Y-114884930D01*
X103469525Y-114905473D01*
X103469773Y-114906470D01*
X103479231Y-114932214D01*
X103497700Y-114982486D01*
X103512736Y-115027111D01*
X103523557Y-115059223D01*
X103524001Y-115060185D01*
X103533146Y-115079266D01*
X103533564Y-115080109D01*
X103577184Y-115148353D01*
X103618930Y-115217736D01*
X103619538Y-115218536D01*
X103632578Y-115235216D01*
X103633201Y-115235991D01*
X103690458Y-115293248D01*
X103746149Y-115352040D01*
X103746950Y-115352720D01*
X103764118Y-115366907D01*
X104471282Y-116074070D01*
X104490988Y-116099751D01*
X104567465Y-116232214D01*
X104694129Y-116372888D01*
X104847265Y-116484148D01*
X104847270Y-116484151D01*
X105020192Y-116561142D01*
X105020197Y-116561144D01*
X105205354Y-116600500D01*
X105205355Y-116600500D01*
X105394644Y-116600500D01*
X105394646Y-116600500D01*
X105579803Y-116561144D01*
X105752730Y-116484151D01*
X105905871Y-116372888D01*
X106032533Y-116232216D01*
X106127179Y-116068284D01*
X106185674Y-115888256D01*
X106205460Y-115700000D01*
X106185674Y-115511744D01*
X106127548Y-115332853D01*
X106127181Y-115331722D01*
X106127180Y-115331721D01*
X106127179Y-115331716D01*
X106107638Y-115297870D01*
X108849500Y-115297870D01*
X108849501Y-115297876D01*
X108855908Y-115357483D01*
X108906202Y-115492328D01*
X108906206Y-115492335D01*
X108992452Y-115607544D01*
X108992455Y-115607547D01*
X109107664Y-115693793D01*
X109107671Y-115693797D01*
X109242517Y-115744091D01*
X109242516Y-115744091D01*
X109249444Y-115744835D01*
X109302127Y-115750500D01*
X111097872Y-115750499D01*
X111157483Y-115744091D01*
X111292331Y-115693796D01*
X111407546Y-115607546D01*
X111493796Y-115492331D01*
X111544091Y-115357483D01*
X111550500Y-115297873D01*
X111550499Y-113502128D01*
X111544091Y-113442517D01*
X111530352Y-113405682D01*
X111493797Y-113307671D01*
X111493793Y-113307664D01*
X111407547Y-113192455D01*
X111407544Y-113192452D01*
X111292335Y-113106206D01*
X111292328Y-113106202D01*
X111157482Y-113055908D01*
X111157483Y-113055908D01*
X111097883Y-113049501D01*
X111097881Y-113049500D01*
X111097873Y-113049500D01*
X111097864Y-113049500D01*
X109302129Y-113049500D01*
X109302123Y-113049501D01*
X109242516Y-113055908D01*
X109107671Y-113106202D01*
X109107664Y-113106206D01*
X108992455Y-113192452D01*
X108992452Y-113192455D01*
X108906206Y-113307664D01*
X108906202Y-113307671D01*
X108855908Y-113442517D01*
X108849501Y-113502116D01*
X108849501Y-113502123D01*
X108849500Y-113502135D01*
X108849500Y-115297870D01*
X106107638Y-115297870D01*
X106032533Y-115167784D01*
X105905871Y-115027112D01*
X105905870Y-115027111D01*
X105752734Y-114915851D01*
X105752732Y-114915850D01*
X105752730Y-114915849D01*
X105712269Y-114897834D01*
X105675026Y-114872237D01*
X105186819Y-114384030D01*
X105153334Y-114322707D01*
X105150500Y-114296349D01*
X105150500Y-109645986D01*
X105170185Y-109578947D01*
X105222989Y-109533192D01*
X105292147Y-109523248D01*
X105355703Y-109552273D01*
X105381887Y-109583987D01*
X105467463Y-109732211D01*
X105467465Y-109732214D01*
X105594129Y-109872888D01*
X105747265Y-109984148D01*
X105747270Y-109984151D01*
X105920192Y-110061142D01*
X105920197Y-110061144D01*
X106105354Y-110100500D01*
X106105355Y-110100500D01*
X106294644Y-110100500D01*
X106294646Y-110100500D01*
X106479803Y-110061144D01*
X106652730Y-109984151D01*
X106710012Y-109942533D01*
X106775818Y-109919052D01*
X106843872Y-109934877D01*
X106870578Y-109955168D01*
X107995224Y-111079815D01*
X109099197Y-112183788D01*
X109109022Y-112196051D01*
X109109243Y-112195869D01*
X109114214Y-112201878D01*
X109140217Y-112226295D01*
X109164635Y-112249226D01*
X109185529Y-112270120D01*
X109191011Y-112274373D01*
X109195443Y-112278157D01*
X109229418Y-112310062D01*
X109246976Y-112319714D01*
X109263235Y-112330395D01*
X109279064Y-112342673D01*
X109321838Y-112361182D01*
X109327056Y-112363738D01*
X109367908Y-112386197D01*
X109387316Y-112391180D01*
X109405717Y-112397480D01*
X109424104Y-112405437D01*
X109467488Y-112412308D01*
X109470119Y-112412725D01*
X109475839Y-112413909D01*
X109520981Y-112425500D01*
X109541016Y-112425500D01*
X109560414Y-112427026D01*
X109580194Y-112430159D01*
X109580195Y-112430160D01*
X109580195Y-112430159D01*
X109580196Y-112430160D01*
X109626584Y-112425775D01*
X109632422Y-112425500D01*
X112789548Y-112425500D01*
X112856587Y-112445185D01*
X112877229Y-112461819D01*
X115161038Y-114745628D01*
X115194523Y-114806951D01*
X115196678Y-114820347D01*
X115202132Y-114872237D01*
X115214326Y-114988256D01*
X115214327Y-114988259D01*
X115272818Y-115168277D01*
X115272820Y-115168281D01*
X115272821Y-115168284D01*
X115326434Y-115261144D01*
X115342228Y-115288501D01*
X115358700Y-115356401D01*
X115335847Y-115422428D01*
X115280925Y-115465618D01*
X115234840Y-115474500D01*
X114682737Y-115474500D01*
X114667120Y-115472776D01*
X114667093Y-115473062D01*
X114659331Y-115472327D01*
X114590203Y-115474500D01*
X114560650Y-115474500D01*
X114559929Y-115474590D01*
X114553757Y-115475369D01*
X114547945Y-115475826D01*
X114501372Y-115477290D01*
X114501369Y-115477291D01*
X114482126Y-115482881D01*
X114463083Y-115486825D01*
X114443204Y-115489336D01*
X114443203Y-115489337D01*
X114399878Y-115506490D01*
X114394352Y-115508382D01*
X114349608Y-115521383D01*
X114349604Y-115521385D01*
X114332365Y-115531580D01*
X114314898Y-115540137D01*
X114296269Y-115547512D01*
X114296267Y-115547513D01*
X114258564Y-115574906D01*
X114253682Y-115578112D01*
X114213580Y-115601828D01*
X114199408Y-115616000D01*
X114184623Y-115628628D01*
X114168412Y-115640407D01*
X114138709Y-115676310D01*
X114134777Y-115680630D01*
X114099196Y-115716212D01*
X113952226Y-115863182D01*
X113890906Y-115896666D01*
X113864547Y-115899500D01*
X113805354Y-115899500D01*
X113772897Y-115906398D01*
X113620197Y-115938855D01*
X113620192Y-115938857D01*
X113447270Y-116015848D01*
X113447265Y-116015851D01*
X113294129Y-116127111D01*
X113167466Y-116267785D01*
X113072821Y-116431715D01*
X113072818Y-116431722D01*
X113030767Y-116561144D01*
X113014326Y-116611744D01*
X112994540Y-116800000D01*
X113014326Y-116988256D01*
X113014327Y-116988259D01*
X113072818Y-117168277D01*
X113072821Y-117168284D01*
X113167467Y-117332216D01*
X113263487Y-117438857D01*
X113294129Y-117472888D01*
X113447265Y-117584148D01*
X113447270Y-117584151D01*
X113620192Y-117661142D01*
X113620197Y-117661144D01*
X113805354Y-117700500D01*
X113805355Y-117700500D01*
X113994644Y-117700500D01*
X113994646Y-117700500D01*
X114179803Y-117661144D01*
X114352730Y-117584151D01*
X114505871Y-117472888D01*
X114632533Y-117332216D01*
X114727179Y-117168284D01*
X114785674Y-116988256D01*
X114801619Y-116836536D01*
X114828203Y-116771924D01*
X114885501Y-116731939D01*
X114924940Y-116725500D01*
X119389548Y-116725500D01*
X119456587Y-116745185D01*
X119477229Y-116761819D01*
X121153228Y-118437819D01*
X121186713Y-118499142D01*
X121181729Y-118568834D01*
X121139857Y-118624767D01*
X121074393Y-118649184D01*
X121065547Y-118649500D01*
X100962230Y-118649500D01*
X100895191Y-118629815D01*
X100874549Y-118613181D01*
X93275729Y-111014361D01*
X93263949Y-111000730D01*
X93256482Y-110990701D01*
X93249612Y-110981472D01*
X93249610Y-110981470D01*
X93209587Y-110947886D01*
X93205612Y-110944244D01*
X93202690Y-110941322D01*
X93199780Y-110938411D01*
X93174040Y-110918059D01*
X93115209Y-110868694D01*
X93109180Y-110864729D01*
X93109212Y-110864680D01*
X93102853Y-110860628D01*
X93102822Y-110860679D01*
X93096680Y-110856891D01*
X93096678Y-110856890D01*
X93096677Y-110856889D01*
X93057474Y-110838608D01*
X93027058Y-110824424D01*
X92992894Y-110807267D01*
X92958433Y-110789960D01*
X92958431Y-110789959D01*
X92958430Y-110789959D01*
X92951645Y-110787489D01*
X92951665Y-110787433D01*
X92944549Y-110784959D01*
X92944531Y-110785015D01*
X92937671Y-110782742D01*
X92909841Y-110776996D01*
X92862434Y-110767207D01*
X92813472Y-110755603D01*
X92787719Y-110749499D01*
X92780547Y-110748661D01*
X92780553Y-110748601D01*
X92773055Y-110747835D01*
X92773050Y-110747895D01*
X92765860Y-110747265D01*
X92689083Y-110749500D01*
X86939337Y-110749500D01*
X86872298Y-110729815D01*
X86866452Y-110725818D01*
X86852734Y-110715851D01*
X86852729Y-110715848D01*
X86679807Y-110638857D01*
X86679802Y-110638855D01*
X86534001Y-110607865D01*
X86494646Y-110599500D01*
X86305354Y-110599500D01*
X86272897Y-110606398D01*
X86120197Y-110638855D01*
X86120192Y-110638857D01*
X85947270Y-110715848D01*
X85947265Y-110715851D01*
X85794129Y-110827111D01*
X85667466Y-110967785D01*
X85572821Y-111131715D01*
X85572818Y-111131722D01*
X85521412Y-111289935D01*
X85514326Y-111311744D01*
X85494540Y-111500000D01*
X85514326Y-111688256D01*
X85514327Y-111688259D01*
X85572818Y-111868277D01*
X85572821Y-111868284D01*
X85667467Y-112032216D01*
X85756655Y-112131269D01*
X85794129Y-112172888D01*
X85947265Y-112284148D01*
X85947270Y-112284151D01*
X86120192Y-112361142D01*
X86120197Y-112361144D01*
X86305354Y-112400500D01*
X86305355Y-112400500D01*
X86494644Y-112400500D01*
X86494646Y-112400500D01*
X86679803Y-112361144D01*
X86852730Y-112284151D01*
X86866201Y-112274364D01*
X86866452Y-112274182D01*
X86932258Y-112250702D01*
X86939337Y-112250500D01*
X92337770Y-112250500D01*
X92404809Y-112270185D01*
X92425451Y-112286819D01*
X100024267Y-119885634D01*
X100036048Y-119899266D01*
X100050390Y-119918530D01*
X100090420Y-119952119D01*
X100094392Y-119955759D01*
X100100223Y-119961590D01*
X100100222Y-119961590D01*
X100124435Y-119980734D01*
X100125944Y-119981927D01*
X100184786Y-120031302D01*
X100184794Y-120031306D01*
X100190824Y-120035273D01*
X100190790Y-120035323D01*
X100197137Y-120039366D01*
X100197169Y-120039316D01*
X100203318Y-120043108D01*
X100203320Y-120043109D01*
X100203323Y-120043111D01*
X100272930Y-120075569D01*
X100341567Y-120110040D01*
X100341576Y-120110042D01*
X100348355Y-120112510D01*
X100348334Y-120112567D01*
X100355451Y-120115040D01*
X100355470Y-120114984D01*
X100362330Y-120117257D01*
X100437532Y-120132784D01*
X100512279Y-120150500D01*
X100512288Y-120150500D01*
X100519452Y-120151338D01*
X100519445Y-120151397D01*
X100526946Y-120152163D01*
X100526952Y-120152104D01*
X100534140Y-120152733D01*
X100534143Y-120152732D01*
X100534144Y-120152733D01*
X100610898Y-120150500D01*
X138088770Y-120150500D01*
X138155809Y-120170185D01*
X138201564Y-120222989D01*
X138211508Y-120292147D01*
X138182483Y-120355703D01*
X138176451Y-120362181D01*
X138025451Y-120513181D01*
X137964128Y-120546666D01*
X137937770Y-120549500D01*
X90999500Y-120549500D01*
X90932461Y-120529815D01*
X90886706Y-120477011D01*
X90875500Y-120425500D01*
X90875499Y-119400005D01*
X90875499Y-118377128D01*
X90869091Y-118317517D01*
X90866553Y-118310713D01*
X90818797Y-118182671D01*
X90818793Y-118182664D01*
X90732547Y-118067455D01*
X90732544Y-118067452D01*
X90617335Y-117981206D01*
X90617328Y-117981202D01*
X90482482Y-117930908D01*
X90482483Y-117930908D01*
X90422883Y-117924501D01*
X90422881Y-117924500D01*
X90422873Y-117924500D01*
X90422864Y-117924500D01*
X88377129Y-117924500D01*
X88377123Y-117924501D01*
X88317516Y-117930908D01*
X88182671Y-117981202D01*
X88182664Y-117981206D01*
X88067455Y-118067452D01*
X88067452Y-118067455D01*
X87981206Y-118182664D01*
X87981202Y-118182671D01*
X87930908Y-118317517D01*
X87924501Y-118377116D01*
X87924501Y-118377123D01*
X87924500Y-118377135D01*
X87924501Y-120425500D01*
X87904816Y-120492539D01*
X87852013Y-120538294D01*
X87800501Y-120549500D01*
X85630011Y-120549500D01*
X85562972Y-120529815D01*
X85517217Y-120477011D01*
X85507273Y-120407853D01*
X85536298Y-120344297D01*
X85538781Y-120341517D01*
X85541579Y-120338477D01*
X85568368Y-120309377D01*
X85702111Y-120104667D01*
X85800336Y-119880736D01*
X85860364Y-119643692D01*
X85860365Y-119643683D01*
X85880557Y-119400005D01*
X85880557Y-119399994D01*
X85860365Y-119156316D01*
X85860363Y-119156304D01*
X85825660Y-119019265D01*
X85800336Y-118919264D01*
X85702111Y-118695333D01*
X85671961Y-118649184D01*
X85568367Y-118490621D01*
X85402757Y-118310722D01*
X85402747Y-118310713D01*
X85209791Y-118160529D01*
X85209787Y-118160526D01*
X84994734Y-118044145D01*
X84994729Y-118044143D01*
X84763458Y-117964748D01*
X84540726Y-117927581D01*
X84522263Y-117924500D01*
X84277737Y-117924500D01*
X84259274Y-117927581D01*
X84036541Y-117964748D01*
X83805270Y-118044143D01*
X83805265Y-118044145D01*
X83590212Y-118160526D01*
X83590208Y-118160529D01*
X83397252Y-118310713D01*
X83397242Y-118310722D01*
X83231632Y-118490621D01*
X83097888Y-118695333D01*
X82999663Y-118919265D01*
X82939636Y-119156304D01*
X82939634Y-119156316D01*
X82919443Y-119399994D01*
X82919443Y-119400005D01*
X82939634Y-119643683D01*
X82939636Y-119643695D01*
X82999663Y-119880734D01*
X83097888Y-120104666D01*
X83231629Y-120309374D01*
X83261219Y-120341517D01*
X83292141Y-120404172D01*
X83284281Y-120473598D01*
X83240133Y-120527753D01*
X83173716Y-120549444D01*
X83169989Y-120549500D01*
X80630011Y-120549500D01*
X80562972Y-120529815D01*
X80517217Y-120477011D01*
X80507273Y-120407853D01*
X80536298Y-120344297D01*
X80538781Y-120341517D01*
X80541579Y-120338477D01*
X80568368Y-120309377D01*
X80702111Y-120104667D01*
X80800336Y-119880736D01*
X80860364Y-119643692D01*
X80860365Y-119643683D01*
X80880557Y-119400005D01*
X80880557Y-119399994D01*
X80860365Y-119156316D01*
X80860363Y-119156304D01*
X80825660Y-119019265D01*
X80800336Y-118919264D01*
X80702111Y-118695333D01*
X80671961Y-118649184D01*
X80568367Y-118490621D01*
X80402757Y-118310722D01*
X80402747Y-118310713D01*
X80209791Y-118160529D01*
X80209787Y-118160526D01*
X79994734Y-118044145D01*
X79994729Y-118044143D01*
X79763458Y-117964748D01*
X79540726Y-117927581D01*
X79522263Y-117924500D01*
X79277737Y-117924500D01*
X79259274Y-117927581D01*
X79036541Y-117964748D01*
X78805270Y-118044143D01*
X78805265Y-118044145D01*
X78590212Y-118160526D01*
X78590208Y-118160529D01*
X78397252Y-118310713D01*
X78397242Y-118310722D01*
X78231632Y-118490621D01*
X78097888Y-118695333D01*
X77999663Y-118919266D01*
X77999660Y-118919274D01*
X77948357Y-119121863D01*
X77912818Y-119182018D01*
X77850397Y-119213410D01*
X77780914Y-119206072D01*
X77740471Y-119179103D01*
X69764639Y-111203271D01*
X69734389Y-111153909D01*
X69727179Y-111131716D01*
X69632533Y-110967784D01*
X69505871Y-110827112D01*
X69505870Y-110827111D01*
X69352734Y-110715851D01*
X69352729Y-110715848D01*
X69179807Y-110638857D01*
X69179802Y-110638855D01*
X69034001Y-110607865D01*
X68994646Y-110599500D01*
X68805354Y-110599500D01*
X68772897Y-110606398D01*
X68620197Y-110638855D01*
X68620192Y-110638857D01*
X68447270Y-110715848D01*
X68447265Y-110715851D01*
X68294129Y-110827111D01*
X68167466Y-110967785D01*
X68072821Y-111131715D01*
X68072818Y-111131722D01*
X68021412Y-111289935D01*
X68014326Y-111311744D01*
X67994540Y-111500000D01*
X68014326Y-111688256D01*
X68014327Y-111688259D01*
X68072818Y-111868277D01*
X68072821Y-111868284D01*
X68167467Y-112032216D01*
X68256655Y-112131269D01*
X68294129Y-112172888D01*
X68447265Y-112284148D01*
X68447270Y-112284151D01*
X68620192Y-112361142D01*
X68620197Y-112361144D01*
X68805354Y-112400500D01*
X68805355Y-112400500D01*
X68811711Y-112401851D01*
X68811105Y-112404700D01*
X68863965Y-112426398D01*
X68874148Y-112435516D01*
X78224270Y-121785638D01*
X78236051Y-121799270D01*
X78250388Y-121818528D01*
X78290409Y-121852111D01*
X78294397Y-121855766D01*
X78300216Y-121861585D01*
X78300220Y-121861588D01*
X78300223Y-121861591D01*
X78325959Y-121881940D01*
X78384786Y-121931302D01*
X78384787Y-121931302D01*
X78384789Y-121931304D01*
X78390818Y-121935270D01*
X78390785Y-121935319D01*
X78397147Y-121939372D01*
X78397179Y-121939321D01*
X78403319Y-121943108D01*
X78403323Y-121943111D01*
X78438132Y-121959343D01*
X78472941Y-121975575D01*
X78532756Y-122005615D01*
X78541567Y-122010040D01*
X78541569Y-122010040D01*
X78548357Y-122012511D01*
X78548336Y-122012567D01*
X78555457Y-122015043D01*
X78555476Y-122014986D01*
X78562322Y-122017254D01*
X78562327Y-122017257D01*
X78562332Y-122017258D01*
X78562335Y-122017259D01*
X78637565Y-122032792D01*
X78712279Y-122050500D01*
X78712282Y-122050500D01*
X78712286Y-122050501D01*
X78719453Y-122051339D01*
X78719446Y-122051398D01*
X78726944Y-122052164D01*
X78726950Y-122052105D01*
X78734139Y-122052734D01*
X78734143Y-122052733D01*
X78734144Y-122052734D01*
X78810917Y-122050500D01*
X104948933Y-122050500D01*
X105015972Y-122070185D01*
X105061727Y-122122989D01*
X105071671Y-122192147D01*
X105065115Y-122217832D01*
X105055909Y-122242514D01*
X105055908Y-122242516D01*
X105049501Y-122302116D01*
X105049501Y-122302123D01*
X105049500Y-122302135D01*
X105049500Y-124097870D01*
X105049501Y-124097876D01*
X105055908Y-124157483D01*
X105106202Y-124292328D01*
X105106206Y-124292335D01*
X105192452Y-124407544D01*
X105192455Y-124407547D01*
X105307664Y-124493793D01*
X105307671Y-124493797D01*
X105442517Y-124544091D01*
X105442516Y-124544091D01*
X105449444Y-124544835D01*
X105502127Y-124550500D01*
X107297872Y-124550499D01*
X107357483Y-124544091D01*
X107492331Y-124493796D01*
X107607546Y-124407546D01*
X107693796Y-124292331D01*
X107744091Y-124157483D01*
X107750500Y-124097873D01*
X107750499Y-122302128D01*
X107744091Y-122242517D01*
X107744090Y-122242514D01*
X107734885Y-122217832D01*
X107729901Y-122148140D01*
X107763387Y-122086818D01*
X107824711Y-122053333D01*
X107851067Y-122050500D01*
X112856243Y-122050500D01*
X112923282Y-122070185D01*
X112969037Y-122122989D01*
X112978981Y-122192147D01*
X112949956Y-122255703D01*
X112941675Y-122264374D01*
X112875083Y-122327673D01*
X112875082Y-122327675D01*
X112764646Y-122486342D01*
X112688413Y-122663987D01*
X112649500Y-122853343D01*
X112649500Y-123898207D01*
X112664154Y-124042322D01*
X112722022Y-124226759D01*
X112722029Y-124226774D01*
X112815839Y-124395788D01*
X112815842Y-124395793D01*
X112941758Y-124542466D01*
X112941759Y-124542468D01*
X113094624Y-124660794D01*
X113094627Y-124660796D01*
X113268184Y-124745930D01*
X113268188Y-124745931D01*
X113268186Y-124745931D01*
X113455317Y-124794383D01*
X113455320Y-124794383D01*
X113455326Y-124794385D01*
X113648390Y-124804176D01*
X113839474Y-124774903D01*
X114020753Y-124707764D01*
X114184807Y-124605509D01*
X114324919Y-124472323D01*
X114435353Y-124313658D01*
X114511587Y-124136012D01*
X114550500Y-123946656D01*
X114550500Y-122901794D01*
X114535845Y-122757679D01*
X114535845Y-122757677D01*
X114477977Y-122573240D01*
X114477975Y-122573236D01*
X114477974Y-122573232D01*
X114384159Y-122404209D01*
X114384158Y-122404208D01*
X114384157Y-122404206D01*
X114256299Y-122255270D01*
X114227567Y-122191582D01*
X114237829Y-122122470D01*
X114283827Y-122069877D01*
X114350385Y-122050500D01*
X119456243Y-122050500D01*
X119523282Y-122070185D01*
X119569037Y-122122989D01*
X119578981Y-122192147D01*
X119549956Y-122255703D01*
X119541675Y-122264374D01*
X119475083Y-122327673D01*
X119475082Y-122327675D01*
X119364646Y-122486342D01*
X119288413Y-122663987D01*
X119249500Y-122853343D01*
X119249500Y-123898207D01*
X119264154Y-124042322D01*
X119322022Y-124226759D01*
X119322029Y-124226774D01*
X119415839Y-124395788D01*
X119415842Y-124395793D01*
X119541758Y-124542466D01*
X119541759Y-124542468D01*
X119694624Y-124660794D01*
X119694627Y-124660796D01*
X119868184Y-124745930D01*
X119868188Y-124745931D01*
X119868186Y-124745931D01*
X120055317Y-124794383D01*
X120055320Y-124794383D01*
X120055326Y-124794385D01*
X120248390Y-124804176D01*
X120439474Y-124774903D01*
X120620753Y-124707764D01*
X120784807Y-124605509D01*
X120924919Y-124472323D01*
X121035353Y-124313658D01*
X121111587Y-124136012D01*
X121150500Y-123946656D01*
X121150500Y-122901794D01*
X121135845Y-122757679D01*
X121135845Y-122757677D01*
X121077977Y-122573240D01*
X121077975Y-122573236D01*
X121077974Y-122573232D01*
X120984159Y-122404209D01*
X120984158Y-122404208D01*
X120984157Y-122404206D01*
X120856299Y-122255270D01*
X120827567Y-122191582D01*
X120837829Y-122122470D01*
X120883827Y-122069877D01*
X120950385Y-122050500D01*
X132956243Y-122050500D01*
X133023282Y-122070185D01*
X133069037Y-122122989D01*
X133078981Y-122192147D01*
X133049956Y-122255703D01*
X133041675Y-122264374D01*
X132975083Y-122327673D01*
X132975082Y-122327675D01*
X132864646Y-122486342D01*
X132788413Y-122663987D01*
X132749500Y-122853343D01*
X132749500Y-123898207D01*
X132764154Y-124042322D01*
X132822022Y-124226759D01*
X132822029Y-124226774D01*
X132915839Y-124395788D01*
X132915842Y-124395793D01*
X133041758Y-124542466D01*
X133041759Y-124542468D01*
X133194624Y-124660794D01*
X133194627Y-124660796D01*
X133368184Y-124745930D01*
X133368188Y-124745931D01*
X133368186Y-124745931D01*
X133555317Y-124794383D01*
X133555320Y-124794383D01*
X133555326Y-124794385D01*
X133748390Y-124804176D01*
X133939474Y-124774903D01*
X134120753Y-124707764D01*
X134284807Y-124605509D01*
X134424919Y-124472323D01*
X134535353Y-124313658D01*
X134611587Y-124136012D01*
X134650500Y-123946656D01*
X134650500Y-123898207D01*
X139349500Y-123898207D01*
X139364154Y-124042322D01*
X139422022Y-124226759D01*
X139422029Y-124226774D01*
X139515839Y-124395788D01*
X139515842Y-124395793D01*
X139641758Y-124542466D01*
X139641759Y-124542468D01*
X139794624Y-124660794D01*
X139794627Y-124660796D01*
X139968184Y-124745930D01*
X139968188Y-124745931D01*
X139968186Y-124745931D01*
X140155317Y-124794383D01*
X140155320Y-124794383D01*
X140155326Y-124794385D01*
X140348390Y-124804176D01*
X140539474Y-124774903D01*
X140720753Y-124707764D01*
X140884807Y-124605509D01*
X141024919Y-124472323D01*
X141135353Y-124313658D01*
X141211587Y-124136012D01*
X141250500Y-123946656D01*
X141250500Y-122901794D01*
X141235845Y-122757679D01*
X141235845Y-122757677D01*
X141177977Y-122573240D01*
X141177975Y-122573236D01*
X141177974Y-122573232D01*
X141084159Y-122404209D01*
X141084158Y-122404208D01*
X141084157Y-122404206D01*
X140958241Y-122257533D01*
X140958240Y-122257531D01*
X140805375Y-122139205D01*
X140805371Y-122139203D01*
X140798396Y-122135781D01*
X140631816Y-122054070D01*
X140631814Y-122054069D01*
X140631811Y-122054068D01*
X140631813Y-122054068D01*
X140444682Y-122005616D01*
X140444676Y-122005615D01*
X140315964Y-121999087D01*
X140251610Y-121995824D01*
X140251609Y-121995824D01*
X140251607Y-121995824D01*
X140060533Y-122025095D01*
X140060521Y-122025098D01*
X139879251Y-122092234D01*
X139879242Y-122092238D01*
X139715196Y-122194488D01*
X139575080Y-122327677D01*
X139464646Y-122486342D01*
X139388413Y-122663987D01*
X139349500Y-122853343D01*
X139349500Y-123898207D01*
X134650500Y-123898207D01*
X134650500Y-122901794D01*
X134635845Y-122757679D01*
X134635845Y-122757677D01*
X134577977Y-122573240D01*
X134577975Y-122573236D01*
X134577974Y-122573232D01*
X134484159Y-122404209D01*
X134484158Y-122404208D01*
X134484157Y-122404206D01*
X134356299Y-122255270D01*
X134327567Y-122191582D01*
X134337829Y-122122470D01*
X134383827Y-122069877D01*
X134450385Y-122050500D01*
X138236295Y-122050500D01*
X138254265Y-122051809D01*
X138278023Y-122055289D01*
X138330068Y-122050735D01*
X138335470Y-122050500D01*
X138343704Y-122050500D01*
X138343709Y-122050500D01*
X138355327Y-122049141D01*
X138376276Y-122046693D01*
X138389028Y-122045577D01*
X138452797Y-122039999D01*
X138452805Y-122039996D01*
X138459866Y-122038539D01*
X138459878Y-122038598D01*
X138467243Y-122036965D01*
X138467229Y-122036906D01*
X138474246Y-122035241D01*
X138474255Y-122035241D01*
X138546423Y-122008974D01*
X138619334Y-121984814D01*
X138619343Y-121984807D01*
X138625882Y-121981760D01*
X138625908Y-121981816D01*
X138632690Y-121978532D01*
X138632663Y-121978478D01*
X138639106Y-121975240D01*
X138639117Y-121975237D01*
X138703283Y-121933034D01*
X138768656Y-121892712D01*
X138768662Y-121892705D01*
X138774325Y-121888229D01*
X138774363Y-121888277D01*
X138780200Y-121883522D01*
X138780161Y-121883475D01*
X138785696Y-121878830D01*
X138838385Y-121822983D01*
X141642103Y-119019264D01*
X142685642Y-117975724D01*
X142699271Y-117963947D01*
X142718530Y-117949610D01*
X142733539Y-117931722D01*
X142752101Y-117909601D01*
X142755761Y-117905606D01*
X142761591Y-117899777D01*
X142772954Y-117885404D01*
X142781940Y-117874041D01*
X142792537Y-117861411D01*
X142804218Y-117847490D01*
X142862387Y-117808789D01*
X142932248Y-117807679D01*
X142991619Y-117844515D01*
X143021649Y-117907602D01*
X143023206Y-117927581D01*
X143009806Y-122242514D01*
X143004514Y-123946656D01*
X143000384Y-125276385D01*
X142980492Y-125343363D01*
X142927546Y-125388954D01*
X142876385Y-125400000D01*
X54724000Y-125400000D01*
X54656961Y-125380315D01*
X54611206Y-125327511D01*
X54600000Y-125276000D01*
X54600000Y-119500005D01*
X61066943Y-119500005D01*
X61087134Y-119743683D01*
X61087136Y-119743695D01*
X61147163Y-119980734D01*
X61245388Y-120204666D01*
X61379132Y-120409378D01*
X61544742Y-120589277D01*
X61544752Y-120589286D01*
X61737708Y-120739470D01*
X61737712Y-120739473D01*
X61909697Y-120832547D01*
X61952767Y-120855855D01*
X61952770Y-120855856D01*
X62184041Y-120935251D01*
X62184043Y-120935251D01*
X62184045Y-120935252D01*
X62425237Y-120975500D01*
X62425238Y-120975500D01*
X62669762Y-120975500D01*
X62669763Y-120975500D01*
X62910955Y-120935252D01*
X63142233Y-120855855D01*
X63357288Y-120739473D01*
X63550254Y-120589281D01*
X63715868Y-120409377D01*
X63849611Y-120204667D01*
X63947836Y-119980736D01*
X64007864Y-119743692D01*
X64016150Y-119643695D01*
X64028057Y-119500005D01*
X66066943Y-119500005D01*
X66087134Y-119743683D01*
X66087136Y-119743695D01*
X66147163Y-119980734D01*
X66245388Y-120204666D01*
X66379132Y-120409378D01*
X66544742Y-120589277D01*
X66544752Y-120589286D01*
X66737708Y-120739470D01*
X66737712Y-120739473D01*
X66909697Y-120832547D01*
X66952767Y-120855855D01*
X66952770Y-120855856D01*
X67184041Y-120935251D01*
X67184043Y-120935251D01*
X67184045Y-120935252D01*
X67425237Y-120975500D01*
X67425238Y-120975500D01*
X67669762Y-120975500D01*
X67669763Y-120975500D01*
X67910955Y-120935252D01*
X68142233Y-120855855D01*
X68357288Y-120739473D01*
X68550254Y-120589281D01*
X68611390Y-120522870D01*
X71072000Y-120522870D01*
X71072001Y-120522876D01*
X71078408Y-120582483D01*
X71128702Y-120717328D01*
X71128706Y-120717335D01*
X71214952Y-120832544D01*
X71214955Y-120832547D01*
X71330164Y-120918793D01*
X71330171Y-120918797D01*
X71465017Y-120969091D01*
X71465016Y-120969091D01*
X71471944Y-120969835D01*
X71524627Y-120975500D01*
X73570372Y-120975499D01*
X73629983Y-120969091D01*
X73764831Y-120918796D01*
X73880046Y-120832546D01*
X73966296Y-120717331D01*
X74016591Y-120582483D01*
X74023000Y-120522873D01*
X74022999Y-118477128D01*
X74016591Y-118417517D01*
X74014053Y-118410713D01*
X73966297Y-118282671D01*
X73966293Y-118282664D01*
X73880047Y-118167455D01*
X73880044Y-118167452D01*
X73764835Y-118081206D01*
X73764828Y-118081202D01*
X73629982Y-118030908D01*
X73629983Y-118030908D01*
X73570383Y-118024501D01*
X73570381Y-118024500D01*
X73570373Y-118024500D01*
X73570364Y-118024500D01*
X71524629Y-118024500D01*
X71524623Y-118024501D01*
X71465016Y-118030908D01*
X71330171Y-118081202D01*
X71330164Y-118081206D01*
X71214955Y-118167452D01*
X71214952Y-118167455D01*
X71128706Y-118282664D01*
X71128702Y-118282671D01*
X71078408Y-118417517D01*
X71072001Y-118477116D01*
X71072001Y-118477123D01*
X71072000Y-118477135D01*
X71072000Y-120522870D01*
X68611390Y-120522870D01*
X68715868Y-120409377D01*
X68849611Y-120204667D01*
X68947836Y-119980736D01*
X69007864Y-119743692D01*
X69016150Y-119643695D01*
X69028057Y-119500005D01*
X69028057Y-119499994D01*
X69007865Y-119256316D01*
X69007863Y-119256304D01*
X68947836Y-119019265D01*
X68849611Y-118795333D01*
X68715867Y-118590621D01*
X68550257Y-118410722D01*
X68550247Y-118410713D01*
X68357291Y-118260529D01*
X68357287Y-118260526D01*
X68142234Y-118144145D01*
X68142229Y-118144143D01*
X67910958Y-118064748D01*
X67708164Y-118030908D01*
X67669763Y-118024500D01*
X67425237Y-118024500D01*
X67386836Y-118030908D01*
X67184041Y-118064748D01*
X66952770Y-118144143D01*
X66952765Y-118144145D01*
X66737712Y-118260526D01*
X66737708Y-118260529D01*
X66544752Y-118410713D01*
X66544742Y-118410722D01*
X66379132Y-118590621D01*
X66245388Y-118795333D01*
X66147163Y-119019265D01*
X66087136Y-119256304D01*
X66087134Y-119256316D01*
X66066943Y-119499994D01*
X66066943Y-119500005D01*
X64028057Y-119500005D01*
X64028057Y-119499994D01*
X64007865Y-119256316D01*
X64007863Y-119256304D01*
X63947836Y-119019265D01*
X63849611Y-118795333D01*
X63715867Y-118590621D01*
X63550257Y-118410722D01*
X63550247Y-118410713D01*
X63357291Y-118260529D01*
X63357287Y-118260526D01*
X63142234Y-118144145D01*
X63142229Y-118144143D01*
X62910958Y-118064748D01*
X62708164Y-118030908D01*
X62669763Y-118024500D01*
X62425237Y-118024500D01*
X62386836Y-118030908D01*
X62184041Y-118064748D01*
X61952770Y-118144143D01*
X61952765Y-118144145D01*
X61737712Y-118260526D01*
X61737708Y-118260529D01*
X61544752Y-118410713D01*
X61544742Y-118410722D01*
X61379132Y-118590621D01*
X61245388Y-118795333D01*
X61147163Y-119019265D01*
X61087136Y-119256304D01*
X61087134Y-119256316D01*
X61066943Y-119499994D01*
X61066943Y-119500005D01*
X54600000Y-119500005D01*
X54600000Y-111678202D01*
X54619685Y-111611163D01*
X54670568Y-111566305D01*
X62835439Y-107667763D01*
X95145787Y-107667763D01*
X95175413Y-107937013D01*
X95175415Y-107937024D01*
X95235744Y-108167784D01*
X95243928Y-108199088D01*
X95349870Y-108448390D01*
X95465379Y-108637658D01*
X95490979Y-108679605D01*
X95490986Y-108679615D01*
X95664253Y-108887819D01*
X95664259Y-108887824D01*
X95865998Y-109068582D01*
X96091910Y-109218044D01*
X96337176Y-109333020D01*
X96337183Y-109333022D01*
X96337185Y-109333023D01*
X96596557Y-109411057D01*
X96596564Y-109411058D01*
X96596569Y-109411060D01*
X96864561Y-109450500D01*
X96864566Y-109450500D01*
X97067636Y-109450500D01*
X97119133Y-109446730D01*
X97270156Y-109435677D01*
X97382758Y-109410593D01*
X97534546Y-109376782D01*
X97534548Y-109376781D01*
X97534553Y-109376780D01*
X97787558Y-109280014D01*
X98023777Y-109147441D01*
X98238177Y-108981888D01*
X98426186Y-108786881D01*
X98583799Y-108566579D01*
X98661293Y-108415851D01*
X98707649Y-108325690D01*
X98707651Y-108325684D01*
X98707656Y-108325675D01*
X98795118Y-108069305D01*
X98844319Y-107802933D01*
X98844419Y-107800222D01*
X98854212Y-107532235D01*
X98839340Y-107397075D01*
X98824586Y-107262982D01*
X98756072Y-107000912D01*
X98650130Y-106751610D01*
X98509018Y-106520390D01*
X98419747Y-106413119D01*
X98335746Y-106312180D01*
X98335740Y-106312175D01*
X98134002Y-106131418D01*
X97908092Y-105981957D01*
X97855882Y-105957482D01*
X97662824Y-105866980D01*
X97662819Y-105866978D01*
X97662814Y-105866976D01*
X97403442Y-105788942D01*
X97403428Y-105788939D01*
X97287791Y-105771921D01*
X97135439Y-105749500D01*
X96932369Y-105749500D01*
X96932364Y-105749500D01*
X96729844Y-105764323D01*
X96729831Y-105764325D01*
X96465453Y-105823217D01*
X96465446Y-105823220D01*
X96212439Y-105919987D01*
X95976226Y-106052557D01*
X95976224Y-106052558D01*
X95976223Y-106052559D01*
X95942049Y-106078947D01*
X95761822Y-106218112D01*
X95573822Y-106413109D01*
X95573816Y-106413116D01*
X95416202Y-106633419D01*
X95416199Y-106633424D01*
X95292350Y-106874309D01*
X95292343Y-106874327D01*
X95204884Y-107130685D01*
X95204881Y-107130699D01*
X95155681Y-107397068D01*
X95155680Y-107397075D01*
X95145787Y-107667763D01*
X62835439Y-107667763D01*
X75543396Y-101600000D01*
X81394540Y-101600000D01*
X81414326Y-101788256D01*
X81414327Y-101788259D01*
X81472818Y-101968277D01*
X81472821Y-101968284D01*
X81567467Y-102132216D01*
X81694129Y-102272888D01*
X81847265Y-102384148D01*
X81847270Y-102384151D01*
X82020192Y-102461142D01*
X82020197Y-102461144D01*
X82205354Y-102500500D01*
X82205355Y-102500500D01*
X82394644Y-102500500D01*
X82394646Y-102500500D01*
X82579803Y-102461144D01*
X82752730Y-102384151D01*
X82905871Y-102272888D01*
X83032533Y-102132216D01*
X83127179Y-101968284D01*
X83185674Y-101788256D01*
X83205460Y-101600000D01*
X83185674Y-101411744D01*
X83127179Y-101231716D01*
X83067113Y-101127677D01*
X83050500Y-101065677D01*
X83050500Y-95234321D01*
X83067113Y-95172321D01*
X83069732Y-95167785D01*
X83127179Y-95068284D01*
X83150058Y-94997870D01*
X85049500Y-94997870D01*
X85049501Y-94997876D01*
X85055908Y-95057483D01*
X85106202Y-95192328D01*
X85106206Y-95192335D01*
X85192452Y-95307544D01*
X85192455Y-95307547D01*
X85307664Y-95393793D01*
X85307671Y-95393797D01*
X85442517Y-95444091D01*
X85442516Y-95444091D01*
X85449444Y-95444835D01*
X85502127Y-95450500D01*
X87297872Y-95450499D01*
X87357483Y-95444091D01*
X87492331Y-95393796D01*
X87607546Y-95307546D01*
X87693796Y-95192331D01*
X87744091Y-95057483D01*
X87750500Y-94997873D01*
X87750499Y-93202128D01*
X87744091Y-93142517D01*
X87729620Y-93103719D01*
X87693797Y-93007671D01*
X87693793Y-93007664D01*
X87607547Y-92892455D01*
X87607544Y-92892452D01*
X87492335Y-92806206D01*
X87492328Y-92806202D01*
X87357482Y-92755908D01*
X87357483Y-92755908D01*
X87297883Y-92749501D01*
X87297881Y-92749500D01*
X87297873Y-92749500D01*
X87297864Y-92749500D01*
X85502129Y-92749500D01*
X85502123Y-92749501D01*
X85442516Y-92755908D01*
X85307671Y-92806202D01*
X85307664Y-92806206D01*
X85192455Y-92892452D01*
X85192452Y-92892455D01*
X85106206Y-93007664D01*
X85106202Y-93007671D01*
X85055908Y-93142517D01*
X85049501Y-93202116D01*
X85049501Y-93202123D01*
X85049500Y-93202135D01*
X85049500Y-94997870D01*
X83150058Y-94997870D01*
X83182522Y-94897955D01*
X83212769Y-94848597D01*
X83435642Y-94625724D01*
X83449271Y-94613947D01*
X83450148Y-94613294D01*
X83468530Y-94599610D01*
X83502101Y-94559601D01*
X83505761Y-94555606D01*
X83511590Y-94549778D01*
X83531941Y-94524039D01*
X83542261Y-94511740D01*
X83581302Y-94465214D01*
X83581306Y-94465205D01*
X83585274Y-94459175D01*
X83585325Y-94459208D01*
X83589372Y-94452856D01*
X83589320Y-94452824D01*
X83593112Y-94446675D01*
X83625575Y-94377058D01*
X83643116Y-94342128D01*
X83660040Y-94308433D01*
X83660042Y-94308421D01*
X83662509Y-94301646D01*
X83662567Y-94301667D01*
X83665043Y-94294546D01*
X83664986Y-94294528D01*
X83667257Y-94287673D01*
X83682792Y-94212434D01*
X83693374Y-94167785D01*
X83700500Y-94137721D01*
X83700500Y-94137710D01*
X83701338Y-94130548D01*
X83701398Y-94130555D01*
X83702164Y-94123055D01*
X83702105Y-94123050D01*
X83702734Y-94115860D01*
X83700500Y-94039082D01*
X83700500Y-73413705D01*
X83701809Y-73395735D01*
X83705289Y-73371974D01*
X83700736Y-73319939D01*
X83700500Y-73314532D01*
X83700500Y-73306297D01*
X83700500Y-73306291D01*
X83696691Y-73273707D01*
X83689998Y-73197202D01*
X83689996Y-73197197D01*
X83688538Y-73190133D01*
X83688597Y-73190120D01*
X83686967Y-73182764D01*
X83686908Y-73182779D01*
X83685242Y-73175753D01*
X83685241Y-73175745D01*
X83658973Y-73103573D01*
X83657083Y-73097870D01*
X84949500Y-73097870D01*
X84949501Y-73097876D01*
X84955908Y-73157483D01*
X85006202Y-73292328D01*
X85006206Y-73292335D01*
X85092452Y-73407544D01*
X85092455Y-73407547D01*
X85207664Y-73493793D01*
X85207671Y-73493797D01*
X85342517Y-73544091D01*
X85342516Y-73544091D01*
X85349444Y-73544835D01*
X85402127Y-73550500D01*
X87197872Y-73550499D01*
X87257483Y-73544091D01*
X87392331Y-73493796D01*
X87507546Y-73407546D01*
X87593796Y-73292331D01*
X87644091Y-73157483D01*
X87650500Y-73097873D01*
X87650499Y-71302128D01*
X87644091Y-71242517D01*
X87593796Y-71107669D01*
X87593795Y-71107668D01*
X87593793Y-71107664D01*
X87507547Y-70992455D01*
X87507544Y-70992452D01*
X87392335Y-70906206D01*
X87392328Y-70906202D01*
X87257482Y-70855908D01*
X87257483Y-70855908D01*
X87197883Y-70849501D01*
X87197881Y-70849500D01*
X87197873Y-70849500D01*
X87197864Y-70849500D01*
X85402129Y-70849500D01*
X85402123Y-70849501D01*
X85342516Y-70855908D01*
X85207671Y-70906202D01*
X85207664Y-70906206D01*
X85092455Y-70992452D01*
X85092452Y-70992455D01*
X85006206Y-71107664D01*
X85006202Y-71107671D01*
X84955908Y-71242517D01*
X84949501Y-71302116D01*
X84949501Y-71302123D01*
X84949500Y-71302135D01*
X84949500Y-73097870D01*
X83657083Y-73097870D01*
X83657081Y-73097864D01*
X83634815Y-73030666D01*
X83631763Y-73024121D01*
X83631817Y-73024095D01*
X83628533Y-73017312D01*
X83628480Y-73017340D01*
X83625238Y-73010885D01*
X83625237Y-73010883D01*
X83583029Y-72946709D01*
X83542711Y-72881344D01*
X83542710Y-72881343D01*
X83542709Y-72881341D01*
X83538233Y-72875681D01*
X83538280Y-72875643D01*
X83533519Y-72869799D01*
X83533474Y-72869838D01*
X83528834Y-72864309D01*
X83528832Y-72864307D01*
X83528830Y-72864304D01*
X83498061Y-72835275D01*
X83472966Y-72811598D01*
X83392868Y-72731501D01*
X83312768Y-72651401D01*
X83282522Y-72602043D01*
X83227179Y-72431716D01*
X83132533Y-72267784D01*
X83005871Y-72127112D01*
X83005870Y-72127111D01*
X82852734Y-72015851D01*
X82852729Y-72015848D01*
X82679807Y-71938857D01*
X82679802Y-71938855D01*
X82534001Y-71907865D01*
X82494646Y-71899500D01*
X82305354Y-71899500D01*
X82272897Y-71906398D01*
X82120197Y-71938855D01*
X82120192Y-71938857D01*
X81947270Y-72015848D01*
X81947265Y-72015851D01*
X81794129Y-72127111D01*
X81667466Y-72267785D01*
X81572821Y-72431715D01*
X81572818Y-72431722D01*
X81518017Y-72600383D01*
X81514326Y-72611744D01*
X81494540Y-72800000D01*
X81514326Y-72988256D01*
X81514327Y-72988259D01*
X81572818Y-73168277D01*
X81572821Y-73168284D01*
X81667467Y-73332216D01*
X81794129Y-73472888D01*
X81947265Y-73584148D01*
X81947266Y-73584148D01*
X81947270Y-73584151D01*
X82120197Y-73661144D01*
X82125936Y-73663699D01*
X82179173Y-73708949D01*
X82199494Y-73775798D01*
X82199500Y-73776978D01*
X82199500Y-93687770D01*
X82179815Y-93754809D01*
X82163178Y-93775454D01*
X82147226Y-93791405D01*
X82085902Y-93824888D01*
X82085330Y-93825011D01*
X82020196Y-93838856D01*
X82020192Y-93838857D01*
X81847270Y-93915848D01*
X81847265Y-93915851D01*
X81694129Y-94027111D01*
X81567466Y-94167785D01*
X81472821Y-94331715D01*
X81472818Y-94331722D01*
X81429444Y-94465215D01*
X81414326Y-94511744D01*
X81394540Y-94700000D01*
X81414326Y-94888256D01*
X81414327Y-94888259D01*
X81472818Y-95068277D01*
X81472821Y-95068284D01*
X81530267Y-95167784D01*
X81532887Y-95172321D01*
X81549500Y-95234321D01*
X81549500Y-101065677D01*
X81532887Y-101127677D01*
X81472821Y-101231714D01*
X81470050Y-101240243D01*
X81414326Y-101411744D01*
X81394540Y-101600000D01*
X75543396Y-101600000D01*
X76800000Y-101000000D01*
X76800000Y-70297844D01*
X101750000Y-70297844D01*
X101756401Y-70357372D01*
X101756403Y-70357379D01*
X101806645Y-70492086D01*
X101806649Y-70492093D01*
X101892809Y-70607187D01*
X101892812Y-70607190D01*
X102007906Y-70693350D01*
X102007913Y-70693354D01*
X102142620Y-70743596D01*
X102142627Y-70743598D01*
X102202155Y-70749999D01*
X102202172Y-70750000D01*
X102850000Y-70750000D01*
X102850000Y-69835501D01*
X102957685Y-69884680D01*
X103064237Y-69900000D01*
X103135763Y-69900000D01*
X103242315Y-69884680D01*
X103350000Y-69835501D01*
X103350000Y-70750000D01*
X103997828Y-70750000D01*
X103997844Y-70749999D01*
X104057372Y-70743598D01*
X104057379Y-70743596D01*
X104192086Y-70693354D01*
X104192093Y-70693350D01*
X104307187Y-70607190D01*
X104307190Y-70607187D01*
X104393350Y-70492093D01*
X104393354Y-70492086D01*
X104443596Y-70357379D01*
X104443598Y-70357372D01*
X104449999Y-70297844D01*
X104450000Y-70297827D01*
X104450000Y-69650000D01*
X103533686Y-69650000D01*
X103559493Y-69609844D01*
X103600000Y-69471889D01*
X103600000Y-69328111D01*
X103559493Y-69190156D01*
X103533686Y-69150000D01*
X104450000Y-69150000D01*
X104450000Y-68502172D01*
X104449999Y-68502155D01*
X104443598Y-68442627D01*
X104443596Y-68442620D01*
X104393354Y-68307913D01*
X104393350Y-68307906D01*
X104307190Y-68192812D01*
X104307187Y-68192809D01*
X104192093Y-68106649D01*
X104192086Y-68106645D01*
X104057379Y-68056403D01*
X104057372Y-68056401D01*
X103997844Y-68050000D01*
X103350000Y-68050000D01*
X103350000Y-68964498D01*
X103242315Y-68915320D01*
X103135763Y-68900000D01*
X103064237Y-68900000D01*
X102957685Y-68915320D01*
X102850000Y-68964498D01*
X102850000Y-68050000D01*
X102202155Y-68050000D01*
X102142627Y-68056401D01*
X102142620Y-68056403D01*
X102007913Y-68106645D01*
X102007906Y-68106649D01*
X101892812Y-68192809D01*
X101892809Y-68192812D01*
X101806649Y-68307906D01*
X101806645Y-68307913D01*
X101756403Y-68442620D01*
X101756401Y-68442627D01*
X101750000Y-68502155D01*
X101750000Y-69150000D01*
X102666314Y-69150000D01*
X102640507Y-69190156D01*
X102600000Y-69328111D01*
X102600000Y-69471889D01*
X102640507Y-69609844D01*
X102666314Y-69650000D01*
X101750000Y-69650000D01*
X101750000Y-70297844D01*
X76800000Y-70297844D01*
X76800000Y-64467763D01*
X89745787Y-64467763D01*
X89775413Y-64737013D01*
X89775415Y-64737024D01*
X89843926Y-64999082D01*
X89843928Y-64999088D01*
X89949870Y-65248390D01*
X90021998Y-65366575D01*
X90090979Y-65479605D01*
X90090986Y-65479615D01*
X90264253Y-65687819D01*
X90264259Y-65687824D01*
X90465998Y-65868582D01*
X90691910Y-66018044D01*
X90937176Y-66133020D01*
X90937183Y-66133022D01*
X90937185Y-66133023D01*
X91196557Y-66211057D01*
X91196564Y-66211058D01*
X91196569Y-66211060D01*
X91464561Y-66250500D01*
X91464566Y-66250500D01*
X91667636Y-66250500D01*
X91719133Y-66246730D01*
X91870156Y-66235677D01*
X91982758Y-66210593D01*
X92134546Y-66176782D01*
X92134548Y-66176781D01*
X92134553Y-66176780D01*
X92387558Y-66080014D01*
X92623777Y-65947441D01*
X92838177Y-65781888D01*
X93026186Y-65586881D01*
X93183799Y-65366579D01*
X93257787Y-65222669D01*
X93307649Y-65125690D01*
X93307651Y-65125684D01*
X93307656Y-65125675D01*
X93395118Y-64869305D01*
X93444319Y-64602933D01*
X93454212Y-64332235D01*
X93424586Y-64062982D01*
X93356072Y-63800912D01*
X93250130Y-63551610D01*
X93109018Y-63320390D01*
X93107845Y-63318981D01*
X92935746Y-63112180D01*
X92935740Y-63112175D01*
X92734002Y-62931418D01*
X92508092Y-62781957D01*
X92472809Y-62765417D01*
X92262824Y-62666980D01*
X92262819Y-62666978D01*
X92262814Y-62666976D01*
X92003442Y-62588942D01*
X92003428Y-62588939D01*
X91887791Y-62571921D01*
X91735439Y-62549500D01*
X91532369Y-62549500D01*
X91532364Y-62549500D01*
X91329844Y-62564323D01*
X91329831Y-62564325D01*
X91065453Y-62623217D01*
X91065446Y-62623220D01*
X90812439Y-62719987D01*
X90576226Y-62852557D01*
X90361822Y-63018112D01*
X90173822Y-63213109D01*
X90173816Y-63213116D01*
X90016202Y-63433419D01*
X90016199Y-63433424D01*
X89892350Y-63674309D01*
X89892343Y-63674327D01*
X89804884Y-63930685D01*
X89804881Y-63930699D01*
X89755681Y-64197068D01*
X89755680Y-64197075D01*
X89745787Y-64467763D01*
X76800000Y-64467763D01*
X76800000Y-60924373D01*
X76819685Y-60857334D01*
X76872489Y-60811579D01*
X76924370Y-60800374D01*
X143075989Y-60999626D01*
G37*
%TD.AperFunction*%
%TD*%
M02*
