%TF.GenerationSoftware,KiCad,Pcbnew,7.0.9*%
%TF.CreationDate,2024-04-07T16:06:58-05:00*%
%TF.ProjectId,Humidifier Subsystem,48756d69-6469-4666-9965-722053756273,rev?*%
%TF.SameCoordinates,Original*%
%TF.FileFunction,Legend,Bot*%
%TF.FilePolarity,Positive*%
%FSLAX46Y46*%
G04 Gerber Fmt 4.6, Leading zero omitted, Abs format (unit mm)*
G04 Created by KiCad (PCBNEW 7.0.9) date 2024-04-07 16:06:58*
%MOMM*%
%LPD*%
G01*
G04 APERTURE LIST*
%ADD10C,0.250000*%
G04 APERTURE END LIST*
D10*
X58045380Y-92673621D02*
X59045380Y-92673621D01*
X58569190Y-92673621D02*
X58569190Y-92102193D01*
X58045380Y-92102193D02*
X59045380Y-92102193D01*
X58045380Y-91626002D02*
X59045380Y-91626002D01*
X58997761Y-90626003D02*
X59045380Y-90721241D01*
X59045380Y-90721241D02*
X59045380Y-90864098D01*
X59045380Y-90864098D02*
X58997761Y-91006955D01*
X58997761Y-91006955D02*
X58902523Y-91102193D01*
X58902523Y-91102193D02*
X58807285Y-91149812D01*
X58807285Y-91149812D02*
X58616809Y-91197431D01*
X58616809Y-91197431D02*
X58473952Y-91197431D01*
X58473952Y-91197431D02*
X58283476Y-91149812D01*
X58283476Y-91149812D02*
X58188238Y-91102193D01*
X58188238Y-91102193D02*
X58093000Y-91006955D01*
X58093000Y-91006955D02*
X58045380Y-90864098D01*
X58045380Y-90864098D02*
X58045380Y-90768860D01*
X58045380Y-90768860D02*
X58093000Y-90626003D01*
X58093000Y-90626003D02*
X58140619Y-90578384D01*
X58140619Y-90578384D02*
X58473952Y-90578384D01*
X58473952Y-90578384D02*
X58473952Y-90768860D01*
X58045380Y-90149812D02*
X59045380Y-90149812D01*
X58569190Y-90149812D02*
X58569190Y-89578384D01*
X58045380Y-89578384D02*
X59045380Y-89578384D01*
X57435380Y-94340288D02*
X56435380Y-94006955D01*
X56435380Y-94006955D02*
X57435380Y-93673622D01*
X57435380Y-93149812D02*
X57435380Y-92959336D01*
X57435380Y-92959336D02*
X57387761Y-92864098D01*
X57387761Y-92864098D02*
X57292523Y-92768860D01*
X57292523Y-92768860D02*
X57102047Y-92721241D01*
X57102047Y-92721241D02*
X56768714Y-92721241D01*
X56768714Y-92721241D02*
X56578238Y-92768860D01*
X56578238Y-92768860D02*
X56483000Y-92864098D01*
X56483000Y-92864098D02*
X56435380Y-92959336D01*
X56435380Y-92959336D02*
X56435380Y-93149812D01*
X56435380Y-93149812D02*
X56483000Y-93245050D01*
X56483000Y-93245050D02*
X56578238Y-93340288D01*
X56578238Y-93340288D02*
X56768714Y-93387907D01*
X56768714Y-93387907D02*
X57102047Y-93387907D01*
X57102047Y-93387907D02*
X57292523Y-93340288D01*
X57292523Y-93340288D02*
X57387761Y-93245050D01*
X57387761Y-93245050D02*
X57435380Y-93149812D01*
X56435380Y-91816479D02*
X56435380Y-92292669D01*
X56435380Y-92292669D02*
X57435380Y-92292669D01*
X57435380Y-91626002D02*
X57435380Y-91054574D01*
X56435380Y-91340288D02*
X57435380Y-91340288D01*
X56721095Y-90768859D02*
X56721095Y-90292669D01*
X56435380Y-90864097D02*
X57435380Y-90530764D01*
X57435380Y-90530764D02*
X56435380Y-90197431D01*
X57387761Y-89340288D02*
X57435380Y-89435526D01*
X57435380Y-89435526D02*
X57435380Y-89578383D01*
X57435380Y-89578383D02*
X57387761Y-89721240D01*
X57387761Y-89721240D02*
X57292523Y-89816478D01*
X57292523Y-89816478D02*
X57197285Y-89864097D01*
X57197285Y-89864097D02*
X57006809Y-89911716D01*
X57006809Y-89911716D02*
X56863952Y-89911716D01*
X56863952Y-89911716D02*
X56673476Y-89864097D01*
X56673476Y-89864097D02*
X56578238Y-89816478D01*
X56578238Y-89816478D02*
X56483000Y-89721240D01*
X56483000Y-89721240D02*
X56435380Y-89578383D01*
X56435380Y-89578383D02*
X56435380Y-89483145D01*
X56435380Y-89483145D02*
X56483000Y-89340288D01*
X56483000Y-89340288D02*
X56530619Y-89292669D01*
X56530619Y-89292669D02*
X56863952Y-89292669D01*
X56863952Y-89292669D02*
X56863952Y-89483145D01*
X56959190Y-88864097D02*
X56959190Y-88530764D01*
X56435380Y-88387907D02*
X56435380Y-88864097D01*
X56435380Y-88864097D02*
X57435380Y-88864097D01*
X57435380Y-88864097D02*
X57435380Y-88387907D01*
X57945380Y-70673621D02*
X58945380Y-70673621D01*
X58469190Y-70673621D02*
X58469190Y-70102193D01*
X57945380Y-70102193D02*
X58945380Y-70102193D01*
X57945380Y-69626002D02*
X58945380Y-69626002D01*
X58897761Y-68626003D02*
X58945380Y-68721241D01*
X58945380Y-68721241D02*
X58945380Y-68864098D01*
X58945380Y-68864098D02*
X58897761Y-69006955D01*
X58897761Y-69006955D02*
X58802523Y-69102193D01*
X58802523Y-69102193D02*
X58707285Y-69149812D01*
X58707285Y-69149812D02*
X58516809Y-69197431D01*
X58516809Y-69197431D02*
X58373952Y-69197431D01*
X58373952Y-69197431D02*
X58183476Y-69149812D01*
X58183476Y-69149812D02*
X58088238Y-69102193D01*
X58088238Y-69102193D02*
X57993000Y-69006955D01*
X57993000Y-69006955D02*
X57945380Y-68864098D01*
X57945380Y-68864098D02*
X57945380Y-68768860D01*
X57945380Y-68768860D02*
X57993000Y-68626003D01*
X57993000Y-68626003D02*
X58040619Y-68578384D01*
X58040619Y-68578384D02*
X58373952Y-68578384D01*
X58373952Y-68578384D02*
X58373952Y-68768860D01*
X57945380Y-68149812D02*
X58945380Y-68149812D01*
X58469190Y-68149812D02*
X58469190Y-67578384D01*
X57945380Y-67578384D02*
X58945380Y-67578384D01*
X57335380Y-72340288D02*
X56335380Y-72006955D01*
X56335380Y-72006955D02*
X57335380Y-71673622D01*
X57335380Y-71149812D02*
X57335380Y-70959336D01*
X57335380Y-70959336D02*
X57287761Y-70864098D01*
X57287761Y-70864098D02*
X57192523Y-70768860D01*
X57192523Y-70768860D02*
X57002047Y-70721241D01*
X57002047Y-70721241D02*
X56668714Y-70721241D01*
X56668714Y-70721241D02*
X56478238Y-70768860D01*
X56478238Y-70768860D02*
X56383000Y-70864098D01*
X56383000Y-70864098D02*
X56335380Y-70959336D01*
X56335380Y-70959336D02*
X56335380Y-71149812D01*
X56335380Y-71149812D02*
X56383000Y-71245050D01*
X56383000Y-71245050D02*
X56478238Y-71340288D01*
X56478238Y-71340288D02*
X56668714Y-71387907D01*
X56668714Y-71387907D02*
X57002047Y-71387907D01*
X57002047Y-71387907D02*
X57192523Y-71340288D01*
X57192523Y-71340288D02*
X57287761Y-71245050D01*
X57287761Y-71245050D02*
X57335380Y-71149812D01*
X56335380Y-69816479D02*
X56335380Y-70292669D01*
X56335380Y-70292669D02*
X57335380Y-70292669D01*
X57335380Y-69626002D02*
X57335380Y-69054574D01*
X56335380Y-69340288D02*
X57335380Y-69340288D01*
X56621095Y-68768859D02*
X56621095Y-68292669D01*
X56335380Y-68864097D02*
X57335380Y-68530764D01*
X57335380Y-68530764D02*
X56335380Y-68197431D01*
X57287761Y-67340288D02*
X57335380Y-67435526D01*
X57335380Y-67435526D02*
X57335380Y-67578383D01*
X57335380Y-67578383D02*
X57287761Y-67721240D01*
X57287761Y-67721240D02*
X57192523Y-67816478D01*
X57192523Y-67816478D02*
X57097285Y-67864097D01*
X57097285Y-67864097D02*
X56906809Y-67911716D01*
X56906809Y-67911716D02*
X56763952Y-67911716D01*
X56763952Y-67911716D02*
X56573476Y-67864097D01*
X56573476Y-67864097D02*
X56478238Y-67816478D01*
X56478238Y-67816478D02*
X56383000Y-67721240D01*
X56383000Y-67721240D02*
X56335380Y-67578383D01*
X56335380Y-67578383D02*
X56335380Y-67483145D01*
X56335380Y-67483145D02*
X56383000Y-67340288D01*
X56383000Y-67340288D02*
X56430619Y-67292669D01*
X56430619Y-67292669D02*
X56763952Y-67292669D01*
X56763952Y-67292669D02*
X56763952Y-67483145D01*
X56859190Y-66864097D02*
X56859190Y-66530764D01*
X56335380Y-66387907D02*
X56335380Y-66864097D01*
X56335380Y-66864097D02*
X57335380Y-66864097D01*
X57335380Y-66864097D02*
X57335380Y-66387907D01*
X87045050Y-123378904D02*
X86568860Y-123378904D01*
X87140288Y-123664619D02*
X86806955Y-122664619D01*
X86806955Y-122664619D02*
X86473622Y-123664619D01*
X86140288Y-122997952D02*
X86140288Y-123664619D01*
X86140288Y-123093190D02*
X86092669Y-123045571D01*
X86092669Y-123045571D02*
X85997431Y-122997952D01*
X85997431Y-122997952D02*
X85854574Y-122997952D01*
X85854574Y-122997952D02*
X85759336Y-123045571D01*
X85759336Y-123045571D02*
X85711717Y-123140809D01*
X85711717Y-123140809D02*
X85711717Y-123664619D01*
X84806955Y-123664619D02*
X84806955Y-122664619D01*
X84806955Y-123617000D02*
X84902193Y-123664619D01*
X84902193Y-123664619D02*
X85092669Y-123664619D01*
X85092669Y-123664619D02*
X85187907Y-123617000D01*
X85187907Y-123617000D02*
X85235526Y-123569380D01*
X85235526Y-123569380D02*
X85283145Y-123474142D01*
X85283145Y-123474142D02*
X85283145Y-123188428D01*
X85283145Y-123188428D02*
X85235526Y-123093190D01*
X85235526Y-123093190D02*
X85187907Y-123045571D01*
X85187907Y-123045571D02*
X85092669Y-122997952D01*
X85092669Y-122997952D02*
X84902193Y-122997952D01*
X84902193Y-122997952D02*
X84806955Y-123045571D01*
X84330764Y-123664619D02*
X84330764Y-122997952D01*
X84330764Y-123188428D02*
X84283145Y-123093190D01*
X84283145Y-123093190D02*
X84235526Y-123045571D01*
X84235526Y-123045571D02*
X84140288Y-122997952D01*
X84140288Y-122997952D02*
X84045050Y-122997952D01*
X83330764Y-123617000D02*
X83426002Y-123664619D01*
X83426002Y-123664619D02*
X83616478Y-123664619D01*
X83616478Y-123664619D02*
X83711716Y-123617000D01*
X83711716Y-123617000D02*
X83759335Y-123521761D01*
X83759335Y-123521761D02*
X83759335Y-123140809D01*
X83759335Y-123140809D02*
X83711716Y-123045571D01*
X83711716Y-123045571D02*
X83616478Y-122997952D01*
X83616478Y-122997952D02*
X83426002Y-122997952D01*
X83426002Y-122997952D02*
X83330764Y-123045571D01*
X83330764Y-123045571D02*
X83283145Y-123140809D01*
X83283145Y-123140809D02*
X83283145Y-123236047D01*
X83283145Y-123236047D02*
X83759335Y-123331285D01*
X82949811Y-122997952D02*
X82759335Y-123664619D01*
X82759335Y-123664619D02*
X82568859Y-123188428D01*
X82568859Y-123188428D02*
X82378383Y-123664619D01*
X82378383Y-123664619D02*
X82187907Y-122997952D01*
X81092668Y-123617000D02*
X80949811Y-123664619D01*
X80949811Y-123664619D02*
X80711716Y-123664619D01*
X80711716Y-123664619D02*
X80616478Y-123617000D01*
X80616478Y-123617000D02*
X80568859Y-123569380D01*
X80568859Y-123569380D02*
X80521240Y-123474142D01*
X80521240Y-123474142D02*
X80521240Y-123378904D01*
X80521240Y-123378904D02*
X80568859Y-123283666D01*
X80568859Y-123283666D02*
X80616478Y-123236047D01*
X80616478Y-123236047D02*
X80711716Y-123188428D01*
X80711716Y-123188428D02*
X80902192Y-123140809D01*
X80902192Y-123140809D02*
X80997430Y-123093190D01*
X80997430Y-123093190D02*
X81045049Y-123045571D01*
X81045049Y-123045571D02*
X81092668Y-122950333D01*
X81092668Y-122950333D02*
X81092668Y-122855095D01*
X81092668Y-122855095D02*
X81045049Y-122759857D01*
X81045049Y-122759857D02*
X80997430Y-122712238D01*
X80997430Y-122712238D02*
X80902192Y-122664619D01*
X80902192Y-122664619D02*
X80664097Y-122664619D01*
X80664097Y-122664619D02*
X80521240Y-122712238D01*
X80092668Y-123664619D02*
X80092668Y-122664619D01*
X79664097Y-123664619D02*
X79664097Y-123140809D01*
X79664097Y-123140809D02*
X79711716Y-123045571D01*
X79711716Y-123045571D02*
X79806954Y-122997952D01*
X79806954Y-122997952D02*
X79949811Y-122997952D01*
X79949811Y-122997952D02*
X80045049Y-123045571D01*
X80045049Y-123045571D02*
X80092668Y-123093190D01*
X78806954Y-123617000D02*
X78902192Y-123664619D01*
X78902192Y-123664619D02*
X79092668Y-123664619D01*
X79092668Y-123664619D02*
X79187906Y-123617000D01*
X79187906Y-123617000D02*
X79235525Y-123521761D01*
X79235525Y-123521761D02*
X79235525Y-123140809D01*
X79235525Y-123140809D02*
X79187906Y-123045571D01*
X79187906Y-123045571D02*
X79092668Y-122997952D01*
X79092668Y-122997952D02*
X78902192Y-122997952D01*
X78902192Y-122997952D02*
X78806954Y-123045571D01*
X78806954Y-123045571D02*
X78759335Y-123140809D01*
X78759335Y-123140809D02*
X78759335Y-123236047D01*
X78759335Y-123236047D02*
X79235525Y-123331285D01*
X78330763Y-123664619D02*
X78330763Y-122997952D01*
X78330763Y-123188428D02*
X78283144Y-123093190D01*
X78283144Y-123093190D02*
X78235525Y-123045571D01*
X78235525Y-123045571D02*
X78140287Y-122997952D01*
X78140287Y-122997952D02*
X78045049Y-122997952D01*
X77806953Y-122997952D02*
X77616477Y-123664619D01*
X77616477Y-123664619D02*
X77426001Y-123188428D01*
X77426001Y-123188428D02*
X77235525Y-123664619D01*
X77235525Y-123664619D02*
X77045049Y-122997952D01*
X76664096Y-123664619D02*
X76664096Y-122997952D01*
X76664096Y-122664619D02*
X76711715Y-122712238D01*
X76711715Y-122712238D02*
X76664096Y-122759857D01*
X76664096Y-122759857D02*
X76616477Y-122712238D01*
X76616477Y-122712238D02*
X76664096Y-122664619D01*
X76664096Y-122664619D02*
X76664096Y-122759857D01*
X76187906Y-122997952D02*
X76187906Y-123664619D01*
X76187906Y-123093190D02*
X76140287Y-123045571D01*
X76140287Y-123045571D02*
X76045049Y-122997952D01*
X76045049Y-122997952D02*
X75902192Y-122997952D01*
X75902192Y-122997952D02*
X75806954Y-123045571D01*
X75806954Y-123045571D02*
X75759335Y-123140809D01*
X75759335Y-123140809D02*
X75759335Y-123664619D01*
X75235525Y-123617000D02*
X75235525Y-123664619D01*
X75235525Y-123664619D02*
X75283144Y-123759857D01*
X75283144Y-123759857D02*
X75330763Y-123807476D01*
X74140287Y-122664619D02*
X73902192Y-123664619D01*
X73902192Y-123664619D02*
X73711716Y-122950333D01*
X73711716Y-122950333D02*
X73521240Y-123664619D01*
X73521240Y-123664619D02*
X73283145Y-122664619D01*
X72759335Y-123664619D02*
X72854573Y-123617000D01*
X72854573Y-123617000D02*
X72902192Y-123569380D01*
X72902192Y-123569380D02*
X72949811Y-123474142D01*
X72949811Y-123474142D02*
X72949811Y-123188428D01*
X72949811Y-123188428D02*
X72902192Y-123093190D01*
X72902192Y-123093190D02*
X72854573Y-123045571D01*
X72854573Y-123045571D02*
X72759335Y-122997952D01*
X72759335Y-122997952D02*
X72616478Y-122997952D01*
X72616478Y-122997952D02*
X72521240Y-123045571D01*
X72521240Y-123045571D02*
X72473621Y-123093190D01*
X72473621Y-123093190D02*
X72426002Y-123188428D01*
X72426002Y-123188428D02*
X72426002Y-123474142D01*
X72426002Y-123474142D02*
X72473621Y-123569380D01*
X72473621Y-123569380D02*
X72521240Y-123617000D01*
X72521240Y-123617000D02*
X72616478Y-123664619D01*
X72616478Y-123664619D02*
X72759335Y-123664619D01*
X71854573Y-123664619D02*
X71949811Y-123617000D01*
X71949811Y-123617000D02*
X71997430Y-123569380D01*
X71997430Y-123569380D02*
X72045049Y-123474142D01*
X72045049Y-123474142D02*
X72045049Y-123188428D01*
X72045049Y-123188428D02*
X71997430Y-123093190D01*
X71997430Y-123093190D02*
X71949811Y-123045571D01*
X71949811Y-123045571D02*
X71854573Y-122997952D01*
X71854573Y-122997952D02*
X71711716Y-122997952D01*
X71711716Y-122997952D02*
X71616478Y-123045571D01*
X71616478Y-123045571D02*
X71568859Y-123093190D01*
X71568859Y-123093190D02*
X71521240Y-123188428D01*
X71521240Y-123188428D02*
X71521240Y-123474142D01*
X71521240Y-123474142D02*
X71568859Y-123569380D01*
X71568859Y-123569380D02*
X71616478Y-123617000D01*
X71616478Y-123617000D02*
X71711716Y-123664619D01*
X71711716Y-123664619D02*
X71854573Y-123664619D01*
X71092668Y-122997952D02*
X71092668Y-123855095D01*
X71092668Y-123855095D02*
X71140287Y-123950333D01*
X71140287Y-123950333D02*
X71235525Y-123997952D01*
X71235525Y-123997952D02*
X71283144Y-123997952D01*
X71092668Y-122664619D02*
X71140287Y-122712238D01*
X71140287Y-122712238D02*
X71092668Y-122759857D01*
X71092668Y-122759857D02*
X71045049Y-122712238D01*
X71045049Y-122712238D02*
X71092668Y-122664619D01*
X71092668Y-122664619D02*
X71092668Y-122759857D01*
X70616478Y-123664619D02*
X70616478Y-122997952D01*
X70616478Y-122664619D02*
X70664097Y-122712238D01*
X70664097Y-122712238D02*
X70616478Y-122759857D01*
X70616478Y-122759857D02*
X70568859Y-122712238D01*
X70568859Y-122712238D02*
X70616478Y-122664619D01*
X70616478Y-122664619D02*
X70616478Y-122759857D01*
X70140288Y-122997952D02*
X70140288Y-123664619D01*
X70140288Y-123093190D02*
X70092669Y-123045571D01*
X70092669Y-123045571D02*
X69997431Y-122997952D01*
X69997431Y-122997952D02*
X69854574Y-122997952D01*
X69854574Y-122997952D02*
X69759336Y-123045571D01*
X69759336Y-123045571D02*
X69711717Y-123140809D01*
X69711717Y-123140809D02*
X69711717Y-123664619D01*
X68473621Y-123664619D02*
X68473621Y-122664619D01*
X67902193Y-123664619D02*
X68330764Y-123093190D01*
X67902193Y-122664619D02*
X68473621Y-123236047D01*
X67473621Y-123664619D02*
X67473621Y-122997952D01*
X67473621Y-122664619D02*
X67521240Y-122712238D01*
X67521240Y-122712238D02*
X67473621Y-122759857D01*
X67473621Y-122759857D02*
X67426002Y-122712238D01*
X67426002Y-122712238D02*
X67473621Y-122664619D01*
X67473621Y-122664619D02*
X67473621Y-122759857D01*
X66997431Y-123664619D02*
X66997431Y-122997952D01*
X66997431Y-123093190D02*
X66949812Y-123045571D01*
X66949812Y-123045571D02*
X66854574Y-122997952D01*
X66854574Y-122997952D02*
X66711717Y-122997952D01*
X66711717Y-122997952D02*
X66616479Y-123045571D01*
X66616479Y-123045571D02*
X66568860Y-123140809D01*
X66568860Y-123140809D02*
X66568860Y-123664619D01*
X66568860Y-123140809D02*
X66521241Y-123045571D01*
X66521241Y-123045571D02*
X66426003Y-122997952D01*
X66426003Y-122997952D02*
X66283146Y-122997952D01*
X66283146Y-122997952D02*
X66187907Y-123045571D01*
X66187907Y-123045571D02*
X66140288Y-123140809D01*
X66140288Y-123140809D02*
X66140288Y-123664619D01*
X65616479Y-123617000D02*
X65616479Y-123664619D01*
X65616479Y-123664619D02*
X65664098Y-123759857D01*
X65664098Y-123759857D02*
X65711717Y-123807476D01*
X64140289Y-122664619D02*
X64140289Y-123378904D01*
X64140289Y-123378904D02*
X64187908Y-123521761D01*
X64187908Y-123521761D02*
X64283146Y-123617000D01*
X64283146Y-123617000D02*
X64426003Y-123664619D01*
X64426003Y-123664619D02*
X64521241Y-123664619D01*
X63235527Y-123664619D02*
X63235527Y-123140809D01*
X63235527Y-123140809D02*
X63283146Y-123045571D01*
X63283146Y-123045571D02*
X63378384Y-122997952D01*
X63378384Y-122997952D02*
X63568860Y-122997952D01*
X63568860Y-122997952D02*
X63664098Y-123045571D01*
X63235527Y-123617000D02*
X63330765Y-123664619D01*
X63330765Y-123664619D02*
X63568860Y-123664619D01*
X63568860Y-123664619D02*
X63664098Y-123617000D01*
X63664098Y-123617000D02*
X63711717Y-123521761D01*
X63711717Y-123521761D02*
X63711717Y-123426523D01*
X63711717Y-123426523D02*
X63664098Y-123331285D01*
X63664098Y-123331285D02*
X63568860Y-123283666D01*
X63568860Y-123283666D02*
X63330765Y-123283666D01*
X63330765Y-123283666D02*
X63235527Y-123236047D01*
X62616479Y-123664619D02*
X62711717Y-123617000D01*
X62711717Y-123617000D02*
X62759336Y-123521761D01*
X62759336Y-123521761D02*
X62759336Y-122664619D01*
X61854574Y-123617000D02*
X61949812Y-123664619D01*
X61949812Y-123664619D02*
X62140288Y-123664619D01*
X62140288Y-123664619D02*
X62235526Y-123617000D01*
X62235526Y-123617000D02*
X62283145Y-123521761D01*
X62283145Y-123521761D02*
X62283145Y-123140809D01*
X62283145Y-123140809D02*
X62235526Y-123045571D01*
X62235526Y-123045571D02*
X62140288Y-122997952D01*
X62140288Y-122997952D02*
X61949812Y-122997952D01*
X61949812Y-122997952D02*
X61854574Y-123045571D01*
X61854574Y-123045571D02*
X61806955Y-123140809D01*
X61806955Y-123140809D02*
X61806955Y-123236047D01*
X61806955Y-123236047D02*
X62283145Y-123331285D01*
X61378383Y-122997952D02*
X61378383Y-123664619D01*
X61378383Y-123093190D02*
X61330764Y-123045571D01*
X61330764Y-123045571D02*
X61235526Y-122997952D01*
X61235526Y-122997952D02*
X61092669Y-122997952D01*
X61092669Y-122997952D02*
X60997431Y-123045571D01*
X60997431Y-123045571D02*
X60949812Y-123140809D01*
X60949812Y-123140809D02*
X60949812Y-123664619D01*
X59140288Y-123569380D02*
X59187907Y-123617000D01*
X59187907Y-123617000D02*
X59330764Y-123664619D01*
X59330764Y-123664619D02*
X59426002Y-123664619D01*
X59426002Y-123664619D02*
X59568859Y-123617000D01*
X59568859Y-123617000D02*
X59664097Y-123521761D01*
X59664097Y-123521761D02*
X59711716Y-123426523D01*
X59711716Y-123426523D02*
X59759335Y-123236047D01*
X59759335Y-123236047D02*
X59759335Y-123093190D01*
X59759335Y-123093190D02*
X59711716Y-122902714D01*
X59711716Y-122902714D02*
X59664097Y-122807476D01*
X59664097Y-122807476D02*
X59568859Y-122712238D01*
X59568859Y-122712238D02*
X59426002Y-122664619D01*
X59426002Y-122664619D02*
X59330764Y-122664619D01*
X59330764Y-122664619D02*
X59187907Y-122712238D01*
X59187907Y-122712238D02*
X59140288Y-122759857D01*
X58711716Y-123664619D02*
X58711716Y-122664619D01*
X58283145Y-123664619D02*
X58283145Y-123140809D01*
X58283145Y-123140809D02*
X58330764Y-123045571D01*
X58330764Y-123045571D02*
X58426002Y-122997952D01*
X58426002Y-122997952D02*
X58568859Y-122997952D01*
X58568859Y-122997952D02*
X58664097Y-123045571D01*
X58664097Y-123045571D02*
X58711716Y-123093190D01*
X57426002Y-123617000D02*
X57521240Y-123664619D01*
X57521240Y-123664619D02*
X57711716Y-123664619D01*
X57711716Y-123664619D02*
X57806954Y-123617000D01*
X57806954Y-123617000D02*
X57854573Y-123521761D01*
X57854573Y-123521761D02*
X57854573Y-123140809D01*
X57854573Y-123140809D02*
X57806954Y-123045571D01*
X57806954Y-123045571D02*
X57711716Y-122997952D01*
X57711716Y-122997952D02*
X57521240Y-122997952D01*
X57521240Y-122997952D02*
X57426002Y-123045571D01*
X57426002Y-123045571D02*
X57378383Y-123140809D01*
X57378383Y-123140809D02*
X57378383Y-123236047D01*
X57378383Y-123236047D02*
X57854573Y-123331285D01*
X56949811Y-122997952D02*
X56949811Y-123664619D01*
X56949811Y-123093190D02*
X56902192Y-123045571D01*
X56902192Y-123045571D02*
X56806954Y-122997952D01*
X56806954Y-122997952D02*
X56664097Y-122997952D01*
X56664097Y-122997952D02*
X56568859Y-123045571D01*
X56568859Y-123045571D02*
X56521240Y-123140809D01*
X56521240Y-123140809D02*
X56521240Y-123664619D01*
%TO.C,G\u002A\u002A\u002A*%
G36*
X59974501Y-93591164D02*
G01*
X59971376Y-93594290D01*
X59968250Y-93591164D01*
X59971376Y-93588039D01*
X59974501Y-93591164D01*
G37*
G36*
X59949495Y-93516146D02*
G01*
X59946369Y-93519272D01*
X59943244Y-93516146D01*
X59946369Y-93513020D01*
X59949495Y-93516146D01*
G37*
G36*
X59943244Y-93484888D02*
G01*
X59940118Y-93488014D01*
X59936992Y-93484888D01*
X59940118Y-93481762D01*
X59943244Y-93484888D01*
G37*
G36*
X63931725Y-91046788D02*
G01*
X63928599Y-91049914D01*
X63925474Y-91046788D01*
X63928599Y-91043663D01*
X63931725Y-91046788D01*
G37*
G36*
X63887964Y-91021782D02*
G01*
X63884839Y-91024908D01*
X63881713Y-91021782D01*
X63884839Y-91018656D01*
X63887964Y-91021782D01*
G37*
G36*
X63812946Y-90978021D02*
G01*
X63809820Y-90981147D01*
X63806694Y-90978021D01*
X63809820Y-90974896D01*
X63812946Y-90978021D01*
G37*
G36*
X63769185Y-90953015D02*
G01*
X63766059Y-90956141D01*
X63762934Y-90953015D01*
X63766059Y-90949889D01*
X63769185Y-90953015D01*
G37*
G36*
X63725424Y-90928009D02*
G01*
X63722299Y-90931135D01*
X63719173Y-90928009D01*
X63722299Y-90924883D01*
X63725424Y-90928009D01*
G37*
G36*
X63650406Y-90884248D02*
G01*
X63647280Y-90887374D01*
X63644154Y-90884248D01*
X63647280Y-90881123D01*
X63650406Y-90884248D01*
G37*
G36*
X63606645Y-90859242D02*
G01*
X63603519Y-90862368D01*
X63600394Y-90859242D01*
X63603519Y-90856116D01*
X63606645Y-90859242D01*
G37*
G36*
X63562884Y-90834236D02*
G01*
X63559759Y-90837362D01*
X63556633Y-90834236D01*
X63559759Y-90831110D01*
X63562884Y-90834236D01*
G37*
G36*
X63531627Y-90815481D02*
G01*
X63528501Y-90818607D01*
X63525375Y-90815481D01*
X63528501Y-90812356D01*
X63531627Y-90815481D01*
G37*
G36*
X63487866Y-90790475D02*
G01*
X63484740Y-90793601D01*
X63481614Y-90790475D01*
X63484740Y-90787349D01*
X63487866Y-90790475D01*
G37*
G36*
X63444105Y-90765469D02*
G01*
X63440979Y-90768595D01*
X63437854Y-90765469D01*
X63440979Y-90762343D01*
X63444105Y-90765469D01*
G37*
G36*
X63369087Y-90721708D02*
G01*
X63365961Y-90724834D01*
X63362835Y-90721708D01*
X63365961Y-90718583D01*
X63369087Y-90721708D01*
G37*
G36*
X63325326Y-90696702D02*
G01*
X63322200Y-90699828D01*
X63319074Y-90696702D01*
X63322200Y-90693576D01*
X63325326Y-90696702D01*
G37*
G36*
X63281565Y-90671696D02*
G01*
X63278439Y-90674822D01*
X63275314Y-90671696D01*
X63278439Y-90668570D01*
X63281565Y-90671696D01*
G37*
G36*
X63250307Y-90652941D02*
G01*
X63247182Y-90656067D01*
X63244056Y-90652941D01*
X63247182Y-90649816D01*
X63250307Y-90652941D01*
G37*
G36*
X63206547Y-90627935D02*
G01*
X63203421Y-90631061D01*
X63200295Y-90627935D01*
X63203421Y-90624809D01*
X63206547Y-90627935D01*
G37*
G36*
X63162786Y-90602929D02*
G01*
X63159660Y-90606055D01*
X63156534Y-90602929D01*
X63159660Y-90599803D01*
X63162786Y-90602929D01*
G37*
G36*
X63087767Y-90559168D02*
G01*
X63084642Y-90562294D01*
X63081516Y-90559168D01*
X63084642Y-90556043D01*
X63087767Y-90559168D01*
G37*
G36*
X63044007Y-90534162D02*
G01*
X63040881Y-90537288D01*
X63037755Y-90534162D01*
X63040881Y-90531036D01*
X63044007Y-90534162D01*
G37*
G36*
X63000246Y-90509156D02*
G01*
X62997120Y-90512282D01*
X62993994Y-90509156D01*
X62997120Y-90506030D01*
X63000246Y-90509156D01*
G37*
G36*
X62968988Y-90490401D02*
G01*
X62965862Y-90493527D01*
X62962737Y-90490401D01*
X62965862Y-90487276D01*
X62968988Y-90490401D01*
G37*
G36*
X62925227Y-90465395D02*
G01*
X62922102Y-90468521D01*
X62918976Y-90465395D01*
X62922102Y-90462269D01*
X62925227Y-90465395D01*
G37*
G36*
X62881467Y-90440389D02*
G01*
X62878341Y-90443515D01*
X62875215Y-90440389D01*
X62878341Y-90437263D01*
X62881467Y-90440389D01*
G37*
G36*
X62806448Y-90396628D02*
G01*
X62803322Y-90399754D01*
X62800197Y-90396628D01*
X62803322Y-90393503D01*
X62806448Y-90396628D01*
G37*
G36*
X62762687Y-90371622D02*
G01*
X62759562Y-90374748D01*
X62756436Y-90371622D01*
X62759562Y-90368496D01*
X62762687Y-90371622D01*
G37*
G36*
X62718927Y-90346616D02*
G01*
X62715801Y-90349742D01*
X62712675Y-90346616D01*
X62715801Y-90343490D01*
X62718927Y-90346616D01*
G37*
G36*
X62643908Y-90302855D02*
G01*
X62640782Y-90305981D01*
X62637657Y-90302855D01*
X62640782Y-90299729D01*
X62643908Y-90302855D01*
G37*
G36*
X62600147Y-90277849D02*
G01*
X62597022Y-90280975D01*
X62593896Y-90277849D01*
X62597022Y-90274723D01*
X62600147Y-90277849D01*
G37*
G36*
X62525129Y-90234088D02*
G01*
X62522003Y-90237214D01*
X62518877Y-90234088D01*
X62522003Y-90230963D01*
X62525129Y-90234088D01*
G37*
G36*
X62481368Y-90209082D02*
G01*
X62478242Y-90212208D01*
X62475117Y-90209082D01*
X62478242Y-90205956D01*
X62481368Y-90209082D01*
G37*
G36*
X62437607Y-90184076D02*
G01*
X62434482Y-90187202D01*
X62431356Y-90184076D01*
X62434482Y-90180950D01*
X62437607Y-90184076D01*
G37*
G36*
X62362589Y-90140315D02*
G01*
X62359463Y-90143441D01*
X62356337Y-90140315D01*
X62359463Y-90137189D01*
X62362589Y-90140315D01*
G37*
G36*
X62318828Y-90115309D02*
G01*
X62315702Y-90118435D01*
X62312577Y-90115309D01*
X62315702Y-90112183D01*
X62318828Y-90115309D01*
G37*
G36*
X62275067Y-90090303D02*
G01*
X62271942Y-90093429D01*
X62268816Y-90090303D01*
X62271942Y-90087177D01*
X62275067Y-90090303D01*
G37*
G36*
X62243810Y-90071548D02*
G01*
X62240684Y-90074674D01*
X62237558Y-90071548D01*
X62240684Y-90068423D01*
X62243810Y-90071548D01*
G37*
G36*
X62200049Y-90046542D02*
G01*
X62196923Y-90049668D01*
X62193797Y-90046542D01*
X62196923Y-90043416D01*
X62200049Y-90046542D01*
G37*
G36*
X62156288Y-90021536D02*
G01*
X62153162Y-90024662D01*
X62150037Y-90021536D01*
X62153162Y-90018410D01*
X62156288Y-90021536D01*
G37*
G36*
X62081270Y-89977775D02*
G01*
X62078144Y-89980901D01*
X62075018Y-89977775D01*
X62078144Y-89974649D01*
X62081270Y-89977775D01*
G37*
G36*
X62037509Y-89952769D02*
G01*
X62034383Y-89955895D01*
X62031257Y-89952769D01*
X62034383Y-89949643D01*
X62037509Y-89952769D01*
G37*
G36*
X61993748Y-89927763D02*
G01*
X61990622Y-89930889D01*
X61987497Y-89927763D01*
X61990622Y-89924637D01*
X61993748Y-89927763D01*
G37*
G36*
X61962491Y-89909008D02*
G01*
X61959365Y-89912134D01*
X61956239Y-89909008D01*
X61959365Y-89905883D01*
X61962491Y-89909008D01*
G37*
G36*
X61918730Y-89884002D02*
G01*
X61915604Y-89887128D01*
X61912478Y-89884002D01*
X61915604Y-89880876D01*
X61918730Y-89884002D01*
G37*
G36*
X61874969Y-89858996D02*
G01*
X61871843Y-89862122D01*
X61868717Y-89858996D01*
X61871843Y-89855870D01*
X61874969Y-89858996D01*
G37*
G36*
X61799951Y-89815235D02*
G01*
X61796825Y-89818361D01*
X61793699Y-89815235D01*
X61796825Y-89812109D01*
X61799951Y-89815235D01*
G37*
G36*
X61756190Y-89790229D02*
G01*
X61753064Y-89793355D01*
X61749938Y-89790229D01*
X61753064Y-89787103D01*
X61756190Y-89790229D01*
G37*
G36*
X61712429Y-89765223D02*
G01*
X61709303Y-89768349D01*
X61706177Y-89765223D01*
X61709303Y-89762097D01*
X61712429Y-89765223D01*
G37*
G36*
X61681171Y-89746468D02*
G01*
X61678046Y-89749594D01*
X61674920Y-89746468D01*
X61678046Y-89743343D01*
X61681171Y-89746468D01*
G37*
G36*
X61637411Y-89721462D02*
G01*
X61634285Y-89724588D01*
X61631159Y-89721462D01*
X61634285Y-89718336D01*
X61637411Y-89721462D01*
G37*
G36*
X61593650Y-89696456D02*
G01*
X61590524Y-89699582D01*
X61587398Y-89696456D01*
X61590524Y-89693330D01*
X61593650Y-89696456D01*
G37*
G36*
X61518631Y-89652695D02*
G01*
X61515506Y-89655821D01*
X61512380Y-89652695D01*
X61515506Y-89649569D01*
X61518631Y-89652695D01*
G37*
G36*
X61474871Y-89627689D02*
G01*
X61471745Y-89630815D01*
X61468619Y-89627689D01*
X61471745Y-89624563D01*
X61474871Y-89627689D01*
G37*
G36*
X61431110Y-89602683D02*
G01*
X61427984Y-89605809D01*
X61424858Y-89602683D01*
X61427984Y-89599557D01*
X61431110Y-89602683D01*
G37*
G36*
X61356091Y-89558922D02*
G01*
X61352966Y-89562048D01*
X61349840Y-89558922D01*
X61352966Y-89555796D01*
X61356091Y-89558922D01*
G37*
G36*
X61312331Y-89533916D02*
G01*
X61309205Y-89537042D01*
X61306079Y-89533916D01*
X61309205Y-89530790D01*
X61312331Y-89533916D01*
G37*
G36*
X61268570Y-89508910D02*
G01*
X61265444Y-89512036D01*
X61262318Y-89508910D01*
X61265444Y-89505784D01*
X61268570Y-89508910D01*
G37*
G36*
X61237312Y-89490155D02*
G01*
X61234186Y-89493281D01*
X61231061Y-89490155D01*
X61234186Y-89487029D01*
X61237312Y-89490155D01*
G37*
G36*
X61193551Y-89465149D02*
G01*
X61190426Y-89468275D01*
X61187300Y-89465149D01*
X61190426Y-89462023D01*
X61193551Y-89465149D01*
G37*
G36*
X59943244Y-89446394D02*
G01*
X59940118Y-89449520D01*
X59936992Y-89446394D01*
X59940118Y-89443269D01*
X59943244Y-89446394D01*
G37*
G36*
X61149791Y-89440143D02*
G01*
X61146665Y-89443269D01*
X61143539Y-89440143D01*
X61146665Y-89437017D01*
X61149791Y-89440143D01*
G37*
G36*
X59949495Y-89415137D02*
G01*
X59946369Y-89418263D01*
X59943244Y-89415137D01*
X59946369Y-89412011D01*
X59949495Y-89415137D01*
G37*
G36*
X61074772Y-89396382D02*
G01*
X61071646Y-89399508D01*
X61068521Y-89396382D01*
X61071646Y-89393256D01*
X61074772Y-89396382D01*
G37*
G36*
X61031011Y-89371376D02*
G01*
X61027886Y-89374502D01*
X61024760Y-89371376D01*
X61027886Y-89368250D01*
X61031011Y-89371376D01*
G37*
G36*
X59961998Y-89371376D02*
G01*
X59958873Y-89374502D01*
X59955747Y-89371376D01*
X59958873Y-89368250D01*
X59961998Y-89371376D01*
G37*
G36*
X59968250Y-89358873D02*
G01*
X59965124Y-89361999D01*
X59961998Y-89358873D01*
X59965124Y-89355747D01*
X59968250Y-89358873D01*
G37*
G36*
X60987251Y-89346370D02*
G01*
X60984125Y-89349496D01*
X60980999Y-89346370D01*
X60984125Y-89343244D01*
X60987251Y-89346370D01*
G37*
G36*
X59974501Y-89340118D02*
G01*
X59971376Y-89343244D01*
X59968250Y-89340118D01*
X59971376Y-89336993D01*
X59974501Y-89340118D01*
G37*
G36*
X60955993Y-89327615D02*
G01*
X60952867Y-89330741D01*
X60949741Y-89327615D01*
X60952867Y-89324489D01*
X60955993Y-89327615D01*
G37*
G36*
X59980753Y-89327615D02*
G01*
X59977627Y-89330741D01*
X59974501Y-89327615D01*
X59977627Y-89324489D01*
X59980753Y-89327615D01*
G37*
G36*
X59987004Y-89315112D02*
G01*
X59983879Y-89318238D01*
X59980753Y-89315112D01*
X59983879Y-89311986D01*
X59987004Y-89315112D01*
G37*
G36*
X60912232Y-89302609D02*
G01*
X60909106Y-89305735D01*
X60905981Y-89302609D01*
X60909106Y-89299483D01*
X60912232Y-89302609D01*
G37*
G36*
X59993256Y-89302609D02*
G01*
X59990130Y-89305735D01*
X59987004Y-89302609D01*
X59990130Y-89299483D01*
X59993256Y-89302609D01*
G37*
G36*
X60005759Y-89283854D02*
G01*
X60002633Y-89286980D01*
X59999508Y-89283854D01*
X60002633Y-89280729D01*
X60005759Y-89283854D01*
G37*
G36*
X60868471Y-89277603D02*
G01*
X60865346Y-89280729D01*
X60862220Y-89277603D01*
X60865346Y-89274477D01*
X60868471Y-89277603D01*
G37*
G36*
X60018262Y-89265100D02*
G01*
X60015136Y-89268226D01*
X60012011Y-89265100D01*
X60015136Y-89261974D01*
X60018262Y-89265100D01*
G37*
G36*
X60793453Y-89233842D02*
G01*
X60790327Y-89236968D01*
X60787201Y-89233842D01*
X60790327Y-89230716D01*
X60793453Y-89233842D01*
G37*
G36*
X60749692Y-89208836D02*
G01*
X60746566Y-89211962D01*
X60743441Y-89208836D01*
X60746566Y-89205710D01*
X60749692Y-89208836D01*
G37*
G36*
X60705931Y-89183830D02*
G01*
X60702806Y-89186956D01*
X60699680Y-89183830D01*
X60702806Y-89180704D01*
X60705931Y-89183830D01*
G37*
G36*
X60674674Y-89165075D02*
G01*
X60671548Y-89168201D01*
X60668422Y-89165075D01*
X60671548Y-89161949D01*
X60674674Y-89165075D01*
G37*
G36*
X60124538Y-89158824D02*
G01*
X60121413Y-89161949D01*
X60118287Y-89158824D01*
X60121413Y-89155698D01*
X60124538Y-89158824D01*
G37*
G36*
X60143293Y-89146321D02*
G01*
X60140167Y-89149446D01*
X60137041Y-89146321D01*
X60140167Y-89143195D01*
X60143293Y-89146321D01*
G37*
G36*
X60630913Y-89140069D02*
G01*
X60627787Y-89143195D01*
X60624661Y-89140069D01*
X60627787Y-89136943D01*
X60630913Y-89140069D01*
G37*
G36*
X60162048Y-89133818D02*
G01*
X60158922Y-89136943D01*
X60155796Y-89133818D01*
X60158922Y-89130692D01*
X60162048Y-89133818D01*
G37*
G36*
X60174551Y-89127566D02*
G01*
X60171425Y-89130692D01*
X60168299Y-89127566D01*
X60171425Y-89124440D01*
X60174551Y-89127566D01*
G37*
G36*
X60187054Y-89121314D02*
G01*
X60183928Y-89124440D01*
X60180802Y-89121314D01*
X60183928Y-89118189D01*
X60187054Y-89121314D01*
G37*
G36*
X60199557Y-89115063D02*
G01*
X60196431Y-89118189D01*
X60193305Y-89115063D01*
X60196431Y-89111937D01*
X60199557Y-89115063D01*
G37*
G36*
X60212060Y-89108811D02*
G01*
X60208934Y-89111937D01*
X60205808Y-89108811D01*
X60208934Y-89105686D01*
X60212060Y-89108811D01*
G37*
G36*
X60555894Y-89102560D02*
G01*
X60552769Y-89105686D01*
X60549643Y-89102560D01*
X60552769Y-89099434D01*
X60555894Y-89102560D01*
G37*
G36*
X60243318Y-89096308D02*
G01*
X60240192Y-89099434D01*
X60237066Y-89096308D01*
X60240192Y-89093183D01*
X60243318Y-89096308D01*
G37*
G36*
X60262072Y-89090057D02*
G01*
X60258946Y-89093183D01*
X60255821Y-89090057D01*
X60258946Y-89086931D01*
X60262072Y-89090057D01*
G37*
G36*
X60287078Y-89083805D02*
G01*
X60283953Y-89086931D01*
X60280827Y-89083805D01*
X60283953Y-89080679D01*
X60287078Y-89083805D01*
G37*
G36*
X60468373Y-89077554D02*
G01*
X60465247Y-89080679D01*
X60462121Y-89077554D01*
X60465247Y-89074428D01*
X60468373Y-89077554D01*
G37*
G36*
X60316252Y-89076512D02*
G01*
X60317230Y-89078392D01*
X60312084Y-89080679D01*
X60308775Y-89080228D01*
X60307917Y-89076512D01*
X60308833Y-89075764D01*
X60316252Y-89076512D01*
G37*
G36*
X60037814Y-89238531D02*
G01*
X60032092Y-89245199D01*
X60026874Y-89249471D01*
X60025777Y-89249368D01*
X60025735Y-89245295D01*
X60035454Y-89236171D01*
X60039984Y-89232678D01*
X60043221Y-89231126D01*
X60037814Y-89238531D01*
G37*
G36*
X60094078Y-89182267D02*
G01*
X60088356Y-89188935D01*
X60083138Y-89193207D01*
X60082041Y-89193105D01*
X60081999Y-89189031D01*
X60091718Y-89179907D01*
X60096247Y-89176414D01*
X60099485Y-89174862D01*
X60094078Y-89182267D01*
G37*
G36*
X60404295Y-89069950D02*
G01*
X60408321Y-89071158D01*
X60402537Y-89072167D01*
X60387103Y-89072555D01*
X60373133Y-89072256D01*
X60366033Y-89071313D01*
X60369911Y-89069950D01*
X60384102Y-89068904D01*
X60404295Y-89069950D01*
G37*
G36*
X59934854Y-90257043D02*
G01*
X59934963Y-90277825D01*
X59935076Y-90310308D01*
X59935191Y-90354692D01*
X59935309Y-90411179D01*
X59935429Y-90479968D01*
X59935601Y-90598889D01*
X59935761Y-90740908D01*
X59935890Y-90891675D01*
X59935987Y-91049258D01*
X59936052Y-91211725D01*
X59936085Y-91377144D01*
X59936087Y-91543583D01*
X59936056Y-91709110D01*
X59935994Y-91871793D01*
X59935901Y-92029701D01*
X59935775Y-92180902D01*
X59935618Y-92323463D01*
X59935429Y-92455454D01*
X59935336Y-92509240D01*
X59935218Y-92568250D01*
X59935102Y-92615114D01*
X59934989Y-92650032D01*
X59934879Y-92673207D01*
X59934773Y-92684840D01*
X59934671Y-92685132D01*
X59934573Y-92674285D01*
X59934479Y-92652500D01*
X59934391Y-92619979D01*
X59934307Y-92576923D01*
X59934229Y-92523534D01*
X59934157Y-92460013D01*
X59934092Y-92386562D01*
X59934032Y-92303382D01*
X59933980Y-92210675D01*
X59933935Y-92108642D01*
X59933897Y-91997484D01*
X59933867Y-91877404D01*
X59933845Y-91748603D01*
X59933832Y-91611281D01*
X59933827Y-91465641D01*
X59933830Y-91352252D01*
X59933842Y-91213087D01*
X59933861Y-91082416D01*
X59933890Y-90960438D01*
X59933926Y-90847353D01*
X59933969Y-90743363D01*
X59934020Y-90648668D01*
X59934078Y-90563468D01*
X59934142Y-90487964D01*
X59934212Y-90422356D01*
X59934289Y-90366845D01*
X59934371Y-90321631D01*
X59934459Y-90286916D01*
X59934551Y-90262899D01*
X59934648Y-90249781D01*
X59934749Y-90247762D01*
X59934854Y-90257043D01*
G37*
G36*
X61763140Y-90676359D02*
G01*
X61764382Y-90685881D01*
X61765546Y-90707091D01*
X61766621Y-90739369D01*
X61767593Y-90782096D01*
X61768450Y-90834652D01*
X61769180Y-90896419D01*
X61769769Y-90966777D01*
X61770206Y-91045106D01*
X61771819Y-91416400D01*
X62078144Y-91157883D01*
X62384469Y-90899366D01*
X62386082Y-91268967D01*
X62386117Y-91276728D01*
X62386590Y-91357987D01*
X62387217Y-91429732D01*
X62387990Y-91491536D01*
X62388899Y-91542972D01*
X62389935Y-91583614D01*
X62391091Y-91613034D01*
X62392356Y-91630805D01*
X62393722Y-91636500D01*
X62399081Y-91632502D01*
X62413203Y-91621101D01*
X62435202Y-91603014D01*
X62464230Y-91578950D01*
X62499436Y-91549616D01*
X62539969Y-91515720D01*
X62584982Y-91477972D01*
X62633622Y-91437079D01*
X62685041Y-91393749D01*
X62732121Y-91354033D01*
X62782039Y-91311931D01*
X62828786Y-91272511D01*
X62871450Y-91236543D01*
X62909117Y-91204794D01*
X62940878Y-91178034D01*
X62965819Y-91157032D01*
X62983029Y-91142555D01*
X62991595Y-91135373D01*
X63012857Y-91117682D01*
X63011240Y-91456564D01*
X63009623Y-91795446D01*
X62559512Y-92056068D01*
X62109402Y-92316689D01*
X62107776Y-92029617D01*
X62107372Y-91967374D01*
X62106834Y-91907628D01*
X62106187Y-91858760D01*
X62105402Y-91819906D01*
X62104449Y-91790202D01*
X62103301Y-91768783D01*
X62101929Y-91754785D01*
X62100304Y-91747343D01*
X62098399Y-91745593D01*
X62094987Y-91747387D01*
X62081532Y-91754920D01*
X62058938Y-91767766D01*
X62028204Y-91785348D01*
X61990331Y-91807092D01*
X61946319Y-91832425D01*
X61897168Y-91860771D01*
X61843877Y-91891556D01*
X61787447Y-91924207D01*
X61484248Y-92099772D01*
X61482629Y-91778018D01*
X61482517Y-91756808D01*
X61482146Y-91695895D01*
X61481726Y-91639319D01*
X61481270Y-91588247D01*
X61480792Y-91543844D01*
X61480305Y-91507278D01*
X61479823Y-91479715D01*
X61479358Y-91462321D01*
X61478926Y-91456264D01*
X61477333Y-91456806D01*
X61465812Y-91461047D01*
X61443903Y-91469227D01*
X61412477Y-91481017D01*
X61372405Y-91496089D01*
X61324558Y-91514114D01*
X61269806Y-91534765D01*
X61209022Y-91557713D01*
X61143074Y-91582630D01*
X61072836Y-91609187D01*
X60999176Y-91637058D01*
X60963933Y-91650395D01*
X60891371Y-91677846D01*
X60822434Y-91703910D01*
X60758019Y-91728251D01*
X60699022Y-91750530D01*
X60646339Y-91770410D01*
X60600866Y-91787551D01*
X60563500Y-91801616D01*
X60535138Y-91812266D01*
X60516675Y-91819164D01*
X60509008Y-91821971D01*
X60505378Y-91821829D01*
X60509199Y-91815262D01*
X60522076Y-91802155D01*
X60524070Y-91800292D01*
X60539924Y-91785626D01*
X60563538Y-91763935D01*
X60594259Y-91735815D01*
X60631431Y-91701859D01*
X60674402Y-91662660D01*
X60722517Y-91618813D01*
X60775122Y-91570911D01*
X60831563Y-91519548D01*
X60891185Y-91465318D01*
X60953335Y-91408815D01*
X61017358Y-91350633D01*
X61082600Y-91291365D01*
X61148408Y-91231606D01*
X61214126Y-91171948D01*
X61279101Y-91112986D01*
X61342679Y-91055315D01*
X61404205Y-90999526D01*
X61463026Y-90946215D01*
X61518487Y-90895976D01*
X61569935Y-90849401D01*
X61616714Y-90807085D01*
X61658172Y-90769622D01*
X61693653Y-90737605D01*
X61722503Y-90711629D01*
X61744070Y-90692287D01*
X61757698Y-90680173D01*
X61762733Y-90675880D01*
X61763140Y-90676359D01*
G37*
G36*
X60413412Y-89190744D02*
G01*
X60442190Y-89191745D01*
X60463924Y-89194062D01*
X60481957Y-89198117D01*
X60499631Y-89204327D01*
X60502913Y-89205946D01*
X60516954Y-89213575D01*
X60541160Y-89227088D01*
X60575112Y-89246243D01*
X60618391Y-89270800D01*
X60670578Y-89300519D01*
X60731253Y-89335158D01*
X60799996Y-89374477D01*
X60876388Y-89418234D01*
X60960010Y-89466190D01*
X61050442Y-89518102D01*
X61147265Y-89573731D01*
X61250059Y-89632835D01*
X61358405Y-89695174D01*
X61471883Y-89760507D01*
X61590075Y-89828592D01*
X61712560Y-89899190D01*
X61838919Y-89972059D01*
X61968733Y-90046959D01*
X62101582Y-90123648D01*
X62237047Y-90201886D01*
X62343750Y-90263537D01*
X62520932Y-90365956D01*
X62687414Y-90462250D01*
X62843292Y-90552478D01*
X62988663Y-90636694D01*
X63123622Y-90714954D01*
X63248265Y-90787316D01*
X63362689Y-90853834D01*
X63466989Y-90914565D01*
X63561262Y-90969564D01*
X63645603Y-91018889D01*
X63720109Y-91062594D01*
X63784874Y-91100736D01*
X63839997Y-91133372D01*
X63885572Y-91160556D01*
X63921695Y-91182345D01*
X63948463Y-91198796D01*
X63965971Y-91209963D01*
X63974316Y-91215904D01*
X63993172Y-91233779D01*
X64032216Y-91282154D01*
X64060217Y-91336316D01*
X64077232Y-91396394D01*
X64083315Y-91462516D01*
X64082616Y-91492467D01*
X64073768Y-91554348D01*
X64054470Y-91610089D01*
X64024249Y-91660839D01*
X63982632Y-91707750D01*
X63980265Y-91709937D01*
X63974880Y-91714489D01*
X63967894Y-91719870D01*
X63958953Y-91726288D01*
X63947701Y-91733952D01*
X63933783Y-91743070D01*
X63916844Y-91753850D01*
X63896530Y-91766499D01*
X63872484Y-91781228D01*
X63844352Y-91798243D01*
X63811778Y-91817753D01*
X63774409Y-91839966D01*
X63731887Y-91865090D01*
X63683860Y-91893334D01*
X63629970Y-91924906D01*
X63569864Y-91960014D01*
X63503186Y-91998867D01*
X63429581Y-92041671D01*
X63348694Y-92088637D01*
X63260170Y-92139971D01*
X63163654Y-92195883D01*
X63058791Y-92256580D01*
X62945225Y-92322271D01*
X62822602Y-92393163D01*
X62690566Y-92469466D01*
X62548762Y-92551387D01*
X62396836Y-92639135D01*
X62234432Y-92732918D01*
X62072653Y-92826308D01*
X61898488Y-92926787D01*
X61734122Y-93021544D01*
X61579618Y-93110544D01*
X61435037Y-93193752D01*
X61300443Y-93271130D01*
X61175899Y-93342644D01*
X61061467Y-93408257D01*
X60957210Y-93467934D01*
X60863191Y-93521638D01*
X60779472Y-93569335D01*
X60706116Y-93610987D01*
X60643187Y-93646559D01*
X60590746Y-93676015D01*
X60548858Y-93699319D01*
X60517583Y-93716436D01*
X60496985Y-93727329D01*
X60487128Y-93731963D01*
X60442888Y-93742140D01*
X60404586Y-93744934D01*
X60391776Y-93745868D01*
X60340230Y-93742675D01*
X60293330Y-93732544D01*
X60263211Y-93721535D01*
X60205896Y-93691548D01*
X60155695Y-93652637D01*
X60113777Y-93605992D01*
X60081312Y-93552804D01*
X60059469Y-93494266D01*
X60059101Y-93492678D01*
X60058255Y-93487216D01*
X60057463Y-93479121D01*
X60056723Y-93467999D01*
X60056034Y-93453454D01*
X60055394Y-93435092D01*
X60054801Y-93412518D01*
X60054252Y-93385338D01*
X60053748Y-93353156D01*
X60053284Y-93315577D01*
X60052860Y-93272207D01*
X60052474Y-93222652D01*
X60052123Y-93166515D01*
X60051806Y-93103403D01*
X60051522Y-93032920D01*
X60051267Y-92954672D01*
X60051041Y-92868264D01*
X60050842Y-92773301D01*
X60050667Y-92669388D01*
X60050515Y-92556131D01*
X60050383Y-92433134D01*
X60050271Y-92300003D01*
X60050176Y-92156343D01*
X60050097Y-92001760D01*
X60050031Y-91835857D01*
X60049976Y-91658242D01*
X60049931Y-91468518D01*
X60049899Y-91331430D01*
X60049847Y-91150949D01*
X60049794Y-90982265D01*
X60049782Y-90943167D01*
X60181153Y-90943167D01*
X60181163Y-91106401D01*
X60181188Y-91281323D01*
X60181224Y-91468339D01*
X60181270Y-91644229D01*
X60181338Y-91827858D01*
X60181425Y-91999625D01*
X60181532Y-92159867D01*
X60181662Y-92308922D01*
X60181815Y-92447126D01*
X60181993Y-92574818D01*
X60182197Y-92692334D01*
X60182428Y-92800011D01*
X60182688Y-92898188D01*
X60182979Y-92987200D01*
X60183301Y-93067385D01*
X60183655Y-93139082D01*
X60184045Y-93202625D01*
X60184470Y-93258354D01*
X60184931Y-93306606D01*
X60185432Y-93347716D01*
X60185972Y-93382024D01*
X60186553Y-93409865D01*
X60187177Y-93431578D01*
X60187844Y-93447500D01*
X60188557Y-93457967D01*
X60189317Y-93463317D01*
X60191105Y-93469507D01*
X60210176Y-93511687D01*
X60238453Y-93547873D01*
X60273984Y-93577022D01*
X60314817Y-93598091D01*
X60359001Y-93610038D01*
X60404586Y-93611820D01*
X60449618Y-93602395D01*
X60457591Y-93598508D01*
X60476031Y-93588574D01*
X60504271Y-93572940D01*
X60541806Y-93551895D01*
X60588134Y-93525732D01*
X60642750Y-93494740D01*
X60705152Y-93459212D01*
X60774836Y-93419438D01*
X60851298Y-93375708D01*
X60934036Y-93328315D01*
X61022546Y-93277549D01*
X61116324Y-93223701D01*
X61214867Y-93167063D01*
X61317671Y-93107924D01*
X61424234Y-93046576D01*
X61534052Y-92983311D01*
X61646622Y-92918419D01*
X61761439Y-92852191D01*
X61878001Y-92784918D01*
X61995805Y-92716891D01*
X62114346Y-92648401D01*
X62233122Y-92579739D01*
X62351629Y-92511197D01*
X62469363Y-92443065D01*
X62585822Y-92375634D01*
X62700502Y-92309195D01*
X62812899Y-92244039D01*
X62922511Y-92180458D01*
X63028833Y-92118741D01*
X63131363Y-92059181D01*
X63229596Y-92002068D01*
X63323030Y-91947694D01*
X63411161Y-91896348D01*
X63493486Y-91848323D01*
X63569501Y-91803909D01*
X63638703Y-91763398D01*
X63700589Y-91727079D01*
X63754655Y-91695245D01*
X63800397Y-91668186D01*
X63837313Y-91646193D01*
X63864899Y-91629558D01*
X63882652Y-91618571D01*
X63890067Y-91613523D01*
X63898213Y-91605018D01*
X63916101Y-91582448D01*
X63930672Y-91559414D01*
X63934793Y-91551399D01*
X63941344Y-91535732D01*
X63945135Y-91519355D01*
X63946888Y-91498342D01*
X63947324Y-91468767D01*
X63947272Y-91455719D01*
X63946365Y-91429590D01*
X63943752Y-91410174D01*
X63938689Y-91393330D01*
X63930429Y-91374916D01*
X63922419Y-91360280D01*
X63907412Y-91337731D01*
X63892920Y-91320609D01*
X63887908Y-91317266D01*
X63872406Y-91307792D01*
X63847000Y-91292609D01*
X63812192Y-91272007D01*
X63768484Y-91246275D01*
X63716376Y-91215706D01*
X63656371Y-91180588D01*
X63588970Y-91141213D01*
X63514675Y-91097871D01*
X63433987Y-91050853D01*
X63347409Y-91000448D01*
X63255442Y-90946948D01*
X63158587Y-90890643D01*
X63057346Y-90831823D01*
X62952220Y-90770779D01*
X62843713Y-90707801D01*
X62732324Y-90643180D01*
X62618556Y-90577206D01*
X62502910Y-90510169D01*
X62385888Y-90442361D01*
X62267992Y-90374071D01*
X62149723Y-90305590D01*
X62031583Y-90237208D01*
X61914073Y-90169217D01*
X61797696Y-90101905D01*
X61682952Y-90035565D01*
X61570344Y-89970485D01*
X61460373Y-89906958D01*
X61353540Y-89845272D01*
X61250348Y-89785720D01*
X61151298Y-89728590D01*
X61056892Y-89674174D01*
X60967631Y-89622761D01*
X60884017Y-89574644D01*
X60806551Y-89530111D01*
X60735736Y-89489453D01*
X60672072Y-89452961D01*
X60616063Y-89420926D01*
X60568208Y-89393637D01*
X60529010Y-89371385D01*
X60498970Y-89354462D01*
X60478591Y-89343156D01*
X60468373Y-89337758D01*
X60445973Y-89328944D01*
X60401148Y-89320588D01*
X60356072Y-89323068D01*
X60312572Y-89335527D01*
X60272473Y-89357109D01*
X60237600Y-89386956D01*
X60209778Y-89424213D01*
X60190834Y-89468022D01*
X60190105Y-89470905D01*
X60189199Y-89476046D01*
X60188353Y-89483081D01*
X60187566Y-89492421D01*
X60186836Y-89504471D01*
X60186161Y-89519641D01*
X60185539Y-89538338D01*
X60184967Y-89560971D01*
X60184445Y-89587946D01*
X60183970Y-89619673D01*
X60183540Y-89656560D01*
X60183153Y-89699013D01*
X60182807Y-89747442D01*
X60182500Y-89802255D01*
X60182231Y-89863858D01*
X60181996Y-89932660D01*
X60181796Y-90009070D01*
X60181626Y-90093495D01*
X60181486Y-90186344D01*
X60181373Y-90288023D01*
X60181286Y-90398941D01*
X60181222Y-90519507D01*
X60181180Y-90650128D01*
X60181158Y-90791212D01*
X60181153Y-90943167D01*
X60049782Y-90943167D01*
X60049747Y-90824970D01*
X60049713Y-90678653D01*
X60049700Y-90542903D01*
X60049716Y-90417311D01*
X60049768Y-90301466D01*
X60049863Y-90194959D01*
X60050010Y-90097378D01*
X60050214Y-90008313D01*
X60050485Y-89927355D01*
X60050829Y-89854093D01*
X60051253Y-89788117D01*
X60051766Y-89729017D01*
X60052375Y-89676383D01*
X60053088Y-89629803D01*
X60053910Y-89588869D01*
X60054852Y-89553170D01*
X60055918Y-89522295D01*
X60057119Y-89495835D01*
X60058459Y-89473379D01*
X60059948Y-89454517D01*
X60061593Y-89438839D01*
X60063400Y-89425934D01*
X60065379Y-89415393D01*
X60067535Y-89406805D01*
X60069877Y-89399760D01*
X60072412Y-89393848D01*
X60075147Y-89388658D01*
X60078090Y-89383780D01*
X60081249Y-89378805D01*
X60084631Y-89373321D01*
X60088243Y-89366919D01*
X60113486Y-89326418D01*
X60151042Y-89284166D01*
X60198256Y-89247475D01*
X60202110Y-89244950D01*
X60239795Y-89222141D01*
X60273343Y-89206518D01*
X60306862Y-89196865D01*
X60344455Y-89191965D01*
X60390229Y-89190602D01*
X60413412Y-89190744D01*
G37*
G36*
X59974501Y-71591164D02*
G01*
X59971376Y-71594290D01*
X59968250Y-71591164D01*
X59971376Y-71588039D01*
X59974501Y-71591164D01*
G37*
G36*
X59949495Y-71516146D02*
G01*
X59946369Y-71519272D01*
X59943244Y-71516146D01*
X59946369Y-71513020D01*
X59949495Y-71516146D01*
G37*
G36*
X59943244Y-71484888D02*
G01*
X59940118Y-71488014D01*
X59936992Y-71484888D01*
X59940118Y-71481762D01*
X59943244Y-71484888D01*
G37*
G36*
X63931725Y-69046788D02*
G01*
X63928599Y-69049914D01*
X63925474Y-69046788D01*
X63928599Y-69043663D01*
X63931725Y-69046788D01*
G37*
G36*
X63887964Y-69021782D02*
G01*
X63884839Y-69024908D01*
X63881713Y-69021782D01*
X63884839Y-69018656D01*
X63887964Y-69021782D01*
G37*
G36*
X63812946Y-68978021D02*
G01*
X63809820Y-68981147D01*
X63806694Y-68978021D01*
X63809820Y-68974896D01*
X63812946Y-68978021D01*
G37*
G36*
X63769185Y-68953015D02*
G01*
X63766059Y-68956141D01*
X63762934Y-68953015D01*
X63766059Y-68949889D01*
X63769185Y-68953015D01*
G37*
G36*
X63725424Y-68928009D02*
G01*
X63722299Y-68931135D01*
X63719173Y-68928009D01*
X63722299Y-68924883D01*
X63725424Y-68928009D01*
G37*
G36*
X63650406Y-68884248D02*
G01*
X63647280Y-68887374D01*
X63644154Y-68884248D01*
X63647280Y-68881123D01*
X63650406Y-68884248D01*
G37*
G36*
X63606645Y-68859242D02*
G01*
X63603519Y-68862368D01*
X63600394Y-68859242D01*
X63603519Y-68856116D01*
X63606645Y-68859242D01*
G37*
G36*
X63562884Y-68834236D02*
G01*
X63559759Y-68837362D01*
X63556633Y-68834236D01*
X63559759Y-68831110D01*
X63562884Y-68834236D01*
G37*
G36*
X63531627Y-68815481D02*
G01*
X63528501Y-68818607D01*
X63525375Y-68815481D01*
X63528501Y-68812356D01*
X63531627Y-68815481D01*
G37*
G36*
X63487866Y-68790475D02*
G01*
X63484740Y-68793601D01*
X63481614Y-68790475D01*
X63484740Y-68787349D01*
X63487866Y-68790475D01*
G37*
G36*
X63444105Y-68765469D02*
G01*
X63440979Y-68768595D01*
X63437854Y-68765469D01*
X63440979Y-68762343D01*
X63444105Y-68765469D01*
G37*
G36*
X63369087Y-68721708D02*
G01*
X63365961Y-68724834D01*
X63362835Y-68721708D01*
X63365961Y-68718583D01*
X63369087Y-68721708D01*
G37*
G36*
X63325326Y-68696702D02*
G01*
X63322200Y-68699828D01*
X63319074Y-68696702D01*
X63322200Y-68693576D01*
X63325326Y-68696702D01*
G37*
G36*
X63281565Y-68671696D02*
G01*
X63278439Y-68674822D01*
X63275314Y-68671696D01*
X63278439Y-68668570D01*
X63281565Y-68671696D01*
G37*
G36*
X63250307Y-68652941D02*
G01*
X63247182Y-68656067D01*
X63244056Y-68652941D01*
X63247182Y-68649816D01*
X63250307Y-68652941D01*
G37*
G36*
X63206547Y-68627935D02*
G01*
X63203421Y-68631061D01*
X63200295Y-68627935D01*
X63203421Y-68624809D01*
X63206547Y-68627935D01*
G37*
G36*
X63162786Y-68602929D02*
G01*
X63159660Y-68606055D01*
X63156534Y-68602929D01*
X63159660Y-68599803D01*
X63162786Y-68602929D01*
G37*
G36*
X63087767Y-68559168D02*
G01*
X63084642Y-68562294D01*
X63081516Y-68559168D01*
X63084642Y-68556043D01*
X63087767Y-68559168D01*
G37*
G36*
X63044007Y-68534162D02*
G01*
X63040881Y-68537288D01*
X63037755Y-68534162D01*
X63040881Y-68531036D01*
X63044007Y-68534162D01*
G37*
G36*
X63000246Y-68509156D02*
G01*
X62997120Y-68512282D01*
X62993994Y-68509156D01*
X62997120Y-68506030D01*
X63000246Y-68509156D01*
G37*
G36*
X62968988Y-68490401D02*
G01*
X62965862Y-68493527D01*
X62962737Y-68490401D01*
X62965862Y-68487276D01*
X62968988Y-68490401D01*
G37*
G36*
X62925227Y-68465395D02*
G01*
X62922102Y-68468521D01*
X62918976Y-68465395D01*
X62922102Y-68462269D01*
X62925227Y-68465395D01*
G37*
G36*
X62881467Y-68440389D02*
G01*
X62878341Y-68443515D01*
X62875215Y-68440389D01*
X62878341Y-68437263D01*
X62881467Y-68440389D01*
G37*
G36*
X62806448Y-68396628D02*
G01*
X62803322Y-68399754D01*
X62800197Y-68396628D01*
X62803322Y-68393503D01*
X62806448Y-68396628D01*
G37*
G36*
X62762687Y-68371622D02*
G01*
X62759562Y-68374748D01*
X62756436Y-68371622D01*
X62759562Y-68368496D01*
X62762687Y-68371622D01*
G37*
G36*
X62718927Y-68346616D02*
G01*
X62715801Y-68349742D01*
X62712675Y-68346616D01*
X62715801Y-68343490D01*
X62718927Y-68346616D01*
G37*
G36*
X62643908Y-68302855D02*
G01*
X62640782Y-68305981D01*
X62637657Y-68302855D01*
X62640782Y-68299729D01*
X62643908Y-68302855D01*
G37*
G36*
X62600147Y-68277849D02*
G01*
X62597022Y-68280975D01*
X62593896Y-68277849D01*
X62597022Y-68274723D01*
X62600147Y-68277849D01*
G37*
G36*
X62525129Y-68234088D02*
G01*
X62522003Y-68237214D01*
X62518877Y-68234088D01*
X62522003Y-68230963D01*
X62525129Y-68234088D01*
G37*
G36*
X62481368Y-68209082D02*
G01*
X62478242Y-68212208D01*
X62475117Y-68209082D01*
X62478242Y-68205956D01*
X62481368Y-68209082D01*
G37*
G36*
X62437607Y-68184076D02*
G01*
X62434482Y-68187202D01*
X62431356Y-68184076D01*
X62434482Y-68180950D01*
X62437607Y-68184076D01*
G37*
G36*
X62362589Y-68140315D02*
G01*
X62359463Y-68143441D01*
X62356337Y-68140315D01*
X62359463Y-68137189D01*
X62362589Y-68140315D01*
G37*
G36*
X62318828Y-68115309D02*
G01*
X62315702Y-68118435D01*
X62312577Y-68115309D01*
X62315702Y-68112183D01*
X62318828Y-68115309D01*
G37*
G36*
X62275067Y-68090303D02*
G01*
X62271942Y-68093429D01*
X62268816Y-68090303D01*
X62271942Y-68087177D01*
X62275067Y-68090303D01*
G37*
G36*
X62243810Y-68071548D02*
G01*
X62240684Y-68074674D01*
X62237558Y-68071548D01*
X62240684Y-68068423D01*
X62243810Y-68071548D01*
G37*
G36*
X62200049Y-68046542D02*
G01*
X62196923Y-68049668D01*
X62193797Y-68046542D01*
X62196923Y-68043416D01*
X62200049Y-68046542D01*
G37*
G36*
X62156288Y-68021536D02*
G01*
X62153162Y-68024662D01*
X62150037Y-68021536D01*
X62153162Y-68018410D01*
X62156288Y-68021536D01*
G37*
G36*
X62081270Y-67977775D02*
G01*
X62078144Y-67980901D01*
X62075018Y-67977775D01*
X62078144Y-67974649D01*
X62081270Y-67977775D01*
G37*
G36*
X62037509Y-67952769D02*
G01*
X62034383Y-67955895D01*
X62031257Y-67952769D01*
X62034383Y-67949643D01*
X62037509Y-67952769D01*
G37*
G36*
X61993748Y-67927763D02*
G01*
X61990622Y-67930889D01*
X61987497Y-67927763D01*
X61990622Y-67924637D01*
X61993748Y-67927763D01*
G37*
G36*
X61962491Y-67909008D02*
G01*
X61959365Y-67912134D01*
X61956239Y-67909008D01*
X61959365Y-67905883D01*
X61962491Y-67909008D01*
G37*
G36*
X61918730Y-67884002D02*
G01*
X61915604Y-67887128D01*
X61912478Y-67884002D01*
X61915604Y-67880876D01*
X61918730Y-67884002D01*
G37*
G36*
X61874969Y-67858996D02*
G01*
X61871843Y-67862122D01*
X61868717Y-67858996D01*
X61871843Y-67855870D01*
X61874969Y-67858996D01*
G37*
G36*
X61799951Y-67815235D02*
G01*
X61796825Y-67818361D01*
X61793699Y-67815235D01*
X61796825Y-67812109D01*
X61799951Y-67815235D01*
G37*
G36*
X61756190Y-67790229D02*
G01*
X61753064Y-67793355D01*
X61749938Y-67790229D01*
X61753064Y-67787103D01*
X61756190Y-67790229D01*
G37*
G36*
X61712429Y-67765223D02*
G01*
X61709303Y-67768349D01*
X61706177Y-67765223D01*
X61709303Y-67762097D01*
X61712429Y-67765223D01*
G37*
G36*
X61681171Y-67746468D02*
G01*
X61678046Y-67749594D01*
X61674920Y-67746468D01*
X61678046Y-67743343D01*
X61681171Y-67746468D01*
G37*
G36*
X61637411Y-67721462D02*
G01*
X61634285Y-67724588D01*
X61631159Y-67721462D01*
X61634285Y-67718336D01*
X61637411Y-67721462D01*
G37*
G36*
X61593650Y-67696456D02*
G01*
X61590524Y-67699582D01*
X61587398Y-67696456D01*
X61590524Y-67693330D01*
X61593650Y-67696456D01*
G37*
G36*
X61518631Y-67652695D02*
G01*
X61515506Y-67655821D01*
X61512380Y-67652695D01*
X61515506Y-67649569D01*
X61518631Y-67652695D01*
G37*
G36*
X61474871Y-67627689D02*
G01*
X61471745Y-67630815D01*
X61468619Y-67627689D01*
X61471745Y-67624563D01*
X61474871Y-67627689D01*
G37*
G36*
X61431110Y-67602683D02*
G01*
X61427984Y-67605809D01*
X61424858Y-67602683D01*
X61427984Y-67599557D01*
X61431110Y-67602683D01*
G37*
G36*
X61356091Y-67558922D02*
G01*
X61352966Y-67562048D01*
X61349840Y-67558922D01*
X61352966Y-67555796D01*
X61356091Y-67558922D01*
G37*
G36*
X61312331Y-67533916D02*
G01*
X61309205Y-67537042D01*
X61306079Y-67533916D01*
X61309205Y-67530790D01*
X61312331Y-67533916D01*
G37*
G36*
X61268570Y-67508910D02*
G01*
X61265444Y-67512036D01*
X61262318Y-67508910D01*
X61265444Y-67505784D01*
X61268570Y-67508910D01*
G37*
G36*
X61237312Y-67490155D02*
G01*
X61234186Y-67493281D01*
X61231061Y-67490155D01*
X61234186Y-67487029D01*
X61237312Y-67490155D01*
G37*
G36*
X61193551Y-67465149D02*
G01*
X61190426Y-67468275D01*
X61187300Y-67465149D01*
X61190426Y-67462023D01*
X61193551Y-67465149D01*
G37*
G36*
X59943244Y-67446394D02*
G01*
X59940118Y-67449520D01*
X59936992Y-67446394D01*
X59940118Y-67443269D01*
X59943244Y-67446394D01*
G37*
G36*
X61149791Y-67440143D02*
G01*
X61146665Y-67443269D01*
X61143539Y-67440143D01*
X61146665Y-67437017D01*
X61149791Y-67440143D01*
G37*
G36*
X59949495Y-67415137D02*
G01*
X59946369Y-67418263D01*
X59943244Y-67415137D01*
X59946369Y-67412011D01*
X59949495Y-67415137D01*
G37*
G36*
X61074772Y-67396382D02*
G01*
X61071646Y-67399508D01*
X61068521Y-67396382D01*
X61071646Y-67393256D01*
X61074772Y-67396382D01*
G37*
G36*
X61031011Y-67371376D02*
G01*
X61027886Y-67374502D01*
X61024760Y-67371376D01*
X61027886Y-67368250D01*
X61031011Y-67371376D01*
G37*
G36*
X59961998Y-67371376D02*
G01*
X59958873Y-67374502D01*
X59955747Y-67371376D01*
X59958873Y-67368250D01*
X59961998Y-67371376D01*
G37*
G36*
X59968250Y-67358873D02*
G01*
X59965124Y-67361999D01*
X59961998Y-67358873D01*
X59965124Y-67355747D01*
X59968250Y-67358873D01*
G37*
G36*
X60987251Y-67346370D02*
G01*
X60984125Y-67349496D01*
X60980999Y-67346370D01*
X60984125Y-67343244D01*
X60987251Y-67346370D01*
G37*
G36*
X59974501Y-67340118D02*
G01*
X59971376Y-67343244D01*
X59968250Y-67340118D01*
X59971376Y-67336993D01*
X59974501Y-67340118D01*
G37*
G36*
X60955993Y-67327615D02*
G01*
X60952867Y-67330741D01*
X60949741Y-67327615D01*
X60952867Y-67324489D01*
X60955993Y-67327615D01*
G37*
G36*
X59980753Y-67327615D02*
G01*
X59977627Y-67330741D01*
X59974501Y-67327615D01*
X59977627Y-67324489D01*
X59980753Y-67327615D01*
G37*
G36*
X59987004Y-67315112D02*
G01*
X59983879Y-67318238D01*
X59980753Y-67315112D01*
X59983879Y-67311986D01*
X59987004Y-67315112D01*
G37*
G36*
X60912232Y-67302609D02*
G01*
X60909106Y-67305735D01*
X60905981Y-67302609D01*
X60909106Y-67299483D01*
X60912232Y-67302609D01*
G37*
G36*
X59993256Y-67302609D02*
G01*
X59990130Y-67305735D01*
X59987004Y-67302609D01*
X59990130Y-67299483D01*
X59993256Y-67302609D01*
G37*
G36*
X60005759Y-67283854D02*
G01*
X60002633Y-67286980D01*
X59999508Y-67283854D01*
X60002633Y-67280729D01*
X60005759Y-67283854D01*
G37*
G36*
X60868471Y-67277603D02*
G01*
X60865346Y-67280729D01*
X60862220Y-67277603D01*
X60865346Y-67274477D01*
X60868471Y-67277603D01*
G37*
G36*
X60018262Y-67265100D02*
G01*
X60015136Y-67268226D01*
X60012011Y-67265100D01*
X60015136Y-67261974D01*
X60018262Y-67265100D01*
G37*
G36*
X60793453Y-67233842D02*
G01*
X60790327Y-67236968D01*
X60787201Y-67233842D01*
X60790327Y-67230716D01*
X60793453Y-67233842D01*
G37*
G36*
X60749692Y-67208836D02*
G01*
X60746566Y-67211962D01*
X60743441Y-67208836D01*
X60746566Y-67205710D01*
X60749692Y-67208836D01*
G37*
G36*
X60705931Y-67183830D02*
G01*
X60702806Y-67186956D01*
X60699680Y-67183830D01*
X60702806Y-67180704D01*
X60705931Y-67183830D01*
G37*
G36*
X60674674Y-67165075D02*
G01*
X60671548Y-67168201D01*
X60668422Y-67165075D01*
X60671548Y-67161949D01*
X60674674Y-67165075D01*
G37*
G36*
X60124538Y-67158824D02*
G01*
X60121413Y-67161949D01*
X60118287Y-67158824D01*
X60121413Y-67155698D01*
X60124538Y-67158824D01*
G37*
G36*
X60143293Y-67146321D02*
G01*
X60140167Y-67149446D01*
X60137041Y-67146321D01*
X60140167Y-67143195D01*
X60143293Y-67146321D01*
G37*
G36*
X60630913Y-67140069D02*
G01*
X60627787Y-67143195D01*
X60624661Y-67140069D01*
X60627787Y-67136943D01*
X60630913Y-67140069D01*
G37*
G36*
X60162048Y-67133818D02*
G01*
X60158922Y-67136943D01*
X60155796Y-67133818D01*
X60158922Y-67130692D01*
X60162048Y-67133818D01*
G37*
G36*
X60174551Y-67127566D02*
G01*
X60171425Y-67130692D01*
X60168299Y-67127566D01*
X60171425Y-67124440D01*
X60174551Y-67127566D01*
G37*
G36*
X60187054Y-67121314D02*
G01*
X60183928Y-67124440D01*
X60180802Y-67121314D01*
X60183928Y-67118189D01*
X60187054Y-67121314D01*
G37*
G36*
X60199557Y-67115063D02*
G01*
X60196431Y-67118189D01*
X60193305Y-67115063D01*
X60196431Y-67111937D01*
X60199557Y-67115063D01*
G37*
G36*
X60212060Y-67108811D02*
G01*
X60208934Y-67111937D01*
X60205808Y-67108811D01*
X60208934Y-67105686D01*
X60212060Y-67108811D01*
G37*
G36*
X60555894Y-67102560D02*
G01*
X60552769Y-67105686D01*
X60549643Y-67102560D01*
X60552769Y-67099434D01*
X60555894Y-67102560D01*
G37*
G36*
X60243318Y-67096308D02*
G01*
X60240192Y-67099434D01*
X60237066Y-67096308D01*
X60240192Y-67093183D01*
X60243318Y-67096308D01*
G37*
G36*
X60262072Y-67090057D02*
G01*
X60258946Y-67093183D01*
X60255821Y-67090057D01*
X60258946Y-67086931D01*
X60262072Y-67090057D01*
G37*
G36*
X60287078Y-67083805D02*
G01*
X60283953Y-67086931D01*
X60280827Y-67083805D01*
X60283953Y-67080679D01*
X60287078Y-67083805D01*
G37*
G36*
X60468373Y-67077554D02*
G01*
X60465247Y-67080679D01*
X60462121Y-67077554D01*
X60465247Y-67074428D01*
X60468373Y-67077554D01*
G37*
G36*
X60316252Y-67076512D02*
G01*
X60317230Y-67078392D01*
X60312084Y-67080679D01*
X60308775Y-67080228D01*
X60307917Y-67076512D01*
X60308833Y-67075764D01*
X60316252Y-67076512D01*
G37*
G36*
X60037814Y-67238531D02*
G01*
X60032092Y-67245199D01*
X60026874Y-67249471D01*
X60025777Y-67249368D01*
X60025735Y-67245295D01*
X60035454Y-67236171D01*
X60039984Y-67232678D01*
X60043221Y-67231126D01*
X60037814Y-67238531D01*
G37*
G36*
X60094078Y-67182267D02*
G01*
X60088356Y-67188935D01*
X60083138Y-67193207D01*
X60082041Y-67193105D01*
X60081999Y-67189031D01*
X60091718Y-67179907D01*
X60096247Y-67176414D01*
X60099485Y-67174862D01*
X60094078Y-67182267D01*
G37*
G36*
X60404295Y-67069950D02*
G01*
X60408321Y-67071158D01*
X60402537Y-67072167D01*
X60387103Y-67072555D01*
X60373133Y-67072256D01*
X60366033Y-67071313D01*
X60369911Y-67069950D01*
X60384102Y-67068904D01*
X60404295Y-67069950D01*
G37*
G36*
X59934854Y-68257043D02*
G01*
X59934963Y-68277825D01*
X59935076Y-68310308D01*
X59935191Y-68354692D01*
X59935309Y-68411179D01*
X59935429Y-68479968D01*
X59935601Y-68598889D01*
X59935761Y-68740908D01*
X59935890Y-68891675D01*
X59935987Y-69049258D01*
X59936052Y-69211725D01*
X59936085Y-69377144D01*
X59936087Y-69543583D01*
X59936056Y-69709110D01*
X59935994Y-69871793D01*
X59935901Y-70029701D01*
X59935775Y-70180902D01*
X59935618Y-70323463D01*
X59935429Y-70455454D01*
X59935336Y-70509240D01*
X59935218Y-70568250D01*
X59935102Y-70615114D01*
X59934989Y-70650032D01*
X59934879Y-70673207D01*
X59934773Y-70684840D01*
X59934671Y-70685132D01*
X59934573Y-70674285D01*
X59934479Y-70652500D01*
X59934391Y-70619979D01*
X59934307Y-70576923D01*
X59934229Y-70523534D01*
X59934157Y-70460013D01*
X59934092Y-70386562D01*
X59934032Y-70303382D01*
X59933980Y-70210675D01*
X59933935Y-70108642D01*
X59933897Y-69997484D01*
X59933867Y-69877404D01*
X59933845Y-69748603D01*
X59933832Y-69611281D01*
X59933827Y-69465641D01*
X59933830Y-69352252D01*
X59933842Y-69213087D01*
X59933861Y-69082416D01*
X59933890Y-68960438D01*
X59933926Y-68847353D01*
X59933969Y-68743363D01*
X59934020Y-68648668D01*
X59934078Y-68563468D01*
X59934142Y-68487964D01*
X59934212Y-68422356D01*
X59934289Y-68366845D01*
X59934371Y-68321631D01*
X59934459Y-68286916D01*
X59934551Y-68262899D01*
X59934648Y-68249781D01*
X59934749Y-68247762D01*
X59934854Y-68257043D01*
G37*
G36*
X61763140Y-68676359D02*
G01*
X61764382Y-68685881D01*
X61765546Y-68707091D01*
X61766621Y-68739369D01*
X61767593Y-68782096D01*
X61768450Y-68834652D01*
X61769180Y-68896419D01*
X61769769Y-68966777D01*
X61770206Y-69045106D01*
X61771819Y-69416400D01*
X62078144Y-69157883D01*
X62384469Y-68899366D01*
X62386082Y-69268967D01*
X62386117Y-69276728D01*
X62386590Y-69357987D01*
X62387217Y-69429732D01*
X62387990Y-69491536D01*
X62388899Y-69542972D01*
X62389935Y-69583614D01*
X62391091Y-69613034D01*
X62392356Y-69630805D01*
X62393722Y-69636500D01*
X62399081Y-69632502D01*
X62413203Y-69621101D01*
X62435202Y-69603014D01*
X62464230Y-69578950D01*
X62499436Y-69549616D01*
X62539969Y-69515720D01*
X62584982Y-69477972D01*
X62633622Y-69437079D01*
X62685041Y-69393749D01*
X62732121Y-69354033D01*
X62782039Y-69311931D01*
X62828786Y-69272511D01*
X62871450Y-69236543D01*
X62909117Y-69204794D01*
X62940878Y-69178034D01*
X62965819Y-69157032D01*
X62983029Y-69142555D01*
X62991595Y-69135373D01*
X63012857Y-69117682D01*
X63011240Y-69456564D01*
X63009623Y-69795446D01*
X62559512Y-70056068D01*
X62109402Y-70316689D01*
X62107776Y-70029617D01*
X62107372Y-69967374D01*
X62106834Y-69907628D01*
X62106187Y-69858760D01*
X62105402Y-69819906D01*
X62104449Y-69790202D01*
X62103301Y-69768783D01*
X62101929Y-69754785D01*
X62100304Y-69747343D01*
X62098399Y-69745593D01*
X62094987Y-69747387D01*
X62081532Y-69754920D01*
X62058938Y-69767766D01*
X62028204Y-69785348D01*
X61990331Y-69807092D01*
X61946319Y-69832425D01*
X61897168Y-69860771D01*
X61843877Y-69891556D01*
X61787447Y-69924207D01*
X61484248Y-70099772D01*
X61482629Y-69778018D01*
X61482517Y-69756808D01*
X61482146Y-69695895D01*
X61481726Y-69639319D01*
X61481270Y-69588247D01*
X61480792Y-69543844D01*
X61480305Y-69507278D01*
X61479823Y-69479715D01*
X61479358Y-69462321D01*
X61478926Y-69456264D01*
X61477333Y-69456806D01*
X61465812Y-69461047D01*
X61443903Y-69469227D01*
X61412477Y-69481017D01*
X61372405Y-69496089D01*
X61324558Y-69514114D01*
X61269806Y-69534765D01*
X61209022Y-69557713D01*
X61143074Y-69582630D01*
X61072836Y-69609187D01*
X60999176Y-69637058D01*
X60963933Y-69650395D01*
X60891371Y-69677846D01*
X60822434Y-69703910D01*
X60758019Y-69728251D01*
X60699022Y-69750530D01*
X60646339Y-69770410D01*
X60600866Y-69787551D01*
X60563500Y-69801616D01*
X60535138Y-69812266D01*
X60516675Y-69819164D01*
X60509008Y-69821971D01*
X60505378Y-69821829D01*
X60509199Y-69815262D01*
X60522076Y-69802155D01*
X60524070Y-69800292D01*
X60539924Y-69785626D01*
X60563538Y-69763935D01*
X60594259Y-69735815D01*
X60631431Y-69701859D01*
X60674402Y-69662660D01*
X60722517Y-69618813D01*
X60775122Y-69570911D01*
X60831563Y-69519548D01*
X60891185Y-69465318D01*
X60953335Y-69408815D01*
X61017358Y-69350633D01*
X61082600Y-69291365D01*
X61148408Y-69231606D01*
X61214126Y-69171948D01*
X61279101Y-69112986D01*
X61342679Y-69055315D01*
X61404205Y-68999526D01*
X61463026Y-68946215D01*
X61518487Y-68895976D01*
X61569935Y-68849401D01*
X61616714Y-68807085D01*
X61658172Y-68769622D01*
X61693653Y-68737605D01*
X61722503Y-68711629D01*
X61744070Y-68692287D01*
X61757698Y-68680173D01*
X61762733Y-68675880D01*
X61763140Y-68676359D01*
G37*
G36*
X60413412Y-67190744D02*
G01*
X60442190Y-67191745D01*
X60463924Y-67194062D01*
X60481957Y-67198117D01*
X60499631Y-67204327D01*
X60502913Y-67205946D01*
X60516954Y-67213575D01*
X60541160Y-67227088D01*
X60575112Y-67246243D01*
X60618391Y-67270800D01*
X60670578Y-67300519D01*
X60731253Y-67335158D01*
X60799996Y-67374477D01*
X60876388Y-67418234D01*
X60960010Y-67466190D01*
X61050442Y-67518102D01*
X61147265Y-67573731D01*
X61250059Y-67632835D01*
X61358405Y-67695174D01*
X61471883Y-67760507D01*
X61590075Y-67828592D01*
X61712560Y-67899190D01*
X61838919Y-67972059D01*
X61968733Y-68046959D01*
X62101582Y-68123648D01*
X62237047Y-68201886D01*
X62343750Y-68263537D01*
X62520932Y-68365956D01*
X62687414Y-68462250D01*
X62843292Y-68552478D01*
X62988663Y-68636694D01*
X63123622Y-68714954D01*
X63248265Y-68787316D01*
X63362689Y-68853834D01*
X63466989Y-68914565D01*
X63561262Y-68969564D01*
X63645603Y-69018889D01*
X63720109Y-69062594D01*
X63784874Y-69100736D01*
X63839997Y-69133372D01*
X63885572Y-69160556D01*
X63921695Y-69182345D01*
X63948463Y-69198796D01*
X63965971Y-69209963D01*
X63974316Y-69215904D01*
X63993172Y-69233779D01*
X64032216Y-69282154D01*
X64060217Y-69336316D01*
X64077232Y-69396394D01*
X64083315Y-69462516D01*
X64082616Y-69492467D01*
X64073768Y-69554348D01*
X64054470Y-69610089D01*
X64024249Y-69660839D01*
X63982632Y-69707750D01*
X63980265Y-69709937D01*
X63974880Y-69714489D01*
X63967894Y-69719870D01*
X63958953Y-69726288D01*
X63947701Y-69733952D01*
X63933783Y-69743070D01*
X63916844Y-69753850D01*
X63896530Y-69766499D01*
X63872484Y-69781228D01*
X63844352Y-69798243D01*
X63811778Y-69817753D01*
X63774409Y-69839966D01*
X63731887Y-69865090D01*
X63683860Y-69893334D01*
X63629970Y-69924906D01*
X63569864Y-69960014D01*
X63503186Y-69998867D01*
X63429581Y-70041671D01*
X63348694Y-70088637D01*
X63260170Y-70139971D01*
X63163654Y-70195883D01*
X63058791Y-70256580D01*
X62945225Y-70322271D01*
X62822602Y-70393163D01*
X62690566Y-70469466D01*
X62548762Y-70551387D01*
X62396836Y-70639135D01*
X62234432Y-70732918D01*
X62072653Y-70826308D01*
X61898488Y-70926787D01*
X61734122Y-71021544D01*
X61579618Y-71110544D01*
X61435037Y-71193752D01*
X61300443Y-71271130D01*
X61175899Y-71342644D01*
X61061467Y-71408257D01*
X60957210Y-71467934D01*
X60863191Y-71521638D01*
X60779472Y-71569335D01*
X60706116Y-71610987D01*
X60643187Y-71646559D01*
X60590746Y-71676015D01*
X60548858Y-71699319D01*
X60517583Y-71716436D01*
X60496985Y-71727329D01*
X60487128Y-71731963D01*
X60442888Y-71742140D01*
X60404586Y-71744934D01*
X60391776Y-71745868D01*
X60340230Y-71742675D01*
X60293330Y-71732544D01*
X60263211Y-71721535D01*
X60205896Y-71691548D01*
X60155695Y-71652637D01*
X60113777Y-71605992D01*
X60081312Y-71552804D01*
X60059469Y-71494266D01*
X60059101Y-71492678D01*
X60058255Y-71487216D01*
X60057463Y-71479121D01*
X60056723Y-71467999D01*
X60056034Y-71453454D01*
X60055394Y-71435092D01*
X60054801Y-71412518D01*
X60054252Y-71385338D01*
X60053748Y-71353156D01*
X60053284Y-71315577D01*
X60052860Y-71272207D01*
X60052474Y-71222652D01*
X60052123Y-71166515D01*
X60051806Y-71103403D01*
X60051522Y-71032920D01*
X60051267Y-70954672D01*
X60051041Y-70868264D01*
X60050842Y-70773301D01*
X60050667Y-70669388D01*
X60050515Y-70556131D01*
X60050383Y-70433134D01*
X60050271Y-70300003D01*
X60050176Y-70156343D01*
X60050097Y-70001760D01*
X60050031Y-69835857D01*
X60049976Y-69658242D01*
X60049931Y-69468518D01*
X60049899Y-69331430D01*
X60049847Y-69150949D01*
X60049794Y-68982265D01*
X60049782Y-68943167D01*
X60181153Y-68943167D01*
X60181163Y-69106401D01*
X60181188Y-69281323D01*
X60181224Y-69468339D01*
X60181270Y-69644229D01*
X60181338Y-69827858D01*
X60181425Y-69999625D01*
X60181532Y-70159867D01*
X60181662Y-70308922D01*
X60181815Y-70447126D01*
X60181993Y-70574818D01*
X60182197Y-70692334D01*
X60182428Y-70800011D01*
X60182688Y-70898188D01*
X60182979Y-70987200D01*
X60183301Y-71067385D01*
X60183655Y-71139082D01*
X60184045Y-71202625D01*
X60184470Y-71258354D01*
X60184931Y-71306606D01*
X60185432Y-71347716D01*
X60185972Y-71382024D01*
X60186553Y-71409865D01*
X60187177Y-71431578D01*
X60187844Y-71447500D01*
X60188557Y-71457967D01*
X60189317Y-71463317D01*
X60191105Y-71469507D01*
X60210176Y-71511687D01*
X60238453Y-71547873D01*
X60273984Y-71577022D01*
X60314817Y-71598091D01*
X60359001Y-71610038D01*
X60404586Y-71611820D01*
X60449618Y-71602395D01*
X60457591Y-71598508D01*
X60476031Y-71588574D01*
X60504271Y-71572940D01*
X60541806Y-71551895D01*
X60588134Y-71525732D01*
X60642750Y-71494740D01*
X60705152Y-71459212D01*
X60774836Y-71419438D01*
X60851298Y-71375708D01*
X60934036Y-71328315D01*
X61022546Y-71277549D01*
X61116324Y-71223701D01*
X61214867Y-71167063D01*
X61317671Y-71107924D01*
X61424234Y-71046576D01*
X61534052Y-70983311D01*
X61646622Y-70918419D01*
X61761439Y-70852191D01*
X61878001Y-70784918D01*
X61995805Y-70716891D01*
X62114346Y-70648401D01*
X62233122Y-70579739D01*
X62351629Y-70511197D01*
X62469363Y-70443065D01*
X62585822Y-70375634D01*
X62700502Y-70309195D01*
X62812899Y-70244039D01*
X62922511Y-70180458D01*
X63028833Y-70118741D01*
X63131363Y-70059181D01*
X63229596Y-70002068D01*
X63323030Y-69947694D01*
X63411161Y-69896348D01*
X63493486Y-69848323D01*
X63569501Y-69803909D01*
X63638703Y-69763398D01*
X63700589Y-69727079D01*
X63754655Y-69695245D01*
X63800397Y-69668186D01*
X63837313Y-69646193D01*
X63864899Y-69629558D01*
X63882652Y-69618571D01*
X63890067Y-69613523D01*
X63898213Y-69605018D01*
X63916101Y-69582448D01*
X63930672Y-69559414D01*
X63934793Y-69551399D01*
X63941344Y-69535732D01*
X63945135Y-69519355D01*
X63946888Y-69498342D01*
X63947324Y-69468767D01*
X63947272Y-69455719D01*
X63946365Y-69429590D01*
X63943752Y-69410174D01*
X63938689Y-69393330D01*
X63930429Y-69374916D01*
X63922419Y-69360280D01*
X63907412Y-69337731D01*
X63892920Y-69320609D01*
X63887908Y-69317266D01*
X63872406Y-69307792D01*
X63847000Y-69292609D01*
X63812192Y-69272007D01*
X63768484Y-69246275D01*
X63716376Y-69215706D01*
X63656371Y-69180588D01*
X63588970Y-69141213D01*
X63514675Y-69097871D01*
X63433987Y-69050853D01*
X63347409Y-69000448D01*
X63255442Y-68946948D01*
X63158587Y-68890643D01*
X63057346Y-68831823D01*
X62952220Y-68770779D01*
X62843713Y-68707801D01*
X62732324Y-68643180D01*
X62618556Y-68577206D01*
X62502910Y-68510169D01*
X62385888Y-68442361D01*
X62267992Y-68374071D01*
X62149723Y-68305590D01*
X62031583Y-68237208D01*
X61914073Y-68169217D01*
X61797696Y-68101905D01*
X61682952Y-68035565D01*
X61570344Y-67970485D01*
X61460373Y-67906958D01*
X61353540Y-67845272D01*
X61250348Y-67785720D01*
X61151298Y-67728590D01*
X61056892Y-67674174D01*
X60967631Y-67622761D01*
X60884017Y-67574644D01*
X60806551Y-67530111D01*
X60735736Y-67489453D01*
X60672072Y-67452961D01*
X60616063Y-67420926D01*
X60568208Y-67393637D01*
X60529010Y-67371385D01*
X60498970Y-67354462D01*
X60478591Y-67343156D01*
X60468373Y-67337758D01*
X60445973Y-67328944D01*
X60401148Y-67320588D01*
X60356072Y-67323068D01*
X60312572Y-67335527D01*
X60272473Y-67357109D01*
X60237600Y-67386956D01*
X60209778Y-67424213D01*
X60190834Y-67468022D01*
X60190105Y-67470905D01*
X60189199Y-67476046D01*
X60188353Y-67483081D01*
X60187566Y-67492421D01*
X60186836Y-67504471D01*
X60186161Y-67519641D01*
X60185539Y-67538338D01*
X60184967Y-67560971D01*
X60184445Y-67587946D01*
X60183970Y-67619673D01*
X60183540Y-67656560D01*
X60183153Y-67699013D01*
X60182807Y-67747442D01*
X60182500Y-67802255D01*
X60182231Y-67863858D01*
X60181996Y-67932660D01*
X60181796Y-68009070D01*
X60181626Y-68093495D01*
X60181486Y-68186344D01*
X60181373Y-68288023D01*
X60181286Y-68398941D01*
X60181222Y-68519507D01*
X60181180Y-68650128D01*
X60181158Y-68791212D01*
X60181153Y-68943167D01*
X60049782Y-68943167D01*
X60049747Y-68824970D01*
X60049713Y-68678653D01*
X60049700Y-68542903D01*
X60049716Y-68417311D01*
X60049768Y-68301466D01*
X60049863Y-68194959D01*
X60050010Y-68097378D01*
X60050214Y-68008313D01*
X60050485Y-67927355D01*
X60050829Y-67854093D01*
X60051253Y-67788117D01*
X60051766Y-67729017D01*
X60052375Y-67676383D01*
X60053088Y-67629803D01*
X60053910Y-67588869D01*
X60054852Y-67553170D01*
X60055918Y-67522295D01*
X60057119Y-67495835D01*
X60058459Y-67473379D01*
X60059948Y-67454517D01*
X60061593Y-67438839D01*
X60063400Y-67425934D01*
X60065379Y-67415393D01*
X60067535Y-67406805D01*
X60069877Y-67399760D01*
X60072412Y-67393848D01*
X60075147Y-67388658D01*
X60078090Y-67383780D01*
X60081249Y-67378805D01*
X60084631Y-67373321D01*
X60088243Y-67366919D01*
X60113486Y-67326418D01*
X60151042Y-67284166D01*
X60198256Y-67247475D01*
X60202110Y-67244950D01*
X60239795Y-67222141D01*
X60273343Y-67206518D01*
X60306862Y-67196865D01*
X60344455Y-67191965D01*
X60390229Y-67190602D01*
X60413412Y-67190744D01*
G37*
%TO.C,*%
G36*
X139626901Y-119395212D02*
G01*
X139465915Y-119395212D01*
X139465915Y-117874789D01*
X139626901Y-117874789D01*
X139626901Y-119395212D01*
G37*
G36*
X138285352Y-121488029D02*
G01*
X138106479Y-121488029D01*
X138106479Y-120647324D01*
X138285352Y-120647324D01*
X138285352Y-121488029D01*
G37*
G36*
X135709577Y-118089437D02*
G01*
X135530704Y-118089437D01*
X135530704Y-117910564D01*
X135709577Y-117910564D01*
X135709577Y-118089437D01*
G37*
G36*
X135691690Y-119395212D02*
G01*
X135530704Y-119395212D01*
X135530704Y-118304085D01*
X135691690Y-118304085D01*
X135691690Y-119395212D01*
G37*
G36*
X133974507Y-116622676D02*
G01*
X133580986Y-116622676D01*
X133580986Y-114887606D01*
X133974507Y-114887606D01*
X133974507Y-116622676D01*
G37*
G36*
X129037605Y-116622676D02*
G01*
X128661971Y-116622676D01*
X128661971Y-114887606D01*
X129037605Y-114887606D01*
X129037605Y-116622676D01*
G37*
G36*
X124762535Y-121488029D02*
G01*
X124583662Y-121488029D01*
X124583662Y-120647324D01*
X124762535Y-120647324D01*
X124762535Y-121488029D01*
G37*
G36*
X121328169Y-121488029D02*
G01*
X121149295Y-121488029D01*
X121149295Y-120647324D01*
X121328169Y-120647324D01*
X121328169Y-121488029D01*
G37*
G36*
X117732817Y-119395212D02*
G01*
X117571831Y-119395212D01*
X117571831Y-118304085D01*
X117732817Y-118304085D01*
X117732817Y-119395212D01*
G37*
G36*
X117732817Y-118089437D02*
G01*
X117553943Y-118089437D01*
X117553943Y-117910564D01*
X117732817Y-117910564D01*
X117732817Y-118089437D01*
G37*
G36*
X113350422Y-118089437D02*
G01*
X113171549Y-118089437D01*
X113171549Y-117910564D01*
X113350422Y-117910564D01*
X113350422Y-118089437D01*
G37*
G36*
X113332535Y-119395212D02*
G01*
X113171549Y-119395212D01*
X113171549Y-118304085D01*
X113332535Y-118304085D01*
X113332535Y-119395212D01*
G37*
G36*
X133138274Y-117878232D02*
G01*
X133214295Y-117883733D01*
X133218961Y-118639472D01*
X133223627Y-119395212D01*
X133062253Y-119395212D01*
X133062253Y-117872732D01*
X133138274Y-117878232D01*
G37*
G36*
X132829718Y-121488029D02*
G01*
X132309025Y-121488029D01*
X132319929Y-121318099D01*
X132650845Y-121307813D01*
X132650845Y-120647324D01*
X132829718Y-120647324D01*
X132829718Y-121488029D01*
G37*
G36*
X132185774Y-121488029D02*
G01*
X131665082Y-121488029D01*
X131675986Y-121318099D01*
X131841443Y-121312956D01*
X132006901Y-121307813D01*
X132006901Y-120647324D01*
X132185774Y-120647324D01*
X132185774Y-121488029D01*
G37*
G36*
X137015352Y-116623140D02*
G01*
X136393767Y-116618436D01*
X135772183Y-116613733D01*
X135767063Y-116439331D01*
X135761944Y-116264930D01*
X136621831Y-116264930D01*
X136621831Y-114887606D01*
X137015352Y-114887606D01*
X137015352Y-116623140D01*
G37*
G36*
X135494929Y-116623140D02*
G01*
X134873345Y-116618436D01*
X134251760Y-116613733D01*
X134246641Y-116439331D01*
X134241521Y-116264930D01*
X135119295Y-116264930D01*
X135119295Y-114887606D01*
X135494929Y-114887606D01*
X135494929Y-116623140D01*
G37*
G36*
X128143239Y-121488029D02*
G01*
X127946479Y-121488029D01*
X127946479Y-121148169D01*
X127624507Y-121148169D01*
X127624507Y-120987184D01*
X127946479Y-120987184D01*
X127946479Y-120808310D01*
X127588732Y-120808310D01*
X127588732Y-120647324D01*
X128143239Y-120647324D01*
X128143239Y-121488029D01*
G37*
G36*
X137435704Y-121121338D02*
G01*
X137739788Y-120647706D01*
X137909718Y-120647324D01*
X137909718Y-121488029D01*
X137730845Y-121488029D01*
X137730845Y-120999285D01*
X137570469Y-121243657D01*
X137410094Y-121488029D01*
X137265774Y-121488029D01*
X137265774Y-120647324D01*
X137425722Y-120647324D01*
X137435704Y-121121338D01*
G37*
G36*
X140753802Y-119395212D02*
G01*
X139841549Y-119395212D01*
X139841549Y-119252113D01*
X140592817Y-119252113D01*
X140592817Y-118733381D01*
X139930986Y-118733381D01*
X139930986Y-118590282D01*
X140592817Y-118590282D01*
X140592817Y-118089437D01*
X139859436Y-118089437D01*
X139859436Y-117928451D01*
X140753802Y-117928451D01*
X140753802Y-119395212D01*
G37*
G36*
X136228309Y-121488029D02*
G01*
X135673802Y-121488029D01*
X135673802Y-121327043D01*
X136049436Y-121327043D01*
X136049436Y-121148169D01*
X135727464Y-121148169D01*
X135727464Y-120969296D01*
X136049436Y-120969296D01*
X136049436Y-120808310D01*
X135691690Y-120808310D01*
X135691690Y-120647324D01*
X136228309Y-120647324D01*
X136228309Y-121488029D01*
G37*
G36*
X130021408Y-121488029D02*
G01*
X129466901Y-121488029D01*
X129466901Y-121327043D01*
X129842535Y-121327043D01*
X129842535Y-121148169D01*
X129520563Y-121148169D01*
X129520563Y-120969296D01*
X129842535Y-120969296D01*
X129842535Y-120808310D01*
X129466901Y-120808310D01*
X129466901Y-120647324D01*
X130021408Y-120647324D01*
X130021408Y-121488029D01*
G37*
G36*
X127159436Y-121488029D02*
G01*
X126604929Y-121488029D01*
X126604929Y-121327043D01*
X126980563Y-121327043D01*
X126980563Y-121148169D01*
X126658591Y-121148169D01*
X126658591Y-120969296D01*
X126980563Y-120969296D01*
X126980563Y-120808310D01*
X126604929Y-120808310D01*
X126604929Y-120647324D01*
X127159436Y-120647324D01*
X127159436Y-121488029D01*
G37*
G36*
X120473530Y-120883119D02*
G01*
X120478521Y-121118913D01*
X120630563Y-120883120D01*
X120782605Y-120647326D01*
X120952535Y-120647324D01*
X120952535Y-121488029D01*
X120773662Y-121488029D01*
X120773662Y-120996831D01*
X120453210Y-121488029D01*
X120290704Y-121488029D01*
X120290704Y-120647324D01*
X120468539Y-120647324D01*
X120473530Y-120883119D01*
G37*
G36*
X121131408Y-119395212D02*
G01*
X120219155Y-119395212D01*
X120219155Y-119252113D01*
X120970422Y-119252113D01*
X120970422Y-118733381D01*
X120308591Y-118733381D01*
X120308591Y-118590282D01*
X120970422Y-118590282D01*
X120970422Y-118089437D01*
X120237042Y-118089437D01*
X120237042Y-117928451D01*
X121131408Y-117928451D01*
X121131408Y-119395212D01*
G37*
G36*
X131541831Y-121488029D02*
G01*
X131005211Y-121488029D01*
X131005211Y-121327043D01*
X131362957Y-121327043D01*
X131362957Y-121149562D01*
X131049929Y-121139226D01*
X131049929Y-120978240D01*
X131206443Y-120973072D01*
X131362957Y-120967903D01*
X131362957Y-120808310D01*
X131005211Y-120808310D01*
X131005211Y-120647324D01*
X131541831Y-120647324D01*
X131541831Y-121488029D01*
G37*
G36*
X123904573Y-121121338D02*
G01*
X124060680Y-120884331D01*
X124216788Y-120647324D01*
X124386901Y-120647324D01*
X124386901Y-121488029D01*
X124208028Y-121488029D01*
X124207764Y-121242078D01*
X124207499Y-120996127D01*
X124045206Y-121242078D01*
X123882912Y-121488029D01*
X123725070Y-121488029D01*
X123725070Y-120647324D01*
X123903943Y-120647324D01*
X123904573Y-121121338D01*
G37*
G36*
X123546197Y-121488029D02*
G01*
X122991690Y-121488029D01*
X122991690Y-121328294D01*
X123175035Y-121323197D01*
X123358380Y-121318099D01*
X123369284Y-121148169D01*
X123045352Y-121148169D01*
X123045352Y-120969296D01*
X123367324Y-120969296D01*
X123367324Y-120808310D01*
X122991690Y-120808310D01*
X122991690Y-120647324D01*
X123546197Y-120647324D01*
X123546197Y-121488029D01*
G37*
G36*
X122830704Y-121488029D02*
G01*
X122276197Y-121488029D01*
X122276197Y-121328294D01*
X122459542Y-121323197D01*
X122642887Y-121318099D01*
X122653791Y-121148169D01*
X122329859Y-121148169D01*
X122329859Y-120969296D01*
X122651831Y-120969296D01*
X122651831Y-120808310D01*
X122276197Y-120808310D01*
X122276197Y-120647324D01*
X122830704Y-120647324D01*
X122830704Y-121488029D01*
G37*
G36*
X125964923Y-120875388D02*
G01*
X125969929Y-121103451D01*
X126121971Y-120875837D01*
X126274014Y-120648222D01*
X126358979Y-120647773D01*
X126443943Y-120647324D01*
X126443943Y-121488029D01*
X126265070Y-121488029D01*
X126264310Y-120996127D01*
X126103684Y-121242078D01*
X125943059Y-121488029D01*
X125782112Y-121488029D01*
X125782112Y-120647324D01*
X125959917Y-120647324D01*
X125964923Y-120875388D01*
G37*
G36*
X137856056Y-115747336D02*
G01*
X137855803Y-115918748D01*
X137855099Y-116079075D01*
X137853993Y-116224792D01*
X137852534Y-116352370D01*
X137850770Y-116458282D01*
X137848749Y-116539001D01*
X137846520Y-116591000D01*
X137844131Y-116610752D01*
X137831880Y-116614350D01*
X137789605Y-116618649D01*
X137725401Y-116621588D01*
X137647371Y-116622676D01*
X137462535Y-116622676D01*
X137462535Y-114887606D01*
X137856056Y-114887606D01*
X137856056Y-115747336D01*
G37*
G36*
X133133802Y-116622676D02*
G01*
X132758686Y-116622676D01*
X132753955Y-116080577D01*
X132749225Y-115538477D01*
X132337817Y-116080110D01*
X131926408Y-116621743D01*
X131760950Y-116622210D01*
X131595493Y-116622676D01*
X131595493Y-114887606D01*
X131988465Y-114887606D01*
X131993211Y-115399604D01*
X131997957Y-115911601D01*
X132384026Y-115404075D01*
X132770094Y-114896550D01*
X132951948Y-114891452D01*
X133133802Y-114886355D01*
X133133802Y-116622676D01*
G37*
G36*
X135963645Y-118293649D02*
G01*
X136031970Y-118311493D01*
X136130113Y-118366450D01*
X136212133Y-118452383D01*
X136264084Y-118524100D01*
X136264084Y-118304085D01*
X136407183Y-118304085D01*
X136407183Y-119395212D01*
X136268522Y-119395212D01*
X136260310Y-119077712D01*
X136256729Y-118966122D01*
X136250446Y-118855915D01*
X136240849Y-118770893D01*
X136226593Y-118705210D01*
X136206329Y-118653019D01*
X136178713Y-118608471D01*
X136142396Y-118565720D01*
X136088259Y-118519918D01*
X136010275Y-118479942D01*
X135933743Y-118465071D01*
X135913979Y-118464031D01*
X135896816Y-118454470D01*
X135889797Y-118427260D01*
X135888450Y-118373348D01*
X135888450Y-118281625D01*
X135963645Y-118293649D01*
G37*
G36*
X121921468Y-118288609D02*
G01*
X122002422Y-118313787D01*
X122084413Y-118362965D01*
X122156456Y-118430086D01*
X122222535Y-118507285D01*
X122222535Y-118304085D01*
X122383521Y-118304085D01*
X122383521Y-119395212D01*
X122222535Y-119395212D01*
X122222535Y-119103317D01*
X122221479Y-118993553D01*
X122216104Y-118869247D01*
X122205341Y-118771369D01*
X122188263Y-118694619D01*
X122163940Y-118633695D01*
X122131445Y-118583299D01*
X122109488Y-118559625D01*
X122044835Y-118512388D01*
X121970278Y-118478224D01*
X121901276Y-118465071D01*
X121874120Y-118464062D01*
X121855257Y-118454974D01*
X121848055Y-118428575D01*
X121846901Y-118375634D01*
X121847427Y-118334869D01*
X121852418Y-118301736D01*
X121866952Y-118288698D01*
X121896091Y-118286590D01*
X121921468Y-118288609D01*
G37*
G36*
X113629195Y-118295871D02*
G01*
X113722253Y-118335940D01*
X113808361Y-118403336D01*
X113887042Y-118482017D01*
X113887042Y-118304085D01*
X114048028Y-118304085D01*
X114048028Y-119395212D01*
X113887042Y-119395212D01*
X113886649Y-119068768D01*
X113886627Y-119054321D01*
X113885911Y-118937358D01*
X113883918Y-118849562D01*
X113880146Y-118784969D01*
X113874092Y-118737617D01*
X113865254Y-118701540D01*
X113853130Y-118670775D01*
X113812087Y-118601709D01*
X113741973Y-118529349D01*
X113659808Y-118482028D01*
X113572849Y-118465071D01*
X113556076Y-118464262D01*
X113538235Y-118455252D01*
X113530790Y-118428751D01*
X113529295Y-118375634D01*
X113529315Y-118368468D01*
X113532085Y-118317286D01*
X113541553Y-118292636D01*
X113560598Y-118286297D01*
X113629195Y-118295871D01*
G37*
G36*
X137051126Y-118304085D02*
G01*
X137194225Y-118304085D01*
X137194225Y-118447184D01*
X137051126Y-118447184D01*
X137051060Y-118845176D01*
X137051009Y-118910349D01*
X137050499Y-119025971D01*
X137049108Y-119113262D01*
X137046437Y-119177296D01*
X137042085Y-119223145D01*
X137035651Y-119255883D01*
X137026734Y-119280582D01*
X137014933Y-119302315D01*
X137011978Y-119306953D01*
X136970074Y-119353611D01*
X136921091Y-119386579D01*
X136880588Y-119399541D01*
X136800578Y-119410733D01*
X136717649Y-119409639D01*
X136649826Y-119395654D01*
X136629544Y-119386046D01*
X136609082Y-119360678D01*
X136603943Y-119313874D01*
X136603943Y-119249539D01*
X136697981Y-119261288D01*
X136711301Y-119262881D01*
X136766991Y-119265879D01*
X136805336Y-119257322D01*
X136841080Y-119234446D01*
X136890140Y-119195855D01*
X136890140Y-118447184D01*
X136603943Y-118447184D01*
X136603943Y-118304085D01*
X136890140Y-118304085D01*
X136890140Y-117982113D01*
X137051126Y-117982113D01*
X137051126Y-118304085D01*
G37*
G36*
X119632038Y-118296343D02*
G01*
X119726576Y-118334956D01*
X119807637Y-118405074D01*
X119861408Y-118466316D01*
X119861408Y-118304085D01*
X120004507Y-118304085D01*
X120004507Y-119395212D01*
X119864966Y-119395212D01*
X119858715Y-119015106D01*
X119858400Y-118996153D01*
X119856016Y-118872566D01*
X119853248Y-118778783D01*
X119849583Y-118709532D01*
X119844510Y-118659544D01*
X119837517Y-118623549D01*
X119828092Y-118596276D01*
X119815723Y-118572456D01*
X119779558Y-118522670D01*
X119707551Y-118464055D01*
X119624530Y-118433619D01*
X119537483Y-118433423D01*
X119453395Y-118465529D01*
X119420468Y-118488287D01*
X119394231Y-118515195D01*
X119374591Y-118550333D01*
X119360613Y-118598288D01*
X119351366Y-118663650D01*
X119345916Y-118751007D01*
X119343330Y-118864947D01*
X119342676Y-119010060D01*
X119342676Y-119395212D01*
X119179422Y-119395212D01*
X119185028Y-118951140D01*
X119190633Y-118507069D01*
X119241007Y-118431004D01*
X119250621Y-118417260D01*
X119325007Y-118345626D01*
X119421011Y-118301761D01*
X119536733Y-118286590D01*
X119632038Y-118296343D01*
G37*
G36*
X112412872Y-118286200D02*
G01*
X112521477Y-118300692D01*
X112615376Y-118341181D01*
X112686900Y-118404378D01*
X112724366Y-118452008D01*
X112724366Y-118304085D01*
X112885352Y-118304085D01*
X112885352Y-119395212D01*
X112724366Y-119395212D01*
X112724338Y-119015106D01*
X112724337Y-119008287D01*
X112723636Y-118867431D01*
X112720892Y-118757265D01*
X112714992Y-118672923D01*
X112704820Y-118609541D01*
X112689265Y-118562253D01*
X112667211Y-118526195D01*
X112637546Y-118496501D01*
X112599155Y-118468306D01*
X112556215Y-118443960D01*
X112508057Y-118432364D01*
X112442918Y-118433623D01*
X112434638Y-118434367D01*
X112360732Y-118449312D01*
X112310766Y-118475463D01*
X112291857Y-118493643D01*
X112269003Y-118522845D01*
X112251825Y-118558864D01*
X112239536Y-118606524D01*
X112231349Y-118670650D01*
X112226475Y-118756065D01*
X112224128Y-118867593D01*
X112223521Y-119010060D01*
X112223521Y-119395212D01*
X112060786Y-119395212D01*
X112066132Y-118951141D01*
X112071479Y-118507071D01*
X112120689Y-118432762D01*
X112128896Y-118420879D01*
X112203378Y-118346235D01*
X112297703Y-118301252D01*
X112411338Y-118286198D01*
X112412872Y-118286200D01*
G37*
G36*
X139913098Y-121488029D02*
G01*
X139734225Y-121488029D01*
X139734225Y-121219719D01*
X139681816Y-121219719D01*
X139668941Y-121220225D01*
X139643939Y-121227362D01*
X139620582Y-121247870D01*
X139593006Y-121287968D01*
X139555352Y-121353874D01*
X139481297Y-121488029D01*
X139267647Y-121488029D01*
X139311905Y-121412007D01*
X139321921Y-121394751D01*
X139362153Y-121324822D01*
X139400006Y-121258291D01*
X139443849Y-121180596D01*
X139379559Y-121121679D01*
X139373235Y-121115848D01*
X139341185Y-121082731D01*
X139322981Y-121050540D01*
X139313883Y-121007044D01*
X139309147Y-120940008D01*
X139308398Y-120922820D01*
X139483802Y-120922820D01*
X139491644Y-120969545D01*
X139516514Y-121011242D01*
X139563365Y-121033128D01*
X139641725Y-121040845D01*
X139734225Y-121040845D01*
X139734225Y-120808310D01*
X139648768Y-120808310D01*
X139611902Y-120809849D01*
X139540271Y-120827392D01*
X139497804Y-120864888D01*
X139483802Y-120922820D01*
X139308398Y-120922820D01*
X139308242Y-120919238D01*
X139308857Y-120850903D01*
X139318002Y-120802627D01*
X139337640Y-120762160D01*
X139344993Y-120750979D01*
X139382602Y-120708630D01*
X139431421Y-120678978D01*
X139497500Y-120660134D01*
X139586885Y-120650212D01*
X139705625Y-120647324D01*
X139913098Y-120647324D01*
X139913098Y-121040845D01*
X139913098Y-121488029D01*
G37*
G36*
X124064929Y-118304085D02*
G01*
X124127535Y-118304085D01*
X124146008Y-118304245D01*
X124176543Y-118309465D01*
X124188245Y-118329824D01*
X124190140Y-118375634D01*
X124190008Y-118395942D01*
X124185553Y-118431282D01*
X124168159Y-118444926D01*
X124129023Y-118447184D01*
X124067905Y-118447184D01*
X124061945Y-118846011D01*
X124061005Y-118906059D01*
X124058273Y-119033515D01*
X124054084Y-119131872D01*
X124047295Y-119205901D01*
X124036761Y-119260373D01*
X124021336Y-119300059D01*
X123999877Y-119329730D01*
X123971238Y-119354157D01*
X123934274Y-119378111D01*
X123900447Y-119393749D01*
X123822991Y-119410442D01*
X123738504Y-119411437D01*
X123663629Y-119395654D01*
X123637826Y-119382297D01*
X123621655Y-119355961D01*
X123617746Y-119307148D01*
X123617746Y-119236087D01*
X123671857Y-119254950D01*
X123672653Y-119255224D01*
X123729297Y-119264805D01*
X123789483Y-119261898D01*
X123812955Y-119256258D01*
X123843193Y-119241814D01*
X123865990Y-119216886D01*
X123882363Y-119177265D01*
X123893329Y-119118738D01*
X123899903Y-119037096D01*
X123903103Y-118928126D01*
X123903943Y-118787617D01*
X123903943Y-118447184D01*
X123617746Y-118447184D01*
X123617746Y-118304085D01*
X123903943Y-118304085D01*
X123903943Y-117982113D01*
X124064929Y-117982113D01*
X124064929Y-118304085D01*
G37*
G36*
X139098400Y-121240700D02*
G01*
X139130933Y-121333190D01*
X139156300Y-121406341D01*
X139172836Y-121455383D01*
X139178879Y-121475548D01*
X139171977Y-121480656D01*
X139138558Y-121485044D01*
X139086613Y-121484492D01*
X138993508Y-121479085D01*
X138940486Y-121307817D01*
X138656724Y-121318099D01*
X138627128Y-121398592D01*
X138608721Y-121444759D01*
X138589479Y-121469526D01*
X138557994Y-121480089D01*
X138502529Y-121484544D01*
X138458328Y-121486564D01*
X138425669Y-121484438D01*
X138415212Y-121474182D01*
X138419306Y-121452887D01*
X138422737Y-121442637D01*
X138437500Y-121400115D01*
X138461445Y-121331987D01*
X138492699Y-121243564D01*
X138529385Y-121140156D01*
X138535967Y-121121662D01*
X138721116Y-121121662D01*
X138722891Y-121139484D01*
X138744513Y-121146772D01*
X138793935Y-121148169D01*
X138819063Y-121147468D01*
X138859625Y-121142300D01*
X138875633Y-121133755D01*
X138870429Y-121111150D01*
X138856498Y-121064674D01*
X138836900Y-121004644D01*
X138798166Y-120889947D01*
X138767967Y-120978812D01*
X138757389Y-121010088D01*
X138738205Y-121067507D01*
X138725003Y-121107923D01*
X138721116Y-121121662D01*
X138535967Y-121121662D01*
X138569630Y-121027075D01*
X138708173Y-120638381D01*
X138882668Y-120638381D01*
X139030354Y-121049789D01*
X139060364Y-121133638D01*
X139060406Y-121133755D01*
X139098400Y-121240700D01*
G37*
G36*
X135512817Y-121488029D02*
G01*
X135333943Y-121488029D01*
X135333943Y-121219719D01*
X135283840Y-121219719D01*
X135274458Y-121220045D01*
X135249215Y-121226947D01*
X135225128Y-121247483D01*
X135196443Y-121287757D01*
X135157409Y-121353874D01*
X135081080Y-121488029D01*
X134983920Y-121488029D01*
X134944581Y-121486872D01*
X134902983Y-121482000D01*
X134886893Y-121474613D01*
X134889025Y-121467908D01*
X134904818Y-121435020D01*
X134932633Y-121382703D01*
X134968447Y-121318652D01*
X135049867Y-121176106D01*
X135003588Y-121142394D01*
X134985193Y-121127351D01*
X134934658Y-121059967D01*
X134908068Y-120978246D01*
X134906667Y-120939409D01*
X135084134Y-120939409D01*
X135111366Y-121001091D01*
X135114474Y-121005374D01*
X135138844Y-121027518D01*
X135175706Y-121038123D01*
X135236577Y-121040845D01*
X135333943Y-121040845D01*
X135333943Y-120808310D01*
X135244507Y-120808310D01*
X135184272Y-120814839D01*
X135123825Y-120841594D01*
X135089367Y-120884681D01*
X135084134Y-120939409D01*
X134906667Y-120939409D01*
X134904912Y-120890787D01*
X134924682Y-120806194D01*
X134966868Y-120733068D01*
X135030962Y-120680009D01*
X135045599Y-120672833D01*
X135083567Y-120660261D01*
X135133805Y-120652446D01*
X135204130Y-120648448D01*
X135302361Y-120647324D01*
X135512817Y-120647324D01*
X135512817Y-121040845D01*
X135512817Y-121488029D01*
G37*
G36*
X134226732Y-120650407D02*
G01*
X134267407Y-120666911D01*
X134359245Y-120728890D01*
X134426451Y-120815835D01*
X134467996Y-120926111D01*
X134482854Y-121058082D01*
X134471784Y-121184748D01*
X134435265Y-121297640D01*
X134375029Y-121387796D01*
X134292886Y-121452547D01*
X134190647Y-121489221D01*
X134106796Y-121495176D01*
X134010287Y-121480794D01*
X133923195Y-121447248D01*
X133857560Y-121397841D01*
X133846439Y-121384808D01*
X133838213Y-121364713D01*
X133848837Y-121340864D01*
X133881067Y-121302039D01*
X133935336Y-121240229D01*
X133994171Y-121283636D01*
X134049395Y-121315317D01*
X134115946Y-121324634D01*
X134187631Y-121301000D01*
X134196140Y-121296223D01*
X134247936Y-121245831D01*
X134281492Y-121174147D01*
X134296173Y-121089874D01*
X134291344Y-121001716D01*
X134266371Y-120918375D01*
X134220620Y-120848557D01*
X134181287Y-120821688D01*
X134116306Y-120807497D01*
X134046502Y-120815597D01*
X133984921Y-120846124D01*
X133979398Y-120850403D01*
X133947709Y-120872067D01*
X133932420Y-120877427D01*
X133929585Y-120873660D01*
X133909988Y-120848962D01*
X133879171Y-120810781D01*
X133870570Y-120799836D01*
X133847356Y-120758899D01*
X133850677Y-120726279D01*
X133883221Y-120696172D01*
X133947676Y-120662770D01*
X134013387Y-120640865D01*
X134121657Y-120631184D01*
X134226732Y-120650407D01*
G37*
G36*
X124532692Y-118684191D02*
G01*
X124533008Y-118703143D01*
X124535392Y-118826730D01*
X124538160Y-118920514D01*
X124541825Y-118989764D01*
X124546898Y-119039752D01*
X124553891Y-119075747D01*
X124563316Y-119103020D01*
X124575685Y-119126841D01*
X124587647Y-119145998D01*
X124653537Y-119218347D01*
X124733800Y-119258075D01*
X124829335Y-119265673D01*
X124837615Y-119264929D01*
X124911521Y-119249984D01*
X124961487Y-119223833D01*
X124980396Y-119205654D01*
X125003250Y-119176452D01*
X125020427Y-119140433D01*
X125032717Y-119092772D01*
X125040904Y-119028647D01*
X125045778Y-118943232D01*
X125048125Y-118831703D01*
X125048732Y-118689237D01*
X125048732Y-118304085D01*
X125209718Y-118304085D01*
X125209718Y-118712824D01*
X125209158Y-118829230D01*
X125206757Y-118961396D01*
X125202577Y-119066162D01*
X125196738Y-119140746D01*
X125189360Y-119182366D01*
X125157362Y-119252958D01*
X125098471Y-119330516D01*
X125027632Y-119383017D01*
X124978863Y-119398772D01*
X124905728Y-119409488D01*
X124826328Y-119412397D01*
X124754286Y-119407074D01*
X124703225Y-119393097D01*
X124687175Y-119383306D01*
X124643995Y-119350491D01*
X124597077Y-119308974D01*
X124530000Y-119244853D01*
X124530000Y-119395212D01*
X124369014Y-119395212D01*
X124369014Y-118304085D01*
X124526441Y-118304085D01*
X124532692Y-118684191D01*
G37*
G36*
X116893811Y-118295034D02*
G01*
X116984712Y-118327030D01*
X117063222Y-118386951D01*
X117124648Y-118448376D01*
X117124648Y-118304085D01*
X117285633Y-118304085D01*
X117285633Y-119395212D01*
X117124648Y-119395212D01*
X117124648Y-119023368D01*
X117124625Y-118972079D01*
X117124188Y-118858591D01*
X117122811Y-118773209D01*
X117119996Y-118710365D01*
X117115245Y-118664493D01*
X117108060Y-118630025D01*
X117097945Y-118601395D01*
X117084401Y-118573037D01*
X117080581Y-118565820D01*
X117021016Y-118490928D01*
X116941000Y-118444943D01*
X116842939Y-118429296D01*
X116802558Y-118431777D01*
X116753570Y-118448461D01*
X116703087Y-118487430D01*
X116680369Y-118509951D01*
X116655793Y-118542035D01*
X116637302Y-118580632D01*
X116624044Y-118630618D01*
X116615170Y-118696867D01*
X116609828Y-118784254D01*
X116607169Y-118897652D01*
X116606342Y-119041937D01*
X116605915Y-119395212D01*
X116442092Y-119395212D01*
X116447982Y-118970388D01*
X116449273Y-118882692D01*
X116451486Y-118766333D01*
X116454222Y-118677671D01*
X116457914Y-118611712D01*
X116462996Y-118563458D01*
X116469900Y-118527913D01*
X116479059Y-118500082D01*
X116490907Y-118474968D01*
X116503754Y-118452051D01*
X116572735Y-118367231D01*
X116659754Y-118313245D01*
X116765280Y-118289778D01*
X116783545Y-118288686D01*
X116893811Y-118295034D01*
G37*
G36*
X134981648Y-118313538D02*
G01*
X135083174Y-118362385D01*
X135166369Y-118435159D01*
X135212006Y-118498903D01*
X135268653Y-118620439D01*
X135301875Y-118755369D01*
X135310613Y-118894674D01*
X135293807Y-119029334D01*
X135250397Y-119150330D01*
X135217005Y-119203478D01*
X135156048Y-119275319D01*
X135086805Y-119337947D01*
X135020915Y-119379727D01*
X135010217Y-119384373D01*
X134907897Y-119411039D01*
X134796710Y-119413906D01*
X134686713Y-119394622D01*
X134587964Y-119354833D01*
X134510519Y-119296185D01*
X134468198Y-119251136D01*
X134514200Y-119205135D01*
X134560201Y-119159133D01*
X134635121Y-119208713D01*
X134681065Y-119234508D01*
X134778939Y-119263876D01*
X134876988Y-119262607D01*
X134966850Y-119230160D01*
X135036059Y-119173158D01*
X135093777Y-119085577D01*
X135130248Y-118977189D01*
X135142744Y-118853828D01*
X135142627Y-118841635D01*
X135129647Y-118716811D01*
X135093889Y-118614861D01*
X135033382Y-118529945D01*
X134972681Y-118478432D01*
X134883935Y-118439274D01*
X134790204Y-118433408D01*
X134696338Y-118460927D01*
X134607188Y-118521920D01*
X134591808Y-118535555D01*
X134571914Y-118545466D01*
X134552362Y-118533850D01*
X134521851Y-118497469D01*
X134474606Y-118438240D01*
X134537133Y-118383073D01*
X134552067Y-118370652D01*
X134647000Y-118317176D01*
X134755569Y-118290272D01*
X134869783Y-118289280D01*
X134981648Y-118313538D01*
G37*
G36*
X122115211Y-121488029D02*
G01*
X121936338Y-121488029D01*
X121936338Y-121219719D01*
X121878204Y-121220058D01*
X121861142Y-121220729D01*
X121835014Y-121227575D01*
X121811765Y-121247101D01*
X121784997Y-121285695D01*
X121748314Y-121349742D01*
X121676558Y-121479085D01*
X121573913Y-121484449D01*
X121529341Y-121485714D01*
X121487445Y-121484030D01*
X121471267Y-121479144D01*
X121473455Y-121472907D01*
X121489393Y-121441054D01*
X121517395Y-121389591D01*
X121553440Y-121326011D01*
X121635613Y-121183548D01*
X121580626Y-121132183D01*
X121548921Y-121097441D01*
X121504255Y-121014550D01*
X121490785Y-120935911D01*
X121677354Y-120935911D01*
X121689455Y-120987762D01*
X121722571Y-121023430D01*
X121737765Y-121029001D01*
X121786225Y-121037499D01*
X121845725Y-121040845D01*
X121936338Y-121040845D01*
X121936338Y-120808310D01*
X121842429Y-120808584D01*
X121807243Y-120809571D01*
X121756947Y-120814456D01*
X121728839Y-120822000D01*
X121714645Y-120833596D01*
X121685881Y-120880362D01*
X121677354Y-120935911D01*
X121490785Y-120935911D01*
X121488833Y-120924514D01*
X121502106Y-120834971D01*
X121543524Y-120753562D01*
X121612539Y-120687927D01*
X121624091Y-120680470D01*
X121652899Y-120665572D01*
X121686602Y-120655920D01*
X121732920Y-120650403D01*
X121799568Y-120647909D01*
X121894265Y-120647324D01*
X122115211Y-120647324D01*
X122115211Y-120808310D01*
X122115211Y-121488029D01*
G37*
G36*
X129046157Y-121058733D02*
G01*
X129040826Y-121160315D01*
X129014887Y-121273652D01*
X128965621Y-121362906D01*
X128891060Y-121431318D01*
X128789239Y-121482127D01*
X128748727Y-121492530D01*
X128663957Y-121497307D01*
X128575530Y-121486417D01*
X128500844Y-121461124D01*
X128468611Y-121441783D01*
X128393467Y-121370529D01*
X128337925Y-121277468D01*
X128303685Y-121169561D01*
X128292446Y-121053767D01*
X128294098Y-121039446D01*
X128486295Y-121039446D01*
X128490876Y-121144963D01*
X128518368Y-121230414D01*
X128567298Y-121290988D01*
X128584848Y-121303238D01*
X128652904Y-121326712D01*
X128721922Y-121318354D01*
X128784913Y-121280168D01*
X128834892Y-121214161D01*
X128835051Y-121213855D01*
X128857965Y-121140893D01*
X128864537Y-121053161D01*
X128855023Y-120966319D01*
X128829680Y-120896026D01*
X128801807Y-120858848D01*
X128743680Y-120816062D01*
X128678461Y-120798795D01*
X128616078Y-120810997D01*
X128555286Y-120854973D01*
X128508763Y-120929242D01*
X128487054Y-121029155D01*
X128486295Y-121039446D01*
X128294098Y-121039446D01*
X128305910Y-120937047D01*
X128345776Y-120826361D01*
X128360246Y-120800698D01*
X128429181Y-120720358D01*
X128516825Y-120664492D01*
X128616135Y-120634499D01*
X128720068Y-120631773D01*
X128821581Y-120657714D01*
X128913633Y-120713717D01*
X128966780Y-120767212D01*
X129012529Y-120843976D01*
X129038046Y-120938698D01*
X129045780Y-121053161D01*
X129046157Y-121058733D01*
G37*
G36*
X140489642Y-120644534D02*
G01*
X140590938Y-120687952D01*
X140676041Y-120759250D01*
X140687409Y-120772684D01*
X140740513Y-120857563D01*
X140770169Y-120956426D01*
X140779123Y-121077753D01*
X140766781Y-121188575D01*
X140727791Y-121296393D01*
X140665475Y-121385067D01*
X140583230Y-121449886D01*
X140484458Y-121486137D01*
X140430741Y-121493643D01*
X140304022Y-121487111D01*
X140181408Y-121445152D01*
X140100915Y-121405488D01*
X140095857Y-121205279D01*
X140090800Y-121005071D01*
X140413943Y-121005071D01*
X140413943Y-121166057D01*
X140342394Y-121166057D01*
X140318059Y-121166224D01*
X140284944Y-121171313D01*
X140272649Y-121191119D01*
X140270845Y-121235692D01*
X140272233Y-121265319D01*
X140285614Y-121303689D01*
X140319261Y-121322224D01*
X140380520Y-121327043D01*
X140408575Y-121325320D01*
X140484567Y-121299523D01*
X140542655Y-121245689D01*
X140579764Y-121167558D01*
X140592817Y-121068870D01*
X140592778Y-121063162D01*
X140580571Y-120969073D01*
X140548914Y-120890913D01*
X140501289Y-120837479D01*
X140482229Y-120826720D01*
X140415177Y-120810485D01*
X140338493Y-120813939D01*
X140267044Y-120837107D01*
X140261263Y-120840085D01*
X140225138Y-120855522D01*
X140202638Y-120850850D01*
X140177987Y-120823691D01*
X140139810Y-120772544D01*
X140123198Y-120739032D01*
X140127313Y-120716409D01*
X140150454Y-120696832D01*
X140161132Y-120690180D01*
X140267484Y-120644787D01*
X140379406Y-120629859D01*
X140489642Y-120644534D01*
G37*
G36*
X125302298Y-120635294D02*
G01*
X125404390Y-120666737D01*
X125497208Y-120731113D01*
X125556270Y-120798865D01*
X125604403Y-120894236D01*
X125628277Y-120998760D01*
X125629174Y-121106510D01*
X125608377Y-121211557D01*
X125567169Y-121307971D01*
X125506830Y-121389825D01*
X125428645Y-121451190D01*
X125333895Y-121486137D01*
X125280178Y-121493643D01*
X125153459Y-121487111D01*
X125030845Y-121445152D01*
X124950352Y-121405488D01*
X124945294Y-121205279D01*
X124940236Y-121005071D01*
X125263380Y-121005071D01*
X125263380Y-121166057D01*
X125191831Y-121166057D01*
X125167496Y-121166224D01*
X125134381Y-121171313D01*
X125122085Y-121191119D01*
X125120281Y-121235692D01*
X125121465Y-121263315D01*
X125134399Y-121302858D01*
X125167541Y-121322031D01*
X125228227Y-121327043D01*
X125285916Y-121319934D01*
X125356426Y-121283542D01*
X125407913Y-121216906D01*
X125433346Y-121143745D01*
X125441391Y-121054281D01*
X125429286Y-120966670D01*
X125398556Y-120891030D01*
X125350726Y-120837479D01*
X125331638Y-120826711D01*
X125264635Y-120810490D01*
X125188044Y-120813891D01*
X125116789Y-120836947D01*
X125095478Y-120847647D01*
X125067804Y-120855260D01*
X125045446Y-120842769D01*
X125014825Y-120806059D01*
X125003927Y-120791674D01*
X124978429Y-120753305D01*
X124968239Y-120729985D01*
X124980907Y-120710876D01*
X125020003Y-120686378D01*
X125076198Y-120662602D01*
X125139927Y-120643517D01*
X125201629Y-120633095D01*
X125302298Y-120635294D01*
G37*
G36*
X119835342Y-120639589D02*
G01*
X119938526Y-120680468D01*
X120027938Y-120752094D01*
X120099245Y-120853029D01*
X120119269Y-120902783D01*
X120137622Y-120999470D01*
X120139354Y-121105315D01*
X120124640Y-121206615D01*
X120093655Y-121289669D01*
X120091355Y-121293705D01*
X120022391Y-121384559D01*
X119937139Y-121450498D01*
X119842486Y-121486137D01*
X119790198Y-121493407D01*
X119663581Y-121486593D01*
X119539436Y-121444258D01*
X119458943Y-121405038D01*
X119453886Y-121205055D01*
X119448828Y-121005071D01*
X119771971Y-121005071D01*
X119771971Y-121166057D01*
X119700422Y-121166057D01*
X119676088Y-121166224D01*
X119642973Y-121171313D01*
X119630677Y-121191119D01*
X119628873Y-121235692D01*
X119630261Y-121265319D01*
X119643642Y-121303689D01*
X119677289Y-121322224D01*
X119738548Y-121327043D01*
X119815787Y-121312110D01*
X119881962Y-121270932D01*
X119925423Y-121210162D01*
X119944654Y-121143805D01*
X119950391Y-121053303D01*
X119936879Y-120965308D01*
X119905921Y-120889980D01*
X119859318Y-120837479D01*
X119840258Y-120826720D01*
X119773205Y-120810485D01*
X119696522Y-120813939D01*
X119625072Y-120837107D01*
X119619291Y-120840085D01*
X119583167Y-120855522D01*
X119560666Y-120850850D01*
X119536015Y-120823691D01*
X119511421Y-120792101D01*
X119484694Y-120750640D01*
X119483053Y-120723036D01*
X119507976Y-120700415D01*
X119560938Y-120673904D01*
X119604978Y-120655841D01*
X119722716Y-120630900D01*
X119835342Y-120639589D01*
G37*
G36*
X136794427Y-120639661D02*
G01*
X136896614Y-120681057D01*
X136985531Y-120752701D01*
X137056428Y-120853029D01*
X137076452Y-120902783D01*
X137094805Y-120999470D01*
X137096537Y-121105315D01*
X137081823Y-121206615D01*
X137050838Y-121289669D01*
X137047056Y-121296257D01*
X136978041Y-121386131D01*
X136893310Y-121450892D01*
X136799669Y-121485240D01*
X136748140Y-121492114D01*
X136619749Y-121485767D01*
X136496619Y-121444281D01*
X136416126Y-121405038D01*
X136411069Y-121205055D01*
X136406011Y-121005071D01*
X136729155Y-121005071D01*
X136729155Y-121166057D01*
X136657605Y-121166057D01*
X136633271Y-121166224D01*
X136600156Y-121171313D01*
X136587860Y-121191119D01*
X136586056Y-121235692D01*
X136587444Y-121265319D01*
X136600825Y-121303689D01*
X136634472Y-121322224D01*
X136695731Y-121327043D01*
X136728240Y-121324961D01*
X136804389Y-121298759D01*
X136860852Y-121244191D01*
X136895955Y-121163372D01*
X136908028Y-121058419D01*
X136907390Y-121033743D01*
X136889658Y-120938415D01*
X136848925Y-120867601D01*
X136786971Y-120823499D01*
X136705575Y-120808310D01*
X136700512Y-120808389D01*
X136638199Y-120818255D01*
X136583316Y-120839605D01*
X136575849Y-120844001D01*
X136542280Y-120860349D01*
X136520694Y-120855223D01*
X136495083Y-120826190D01*
X136470938Y-120795146D01*
X136444183Y-120753874D01*
X136442207Y-120726284D01*
X136466412Y-120703256D01*
X136518198Y-120675666D01*
X136569234Y-120653875D01*
X136683717Y-120630079D01*
X136794427Y-120639661D01*
G37*
G36*
X133759190Y-121072707D02*
G01*
X133744839Y-121186303D01*
X133706340Y-121290420D01*
X133645695Y-121379446D01*
X133564901Y-121447770D01*
X133465959Y-121489783D01*
X133431025Y-121495439D01*
X133351984Y-121495385D01*
X133270643Y-121483243D01*
X133205587Y-121461063D01*
X133205140Y-121460829D01*
X133120642Y-121398111D01*
X133057856Y-121314243D01*
X133016686Y-121215496D01*
X132997032Y-121108140D01*
X132997674Y-121068214D01*
X133189159Y-121068214D01*
X133196492Y-121164545D01*
X133223768Y-121237199D01*
X133272791Y-121291874D01*
X133317916Y-121315656D01*
X133373714Y-121327043D01*
X133395269Y-121325871D01*
X133465432Y-121301757D01*
X133518241Y-121248755D01*
X133551521Y-121169842D01*
X133563098Y-121067990D01*
X133561607Y-121022348D01*
X133544062Y-120926240D01*
X133506207Y-120858079D01*
X133447324Y-120816307D01*
X133444458Y-120815126D01*
X133373270Y-120798904D01*
X133310291Y-120814538D01*
X133248386Y-120863730D01*
X133233960Y-120879731D01*
X133210578Y-120916395D01*
X133197620Y-120962979D01*
X133190669Y-121032393D01*
X133189159Y-121068214D01*
X132997674Y-121068214D01*
X132998797Y-120998446D01*
X133021883Y-120892683D01*
X133066191Y-120797123D01*
X133131624Y-120718036D01*
X133218084Y-120661693D01*
X133235743Y-120654400D01*
X133344052Y-120630184D01*
X133451558Y-120637769D01*
X133551512Y-120674831D01*
X133637162Y-120739050D01*
X133701758Y-120828101D01*
X133707456Y-120839516D01*
X133747396Y-120955241D01*
X133758716Y-121067990D01*
X133759190Y-121072707D01*
G37*
G36*
X130500823Y-120638398D02*
G01*
X130570865Y-120640370D01*
X130619591Y-120647858D01*
X130659741Y-120664056D01*
X130704057Y-120692153D01*
X130754557Y-120734788D01*
X130821048Y-120824785D01*
X130864115Y-120932179D01*
X130882127Y-121049660D01*
X130873453Y-121169919D01*
X130836463Y-121285645D01*
X130830381Y-121298061D01*
X130766363Y-121386497D01*
X130680144Y-121452077D01*
X130579508Y-121488652D01*
X130532525Y-121494737D01*
X130410759Y-121486607D01*
X130289718Y-121446027D01*
X130209225Y-121407536D01*
X130204167Y-121206303D01*
X130199110Y-121005071D01*
X130522253Y-121005071D01*
X130522253Y-121166057D01*
X130441760Y-121166057D01*
X130406258Y-121166438D01*
X130374773Y-121171919D01*
X130363021Y-121189952D01*
X130361267Y-121228033D01*
X130362680Y-121250875D01*
X130381108Y-121295235D01*
X130424168Y-121319602D01*
X130496035Y-121327043D01*
X130556417Y-121314596D01*
X130618800Y-121272655D01*
X130666330Y-121207653D01*
X130692361Y-121126382D01*
X130697041Y-121029041D01*
X130675924Y-120945010D01*
X130626011Y-120869587D01*
X130623533Y-120866777D01*
X130584431Y-120829027D01*
X130545363Y-120812172D01*
X130488606Y-120808310D01*
X130479160Y-120808458D01*
X130412158Y-120817714D01*
X130362189Y-120838298D01*
X130345417Y-120849542D01*
X130322894Y-120857026D01*
X130301161Y-120844279D01*
X130268611Y-120807478D01*
X130255076Y-120790308D01*
X130230745Y-120752125D01*
X130223915Y-120728464D01*
X130226122Y-120724437D01*
X130250552Y-120701594D01*
X130291154Y-120674319D01*
X130298090Y-120670384D01*
X130345340Y-120651235D01*
X130405335Y-120641252D01*
X130489409Y-120638381D01*
X130500823Y-120638398D01*
G37*
G36*
X130061886Y-117935393D02*
G01*
X130121452Y-117956789D01*
X130239666Y-118025495D01*
X130343183Y-118121953D01*
X130427336Y-118241301D01*
X130487457Y-118378678D01*
X130502136Y-118427773D01*
X130514109Y-118482832D01*
X130520256Y-118541778D01*
X130521578Y-118615201D01*
X130519074Y-118713696D01*
X130516868Y-118771158D01*
X130512366Y-118847890D01*
X130505105Y-118905038D01*
X130492900Y-118952848D01*
X130473565Y-119001565D01*
X130444916Y-119061438D01*
X130432353Y-119085915D01*
X130347352Y-119213273D01*
X130244215Y-119310071D01*
X130122354Y-119376883D01*
X130083296Y-119390777D01*
X130026460Y-119403623D01*
X129959347Y-119408698D01*
X129869366Y-119407529D01*
X129793357Y-119402198D01*
X129678048Y-119379097D01*
X129576686Y-119334783D01*
X129477255Y-119264886D01*
X129425004Y-119221979D01*
X129474901Y-119156560D01*
X129524799Y-119091140D01*
X129588458Y-119147033D01*
X129671519Y-119207050D01*
X129770904Y-119245733D01*
X129887253Y-119257934D01*
X129946390Y-119254226D01*
X130059809Y-119222495D01*
X130158357Y-119160001D01*
X130239972Y-119068773D01*
X130302592Y-118950839D01*
X130344158Y-118808228D01*
X130351577Y-118762781D01*
X130356680Y-118624387D01*
X130337539Y-118489465D01*
X130296532Y-118364037D01*
X130236041Y-118254123D01*
X130158446Y-118165744D01*
X130066126Y-118104921D01*
X130047028Y-118096888D01*
X129936007Y-118071827D01*
X129818147Y-118077020D01*
X129701711Y-118111266D01*
X129594965Y-118173363D01*
X129533286Y-118220408D01*
X129483395Y-118159394D01*
X129433505Y-118098381D01*
X129471573Y-118057746D01*
X129499759Y-118031496D01*
X129589510Y-117976213D01*
X129699675Y-117937080D01*
X129821176Y-117915978D01*
X129944939Y-117914789D01*
X130061886Y-117935393D01*
G37*
G36*
X129286794Y-118969233D02*
G01*
X129253555Y-119092515D01*
X129197881Y-119204047D01*
X129120444Y-119297954D01*
X129021916Y-119368361D01*
X128928757Y-119401106D01*
X128819503Y-119413986D01*
X128710188Y-119405803D01*
X128615094Y-119376279D01*
X128589198Y-119362238D01*
X128504359Y-119296567D01*
X128427875Y-119209329D01*
X128369636Y-119111204D01*
X128351538Y-119064719D01*
X128339469Y-119011155D01*
X128333271Y-118942972D01*
X128332101Y-118884456D01*
X128486274Y-118884456D01*
X128504928Y-118998356D01*
X128545101Y-119100932D01*
X128604567Y-119185109D01*
X128681101Y-119243812D01*
X128708211Y-119255086D01*
X128787280Y-119268682D01*
X128869936Y-119262340D01*
X128939225Y-119236539D01*
X129011330Y-119180231D01*
X129076314Y-119092345D01*
X129114535Y-118982872D01*
X129127042Y-118849648D01*
X129126761Y-118830262D01*
X129111022Y-118708985D01*
X129073605Y-118605826D01*
X129017920Y-118523723D01*
X128947373Y-118465616D01*
X128865375Y-118434445D01*
X128775332Y-118433148D01*
X128680653Y-118464666D01*
X128621522Y-118504067D01*
X128554669Y-118583959D01*
X128507789Y-118692801D01*
X128491365Y-118766309D01*
X128486274Y-118884456D01*
X128332101Y-118884456D01*
X128331405Y-118849648D01*
X128331730Y-118787087D01*
X128334806Y-118718553D01*
X128342754Y-118666789D01*
X128357571Y-118620541D01*
X128381250Y-118568559D01*
X128423770Y-118497358D01*
X128495254Y-118413230D01*
X128576489Y-118347040D01*
X128658516Y-118307233D01*
X128666101Y-118305021D01*
X128794328Y-118285327D01*
X128918375Y-118298208D01*
X129032458Y-118342327D01*
X129130789Y-118416348D01*
X129181968Y-118476098D01*
X129245186Y-118587633D01*
X129283282Y-118710917D01*
X129296927Y-118840075D01*
X129296176Y-118849648D01*
X129286794Y-118969233D01*
G37*
G36*
X115170923Y-118858527D02*
G01*
X115156294Y-118995360D01*
X115115384Y-119122364D01*
X115051024Y-119233873D01*
X114966049Y-119324217D01*
X114863291Y-119387727D01*
X114830479Y-119398043D01*
X114756199Y-119408813D01*
X114668944Y-119411554D01*
X114582399Y-119406089D01*
X114510250Y-119392245D01*
X114493238Y-119386238D01*
X114431963Y-119355131D01*
X114375756Y-119315298D01*
X114343417Y-119286653D01*
X114323786Y-119262391D01*
X114324697Y-119240979D01*
X114342490Y-119210941D01*
X114365896Y-119179482D01*
X114390485Y-119165987D01*
X114422209Y-119176338D01*
X114470864Y-119210502D01*
X114516042Y-119236288D01*
X114598511Y-119261620D01*
X114688739Y-119271402D01*
X114771310Y-119262945D01*
X114833016Y-119236066D01*
X114902147Y-119172402D01*
X114959998Y-119077284D01*
X115005220Y-118952500D01*
X115016354Y-118912254D01*
X114280563Y-118912254D01*
X114280563Y-118808177D01*
X114280759Y-118791129D01*
X114281260Y-118787043D01*
X114436977Y-118787043D01*
X115013049Y-118787043D01*
X115002212Y-118728909D01*
X114985994Y-118665084D01*
X114941370Y-118568606D01*
X114879465Y-118494178D01*
X114804483Y-118446273D01*
X114720629Y-118429363D01*
X114684531Y-118431939D01*
X114600210Y-118460971D01*
X114530775Y-118519746D01*
X114479256Y-118605096D01*
X114448680Y-118713852D01*
X114436977Y-118787043D01*
X114281260Y-118787043D01*
X114297424Y-118655249D01*
X114338468Y-118536444D01*
X114400407Y-118437386D01*
X114479760Y-118360746D01*
X114573044Y-118309195D01*
X114676776Y-118285404D01*
X114787472Y-118292046D01*
X114901651Y-118331790D01*
X114908870Y-118335473D01*
X115006889Y-118406441D01*
X115082955Y-118505025D01*
X115136435Y-118630148D01*
X115166694Y-118780738D01*
X115167037Y-118787043D01*
X115170923Y-118858527D01*
G37*
G36*
X116226074Y-118805101D02*
G01*
X116225687Y-118927668D01*
X116201186Y-119071001D01*
X116149363Y-119191473D01*
X116070298Y-119288911D01*
X115964074Y-119363144D01*
X115913733Y-119385071D01*
X115803787Y-119410136D01*
X115688147Y-119411623D01*
X115575862Y-119390752D01*
X115475980Y-119348742D01*
X115397546Y-119286811D01*
X115390505Y-119278931D01*
X115375903Y-119256381D01*
X115382398Y-119235607D01*
X115412343Y-119203329D01*
X115415252Y-119200429D01*
X115446923Y-119172434D01*
X115468254Y-119167962D01*
X115491750Y-119183964D01*
X115503142Y-119193487D01*
X115593374Y-119244766D01*
X115695280Y-119268695D01*
X115798884Y-119264135D01*
X115894213Y-119229946D01*
X115906783Y-119222334D01*
X115975614Y-119159634D01*
X116029525Y-119074874D01*
X116061010Y-118979331D01*
X116073277Y-118912254D01*
X115335915Y-118912254D01*
X115336195Y-118836233D01*
X115338674Y-118787043D01*
X115495280Y-118787043D01*
X116073277Y-118787043D01*
X116060849Y-118720797D01*
X116042484Y-118654088D01*
X115996969Y-118559545D01*
X115937019Y-118484441D01*
X115925936Y-118474909D01*
X115872026Y-118446797D01*
X115795825Y-118433338D01*
X115772971Y-118431665D01*
X115720796Y-118432388D01*
X115682721Y-118445198D01*
X115642861Y-118474352D01*
X115600278Y-118517577D01*
X115541896Y-118611300D01*
X115507453Y-118719965D01*
X115495280Y-118787043D01*
X115338674Y-118787043D01*
X115339450Y-118771642D01*
X115364034Y-118641631D01*
X115409870Y-118522558D01*
X115473564Y-118422118D01*
X115551717Y-118348003D01*
X115641204Y-118305473D01*
X115746143Y-118286194D01*
X115853749Y-118291160D01*
X115951459Y-118321213D01*
X115987599Y-118340623D01*
X116084685Y-118418503D01*
X116156843Y-118521964D01*
X116203997Y-118650874D01*
X116223489Y-118787043D01*
X116226074Y-118805101D01*
G37*
G36*
X137777296Y-118290949D02*
G01*
X137825576Y-118304423D01*
X137882725Y-118330053D01*
X137893895Y-118335716D01*
X137996068Y-118408998D01*
X138077830Y-118509182D01*
X138135396Y-118631749D01*
X138137729Y-118638972D01*
X138159023Y-118743525D01*
X138165744Y-118863422D01*
X138157892Y-118982660D01*
X138135463Y-119085234D01*
X138112294Y-119140092D01*
X138051333Y-119234655D01*
X137973093Y-119316972D01*
X137887581Y-119375331D01*
X137872066Y-119382505D01*
X137770552Y-119410438D01*
X137660009Y-119414451D01*
X137550437Y-119396048D01*
X137451839Y-119356736D01*
X137374216Y-119298021D01*
X137370571Y-119294135D01*
X137346448Y-119264552D01*
X137345659Y-119241955D01*
X137366775Y-119209305D01*
X137367570Y-119208218D01*
X137394310Y-119176641D01*
X137412724Y-119163239D01*
X137425373Y-119167717D01*
X137461561Y-119186969D01*
X137510134Y-119216338D01*
X137564062Y-119244624D01*
X137660948Y-119268203D01*
X137754905Y-119258966D01*
X137841150Y-119218623D01*
X137914900Y-119148883D01*
X137971375Y-119051455D01*
X137983018Y-119014633D01*
X137995617Y-118930353D01*
X137997924Y-118833769D01*
X137989931Y-118738925D01*
X137971629Y-118659862D01*
X137958178Y-118626265D01*
X137901432Y-118536266D01*
X137827662Y-118473336D01*
X137742219Y-118438946D01*
X137650454Y-118434568D01*
X137557717Y-118461673D01*
X137469360Y-118521732D01*
X137455566Y-118534033D01*
X137434997Y-118545298D01*
X137415230Y-118535074D01*
X137384395Y-118500380D01*
X137374095Y-118487846D01*
X137347855Y-118452462D01*
X137337358Y-118432396D01*
X137347022Y-118420389D01*
X137379379Y-118393571D01*
X137426612Y-118359544D01*
X137468425Y-118332835D01*
X137517582Y-118310008D01*
X137573112Y-118297301D01*
X137649711Y-118290144D01*
X137722993Y-118287081D01*
X137777296Y-118290949D01*
G37*
G36*
X123492535Y-118849648D02*
G01*
X123489604Y-118924334D01*
X123463497Y-119068987D01*
X123410666Y-119190822D01*
X123331484Y-119289116D01*
X123226327Y-119363144D01*
X123175987Y-119385071D01*
X123066040Y-119410136D01*
X122950401Y-119411623D01*
X122838116Y-119390752D01*
X122738233Y-119348742D01*
X122659800Y-119286811D01*
X122654694Y-119281129D01*
X122638297Y-119257519D01*
X122643455Y-119236982D01*
X122672313Y-119205613D01*
X122717455Y-119160471D01*
X122807167Y-119216239D01*
X122860361Y-119244085D01*
X122962456Y-119271153D01*
X123061631Y-119266515D01*
X123152608Y-119232592D01*
X123230109Y-119171807D01*
X123288856Y-119086579D01*
X123323571Y-118979331D01*
X123335530Y-118912254D01*
X122593031Y-118912254D01*
X122604494Y-118791515D01*
X122604963Y-118787043D01*
X122757534Y-118787043D01*
X123335530Y-118787043D01*
X123323103Y-118720797D01*
X123303216Y-118649353D01*
X123254107Y-118552182D01*
X123187862Y-118476265D01*
X123162683Y-118457241D01*
X123112068Y-118435279D01*
X123045352Y-118429296D01*
X123008584Y-118430689D01*
X122952263Y-118443971D01*
X122902841Y-118476265D01*
X122858650Y-118522019D01*
X122802928Y-118614006D01*
X122769706Y-118719965D01*
X122757534Y-118787043D01*
X122604963Y-118787043D01*
X122607468Y-118763149D01*
X122633256Y-118622274D01*
X122676199Y-118508578D01*
X122738590Y-118417354D01*
X122822726Y-118343893D01*
X122830291Y-118338730D01*
X122869573Y-118315674D01*
X122909426Y-118302496D01*
X122961567Y-118296537D01*
X123037714Y-118295141D01*
X123051412Y-118295166D01*
X123123510Y-118297150D01*
X123173773Y-118304249D01*
X123214245Y-118319184D01*
X123256972Y-118344676D01*
X123273150Y-118355837D01*
X123368140Y-118445603D01*
X123436808Y-118558771D01*
X123478493Y-118693924D01*
X123486890Y-118787043D01*
X123492535Y-118849648D01*
G37*
G36*
X127703892Y-118289182D02*
G01*
X127762485Y-118303712D01*
X127816678Y-118335538D01*
X127879401Y-118390323D01*
X127946479Y-118454444D01*
X127946479Y-118304085D01*
X128089577Y-118304085D01*
X128089577Y-119395212D01*
X127950037Y-119395212D01*
X127943302Y-119015106D01*
X127940534Y-118881965D01*
X127936711Y-118774680D01*
X127930830Y-118692922D01*
X127921804Y-118631487D01*
X127908546Y-118585168D01*
X127889966Y-118548762D01*
X127864978Y-118517061D01*
X127832494Y-118484860D01*
X127782103Y-118452769D01*
X127698650Y-118433588D01*
X127665801Y-118431003D01*
X127621907Y-118433717D01*
X127585922Y-118450958D01*
X127541552Y-118488413D01*
X127472464Y-118551695D01*
X127467074Y-118973454D01*
X127461683Y-119395212D01*
X127305609Y-119395212D01*
X127299524Y-119015106D01*
X127297999Y-118928624D01*
X127295266Y-118818157D01*
X127291730Y-118734866D01*
X127286928Y-118673488D01*
X127280398Y-118628760D01*
X127271679Y-118595420D01*
X127260308Y-118568205D01*
X127259319Y-118566235D01*
X127208760Y-118498994D01*
X127140936Y-118452844D01*
X127064461Y-118430357D01*
X126987948Y-118434102D01*
X126920012Y-118466650D01*
X126915393Y-118470308D01*
X126885475Y-118496454D01*
X126862511Y-118524358D01*
X126845585Y-118558880D01*
X126833786Y-118604877D01*
X126826199Y-118667209D01*
X126821911Y-118750734D01*
X126820008Y-118860313D01*
X126819577Y-119000802D01*
X126819577Y-119395212D01*
X126656324Y-119395212D01*
X126661929Y-118949520D01*
X126667535Y-118503829D01*
X126721197Y-118428167D01*
X126732429Y-118412936D01*
X126805656Y-118340412D01*
X126892261Y-118299307D01*
X126998171Y-118286590D01*
X127110725Y-118301073D01*
X127210381Y-118342608D01*
X127288197Y-118408260D01*
X127334984Y-118463864D01*
X127380355Y-118404379D01*
X127440316Y-118345324D01*
X127531169Y-118301040D01*
X127641801Y-118286198D01*
X127703892Y-118289182D01*
G37*
G36*
X131241061Y-115755141D02*
G01*
X131234266Y-115870028D01*
X131197044Y-116040115D01*
X131129505Y-116195599D01*
X131034069Y-116333243D01*
X130913154Y-116449811D01*
X130769180Y-116542065D01*
X130604566Y-116606769D01*
X130575191Y-116614231D01*
X130464985Y-116631424D01*
X130340183Y-116638545D01*
X130215901Y-116635165D01*
X130107253Y-116620857D01*
X129972752Y-116579775D01*
X129824911Y-116503323D01*
X129691564Y-116400727D01*
X129579207Y-116277109D01*
X129494337Y-116137591D01*
X129492915Y-116134573D01*
X129432258Y-115967068D01*
X129405070Y-115799770D01*
X129406430Y-115746198D01*
X129816260Y-115746198D01*
X129817028Y-115784697D01*
X129838374Y-115924489D01*
X129888879Y-116043666D01*
X129968458Y-116142071D01*
X130077025Y-116219549D01*
X130139968Y-116249170D01*
X130210151Y-116268046D01*
X130297460Y-116276295D01*
X130415523Y-116273504D01*
X130514560Y-116250418D01*
X130601674Y-116203110D01*
X130686828Y-116127778D01*
X130705859Y-116107169D01*
X130777939Y-116002463D01*
X130819904Y-115883941D01*
X130833837Y-115746198D01*
X130831136Y-115677815D01*
X130805753Y-115553014D01*
X130751475Y-115444435D01*
X130665636Y-115345730D01*
X130579499Y-115280629D01*
X130463669Y-115230034D01*
X130341158Y-115210992D01*
X130217592Y-115223524D01*
X130098598Y-115267648D01*
X129989800Y-115343383D01*
X129937393Y-115396025D01*
X129868688Y-115496564D01*
X129829218Y-115611182D01*
X129816260Y-115746198D01*
X129406430Y-115746198D01*
X129409226Y-115636003D01*
X129442602Y-115479094D01*
X129503070Y-115332369D01*
X129588507Y-115199152D01*
X129696788Y-115082769D01*
X129825786Y-114986547D01*
X129973376Y-114913810D01*
X130137435Y-114867885D01*
X130315835Y-114852096D01*
X130379460Y-114854047D01*
X130560526Y-114880838D01*
X130725707Y-114937110D01*
X130872463Y-115020387D01*
X130998258Y-115128191D01*
X131100553Y-115258045D01*
X131176810Y-115407473D01*
X131224492Y-115573997D01*
X131240243Y-115746198D01*
X131241061Y-115755141D01*
G37*
G36*
X126372394Y-119719240D02*
G01*
X126220352Y-119708240D01*
X126211408Y-119466761D01*
X126208984Y-119404759D01*
X126205138Y-119328023D01*
X126200900Y-119280155D01*
X126195571Y-119256853D01*
X126188449Y-119253812D01*
X126178833Y-119266729D01*
X126165018Y-119284889D01*
X126124135Y-119323078D01*
X126072479Y-119360638D01*
X126057041Y-119370198D01*
X126003369Y-119397118D01*
X125948886Y-119409875D01*
X125876278Y-119413099D01*
X125816581Y-119409553D01*
X125703053Y-119379211D01*
X125607666Y-119318912D01*
X125531686Y-119229950D01*
X125476379Y-119113616D01*
X125443011Y-118971199D01*
X125437284Y-118921708D01*
X125436797Y-118841663D01*
X125603239Y-118841663D01*
X125603348Y-118857300D01*
X125615984Y-118993749D01*
X125650108Y-119102768D01*
X125706439Y-119185945D01*
X125785696Y-119244869D01*
X125850075Y-119265899D01*
X125938835Y-119265925D01*
X126027992Y-119238859D01*
X126107356Y-119186547D01*
X126130531Y-119161998D01*
X126177895Y-119079968D01*
X126208041Y-118973796D01*
X126218925Y-118849648D01*
X126218928Y-118848889D01*
X126217494Y-118770895D01*
X126210404Y-118714566D01*
X126194641Y-118666002D01*
X126167189Y-118611302D01*
X126159486Y-118597861D01*
X126094460Y-118515481D01*
X126016523Y-118459460D01*
X125931391Y-118431799D01*
X125844778Y-118434499D01*
X125762398Y-118469561D01*
X125742017Y-118485698D01*
X125694244Y-118539678D01*
X125652429Y-118606924D01*
X125635202Y-118642965D01*
X125615284Y-118699415D01*
X125605710Y-118760491D01*
X125603239Y-118841663D01*
X125436797Y-118841663D01*
X125436381Y-118773187D01*
X125459862Y-118638332D01*
X125505643Y-118520489D01*
X125571636Y-118423008D01*
X125655754Y-118349234D01*
X125755911Y-118302514D01*
X125870021Y-118286198D01*
X125872180Y-118286202D01*
X125977033Y-118299322D01*
X126066253Y-118340388D01*
X126148382Y-118413299D01*
X126211408Y-118483061D01*
X126211408Y-118304085D01*
X126372394Y-118304085D01*
X126372394Y-118848889D01*
X126372394Y-119719240D01*
G37*
G36*
X139232517Y-118854855D02*
G01*
X139220681Y-118981415D01*
X139187635Y-119101537D01*
X139133566Y-119209494D01*
X139058660Y-119299561D01*
X138963105Y-119366010D01*
X138916674Y-119385566D01*
X138806403Y-119410140D01*
X138690603Y-119411276D01*
X138578335Y-119390249D01*
X138478662Y-119348335D01*
X138400645Y-119286811D01*
X138393603Y-119278931D01*
X138379002Y-119256381D01*
X138385497Y-119235607D01*
X138415441Y-119203329D01*
X138418350Y-119200429D01*
X138450022Y-119172434D01*
X138471353Y-119167962D01*
X138494849Y-119183964D01*
X138523984Y-119206283D01*
X138606151Y-119247400D01*
X138697291Y-119270099D01*
X138785836Y-119272237D01*
X138860215Y-119251668D01*
X138932121Y-119201961D01*
X139002006Y-119121973D01*
X139046053Y-119030235D01*
X139055523Y-118997362D01*
X139067650Y-118951224D01*
X139072394Y-118926895D01*
X139071018Y-118925630D01*
X139044960Y-118921372D01*
X138989871Y-118917696D01*
X138911022Y-118914812D01*
X138813682Y-118912928D01*
X138703122Y-118912254D01*
X138333850Y-118912254D01*
X138343320Y-118787043D01*
X138496018Y-118787043D01*
X139075236Y-118787043D01*
X139063455Y-118728909D01*
X139047860Y-118669269D01*
X139002549Y-118570174D01*
X138940149Y-118494524D01*
X138864410Y-118446271D01*
X138779080Y-118429363D01*
X138744697Y-118431751D01*
X138661534Y-118460465D01*
X138592844Y-118519720D01*
X138540934Y-118607045D01*
X138508109Y-118719965D01*
X138496018Y-118787043D01*
X138343320Y-118787043D01*
X138344299Y-118774099D01*
X138363972Y-118651938D01*
X138407571Y-118529106D01*
X138470914Y-118426069D01*
X138550731Y-118349556D01*
X138570012Y-118336336D01*
X138608818Y-118314059D01*
X138648208Y-118301659D01*
X138699905Y-118296298D01*
X138775628Y-118295141D01*
X138793379Y-118295182D01*
X138864952Y-118297249D01*
X138914838Y-118304313D01*
X138954755Y-118318954D01*
X138996422Y-118343753D01*
X139064029Y-118398773D01*
X139138899Y-118493817D01*
X139191813Y-118605330D01*
X139222956Y-118727585D01*
X139227423Y-118787043D01*
X139232517Y-118854855D01*
G37*
G36*
X134328216Y-119138197D02*
G01*
X134295478Y-119233549D01*
X134236719Y-119316523D01*
X134153211Y-119379913D01*
X134083412Y-119403928D01*
X133978369Y-119413099D01*
X133971846Y-119413072D01*
X133867205Y-119402377D01*
X133781124Y-119369282D01*
X133701725Y-119309330D01*
X133652535Y-119263307D01*
X133652535Y-119395212D01*
X133491549Y-119395212D01*
X133491549Y-119011180D01*
X133491716Y-118982640D01*
X133652535Y-118982640D01*
X133665191Y-119082020D01*
X133707084Y-119167486D01*
X133780885Y-119239551D01*
X133794104Y-119247880D01*
X133850329Y-119269886D01*
X133915040Y-119282048D01*
X133986597Y-119280557D01*
X134068531Y-119254788D01*
X134128050Y-119204431D01*
X134161800Y-119132678D01*
X134166431Y-119042719D01*
X134161145Y-119011533D01*
X134127150Y-118934611D01*
X134066808Y-118880351D01*
X133981635Y-118849407D01*
X133873145Y-118842430D01*
X133742852Y-118860074D01*
X133652535Y-118879444D01*
X133652535Y-118982640D01*
X133491716Y-118982640D01*
X133492444Y-118857812D01*
X133495727Y-118735395D01*
X133502360Y-118639205D01*
X133513305Y-118564522D01*
X133529525Y-118506623D01*
X133551984Y-118460787D01*
X133581643Y-118422291D01*
X133619465Y-118386413D01*
X133701401Y-118334704D01*
X133811285Y-118300404D01*
X133934726Y-118290485D01*
X134064651Y-118305447D01*
X134193988Y-118345791D01*
X134261428Y-118374111D01*
X134236935Y-118433007D01*
X134233461Y-118441305D01*
X134219603Y-118468692D01*
X134201941Y-118482946D01*
X134172788Y-118485029D01*
X134124457Y-118475906D01*
X134049262Y-118456541D01*
X134042186Y-118454701D01*
X133924935Y-118436611D01*
X133827669Y-118447487D01*
X133749274Y-118487445D01*
X133704827Y-118536045D01*
X133666734Y-118614129D01*
X133652535Y-118699118D01*
X133654094Y-118730577D01*
X133664925Y-118747531D01*
X133692781Y-118743771D01*
X133729553Y-118736561D01*
X133789583Y-118728492D01*
X133859128Y-118721486D01*
X133928467Y-118718420D01*
X134057824Y-118731714D01*
X134164310Y-118772010D01*
X134248539Y-118839494D01*
X134257596Y-118849947D01*
X134310547Y-118939189D01*
X134333663Y-119037675D01*
X134333390Y-119042719D01*
X134328216Y-119138197D01*
G37*
G36*
X140753802Y-116926761D02*
G01*
X139107343Y-116926761D01*
X139108719Y-116837324D01*
X139215493Y-116837324D01*
X140664366Y-116837324D01*
X140664366Y-116390141D01*
X140504394Y-116390141D01*
X140452240Y-116389867D01*
X140392870Y-116387525D01*
X140355936Y-116381321D01*
X140333238Y-116369520D01*
X140316577Y-116350387D01*
X140315217Y-116348348D01*
X140307596Y-116331637D01*
X140301553Y-116305613D01*
X140296914Y-116266496D01*
X140293507Y-116210507D01*
X140291158Y-116133864D01*
X140289695Y-116032788D01*
X140288944Y-115903499D01*
X140288732Y-115742218D01*
X140288732Y-115736488D01*
X140288560Y-115569192D01*
X140288890Y-115434124D01*
X140290920Y-115327851D01*
X140295850Y-115246938D01*
X140304879Y-115187952D01*
X140319208Y-115147461D01*
X140340036Y-115122031D01*
X140368562Y-115108229D01*
X140405985Y-115102620D01*
X140453506Y-115101773D01*
X140512324Y-115102254D01*
X140664366Y-115102254D01*
X140664366Y-114655071D01*
X139215493Y-114655071D01*
X139215493Y-115102254D01*
X139364763Y-115102254D01*
X139373890Y-115102229D01*
X139426746Y-115101632D01*
X139469369Y-115102722D01*
X139502854Y-115108908D01*
X139528297Y-115123598D01*
X139546793Y-115150199D01*
X139559439Y-115192121D01*
X139567328Y-115252769D01*
X139571557Y-115335554D01*
X139573222Y-115443882D01*
X139573417Y-115581161D01*
X139573239Y-115750800D01*
X139573205Y-115828085D01*
X139572826Y-115975661D01*
X139571891Y-116092792D01*
X139570230Y-116183152D01*
X139567675Y-116250418D01*
X139564056Y-116298264D01*
X139559205Y-116330365D01*
X139552953Y-116350396D01*
X139545130Y-116362033D01*
X139536591Y-116368936D01*
X139503923Y-116381438D01*
X139449441Y-116388146D01*
X139366257Y-116390141D01*
X139215493Y-116390141D01*
X139215493Y-116837324D01*
X139108719Y-116837324D01*
X139112228Y-116609261D01*
X139117112Y-116291761D01*
X139300457Y-116286663D01*
X139483802Y-116281566D01*
X139483802Y-115209578D01*
X139108169Y-115209578D01*
X139108169Y-114565634D01*
X140753802Y-114565634D01*
X140753802Y-115209578D01*
X140396056Y-115209578D01*
X140396056Y-116282817D01*
X140753802Y-116282817D01*
X140753802Y-116837324D01*
X140753802Y-116926761D01*
G37*
G36*
X127782270Y-114864989D02*
G01*
X127918510Y-114898799D01*
X128036606Y-114955420D01*
X128133604Y-115033090D01*
X128206548Y-115130047D01*
X128252482Y-115244529D01*
X128268450Y-115374773D01*
X128260955Y-115481751D01*
X128233564Y-115583583D01*
X128183575Y-115670281D01*
X128108372Y-115744363D01*
X128005338Y-115808343D01*
X127871854Y-115864737D01*
X127705305Y-115916062D01*
X127597930Y-115946804D01*
X127500644Y-115980487D01*
X127431676Y-116013605D01*
X127387178Y-116048557D01*
X127363301Y-116087738D01*
X127356197Y-116133547D01*
X127360665Y-116170595D01*
X127390844Y-116226624D01*
X127445496Y-116265927D01*
X127519927Y-116288420D01*
X127609445Y-116294015D01*
X127709354Y-116282629D01*
X127814962Y-116254175D01*
X127921574Y-116208568D01*
X128024497Y-116145723D01*
X128065412Y-116118934D01*
X128104269Y-116099634D01*
X128124024Y-116097994D01*
X128125744Y-116100062D01*
X128146304Y-116124689D01*
X128181968Y-116167351D01*
X128226186Y-116220212D01*
X128234712Y-116230431D01*
X128278123Y-116283412D01*
X128311748Y-116325962D01*
X128328905Y-116349661D01*
X128330732Y-116356700D01*
X128315559Y-116384121D01*
X128274031Y-116419212D01*
X128211755Y-116459089D01*
X128134343Y-116500866D01*
X128047401Y-116541656D01*
X127956540Y-116578574D01*
X127867367Y-116608734D01*
X127785493Y-116629250D01*
X127761578Y-116632889D01*
X127675496Y-116637231D01*
X127572673Y-116633633D01*
X127466199Y-116623230D01*
X127369161Y-116607162D01*
X127294649Y-116586567D01*
X127208835Y-116545133D01*
X127105393Y-116464211D01*
X127027996Y-116361762D01*
X126979478Y-116241871D01*
X126962676Y-116108618D01*
X126962683Y-116105081D01*
X126972578Y-115992092D01*
X127002925Y-115894844D01*
X127056273Y-115810967D01*
X127135170Y-115738090D01*
X127242164Y-115673845D01*
X127379804Y-115615859D01*
X127550637Y-115561764D01*
X127555478Y-115560397D01*
X127643699Y-115533747D01*
X127722656Y-115506849D01*
X127783892Y-115482769D01*
X127818947Y-115464570D01*
X127855169Y-115420931D01*
X127872974Y-115362134D01*
X127868828Y-115302861D01*
X127841318Y-115256254D01*
X127775684Y-115218560D01*
X127686999Y-115203390D01*
X127582096Y-115212081D01*
X127465889Y-115244206D01*
X127343296Y-115299340D01*
X127214127Y-115368527D01*
X127112406Y-115224184D01*
X127010684Y-115079841D01*
X127053758Y-115046178D01*
X127130538Y-114996768D01*
X127229101Y-114948409D01*
X127335717Y-114907111D01*
X127436690Y-114878858D01*
X127467187Y-114872854D01*
X127630844Y-114855754D01*
X127782270Y-114864989D01*
G37*
G36*
X118945871Y-118959777D02*
G01*
X118911700Y-119063873D01*
X118847609Y-119166847D01*
X118764159Y-119246716D01*
X118668043Y-119299005D01*
X118564400Y-119322564D01*
X118458368Y-119316248D01*
X118355089Y-119278910D01*
X118259701Y-119209402D01*
X118180000Y-119133034D01*
X118180000Y-119237866D01*
X118180039Y-119245370D01*
X118193205Y-119359219D01*
X118230771Y-119447748D01*
X118293922Y-119512806D01*
X118383840Y-119556242D01*
X118442403Y-119568349D01*
X118545197Y-119569181D01*
X118655375Y-119550676D01*
X118760332Y-119514241D01*
X118859803Y-119468701D01*
X118886591Y-119520505D01*
X118887494Y-119522259D01*
X118905807Y-119562458D01*
X118913380Y-119588026D01*
X118913121Y-119589580D01*
X118894041Y-119607295D01*
X118851215Y-119631269D01*
X118793807Y-119657302D01*
X118730981Y-119681191D01*
X118671901Y-119698735D01*
X118670080Y-119699159D01*
X118614833Y-119706642D01*
X118540259Y-119710281D01*
X118461955Y-119709292D01*
X118420064Y-119706327D01*
X118291757Y-119681541D01*
X118190304Y-119634005D01*
X118114812Y-119563346D01*
X118102844Y-119547389D01*
X118079604Y-119513102D01*
X118061191Y-119477758D01*
X118047036Y-119437017D01*
X118036574Y-119386541D01*
X118029237Y-119321989D01*
X118024458Y-119239022D01*
X118021670Y-119133300D01*
X118020306Y-119000483D01*
X118019810Y-118839823D01*
X118182988Y-118839823D01*
X118186331Y-118878800D01*
X118210441Y-118979420D01*
X118258600Y-119059437D01*
X118334711Y-119126219D01*
X118358717Y-119140510D01*
X118439379Y-119168061D01*
X118525132Y-119174010D01*
X118600684Y-119156611D01*
X118669981Y-119111615D01*
X118732587Y-119036969D01*
X118774866Y-118945242D01*
X118796203Y-118843499D01*
X118795982Y-118738806D01*
X118773587Y-118638226D01*
X118728405Y-118548826D01*
X118659818Y-118477670D01*
X118618008Y-118454378D01*
X118535148Y-118434271D01*
X118445817Y-118436779D01*
X118363718Y-118462599D01*
X118347003Y-118471571D01*
X118267088Y-118532801D01*
X118214113Y-118612499D01*
X118186580Y-118713796D01*
X118182988Y-118839823D01*
X118019810Y-118839823D01*
X118019799Y-118836233D01*
X118019014Y-118304085D01*
X118180000Y-118304085D01*
X118180000Y-118471862D01*
X118237187Y-118413370D01*
X118266885Y-118385438D01*
X118364203Y-118321724D01*
X118467720Y-118289311D01*
X118572642Y-118286544D01*
X118674175Y-118311769D01*
X118767524Y-118363331D01*
X118847896Y-118439577D01*
X118910495Y-118538852D01*
X118950528Y-118659502D01*
X118959252Y-118715380D01*
X118962194Y-118838684D01*
X118961545Y-118843499D01*
X118945871Y-118959777D01*
G37*
G36*
X111840550Y-118850285D02*
G01*
X111822600Y-118965373D01*
X111780065Y-119081694D01*
X111712662Y-119184373D01*
X111626463Y-119260101D01*
X111524770Y-119306782D01*
X111410888Y-119322319D01*
X111288117Y-119304616D01*
X111253226Y-119290094D01*
X111194758Y-119253744D01*
X111138654Y-119207589D01*
X111057061Y-119129409D01*
X111063727Y-119261403D01*
X111072038Y-119344931D01*
X111093157Y-119417023D01*
X111131705Y-119474512D01*
X111192945Y-119528261D01*
X111217873Y-119543976D01*
X111255840Y-119556993D01*
X111309405Y-119563413D01*
X111388600Y-119565127D01*
X111446832Y-119564202D01*
X111516161Y-119557898D01*
X111574784Y-119543104D01*
X111637753Y-119516907D01*
X111740648Y-119468701D01*
X111767436Y-119520505D01*
X111768339Y-119522259D01*
X111786652Y-119562458D01*
X111794225Y-119588026D01*
X111793966Y-119589580D01*
X111774887Y-119607295D01*
X111732060Y-119631269D01*
X111674652Y-119657302D01*
X111611826Y-119681191D01*
X111552746Y-119698735D01*
X111550925Y-119699159D01*
X111495679Y-119706642D01*
X111421104Y-119710281D01*
X111342801Y-119709292D01*
X111300909Y-119706327D01*
X111172602Y-119681541D01*
X111071149Y-119634005D01*
X110995657Y-119563346D01*
X110983689Y-119547389D01*
X110960449Y-119513102D01*
X110942036Y-119477758D01*
X110927881Y-119437017D01*
X110917419Y-119386541D01*
X110910082Y-119321989D01*
X110905303Y-119239022D01*
X110902515Y-119133300D01*
X110901151Y-119000483D01*
X110900644Y-118836233D01*
X110900609Y-118812411D01*
X111054230Y-118812411D01*
X111067544Y-118913047D01*
X111103727Y-119006134D01*
X111162651Y-119084913D01*
X111244185Y-119142622D01*
X111335457Y-119173610D01*
X111426974Y-119173542D01*
X111512092Y-119138404D01*
X111591834Y-119067977D01*
X111602297Y-119055274D01*
X111649819Y-118967812D01*
X111674681Y-118863950D01*
X111676536Y-118753586D01*
X111655038Y-118646621D01*
X111609841Y-118552956D01*
X111582634Y-118519081D01*
X111507183Y-118462395D01*
X111418348Y-118434215D01*
X111323824Y-118436226D01*
X111231303Y-118470109D01*
X111152800Y-118532805D01*
X111096728Y-118615530D01*
X111063915Y-118710985D01*
X111054230Y-118812411D01*
X110900609Y-118812411D01*
X110899859Y-118304085D01*
X111060845Y-118304085D01*
X111060845Y-118473044D01*
X111111997Y-118417039D01*
X111158759Y-118372969D01*
X111254697Y-118315597D01*
X111358554Y-118288227D01*
X111464808Y-118289706D01*
X111567935Y-118318886D01*
X111662415Y-118374615D01*
X111742726Y-118455742D01*
X111803346Y-118561117D01*
X111821633Y-118616243D01*
X111839994Y-118729009D01*
X111840107Y-118753586D01*
X111840550Y-118850285D01*
G37*
G36*
X132155887Y-118253259D02*
G01*
X132136752Y-118363351D01*
X132086238Y-118474682D01*
X132056734Y-118528072D01*
X132040189Y-118569487D01*
X132042521Y-118587249D01*
X132062185Y-118596456D01*
X132111672Y-118630531D01*
X132168604Y-118678917D01*
X132223028Y-118732835D01*
X132264988Y-118783502D01*
X132266523Y-118785695D01*
X132298945Y-118840943D01*
X132316948Y-118898909D01*
X132325710Y-118976005D01*
X132326353Y-118999514D01*
X132327111Y-119027212D01*
X132312433Y-119140577D01*
X132270288Y-119234839D01*
X132198952Y-119314600D01*
X132129631Y-119362404D01*
X132020711Y-119403322D01*
X131903070Y-119414259D01*
X131782396Y-119395601D01*
X131664373Y-119347732D01*
X131554686Y-119271036D01*
X131489389Y-119213704D01*
X131432836Y-119278114D01*
X131418373Y-119294720D01*
X131375334Y-119345359D01*
X131341343Y-119386943D01*
X131306403Y-119431363D01*
X131254728Y-119394567D01*
X131249836Y-119391044D01*
X131213482Y-119362325D01*
X131193321Y-119342023D01*
X131193772Y-119335548D01*
X131210169Y-119305735D01*
X131243528Y-119259596D01*
X131289071Y-119204020D01*
X131383720Y-119094323D01*
X131591861Y-119094323D01*
X131642867Y-119148025D01*
X131647708Y-119152978D01*
X131701899Y-119198591D01*
X131760238Y-119235864D01*
X131807265Y-119255783D01*
X131899399Y-119271418D01*
X131984783Y-119258160D01*
X132058614Y-119220173D01*
X132116091Y-119161625D01*
X132152412Y-119086683D01*
X132162775Y-118999514D01*
X132142378Y-118904283D01*
X132115265Y-118853126D01*
X132073948Y-118797831D01*
X132026801Y-118747815D01*
X131981852Y-118711574D01*
X131947127Y-118697606D01*
X131941999Y-118699649D01*
X131915101Y-118722194D01*
X131872250Y-118765717D01*
X131818161Y-118825284D01*
X131757546Y-118895964D01*
X131591861Y-119094323D01*
X131383720Y-119094323D01*
X131394555Y-119081765D01*
X131331969Y-118957621D01*
X131330176Y-118954055D01*
X131296054Y-118883459D01*
X131265847Y-118816396D01*
X131245909Y-118766941D01*
X131222433Y-118700405D01*
X131288224Y-118673776D01*
X131303728Y-118667577D01*
X131339261Y-118656435D01*
X131357587Y-118661923D01*
X131370722Y-118685792D01*
X131416010Y-118789352D01*
X131450046Y-118864132D01*
X131474272Y-118912929D01*
X131490480Y-118939350D01*
X131500462Y-118947004D01*
X131515726Y-118934669D01*
X131548832Y-118899706D01*
X131594525Y-118847641D01*
X131647806Y-118784006D01*
X131674292Y-118751426D01*
X131723328Y-118688268D01*
X131751543Y-118645885D01*
X131761341Y-118620321D01*
X131755130Y-118607623D01*
X131734956Y-118595662D01*
X131655206Y-118538843D01*
X131583140Y-118474060D01*
X131531365Y-118412318D01*
X131507763Y-118371460D01*
X131489143Y-118313031D01*
X131483949Y-118243873D01*
X131633590Y-118243873D01*
X131648582Y-118318781D01*
X131696118Y-118392927D01*
X131700489Y-118397951D01*
X131751901Y-118444799D01*
X131808817Y-118482283D01*
X131874542Y-118515814D01*
X131931412Y-118432308D01*
X131940158Y-118419179D01*
X131986364Y-118330824D01*
X132002473Y-118251032D01*
X131990026Y-118172996D01*
X131968834Y-118128983D01*
X131919363Y-118079872D01*
X131857031Y-118054280D01*
X131789989Y-118051982D01*
X131726390Y-118072754D01*
X131674385Y-118116370D01*
X131642128Y-118182605D01*
X131633590Y-118243873D01*
X131483949Y-118243873D01*
X131483491Y-118237779D01*
X131483733Y-118213854D01*
X131498486Y-118115842D01*
X131538484Y-118037150D01*
X131607497Y-117969622D01*
X131612386Y-117965921D01*
X131649816Y-117941204D01*
X131687314Y-117927190D01*
X131736767Y-117920938D01*
X131810059Y-117919507D01*
X131873626Y-117920641D01*
X131929457Y-117926624D01*
X131971467Y-117940164D01*
X132011730Y-117963919D01*
X132032109Y-117978968D01*
X132102857Y-118056212D01*
X132144353Y-118149261D01*
X132155640Y-118251032D01*
X132155887Y-118253259D01*
G37*
%TD*%
M02*
