%TF.GenerationSoftware,KiCad,Pcbnew,7.0.9*%
%TF.CreationDate,2024-03-05T03:29:11-06:00*%
%TF.ProjectId,Sensor PCB,53656e73-6f72-4205-9043-422e6b696361,rev?*%
%TF.SameCoordinates,Original*%
%TF.FileFunction,Legend,Bot*%
%TF.FilePolarity,Positive*%
%FSLAX46Y46*%
G04 Gerber Fmt 4.6, Leading zero omitted, Abs format (unit mm)*
G04 Created by KiCad (PCBNEW 7.0.9) date 2024-03-05 03:29:11*
%MOMM*%
%LPD*%
G01*
G04 APERTURE LIST*
%ADD10C,0.250000*%
%ADD11C,0.100000*%
G04 APERTURE END LIST*
D10*
X99621095Y-108245050D02*
X99621095Y-107768860D01*
X99335380Y-108340288D02*
X100335380Y-108006955D01*
X100335380Y-108006955D02*
X99335380Y-107673622D01*
X100002047Y-107340288D02*
X99335380Y-107340288D01*
X99906809Y-107340288D02*
X99954428Y-107292669D01*
X99954428Y-107292669D02*
X100002047Y-107197431D01*
X100002047Y-107197431D02*
X100002047Y-107054574D01*
X100002047Y-107054574D02*
X99954428Y-106959336D01*
X99954428Y-106959336D02*
X99859190Y-106911717D01*
X99859190Y-106911717D02*
X99335380Y-106911717D01*
X99335380Y-106006955D02*
X100335380Y-106006955D01*
X99383000Y-106006955D02*
X99335380Y-106102193D01*
X99335380Y-106102193D02*
X99335380Y-106292669D01*
X99335380Y-106292669D02*
X99383000Y-106387907D01*
X99383000Y-106387907D02*
X99430619Y-106435526D01*
X99430619Y-106435526D02*
X99525857Y-106483145D01*
X99525857Y-106483145D02*
X99811571Y-106483145D01*
X99811571Y-106483145D02*
X99906809Y-106435526D01*
X99906809Y-106435526D02*
X99954428Y-106387907D01*
X99954428Y-106387907D02*
X100002047Y-106292669D01*
X100002047Y-106292669D02*
X100002047Y-106102193D01*
X100002047Y-106102193D02*
X99954428Y-106006955D01*
X99335380Y-105530764D02*
X100002047Y-105530764D01*
X99811571Y-105530764D02*
X99906809Y-105483145D01*
X99906809Y-105483145D02*
X99954428Y-105435526D01*
X99954428Y-105435526D02*
X100002047Y-105340288D01*
X100002047Y-105340288D02*
X100002047Y-105245050D01*
X99383000Y-104530764D02*
X99335380Y-104626002D01*
X99335380Y-104626002D02*
X99335380Y-104816478D01*
X99335380Y-104816478D02*
X99383000Y-104911716D01*
X99383000Y-104911716D02*
X99478238Y-104959335D01*
X99478238Y-104959335D02*
X99859190Y-104959335D01*
X99859190Y-104959335D02*
X99954428Y-104911716D01*
X99954428Y-104911716D02*
X100002047Y-104816478D01*
X100002047Y-104816478D02*
X100002047Y-104626002D01*
X100002047Y-104626002D02*
X99954428Y-104530764D01*
X99954428Y-104530764D02*
X99859190Y-104483145D01*
X99859190Y-104483145D02*
X99763952Y-104483145D01*
X99763952Y-104483145D02*
X99668714Y-104959335D01*
X100002047Y-104149811D02*
X99335380Y-103959335D01*
X99335380Y-103959335D02*
X99811571Y-103768859D01*
X99811571Y-103768859D02*
X99335380Y-103578383D01*
X99335380Y-103578383D02*
X100002047Y-103387907D01*
X99383000Y-102292668D02*
X99335380Y-102149811D01*
X99335380Y-102149811D02*
X99335380Y-101911716D01*
X99335380Y-101911716D02*
X99383000Y-101816478D01*
X99383000Y-101816478D02*
X99430619Y-101768859D01*
X99430619Y-101768859D02*
X99525857Y-101721240D01*
X99525857Y-101721240D02*
X99621095Y-101721240D01*
X99621095Y-101721240D02*
X99716333Y-101768859D01*
X99716333Y-101768859D02*
X99763952Y-101816478D01*
X99763952Y-101816478D02*
X99811571Y-101911716D01*
X99811571Y-101911716D02*
X99859190Y-102102192D01*
X99859190Y-102102192D02*
X99906809Y-102197430D01*
X99906809Y-102197430D02*
X99954428Y-102245049D01*
X99954428Y-102245049D02*
X100049666Y-102292668D01*
X100049666Y-102292668D02*
X100144904Y-102292668D01*
X100144904Y-102292668D02*
X100240142Y-102245049D01*
X100240142Y-102245049D02*
X100287761Y-102197430D01*
X100287761Y-102197430D02*
X100335380Y-102102192D01*
X100335380Y-102102192D02*
X100335380Y-101864097D01*
X100335380Y-101864097D02*
X100287761Y-101721240D01*
X99335380Y-101292668D02*
X100335380Y-101292668D01*
X99335380Y-100864097D02*
X99859190Y-100864097D01*
X99859190Y-100864097D02*
X99954428Y-100911716D01*
X99954428Y-100911716D02*
X100002047Y-101006954D01*
X100002047Y-101006954D02*
X100002047Y-101149811D01*
X100002047Y-101149811D02*
X99954428Y-101245049D01*
X99954428Y-101245049D02*
X99906809Y-101292668D01*
X99383000Y-100006954D02*
X99335380Y-100102192D01*
X99335380Y-100102192D02*
X99335380Y-100292668D01*
X99335380Y-100292668D02*
X99383000Y-100387906D01*
X99383000Y-100387906D02*
X99478238Y-100435525D01*
X99478238Y-100435525D02*
X99859190Y-100435525D01*
X99859190Y-100435525D02*
X99954428Y-100387906D01*
X99954428Y-100387906D02*
X100002047Y-100292668D01*
X100002047Y-100292668D02*
X100002047Y-100102192D01*
X100002047Y-100102192D02*
X99954428Y-100006954D01*
X99954428Y-100006954D02*
X99859190Y-99959335D01*
X99859190Y-99959335D02*
X99763952Y-99959335D01*
X99763952Y-99959335D02*
X99668714Y-100435525D01*
X99335380Y-99530763D02*
X100002047Y-99530763D01*
X99811571Y-99530763D02*
X99906809Y-99483144D01*
X99906809Y-99483144D02*
X99954428Y-99435525D01*
X99954428Y-99435525D02*
X100002047Y-99340287D01*
X100002047Y-99340287D02*
X100002047Y-99245049D01*
X100002047Y-99006953D02*
X99335380Y-98816477D01*
X99335380Y-98816477D02*
X99811571Y-98626001D01*
X99811571Y-98626001D02*
X99335380Y-98435525D01*
X99335380Y-98435525D02*
X100002047Y-98245049D01*
X99335380Y-97864096D02*
X100002047Y-97864096D01*
X100335380Y-97864096D02*
X100287761Y-97911715D01*
X100287761Y-97911715D02*
X100240142Y-97864096D01*
X100240142Y-97864096D02*
X100287761Y-97816477D01*
X100287761Y-97816477D02*
X100335380Y-97864096D01*
X100335380Y-97864096D02*
X100240142Y-97864096D01*
X100002047Y-97387906D02*
X99335380Y-97387906D01*
X99906809Y-97387906D02*
X99954428Y-97340287D01*
X99954428Y-97340287D02*
X100002047Y-97245049D01*
X100002047Y-97245049D02*
X100002047Y-97102192D01*
X100002047Y-97102192D02*
X99954428Y-97006954D01*
X99954428Y-97006954D02*
X99859190Y-96959335D01*
X99859190Y-96959335D02*
X99335380Y-96959335D01*
X99383000Y-96435525D02*
X99335380Y-96435525D01*
X99335380Y-96435525D02*
X99240142Y-96483144D01*
X99240142Y-96483144D02*
X99192523Y-96530763D01*
X100335380Y-95340287D02*
X99335380Y-95102192D01*
X99335380Y-95102192D02*
X100049666Y-94911716D01*
X100049666Y-94911716D02*
X99335380Y-94721240D01*
X99335380Y-94721240D02*
X100335380Y-94483145D01*
X99335380Y-93959335D02*
X99383000Y-94054573D01*
X99383000Y-94054573D02*
X99430619Y-94102192D01*
X99430619Y-94102192D02*
X99525857Y-94149811D01*
X99525857Y-94149811D02*
X99811571Y-94149811D01*
X99811571Y-94149811D02*
X99906809Y-94102192D01*
X99906809Y-94102192D02*
X99954428Y-94054573D01*
X99954428Y-94054573D02*
X100002047Y-93959335D01*
X100002047Y-93959335D02*
X100002047Y-93816478D01*
X100002047Y-93816478D02*
X99954428Y-93721240D01*
X99954428Y-93721240D02*
X99906809Y-93673621D01*
X99906809Y-93673621D02*
X99811571Y-93626002D01*
X99811571Y-93626002D02*
X99525857Y-93626002D01*
X99525857Y-93626002D02*
X99430619Y-93673621D01*
X99430619Y-93673621D02*
X99383000Y-93721240D01*
X99383000Y-93721240D02*
X99335380Y-93816478D01*
X99335380Y-93816478D02*
X99335380Y-93959335D01*
X99335380Y-93054573D02*
X99383000Y-93149811D01*
X99383000Y-93149811D02*
X99430619Y-93197430D01*
X99430619Y-93197430D02*
X99525857Y-93245049D01*
X99525857Y-93245049D02*
X99811571Y-93245049D01*
X99811571Y-93245049D02*
X99906809Y-93197430D01*
X99906809Y-93197430D02*
X99954428Y-93149811D01*
X99954428Y-93149811D02*
X100002047Y-93054573D01*
X100002047Y-93054573D02*
X100002047Y-92911716D01*
X100002047Y-92911716D02*
X99954428Y-92816478D01*
X99954428Y-92816478D02*
X99906809Y-92768859D01*
X99906809Y-92768859D02*
X99811571Y-92721240D01*
X99811571Y-92721240D02*
X99525857Y-92721240D01*
X99525857Y-92721240D02*
X99430619Y-92768859D01*
X99430619Y-92768859D02*
X99383000Y-92816478D01*
X99383000Y-92816478D02*
X99335380Y-92911716D01*
X99335380Y-92911716D02*
X99335380Y-93054573D01*
X100002047Y-92292668D02*
X99144904Y-92292668D01*
X99144904Y-92292668D02*
X99049666Y-92340287D01*
X99049666Y-92340287D02*
X99002047Y-92435525D01*
X99002047Y-92435525D02*
X99002047Y-92483144D01*
X100335380Y-92292668D02*
X100287761Y-92340287D01*
X100287761Y-92340287D02*
X100240142Y-92292668D01*
X100240142Y-92292668D02*
X100287761Y-92245049D01*
X100287761Y-92245049D02*
X100335380Y-92292668D01*
X100335380Y-92292668D02*
X100240142Y-92292668D01*
X99335380Y-91816478D02*
X100002047Y-91816478D01*
X100335380Y-91816478D02*
X100287761Y-91864097D01*
X100287761Y-91864097D02*
X100240142Y-91816478D01*
X100240142Y-91816478D02*
X100287761Y-91768859D01*
X100287761Y-91768859D02*
X100335380Y-91816478D01*
X100335380Y-91816478D02*
X100240142Y-91816478D01*
X100002047Y-91340288D02*
X99335380Y-91340288D01*
X99906809Y-91340288D02*
X99954428Y-91292669D01*
X99954428Y-91292669D02*
X100002047Y-91197431D01*
X100002047Y-91197431D02*
X100002047Y-91054574D01*
X100002047Y-91054574D02*
X99954428Y-90959336D01*
X99954428Y-90959336D02*
X99859190Y-90911717D01*
X99859190Y-90911717D02*
X99335380Y-90911717D01*
X99335380Y-89673621D02*
X100335380Y-89673621D01*
X99335380Y-89102193D02*
X99906809Y-89530764D01*
X100335380Y-89102193D02*
X99763952Y-89673621D01*
X99335380Y-88673621D02*
X100002047Y-88673621D01*
X100335380Y-88673621D02*
X100287761Y-88721240D01*
X100287761Y-88721240D02*
X100240142Y-88673621D01*
X100240142Y-88673621D02*
X100287761Y-88626002D01*
X100287761Y-88626002D02*
X100335380Y-88673621D01*
X100335380Y-88673621D02*
X100240142Y-88673621D01*
X99335380Y-88197431D02*
X100002047Y-88197431D01*
X99906809Y-88197431D02*
X99954428Y-88149812D01*
X99954428Y-88149812D02*
X100002047Y-88054574D01*
X100002047Y-88054574D02*
X100002047Y-87911717D01*
X100002047Y-87911717D02*
X99954428Y-87816479D01*
X99954428Y-87816479D02*
X99859190Y-87768860D01*
X99859190Y-87768860D02*
X99335380Y-87768860D01*
X99859190Y-87768860D02*
X99954428Y-87721241D01*
X99954428Y-87721241D02*
X100002047Y-87626003D01*
X100002047Y-87626003D02*
X100002047Y-87483146D01*
X100002047Y-87483146D02*
X99954428Y-87387907D01*
X99954428Y-87387907D02*
X99859190Y-87340288D01*
X99859190Y-87340288D02*
X99335380Y-87340288D01*
X99383000Y-86816479D02*
X99335380Y-86816479D01*
X99335380Y-86816479D02*
X99240142Y-86864098D01*
X99240142Y-86864098D02*
X99192523Y-86911717D01*
X100335380Y-85340289D02*
X99621095Y-85340289D01*
X99621095Y-85340289D02*
X99478238Y-85387908D01*
X99478238Y-85387908D02*
X99383000Y-85483146D01*
X99383000Y-85483146D02*
X99335380Y-85626003D01*
X99335380Y-85626003D02*
X99335380Y-85721241D01*
X99335380Y-84435527D02*
X99859190Y-84435527D01*
X99859190Y-84435527D02*
X99954428Y-84483146D01*
X99954428Y-84483146D02*
X100002047Y-84578384D01*
X100002047Y-84578384D02*
X100002047Y-84768860D01*
X100002047Y-84768860D02*
X99954428Y-84864098D01*
X99383000Y-84435527D02*
X99335380Y-84530765D01*
X99335380Y-84530765D02*
X99335380Y-84768860D01*
X99335380Y-84768860D02*
X99383000Y-84864098D01*
X99383000Y-84864098D02*
X99478238Y-84911717D01*
X99478238Y-84911717D02*
X99573476Y-84911717D01*
X99573476Y-84911717D02*
X99668714Y-84864098D01*
X99668714Y-84864098D02*
X99716333Y-84768860D01*
X99716333Y-84768860D02*
X99716333Y-84530765D01*
X99716333Y-84530765D02*
X99763952Y-84435527D01*
X99335380Y-83816479D02*
X99383000Y-83911717D01*
X99383000Y-83911717D02*
X99478238Y-83959336D01*
X99478238Y-83959336D02*
X100335380Y-83959336D01*
X99383000Y-83054574D02*
X99335380Y-83149812D01*
X99335380Y-83149812D02*
X99335380Y-83340288D01*
X99335380Y-83340288D02*
X99383000Y-83435526D01*
X99383000Y-83435526D02*
X99478238Y-83483145D01*
X99478238Y-83483145D02*
X99859190Y-83483145D01*
X99859190Y-83483145D02*
X99954428Y-83435526D01*
X99954428Y-83435526D02*
X100002047Y-83340288D01*
X100002047Y-83340288D02*
X100002047Y-83149812D01*
X100002047Y-83149812D02*
X99954428Y-83054574D01*
X99954428Y-83054574D02*
X99859190Y-83006955D01*
X99859190Y-83006955D02*
X99763952Y-83006955D01*
X99763952Y-83006955D02*
X99668714Y-83483145D01*
X100002047Y-82578383D02*
X99335380Y-82578383D01*
X99906809Y-82578383D02*
X99954428Y-82530764D01*
X99954428Y-82530764D02*
X100002047Y-82435526D01*
X100002047Y-82435526D02*
X100002047Y-82292669D01*
X100002047Y-82292669D02*
X99954428Y-82197431D01*
X99954428Y-82197431D02*
X99859190Y-82149812D01*
X99859190Y-82149812D02*
X99335380Y-82149812D01*
X99430619Y-80340288D02*
X99383000Y-80387907D01*
X99383000Y-80387907D02*
X99335380Y-80530764D01*
X99335380Y-80530764D02*
X99335380Y-80626002D01*
X99335380Y-80626002D02*
X99383000Y-80768859D01*
X99383000Y-80768859D02*
X99478238Y-80864097D01*
X99478238Y-80864097D02*
X99573476Y-80911716D01*
X99573476Y-80911716D02*
X99763952Y-80959335D01*
X99763952Y-80959335D02*
X99906809Y-80959335D01*
X99906809Y-80959335D02*
X100097285Y-80911716D01*
X100097285Y-80911716D02*
X100192523Y-80864097D01*
X100192523Y-80864097D02*
X100287761Y-80768859D01*
X100287761Y-80768859D02*
X100335380Y-80626002D01*
X100335380Y-80626002D02*
X100335380Y-80530764D01*
X100335380Y-80530764D02*
X100287761Y-80387907D01*
X100287761Y-80387907D02*
X100240142Y-80340288D01*
X99335380Y-79911716D02*
X100335380Y-79911716D01*
X99335380Y-79483145D02*
X99859190Y-79483145D01*
X99859190Y-79483145D02*
X99954428Y-79530764D01*
X99954428Y-79530764D02*
X100002047Y-79626002D01*
X100002047Y-79626002D02*
X100002047Y-79768859D01*
X100002047Y-79768859D02*
X99954428Y-79864097D01*
X99954428Y-79864097D02*
X99906809Y-79911716D01*
X99383000Y-78626002D02*
X99335380Y-78721240D01*
X99335380Y-78721240D02*
X99335380Y-78911716D01*
X99335380Y-78911716D02*
X99383000Y-79006954D01*
X99383000Y-79006954D02*
X99478238Y-79054573D01*
X99478238Y-79054573D02*
X99859190Y-79054573D01*
X99859190Y-79054573D02*
X99954428Y-79006954D01*
X99954428Y-79006954D02*
X100002047Y-78911716D01*
X100002047Y-78911716D02*
X100002047Y-78721240D01*
X100002047Y-78721240D02*
X99954428Y-78626002D01*
X99954428Y-78626002D02*
X99859190Y-78578383D01*
X99859190Y-78578383D02*
X99763952Y-78578383D01*
X99763952Y-78578383D02*
X99668714Y-79054573D01*
X100002047Y-78149811D02*
X99335380Y-78149811D01*
X99906809Y-78149811D02*
X99954428Y-78102192D01*
X99954428Y-78102192D02*
X100002047Y-78006954D01*
X100002047Y-78006954D02*
X100002047Y-77864097D01*
X100002047Y-77864097D02*
X99954428Y-77768859D01*
X99954428Y-77768859D02*
X99859190Y-77721240D01*
X99859190Y-77721240D02*
X99335380Y-77721240D01*
D11*
%TO.C,U3*%
X116000000Y-79050000D02*
X114600000Y-79050000D01*
X116000000Y-77550000D02*
X114600000Y-77550000D01*
X116350000Y-77500000D02*
G75*
G03*
X116350000Y-77500000I-50000J0D01*
G01*
%TO.C,*%
G36*
X149125211Y-115226901D02*
G01*
X147604788Y-115226901D01*
X147604788Y-115065915D01*
X149125211Y-115065915D01*
X149125211Y-115226901D01*
G37*
G36*
X146352676Y-113885352D02*
G01*
X145511971Y-113885352D01*
X145511971Y-113706479D01*
X146352676Y-113706479D01*
X146352676Y-113885352D01*
G37*
G36*
X148695915Y-111291690D02*
G01*
X147604788Y-111291690D01*
X147604788Y-111130704D01*
X148695915Y-111130704D01*
X148695915Y-111291690D01*
G37*
G36*
X149089436Y-111309577D02*
G01*
X148910563Y-111309577D01*
X148910563Y-111130704D01*
X149089436Y-111130704D01*
X149089436Y-111309577D01*
G37*
G36*
X152112394Y-109574507D02*
G01*
X150377324Y-109574507D01*
X150377324Y-109180986D01*
X152112394Y-109180986D01*
X152112394Y-109574507D01*
G37*
G36*
X152112394Y-104637605D02*
G01*
X150377324Y-104637605D01*
X150377324Y-104261971D01*
X152112394Y-104261971D01*
X152112394Y-104637605D01*
G37*
G36*
X146352676Y-100362535D02*
G01*
X145511971Y-100362535D01*
X145511971Y-100183662D01*
X146352676Y-100183662D01*
X146352676Y-100362535D01*
G37*
G36*
X146352676Y-96928169D02*
G01*
X145511971Y-96928169D01*
X145511971Y-96749295D01*
X146352676Y-96749295D01*
X146352676Y-96928169D01*
G37*
G36*
X148695915Y-93332817D02*
G01*
X147604788Y-93332817D01*
X147604788Y-93171831D01*
X148695915Y-93171831D01*
X148695915Y-93332817D01*
G37*
G36*
X149089436Y-93332817D02*
G01*
X148910563Y-93332817D01*
X148910563Y-93153943D01*
X149089436Y-93153943D01*
X149089436Y-93332817D01*
G37*
G36*
X148695915Y-88932535D02*
G01*
X147604788Y-88932535D01*
X147604788Y-88771549D01*
X148695915Y-88771549D01*
X148695915Y-88932535D01*
G37*
G36*
X149089436Y-88950422D02*
G01*
X148910563Y-88950422D01*
X148910563Y-88771549D01*
X149089436Y-88771549D01*
X149089436Y-88950422D01*
G37*
G36*
X149121768Y-108738274D02*
G01*
X149116267Y-108814295D01*
X148360528Y-108818961D01*
X147604788Y-108823627D01*
X147604788Y-108662253D01*
X149127268Y-108662253D01*
X149121768Y-108738274D01*
G37*
G36*
X145681901Y-107919929D02*
G01*
X145692187Y-108250845D01*
X146352676Y-108250845D01*
X146352676Y-108429718D01*
X145511971Y-108429718D01*
X145511971Y-107909025D01*
X145681901Y-107919929D01*
G37*
G36*
X145681901Y-107275986D02*
G01*
X145687044Y-107441443D01*
X145692187Y-107606901D01*
X146352676Y-107606901D01*
X146352676Y-107785774D01*
X145511971Y-107785774D01*
X145511971Y-107265082D01*
X145681901Y-107275986D01*
G37*
G36*
X150735070Y-112221831D02*
G01*
X152112394Y-112221831D01*
X152112394Y-112615352D01*
X150376860Y-112615352D01*
X150381564Y-111993767D01*
X150386267Y-111372183D01*
X150560669Y-111367063D01*
X150735070Y-111361944D01*
X150735070Y-112221831D01*
G37*
G36*
X150735070Y-110719295D02*
G01*
X152112394Y-110719295D01*
X152112394Y-111094929D01*
X150376860Y-111094929D01*
X150381564Y-110473345D01*
X150386267Y-109851760D01*
X150560669Y-109846641D01*
X150735070Y-109841521D01*
X150735070Y-110719295D01*
G37*
G36*
X146352676Y-103743239D02*
G01*
X145511971Y-103743239D01*
X145511971Y-103546479D01*
X145851831Y-103546479D01*
X145851831Y-103224507D01*
X146012816Y-103224507D01*
X146012816Y-103546479D01*
X146191690Y-103546479D01*
X146191690Y-103188732D01*
X146352676Y-103188732D01*
X146352676Y-103743239D01*
G37*
G36*
X146352676Y-113025722D02*
G01*
X145878662Y-113035704D01*
X146352294Y-113339788D01*
X146352676Y-113509718D01*
X145511971Y-113509718D01*
X145511971Y-113330845D01*
X146000715Y-113330845D01*
X145756343Y-113170469D01*
X145511971Y-113010094D01*
X145511971Y-112865774D01*
X146352676Y-112865774D01*
X146352676Y-113025722D01*
G37*
G36*
X147747887Y-116192817D02*
G01*
X148266619Y-116192817D01*
X148266619Y-115530986D01*
X148409718Y-115530986D01*
X148409718Y-116192817D01*
X148910563Y-116192817D01*
X148910563Y-115459436D01*
X149071549Y-115459436D01*
X149071549Y-116353802D01*
X147604788Y-116353802D01*
X147604788Y-115441549D01*
X147747887Y-115441549D01*
X147747887Y-116192817D01*
G37*
G36*
X145672957Y-111649436D02*
G01*
X145851831Y-111649436D01*
X145851831Y-111327464D01*
X146030704Y-111327464D01*
X146030704Y-111649436D01*
X146191690Y-111649436D01*
X146191690Y-111291690D01*
X146352676Y-111291690D01*
X146352676Y-111828309D01*
X145511971Y-111828309D01*
X145511971Y-111273802D01*
X145672957Y-111273802D01*
X145672957Y-111649436D01*
G37*
G36*
X145672957Y-105442535D02*
G01*
X145851831Y-105442535D01*
X145851831Y-105120563D01*
X146030704Y-105120563D01*
X146030704Y-105442535D01*
X146191690Y-105442535D01*
X146191690Y-105066901D01*
X146352676Y-105066901D01*
X146352676Y-105621408D01*
X145511971Y-105621408D01*
X145511971Y-105066901D01*
X145672957Y-105066901D01*
X145672957Y-105442535D01*
G37*
G36*
X145672957Y-102580563D02*
G01*
X145851831Y-102580563D01*
X145851831Y-102258591D01*
X146030704Y-102258591D01*
X146030704Y-102580563D01*
X146191690Y-102580563D01*
X146191690Y-102204929D01*
X146352676Y-102204929D01*
X146352676Y-102759436D01*
X145511971Y-102759436D01*
X145511971Y-102204929D01*
X145672957Y-102204929D01*
X145672957Y-102580563D01*
G37*
G36*
X146352676Y-96068539D02*
G01*
X146116881Y-96073530D01*
X145881087Y-96078521D01*
X146116880Y-96230563D01*
X146352674Y-96382605D01*
X146352676Y-96552535D01*
X145511971Y-96552535D01*
X145511971Y-96373662D01*
X146003169Y-96373662D01*
X145511971Y-96053210D01*
X145511971Y-95890704D01*
X146352676Y-95890704D01*
X146352676Y-96068539D01*
G37*
G36*
X147747887Y-96570422D02*
G01*
X148266619Y-96570422D01*
X148266619Y-95908591D01*
X148409718Y-95908591D01*
X148409718Y-96570422D01*
X148910563Y-96570422D01*
X148910563Y-95837042D01*
X149071549Y-95837042D01*
X149071549Y-96731408D01*
X147604788Y-96731408D01*
X147604788Y-95819155D01*
X147747887Y-95819155D01*
X147747887Y-96570422D01*
G37*
G36*
X145672957Y-106962957D02*
G01*
X145850438Y-106962957D01*
X145860774Y-106649929D01*
X146021760Y-106649929D01*
X146026928Y-106806443D01*
X146032097Y-106962957D01*
X146191690Y-106962957D01*
X146191690Y-106605211D01*
X146352676Y-106605211D01*
X146352676Y-107141831D01*
X145511971Y-107141831D01*
X145511971Y-106605211D01*
X145672957Y-106605211D01*
X145672957Y-106962957D01*
G37*
G36*
X146352676Y-99503943D02*
G01*
X145878662Y-99504573D01*
X146115669Y-99660680D01*
X146352676Y-99816788D01*
X146352676Y-99986901D01*
X145511971Y-99986901D01*
X145511971Y-99808028D01*
X145757922Y-99807764D01*
X146003873Y-99807499D01*
X145757922Y-99645206D01*
X145511971Y-99482912D01*
X145511971Y-99325070D01*
X146352676Y-99325070D01*
X146352676Y-99503943D01*
G37*
G36*
X145676803Y-98775035D02*
G01*
X145681901Y-98958380D01*
X145851831Y-98969284D01*
X145851831Y-98645352D01*
X146030704Y-98645352D01*
X146030704Y-98967324D01*
X146191690Y-98967324D01*
X146191690Y-98591690D01*
X146352676Y-98591690D01*
X146352676Y-99146197D01*
X145511971Y-99146197D01*
X145511971Y-98591690D01*
X145671706Y-98591690D01*
X145676803Y-98775035D01*
G37*
G36*
X145676803Y-98059542D02*
G01*
X145681901Y-98242887D01*
X145851831Y-98253791D01*
X145851831Y-97929859D01*
X146030704Y-97929859D01*
X146030704Y-98251831D01*
X146191690Y-98251831D01*
X146191690Y-97876197D01*
X146352676Y-97876197D01*
X146352676Y-98430704D01*
X145511971Y-98430704D01*
X145511971Y-97876197D01*
X145671706Y-97876197D01*
X145676803Y-98059542D01*
G37*
G36*
X146352676Y-101559917D02*
G01*
X146124612Y-101564923D01*
X145896549Y-101569929D01*
X146124163Y-101721971D01*
X146351778Y-101874014D01*
X146352227Y-101958979D01*
X146352676Y-102043943D01*
X145511971Y-102043943D01*
X145511971Y-101865070D01*
X146003873Y-101864310D01*
X145757922Y-101703684D01*
X145511971Y-101543059D01*
X145511971Y-101382112D01*
X146352676Y-101382112D01*
X146352676Y-101559917D01*
G37*
G36*
X152112394Y-113456056D02*
G01*
X151252664Y-113456056D01*
X151081252Y-113455803D01*
X150920925Y-113455099D01*
X150775208Y-113453993D01*
X150647630Y-113452534D01*
X150541718Y-113450770D01*
X150460999Y-113448749D01*
X150409000Y-113446520D01*
X150389248Y-113444131D01*
X150385650Y-113431880D01*
X150381351Y-113389605D01*
X150378412Y-113325401D01*
X150377324Y-113247371D01*
X150377324Y-113062535D01*
X152112394Y-113062535D01*
X152112394Y-113456056D01*
G37*
G36*
X152112394Y-107588465D02*
G01*
X151600396Y-107593211D01*
X151088399Y-107597957D01*
X151595925Y-107984026D01*
X152103450Y-108370094D01*
X152108548Y-108551948D01*
X152113645Y-108733802D01*
X150377324Y-108733802D01*
X150377324Y-108358686D01*
X150919423Y-108353955D01*
X151461523Y-108349225D01*
X150919890Y-107937817D01*
X150378257Y-107526408D01*
X150377790Y-107360950D01*
X150377324Y-107195493D01*
X152112394Y-107195493D01*
X152112394Y-107588465D01*
G37*
G36*
X148706351Y-111563645D02*
G01*
X148688507Y-111631970D01*
X148633550Y-111730113D01*
X148547617Y-111812133D01*
X148475900Y-111864084D01*
X148695915Y-111864084D01*
X148695915Y-112007183D01*
X147604788Y-112007183D01*
X147604788Y-111868522D01*
X147922288Y-111860310D01*
X148033878Y-111856729D01*
X148144085Y-111850446D01*
X148229107Y-111840849D01*
X148294790Y-111826593D01*
X148346981Y-111806329D01*
X148391529Y-111778713D01*
X148434280Y-111742396D01*
X148480082Y-111688259D01*
X148520058Y-111610275D01*
X148534929Y-111533743D01*
X148535969Y-111513979D01*
X148545530Y-111496816D01*
X148572740Y-111489797D01*
X148626652Y-111488450D01*
X148718375Y-111488450D01*
X148706351Y-111563645D01*
G37*
G36*
X148665131Y-97447427D02*
G01*
X148698264Y-97452418D01*
X148711302Y-97466952D01*
X148713410Y-97496091D01*
X148711391Y-97521468D01*
X148686213Y-97602422D01*
X148637035Y-97684413D01*
X148569914Y-97756456D01*
X148492715Y-97822535D01*
X148695915Y-97822535D01*
X148695915Y-97983521D01*
X147604788Y-97983521D01*
X147604788Y-97822535D01*
X147896683Y-97822535D01*
X148006447Y-97821479D01*
X148130753Y-97816104D01*
X148228631Y-97805341D01*
X148305381Y-97788263D01*
X148366305Y-97763940D01*
X148416701Y-97731445D01*
X148440375Y-97709488D01*
X148487612Y-97644835D01*
X148521776Y-97570278D01*
X148534929Y-97501276D01*
X148535938Y-97474120D01*
X148545026Y-97455257D01*
X148571425Y-97448055D01*
X148624366Y-97446901D01*
X148665131Y-97447427D01*
G37*
G36*
X148631532Y-89129315D02*
G01*
X148682714Y-89132085D01*
X148707364Y-89141553D01*
X148713703Y-89160598D01*
X148704129Y-89229195D01*
X148664060Y-89322253D01*
X148596664Y-89408361D01*
X148517983Y-89487042D01*
X148695915Y-89487042D01*
X148695915Y-89648028D01*
X147604788Y-89648028D01*
X147604788Y-89487042D01*
X147931232Y-89486649D01*
X147945679Y-89486627D01*
X148062642Y-89485911D01*
X148150438Y-89483918D01*
X148215031Y-89480146D01*
X148262383Y-89474092D01*
X148298460Y-89465254D01*
X148329225Y-89453130D01*
X148398291Y-89412087D01*
X148470651Y-89341973D01*
X148517972Y-89259808D01*
X148534929Y-89172849D01*
X148535738Y-89156076D01*
X148544748Y-89138235D01*
X148571249Y-89130790D01*
X148624366Y-89129295D01*
X148631532Y-89129315D01*
G37*
G36*
X147738712Y-112297981D02*
G01*
X147737119Y-112311301D01*
X147734121Y-112366991D01*
X147742678Y-112405336D01*
X147765554Y-112441080D01*
X147804145Y-112490140D01*
X148552816Y-112490140D01*
X148552816Y-112203943D01*
X148695915Y-112203943D01*
X148695915Y-112490140D01*
X149017887Y-112490140D01*
X149017887Y-112651126D01*
X148695915Y-112651126D01*
X148695915Y-112794225D01*
X148552816Y-112794225D01*
X148552816Y-112651126D01*
X148154824Y-112651060D01*
X148089651Y-112651009D01*
X147974029Y-112650499D01*
X147886738Y-112649108D01*
X147822704Y-112646437D01*
X147776855Y-112642085D01*
X147744117Y-112635651D01*
X147719418Y-112626734D01*
X147697685Y-112614933D01*
X147693047Y-112611978D01*
X147646389Y-112570074D01*
X147613421Y-112521091D01*
X147600459Y-112480588D01*
X147589267Y-112400578D01*
X147590361Y-112317649D01*
X147604346Y-112249826D01*
X147613954Y-112229544D01*
X147639322Y-112209082D01*
X147686126Y-112203943D01*
X147750461Y-112203943D01*
X147738712Y-112297981D01*
G37*
G36*
X148048860Y-94785028D02*
G01*
X148492931Y-94790633D01*
X148568996Y-94841007D01*
X148582740Y-94850621D01*
X148654374Y-94925007D01*
X148698239Y-95021011D01*
X148713410Y-95136733D01*
X148703657Y-95232038D01*
X148665044Y-95326576D01*
X148594926Y-95407637D01*
X148533684Y-95461408D01*
X148695915Y-95461408D01*
X148695915Y-95604507D01*
X147604788Y-95604507D01*
X147604788Y-95464966D01*
X147984894Y-95458715D01*
X148003847Y-95458400D01*
X148127434Y-95456016D01*
X148221217Y-95453248D01*
X148290468Y-95449583D01*
X148340456Y-95444510D01*
X148376451Y-95437517D01*
X148403724Y-95428092D01*
X148427544Y-95415723D01*
X148477330Y-95379558D01*
X148535945Y-95307551D01*
X148566381Y-95224530D01*
X148566577Y-95137483D01*
X148534471Y-95053395D01*
X148511713Y-95020468D01*
X148484805Y-94994231D01*
X148449667Y-94974591D01*
X148401712Y-94960613D01*
X148336350Y-94951366D01*
X148248993Y-94945916D01*
X148135053Y-94943330D01*
X147989940Y-94942676D01*
X147604788Y-94942676D01*
X147604788Y-94779422D01*
X148048860Y-94785028D01*
G37*
G36*
X148048859Y-87666132D02*
G01*
X148492929Y-87671479D01*
X148567238Y-87720689D01*
X148579121Y-87728896D01*
X148653765Y-87803378D01*
X148698748Y-87897703D01*
X148713802Y-88011338D01*
X148713800Y-88012872D01*
X148699308Y-88121477D01*
X148658819Y-88215376D01*
X148595622Y-88286900D01*
X148547992Y-88324366D01*
X148695915Y-88324366D01*
X148695915Y-88485352D01*
X147604788Y-88485352D01*
X147604788Y-88324366D01*
X147984894Y-88324338D01*
X147991713Y-88324337D01*
X148132569Y-88323636D01*
X148242735Y-88320892D01*
X148327077Y-88314992D01*
X148390459Y-88304820D01*
X148437747Y-88289265D01*
X148473805Y-88267211D01*
X148503499Y-88237546D01*
X148531694Y-88199155D01*
X148556040Y-88156215D01*
X148567636Y-88108057D01*
X148566377Y-88042918D01*
X148565633Y-88034638D01*
X148550688Y-87960732D01*
X148524537Y-87910766D01*
X148506357Y-87891857D01*
X148477155Y-87869003D01*
X148441136Y-87851825D01*
X148393476Y-87839536D01*
X148329350Y-87831349D01*
X148243935Y-87826475D01*
X148132407Y-87824128D01*
X147989940Y-87823521D01*
X147604788Y-87823521D01*
X147604788Y-87660786D01*
X148048859Y-87666132D01*
G37*
G36*
X145587993Y-114911905D02*
G01*
X145605249Y-114921921D01*
X145675178Y-114962153D01*
X145741709Y-115000006D01*
X145819404Y-115043849D01*
X145878321Y-114979559D01*
X145884152Y-114973235D01*
X145917269Y-114941185D01*
X145949460Y-114922981D01*
X145992956Y-114913883D01*
X146059992Y-114909147D01*
X146080762Y-114908242D01*
X146149097Y-114908857D01*
X146197373Y-114918002D01*
X146237840Y-114937640D01*
X146249021Y-114944993D01*
X146291370Y-114982602D01*
X146321022Y-115031421D01*
X146339866Y-115097500D01*
X146349788Y-115186885D01*
X146352676Y-115305625D01*
X146352676Y-115513098D01*
X145959155Y-115513098D01*
X145511971Y-115513098D01*
X145511971Y-115334225D01*
X145780281Y-115334225D01*
X145959155Y-115334225D01*
X146191690Y-115334225D01*
X146191690Y-115248768D01*
X146190151Y-115211902D01*
X146172608Y-115140271D01*
X146135112Y-115097804D01*
X146077180Y-115083802D01*
X146030455Y-115091644D01*
X145988758Y-115116514D01*
X145966872Y-115163365D01*
X145959155Y-115241725D01*
X145959155Y-115334225D01*
X145780281Y-115334225D01*
X145780281Y-115281816D01*
X145779775Y-115268941D01*
X145772638Y-115243939D01*
X145752130Y-115220582D01*
X145712032Y-115193006D01*
X145646126Y-115155352D01*
X145511971Y-115081297D01*
X145511971Y-114867647D01*
X145587993Y-114911905D01*
G37*
G36*
X147745050Y-99271857D02*
G01*
X147744776Y-99272653D01*
X147735195Y-99329297D01*
X147738102Y-99389483D01*
X147743742Y-99412955D01*
X147758186Y-99443193D01*
X147783114Y-99465990D01*
X147822735Y-99482363D01*
X147881262Y-99493329D01*
X147962904Y-99499903D01*
X148071874Y-99503103D01*
X148212383Y-99503943D01*
X148552816Y-99503943D01*
X148552816Y-99217746D01*
X148695915Y-99217746D01*
X148695915Y-99503943D01*
X149017887Y-99503943D01*
X149017887Y-99664929D01*
X148695915Y-99664929D01*
X148695915Y-99727535D01*
X148695755Y-99746008D01*
X148690535Y-99776543D01*
X148670176Y-99788245D01*
X148624366Y-99790140D01*
X148604058Y-99790008D01*
X148568718Y-99785553D01*
X148555074Y-99768159D01*
X148552816Y-99729023D01*
X148552816Y-99667905D01*
X148153989Y-99661945D01*
X148093941Y-99661005D01*
X147966485Y-99658273D01*
X147868128Y-99654084D01*
X147794099Y-99647295D01*
X147739627Y-99636761D01*
X147699941Y-99621336D01*
X147670270Y-99599877D01*
X147645843Y-99571238D01*
X147621889Y-99534274D01*
X147606251Y-99500447D01*
X147589558Y-99422991D01*
X147588563Y-99338504D01*
X147604346Y-99263629D01*
X147617703Y-99237826D01*
X147644039Y-99221655D01*
X147692852Y-99217746D01*
X147763913Y-99217746D01*
X147745050Y-99271857D01*
G37*
G36*
X145547113Y-114019306D02*
G01*
X145557363Y-114022737D01*
X145599885Y-114037500D01*
X145668013Y-114061445D01*
X145756436Y-114092699D01*
X145859844Y-114129385D01*
X145972925Y-114169630D01*
X146361619Y-114308173D01*
X146361619Y-114482668D01*
X145950211Y-114630354D01*
X145866362Y-114660364D01*
X145866245Y-114660406D01*
X145759300Y-114698400D01*
X145666810Y-114730933D01*
X145593659Y-114756300D01*
X145544617Y-114772836D01*
X145524452Y-114778879D01*
X145519344Y-114771977D01*
X145514956Y-114738558D01*
X145515508Y-114686613D01*
X145520915Y-114593508D01*
X145692183Y-114540486D01*
X145686873Y-114393935D01*
X145851831Y-114393935D01*
X145852532Y-114419063D01*
X145857700Y-114459625D01*
X145866245Y-114475633D01*
X145888850Y-114470429D01*
X145935326Y-114456498D01*
X145995356Y-114436900D01*
X146110053Y-114398166D01*
X146021188Y-114367967D01*
X145989912Y-114357389D01*
X145932493Y-114338205D01*
X145892077Y-114325003D01*
X145878338Y-114321116D01*
X145860516Y-114322891D01*
X145853228Y-114344513D01*
X145851831Y-114393935D01*
X145686873Y-114393935D01*
X145681901Y-114256724D01*
X145601408Y-114227128D01*
X145555241Y-114208721D01*
X145530474Y-114189479D01*
X145519911Y-114157994D01*
X145515456Y-114102529D01*
X145513436Y-114058328D01*
X145515562Y-114025669D01*
X145525818Y-114015212D01*
X145547113Y-114019306D01*
G37*
G36*
X145532092Y-110489025D02*
G01*
X145564980Y-110504818D01*
X145617297Y-110532633D01*
X145681348Y-110568447D01*
X145823894Y-110649867D01*
X145857606Y-110603588D01*
X145872649Y-110585193D01*
X145940033Y-110534658D01*
X146021754Y-110508068D01*
X146109213Y-110504912D01*
X146193806Y-110524682D01*
X146266932Y-110566868D01*
X146319991Y-110630962D01*
X146327167Y-110645599D01*
X146339739Y-110683567D01*
X146347554Y-110733805D01*
X146351552Y-110804130D01*
X146352676Y-110902361D01*
X146352676Y-111112817D01*
X145959155Y-111112817D01*
X145511971Y-111112817D01*
X145511971Y-110933943D01*
X145780281Y-110933943D01*
X145959155Y-110933943D01*
X146191690Y-110933943D01*
X146191690Y-110844507D01*
X146185161Y-110784272D01*
X146158406Y-110723825D01*
X146115319Y-110689367D01*
X146060591Y-110684134D01*
X145998909Y-110711366D01*
X145994626Y-110714474D01*
X145972482Y-110738844D01*
X145961877Y-110775706D01*
X145959155Y-110836577D01*
X145959155Y-110933943D01*
X145780281Y-110933943D01*
X145780281Y-110883840D01*
X145779955Y-110874458D01*
X145773053Y-110849215D01*
X145752517Y-110825128D01*
X145712243Y-110796443D01*
X145646126Y-110757409D01*
X145511971Y-110681080D01*
X145511971Y-110583920D01*
X145513128Y-110544581D01*
X145518000Y-110502983D01*
X145525387Y-110486893D01*
X145532092Y-110489025D01*
G37*
G36*
X145659136Y-109448837D02*
G01*
X145697961Y-109481067D01*
X145759771Y-109535336D01*
X145716364Y-109594171D01*
X145684683Y-109649395D01*
X145675366Y-109715946D01*
X145699000Y-109787631D01*
X145703777Y-109796140D01*
X145754169Y-109847936D01*
X145825853Y-109881492D01*
X145910126Y-109896173D01*
X145998284Y-109891344D01*
X146081625Y-109866371D01*
X146151443Y-109820620D01*
X146178312Y-109781287D01*
X146192503Y-109716306D01*
X146184403Y-109646502D01*
X146153876Y-109584921D01*
X146149597Y-109579398D01*
X146127933Y-109547709D01*
X146122573Y-109532420D01*
X146126340Y-109529585D01*
X146151038Y-109509988D01*
X146189219Y-109479171D01*
X146200164Y-109470570D01*
X146241101Y-109447356D01*
X146273721Y-109450677D01*
X146303828Y-109483221D01*
X146337230Y-109547676D01*
X146359135Y-109613387D01*
X146368816Y-109721657D01*
X146349593Y-109826732D01*
X146333089Y-109867407D01*
X146271110Y-109959245D01*
X146184165Y-110026451D01*
X146073889Y-110067996D01*
X145941918Y-110082854D01*
X145815252Y-110071784D01*
X145702360Y-110035265D01*
X145612204Y-109975029D01*
X145547453Y-109892886D01*
X145510779Y-109790647D01*
X145504824Y-109706796D01*
X145519206Y-109610287D01*
X145552752Y-109523195D01*
X145602159Y-109457560D01*
X145615192Y-109446439D01*
X145635287Y-109438213D01*
X145659136Y-109448837D01*
G37*
G36*
X148695915Y-100126441D02*
G01*
X148315809Y-100132692D01*
X148296857Y-100133008D01*
X148173270Y-100135392D01*
X148079486Y-100138160D01*
X148010236Y-100141825D01*
X147960248Y-100146898D01*
X147924253Y-100153891D01*
X147896980Y-100163316D01*
X147873159Y-100175685D01*
X147854002Y-100187647D01*
X147781653Y-100253537D01*
X147741925Y-100333800D01*
X147734327Y-100429335D01*
X147735071Y-100437615D01*
X147750016Y-100511521D01*
X147776167Y-100561487D01*
X147794346Y-100580396D01*
X147823548Y-100603250D01*
X147859567Y-100620427D01*
X147907228Y-100632717D01*
X147971353Y-100640904D01*
X148056768Y-100645778D01*
X148168297Y-100648125D01*
X148310763Y-100648732D01*
X148695915Y-100648732D01*
X148695915Y-100809718D01*
X148287176Y-100809718D01*
X148170770Y-100809158D01*
X148038604Y-100806757D01*
X147933838Y-100802577D01*
X147859254Y-100796738D01*
X147817634Y-100789360D01*
X147747042Y-100757362D01*
X147669484Y-100698471D01*
X147616983Y-100627632D01*
X147601228Y-100578863D01*
X147590512Y-100505728D01*
X147587603Y-100426328D01*
X147592926Y-100354286D01*
X147606903Y-100303225D01*
X147616694Y-100287175D01*
X147649509Y-100243995D01*
X147691026Y-100197077D01*
X147755147Y-100130000D01*
X147604788Y-100130000D01*
X147604788Y-99969014D01*
X148695915Y-99969014D01*
X148695915Y-100126441D01*
G37*
G36*
X148029612Y-92047982D02*
G01*
X148117308Y-92049273D01*
X148233667Y-92051486D01*
X148322329Y-92054222D01*
X148388288Y-92057914D01*
X148436542Y-92062996D01*
X148472087Y-92069900D01*
X148499918Y-92079059D01*
X148525032Y-92090907D01*
X148547949Y-92103754D01*
X148632769Y-92172735D01*
X148686755Y-92259754D01*
X148710222Y-92365280D01*
X148711314Y-92383545D01*
X148704966Y-92493811D01*
X148672970Y-92584712D01*
X148613049Y-92663222D01*
X148551624Y-92724648D01*
X148695915Y-92724648D01*
X148695915Y-92885633D01*
X147604788Y-92885633D01*
X147604788Y-92724648D01*
X147976632Y-92724648D01*
X148027921Y-92724625D01*
X148141409Y-92724188D01*
X148226791Y-92722811D01*
X148289635Y-92719996D01*
X148335507Y-92715245D01*
X148369975Y-92708060D01*
X148398605Y-92697945D01*
X148426963Y-92684401D01*
X148434180Y-92680581D01*
X148509072Y-92621016D01*
X148555057Y-92541000D01*
X148570704Y-92442939D01*
X148568223Y-92402558D01*
X148551539Y-92353570D01*
X148512570Y-92303087D01*
X148490049Y-92280369D01*
X148457965Y-92255793D01*
X148419368Y-92237302D01*
X148369382Y-92224044D01*
X148303133Y-92215170D01*
X148215746Y-92209828D01*
X148102348Y-92207169D01*
X147958063Y-92206342D01*
X147604788Y-92205915D01*
X147604788Y-92042092D01*
X148029612Y-92047982D01*
G37*
G36*
X147794865Y-110114200D02*
G01*
X147840867Y-110160201D01*
X147791287Y-110235121D01*
X147765492Y-110281065D01*
X147736124Y-110378939D01*
X147737393Y-110476988D01*
X147769840Y-110566850D01*
X147826842Y-110636059D01*
X147914423Y-110693777D01*
X148022811Y-110730248D01*
X148146172Y-110742744D01*
X148158365Y-110742627D01*
X148283189Y-110729647D01*
X148385139Y-110693889D01*
X148470055Y-110633382D01*
X148521568Y-110572681D01*
X148560726Y-110483935D01*
X148566592Y-110390204D01*
X148539073Y-110296338D01*
X148478080Y-110207188D01*
X148464445Y-110191808D01*
X148454534Y-110171914D01*
X148466150Y-110152362D01*
X148502531Y-110121851D01*
X148561760Y-110074606D01*
X148616927Y-110137133D01*
X148629348Y-110152067D01*
X148682824Y-110247000D01*
X148709728Y-110355569D01*
X148710720Y-110469783D01*
X148686462Y-110581648D01*
X148637615Y-110683174D01*
X148564841Y-110766369D01*
X148501097Y-110812006D01*
X148379561Y-110868653D01*
X148244631Y-110901875D01*
X148105326Y-110910613D01*
X147970666Y-110893807D01*
X147849670Y-110850397D01*
X147796522Y-110817005D01*
X147724681Y-110756048D01*
X147662053Y-110686805D01*
X147620273Y-110620915D01*
X147615627Y-110610217D01*
X147588961Y-110507897D01*
X147586094Y-110396710D01*
X147605378Y-110286713D01*
X147645167Y-110187964D01*
X147703815Y-110110519D01*
X147748864Y-110068198D01*
X147794865Y-110114200D01*
G37*
G36*
X145527093Y-97073455D02*
G01*
X145558946Y-97089393D01*
X145610409Y-97117395D01*
X145673989Y-97153440D01*
X145816452Y-97235613D01*
X145867817Y-97180626D01*
X145902559Y-97148921D01*
X145985450Y-97104255D01*
X146075486Y-97088833D01*
X146165029Y-97102106D01*
X146246438Y-97143524D01*
X146312073Y-97212539D01*
X146319530Y-97224091D01*
X146334428Y-97252899D01*
X146344080Y-97286602D01*
X146349597Y-97332920D01*
X146352091Y-97399568D01*
X146352676Y-97494265D01*
X146352676Y-97715211D01*
X146191690Y-97715211D01*
X145511971Y-97715211D01*
X145511971Y-97536338D01*
X145780281Y-97536338D01*
X145959155Y-97536338D01*
X146191690Y-97536338D01*
X146191416Y-97442429D01*
X146190429Y-97407243D01*
X146185544Y-97356947D01*
X146178000Y-97328839D01*
X146166404Y-97314645D01*
X146119638Y-97285881D01*
X146064089Y-97277354D01*
X146012238Y-97289455D01*
X145976570Y-97322571D01*
X145970999Y-97337765D01*
X145962501Y-97386225D01*
X145959155Y-97445725D01*
X145959155Y-97536338D01*
X145780281Y-97536338D01*
X145779942Y-97478204D01*
X145779271Y-97461142D01*
X145772425Y-97435014D01*
X145752899Y-97411765D01*
X145714305Y-97384997D01*
X145650258Y-97348314D01*
X145520915Y-97276558D01*
X145515551Y-97173913D01*
X145514286Y-97129341D01*
X145515970Y-97087445D01*
X145520856Y-97071267D01*
X145527093Y-97073455D01*
G37*
G36*
X146062953Y-103905910D02*
G01*
X146173639Y-103945776D01*
X146199302Y-103960246D01*
X146279642Y-104029181D01*
X146335508Y-104116825D01*
X146365501Y-104216135D01*
X146368227Y-104320068D01*
X146342286Y-104421581D01*
X146286283Y-104513633D01*
X146232788Y-104566780D01*
X146156024Y-104612529D01*
X146061302Y-104638046D01*
X145946839Y-104645780D01*
X145941267Y-104646157D01*
X145839685Y-104640826D01*
X145726348Y-104614887D01*
X145637094Y-104565621D01*
X145568682Y-104491060D01*
X145517873Y-104389239D01*
X145507470Y-104348727D01*
X145502693Y-104263957D01*
X145504054Y-104252904D01*
X145673288Y-104252904D01*
X145681646Y-104321922D01*
X145719832Y-104384913D01*
X145785839Y-104434892D01*
X145786145Y-104435051D01*
X145859107Y-104457965D01*
X145946839Y-104464537D01*
X146033681Y-104455023D01*
X146103974Y-104429680D01*
X146141152Y-104401807D01*
X146183938Y-104343680D01*
X146201205Y-104278461D01*
X146189003Y-104216078D01*
X146145027Y-104155286D01*
X146070758Y-104108763D01*
X145970845Y-104087054D01*
X145960554Y-104086295D01*
X145855037Y-104090876D01*
X145769586Y-104118368D01*
X145709012Y-104167298D01*
X145696762Y-104184848D01*
X145673288Y-104252904D01*
X145504054Y-104252904D01*
X145513583Y-104175530D01*
X145538876Y-104100844D01*
X145558217Y-104068611D01*
X145629471Y-103993467D01*
X145722532Y-103937925D01*
X145830439Y-103903685D01*
X145946233Y-103892446D01*
X146062953Y-103905910D01*
G37*
G36*
X145994929Y-116013943D02*
G01*
X145833943Y-116013943D01*
X145833943Y-115942394D01*
X145833776Y-115918059D01*
X145828687Y-115884944D01*
X145808881Y-115872649D01*
X145764308Y-115870845D01*
X145734681Y-115872233D01*
X145696311Y-115885614D01*
X145677776Y-115919261D01*
X145672957Y-115980520D01*
X145674680Y-116008575D01*
X145700477Y-116084567D01*
X145754311Y-116142655D01*
X145832442Y-116179764D01*
X145931130Y-116192817D01*
X145936838Y-116192778D01*
X146030927Y-116180571D01*
X146109087Y-116148914D01*
X146162521Y-116101289D01*
X146173280Y-116082229D01*
X146189515Y-116015177D01*
X146186061Y-115938493D01*
X146162893Y-115867044D01*
X146159915Y-115861263D01*
X146144478Y-115825138D01*
X146149150Y-115802638D01*
X146176309Y-115777987D01*
X146227456Y-115739810D01*
X146260968Y-115723198D01*
X146283591Y-115727313D01*
X146303168Y-115750454D01*
X146309820Y-115761132D01*
X146355213Y-115867484D01*
X146370141Y-115979406D01*
X146355466Y-116089642D01*
X146312048Y-116190938D01*
X146240750Y-116276041D01*
X146227316Y-116287409D01*
X146142437Y-116340513D01*
X146043574Y-116370169D01*
X145922247Y-116379123D01*
X145811425Y-116366781D01*
X145703607Y-116327791D01*
X145614933Y-116265475D01*
X145550114Y-116183230D01*
X145513863Y-116084458D01*
X145506357Y-116030741D01*
X145512889Y-115904022D01*
X145554848Y-115781408D01*
X145594512Y-115700915D01*
X145794721Y-115695857D01*
X145994929Y-115690800D01*
X145994929Y-116013943D01*
G37*
G36*
X145994929Y-100863380D02*
G01*
X145833943Y-100863380D01*
X145833943Y-100791831D01*
X145833776Y-100767496D01*
X145828687Y-100734381D01*
X145808881Y-100722085D01*
X145764308Y-100720281D01*
X145736685Y-100721465D01*
X145697142Y-100734399D01*
X145677969Y-100767541D01*
X145672957Y-100828227D01*
X145680066Y-100885916D01*
X145716458Y-100956426D01*
X145783094Y-101007913D01*
X145856255Y-101033346D01*
X145945719Y-101041391D01*
X146033330Y-101029286D01*
X146108970Y-100998556D01*
X146162521Y-100950726D01*
X146173289Y-100931638D01*
X146189510Y-100864635D01*
X146186109Y-100788044D01*
X146163053Y-100716789D01*
X146152353Y-100695478D01*
X146144740Y-100667804D01*
X146157231Y-100645446D01*
X146193941Y-100614825D01*
X146208326Y-100603927D01*
X146246695Y-100578429D01*
X146270015Y-100568239D01*
X146289124Y-100580907D01*
X146313622Y-100620003D01*
X146337398Y-100676198D01*
X146356483Y-100739927D01*
X146366905Y-100801629D01*
X146364706Y-100902298D01*
X146333263Y-101004390D01*
X146268887Y-101097208D01*
X146201135Y-101156270D01*
X146105764Y-101204403D01*
X146001240Y-101228277D01*
X145893490Y-101229174D01*
X145788443Y-101208377D01*
X145692029Y-101167169D01*
X145610175Y-101106830D01*
X145548810Y-101028645D01*
X145513863Y-100933895D01*
X145506357Y-100880178D01*
X145512889Y-100753459D01*
X145554848Y-100630845D01*
X145594512Y-100550352D01*
X145794721Y-100545294D01*
X145994929Y-100540236D01*
X145994929Y-100863380D01*
G37*
G36*
X145994929Y-95371971D02*
G01*
X145833943Y-95371971D01*
X145833943Y-95300422D01*
X145833776Y-95276088D01*
X145828687Y-95242973D01*
X145808881Y-95230677D01*
X145764308Y-95228873D01*
X145734681Y-95230261D01*
X145696311Y-95243642D01*
X145677776Y-95277289D01*
X145672957Y-95338548D01*
X145687890Y-95415787D01*
X145729068Y-95481962D01*
X145789838Y-95525423D01*
X145856195Y-95544654D01*
X145946697Y-95550391D01*
X146034692Y-95536879D01*
X146110020Y-95505921D01*
X146162521Y-95459318D01*
X146173280Y-95440258D01*
X146189515Y-95373205D01*
X146186061Y-95296522D01*
X146162893Y-95225072D01*
X146159915Y-95219291D01*
X146144478Y-95183167D01*
X146149150Y-95160666D01*
X146176309Y-95136015D01*
X146207899Y-95111421D01*
X146249360Y-95084694D01*
X146276964Y-95083053D01*
X146299585Y-95107976D01*
X146326096Y-95160938D01*
X146344159Y-95204978D01*
X146369100Y-95322716D01*
X146360411Y-95435342D01*
X146319532Y-95538526D01*
X146247906Y-95627938D01*
X146146971Y-95699245D01*
X146097217Y-95719269D01*
X146000530Y-95737622D01*
X145894685Y-95739354D01*
X145793385Y-95724640D01*
X145710331Y-95693655D01*
X145706295Y-95691355D01*
X145615441Y-95622391D01*
X145549502Y-95537139D01*
X145513863Y-95442486D01*
X145506593Y-95390198D01*
X145513407Y-95263581D01*
X145555742Y-95139436D01*
X145594962Y-95058943D01*
X145794945Y-95053886D01*
X145994929Y-95048828D01*
X145994929Y-95371971D01*
G37*
G36*
X145994929Y-112329155D02*
G01*
X145833943Y-112329155D01*
X145833943Y-112257605D01*
X145833776Y-112233271D01*
X145828687Y-112200156D01*
X145808881Y-112187860D01*
X145764308Y-112186056D01*
X145734681Y-112187444D01*
X145696311Y-112200825D01*
X145677776Y-112234472D01*
X145672957Y-112295731D01*
X145675039Y-112328240D01*
X145701241Y-112404389D01*
X145755809Y-112460852D01*
X145836628Y-112495955D01*
X145941581Y-112508028D01*
X145966257Y-112507390D01*
X146061585Y-112489658D01*
X146132399Y-112448925D01*
X146176501Y-112386971D01*
X146191690Y-112305575D01*
X146191611Y-112300512D01*
X146181745Y-112238199D01*
X146160395Y-112183316D01*
X146155999Y-112175849D01*
X146139651Y-112142280D01*
X146144777Y-112120694D01*
X146173810Y-112095083D01*
X146204854Y-112070938D01*
X146246126Y-112044183D01*
X146273716Y-112042207D01*
X146296744Y-112066412D01*
X146324334Y-112118198D01*
X146346125Y-112169234D01*
X146369921Y-112283717D01*
X146360339Y-112394427D01*
X146318943Y-112496614D01*
X146247299Y-112585531D01*
X146146971Y-112656428D01*
X146097217Y-112676452D01*
X146000530Y-112694805D01*
X145894685Y-112696537D01*
X145793385Y-112681823D01*
X145710331Y-112650838D01*
X145703743Y-112647056D01*
X145613869Y-112578041D01*
X145549108Y-112493310D01*
X145514760Y-112399669D01*
X145507886Y-112348140D01*
X145514233Y-112219749D01*
X145555719Y-112096619D01*
X145594962Y-112016126D01*
X145794945Y-112011069D01*
X145994929Y-112006011D01*
X145994929Y-112329155D01*
G37*
G36*
X146001554Y-108598797D02*
G01*
X146107317Y-108621883D01*
X146202877Y-108666191D01*
X146281964Y-108731624D01*
X146338307Y-108818084D01*
X146345600Y-108835743D01*
X146369816Y-108944052D01*
X146362231Y-109051558D01*
X146325169Y-109151512D01*
X146260950Y-109237162D01*
X146171899Y-109301758D01*
X146160484Y-109307456D01*
X146044759Y-109347396D01*
X145932010Y-109358716D01*
X145927293Y-109359190D01*
X145813697Y-109344839D01*
X145709580Y-109306340D01*
X145620554Y-109245695D01*
X145552230Y-109164901D01*
X145510217Y-109065959D01*
X145504561Y-109031025D01*
X145504600Y-108973714D01*
X145672957Y-108973714D01*
X145674129Y-108995269D01*
X145698243Y-109065432D01*
X145751245Y-109118241D01*
X145830158Y-109151521D01*
X145932010Y-109163098D01*
X145977652Y-109161607D01*
X146073760Y-109144062D01*
X146141921Y-109106207D01*
X146183693Y-109047324D01*
X146184874Y-109044458D01*
X146201096Y-108973270D01*
X146185462Y-108910291D01*
X146136270Y-108848386D01*
X146120269Y-108833960D01*
X146083605Y-108810578D01*
X146037021Y-108797620D01*
X145967607Y-108790669D01*
X145931786Y-108789159D01*
X145835455Y-108796492D01*
X145762801Y-108823768D01*
X145708126Y-108872791D01*
X145684344Y-108917916D01*
X145672957Y-108973714D01*
X145504600Y-108973714D01*
X145504615Y-108951984D01*
X145516757Y-108870643D01*
X145538937Y-108805587D01*
X145539171Y-108805140D01*
X145601889Y-108720642D01*
X145685757Y-108657856D01*
X145784504Y-108616686D01*
X145891860Y-108597032D01*
X146001554Y-108598797D01*
G37*
G36*
X145994929Y-106122253D02*
G01*
X145833943Y-106122253D01*
X145833943Y-106041760D01*
X145833562Y-106006258D01*
X145828081Y-105974773D01*
X145810048Y-105963021D01*
X145771967Y-105961267D01*
X145749125Y-105962680D01*
X145704765Y-105981108D01*
X145680398Y-106024168D01*
X145672957Y-106096035D01*
X145685404Y-106156417D01*
X145727345Y-106218800D01*
X145792347Y-106266330D01*
X145873618Y-106292361D01*
X145970959Y-106297041D01*
X146054990Y-106275924D01*
X146130413Y-106226011D01*
X146133223Y-106223533D01*
X146170973Y-106184431D01*
X146187828Y-106145363D01*
X146191690Y-106088606D01*
X146191542Y-106079160D01*
X146182286Y-106012158D01*
X146161702Y-105962189D01*
X146150458Y-105945417D01*
X146142974Y-105922894D01*
X146155721Y-105901161D01*
X146192522Y-105868611D01*
X146209692Y-105855076D01*
X146247875Y-105830745D01*
X146271536Y-105823915D01*
X146275563Y-105826122D01*
X146298406Y-105850552D01*
X146325681Y-105891154D01*
X146329616Y-105898090D01*
X146348765Y-105945340D01*
X146358748Y-106005335D01*
X146361619Y-106089409D01*
X146361602Y-106100823D01*
X146359630Y-106170865D01*
X146352142Y-106219591D01*
X146335944Y-106259741D01*
X146307847Y-106304057D01*
X146265212Y-106354557D01*
X146175215Y-106421048D01*
X146067821Y-106464115D01*
X145950340Y-106482127D01*
X145830081Y-106473453D01*
X145714355Y-106436463D01*
X145701939Y-106430381D01*
X145613503Y-106366363D01*
X145547923Y-106280144D01*
X145511348Y-106179508D01*
X145505263Y-106132525D01*
X145513393Y-106010759D01*
X145553973Y-105889718D01*
X145592464Y-105809225D01*
X145793697Y-105804167D01*
X145994929Y-105799110D01*
X145994929Y-106122253D01*
G37*
G36*
X147843440Y-105074901D02*
G01*
X147908860Y-105124799D01*
X147852967Y-105188458D01*
X147792950Y-105271519D01*
X147754267Y-105370904D01*
X147742066Y-105487253D01*
X147745774Y-105546390D01*
X147777505Y-105659809D01*
X147839999Y-105758357D01*
X147931227Y-105839972D01*
X148049161Y-105902592D01*
X148191772Y-105944158D01*
X148237219Y-105951577D01*
X148375613Y-105956680D01*
X148510535Y-105937539D01*
X148635963Y-105896532D01*
X148745877Y-105836041D01*
X148834256Y-105758446D01*
X148895079Y-105666126D01*
X148903112Y-105647028D01*
X148928173Y-105536007D01*
X148922980Y-105418147D01*
X148888734Y-105301711D01*
X148826637Y-105194965D01*
X148779592Y-105133286D01*
X148840606Y-105083395D01*
X148901619Y-105033505D01*
X148942254Y-105071573D01*
X148968504Y-105099759D01*
X149023787Y-105189510D01*
X149062920Y-105299675D01*
X149084022Y-105421176D01*
X149085211Y-105544939D01*
X149064607Y-105661886D01*
X149043211Y-105721452D01*
X148974505Y-105839666D01*
X148878047Y-105943183D01*
X148758699Y-106027336D01*
X148621322Y-106087457D01*
X148572227Y-106102136D01*
X148517168Y-106114109D01*
X148458222Y-106120256D01*
X148384799Y-106121578D01*
X148286304Y-106119074D01*
X148228842Y-106116868D01*
X148152110Y-106112366D01*
X148094962Y-106105105D01*
X148047152Y-106092900D01*
X147998435Y-106073565D01*
X147938562Y-106044916D01*
X147914085Y-106032353D01*
X147786727Y-105947352D01*
X147689929Y-105844215D01*
X147623117Y-105722354D01*
X147609223Y-105683296D01*
X147596377Y-105626460D01*
X147591302Y-105559347D01*
X147592471Y-105469366D01*
X147597802Y-105393357D01*
X147620903Y-105278048D01*
X147665217Y-105176686D01*
X147735114Y-105077255D01*
X147778021Y-105025004D01*
X147843440Y-105074901D01*
G37*
G36*
X148212913Y-103931730D02*
G01*
X148281447Y-103934806D01*
X148333211Y-103942754D01*
X148379459Y-103957571D01*
X148431441Y-103981250D01*
X148502642Y-104023770D01*
X148586770Y-104095254D01*
X148652960Y-104176489D01*
X148692767Y-104258516D01*
X148694979Y-104266101D01*
X148714673Y-104394328D01*
X148701792Y-104518375D01*
X148657673Y-104632458D01*
X148583652Y-104730789D01*
X148523902Y-104781968D01*
X148412367Y-104845186D01*
X148289083Y-104883282D01*
X148159925Y-104896927D01*
X148150352Y-104896176D01*
X148030767Y-104886794D01*
X147907485Y-104853555D01*
X147795953Y-104797881D01*
X147702046Y-104720444D01*
X147631639Y-104621916D01*
X147598894Y-104528757D01*
X147586014Y-104419503D01*
X147588426Y-104387280D01*
X147731318Y-104387280D01*
X147737660Y-104469936D01*
X147763461Y-104539225D01*
X147819769Y-104611330D01*
X147907655Y-104676314D01*
X148017128Y-104714535D01*
X148150352Y-104727042D01*
X148169738Y-104726761D01*
X148291015Y-104711022D01*
X148394174Y-104673605D01*
X148476277Y-104617920D01*
X148534384Y-104547373D01*
X148565555Y-104465375D01*
X148566852Y-104375332D01*
X148535334Y-104280653D01*
X148495933Y-104221522D01*
X148416041Y-104154669D01*
X148307199Y-104107789D01*
X148233691Y-104091365D01*
X148115544Y-104086274D01*
X148001644Y-104104928D01*
X147899068Y-104145101D01*
X147814891Y-104204567D01*
X147756188Y-104281101D01*
X147744914Y-104308211D01*
X147731318Y-104387280D01*
X147588426Y-104387280D01*
X147594197Y-104310188D01*
X147623721Y-104215094D01*
X147637762Y-104189198D01*
X147703433Y-104104359D01*
X147790671Y-104027875D01*
X147888796Y-103969636D01*
X147935281Y-103951538D01*
X147988845Y-103939469D01*
X148057028Y-103933271D01*
X148150352Y-103931405D01*
X148212913Y-103931730D01*
G37*
G36*
X148208871Y-89880759D02*
G01*
X148344751Y-89897424D01*
X148463556Y-89938468D01*
X148562614Y-90000407D01*
X148639254Y-90079760D01*
X148690805Y-90173044D01*
X148714596Y-90276776D01*
X148707954Y-90387472D01*
X148668210Y-90501651D01*
X148664527Y-90508870D01*
X148593559Y-90606889D01*
X148494975Y-90682955D01*
X148369852Y-90736435D01*
X148219262Y-90766694D01*
X148212957Y-90767037D01*
X148141473Y-90770923D01*
X148004640Y-90756294D01*
X147877636Y-90715384D01*
X147766127Y-90651024D01*
X147675783Y-90566049D01*
X147612273Y-90463291D01*
X147601957Y-90430479D01*
X147591187Y-90356199D01*
X147588446Y-90268944D01*
X147593911Y-90182399D01*
X147607755Y-90110250D01*
X147613762Y-90093238D01*
X147644869Y-90031963D01*
X147684702Y-89975756D01*
X147713347Y-89943417D01*
X147737609Y-89923786D01*
X147759021Y-89924697D01*
X147789059Y-89942490D01*
X147820518Y-89965896D01*
X147834013Y-89990485D01*
X147823662Y-90022209D01*
X147789498Y-90070864D01*
X147763712Y-90116042D01*
X147738380Y-90198511D01*
X147728598Y-90288739D01*
X147737055Y-90371310D01*
X147763934Y-90433016D01*
X147827598Y-90502147D01*
X147922716Y-90559998D01*
X148047500Y-90605220D01*
X148087746Y-90616354D01*
X148087746Y-90036977D01*
X148212957Y-90036977D01*
X148212957Y-90613049D01*
X148271091Y-90602212D01*
X148334916Y-90585994D01*
X148431394Y-90541370D01*
X148505822Y-90479465D01*
X148553727Y-90404483D01*
X148570637Y-90320629D01*
X148568061Y-90284531D01*
X148539029Y-90200210D01*
X148480254Y-90130775D01*
X148394904Y-90079256D01*
X148286148Y-90048680D01*
X148212957Y-90036977D01*
X148087746Y-90036977D01*
X148087746Y-89880563D01*
X148191823Y-89880563D01*
X148208871Y-89880759D01*
G37*
G36*
X148163767Y-90936195D02*
G01*
X148228358Y-90939450D01*
X148358369Y-90964034D01*
X148477442Y-91009870D01*
X148577882Y-91073564D01*
X148651997Y-91151717D01*
X148694527Y-91241204D01*
X148713806Y-91346143D01*
X148708840Y-91453749D01*
X148678787Y-91551459D01*
X148659377Y-91587599D01*
X148581497Y-91684685D01*
X148478036Y-91756843D01*
X148349126Y-91803997D01*
X148212957Y-91823489D01*
X148194899Y-91826074D01*
X148072332Y-91825687D01*
X147928999Y-91801186D01*
X147808527Y-91749363D01*
X147711089Y-91670298D01*
X147636856Y-91564074D01*
X147614929Y-91513733D01*
X147589864Y-91403787D01*
X147588377Y-91288147D01*
X147609248Y-91175862D01*
X147651258Y-91075980D01*
X147713189Y-90997546D01*
X147721069Y-90990505D01*
X147743619Y-90975903D01*
X147764393Y-90982398D01*
X147796671Y-91012343D01*
X147799571Y-91015252D01*
X147827566Y-91046923D01*
X147832038Y-91068254D01*
X147816036Y-91091750D01*
X147806513Y-91103142D01*
X147755234Y-91193374D01*
X147731305Y-91295280D01*
X147735865Y-91398884D01*
X147770054Y-91494213D01*
X147777666Y-91506783D01*
X147840366Y-91575614D01*
X147925126Y-91629525D01*
X148020669Y-91661010D01*
X148087746Y-91673277D01*
X148087746Y-91095280D01*
X148212957Y-91095280D01*
X148212957Y-91673277D01*
X148279203Y-91660849D01*
X148345912Y-91642484D01*
X148440455Y-91596969D01*
X148515559Y-91537019D01*
X148525091Y-91525936D01*
X148553203Y-91472026D01*
X148566662Y-91395825D01*
X148568335Y-91372971D01*
X148567612Y-91320796D01*
X148554802Y-91282721D01*
X148525648Y-91242861D01*
X148482423Y-91200278D01*
X148388700Y-91141896D01*
X148280035Y-91107453D01*
X148212957Y-91095280D01*
X148087746Y-91095280D01*
X148087746Y-90935915D01*
X148163767Y-90936195D01*
G37*
G36*
X148579611Y-112947022D02*
G01*
X148606429Y-112979379D01*
X148640456Y-113026612D01*
X148667165Y-113068425D01*
X148689992Y-113117582D01*
X148702699Y-113173112D01*
X148709856Y-113249711D01*
X148712919Y-113322993D01*
X148709051Y-113377296D01*
X148695577Y-113425576D01*
X148669947Y-113482725D01*
X148664284Y-113493895D01*
X148591002Y-113596068D01*
X148490818Y-113677830D01*
X148368251Y-113735396D01*
X148361028Y-113737729D01*
X148256475Y-113759023D01*
X148136578Y-113765744D01*
X148017340Y-113757892D01*
X147914766Y-113735463D01*
X147859908Y-113712294D01*
X147765345Y-113651333D01*
X147683028Y-113573093D01*
X147624669Y-113487581D01*
X147617495Y-113472066D01*
X147589562Y-113370552D01*
X147585549Y-113260009D01*
X147603952Y-113150437D01*
X147643264Y-113051839D01*
X147701979Y-112974216D01*
X147705865Y-112970571D01*
X147735448Y-112946448D01*
X147758045Y-112945659D01*
X147790695Y-112966775D01*
X147791782Y-112967570D01*
X147823359Y-112994310D01*
X147836761Y-113012724D01*
X147832283Y-113025373D01*
X147813031Y-113061561D01*
X147783662Y-113110134D01*
X147755376Y-113164062D01*
X147731797Y-113260948D01*
X147741034Y-113354905D01*
X147781377Y-113441150D01*
X147851117Y-113514900D01*
X147948545Y-113571375D01*
X147985367Y-113583018D01*
X148069647Y-113595617D01*
X148166231Y-113597924D01*
X148261075Y-113589931D01*
X148340138Y-113571629D01*
X148373735Y-113558178D01*
X148463734Y-113501432D01*
X148526664Y-113427662D01*
X148561054Y-113342219D01*
X148565432Y-113250454D01*
X148538327Y-113157717D01*
X148478268Y-113069360D01*
X148465967Y-113055566D01*
X148454702Y-113034997D01*
X148464926Y-113015230D01*
X148499620Y-112984395D01*
X148512154Y-112974095D01*
X148547538Y-112947855D01*
X148567604Y-112937358D01*
X148579611Y-112947022D01*
G37*
G36*
X148208485Y-98204494D02*
G01*
X148236851Y-98207468D01*
X148377726Y-98233256D01*
X148491422Y-98276199D01*
X148582646Y-98338590D01*
X148656107Y-98422726D01*
X148661270Y-98430291D01*
X148684326Y-98469573D01*
X148697504Y-98509426D01*
X148703463Y-98561567D01*
X148704859Y-98637714D01*
X148704834Y-98651412D01*
X148702850Y-98723510D01*
X148695751Y-98773773D01*
X148680816Y-98814245D01*
X148655324Y-98856972D01*
X148644163Y-98873150D01*
X148554397Y-98968140D01*
X148441229Y-99036808D01*
X148306076Y-99078493D01*
X148212957Y-99086890D01*
X148150352Y-99092535D01*
X148075666Y-99089604D01*
X147931013Y-99063497D01*
X147809178Y-99010666D01*
X147710884Y-98931484D01*
X147636856Y-98826327D01*
X147614929Y-98775987D01*
X147589864Y-98666040D01*
X147588377Y-98550401D01*
X147609248Y-98438116D01*
X147651258Y-98338233D01*
X147713189Y-98259800D01*
X147718871Y-98254694D01*
X147742481Y-98238297D01*
X147763018Y-98243455D01*
X147794387Y-98272313D01*
X147839529Y-98317455D01*
X147783761Y-98407167D01*
X147755915Y-98460361D01*
X147728847Y-98562456D01*
X147733485Y-98661631D01*
X147767408Y-98752608D01*
X147828193Y-98830109D01*
X147913421Y-98888856D01*
X148020669Y-98923571D01*
X148087746Y-98935530D01*
X148087746Y-98357534D01*
X148212957Y-98357534D01*
X148212957Y-98935530D01*
X148279203Y-98923103D01*
X148350647Y-98903216D01*
X148447818Y-98854107D01*
X148523735Y-98787862D01*
X148542759Y-98762683D01*
X148564721Y-98712068D01*
X148570704Y-98645352D01*
X148569311Y-98608584D01*
X148556029Y-98552263D01*
X148523735Y-98502841D01*
X148477981Y-98458650D01*
X148385994Y-98402928D01*
X148280035Y-98369706D01*
X148212957Y-98357534D01*
X148087746Y-98357534D01*
X148087746Y-98193031D01*
X148208485Y-98204494D01*
G37*
G36*
X148050480Y-102261929D02*
G01*
X148496171Y-102267535D01*
X148571833Y-102321197D01*
X148587064Y-102332429D01*
X148659588Y-102405656D01*
X148700693Y-102492261D01*
X148713410Y-102598171D01*
X148698927Y-102710725D01*
X148657392Y-102810381D01*
X148591740Y-102888197D01*
X148536136Y-102934984D01*
X148595621Y-102980355D01*
X148654676Y-103040316D01*
X148698960Y-103131169D01*
X148713802Y-103241801D01*
X148710818Y-103303892D01*
X148696288Y-103362485D01*
X148664462Y-103416678D01*
X148609677Y-103479401D01*
X148545556Y-103546479D01*
X148695915Y-103546479D01*
X148695915Y-103689577D01*
X147604788Y-103689577D01*
X147604788Y-103550037D01*
X147984894Y-103543302D01*
X148118035Y-103540534D01*
X148225320Y-103536711D01*
X148307078Y-103530830D01*
X148368513Y-103521804D01*
X148414832Y-103508546D01*
X148451238Y-103489966D01*
X148482939Y-103464978D01*
X148515140Y-103432494D01*
X148547231Y-103382103D01*
X148566412Y-103298650D01*
X148568997Y-103265801D01*
X148566283Y-103221907D01*
X148549042Y-103185922D01*
X148511587Y-103141552D01*
X148448305Y-103072464D01*
X148026546Y-103067074D01*
X147604788Y-103061683D01*
X147604788Y-102905609D01*
X147984894Y-102899524D01*
X148071376Y-102897999D01*
X148181843Y-102895266D01*
X148265134Y-102891730D01*
X148326512Y-102886928D01*
X148371240Y-102880398D01*
X148404580Y-102871679D01*
X148431795Y-102860308D01*
X148433765Y-102859319D01*
X148501006Y-102808760D01*
X148547156Y-102740936D01*
X148569643Y-102664461D01*
X148565898Y-102587948D01*
X148533350Y-102520012D01*
X148529692Y-102515393D01*
X148503546Y-102485475D01*
X148475642Y-102462511D01*
X148441120Y-102445585D01*
X148395123Y-102433786D01*
X148332791Y-102426199D01*
X148249266Y-102421911D01*
X148139687Y-102420008D01*
X147999198Y-102419577D01*
X147604788Y-102419577D01*
X147604788Y-102256324D01*
X148050480Y-102261929D01*
G37*
G36*
X151363997Y-105009226D02*
G01*
X151520906Y-105042602D01*
X151667631Y-105103070D01*
X151800848Y-105188507D01*
X151917231Y-105296788D01*
X152013453Y-105425786D01*
X152086190Y-105573376D01*
X152132115Y-105737435D01*
X152147904Y-105915835D01*
X152145953Y-105979460D01*
X152119162Y-106160526D01*
X152062890Y-106325707D01*
X151979613Y-106472463D01*
X151871809Y-106598258D01*
X151741955Y-106700553D01*
X151592527Y-106776810D01*
X151426003Y-106824492D01*
X151253802Y-106840243D01*
X151244859Y-106841061D01*
X151129972Y-106834266D01*
X150959885Y-106797044D01*
X150804401Y-106729505D01*
X150666757Y-106634069D01*
X150550189Y-106513154D01*
X150457935Y-106369180D01*
X150393231Y-106204566D01*
X150385769Y-106175191D01*
X150368576Y-106064985D01*
X150361455Y-105940183D01*
X150362617Y-105897460D01*
X150723705Y-105897460D01*
X150726496Y-106015523D01*
X150749582Y-106114560D01*
X150796890Y-106201674D01*
X150872222Y-106286828D01*
X150892831Y-106305859D01*
X150997537Y-106377939D01*
X151116059Y-106419904D01*
X151253802Y-106433837D01*
X151322185Y-106431136D01*
X151446986Y-106405753D01*
X151555565Y-106351475D01*
X151654270Y-106265636D01*
X151719371Y-106179499D01*
X151769966Y-106063669D01*
X151789008Y-105941158D01*
X151776476Y-105817592D01*
X151732352Y-105698598D01*
X151656617Y-105589800D01*
X151603975Y-105537393D01*
X151503436Y-105468688D01*
X151388818Y-105429218D01*
X151253802Y-105416260D01*
X151215303Y-105417028D01*
X151075511Y-105438374D01*
X150956334Y-105488879D01*
X150857929Y-105568458D01*
X150780451Y-105677025D01*
X150750830Y-105739968D01*
X150731954Y-105810151D01*
X150723705Y-105897460D01*
X150362617Y-105897460D01*
X150364835Y-105815901D01*
X150379143Y-105707253D01*
X150420225Y-105572752D01*
X150496677Y-105424911D01*
X150599273Y-105291564D01*
X150722891Y-105179207D01*
X150862409Y-105094337D01*
X150865427Y-105092915D01*
X151032932Y-105032258D01*
X151200230Y-105005070D01*
X151363997Y-105009226D01*
G37*
G36*
X148361668Y-101059862D02*
G01*
X148479511Y-101105643D01*
X148576992Y-101171636D01*
X148650766Y-101255754D01*
X148697486Y-101355911D01*
X148713802Y-101470021D01*
X148713798Y-101472180D01*
X148700678Y-101577033D01*
X148659612Y-101666253D01*
X148586701Y-101748382D01*
X148516939Y-101811408D01*
X148695915Y-101811408D01*
X148695915Y-101972394D01*
X148151111Y-101972394D01*
X147280760Y-101972394D01*
X147291760Y-101820352D01*
X147533239Y-101811408D01*
X147595241Y-101808984D01*
X147671977Y-101805138D01*
X147719845Y-101800900D01*
X147743147Y-101795571D01*
X147746188Y-101788449D01*
X147733271Y-101778833D01*
X147715111Y-101765018D01*
X147676922Y-101724135D01*
X147639362Y-101672479D01*
X147629802Y-101657041D01*
X147602882Y-101603369D01*
X147590125Y-101548886D01*
X147589679Y-101538835D01*
X147734075Y-101538835D01*
X147761141Y-101627992D01*
X147813453Y-101707356D01*
X147838002Y-101730531D01*
X147920032Y-101777895D01*
X148026204Y-101808041D01*
X148150352Y-101818925D01*
X148151111Y-101818928D01*
X148229105Y-101817494D01*
X148285434Y-101810404D01*
X148333998Y-101794641D01*
X148388698Y-101767189D01*
X148402139Y-101759486D01*
X148484519Y-101694460D01*
X148540540Y-101616523D01*
X148568201Y-101531391D01*
X148565501Y-101444778D01*
X148530439Y-101362398D01*
X148514302Y-101342017D01*
X148460322Y-101294244D01*
X148393076Y-101252429D01*
X148357035Y-101235202D01*
X148300585Y-101215284D01*
X148239509Y-101205710D01*
X148158337Y-101203239D01*
X148142700Y-101203348D01*
X148006251Y-101215984D01*
X147897232Y-101250108D01*
X147814055Y-101306439D01*
X147755131Y-101385696D01*
X147734101Y-101450075D01*
X147734075Y-101538835D01*
X147589679Y-101538835D01*
X147586901Y-101476278D01*
X147590447Y-101416581D01*
X147620789Y-101303053D01*
X147681088Y-101207666D01*
X147770050Y-101131686D01*
X147886384Y-101076379D01*
X148028801Y-101043011D01*
X148078292Y-101037284D01*
X148226813Y-101036381D01*
X148361668Y-101059862D01*
G37*
G36*
X148225901Y-113944299D02*
G01*
X148348062Y-113963972D01*
X148470894Y-114007571D01*
X148573931Y-114070914D01*
X148650444Y-114150731D01*
X148663664Y-114170012D01*
X148685941Y-114208818D01*
X148698341Y-114248208D01*
X148703702Y-114299905D01*
X148704859Y-114375628D01*
X148704818Y-114393379D01*
X148702751Y-114464952D01*
X148695687Y-114514838D01*
X148681046Y-114554755D01*
X148656247Y-114596422D01*
X148601227Y-114664029D01*
X148506183Y-114738899D01*
X148394670Y-114791813D01*
X148272415Y-114822956D01*
X148212957Y-114827423D01*
X148145145Y-114832517D01*
X148018585Y-114820681D01*
X147898463Y-114787635D01*
X147790506Y-114733566D01*
X147700439Y-114658660D01*
X147633990Y-114563105D01*
X147614434Y-114516674D01*
X147589860Y-114406403D01*
X147588724Y-114290603D01*
X147609751Y-114178335D01*
X147651665Y-114078662D01*
X147713189Y-114000645D01*
X147721069Y-113993603D01*
X147743619Y-113979002D01*
X147764393Y-113985497D01*
X147796671Y-114015441D01*
X147799571Y-114018350D01*
X147827566Y-114050022D01*
X147832038Y-114071353D01*
X147816036Y-114094849D01*
X147793717Y-114123984D01*
X147752600Y-114206151D01*
X147729901Y-114297291D01*
X147727763Y-114385836D01*
X147748332Y-114460215D01*
X147798039Y-114532121D01*
X147878027Y-114602006D01*
X147969765Y-114646053D01*
X148002638Y-114655523D01*
X148048776Y-114667650D01*
X148073105Y-114672394D01*
X148074370Y-114671018D01*
X148078628Y-114644960D01*
X148082304Y-114589871D01*
X148085188Y-114511022D01*
X148087072Y-114413682D01*
X148087746Y-114303122D01*
X148087746Y-114096018D01*
X148212957Y-114096018D01*
X148212957Y-114675236D01*
X148271091Y-114663455D01*
X148330731Y-114647860D01*
X148429826Y-114602549D01*
X148505476Y-114540149D01*
X148553729Y-114464410D01*
X148570637Y-114379080D01*
X148568249Y-114344697D01*
X148539535Y-114261534D01*
X148480280Y-114192844D01*
X148392955Y-114140934D01*
X148280035Y-114108109D01*
X148212957Y-114096018D01*
X148087746Y-114096018D01*
X148087746Y-113933850D01*
X148225901Y-113944299D01*
G37*
G36*
X148142188Y-109092444D02*
G01*
X148264605Y-109095727D01*
X148360795Y-109102360D01*
X148435478Y-109113305D01*
X148493377Y-109129525D01*
X148539213Y-109151984D01*
X148577709Y-109181643D01*
X148613587Y-109219465D01*
X148665296Y-109301401D01*
X148699596Y-109411285D01*
X148709515Y-109534726D01*
X148694553Y-109664651D01*
X148654209Y-109793988D01*
X148625889Y-109861428D01*
X148566993Y-109836935D01*
X148558695Y-109833461D01*
X148531308Y-109819603D01*
X148517054Y-109801941D01*
X148514971Y-109772788D01*
X148524094Y-109724457D01*
X148543459Y-109649262D01*
X148545299Y-109642186D01*
X148563389Y-109524935D01*
X148552513Y-109427669D01*
X148512555Y-109349274D01*
X148463955Y-109304827D01*
X148385871Y-109266734D01*
X148300882Y-109252535D01*
X148269423Y-109254094D01*
X148252469Y-109264925D01*
X148256229Y-109292781D01*
X148263439Y-109329553D01*
X148271508Y-109389583D01*
X148278514Y-109459128D01*
X148281580Y-109528467D01*
X148268286Y-109657824D01*
X148227990Y-109764310D01*
X148160506Y-109848539D01*
X148150053Y-109857596D01*
X148060811Y-109910547D01*
X147962325Y-109933663D01*
X147957281Y-109933390D01*
X147861803Y-109928216D01*
X147766451Y-109895478D01*
X147683477Y-109836719D01*
X147620087Y-109753211D01*
X147596072Y-109683412D01*
X147586901Y-109578369D01*
X147586928Y-109571846D01*
X147592734Y-109515040D01*
X147717952Y-109515040D01*
X147719443Y-109586597D01*
X147745212Y-109668531D01*
X147795569Y-109728050D01*
X147867322Y-109761800D01*
X147957281Y-109766431D01*
X147988467Y-109761145D01*
X148065389Y-109727150D01*
X148119649Y-109666808D01*
X148150593Y-109581635D01*
X148157570Y-109473145D01*
X148139926Y-109342852D01*
X148120556Y-109252535D01*
X148017360Y-109252535D01*
X147917980Y-109265191D01*
X147832514Y-109307084D01*
X147760449Y-109380885D01*
X147752120Y-109394104D01*
X147730114Y-109450329D01*
X147717952Y-109515040D01*
X147592734Y-109515040D01*
X147597623Y-109467205D01*
X147630718Y-109381124D01*
X147690670Y-109301725D01*
X147736693Y-109252535D01*
X147604788Y-109252535D01*
X147604788Y-109091549D01*
X147988820Y-109091549D01*
X148142188Y-109092444D01*
G37*
G36*
X150390739Y-114712228D02*
G01*
X150708239Y-114717112D01*
X150713337Y-114900457D01*
X150718434Y-115083802D01*
X151790422Y-115083802D01*
X151790422Y-114708169D01*
X152434366Y-114708169D01*
X152434366Y-116353802D01*
X151790422Y-116353802D01*
X151790422Y-115996056D01*
X150717183Y-115996056D01*
X150717183Y-116353802D01*
X150162676Y-116353802D01*
X150073239Y-116353802D01*
X150073239Y-114815493D01*
X150162676Y-114815493D01*
X150162676Y-116264366D01*
X150609859Y-116264366D01*
X150609859Y-116104394D01*
X150610133Y-116052240D01*
X150612475Y-115992870D01*
X150618679Y-115955936D01*
X150630480Y-115933238D01*
X150649613Y-115916577D01*
X150651652Y-115915217D01*
X150668363Y-115907596D01*
X150694387Y-115901553D01*
X150733504Y-115896914D01*
X150789493Y-115893507D01*
X150866136Y-115891158D01*
X150967212Y-115889695D01*
X151096501Y-115888944D01*
X151257782Y-115888732D01*
X151263512Y-115888732D01*
X151430808Y-115888560D01*
X151565876Y-115888890D01*
X151672149Y-115890920D01*
X151753062Y-115895850D01*
X151812048Y-115904879D01*
X151852539Y-115919208D01*
X151877969Y-115940036D01*
X151891771Y-115968562D01*
X151897380Y-116005985D01*
X151898227Y-116053506D01*
X151897746Y-116112324D01*
X151897746Y-116264366D01*
X152344929Y-116264366D01*
X152344929Y-114815493D01*
X151897746Y-114815493D01*
X151897746Y-114964763D01*
X151897771Y-114973890D01*
X151898368Y-115026746D01*
X151897278Y-115069369D01*
X151891092Y-115102854D01*
X151876402Y-115128297D01*
X151849801Y-115146793D01*
X151807879Y-115159439D01*
X151747231Y-115167328D01*
X151664446Y-115171557D01*
X151556118Y-115173222D01*
X151418839Y-115173417D01*
X151249200Y-115173239D01*
X151171915Y-115173205D01*
X151024339Y-115172826D01*
X150907208Y-115171891D01*
X150816848Y-115170230D01*
X150749582Y-115167675D01*
X150701736Y-115164056D01*
X150669635Y-115159205D01*
X150649604Y-115152953D01*
X150637967Y-115145130D01*
X150631064Y-115136591D01*
X150618562Y-115103923D01*
X150611854Y-115049441D01*
X150609859Y-114966257D01*
X150609859Y-114815493D01*
X150162676Y-114815493D01*
X150073239Y-114815493D01*
X150073239Y-114707343D01*
X150390739Y-114712228D01*
G37*
G36*
X150894919Y-102562683D02*
G01*
X151007908Y-102572578D01*
X151105156Y-102602925D01*
X151189033Y-102656273D01*
X151261910Y-102735170D01*
X151326155Y-102842164D01*
X151384141Y-102979804D01*
X151438236Y-103150637D01*
X151439603Y-103155478D01*
X151466253Y-103243699D01*
X151493151Y-103322656D01*
X151517231Y-103383892D01*
X151535430Y-103418947D01*
X151579069Y-103455169D01*
X151637866Y-103472974D01*
X151697139Y-103468828D01*
X151743746Y-103441318D01*
X151781440Y-103375684D01*
X151796610Y-103286999D01*
X151787919Y-103182096D01*
X151755794Y-103065889D01*
X151700660Y-102943296D01*
X151631473Y-102814127D01*
X151775816Y-102712406D01*
X151920159Y-102610684D01*
X151953822Y-102653758D01*
X152003232Y-102730538D01*
X152051591Y-102829101D01*
X152092889Y-102935717D01*
X152121142Y-103036690D01*
X152127146Y-103067187D01*
X152144246Y-103230844D01*
X152135011Y-103382270D01*
X152101201Y-103518510D01*
X152044580Y-103636606D01*
X151966910Y-103733604D01*
X151869953Y-103806548D01*
X151755471Y-103852482D01*
X151625227Y-103868450D01*
X151518249Y-103860955D01*
X151416417Y-103833564D01*
X151329719Y-103783575D01*
X151255637Y-103708372D01*
X151191657Y-103605338D01*
X151135263Y-103471854D01*
X151083938Y-103305305D01*
X151053196Y-103197930D01*
X151019513Y-103100644D01*
X150986395Y-103031676D01*
X150951443Y-102987178D01*
X150912262Y-102963301D01*
X150866453Y-102956197D01*
X150829405Y-102960665D01*
X150773376Y-102990844D01*
X150734073Y-103045496D01*
X150711580Y-103119927D01*
X150705985Y-103209445D01*
X150717371Y-103309354D01*
X150745825Y-103414962D01*
X150791432Y-103521574D01*
X150854277Y-103624497D01*
X150881066Y-103665412D01*
X150900366Y-103704269D01*
X150902006Y-103724024D01*
X150899938Y-103725744D01*
X150875311Y-103746304D01*
X150832649Y-103781968D01*
X150779788Y-103826186D01*
X150769569Y-103834712D01*
X150716588Y-103878123D01*
X150674038Y-103911748D01*
X150650339Y-103928905D01*
X150643300Y-103930732D01*
X150615879Y-103915559D01*
X150580788Y-103874031D01*
X150540911Y-103811755D01*
X150499134Y-103734343D01*
X150458344Y-103647401D01*
X150421426Y-103556540D01*
X150391266Y-103467367D01*
X150370750Y-103385493D01*
X150367111Y-103361578D01*
X150362769Y-103275496D01*
X150366367Y-103172673D01*
X150376770Y-103066199D01*
X150392838Y-102969161D01*
X150413433Y-102894649D01*
X150454867Y-102808835D01*
X150535789Y-102705393D01*
X150638238Y-102627996D01*
X150758129Y-102579478D01*
X150891382Y-102562676D01*
X150894919Y-102562683D01*
G37*
G36*
X148695915Y-93780000D02*
G01*
X148528138Y-93780000D01*
X148586630Y-93837187D01*
X148614562Y-93866885D01*
X148678276Y-93964203D01*
X148710689Y-94067720D01*
X148713456Y-94172642D01*
X148688231Y-94274175D01*
X148636669Y-94367524D01*
X148560423Y-94447896D01*
X148461148Y-94510495D01*
X148340498Y-94550528D01*
X148284620Y-94559252D01*
X148161316Y-94562194D01*
X148156501Y-94561545D01*
X148040223Y-94545871D01*
X147936127Y-94511700D01*
X147833153Y-94447609D01*
X147753284Y-94364159D01*
X147700995Y-94268043D01*
X147677436Y-94164400D01*
X147679775Y-94125132D01*
X147825990Y-94125132D01*
X147843389Y-94200684D01*
X147888385Y-94269981D01*
X147963031Y-94332587D01*
X148054758Y-94374866D01*
X148156501Y-94396203D01*
X148261194Y-94395982D01*
X148361774Y-94373587D01*
X148451174Y-94328405D01*
X148522330Y-94259818D01*
X148545622Y-94218008D01*
X148565729Y-94135148D01*
X148563221Y-94045817D01*
X148537401Y-93963718D01*
X148528429Y-93947003D01*
X148467199Y-93867088D01*
X148387501Y-93814113D01*
X148286204Y-93786580D01*
X148160177Y-93782988D01*
X148121200Y-93786331D01*
X148020580Y-93810441D01*
X147940563Y-93858600D01*
X147873781Y-93934711D01*
X147859490Y-93958717D01*
X147831939Y-94039379D01*
X147825990Y-94125132D01*
X147679775Y-94125132D01*
X147683752Y-94058368D01*
X147721090Y-93955089D01*
X147790598Y-93859701D01*
X147866966Y-93780000D01*
X147762134Y-93780000D01*
X147754630Y-93780039D01*
X147640781Y-93793205D01*
X147552252Y-93830771D01*
X147487194Y-93893922D01*
X147443758Y-93983840D01*
X147431651Y-94042403D01*
X147430819Y-94145197D01*
X147449324Y-94255375D01*
X147485759Y-94360332D01*
X147531299Y-94459803D01*
X147479495Y-94486591D01*
X147477741Y-94487494D01*
X147437542Y-94505807D01*
X147411974Y-94513380D01*
X147410420Y-94513121D01*
X147392705Y-94494041D01*
X147368731Y-94451215D01*
X147342698Y-94393807D01*
X147318809Y-94330981D01*
X147301265Y-94271901D01*
X147300841Y-94270080D01*
X147293358Y-94214833D01*
X147289719Y-94140259D01*
X147290708Y-94061955D01*
X147293673Y-94020064D01*
X147318459Y-93891757D01*
X147365995Y-93790304D01*
X147436654Y-93714812D01*
X147452611Y-93702844D01*
X147486898Y-93679604D01*
X147522242Y-93661191D01*
X147562983Y-93647036D01*
X147613459Y-93636574D01*
X147678011Y-93629237D01*
X147760978Y-93624458D01*
X147866700Y-93621670D01*
X147999517Y-93620306D01*
X148163767Y-93619799D01*
X148695915Y-93619014D01*
X148695915Y-93780000D01*
G37*
G36*
X148695915Y-86660845D02*
G01*
X148526956Y-86660845D01*
X148582961Y-86711997D01*
X148627031Y-86758759D01*
X148684403Y-86854697D01*
X148711773Y-86958554D01*
X148710294Y-87064808D01*
X148681114Y-87167935D01*
X148625385Y-87262415D01*
X148544258Y-87342726D01*
X148438883Y-87403346D01*
X148383757Y-87421633D01*
X148270991Y-87439994D01*
X148246414Y-87440107D01*
X148149715Y-87440550D01*
X148034627Y-87422600D01*
X147918306Y-87380065D01*
X147815627Y-87312662D01*
X147739899Y-87226463D01*
X147693218Y-87124770D01*
X147677681Y-87010888D01*
X147688558Y-86935457D01*
X147826390Y-86935457D01*
X147826458Y-87026974D01*
X147861596Y-87112092D01*
X147932023Y-87191834D01*
X147944726Y-87202297D01*
X148032188Y-87249819D01*
X148136050Y-87274681D01*
X148246414Y-87276536D01*
X148353379Y-87255038D01*
X148447044Y-87209841D01*
X148480919Y-87182634D01*
X148537605Y-87107183D01*
X148565785Y-87018348D01*
X148563774Y-86923824D01*
X148529891Y-86831303D01*
X148467195Y-86752800D01*
X148384470Y-86696728D01*
X148289015Y-86663915D01*
X148187589Y-86654230D01*
X148086953Y-86667544D01*
X147993866Y-86703727D01*
X147915087Y-86762651D01*
X147857378Y-86844185D01*
X147826390Y-86935457D01*
X147688558Y-86935457D01*
X147695384Y-86888117D01*
X147709906Y-86853226D01*
X147746256Y-86794758D01*
X147792411Y-86738654D01*
X147870591Y-86657061D01*
X147738597Y-86663727D01*
X147655069Y-86672038D01*
X147582977Y-86693157D01*
X147525488Y-86731705D01*
X147471739Y-86792945D01*
X147456024Y-86817873D01*
X147443007Y-86855840D01*
X147436587Y-86909405D01*
X147434873Y-86988600D01*
X147435798Y-87046832D01*
X147442102Y-87116161D01*
X147456896Y-87174784D01*
X147483093Y-87237753D01*
X147531299Y-87340648D01*
X147479495Y-87367436D01*
X147477741Y-87368339D01*
X147437542Y-87386652D01*
X147411974Y-87394225D01*
X147410420Y-87393966D01*
X147392705Y-87374887D01*
X147368731Y-87332060D01*
X147342698Y-87274652D01*
X147318809Y-87211826D01*
X147301265Y-87152746D01*
X147300841Y-87150925D01*
X147293358Y-87095679D01*
X147289719Y-87021104D01*
X147290708Y-86942801D01*
X147293673Y-86900909D01*
X147318459Y-86772602D01*
X147365995Y-86671149D01*
X147436654Y-86595657D01*
X147452611Y-86583689D01*
X147486898Y-86560449D01*
X147522242Y-86542036D01*
X147562983Y-86527881D01*
X147613459Y-86517419D01*
X147678011Y-86510082D01*
X147760978Y-86505303D01*
X147866700Y-86502515D01*
X147999517Y-86501151D01*
X148163767Y-86500644D01*
X148695915Y-86499859D01*
X148695915Y-86660845D01*
G37*
G36*
X147664452Y-106793772D02*
G01*
X147694265Y-106810169D01*
X147740404Y-106843528D01*
X147795980Y-106889071D01*
X147918235Y-106994555D01*
X148042379Y-106931969D01*
X148045945Y-106930176D01*
X148116541Y-106896054D01*
X148183604Y-106865847D01*
X148233059Y-106845909D01*
X148299595Y-106822433D01*
X148326224Y-106888224D01*
X148332423Y-106903728D01*
X148343565Y-106939261D01*
X148338077Y-106957587D01*
X148314208Y-106970722D01*
X148210648Y-107016010D01*
X148135868Y-107050046D01*
X148087071Y-107074272D01*
X148060650Y-107090480D01*
X148052996Y-107100462D01*
X148065331Y-107115726D01*
X148100294Y-107148832D01*
X148152359Y-107194525D01*
X148215994Y-107247806D01*
X148248574Y-107274292D01*
X148311732Y-107323328D01*
X148354115Y-107351543D01*
X148379679Y-107361341D01*
X148392377Y-107355130D01*
X148404338Y-107334956D01*
X148461157Y-107255206D01*
X148525940Y-107183140D01*
X148587682Y-107131365D01*
X148628540Y-107107763D01*
X148686969Y-107089143D01*
X148762221Y-107083491D01*
X148786146Y-107083733D01*
X148884158Y-107098486D01*
X148962850Y-107138484D01*
X149030378Y-107207497D01*
X149034079Y-107212386D01*
X149058796Y-107249816D01*
X149072810Y-107287314D01*
X149079062Y-107336767D01*
X149080493Y-107410059D01*
X149079359Y-107473626D01*
X149073376Y-107529457D01*
X149059836Y-107571467D01*
X149036081Y-107611730D01*
X149021032Y-107632109D01*
X148943788Y-107702857D01*
X148850739Y-107744353D01*
X148748968Y-107755640D01*
X148746741Y-107755887D01*
X148636649Y-107736752D01*
X148525318Y-107686238D01*
X148471928Y-107656734D01*
X148430513Y-107640189D01*
X148412751Y-107642521D01*
X148403544Y-107662185D01*
X148369469Y-107711672D01*
X148321083Y-107768604D01*
X148267165Y-107823028D01*
X148216498Y-107864988D01*
X148214305Y-107866523D01*
X148159057Y-107898945D01*
X148101091Y-107916948D01*
X148023995Y-107925710D01*
X148000486Y-107926353D01*
X147972788Y-107927111D01*
X147859423Y-107912433D01*
X147765161Y-107870288D01*
X147685400Y-107798952D01*
X147637596Y-107729631D01*
X147596678Y-107620711D01*
X147585741Y-107503070D01*
X147586309Y-107499399D01*
X147728582Y-107499399D01*
X147741840Y-107584783D01*
X147779827Y-107658614D01*
X147838375Y-107716091D01*
X147913317Y-107752412D01*
X148000486Y-107762775D01*
X148095717Y-107742378D01*
X148146874Y-107715265D01*
X148202169Y-107673948D01*
X148252185Y-107626801D01*
X148288426Y-107581852D01*
X148302394Y-107547127D01*
X148300351Y-107541999D01*
X148277806Y-107515101D01*
X148236611Y-107474542D01*
X148484186Y-107474542D01*
X148567692Y-107531412D01*
X148580821Y-107540158D01*
X148669176Y-107586364D01*
X148748968Y-107602473D01*
X148827004Y-107590026D01*
X148871017Y-107568834D01*
X148920128Y-107519363D01*
X148945720Y-107457031D01*
X148948018Y-107389989D01*
X148927246Y-107326390D01*
X148883630Y-107274385D01*
X148817395Y-107242128D01*
X148756127Y-107233590D01*
X148681219Y-107248582D01*
X148607073Y-107296118D01*
X148602049Y-107300489D01*
X148555201Y-107351901D01*
X148517717Y-107408817D01*
X148484186Y-107474542D01*
X148236611Y-107474542D01*
X148234283Y-107472250D01*
X148174716Y-107418161D01*
X148104036Y-107357546D01*
X147905677Y-107191861D01*
X147851975Y-107242867D01*
X147847022Y-107247708D01*
X147801409Y-107301899D01*
X147764136Y-107360238D01*
X147744217Y-107407265D01*
X147728582Y-107499399D01*
X147586309Y-107499399D01*
X147604399Y-107382396D01*
X147652268Y-107264373D01*
X147728964Y-107154686D01*
X147786296Y-107089389D01*
X147721886Y-107032836D01*
X147705280Y-107018373D01*
X147654641Y-106975334D01*
X147613057Y-106941343D01*
X147568637Y-106906403D01*
X147605433Y-106854728D01*
X147608956Y-106849836D01*
X147637675Y-106813482D01*
X147657977Y-106793321D01*
X147664452Y-106793772D01*
G37*
%TD*%
M02*
