%TF.GenerationSoftware,KiCad,Pcbnew,7.0.9*%
%TF.CreationDate,2024-03-05T03:29:11-06:00*%
%TF.ProjectId,Sensor PCB,53656e73-6f72-4205-9043-422e6b696361,rev?*%
%TF.SameCoordinates,Original*%
%TF.FileFunction,Copper,L2,Bot*%
%TF.FilePolarity,Positive*%
%FSLAX46Y46*%
G04 Gerber Fmt 4.6, Leading zero omitted, Abs format (unit mm)*
G04 Created by KiCad (PCBNEW 7.0.9) date 2024-03-05 03:29:11*
%MOMM*%
%LPD*%
G01*
G04 APERTURE LIST*
%TA.AperFunction,ComponentPad*%
%ADD10O,5.000000X2.500000*%
%TD*%
%TA.AperFunction,ComponentPad*%
%ADD11O,4.500000X2.250000*%
%TD*%
%TA.AperFunction,ComponentPad*%
%ADD12O,2.250000X4.500000*%
%TD*%
%TA.AperFunction,ComponentPad*%
%ADD13O,0.900000X1.800000*%
%TD*%
%TA.AperFunction,SMDPad,CuDef*%
%ADD14R,0.500000X0.300000*%
%TD*%
%TA.AperFunction,ViaPad*%
%ADD15C,0.800000*%
%TD*%
%TA.AperFunction,Conductor*%
%ADD16C,0.250000*%
%TD*%
%TA.AperFunction,Conductor*%
%ADD17C,0.200000*%
%TD*%
G04 APERTURE END LIST*
D10*
%TO.P,J1,1*%
%TO.N,+12V*%
X110000000Y-98300000D03*
D11*
%TO.P,J1,2*%
%TO.N,GND*%
X110000000Y-104300000D03*
D12*
%TO.P,J1,3*%
%TO.N,unconnected-(J1-Pad3)*%
X114700000Y-101300000D03*
%TD*%
D13*
%TO.P,J2,S5,SHIELD__4*%
%TO.N,GND*%
X133700000Y-123400000D03*
%TO.P,J2,S6,SHIELD__5*%
X140300000Y-123400000D03*
%TD*%
%TO.P,J3,S5,SHIELD__4*%
%TO.N,GND*%
X113600000Y-123400000D03*
%TO.P,J3,S6,SHIELD__5*%
X120200000Y-123400000D03*
%TD*%
D14*
%TO.P,U3,1,SDA*%
%TO.N,Net-(U1-IO8)*%
X116000000Y-77900000D03*
%TO.P,U3,2,SCL*%
%TO.N,Net-(U1-IO9)*%
X116000000Y-78700000D03*
%TO.P,U3,3,VDD*%
%TO.N,+3.3V*%
X114600000Y-78700000D03*
%TO.P,U3,4,VSS*%
%TO.N,GND*%
X114600000Y-77900000D03*
%TD*%
D15*
%TO.N,GND*%
X134800000Y-89000000D03*
X140000000Y-116100000D03*
X113700000Y-116100000D03*
X112200000Y-76600000D03*
X113200000Y-62100000D03*
X124300000Y-108400000D03*
X116900000Y-115100000D03*
X111800000Y-66400000D03*
X137000000Y-115100000D03*
X134800000Y-84000000D03*
X136800000Y-84100000D03*
X125500000Y-90600000D03*
%TO.N,+3.3V*%
X115550000Y-72750000D03*
X134700000Y-86700000D03*
X108250000Y-76650000D03*
X129700000Y-89200000D03*
X119000000Y-82100000D03*
X110200000Y-76600000D03*
%TO.N,USB_DP*%
X137800000Y-102100000D03*
X133355378Y-97644622D03*
X126400000Y-91400000D03*
X137800000Y-114400000D03*
%TO.N,USB_DN*%
X136200000Y-114400000D03*
X127300000Y-90600000D03*
%TO.N,IO20*%
X117700000Y-82900000D03*
X117700000Y-114500000D03*
%TO.N,IO19*%
X116800000Y-82100000D03*
X116100000Y-114500000D03*
%TO.N,VBUS*%
X113700000Y-117500000D03*
X120200000Y-117500000D03*
X132100000Y-98400000D03*
X132100000Y-103600000D03*
%TO.N,Net-(U1-IO8)*%
X114000000Y-75800497D03*
%TO.N,Net-(U1-IO9)*%
X122400000Y-83600000D03*
%TO.N,U0RXD*%
X119350000Y-87150000D03*
X137550000Y-67350000D03*
%TO.N,U0TXD*%
X137550000Y-66050000D03*
X124750000Y-82300000D03*
%TO.N,RTS*%
X122369731Y-85995133D03*
X121550000Y-91350000D03*
%TO.N,Net-(U6-COLLECTOR)*%
X136950000Y-102750000D03*
X136950000Y-99650000D03*
%TD*%
D16*
%TO.N,GND*%
X116900000Y-115100000D02*
X115900000Y-116100000D01*
X115900000Y-116100000D02*
X113700000Y-116100000D01*
X111800000Y-63500000D02*
X113200000Y-62100000D01*
X126225000Y-89875000D02*
X125500000Y-90600000D01*
X138000000Y-116100000D02*
X137000000Y-115100000D01*
X134800000Y-89000000D02*
X133875000Y-89925000D01*
X114600000Y-77900000D02*
X114600000Y-77400000D01*
X133875000Y-89925000D02*
X127650305Y-89925000D01*
X114600000Y-77400000D02*
X114000000Y-76800000D01*
X113800000Y-76600000D02*
X112200000Y-76600000D01*
X136800000Y-84100000D02*
X134900000Y-84100000D01*
X134800000Y-89000000D02*
X135425000Y-88375000D01*
X124300000Y-119300000D02*
X124300000Y-108400000D01*
X135425000Y-84625000D02*
X134800000Y-84000000D01*
X134900000Y-84100000D02*
X134800000Y-84000000D01*
X125500000Y-90600000D02*
X125500000Y-107200000D01*
X140000000Y-116100000D02*
X138000000Y-116100000D01*
X135425000Y-88375000D02*
X135425000Y-84625000D01*
X133700000Y-123400000D02*
X133500000Y-123400000D01*
X125500000Y-107200000D02*
X124300000Y-108400000D01*
X129400000Y-119300000D02*
X124300000Y-119300000D01*
X114000000Y-76800000D02*
X113800000Y-76600000D01*
X124300000Y-119300000D02*
X120200000Y-123400000D01*
X127650305Y-89925000D02*
X127600305Y-89875000D01*
X127600305Y-89875000D02*
X126225000Y-89875000D01*
X111800000Y-66400000D02*
X111800000Y-63500000D01*
X133500000Y-123400000D02*
X129400000Y-119300000D01*
%TO.N,+3.3V*%
X131000000Y-87900000D02*
X129700000Y-89200000D01*
X134000000Y-87900000D02*
X131000000Y-87900000D01*
X134700000Y-86700000D02*
X134700000Y-87200000D01*
X134700000Y-87200000D02*
X134000000Y-87900000D01*
X108250000Y-76650000D02*
X110150000Y-76650000D01*
X110150000Y-76650000D02*
X110200000Y-76600000D01*
D17*
%TO.N,USB_DP*%
X132644622Y-97644622D02*
X126400000Y-91400000D01*
X137800000Y-114400000D02*
X137800000Y-102100000D01*
X133355378Y-97644622D02*
X132644622Y-97644622D01*
%TO.N,USB_DN*%
X136200000Y-99500000D02*
X127300000Y-90600000D01*
X136200000Y-114400000D02*
X136200000Y-99500000D01*
D16*
%TO.N,IO20*%
X117700000Y-114500000D02*
X117700000Y-82900000D01*
%TO.N,IO19*%
X116100000Y-114500000D02*
X116800000Y-113800000D01*
X116800000Y-113800000D02*
X116800000Y-82100000D01*
%TO.N,VBUS*%
X132100000Y-103600000D02*
X132100000Y-98400000D01*
X120200000Y-117500000D02*
X113700000Y-117500000D01*
%TO.N,Net-(U1-IO8)*%
X116000000Y-77500000D02*
X114300497Y-75800497D01*
X114300497Y-75800497D02*
X114000000Y-75800497D01*
X116000000Y-77900000D02*
X116000000Y-77500000D01*
%TO.N,Net-(U1-IO9)*%
X119474695Y-83600000D02*
X122400000Y-83600000D01*
X116000000Y-78700000D02*
X116000000Y-80125305D01*
X116000000Y-80125305D02*
X119474695Y-83600000D01*
%TO.N,U0RXD*%
X129600000Y-75300000D02*
X137550000Y-67350000D01*
X119350000Y-87150000D02*
X119875305Y-87150000D01*
X119875305Y-87150000D02*
X121925305Y-85100000D01*
X129600000Y-85100000D02*
X129600000Y-75300000D01*
X121925305Y-85100000D02*
X129600000Y-85100000D01*
%TO.N,U0TXD*%
X124750000Y-78850000D02*
X137550000Y-66050000D01*
X124750000Y-82300000D02*
X124750000Y-78850000D01*
%TO.N,RTS*%
X121550000Y-86814864D02*
X121550000Y-91350000D01*
X122369731Y-85995133D02*
X121550000Y-86814864D01*
%TO.N,Net-(U6-COLLECTOR)*%
X136950000Y-101400000D02*
X136950000Y-102750000D01*
X136950000Y-99650000D02*
X136950000Y-99400000D01*
X136950000Y-101400000D02*
X136950000Y-99650000D01*
%TD*%
%TA.AperFunction,Conductor*%
%TO.N,+3.3V*%
G36*
X112592128Y-61219685D02*
G01*
X112637883Y-61272489D01*
X112647827Y-61341647D01*
X112618802Y-61405203D01*
X112597976Y-61424317D01*
X112594128Y-61427112D01*
X112467466Y-61567785D01*
X112372821Y-61731715D01*
X112372818Y-61731722D01*
X112314327Y-61911740D01*
X112314326Y-61911744D01*
X112296679Y-62079649D01*
X112270094Y-62144263D01*
X112261039Y-62154368D01*
X111416208Y-62999199D01*
X111403951Y-63009020D01*
X111404134Y-63009241D01*
X111398123Y-63014213D01*
X111350772Y-63064636D01*
X111329889Y-63085519D01*
X111329877Y-63085532D01*
X111325621Y-63091017D01*
X111321837Y-63095447D01*
X111289937Y-63129418D01*
X111289936Y-63129420D01*
X111280284Y-63146976D01*
X111269610Y-63163226D01*
X111257329Y-63179061D01*
X111257324Y-63179068D01*
X111238815Y-63221838D01*
X111236245Y-63227084D01*
X111213803Y-63267906D01*
X111208822Y-63287307D01*
X111202521Y-63305710D01*
X111194562Y-63324102D01*
X111194561Y-63324105D01*
X111187271Y-63370127D01*
X111186087Y-63375846D01*
X111174501Y-63420972D01*
X111174500Y-63420982D01*
X111174500Y-63441016D01*
X111172973Y-63460415D01*
X111169840Y-63480194D01*
X111169840Y-63480195D01*
X111174225Y-63526583D01*
X111174500Y-63532421D01*
X111174500Y-65701312D01*
X111154815Y-65768351D01*
X111142650Y-65784284D01*
X111067466Y-65867784D01*
X110972821Y-66031715D01*
X110972818Y-66031722D01*
X110914327Y-66211740D01*
X110914326Y-66211744D01*
X110894540Y-66400000D01*
X110914326Y-66588256D01*
X110914327Y-66588259D01*
X110972818Y-66768277D01*
X110972821Y-66768284D01*
X111067467Y-66932216D01*
X111112043Y-66981722D01*
X111194129Y-67072888D01*
X111347265Y-67184148D01*
X111347270Y-67184151D01*
X111520192Y-67261142D01*
X111520197Y-67261144D01*
X111705354Y-67300500D01*
X111705355Y-67300500D01*
X111894644Y-67300500D01*
X111894646Y-67300500D01*
X112079803Y-67261144D01*
X112252730Y-67184151D01*
X112405871Y-67072888D01*
X112532533Y-66932216D01*
X112627179Y-66768284D01*
X112685674Y-66588256D01*
X112705460Y-66400000D01*
X112685674Y-66211744D01*
X112627179Y-66031716D01*
X112532533Y-65867784D01*
X112527091Y-65861740D01*
X112457350Y-65784284D01*
X112427120Y-65721292D01*
X112425500Y-65701312D01*
X112425500Y-63810452D01*
X112445185Y-63743413D01*
X112461819Y-63722771D01*
X113147772Y-63036819D01*
X113209095Y-63003334D01*
X113235453Y-63000500D01*
X113294644Y-63000500D01*
X113294646Y-63000500D01*
X113479803Y-62961144D01*
X113652730Y-62884151D01*
X113805871Y-62772888D01*
X113932533Y-62632216D01*
X114027179Y-62468284D01*
X114085674Y-62288256D01*
X114105460Y-62100000D01*
X114085674Y-61911744D01*
X114027179Y-61731716D01*
X113932533Y-61567784D01*
X113805871Y-61427112D01*
X113802024Y-61424317D01*
X113759359Y-61368986D01*
X113753381Y-61299372D01*
X113785988Y-61237578D01*
X113846828Y-61203222D01*
X113874911Y-61200000D01*
X146076000Y-61200000D01*
X146143039Y-61219685D01*
X146188794Y-61272489D01*
X146200000Y-61324000D01*
X146200000Y-124276000D01*
X146180315Y-124343039D01*
X146127511Y-124388794D01*
X146076000Y-124400000D01*
X141286449Y-124400000D01*
X141219410Y-124380315D01*
X141173655Y-124327511D01*
X141163711Y-124258353D01*
X141172498Y-124227100D01*
X141172641Y-124226767D01*
X141211587Y-124136012D01*
X141250500Y-123946656D01*
X141250500Y-122901794D01*
X141235845Y-122757679D01*
X141235845Y-122757677D01*
X141177977Y-122573240D01*
X141177975Y-122573236D01*
X141177974Y-122573232D01*
X141084159Y-122404209D01*
X141084158Y-122404208D01*
X141084157Y-122404206D01*
X140958241Y-122257533D01*
X140958240Y-122257531D01*
X140805375Y-122139205D01*
X140805371Y-122139203D01*
X140758052Y-122115992D01*
X140631816Y-122054070D01*
X140631814Y-122054069D01*
X140631811Y-122054068D01*
X140631813Y-122054068D01*
X140444682Y-122005616D01*
X140444676Y-122005615D01*
X140315964Y-121999087D01*
X140251610Y-121995824D01*
X140251609Y-121995824D01*
X140251607Y-121995824D01*
X140060533Y-122025095D01*
X140060521Y-122025098D01*
X139879251Y-122092234D01*
X139879242Y-122092238D01*
X139715196Y-122194488D01*
X139575080Y-122327677D01*
X139464646Y-122486342D01*
X139388413Y-122663987D01*
X139349500Y-122853343D01*
X139349500Y-123898207D01*
X139364154Y-124042322D01*
X139422025Y-124226767D01*
X139422171Y-124227107D01*
X139422195Y-124227309D01*
X139423908Y-124232768D01*
X139422890Y-124233087D01*
X139430515Y-124296476D01*
X139400030Y-124359345D01*
X139340395Y-124395752D01*
X139308217Y-124400000D01*
X134686449Y-124400000D01*
X134619410Y-124380315D01*
X134573655Y-124327511D01*
X134563711Y-124258353D01*
X134572498Y-124227100D01*
X134572641Y-124226767D01*
X134611587Y-124136012D01*
X134650500Y-123946656D01*
X134650500Y-122901794D01*
X134635845Y-122757679D01*
X134635845Y-122757677D01*
X134577977Y-122573240D01*
X134577975Y-122573236D01*
X134577974Y-122573232D01*
X134484159Y-122404209D01*
X134484158Y-122404208D01*
X134484157Y-122404206D01*
X134358241Y-122257533D01*
X134358240Y-122257531D01*
X134205375Y-122139205D01*
X134205371Y-122139203D01*
X134158052Y-122115992D01*
X134031816Y-122054070D01*
X134031814Y-122054069D01*
X134031811Y-122054068D01*
X134031813Y-122054068D01*
X133844682Y-122005616D01*
X133844676Y-122005615D01*
X133715964Y-121999087D01*
X133651610Y-121995824D01*
X133651609Y-121995824D01*
X133651607Y-121995824D01*
X133460533Y-122025095D01*
X133460521Y-122025098D01*
X133279249Y-122092235D01*
X133279243Y-122092237D01*
X133238156Y-122117847D01*
X133170850Y-122136602D01*
X133104090Y-122115992D01*
X133084885Y-122100295D01*
X129900803Y-118916212D01*
X129890980Y-118903950D01*
X129890759Y-118904134D01*
X129885786Y-118898123D01*
X129835364Y-118850773D01*
X129824919Y-118840328D01*
X129814475Y-118829883D01*
X129808986Y-118825625D01*
X129804561Y-118821847D01*
X129770582Y-118789938D01*
X129770580Y-118789936D01*
X129770577Y-118789935D01*
X129753029Y-118780288D01*
X129736763Y-118769604D01*
X129720933Y-118757325D01*
X129678168Y-118738818D01*
X129672922Y-118736248D01*
X129632093Y-118713803D01*
X129632092Y-118713802D01*
X129612693Y-118708822D01*
X129594281Y-118702518D01*
X129575898Y-118694562D01*
X129575892Y-118694560D01*
X129529874Y-118687272D01*
X129524152Y-118686087D01*
X129479021Y-118674500D01*
X129479019Y-118674500D01*
X129458984Y-118674500D01*
X129439586Y-118672973D01*
X129432162Y-118671797D01*
X129419805Y-118669840D01*
X129419804Y-118669840D01*
X129373416Y-118674225D01*
X129367578Y-118674500D01*
X125049500Y-118674500D01*
X124982461Y-118654815D01*
X124936706Y-118602011D01*
X124925500Y-118550500D01*
X124925500Y-109098687D01*
X124945185Y-109031648D01*
X124957350Y-109015715D01*
X124975891Y-108995122D01*
X125032533Y-108932216D01*
X125127179Y-108768284D01*
X125185674Y-108588256D01*
X125203321Y-108420344D01*
X125229904Y-108355734D01*
X125238951Y-108345638D01*
X125883788Y-107700801D01*
X125896042Y-107690986D01*
X125895859Y-107690764D01*
X125901866Y-107685792D01*
X125901877Y-107685786D01*
X125932775Y-107652882D01*
X125949227Y-107635364D01*
X125959671Y-107624918D01*
X125970120Y-107614471D01*
X125974379Y-107608978D01*
X125978152Y-107604561D01*
X126010062Y-107570582D01*
X126019713Y-107553024D01*
X126030396Y-107536761D01*
X126042673Y-107520936D01*
X126061185Y-107478153D01*
X126063738Y-107472941D01*
X126086197Y-107432092D01*
X126091180Y-107412680D01*
X126097481Y-107394280D01*
X126105437Y-107375896D01*
X126112729Y-107329852D01*
X126113906Y-107324171D01*
X126125500Y-107279019D01*
X126125500Y-107258983D01*
X126127027Y-107239582D01*
X126130160Y-107219804D01*
X126125775Y-107173415D01*
X126125500Y-107167577D01*
X126125500Y-92415397D01*
X126145185Y-92348358D01*
X126197989Y-92302603D01*
X126267147Y-92292659D01*
X126275247Y-92294100D01*
X126305354Y-92300500D01*
X126399903Y-92300500D01*
X126466942Y-92320185D01*
X126487584Y-92336819D01*
X131613731Y-97462966D01*
X131647216Y-97524289D01*
X131642232Y-97593981D01*
X131600360Y-97649914D01*
X131598936Y-97650965D01*
X131494127Y-97727113D01*
X131367466Y-97867785D01*
X131272821Y-98031715D01*
X131272818Y-98031722D01*
X131214327Y-98211740D01*
X131214326Y-98211744D01*
X131194540Y-98400000D01*
X131214326Y-98588256D01*
X131214327Y-98588259D01*
X131272818Y-98768277D01*
X131272821Y-98768284D01*
X131367467Y-98932216D01*
X131375670Y-98941326D01*
X131442650Y-99015715D01*
X131472880Y-99078706D01*
X131474500Y-99098687D01*
X131474500Y-102901312D01*
X131454815Y-102968351D01*
X131442650Y-102984284D01*
X131367466Y-103067784D01*
X131272821Y-103231715D01*
X131272818Y-103231722D01*
X131223535Y-103383401D01*
X131214326Y-103411744D01*
X131194540Y-103600000D01*
X131214326Y-103788256D01*
X131214327Y-103788259D01*
X131272818Y-103968277D01*
X131272821Y-103968284D01*
X131367467Y-104132216D01*
X131494129Y-104272888D01*
X131647265Y-104384148D01*
X131647270Y-104384151D01*
X131820192Y-104461142D01*
X131820197Y-104461144D01*
X132005354Y-104500500D01*
X132005355Y-104500500D01*
X132194644Y-104500500D01*
X132194646Y-104500500D01*
X132379803Y-104461144D01*
X132552730Y-104384151D01*
X132705871Y-104272888D01*
X132832533Y-104132216D01*
X132927179Y-103968284D01*
X132985674Y-103788256D01*
X133005460Y-103600000D01*
X132985674Y-103411744D01*
X132927179Y-103231716D01*
X132832533Y-103067784D01*
X132757350Y-102984284D01*
X132727120Y-102921292D01*
X132725500Y-102901312D01*
X132725500Y-99098687D01*
X132745185Y-99031648D01*
X132757350Y-99015715D01*
X132792108Y-98977112D01*
X132832533Y-98932216D01*
X132927179Y-98768284D01*
X132982051Y-98599403D01*
X133021488Y-98541730D01*
X133085847Y-98514531D01*
X133125758Y-98516432D01*
X133260732Y-98545122D01*
X133260733Y-98545122D01*
X133450022Y-98545122D01*
X133450024Y-98545122D01*
X133635181Y-98505766D01*
X133808108Y-98428773D01*
X133961249Y-98317510D01*
X133971902Y-98305679D01*
X134031388Y-98269030D01*
X134101245Y-98270359D01*
X134151734Y-98300969D01*
X135563181Y-99712416D01*
X135596666Y-99773739D01*
X135599500Y-99800097D01*
X135599500Y-113673547D01*
X135579815Y-113740586D01*
X135567650Y-113756519D01*
X135467466Y-113867785D01*
X135372821Y-114031715D01*
X135372818Y-114031722D01*
X135314327Y-114211740D01*
X135314326Y-114211744D01*
X135294540Y-114400000D01*
X135314326Y-114588256D01*
X135314327Y-114588259D01*
X135372818Y-114768277D01*
X135372821Y-114768284D01*
X135467467Y-114932216D01*
X135557506Y-115032214D01*
X135594129Y-115072888D01*
X135747265Y-115184148D01*
X135747270Y-115184151D01*
X135920192Y-115261142D01*
X135920197Y-115261144D01*
X136028437Y-115284151D01*
X136049237Y-115288572D01*
X136110719Y-115321764D01*
X136141387Y-115371543D01*
X136172819Y-115468280D01*
X136172821Y-115468284D01*
X136267467Y-115632216D01*
X136357063Y-115731722D01*
X136394129Y-115772888D01*
X136547265Y-115884148D01*
X136547270Y-115884151D01*
X136720192Y-115961142D01*
X136720197Y-115961144D01*
X136905354Y-116000500D01*
X136964548Y-116000500D01*
X137031587Y-116020185D01*
X137052229Y-116036819D01*
X137499194Y-116483784D01*
X137509019Y-116496048D01*
X137509240Y-116495866D01*
X137514210Y-116501873D01*
X137514213Y-116501876D01*
X137514214Y-116501877D01*
X137564651Y-116549241D01*
X137585530Y-116570120D01*
X137591004Y-116574366D01*
X137595442Y-116578156D01*
X137629418Y-116610062D01*
X137629422Y-116610064D01*
X137646973Y-116619713D01*
X137663231Y-116630392D01*
X137679064Y-116642674D01*
X137696422Y-116650185D01*
X137721837Y-116661183D01*
X137727081Y-116663752D01*
X137767908Y-116686197D01*
X137787312Y-116691179D01*
X137805710Y-116697478D01*
X137824105Y-116705438D01*
X137870129Y-116712726D01*
X137875832Y-116713907D01*
X137920981Y-116725500D01*
X137941016Y-116725500D01*
X137960413Y-116727026D01*
X137980196Y-116730160D01*
X138026584Y-116725775D01*
X138032422Y-116725500D01*
X139296252Y-116725500D01*
X139363291Y-116745185D01*
X139388400Y-116766526D01*
X139394126Y-116772885D01*
X139394130Y-116772889D01*
X139547265Y-116884148D01*
X139547270Y-116884151D01*
X139720192Y-116961142D01*
X139720197Y-116961144D01*
X139905354Y-117000500D01*
X139905355Y-117000500D01*
X140094644Y-117000500D01*
X140094646Y-117000500D01*
X140279803Y-116961144D01*
X140452730Y-116884151D01*
X140605871Y-116772888D01*
X140732533Y-116632216D01*
X140827179Y-116468284D01*
X140885674Y-116288256D01*
X140905460Y-116100000D01*
X140885674Y-115911744D01*
X140827179Y-115731716D01*
X140732533Y-115567784D01*
X140605871Y-115427112D01*
X140605870Y-115427111D01*
X140452734Y-115315851D01*
X140452729Y-115315848D01*
X140279807Y-115238857D01*
X140279802Y-115238855D01*
X140134001Y-115207865D01*
X140094646Y-115199500D01*
X139905354Y-115199500D01*
X139872897Y-115206398D01*
X139720197Y-115238855D01*
X139720192Y-115238857D01*
X139547270Y-115315848D01*
X139547265Y-115315851D01*
X139394130Y-115427110D01*
X139394126Y-115427114D01*
X139388400Y-115433474D01*
X139328913Y-115470121D01*
X139296252Y-115474500D01*
X138310452Y-115474500D01*
X138243413Y-115454815D01*
X138222771Y-115438181D01*
X138183805Y-115399215D01*
X138150320Y-115337892D01*
X138155304Y-115268200D01*
X138197176Y-115212267D01*
X138221044Y-115198258D01*
X138252730Y-115184151D01*
X138405871Y-115072888D01*
X138532533Y-114932216D01*
X138627179Y-114768284D01*
X138685674Y-114588256D01*
X138705460Y-114400000D01*
X138685674Y-114211744D01*
X138627179Y-114031716D01*
X138532533Y-113867784D01*
X138472681Y-113801312D01*
X138432350Y-113756519D01*
X138402120Y-113693527D01*
X138400500Y-113673547D01*
X138400500Y-102826452D01*
X138420185Y-102759413D01*
X138432350Y-102743480D01*
X138532533Y-102632216D01*
X138627179Y-102468284D01*
X138685674Y-102288256D01*
X138705460Y-102100000D01*
X138685674Y-101911744D01*
X138627179Y-101731716D01*
X138532533Y-101567784D01*
X138405871Y-101427112D01*
X138405870Y-101427111D01*
X138252734Y-101315851D01*
X138252729Y-101315848D01*
X138079807Y-101238857D01*
X138079802Y-101238855D01*
X137934001Y-101207865D01*
X137894646Y-101199500D01*
X137705354Y-101199500D01*
X137699500Y-101199500D01*
X137632461Y-101179815D01*
X137586706Y-101127011D01*
X137575500Y-101075500D01*
X137575500Y-100348687D01*
X137595185Y-100281648D01*
X137607350Y-100265715D01*
X137625891Y-100245122D01*
X137682533Y-100182216D01*
X137777179Y-100018284D01*
X137835674Y-99838256D01*
X137855460Y-99650000D01*
X137835674Y-99461744D01*
X137777179Y-99281716D01*
X137682533Y-99117784D01*
X137555871Y-98977112D01*
X137506616Y-98941326D01*
X137402734Y-98865851D01*
X137402729Y-98865848D01*
X137229807Y-98788857D01*
X137229802Y-98788855D01*
X137084001Y-98757865D01*
X137044646Y-98749500D01*
X136855354Y-98749500D01*
X136822897Y-98756398D01*
X136670197Y-98788855D01*
X136670192Y-98788857D01*
X136518258Y-98856504D01*
X136449008Y-98865789D01*
X136385731Y-98836161D01*
X136380141Y-98830906D01*
X128311416Y-90762181D01*
X128277931Y-90700858D01*
X128282915Y-90631166D01*
X128324787Y-90575233D01*
X128390251Y-90550816D01*
X128399097Y-90550500D01*
X133792257Y-90550500D01*
X133807877Y-90552224D01*
X133807904Y-90551939D01*
X133815660Y-90552671D01*
X133815667Y-90552673D01*
X133884814Y-90550500D01*
X133914350Y-90550500D01*
X133921228Y-90549630D01*
X133927041Y-90549172D01*
X133973627Y-90547709D01*
X133992869Y-90542117D01*
X134011912Y-90538174D01*
X134031792Y-90535664D01*
X134075122Y-90518507D01*
X134080646Y-90516617D01*
X134084396Y-90515527D01*
X134125390Y-90503618D01*
X134142629Y-90493422D01*
X134160103Y-90484862D01*
X134178727Y-90477488D01*
X134178727Y-90477487D01*
X134178732Y-90477486D01*
X134216449Y-90450082D01*
X134221305Y-90446892D01*
X134261420Y-90423170D01*
X134275589Y-90408999D01*
X134290379Y-90396368D01*
X134306587Y-90384594D01*
X134336299Y-90348676D01*
X134340212Y-90344376D01*
X134747771Y-89936819D01*
X134809094Y-89903334D01*
X134835452Y-89900500D01*
X134894644Y-89900500D01*
X134894646Y-89900500D01*
X135079803Y-89861144D01*
X135252730Y-89784151D01*
X135405871Y-89672888D01*
X135532533Y-89532216D01*
X135627179Y-89368284D01*
X135685674Y-89188256D01*
X135703321Y-89020344D01*
X135729904Y-88955734D01*
X135738951Y-88945638D01*
X135808788Y-88875801D01*
X135821042Y-88865986D01*
X135820859Y-88865764D01*
X135826866Y-88860792D01*
X135826877Y-88860786D01*
X135857775Y-88827882D01*
X135874227Y-88810364D01*
X135884671Y-88799918D01*
X135895120Y-88789471D01*
X135899379Y-88783978D01*
X135903152Y-88779561D01*
X135935062Y-88745582D01*
X135944713Y-88728024D01*
X135955396Y-88711761D01*
X135967673Y-88695936D01*
X135986185Y-88653153D01*
X135988738Y-88647941D01*
X136011197Y-88607092D01*
X136016180Y-88587680D01*
X136022481Y-88569280D01*
X136030437Y-88550896D01*
X136037729Y-88504852D01*
X136038906Y-88499171D01*
X136050500Y-88454019D01*
X136050500Y-88433983D01*
X136052027Y-88414582D01*
X136055160Y-88394804D01*
X136050775Y-88348415D01*
X136050500Y-88342577D01*
X136050500Y-84911898D01*
X136070185Y-84844859D01*
X136122989Y-84799104D01*
X136192147Y-84789160D01*
X136247381Y-84811578D01*
X136347266Y-84884148D01*
X136347270Y-84884151D01*
X136520192Y-84961142D01*
X136520197Y-84961144D01*
X136705354Y-85000500D01*
X136705355Y-85000500D01*
X136894644Y-85000500D01*
X136894646Y-85000500D01*
X137079803Y-84961144D01*
X137252730Y-84884151D01*
X137405871Y-84772888D01*
X137532533Y-84632216D01*
X137627179Y-84468284D01*
X137685674Y-84288256D01*
X137705460Y-84100000D01*
X137685674Y-83911744D01*
X137627179Y-83731716D01*
X137532533Y-83567784D01*
X137405871Y-83427112D01*
X137405870Y-83427111D01*
X137252734Y-83315851D01*
X137252729Y-83315848D01*
X137079807Y-83238857D01*
X137079802Y-83238855D01*
X136934001Y-83207865D01*
X136894646Y-83199500D01*
X136705354Y-83199500D01*
X136672897Y-83206398D01*
X136520197Y-83238855D01*
X136520192Y-83238857D01*
X136347270Y-83315848D01*
X136347265Y-83315851D01*
X136194130Y-83427110D01*
X136194126Y-83427114D01*
X136188400Y-83433474D01*
X136128913Y-83470121D01*
X136096252Y-83474500D01*
X135593788Y-83474500D01*
X135526749Y-83454815D01*
X135501638Y-83433472D01*
X135495911Y-83427112D01*
X135405871Y-83327112D01*
X135390369Y-83315849D01*
X135252734Y-83215851D01*
X135252729Y-83215848D01*
X135079807Y-83138857D01*
X135079802Y-83138855D01*
X134934001Y-83107865D01*
X134894646Y-83099500D01*
X134705354Y-83099500D01*
X134672897Y-83106398D01*
X134520197Y-83138855D01*
X134520192Y-83138857D01*
X134347270Y-83215848D01*
X134347265Y-83215851D01*
X134194129Y-83327111D01*
X134067466Y-83467785D01*
X133972821Y-83631715D01*
X133972818Y-83631722D01*
X133914327Y-83811740D01*
X133914326Y-83811744D01*
X133894540Y-84000000D01*
X133914326Y-84188256D01*
X133914327Y-84188259D01*
X133972818Y-84368277D01*
X133972821Y-84368284D01*
X134067467Y-84532216D01*
X134130147Y-84601829D01*
X134194129Y-84672888D01*
X134347265Y-84784148D01*
X134347270Y-84784151D01*
X134520192Y-84861142D01*
X134520197Y-84861144D01*
X134701281Y-84899634D01*
X134762763Y-84932826D01*
X134796539Y-84993989D01*
X134799500Y-85020924D01*
X134799500Y-87979075D01*
X134779815Y-88046114D01*
X134727011Y-88091869D01*
X134701281Y-88100365D01*
X134520197Y-88138855D01*
X134520192Y-88138857D01*
X134347270Y-88215848D01*
X134347265Y-88215851D01*
X134194129Y-88327111D01*
X134067466Y-88467785D01*
X133972821Y-88631715D01*
X133972818Y-88631722D01*
X133941526Y-88728030D01*
X133914326Y-88811744D01*
X133896679Y-88979650D01*
X133870094Y-89044264D01*
X133861039Y-89054369D01*
X133652228Y-89263181D01*
X133590905Y-89296666D01*
X133564547Y-89299500D01*
X127883070Y-89299500D01*
X127837427Y-89290794D01*
X127832396Y-89288802D01*
X127812998Y-89283822D01*
X127794586Y-89277518D01*
X127776203Y-89269562D01*
X127776197Y-89269560D01*
X127730179Y-89262272D01*
X127724457Y-89261087D01*
X127679326Y-89249500D01*
X127679324Y-89249500D01*
X127659289Y-89249500D01*
X127639891Y-89247973D01*
X127632467Y-89246797D01*
X127620110Y-89244840D01*
X127620109Y-89244840D01*
X127573721Y-89249225D01*
X127567883Y-89249500D01*
X126307743Y-89249500D01*
X126292122Y-89247775D01*
X126292096Y-89248061D01*
X126284334Y-89247327D01*
X126284333Y-89247327D01*
X126215186Y-89249500D01*
X126185649Y-89249500D01*
X126178766Y-89250369D01*
X126172949Y-89250826D01*
X126126373Y-89252290D01*
X126107129Y-89257881D01*
X126088079Y-89261825D01*
X126068211Y-89264334D01*
X126024884Y-89281488D01*
X126019358Y-89283379D01*
X125974614Y-89296379D01*
X125974610Y-89296381D01*
X125957366Y-89306579D01*
X125939905Y-89315133D01*
X125921274Y-89322510D01*
X125921262Y-89322517D01*
X125883570Y-89349902D01*
X125878687Y-89353109D01*
X125838580Y-89376829D01*
X125824414Y-89390995D01*
X125809624Y-89403627D01*
X125793414Y-89415404D01*
X125793411Y-89415407D01*
X125763710Y-89451309D01*
X125759777Y-89455631D01*
X125552227Y-89663182D01*
X125490907Y-89696666D01*
X125464548Y-89699500D01*
X125405354Y-89699500D01*
X125372897Y-89706398D01*
X125220197Y-89738855D01*
X125220192Y-89738857D01*
X125047270Y-89815848D01*
X125047265Y-89815851D01*
X124894129Y-89927111D01*
X124767466Y-90067785D01*
X124672821Y-90231715D01*
X124672818Y-90231722D01*
X124623147Y-90384595D01*
X124614326Y-90411744D01*
X124594540Y-90600000D01*
X124614326Y-90788256D01*
X124614327Y-90788259D01*
X124672818Y-90968277D01*
X124672821Y-90968284D01*
X124767467Y-91132216D01*
X124810772Y-91180310D01*
X124842650Y-91215715D01*
X124872880Y-91278706D01*
X124874500Y-91298687D01*
X124874500Y-106889547D01*
X124854815Y-106956586D01*
X124838181Y-106977228D01*
X124352228Y-107463181D01*
X124290905Y-107496666D01*
X124264547Y-107499500D01*
X124205354Y-107499500D01*
X124172897Y-107506398D01*
X124020197Y-107538855D01*
X124020192Y-107538857D01*
X123847270Y-107615848D01*
X123847265Y-107615851D01*
X123694129Y-107727111D01*
X123567466Y-107867785D01*
X123472821Y-108031715D01*
X123472818Y-108031722D01*
X123414327Y-108211740D01*
X123414326Y-108211744D01*
X123394540Y-108400000D01*
X123414326Y-108588256D01*
X123414327Y-108588259D01*
X123472818Y-108768277D01*
X123472821Y-108768284D01*
X123567467Y-108932216D01*
X123610772Y-108980310D01*
X123642650Y-109015715D01*
X123672880Y-109078706D01*
X123674500Y-109098687D01*
X123674500Y-118989546D01*
X123654815Y-119056585D01*
X123638181Y-119077227D01*
X120681404Y-122034003D01*
X120620081Y-122067488D01*
X120550389Y-122062504D01*
X120539116Y-122057651D01*
X120531812Y-122054068D01*
X120531813Y-122054068D01*
X120344682Y-122005616D01*
X120344676Y-122005615D01*
X120215964Y-121999087D01*
X120151610Y-121995824D01*
X120151609Y-121995824D01*
X120151607Y-121995824D01*
X119960533Y-122025095D01*
X119960521Y-122025098D01*
X119779251Y-122092234D01*
X119779242Y-122092238D01*
X119615196Y-122194488D01*
X119475080Y-122327677D01*
X119364646Y-122486342D01*
X119288413Y-122663987D01*
X119249500Y-122853343D01*
X119249500Y-123898207D01*
X119264154Y-124042322D01*
X119322025Y-124226767D01*
X119322171Y-124227107D01*
X119322195Y-124227309D01*
X119323908Y-124232768D01*
X119322890Y-124233087D01*
X119330515Y-124296476D01*
X119300030Y-124359345D01*
X119240395Y-124395752D01*
X119208217Y-124400000D01*
X114586449Y-124400000D01*
X114519410Y-124380315D01*
X114473655Y-124327511D01*
X114463711Y-124258353D01*
X114472498Y-124227100D01*
X114472641Y-124226767D01*
X114511587Y-124136012D01*
X114550500Y-123946656D01*
X114550500Y-122901794D01*
X114535845Y-122757679D01*
X114535845Y-122757677D01*
X114477977Y-122573240D01*
X114477975Y-122573236D01*
X114477974Y-122573232D01*
X114384159Y-122404209D01*
X114384158Y-122404208D01*
X114384157Y-122404206D01*
X114258241Y-122257533D01*
X114258240Y-122257531D01*
X114105375Y-122139205D01*
X114105371Y-122139203D01*
X114058052Y-122115992D01*
X113931816Y-122054070D01*
X113931814Y-122054069D01*
X113931811Y-122054068D01*
X113931813Y-122054068D01*
X113744682Y-122005616D01*
X113744676Y-122005615D01*
X113615964Y-121999087D01*
X113551610Y-121995824D01*
X113551609Y-121995824D01*
X113551607Y-121995824D01*
X113360533Y-122025095D01*
X113360521Y-122025098D01*
X113179251Y-122092234D01*
X113179242Y-122092238D01*
X113015196Y-122194488D01*
X112875080Y-122327677D01*
X112764646Y-122486342D01*
X112688413Y-122663987D01*
X112649500Y-122853343D01*
X112649500Y-123898207D01*
X112664154Y-124042322D01*
X112722025Y-124226767D01*
X112722171Y-124227107D01*
X112722195Y-124227309D01*
X112723908Y-124232768D01*
X112722890Y-124233087D01*
X112730515Y-124296476D01*
X112700030Y-124359345D01*
X112640395Y-124395752D01*
X112608217Y-124400000D01*
X105724000Y-124400000D01*
X105656961Y-124380315D01*
X105611206Y-124327511D01*
X105600000Y-124276000D01*
X105600000Y-104300000D01*
X107244474Y-104300000D01*
X107264547Y-104555064D01*
X107324279Y-104803864D01*
X107422188Y-105040239D01*
X107422190Y-105040242D01*
X107555875Y-105258396D01*
X107555878Y-105258401D01*
X107631200Y-105346591D01*
X107722044Y-105452956D01*
X107846579Y-105559319D01*
X107916598Y-105619121D01*
X107916603Y-105619124D01*
X108134757Y-105752809D01*
X108134760Y-105752811D01*
X108371135Y-105850720D01*
X108371140Y-105850722D01*
X108619930Y-105910452D01*
X108747401Y-105920484D01*
X108811135Y-105925500D01*
X108811137Y-105925500D01*
X111188865Y-105925500D01*
X111243493Y-105921200D01*
X111380070Y-105910452D01*
X111628860Y-105850722D01*
X111747051Y-105801765D01*
X111865239Y-105752811D01*
X111865240Y-105752810D01*
X111865243Y-105752809D01*
X112083399Y-105619123D01*
X112277956Y-105452956D01*
X112444123Y-105258399D01*
X112577809Y-105040243D01*
X112675722Y-104803860D01*
X112735452Y-104555070D01*
X112755526Y-104300000D01*
X112735452Y-104044930D01*
X112675722Y-103796140D01*
X112672456Y-103788256D01*
X112577811Y-103559760D01*
X112577809Y-103559757D01*
X112491167Y-103418370D01*
X112444123Y-103341601D01*
X112444122Y-103341600D01*
X112444121Y-103341598D01*
X112384319Y-103271579D01*
X112277956Y-103147044D01*
X112171591Y-103056200D01*
X112083401Y-102980878D01*
X112083396Y-102980875D01*
X111865242Y-102847190D01*
X111865239Y-102847188D01*
X111628864Y-102749279D01*
X111604710Y-102743480D01*
X111380070Y-102689548D01*
X111380068Y-102689547D01*
X111380065Y-102689547D01*
X111188865Y-102674500D01*
X111188863Y-102674500D01*
X108811137Y-102674500D01*
X108811135Y-102674500D01*
X108619934Y-102689547D01*
X108371135Y-102749279D01*
X108134760Y-102847188D01*
X108134757Y-102847190D01*
X107916603Y-102980875D01*
X107916598Y-102980878D01*
X107722044Y-103147044D01*
X107555878Y-103341598D01*
X107555875Y-103341603D01*
X107422190Y-103559757D01*
X107422188Y-103559760D01*
X107324279Y-103796135D01*
X107324278Y-103796140D01*
X107266824Y-104035452D01*
X107264547Y-104044935D01*
X107244474Y-104300000D01*
X105600000Y-104300000D01*
X105600000Y-98431187D01*
X106999500Y-98431187D01*
X107016163Y-98541730D01*
X107038604Y-98690615D01*
X107038605Y-98690617D01*
X107038606Y-98690623D01*
X107115938Y-98941326D01*
X107229767Y-99177696D01*
X107229768Y-99177697D01*
X107229770Y-99177700D01*
X107229772Y-99177704D01*
X107377567Y-99394479D01*
X107556014Y-99586801D01*
X107556018Y-99586804D01*
X107556019Y-99586805D01*
X107761143Y-99750386D01*
X107988357Y-99881568D01*
X108232584Y-99977420D01*
X108488370Y-100035802D01*
X108488376Y-100035802D01*
X108488379Y-100035803D01*
X108684500Y-100050500D01*
X108684506Y-100050500D01*
X111315500Y-100050500D01*
X111511620Y-100035803D01*
X111511622Y-100035802D01*
X111511630Y-100035802D01*
X111767416Y-99977420D01*
X112011643Y-99881568D01*
X112238857Y-99750386D01*
X112443981Y-99586805D01*
X112622433Y-99394479D01*
X112770228Y-99177704D01*
X112884063Y-98941323D01*
X112961396Y-98690615D01*
X113000500Y-98431182D01*
X113000500Y-98168818D01*
X112961396Y-97909385D01*
X112884063Y-97658677D01*
X112845732Y-97579082D01*
X112770232Y-97422303D01*
X112770231Y-97422302D01*
X112770230Y-97422301D01*
X112770228Y-97422296D01*
X112622433Y-97205521D01*
X112612441Y-97194753D01*
X112443985Y-97013198D01*
X112353474Y-96941018D01*
X112238857Y-96849614D01*
X112011643Y-96718432D01*
X111767416Y-96622580D01*
X111767411Y-96622578D01*
X111767402Y-96622576D01*
X111549818Y-96572914D01*
X111511630Y-96564198D01*
X111511629Y-96564197D01*
X111511625Y-96564197D01*
X111511620Y-96564196D01*
X111315500Y-96549500D01*
X111315494Y-96549500D01*
X108684506Y-96549500D01*
X108684500Y-96549500D01*
X108488379Y-96564196D01*
X108488374Y-96564197D01*
X108232597Y-96622576D01*
X108232578Y-96622582D01*
X107988356Y-96718432D01*
X107761143Y-96849614D01*
X107556014Y-97013198D01*
X107377567Y-97205520D01*
X107229768Y-97422302D01*
X107229767Y-97422303D01*
X107115938Y-97658673D01*
X107038606Y-97909376D01*
X107038605Y-97909381D01*
X107038604Y-97909385D01*
X107023853Y-98007247D01*
X106999500Y-98168812D01*
X106999500Y-98431187D01*
X105600000Y-98431187D01*
X105600000Y-78850000D01*
X113850000Y-78850000D01*
X113850000Y-78897844D01*
X113856401Y-78957372D01*
X113856403Y-78957379D01*
X113906645Y-79092086D01*
X113906649Y-79092093D01*
X113992809Y-79207187D01*
X113992812Y-79207190D01*
X114107906Y-79293350D01*
X114107913Y-79293354D01*
X114242620Y-79343596D01*
X114242627Y-79343598D01*
X114302155Y-79349999D01*
X114302172Y-79350000D01*
X114450000Y-79350000D01*
X114450000Y-78850000D01*
X113850000Y-78850000D01*
X105600000Y-78850000D01*
X105600000Y-76600000D01*
X111294540Y-76600000D01*
X111314326Y-76788256D01*
X111314327Y-76788259D01*
X111372818Y-76968277D01*
X111372821Y-76968284D01*
X111467467Y-77132216D01*
X111557640Y-77232363D01*
X111594129Y-77272888D01*
X111747265Y-77384148D01*
X111747270Y-77384151D01*
X111920192Y-77461142D01*
X111920197Y-77461144D01*
X112105354Y-77500500D01*
X112105355Y-77500500D01*
X112294644Y-77500500D01*
X112294646Y-77500500D01*
X112479803Y-77461144D01*
X112652730Y-77384151D01*
X112805871Y-77272888D01*
X112808788Y-77269647D01*
X112811600Y-77266526D01*
X112871087Y-77229879D01*
X112903748Y-77225500D01*
X113489548Y-77225500D01*
X113556587Y-77245185D01*
X113577228Y-77261818D01*
X113827274Y-77511864D01*
X113860758Y-77573186D01*
X113856364Y-77634651D01*
X113857693Y-77634965D01*
X113855910Y-77642508D01*
X113855909Y-77642516D01*
X113855909Y-77642517D01*
X113849500Y-77702127D01*
X113849500Y-77702134D01*
X113849500Y-77702135D01*
X113849500Y-78097870D01*
X113849501Y-78097876D01*
X113855908Y-78157483D01*
X113893168Y-78257381D01*
X113898152Y-78327073D01*
X113893168Y-78344046D01*
X113856403Y-78442617D01*
X113856401Y-78442627D01*
X113850000Y-78502155D01*
X113850000Y-78550000D01*
X114294155Y-78550000D01*
X114300786Y-78550355D01*
X114302127Y-78550500D01*
X114626001Y-78550499D01*
X114693039Y-78570183D01*
X114738794Y-78622987D01*
X114750000Y-78674499D01*
X114750000Y-79350000D01*
X114897828Y-79350000D01*
X114897844Y-79349999D01*
X114957372Y-79343598D01*
X114957379Y-79343596D01*
X115092086Y-79293354D01*
X115092089Y-79293352D01*
X115176188Y-79230396D01*
X115241653Y-79205978D01*
X115309926Y-79220829D01*
X115359332Y-79270234D01*
X115374500Y-79329662D01*
X115374500Y-80042560D01*
X115372775Y-80058177D01*
X115373061Y-80058204D01*
X115372326Y-80065970D01*
X115374500Y-80135119D01*
X115374500Y-80164648D01*
X115374501Y-80164665D01*
X115375368Y-80171536D01*
X115375826Y-80177355D01*
X115377290Y-80223929D01*
X115377291Y-80223932D01*
X115382880Y-80243172D01*
X115386824Y-80262216D01*
X115389336Y-80282096D01*
X115406490Y-80325424D01*
X115408382Y-80330952D01*
X115421381Y-80375693D01*
X115431580Y-80392939D01*
X115440138Y-80410408D01*
X115447514Y-80429037D01*
X115474898Y-80466728D01*
X115478106Y-80471612D01*
X115501827Y-80511721D01*
X115501833Y-80511729D01*
X115515990Y-80525885D01*
X115528628Y-80540681D01*
X115540405Y-80556891D01*
X115540406Y-80556892D01*
X115576309Y-80586593D01*
X115580620Y-80590515D01*
X116220678Y-81230573D01*
X116254163Y-81291896D01*
X116249179Y-81361588D01*
X116207307Y-81417521D01*
X116205885Y-81418570D01*
X116194130Y-81427110D01*
X116194129Y-81427111D01*
X116067466Y-81567785D01*
X115972821Y-81731715D01*
X115972818Y-81731722D01*
X115914327Y-81911740D01*
X115914326Y-81911744D01*
X115894540Y-82100000D01*
X115914326Y-82288256D01*
X115914327Y-82288259D01*
X115972818Y-82468277D01*
X115972821Y-82468284D01*
X116067467Y-82632216D01*
X116099937Y-82668277D01*
X116142650Y-82715715D01*
X116172880Y-82778706D01*
X116174500Y-82798687D01*
X116174500Y-99062406D01*
X116154815Y-99129445D01*
X116102011Y-99175200D01*
X116032853Y-99185144D01*
X115969297Y-99156119D01*
X115956210Y-99142938D01*
X115887428Y-99062406D01*
X115852956Y-99022044D01*
X115746591Y-98931200D01*
X115658401Y-98855878D01*
X115658396Y-98855875D01*
X115440242Y-98722190D01*
X115440239Y-98722188D01*
X115203864Y-98624279D01*
X115203860Y-98624278D01*
X114955070Y-98564548D01*
X114955067Y-98564547D01*
X114955064Y-98564547D01*
X114700000Y-98544474D01*
X114444935Y-98564547D01*
X114444931Y-98564547D01*
X114444930Y-98564548D01*
X114346168Y-98588259D01*
X114196135Y-98624279D01*
X113959760Y-98722188D01*
X113959757Y-98722190D01*
X113741603Y-98855875D01*
X113741598Y-98855878D01*
X113547044Y-99022044D01*
X113380878Y-99216598D01*
X113380875Y-99216603D01*
X113247190Y-99434757D01*
X113247188Y-99434760D01*
X113149279Y-99671135D01*
X113089547Y-99919934D01*
X113074500Y-100111135D01*
X113074500Y-102488865D01*
X113089547Y-102680065D01*
X113089547Y-102680068D01*
X113089548Y-102680070D01*
X113104772Y-102743480D01*
X113149279Y-102928864D01*
X113247188Y-103165239D01*
X113247190Y-103165242D01*
X113380875Y-103383396D01*
X113380878Y-103383401D01*
X113410745Y-103418370D01*
X113547044Y-103577956D01*
X113636941Y-103654735D01*
X113741598Y-103744121D01*
X113741600Y-103744122D01*
X113741601Y-103744123D01*
X113826477Y-103796135D01*
X113959757Y-103877809D01*
X113959760Y-103877811D01*
X114178166Y-103968277D01*
X114196140Y-103975722D01*
X114444930Y-104035452D01*
X114700000Y-104055526D01*
X114955070Y-104035452D01*
X115203860Y-103975722D01*
X115322051Y-103926765D01*
X115440239Y-103877811D01*
X115440240Y-103877810D01*
X115440243Y-103877809D01*
X115658399Y-103744123D01*
X115852956Y-103577956D01*
X115956210Y-103457061D01*
X116014717Y-103418868D01*
X116084585Y-103418370D01*
X116143631Y-103455723D01*
X116173109Y-103519070D01*
X116174500Y-103537593D01*
X116174500Y-113475500D01*
X116154815Y-113542539D01*
X116102011Y-113588294D01*
X116050500Y-113599500D01*
X116005354Y-113599500D01*
X115972897Y-113606398D01*
X115820197Y-113638855D01*
X115820192Y-113638857D01*
X115647270Y-113715848D01*
X115647265Y-113715851D01*
X115494129Y-113827111D01*
X115367466Y-113967785D01*
X115272821Y-114131715D01*
X115272818Y-114131722D01*
X115214327Y-114311740D01*
X115214326Y-114311744D01*
X115194540Y-114500000D01*
X115214326Y-114688256D01*
X115214327Y-114688259D01*
X115272818Y-114868277D01*
X115272821Y-114868284D01*
X115367467Y-115032216D01*
X115494129Y-115172888D01*
X115600515Y-115250182D01*
X115643181Y-115305512D01*
X115649160Y-115375125D01*
X115616554Y-115436920D01*
X115555716Y-115471277D01*
X115527630Y-115474500D01*
X114403748Y-115474500D01*
X114336709Y-115454815D01*
X114311600Y-115433474D01*
X114305873Y-115427114D01*
X114305869Y-115427110D01*
X114152734Y-115315851D01*
X114152729Y-115315848D01*
X113979807Y-115238857D01*
X113979802Y-115238855D01*
X113834001Y-115207865D01*
X113794646Y-115199500D01*
X113605354Y-115199500D01*
X113572897Y-115206398D01*
X113420197Y-115238855D01*
X113420192Y-115238857D01*
X113247270Y-115315848D01*
X113247265Y-115315851D01*
X113094129Y-115427111D01*
X112967466Y-115567785D01*
X112872821Y-115731715D01*
X112872818Y-115731722D01*
X112814327Y-115911740D01*
X112814326Y-115911744D01*
X112794540Y-116100000D01*
X112814326Y-116288256D01*
X112814327Y-116288259D01*
X112872818Y-116468277D01*
X112872821Y-116468284D01*
X112967464Y-116632212D01*
X112967465Y-116632214D01*
X112967467Y-116632216D01*
X112993549Y-116661183D01*
X113043832Y-116717028D01*
X113074061Y-116780020D01*
X113065435Y-116849355D01*
X113043832Y-116882972D01*
X112967464Y-116967787D01*
X112872821Y-117131715D01*
X112872818Y-117131722D01*
X112814327Y-117311740D01*
X112814326Y-117311744D01*
X112794540Y-117500000D01*
X112814326Y-117688256D01*
X112814327Y-117688259D01*
X112872818Y-117868277D01*
X112872821Y-117868284D01*
X112967467Y-118032216D01*
X113069185Y-118145185D01*
X113094129Y-118172888D01*
X113247265Y-118284148D01*
X113247270Y-118284151D01*
X113420192Y-118361142D01*
X113420197Y-118361144D01*
X113605354Y-118400500D01*
X113605355Y-118400500D01*
X113794644Y-118400500D01*
X113794646Y-118400500D01*
X113979803Y-118361144D01*
X114152730Y-118284151D01*
X114305871Y-118172888D01*
X114308788Y-118169647D01*
X114311600Y-118166526D01*
X114371087Y-118129879D01*
X114403748Y-118125500D01*
X119496252Y-118125500D01*
X119563291Y-118145185D01*
X119588400Y-118166526D01*
X119594126Y-118172885D01*
X119594130Y-118172889D01*
X119747265Y-118284148D01*
X119747270Y-118284151D01*
X119920192Y-118361142D01*
X119920197Y-118361144D01*
X120105354Y-118400500D01*
X120105355Y-118400500D01*
X120294644Y-118400500D01*
X120294646Y-118400500D01*
X120479803Y-118361144D01*
X120652730Y-118284151D01*
X120805871Y-118172888D01*
X120932533Y-118032216D01*
X121027179Y-117868284D01*
X121085674Y-117688256D01*
X121105460Y-117500000D01*
X121085674Y-117311744D01*
X121027179Y-117131716D01*
X120932533Y-116967784D01*
X120805871Y-116827112D01*
X120805870Y-116827111D01*
X120652734Y-116715851D01*
X120652729Y-116715848D01*
X120479807Y-116638857D01*
X120479802Y-116638855D01*
X120334001Y-116607865D01*
X120294646Y-116599500D01*
X120105354Y-116599500D01*
X120072897Y-116606398D01*
X119920197Y-116638855D01*
X119920192Y-116638857D01*
X119747270Y-116715848D01*
X119747265Y-116715851D01*
X119594130Y-116827110D01*
X119594126Y-116827114D01*
X119588400Y-116833474D01*
X119528913Y-116870121D01*
X119496252Y-116874500D01*
X116279789Y-116874500D01*
X116212750Y-116854815D01*
X116166995Y-116802011D01*
X116157051Y-116732853D01*
X116186076Y-116669297D01*
X116206899Y-116650185D01*
X116207464Y-116649773D01*
X116241444Y-116625085D01*
X116246305Y-116621892D01*
X116286420Y-116598170D01*
X116300589Y-116583999D01*
X116315379Y-116571368D01*
X116331587Y-116559594D01*
X116361299Y-116523676D01*
X116365212Y-116519376D01*
X116847771Y-116036819D01*
X116909094Y-116003334D01*
X116935452Y-116000500D01*
X116994644Y-116000500D01*
X116994646Y-116000500D01*
X117179803Y-115961144D01*
X117352730Y-115884151D01*
X117505871Y-115772888D01*
X117632533Y-115632216D01*
X117727179Y-115468284D01*
X117727182Y-115468272D01*
X117727754Y-115466991D01*
X117728291Y-115466358D01*
X117730429Y-115462656D01*
X117731105Y-115463046D01*
X117772995Y-115413746D01*
X117815252Y-115396120D01*
X117979803Y-115361144D01*
X117979807Y-115361142D01*
X117979808Y-115361142D01*
X118068251Y-115321764D01*
X118152730Y-115284151D01*
X118305871Y-115172888D01*
X118432533Y-115032216D01*
X118527179Y-114868284D01*
X118585674Y-114688256D01*
X118605460Y-114500000D01*
X118585674Y-114311744D01*
X118527179Y-114131716D01*
X118432533Y-113967784D01*
X118357350Y-113884284D01*
X118327120Y-113821292D01*
X118325500Y-113801312D01*
X118325500Y-87639288D01*
X118345185Y-87572249D01*
X118397989Y-87526494D01*
X118467147Y-87516550D01*
X118530703Y-87545575D01*
X118556886Y-87577287D01*
X118617467Y-87682216D01*
X118718755Y-87794707D01*
X118744129Y-87822888D01*
X118897265Y-87934148D01*
X118897270Y-87934151D01*
X119070192Y-88011142D01*
X119070197Y-88011144D01*
X119255354Y-88050500D01*
X119255355Y-88050500D01*
X119444644Y-88050500D01*
X119444646Y-88050500D01*
X119629803Y-88011144D01*
X119802730Y-87934151D01*
X119955871Y-87822888D01*
X119981246Y-87794705D01*
X120027749Y-87762384D01*
X120032091Y-87760664D01*
X120032097Y-87760664D01*
X120075422Y-87743510D01*
X120080952Y-87741617D01*
X120095886Y-87737278D01*
X120125695Y-87728618D01*
X120142934Y-87718422D01*
X120160408Y-87709862D01*
X120179032Y-87702488D01*
X120179032Y-87702487D01*
X120179037Y-87702486D01*
X120216754Y-87675082D01*
X120221610Y-87671892D01*
X120261725Y-87648170D01*
X120275894Y-87633999D01*
X120290684Y-87621368D01*
X120306892Y-87609594D01*
X120336604Y-87573676D01*
X120340517Y-87569376D01*
X120712820Y-87197074D01*
X120774142Y-87163590D01*
X120843834Y-87168574D01*
X120899767Y-87210446D01*
X120924184Y-87275910D01*
X120924500Y-87284756D01*
X120924500Y-90651312D01*
X120904815Y-90718351D01*
X120892650Y-90734284D01*
X120817466Y-90817784D01*
X120722821Y-90981715D01*
X120722818Y-90981722D01*
X120673921Y-91132214D01*
X120664326Y-91161744D01*
X120644540Y-91350000D01*
X120664326Y-91538256D01*
X120664327Y-91538259D01*
X120722818Y-91718277D01*
X120722821Y-91718284D01*
X120817467Y-91882216D01*
X120944129Y-92022888D01*
X121097265Y-92134148D01*
X121097270Y-92134151D01*
X121270192Y-92211142D01*
X121270197Y-92211144D01*
X121455354Y-92250500D01*
X121455355Y-92250500D01*
X121644644Y-92250500D01*
X121644646Y-92250500D01*
X121829803Y-92211144D01*
X122002730Y-92134151D01*
X122155871Y-92022888D01*
X122282533Y-91882216D01*
X122377179Y-91718284D01*
X122435674Y-91538256D01*
X122455460Y-91350000D01*
X122435674Y-91161744D01*
X122377179Y-90981716D01*
X122282533Y-90817784D01*
X122232468Y-90762181D01*
X122207350Y-90734284D01*
X122177120Y-90671292D01*
X122175500Y-90651312D01*
X122175500Y-87125316D01*
X122195185Y-87058277D01*
X122211819Y-87037635D01*
X122317502Y-86931952D01*
X122378825Y-86898467D01*
X122405183Y-86895633D01*
X122464375Y-86895633D01*
X122464377Y-86895633D01*
X122649534Y-86856277D01*
X122822461Y-86779284D01*
X122975602Y-86668021D01*
X123102264Y-86527349D01*
X123196910Y-86363417D01*
X123255405Y-86183389D01*
X123275191Y-85995133D01*
X123261246Y-85862458D01*
X123273815Y-85793732D01*
X123321547Y-85742708D01*
X123384567Y-85725500D01*
X129529153Y-85725500D01*
X129552385Y-85727696D01*
X129553989Y-85728001D01*
X129560412Y-85729227D01*
X129617724Y-85725621D01*
X129621597Y-85725500D01*
X129639342Y-85725500D01*
X129639350Y-85725500D01*
X129656990Y-85723271D01*
X129660807Y-85722910D01*
X129718138Y-85719304D01*
X129725905Y-85716780D01*
X129748680Y-85711688D01*
X129756792Y-85710664D01*
X129810195Y-85689519D01*
X129813835Y-85688209D01*
X129868441Y-85670467D01*
X129875337Y-85666090D01*
X129896133Y-85655494D01*
X129903732Y-85652486D01*
X129950191Y-85618730D01*
X129953390Y-85616555D01*
X130001877Y-85585786D01*
X130007466Y-85579833D01*
X130024979Y-85564394D01*
X130031587Y-85559594D01*
X130068190Y-85515347D01*
X130070736Y-85512457D01*
X130110062Y-85470582D01*
X130113998Y-85463421D01*
X130127119Y-85444114D01*
X130132324Y-85437823D01*
X130156769Y-85385874D01*
X130158528Y-85382419D01*
X130186197Y-85332092D01*
X130188227Y-85324181D01*
X130196135Y-85302218D01*
X130199614Y-85294826D01*
X130210377Y-85238401D01*
X130211210Y-85234670D01*
X130225500Y-85179019D01*
X130225500Y-85170844D01*
X130227697Y-85147606D01*
X130229227Y-85139588D01*
X130225621Y-85082275D01*
X130225500Y-85078403D01*
X130225500Y-75610452D01*
X130245185Y-75543413D01*
X130261819Y-75522771D01*
X137497772Y-68286819D01*
X137559095Y-68253334D01*
X137585453Y-68250500D01*
X137644644Y-68250500D01*
X137644646Y-68250500D01*
X137829803Y-68211144D01*
X138002730Y-68134151D01*
X138155871Y-68022888D01*
X138282533Y-67882216D01*
X138377179Y-67718284D01*
X138435674Y-67538256D01*
X138455460Y-67350000D01*
X138435674Y-67161744D01*
X138377179Y-66981716D01*
X138282533Y-66817784D01*
X138251188Y-66782972D01*
X138220958Y-66719981D01*
X138229583Y-66650645D01*
X138251188Y-66617028D01*
X138252915Y-66615109D01*
X138282533Y-66582216D01*
X138377179Y-66418284D01*
X138435674Y-66238256D01*
X138455460Y-66050000D01*
X138435674Y-65861744D01*
X138377179Y-65681716D01*
X138282533Y-65517784D01*
X138155871Y-65377112D01*
X138155870Y-65377111D01*
X138002734Y-65265851D01*
X138002729Y-65265848D01*
X137829807Y-65188857D01*
X137829802Y-65188855D01*
X137684001Y-65157865D01*
X137644646Y-65149500D01*
X137455354Y-65149500D01*
X137422897Y-65156398D01*
X137270197Y-65188855D01*
X137270192Y-65188857D01*
X137097270Y-65265848D01*
X137097265Y-65265851D01*
X136944129Y-65377111D01*
X136817466Y-65517785D01*
X136722821Y-65681715D01*
X136722818Y-65681722D01*
X136694671Y-65768351D01*
X136664326Y-65861744D01*
X136656405Y-65937105D01*
X136646678Y-66029651D01*
X136620093Y-66094266D01*
X136611038Y-66104370D01*
X124366208Y-78349199D01*
X124353951Y-78359020D01*
X124354134Y-78359241D01*
X124348123Y-78364213D01*
X124300772Y-78414636D01*
X124279889Y-78435519D01*
X124279877Y-78435532D01*
X124275621Y-78441017D01*
X124271837Y-78445447D01*
X124239937Y-78479418D01*
X124239936Y-78479420D01*
X124230284Y-78496976D01*
X124219610Y-78513226D01*
X124207329Y-78529061D01*
X124207324Y-78529068D01*
X124188815Y-78571838D01*
X124186245Y-78577084D01*
X124163803Y-78617906D01*
X124158822Y-78637307D01*
X124152521Y-78655710D01*
X124144562Y-78674102D01*
X124144561Y-78674105D01*
X124137271Y-78720127D01*
X124136087Y-78725846D01*
X124124501Y-78770972D01*
X124124500Y-78770982D01*
X124124500Y-78791016D01*
X124122973Y-78810415D01*
X124119840Y-78830194D01*
X124119840Y-78830195D01*
X124124225Y-78876583D01*
X124124500Y-78882421D01*
X124124500Y-81601312D01*
X124104815Y-81668351D01*
X124092650Y-81684284D01*
X124017466Y-81767784D01*
X123922821Y-81931715D01*
X123922818Y-81931722D01*
X123868142Y-82100000D01*
X123864326Y-82111744D01*
X123844540Y-82300000D01*
X123864326Y-82488256D01*
X123864327Y-82488259D01*
X123922818Y-82668277D01*
X123922821Y-82668284D01*
X124017467Y-82832216D01*
X124112879Y-82938181D01*
X124144129Y-82972888D01*
X124297265Y-83084148D01*
X124297270Y-83084151D01*
X124470192Y-83161142D01*
X124470197Y-83161144D01*
X124655354Y-83200500D01*
X124655355Y-83200500D01*
X124844644Y-83200500D01*
X124844646Y-83200500D01*
X125029803Y-83161144D01*
X125202730Y-83084151D01*
X125355871Y-82972888D01*
X125482533Y-82832216D01*
X125577179Y-82668284D01*
X125635674Y-82488256D01*
X125655460Y-82300000D01*
X125635674Y-82111744D01*
X125577179Y-81931716D01*
X125482533Y-81767784D01*
X125450063Y-81731722D01*
X125407350Y-81684284D01*
X125377120Y-81621292D01*
X125375500Y-81601312D01*
X125375500Y-79160452D01*
X125395185Y-79093413D01*
X125411819Y-79072771D01*
X128762819Y-75721771D01*
X128824142Y-75688286D01*
X128893834Y-75693270D01*
X128949767Y-75735142D01*
X128974184Y-75800606D01*
X128974500Y-75809452D01*
X128974500Y-84350500D01*
X128954815Y-84417539D01*
X128902011Y-84463294D01*
X128850500Y-84474500D01*
X123102847Y-84474500D01*
X123035808Y-84454815D01*
X122990053Y-84402011D01*
X122980109Y-84332853D01*
X123009134Y-84269297D01*
X123010697Y-84267528D01*
X123030815Y-84245185D01*
X123132533Y-84132216D01*
X123227179Y-83968284D01*
X123285674Y-83788256D01*
X123305460Y-83600000D01*
X123285674Y-83411744D01*
X123227179Y-83231716D01*
X123132533Y-83067784D01*
X123005871Y-82927112D01*
X123005870Y-82927111D01*
X122852734Y-82815851D01*
X122852729Y-82815848D01*
X122679807Y-82738857D01*
X122679802Y-82738855D01*
X122534001Y-82707865D01*
X122494646Y-82699500D01*
X122305354Y-82699500D01*
X122272897Y-82706398D01*
X122120197Y-82738855D01*
X122120192Y-82738857D01*
X121947270Y-82815848D01*
X121947265Y-82815851D01*
X121794130Y-82927110D01*
X121794126Y-82927114D01*
X121788400Y-82933474D01*
X121728913Y-82970121D01*
X121696252Y-82974500D01*
X119785147Y-82974500D01*
X119718108Y-82954815D01*
X119697466Y-82938181D01*
X116661819Y-79902533D01*
X116628334Y-79841210D01*
X116625500Y-79814852D01*
X116625500Y-79224833D01*
X116645185Y-79157794D01*
X116650225Y-79150533D01*
X116693796Y-79092331D01*
X116744091Y-78957483D01*
X116750500Y-78897873D01*
X116750499Y-78502128D01*
X116744091Y-78442517D01*
X116707096Y-78343330D01*
X116702113Y-78273642D01*
X116707092Y-78256680D01*
X116744091Y-78157483D01*
X116750500Y-78097873D01*
X116750499Y-77702128D01*
X116744091Y-77642517D01*
X116741274Y-77634965D01*
X116693797Y-77507671D01*
X116693793Y-77507664D01*
X116641608Y-77437954D01*
X116621800Y-77398245D01*
X116617118Y-77382133D01*
X116613174Y-77363084D01*
X116610664Y-77343208D01*
X116593507Y-77299875D01*
X116591619Y-77294359D01*
X116578619Y-77249612D01*
X116568418Y-77232363D01*
X116559860Y-77214894D01*
X116552486Y-77196268D01*
X116552483Y-77196264D01*
X116552483Y-77196263D01*
X116525098Y-77158571D01*
X116521890Y-77153687D01*
X116498172Y-77113582D01*
X116498163Y-77113571D01*
X116484005Y-77099413D01*
X116471370Y-77084620D01*
X116459593Y-77068412D01*
X116423693Y-77038713D01*
X116419381Y-77034790D01*
X114851757Y-75467166D01*
X114831269Y-75437356D01*
X114830429Y-75437842D01*
X114815771Y-75412454D01*
X114732533Y-75268281D01*
X114605871Y-75127609D01*
X114605870Y-75127608D01*
X114452734Y-75016348D01*
X114452729Y-75016345D01*
X114279807Y-74939354D01*
X114279802Y-74939352D01*
X114134001Y-74908362D01*
X114094646Y-74899997D01*
X113905354Y-74899997D01*
X113872897Y-74906895D01*
X113720197Y-74939352D01*
X113720192Y-74939354D01*
X113547270Y-75016345D01*
X113547265Y-75016348D01*
X113394129Y-75127608D01*
X113267466Y-75268282D01*
X113172821Y-75432212D01*
X113172818Y-75432219D01*
X113114907Y-75610452D01*
X113114326Y-75612241D01*
X113094540Y-75800497D01*
X113098433Y-75837540D01*
X113085863Y-75906270D01*
X113038130Y-75957293D01*
X112975112Y-75974500D01*
X112903748Y-75974500D01*
X112836709Y-75954815D01*
X112811600Y-75933474D01*
X112805873Y-75927114D01*
X112805869Y-75927110D01*
X112652734Y-75815851D01*
X112652729Y-75815848D01*
X112479807Y-75738857D01*
X112479802Y-75738855D01*
X112334001Y-75707865D01*
X112294646Y-75699500D01*
X112105354Y-75699500D01*
X112072897Y-75706398D01*
X111920197Y-75738855D01*
X111920192Y-75738857D01*
X111747270Y-75815848D01*
X111747265Y-75815851D01*
X111594129Y-75927111D01*
X111467466Y-76067785D01*
X111372821Y-76231715D01*
X111372818Y-76231722D01*
X111314327Y-76411740D01*
X111314326Y-76411744D01*
X111294540Y-76600000D01*
X105600000Y-76600000D01*
X105600000Y-61324000D01*
X105619685Y-61256961D01*
X105672489Y-61211206D01*
X105724000Y-61200000D01*
X112525089Y-61200000D01*
X112592128Y-61219685D01*
G37*
%TD.AperFunction*%
%TD*%
M02*
