%TF.GenerationSoftware,KiCad,Pcbnew,7.0.9*%
%TF.CreationDate,2024-03-19T15:39:07-05:00*%
%TF.ProjectId,Humidifier Subsystem,48756d69-6469-4666-9965-722053756273,rev?*%
%TF.SameCoordinates,Original*%
%TF.FileFunction,Soldermask,Bot*%
%TF.FilePolarity,Negative*%
%FSLAX46Y46*%
G04 Gerber Fmt 4.6, Leading zero omitted, Abs format (unit mm)*
G04 Created by KiCad (PCBNEW 7.0.9) date 2024-03-19 15:39:07*
%MOMM*%
%LPD*%
G01*
G04 APERTURE LIST*
G04 Aperture macros list*
%AMRoundRect*
0 Rectangle with rounded corners*
0 $1 Rounding radius*
0 $2 $3 $4 $5 $6 $7 $8 $9 X,Y pos of 4 corners*
0 Add a 4 corners polygon primitive as box body*
4,1,4,$2,$3,$4,$5,$6,$7,$8,$9,$2,$3,0*
0 Add four circle primitives for the rounded corners*
1,1,$1+$1,$2,$3*
1,1,$1+$1,$4,$5*
1,1,$1+$1,$6,$7*
1,1,$1+$1,$8,$9*
0 Add four rect primitives between the rounded corners*
20,1,$1+$1,$2,$3,$4,$5,0*
20,1,$1+$1,$4,$5,$6,$7,0*
20,1,$1+$1,$6,$7,$8,$9,0*
20,1,$1+$1,$8,$9,$2,$3,0*%
G04 Aperture macros list end*
%ADD10RoundRect,0.102000X0.975000X0.975000X-0.975000X0.975000X-0.975000X-0.975000X0.975000X-0.975000X0*%
%ADD11C,2.154000*%
%ADD12R,1.700000X1.700000*%
%ADD13C,1.808000*%
%ADD14O,5.204000X2.704000*%
%ADD15O,4.704000X2.454000*%
%ADD16O,2.454000X4.704000*%
%ADD17O,1.104000X2.004000*%
%ADD18C,3.200000*%
%ADD19RoundRect,0.102000X0.975000X-0.975000X0.975000X0.975000X-0.975000X0.975000X-0.975000X-0.975000X0*%
G04 APERTURE END LIST*
D10*
%TO.C,J4*%
X89400000Y-119400000D03*
D11*
X84400000Y-119400000D03*
X79400000Y-119400000D03*
%TD*%
D12*
%TO.C,J19*%
X140600000Y-68600000D03*
%TD*%
%TO.C,J25*%
X127800000Y-105000000D03*
%TD*%
D10*
%TO.C,J5*%
X72547500Y-119500000D03*
D11*
X67547500Y-119500000D03*
X62547500Y-119500000D03*
%TD*%
D12*
%TO.C,J20*%
X110400000Y-123200000D03*
%TD*%
D13*
%TO.C,K1*%
X73032651Y-91435000D03*
X71032649Y-85435001D03*
X59732654Y-85435001D03*
X59732654Y-97434999D03*
X71032649Y-97434999D03*
%TD*%
D14*
%TO.C,J1*%
X110000000Y-98300000D03*
D15*
X110000000Y-104300000D03*
D16*
X114700000Y-101300000D03*
%TD*%
D12*
%TO.C,J16*%
X141200000Y-97200000D03*
%TD*%
D17*
%TO.C,J2*%
X133700000Y-123400000D03*
X140300000Y-123400000D03*
%TD*%
D12*
%TO.C,J14*%
X98000000Y-82000000D03*
%TD*%
%TO.C,J8*%
X103000000Y-104600000D03*
%TD*%
%TO.C,J22*%
X134200000Y-112200000D03*
%TD*%
D18*
%TO.C,H4*%
X97000000Y-107600000D03*
%TD*%
D12*
%TO.C,J29*%
X91650002Y-74200000D03*
%TD*%
D17*
%TO.C,J3*%
X113600000Y-123400000D03*
X120200000Y-123400000D03*
%TD*%
D12*
%TO.C,J17*%
X121800000Y-97000000D03*
%TD*%
%TO.C,J11*%
X98000000Y-78050000D03*
%TD*%
%TO.C,J28*%
X90532654Y-96635001D03*
%TD*%
%TO.C,J24*%
X120000000Y-93200000D03*
%TD*%
%TO.C,J27*%
X92332654Y-100835001D03*
%TD*%
D19*
%TO.C,J6*%
X48132654Y-96435001D03*
D11*
X48132654Y-91435001D03*
X48132654Y-86435001D03*
%TD*%
D12*
%TO.C,J13*%
X104600000Y-63000000D03*
%TD*%
D19*
%TO.C,J7*%
X48150002Y-74347500D03*
D11*
X48150002Y-69347500D03*
X48150002Y-64347500D03*
%TD*%
D12*
%TO.C,J9*%
X90532654Y-92835001D03*
%TD*%
D13*
%TO.C,K2*%
X72950000Y-69400000D03*
X70949998Y-63400001D03*
X59650003Y-63400001D03*
X59650003Y-75399999D03*
X70949998Y-75399999D03*
%TD*%
D12*
%TO.C,J18*%
X140600000Y-64800000D03*
%TD*%
D18*
%TO.C,H2*%
X49200000Y-117000000D03*
%TD*%
%TO.C,H1*%
X91600000Y-64400000D03*
%TD*%
D12*
%TO.C,J26*%
X92650002Y-78800000D03*
%TD*%
%TO.C,J15*%
X98000000Y-85800000D03*
%TD*%
%TO.C,J10*%
X91650002Y-70000000D03*
%TD*%
%TO.C,J23*%
X141000000Y-111600000D03*
%TD*%
%TO.C,J12*%
X111000000Y-79200000D03*
%TD*%
D18*
%TO.C,H3*%
X113000000Y-90000000D03*
%TD*%
M02*
