%TF.GenerationSoftware,KiCad,Pcbnew,7.0.9*%
%TF.CreationDate,2024-03-19T15:39:07-05:00*%
%TF.ProjectId,Humidifier Subsystem,48756d69-6469-4666-9965-722053756273,rev?*%
%TF.SameCoordinates,Original*%
%TF.FileFunction,Legend,Top*%
%TF.FilePolarity,Positive*%
%FSLAX46Y46*%
G04 Gerber Fmt 4.6, Leading zero omitted, Abs format (unit mm)*
G04 Created by KiCad (PCBNEW 7.0.9) date 2024-03-19 15:39:07*
%MOMM*%
%LPD*%
G01*
G04 APERTURE LIST*
%ADD10C,0.200000*%
%ADD11C,0.150000*%
%ADD12C,0.127000*%
%ADD13C,0.120000*%
%ADD14C,0.152400*%
%ADD15C,0.100000*%
G04 APERTURE END LIST*
D10*
X46922054Y-102603695D02*
X46922054Y-101803695D01*
X46922054Y-102184647D02*
X47379197Y-102184647D01*
X47379197Y-102603695D02*
X47379197Y-101803695D01*
X48103006Y-102070361D02*
X48103006Y-102603695D01*
X47760149Y-102070361D02*
X47760149Y-102489409D01*
X47760149Y-102489409D02*
X47798244Y-102565600D01*
X47798244Y-102565600D02*
X47874434Y-102603695D01*
X47874434Y-102603695D02*
X47988720Y-102603695D01*
X47988720Y-102603695D02*
X48064911Y-102565600D01*
X48064911Y-102565600D02*
X48103006Y-102527504D01*
X48483959Y-102603695D02*
X48483959Y-102070361D01*
X48483959Y-102146552D02*
X48522054Y-102108457D01*
X48522054Y-102108457D02*
X48598244Y-102070361D01*
X48598244Y-102070361D02*
X48712530Y-102070361D01*
X48712530Y-102070361D02*
X48788721Y-102108457D01*
X48788721Y-102108457D02*
X48826816Y-102184647D01*
X48826816Y-102184647D02*
X48826816Y-102603695D01*
X48826816Y-102184647D02*
X48864911Y-102108457D01*
X48864911Y-102108457D02*
X48941102Y-102070361D01*
X48941102Y-102070361D02*
X49055387Y-102070361D01*
X49055387Y-102070361D02*
X49131578Y-102108457D01*
X49131578Y-102108457D02*
X49169673Y-102184647D01*
X49169673Y-102184647D02*
X49169673Y-102603695D01*
X49550626Y-102603695D02*
X49550626Y-102070361D01*
X49550626Y-101803695D02*
X49512530Y-101841790D01*
X49512530Y-101841790D02*
X49550626Y-101879885D01*
X49550626Y-101879885D02*
X49588721Y-101841790D01*
X49588721Y-101841790D02*
X49550626Y-101803695D01*
X49550626Y-101803695D02*
X49550626Y-101879885D01*
X50274435Y-102603695D02*
X50274435Y-101803695D01*
X50274435Y-102565600D02*
X50198244Y-102603695D01*
X50198244Y-102603695D02*
X50045863Y-102603695D01*
X50045863Y-102603695D02*
X49969673Y-102565600D01*
X49969673Y-102565600D02*
X49931578Y-102527504D01*
X49931578Y-102527504D02*
X49893482Y-102451314D01*
X49893482Y-102451314D02*
X49893482Y-102222742D01*
X49893482Y-102222742D02*
X49931578Y-102146552D01*
X49931578Y-102146552D02*
X49969673Y-102108457D01*
X49969673Y-102108457D02*
X50045863Y-102070361D01*
X50045863Y-102070361D02*
X50198244Y-102070361D01*
X50198244Y-102070361D02*
X50274435Y-102108457D01*
X50655388Y-102603695D02*
X50655388Y-102070361D01*
X50655388Y-101803695D02*
X50617292Y-101841790D01*
X50617292Y-101841790D02*
X50655388Y-101879885D01*
X50655388Y-101879885D02*
X50693483Y-101841790D01*
X50693483Y-101841790D02*
X50655388Y-101803695D01*
X50655388Y-101803695D02*
X50655388Y-101879885D01*
X50922054Y-102070361D02*
X51226816Y-102070361D01*
X51036340Y-102603695D02*
X51036340Y-101917980D01*
X51036340Y-101917980D02*
X51074435Y-101841790D01*
X51074435Y-101841790D02*
X51150625Y-101803695D01*
X51150625Y-101803695D02*
X51226816Y-101803695D01*
X51493483Y-102603695D02*
X51493483Y-102070361D01*
X51493483Y-101803695D02*
X51455387Y-101841790D01*
X51455387Y-101841790D02*
X51493483Y-101879885D01*
X51493483Y-101879885D02*
X51531578Y-101841790D01*
X51531578Y-101841790D02*
X51493483Y-101803695D01*
X51493483Y-101803695D02*
X51493483Y-101879885D01*
X52179197Y-102565600D02*
X52103006Y-102603695D01*
X52103006Y-102603695D02*
X51950625Y-102603695D01*
X51950625Y-102603695D02*
X51874435Y-102565600D01*
X51874435Y-102565600D02*
X51836339Y-102489409D01*
X51836339Y-102489409D02*
X51836339Y-102184647D01*
X51836339Y-102184647D02*
X51874435Y-102108457D01*
X51874435Y-102108457D02*
X51950625Y-102070361D01*
X51950625Y-102070361D02*
X52103006Y-102070361D01*
X52103006Y-102070361D02*
X52179197Y-102108457D01*
X52179197Y-102108457D02*
X52217292Y-102184647D01*
X52217292Y-102184647D02*
X52217292Y-102260838D01*
X52217292Y-102260838D02*
X51836339Y-102337028D01*
X52560149Y-102603695D02*
X52560149Y-102070361D01*
X52560149Y-102222742D02*
X52598244Y-102146552D01*
X52598244Y-102146552D02*
X52636339Y-102108457D01*
X52636339Y-102108457D02*
X52712530Y-102070361D01*
X52712530Y-102070361D02*
X52788720Y-102070361D01*
X53626815Y-102565600D02*
X53741101Y-102603695D01*
X53741101Y-102603695D02*
X53931577Y-102603695D01*
X53931577Y-102603695D02*
X54007768Y-102565600D01*
X54007768Y-102565600D02*
X54045863Y-102527504D01*
X54045863Y-102527504D02*
X54083958Y-102451314D01*
X54083958Y-102451314D02*
X54083958Y-102375123D01*
X54083958Y-102375123D02*
X54045863Y-102298933D01*
X54045863Y-102298933D02*
X54007768Y-102260838D01*
X54007768Y-102260838D02*
X53931577Y-102222742D01*
X53931577Y-102222742D02*
X53779196Y-102184647D01*
X53779196Y-102184647D02*
X53703006Y-102146552D01*
X53703006Y-102146552D02*
X53664911Y-102108457D01*
X53664911Y-102108457D02*
X53626815Y-102032266D01*
X53626815Y-102032266D02*
X53626815Y-101956076D01*
X53626815Y-101956076D02*
X53664911Y-101879885D01*
X53664911Y-101879885D02*
X53703006Y-101841790D01*
X53703006Y-101841790D02*
X53779196Y-101803695D01*
X53779196Y-101803695D02*
X53969673Y-101803695D01*
X53969673Y-101803695D02*
X54083958Y-101841790D01*
X54769673Y-102070361D02*
X54769673Y-102603695D01*
X54426816Y-102070361D02*
X54426816Y-102489409D01*
X54426816Y-102489409D02*
X54464911Y-102565600D01*
X54464911Y-102565600D02*
X54541101Y-102603695D01*
X54541101Y-102603695D02*
X54655387Y-102603695D01*
X54655387Y-102603695D02*
X54731578Y-102565600D01*
X54731578Y-102565600D02*
X54769673Y-102527504D01*
X55150626Y-102603695D02*
X55150626Y-101803695D01*
X55150626Y-102108457D02*
X55226816Y-102070361D01*
X55226816Y-102070361D02*
X55379197Y-102070361D01*
X55379197Y-102070361D02*
X55455388Y-102108457D01*
X55455388Y-102108457D02*
X55493483Y-102146552D01*
X55493483Y-102146552D02*
X55531578Y-102222742D01*
X55531578Y-102222742D02*
X55531578Y-102451314D01*
X55531578Y-102451314D02*
X55493483Y-102527504D01*
X55493483Y-102527504D02*
X55455388Y-102565600D01*
X55455388Y-102565600D02*
X55379197Y-102603695D01*
X55379197Y-102603695D02*
X55226816Y-102603695D01*
X55226816Y-102603695D02*
X55150626Y-102565600D01*
X55836340Y-102565600D02*
X55912531Y-102603695D01*
X55912531Y-102603695D02*
X56064912Y-102603695D01*
X56064912Y-102603695D02*
X56141102Y-102565600D01*
X56141102Y-102565600D02*
X56179198Y-102489409D01*
X56179198Y-102489409D02*
X56179198Y-102451314D01*
X56179198Y-102451314D02*
X56141102Y-102375123D01*
X56141102Y-102375123D02*
X56064912Y-102337028D01*
X56064912Y-102337028D02*
X55950626Y-102337028D01*
X55950626Y-102337028D02*
X55874436Y-102298933D01*
X55874436Y-102298933D02*
X55836340Y-102222742D01*
X55836340Y-102222742D02*
X55836340Y-102184647D01*
X55836340Y-102184647D02*
X55874436Y-102108457D01*
X55874436Y-102108457D02*
X55950626Y-102070361D01*
X55950626Y-102070361D02*
X56064912Y-102070361D01*
X56064912Y-102070361D02*
X56141102Y-102108457D01*
X56445864Y-102070361D02*
X56636340Y-102603695D01*
X56826817Y-102070361D02*
X56636340Y-102603695D01*
X56636340Y-102603695D02*
X56560150Y-102794171D01*
X56560150Y-102794171D02*
X56522055Y-102832266D01*
X56522055Y-102832266D02*
X56445864Y-102870361D01*
X57093483Y-102565600D02*
X57169674Y-102603695D01*
X57169674Y-102603695D02*
X57322055Y-102603695D01*
X57322055Y-102603695D02*
X57398245Y-102565600D01*
X57398245Y-102565600D02*
X57436341Y-102489409D01*
X57436341Y-102489409D02*
X57436341Y-102451314D01*
X57436341Y-102451314D02*
X57398245Y-102375123D01*
X57398245Y-102375123D02*
X57322055Y-102337028D01*
X57322055Y-102337028D02*
X57207769Y-102337028D01*
X57207769Y-102337028D02*
X57131579Y-102298933D01*
X57131579Y-102298933D02*
X57093483Y-102222742D01*
X57093483Y-102222742D02*
X57093483Y-102184647D01*
X57093483Y-102184647D02*
X57131579Y-102108457D01*
X57131579Y-102108457D02*
X57207769Y-102070361D01*
X57207769Y-102070361D02*
X57322055Y-102070361D01*
X57322055Y-102070361D02*
X57398245Y-102108457D01*
X57664912Y-102070361D02*
X57969674Y-102070361D01*
X57779198Y-101803695D02*
X57779198Y-102489409D01*
X57779198Y-102489409D02*
X57817293Y-102565600D01*
X57817293Y-102565600D02*
X57893483Y-102603695D01*
X57893483Y-102603695D02*
X57969674Y-102603695D01*
X58541103Y-102565600D02*
X58464912Y-102603695D01*
X58464912Y-102603695D02*
X58312531Y-102603695D01*
X58312531Y-102603695D02*
X58236341Y-102565600D01*
X58236341Y-102565600D02*
X58198245Y-102489409D01*
X58198245Y-102489409D02*
X58198245Y-102184647D01*
X58198245Y-102184647D02*
X58236341Y-102108457D01*
X58236341Y-102108457D02*
X58312531Y-102070361D01*
X58312531Y-102070361D02*
X58464912Y-102070361D01*
X58464912Y-102070361D02*
X58541103Y-102108457D01*
X58541103Y-102108457D02*
X58579198Y-102184647D01*
X58579198Y-102184647D02*
X58579198Y-102260838D01*
X58579198Y-102260838D02*
X58198245Y-102337028D01*
X58922055Y-102603695D02*
X58922055Y-102070361D01*
X58922055Y-102146552D02*
X58960150Y-102108457D01*
X58960150Y-102108457D02*
X59036340Y-102070361D01*
X59036340Y-102070361D02*
X59150626Y-102070361D01*
X59150626Y-102070361D02*
X59226817Y-102108457D01*
X59226817Y-102108457D02*
X59264912Y-102184647D01*
X59264912Y-102184647D02*
X59264912Y-102603695D01*
X59264912Y-102184647D02*
X59303007Y-102108457D01*
X59303007Y-102108457D02*
X59379198Y-102070361D01*
X59379198Y-102070361D02*
X59493483Y-102070361D01*
X59493483Y-102070361D02*
X59569674Y-102108457D01*
X59569674Y-102108457D02*
X59607769Y-102184647D01*
X59607769Y-102184647D02*
X59607769Y-102603695D01*
X60483960Y-101803695D02*
X60941103Y-101803695D01*
X60712531Y-102603695D02*
X60712531Y-101803695D01*
X61512532Y-102565600D02*
X61436341Y-102603695D01*
X61436341Y-102603695D02*
X61283960Y-102603695D01*
X61283960Y-102603695D02*
X61207770Y-102565600D01*
X61207770Y-102565600D02*
X61169674Y-102489409D01*
X61169674Y-102489409D02*
X61169674Y-102184647D01*
X61169674Y-102184647D02*
X61207770Y-102108457D01*
X61207770Y-102108457D02*
X61283960Y-102070361D01*
X61283960Y-102070361D02*
X61436341Y-102070361D01*
X61436341Y-102070361D02*
X61512532Y-102108457D01*
X61512532Y-102108457D02*
X61550627Y-102184647D01*
X61550627Y-102184647D02*
X61550627Y-102260838D01*
X61550627Y-102260838D02*
X61169674Y-102337028D01*
X61855388Y-102565600D02*
X61931579Y-102603695D01*
X61931579Y-102603695D02*
X62083960Y-102603695D01*
X62083960Y-102603695D02*
X62160150Y-102565600D01*
X62160150Y-102565600D02*
X62198246Y-102489409D01*
X62198246Y-102489409D02*
X62198246Y-102451314D01*
X62198246Y-102451314D02*
X62160150Y-102375123D01*
X62160150Y-102375123D02*
X62083960Y-102337028D01*
X62083960Y-102337028D02*
X61969674Y-102337028D01*
X61969674Y-102337028D02*
X61893484Y-102298933D01*
X61893484Y-102298933D02*
X61855388Y-102222742D01*
X61855388Y-102222742D02*
X61855388Y-102184647D01*
X61855388Y-102184647D02*
X61893484Y-102108457D01*
X61893484Y-102108457D02*
X61969674Y-102070361D01*
X61969674Y-102070361D02*
X62083960Y-102070361D01*
X62083960Y-102070361D02*
X62160150Y-102108457D01*
X62426817Y-102070361D02*
X62731579Y-102070361D01*
X62541103Y-101803695D02*
X62541103Y-102489409D01*
X62541103Y-102489409D02*
X62579198Y-102565600D01*
X62579198Y-102565600D02*
X62655388Y-102603695D01*
X62655388Y-102603695D02*
X62731579Y-102603695D01*
X62998246Y-102603695D02*
X62998246Y-101803695D01*
X62998246Y-102108457D02*
X63074436Y-102070361D01*
X63074436Y-102070361D02*
X63226817Y-102070361D01*
X63226817Y-102070361D02*
X63303008Y-102108457D01*
X63303008Y-102108457D02*
X63341103Y-102146552D01*
X63341103Y-102146552D02*
X63379198Y-102222742D01*
X63379198Y-102222742D02*
X63379198Y-102451314D01*
X63379198Y-102451314D02*
X63341103Y-102527504D01*
X63341103Y-102527504D02*
X63303008Y-102565600D01*
X63303008Y-102565600D02*
X63226817Y-102603695D01*
X63226817Y-102603695D02*
X63074436Y-102603695D01*
X63074436Y-102603695D02*
X62998246Y-102565600D01*
X63836341Y-102603695D02*
X63760151Y-102565600D01*
X63760151Y-102565600D02*
X63722056Y-102527504D01*
X63722056Y-102527504D02*
X63683960Y-102451314D01*
X63683960Y-102451314D02*
X63683960Y-102222742D01*
X63683960Y-102222742D02*
X63722056Y-102146552D01*
X63722056Y-102146552D02*
X63760151Y-102108457D01*
X63760151Y-102108457D02*
X63836341Y-102070361D01*
X63836341Y-102070361D02*
X63950627Y-102070361D01*
X63950627Y-102070361D02*
X64026818Y-102108457D01*
X64026818Y-102108457D02*
X64064913Y-102146552D01*
X64064913Y-102146552D02*
X64103008Y-102222742D01*
X64103008Y-102222742D02*
X64103008Y-102451314D01*
X64103008Y-102451314D02*
X64064913Y-102527504D01*
X64064913Y-102527504D02*
X64026818Y-102565600D01*
X64026818Y-102565600D02*
X63950627Y-102603695D01*
X63950627Y-102603695D02*
X63836341Y-102603695D01*
X64788723Y-102603695D02*
X64788723Y-102184647D01*
X64788723Y-102184647D02*
X64750628Y-102108457D01*
X64750628Y-102108457D02*
X64674437Y-102070361D01*
X64674437Y-102070361D02*
X64522056Y-102070361D01*
X64522056Y-102070361D02*
X64445866Y-102108457D01*
X64788723Y-102565600D02*
X64712532Y-102603695D01*
X64712532Y-102603695D02*
X64522056Y-102603695D01*
X64522056Y-102603695D02*
X64445866Y-102565600D01*
X64445866Y-102565600D02*
X64407770Y-102489409D01*
X64407770Y-102489409D02*
X64407770Y-102413219D01*
X64407770Y-102413219D02*
X64445866Y-102337028D01*
X64445866Y-102337028D02*
X64522056Y-102298933D01*
X64522056Y-102298933D02*
X64712532Y-102298933D01*
X64712532Y-102298933D02*
X64788723Y-102260838D01*
X65169676Y-102603695D02*
X65169676Y-102070361D01*
X65169676Y-102222742D02*
X65207771Y-102146552D01*
X65207771Y-102146552D02*
X65245866Y-102108457D01*
X65245866Y-102108457D02*
X65322057Y-102070361D01*
X65322057Y-102070361D02*
X65398247Y-102070361D01*
X66007771Y-102603695D02*
X66007771Y-101803695D01*
X66007771Y-102565600D02*
X65931580Y-102603695D01*
X65931580Y-102603695D02*
X65779199Y-102603695D01*
X65779199Y-102603695D02*
X65703009Y-102565600D01*
X65703009Y-102565600D02*
X65664914Y-102527504D01*
X65664914Y-102527504D02*
X65626818Y-102451314D01*
X65626818Y-102451314D02*
X65626818Y-102222742D01*
X65626818Y-102222742D02*
X65664914Y-102146552D01*
X65664914Y-102146552D02*
X65703009Y-102108457D01*
X65703009Y-102108457D02*
X65779199Y-102070361D01*
X65779199Y-102070361D02*
X65931580Y-102070361D01*
X65931580Y-102070361D02*
X66007771Y-102108457D01*
X48141102Y-103472647D02*
X48407768Y-103472647D01*
X48522054Y-103891695D02*
X48141102Y-103891695D01*
X48141102Y-103891695D02*
X48141102Y-103091695D01*
X48141102Y-103091695D02*
X48522054Y-103091695D01*
X49322055Y-103815504D02*
X49283959Y-103853600D01*
X49283959Y-103853600D02*
X49169674Y-103891695D01*
X49169674Y-103891695D02*
X49093483Y-103891695D01*
X49093483Y-103891695D02*
X48979197Y-103853600D01*
X48979197Y-103853600D02*
X48903007Y-103777409D01*
X48903007Y-103777409D02*
X48864912Y-103701219D01*
X48864912Y-103701219D02*
X48826816Y-103548838D01*
X48826816Y-103548838D02*
X48826816Y-103434552D01*
X48826816Y-103434552D02*
X48864912Y-103282171D01*
X48864912Y-103282171D02*
X48903007Y-103205980D01*
X48903007Y-103205980D02*
X48979197Y-103129790D01*
X48979197Y-103129790D02*
X49093483Y-103091695D01*
X49093483Y-103091695D02*
X49169674Y-103091695D01*
X49169674Y-103091695D02*
X49283959Y-103129790D01*
X49283959Y-103129790D02*
X49322055Y-103167885D01*
X49664912Y-103472647D02*
X49931578Y-103472647D01*
X50045864Y-103891695D02*
X49664912Y-103891695D01*
X49664912Y-103891695D02*
X49664912Y-103091695D01*
X49664912Y-103091695D02*
X50045864Y-103091695D01*
X50731579Y-103358361D02*
X50731579Y-103891695D01*
X50541103Y-103053600D02*
X50350626Y-103625028D01*
X50350626Y-103625028D02*
X50845865Y-103625028D01*
X51493484Y-103358361D02*
X51493484Y-103891695D01*
X51303008Y-103053600D02*
X51112531Y-103625028D01*
X51112531Y-103625028D02*
X51607770Y-103625028D01*
X52293484Y-103091695D02*
X51912532Y-103091695D01*
X51912532Y-103091695D02*
X51874436Y-103472647D01*
X51874436Y-103472647D02*
X51912532Y-103434552D01*
X51912532Y-103434552D02*
X51988722Y-103396457D01*
X51988722Y-103396457D02*
X52179198Y-103396457D01*
X52179198Y-103396457D02*
X52255389Y-103434552D01*
X52255389Y-103434552D02*
X52293484Y-103472647D01*
X52293484Y-103472647D02*
X52331579Y-103548838D01*
X52331579Y-103548838D02*
X52331579Y-103739314D01*
X52331579Y-103739314D02*
X52293484Y-103815504D01*
X52293484Y-103815504D02*
X52255389Y-103853600D01*
X52255389Y-103853600D02*
X52179198Y-103891695D01*
X52179198Y-103891695D02*
X51988722Y-103891695D01*
X51988722Y-103891695D02*
X51912532Y-103853600D01*
X51912532Y-103853600D02*
X51874436Y-103815504D01*
X52674437Y-103586933D02*
X53283961Y-103586933D01*
X53626817Y-103853600D02*
X53741103Y-103891695D01*
X53741103Y-103891695D02*
X53931579Y-103891695D01*
X53931579Y-103891695D02*
X54007770Y-103853600D01*
X54007770Y-103853600D02*
X54045865Y-103815504D01*
X54045865Y-103815504D02*
X54083960Y-103739314D01*
X54083960Y-103739314D02*
X54083960Y-103663123D01*
X54083960Y-103663123D02*
X54045865Y-103586933D01*
X54045865Y-103586933D02*
X54007770Y-103548838D01*
X54007770Y-103548838D02*
X53931579Y-103510742D01*
X53931579Y-103510742D02*
X53779198Y-103472647D01*
X53779198Y-103472647D02*
X53703008Y-103434552D01*
X53703008Y-103434552D02*
X53664913Y-103396457D01*
X53664913Y-103396457D02*
X53626817Y-103320266D01*
X53626817Y-103320266D02*
X53626817Y-103244076D01*
X53626817Y-103244076D02*
X53664913Y-103167885D01*
X53664913Y-103167885D02*
X53703008Y-103129790D01*
X53703008Y-103129790D02*
X53779198Y-103091695D01*
X53779198Y-103091695D02*
X53969675Y-103091695D01*
X53969675Y-103091695D02*
X54083960Y-103129790D01*
X54426818Y-103891695D02*
X54426818Y-103091695D01*
X54426818Y-103091695D02*
X54731580Y-103091695D01*
X54731580Y-103091695D02*
X54807770Y-103129790D01*
X54807770Y-103129790D02*
X54845865Y-103167885D01*
X54845865Y-103167885D02*
X54883961Y-103244076D01*
X54883961Y-103244076D02*
X54883961Y-103358361D01*
X54883961Y-103358361D02*
X54845865Y-103434552D01*
X54845865Y-103434552D02*
X54807770Y-103472647D01*
X54807770Y-103472647D02*
X54731580Y-103510742D01*
X54731580Y-103510742D02*
X54426818Y-103510742D01*
X55188722Y-103167885D02*
X55226818Y-103129790D01*
X55226818Y-103129790D02*
X55303008Y-103091695D01*
X55303008Y-103091695D02*
X55493484Y-103091695D01*
X55493484Y-103091695D02*
X55569675Y-103129790D01*
X55569675Y-103129790D02*
X55607770Y-103167885D01*
X55607770Y-103167885D02*
X55645865Y-103244076D01*
X55645865Y-103244076D02*
X55645865Y-103320266D01*
X55645865Y-103320266D02*
X55607770Y-103434552D01*
X55607770Y-103434552D02*
X55150627Y-103891695D01*
X55150627Y-103891695D02*
X55645865Y-103891695D01*
X56331580Y-103358361D02*
X56331580Y-103891695D01*
X56141104Y-103053600D02*
X55950627Y-103625028D01*
X55950627Y-103625028D02*
X56445866Y-103625028D01*
X57245866Y-103091695D02*
X57703009Y-103091695D01*
X57474437Y-103891695D02*
X57474437Y-103091695D01*
X58274438Y-103853600D02*
X58198247Y-103891695D01*
X58198247Y-103891695D02*
X58045866Y-103891695D01*
X58045866Y-103891695D02*
X57969676Y-103853600D01*
X57969676Y-103853600D02*
X57931580Y-103777409D01*
X57931580Y-103777409D02*
X57931580Y-103472647D01*
X57931580Y-103472647D02*
X57969676Y-103396457D01*
X57969676Y-103396457D02*
X58045866Y-103358361D01*
X58045866Y-103358361D02*
X58198247Y-103358361D01*
X58198247Y-103358361D02*
X58274438Y-103396457D01*
X58274438Y-103396457D02*
X58312533Y-103472647D01*
X58312533Y-103472647D02*
X58312533Y-103548838D01*
X58312533Y-103548838D02*
X57931580Y-103625028D01*
X58998247Y-103891695D02*
X58998247Y-103472647D01*
X58998247Y-103472647D02*
X58960152Y-103396457D01*
X58960152Y-103396457D02*
X58883961Y-103358361D01*
X58883961Y-103358361D02*
X58731580Y-103358361D01*
X58731580Y-103358361D02*
X58655390Y-103396457D01*
X58998247Y-103853600D02*
X58922056Y-103891695D01*
X58922056Y-103891695D02*
X58731580Y-103891695D01*
X58731580Y-103891695D02*
X58655390Y-103853600D01*
X58655390Y-103853600D02*
X58617294Y-103777409D01*
X58617294Y-103777409D02*
X58617294Y-103701219D01*
X58617294Y-103701219D02*
X58655390Y-103625028D01*
X58655390Y-103625028D02*
X58731580Y-103586933D01*
X58731580Y-103586933D02*
X58922056Y-103586933D01*
X58922056Y-103586933D02*
X58998247Y-103548838D01*
X59379200Y-103891695D02*
X59379200Y-103358361D01*
X59379200Y-103434552D02*
X59417295Y-103396457D01*
X59417295Y-103396457D02*
X59493485Y-103358361D01*
X59493485Y-103358361D02*
X59607771Y-103358361D01*
X59607771Y-103358361D02*
X59683962Y-103396457D01*
X59683962Y-103396457D02*
X59722057Y-103472647D01*
X59722057Y-103472647D02*
X59722057Y-103891695D01*
X59722057Y-103472647D02*
X59760152Y-103396457D01*
X59760152Y-103396457D02*
X59836343Y-103358361D01*
X59836343Y-103358361D02*
X59950628Y-103358361D01*
X59950628Y-103358361D02*
X60026819Y-103396457D01*
X60026819Y-103396457D02*
X60064914Y-103472647D01*
X60064914Y-103472647D02*
X60064914Y-103891695D01*
X61474438Y-103891695D02*
X61017295Y-103891695D01*
X61245867Y-103891695D02*
X61245867Y-103091695D01*
X61245867Y-103091695D02*
X61169676Y-103205980D01*
X61169676Y-103205980D02*
X61093486Y-103282171D01*
X61093486Y-103282171D02*
X61017295Y-103320266D01*
X62236343Y-103891695D02*
X61779200Y-103891695D01*
X62007772Y-103891695D02*
X62007772Y-103091695D01*
X62007772Y-103091695D02*
X61931581Y-103205980D01*
X61931581Y-103205980D02*
X61855391Y-103282171D01*
X61855391Y-103282171D02*
X61779200Y-103320266D01*
D11*
X133070112Y-103946009D02*
X133212969Y-103993628D01*
X133212969Y-103993628D02*
X133260588Y-104041247D01*
X133260588Y-104041247D02*
X133308207Y-104136485D01*
X133308207Y-104136485D02*
X133308207Y-104279342D01*
X133308207Y-104279342D02*
X133260588Y-104374580D01*
X133260588Y-104374580D02*
X133212969Y-104422200D01*
X133212969Y-104422200D02*
X133117731Y-104469819D01*
X133117731Y-104469819D02*
X132736779Y-104469819D01*
X132736779Y-104469819D02*
X132736779Y-103469819D01*
X132736779Y-103469819D02*
X133070112Y-103469819D01*
X133070112Y-103469819D02*
X133165350Y-103517438D01*
X133165350Y-103517438D02*
X133212969Y-103565057D01*
X133212969Y-103565057D02*
X133260588Y-103660295D01*
X133260588Y-103660295D02*
X133260588Y-103755533D01*
X133260588Y-103755533D02*
X133212969Y-103850771D01*
X133212969Y-103850771D02*
X133165350Y-103898390D01*
X133165350Y-103898390D02*
X133070112Y-103946009D01*
X133070112Y-103946009D02*
X132736779Y-103946009D01*
X133927255Y-103469819D02*
X134117731Y-103469819D01*
X134117731Y-103469819D02*
X134212969Y-103517438D01*
X134212969Y-103517438D02*
X134308207Y-103612676D01*
X134308207Y-103612676D02*
X134355826Y-103803152D01*
X134355826Y-103803152D02*
X134355826Y-104136485D01*
X134355826Y-104136485D02*
X134308207Y-104326961D01*
X134308207Y-104326961D02*
X134212969Y-104422200D01*
X134212969Y-104422200D02*
X134117731Y-104469819D01*
X134117731Y-104469819D02*
X133927255Y-104469819D01*
X133927255Y-104469819D02*
X133832017Y-104422200D01*
X133832017Y-104422200D02*
X133736779Y-104326961D01*
X133736779Y-104326961D02*
X133689160Y-104136485D01*
X133689160Y-104136485D02*
X133689160Y-103803152D01*
X133689160Y-103803152D02*
X133736779Y-103612676D01*
X133736779Y-103612676D02*
X133832017Y-103517438D01*
X133832017Y-103517438D02*
X133927255Y-103469819D01*
X134974874Y-103469819D02*
X135165350Y-103469819D01*
X135165350Y-103469819D02*
X135260588Y-103517438D01*
X135260588Y-103517438D02*
X135355826Y-103612676D01*
X135355826Y-103612676D02*
X135403445Y-103803152D01*
X135403445Y-103803152D02*
X135403445Y-104136485D01*
X135403445Y-104136485D02*
X135355826Y-104326961D01*
X135355826Y-104326961D02*
X135260588Y-104422200D01*
X135260588Y-104422200D02*
X135165350Y-104469819D01*
X135165350Y-104469819D02*
X134974874Y-104469819D01*
X134974874Y-104469819D02*
X134879636Y-104422200D01*
X134879636Y-104422200D02*
X134784398Y-104326961D01*
X134784398Y-104326961D02*
X134736779Y-104136485D01*
X134736779Y-104136485D02*
X134736779Y-103803152D01*
X134736779Y-103803152D02*
X134784398Y-103612676D01*
X134784398Y-103612676D02*
X134879636Y-103517438D01*
X134879636Y-103517438D02*
X134974874Y-103469819D01*
X135689160Y-103469819D02*
X136260588Y-103469819D01*
X135974874Y-104469819D02*
X135974874Y-103469819D01*
X118308207Y-104469819D02*
X117974874Y-103993628D01*
X117736779Y-104469819D02*
X117736779Y-103469819D01*
X117736779Y-103469819D02*
X118117731Y-103469819D01*
X118117731Y-103469819D02*
X118212969Y-103517438D01*
X118212969Y-103517438D02*
X118260588Y-103565057D01*
X118260588Y-103565057D02*
X118308207Y-103660295D01*
X118308207Y-103660295D02*
X118308207Y-103803152D01*
X118308207Y-103803152D02*
X118260588Y-103898390D01*
X118260588Y-103898390D02*
X118212969Y-103946009D01*
X118212969Y-103946009D02*
X118117731Y-103993628D01*
X118117731Y-103993628D02*
X117736779Y-103993628D01*
X118736779Y-103946009D02*
X119070112Y-103946009D01*
X119212969Y-104469819D02*
X118736779Y-104469819D01*
X118736779Y-104469819D02*
X118736779Y-103469819D01*
X118736779Y-103469819D02*
X119212969Y-103469819D01*
X119593922Y-104422200D02*
X119736779Y-104469819D01*
X119736779Y-104469819D02*
X119974874Y-104469819D01*
X119974874Y-104469819D02*
X120070112Y-104422200D01*
X120070112Y-104422200D02*
X120117731Y-104374580D01*
X120117731Y-104374580D02*
X120165350Y-104279342D01*
X120165350Y-104279342D02*
X120165350Y-104184104D01*
X120165350Y-104184104D02*
X120117731Y-104088866D01*
X120117731Y-104088866D02*
X120070112Y-104041247D01*
X120070112Y-104041247D02*
X119974874Y-103993628D01*
X119974874Y-103993628D02*
X119784398Y-103946009D01*
X119784398Y-103946009D02*
X119689160Y-103898390D01*
X119689160Y-103898390D02*
X119641541Y-103850771D01*
X119641541Y-103850771D02*
X119593922Y-103755533D01*
X119593922Y-103755533D02*
X119593922Y-103660295D01*
X119593922Y-103660295D02*
X119641541Y-103565057D01*
X119641541Y-103565057D02*
X119689160Y-103517438D01*
X119689160Y-103517438D02*
X119784398Y-103469819D01*
X119784398Y-103469819D02*
X120022493Y-103469819D01*
X120022493Y-103469819D02*
X120165350Y-103517438D01*
X120593922Y-103946009D02*
X120927255Y-103946009D01*
X121070112Y-104469819D02*
X120593922Y-104469819D01*
X120593922Y-104469819D02*
X120593922Y-103469819D01*
X120593922Y-103469819D02*
X121070112Y-103469819D01*
X121355827Y-103469819D02*
X121927255Y-103469819D01*
X121641541Y-104469819D02*
X121641541Y-103469819D01*
X139790476Y-70854819D02*
X139790476Y-71569104D01*
X139790476Y-71569104D02*
X139742857Y-71711961D01*
X139742857Y-71711961D02*
X139647619Y-71807200D01*
X139647619Y-71807200D02*
X139504762Y-71854819D01*
X139504762Y-71854819D02*
X139409524Y-71854819D01*
X140790476Y-71854819D02*
X140219048Y-71854819D01*
X140504762Y-71854819D02*
X140504762Y-70854819D01*
X140504762Y-70854819D02*
X140409524Y-70997676D01*
X140409524Y-70997676D02*
X140314286Y-71092914D01*
X140314286Y-71092914D02*
X140219048Y-71140533D01*
X141266667Y-71854819D02*
X141457143Y-71854819D01*
X141457143Y-71854819D02*
X141552381Y-71807200D01*
X141552381Y-71807200D02*
X141600000Y-71759580D01*
X141600000Y-71759580D02*
X141695238Y-71616723D01*
X141695238Y-71616723D02*
X141742857Y-71426247D01*
X141742857Y-71426247D02*
X141742857Y-71045295D01*
X141742857Y-71045295D02*
X141695238Y-70950057D01*
X141695238Y-70950057D02*
X141647619Y-70902438D01*
X141647619Y-70902438D02*
X141552381Y-70854819D01*
X141552381Y-70854819D02*
X141361905Y-70854819D01*
X141361905Y-70854819D02*
X141266667Y-70902438D01*
X141266667Y-70902438D02*
X141219048Y-70950057D01*
X141219048Y-70950057D02*
X141171429Y-71045295D01*
X141171429Y-71045295D02*
X141171429Y-71283390D01*
X141171429Y-71283390D02*
X141219048Y-71378628D01*
X141219048Y-71378628D02*
X141266667Y-71426247D01*
X141266667Y-71426247D02*
X141361905Y-71473866D01*
X141361905Y-71473866D02*
X141552381Y-71473866D01*
X141552381Y-71473866D02*
X141647619Y-71426247D01*
X141647619Y-71426247D02*
X141695238Y-71378628D01*
X141695238Y-71378628D02*
X141742857Y-71283390D01*
X126190476Y-107054819D02*
X126190476Y-107769104D01*
X126190476Y-107769104D02*
X126142857Y-107911961D01*
X126142857Y-107911961D02*
X126047619Y-108007200D01*
X126047619Y-108007200D02*
X125904762Y-108054819D01*
X125904762Y-108054819D02*
X125809524Y-108054819D01*
X126619048Y-107150057D02*
X126666667Y-107102438D01*
X126666667Y-107102438D02*
X126761905Y-107054819D01*
X126761905Y-107054819D02*
X127000000Y-107054819D01*
X127000000Y-107054819D02*
X127095238Y-107102438D01*
X127095238Y-107102438D02*
X127142857Y-107150057D01*
X127142857Y-107150057D02*
X127190476Y-107245295D01*
X127190476Y-107245295D02*
X127190476Y-107340533D01*
X127190476Y-107340533D02*
X127142857Y-107483390D01*
X127142857Y-107483390D02*
X126571429Y-108054819D01*
X126571429Y-108054819D02*
X127190476Y-108054819D01*
X128095238Y-107054819D02*
X127619048Y-107054819D01*
X127619048Y-107054819D02*
X127571429Y-107531009D01*
X127571429Y-107531009D02*
X127619048Y-107483390D01*
X127619048Y-107483390D02*
X127714286Y-107435771D01*
X127714286Y-107435771D02*
X127952381Y-107435771D01*
X127952381Y-107435771D02*
X128047619Y-107483390D01*
X128047619Y-107483390D02*
X128095238Y-107531009D01*
X128095238Y-107531009D02*
X128142857Y-107626247D01*
X128142857Y-107626247D02*
X128142857Y-107864342D01*
X128142857Y-107864342D02*
X128095238Y-107959580D01*
X128095238Y-107959580D02*
X128047619Y-108007200D01*
X128047619Y-108007200D02*
X127952381Y-108054819D01*
X127952381Y-108054819D02*
X127714286Y-108054819D01*
X127714286Y-108054819D02*
X127619048Y-108007200D01*
X127619048Y-108007200D02*
X127571429Y-107959580D01*
X109590476Y-119884819D02*
X109590476Y-120599104D01*
X109590476Y-120599104D02*
X109542857Y-120741961D01*
X109542857Y-120741961D02*
X109447619Y-120837200D01*
X109447619Y-120837200D02*
X109304762Y-120884819D01*
X109304762Y-120884819D02*
X109209524Y-120884819D01*
X110019048Y-119980057D02*
X110066667Y-119932438D01*
X110066667Y-119932438D02*
X110161905Y-119884819D01*
X110161905Y-119884819D02*
X110400000Y-119884819D01*
X110400000Y-119884819D02*
X110495238Y-119932438D01*
X110495238Y-119932438D02*
X110542857Y-119980057D01*
X110542857Y-119980057D02*
X110590476Y-120075295D01*
X110590476Y-120075295D02*
X110590476Y-120170533D01*
X110590476Y-120170533D02*
X110542857Y-120313390D01*
X110542857Y-120313390D02*
X109971429Y-120884819D01*
X109971429Y-120884819D02*
X110590476Y-120884819D01*
X111209524Y-119884819D02*
X111304762Y-119884819D01*
X111304762Y-119884819D02*
X111400000Y-119932438D01*
X111400000Y-119932438D02*
X111447619Y-119980057D01*
X111447619Y-119980057D02*
X111495238Y-120075295D01*
X111495238Y-120075295D02*
X111542857Y-120265771D01*
X111542857Y-120265771D02*
X111542857Y-120503866D01*
X111542857Y-120503866D02*
X111495238Y-120694342D01*
X111495238Y-120694342D02*
X111447619Y-120789580D01*
X111447619Y-120789580D02*
X111400000Y-120837200D01*
X111400000Y-120837200D02*
X111304762Y-120884819D01*
X111304762Y-120884819D02*
X111209524Y-120884819D01*
X111209524Y-120884819D02*
X111114286Y-120837200D01*
X111114286Y-120837200D02*
X111066667Y-120789580D01*
X111066667Y-120789580D02*
X111019048Y-120694342D01*
X111019048Y-120694342D02*
X110971429Y-120503866D01*
X110971429Y-120503866D02*
X110971429Y-120265771D01*
X110971429Y-120265771D02*
X111019048Y-120075295D01*
X111019048Y-120075295D02*
X111066667Y-119980057D01*
X111066667Y-119980057D02*
X111114286Y-119932438D01*
X111114286Y-119932438D02*
X111209524Y-119884819D01*
X64327832Y-90696905D02*
X65327832Y-90696905D01*
X64327832Y-91268333D02*
X64899261Y-90839762D01*
X65327832Y-91268333D02*
X64756404Y-90696905D01*
X64327832Y-92220714D02*
X64327832Y-91649286D01*
X64327832Y-91935000D02*
X65327832Y-91935000D01*
X65327832Y-91935000D02*
X65184975Y-91839762D01*
X65184975Y-91839762D02*
X65089737Y-91744524D01*
X65089737Y-91744524D02*
X65042118Y-91649286D01*
X140390476Y-99424819D02*
X140390476Y-100139104D01*
X140390476Y-100139104D02*
X140342857Y-100281961D01*
X140342857Y-100281961D02*
X140247619Y-100377200D01*
X140247619Y-100377200D02*
X140104762Y-100424819D01*
X140104762Y-100424819D02*
X140009524Y-100424819D01*
X141390476Y-100424819D02*
X140819048Y-100424819D01*
X141104762Y-100424819D02*
X141104762Y-99424819D01*
X141104762Y-99424819D02*
X141009524Y-99567676D01*
X141009524Y-99567676D02*
X140914286Y-99662914D01*
X140914286Y-99662914D02*
X140819048Y-99710533D01*
X142247619Y-99424819D02*
X142057143Y-99424819D01*
X142057143Y-99424819D02*
X141961905Y-99472438D01*
X141961905Y-99472438D02*
X141914286Y-99520057D01*
X141914286Y-99520057D02*
X141819048Y-99662914D01*
X141819048Y-99662914D02*
X141771429Y-99853390D01*
X141771429Y-99853390D02*
X141771429Y-100234342D01*
X141771429Y-100234342D02*
X141819048Y-100329580D01*
X141819048Y-100329580D02*
X141866667Y-100377200D01*
X141866667Y-100377200D02*
X141961905Y-100424819D01*
X141961905Y-100424819D02*
X142152381Y-100424819D01*
X142152381Y-100424819D02*
X142247619Y-100377200D01*
X142247619Y-100377200D02*
X142295238Y-100329580D01*
X142295238Y-100329580D02*
X142342857Y-100234342D01*
X142342857Y-100234342D02*
X142342857Y-99996247D01*
X142342857Y-99996247D02*
X142295238Y-99901009D01*
X142295238Y-99901009D02*
X142247619Y-99853390D01*
X142247619Y-99853390D02*
X142152381Y-99805771D01*
X142152381Y-99805771D02*
X141961905Y-99805771D01*
X141961905Y-99805771D02*
X141866667Y-99853390D01*
X141866667Y-99853390D02*
X141819048Y-99901009D01*
X141819048Y-99901009D02*
X141771429Y-99996247D01*
X94684819Y-82809523D02*
X95399104Y-82809523D01*
X95399104Y-82809523D02*
X95541961Y-82857142D01*
X95541961Y-82857142D02*
X95637200Y-82952380D01*
X95637200Y-82952380D02*
X95684819Y-83095237D01*
X95684819Y-83095237D02*
X95684819Y-83190475D01*
X95684819Y-81809523D02*
X95684819Y-82380951D01*
X95684819Y-82095237D02*
X94684819Y-82095237D01*
X94684819Y-82095237D02*
X94827676Y-82190475D01*
X94827676Y-82190475D02*
X94922914Y-82285713D01*
X94922914Y-82285713D02*
X94970533Y-82380951D01*
X95018152Y-80952380D02*
X95684819Y-80952380D01*
X94637200Y-81190475D02*
X95351485Y-81428570D01*
X95351485Y-81428570D02*
X95351485Y-80809523D01*
X102666666Y-101284819D02*
X102666666Y-101999104D01*
X102666666Y-101999104D02*
X102619047Y-102141961D01*
X102619047Y-102141961D02*
X102523809Y-102237200D01*
X102523809Y-102237200D02*
X102380952Y-102284819D01*
X102380952Y-102284819D02*
X102285714Y-102284819D01*
X103285714Y-101713390D02*
X103190476Y-101665771D01*
X103190476Y-101665771D02*
X103142857Y-101618152D01*
X103142857Y-101618152D02*
X103095238Y-101522914D01*
X103095238Y-101522914D02*
X103095238Y-101475295D01*
X103095238Y-101475295D02*
X103142857Y-101380057D01*
X103142857Y-101380057D02*
X103190476Y-101332438D01*
X103190476Y-101332438D02*
X103285714Y-101284819D01*
X103285714Y-101284819D02*
X103476190Y-101284819D01*
X103476190Y-101284819D02*
X103571428Y-101332438D01*
X103571428Y-101332438D02*
X103619047Y-101380057D01*
X103619047Y-101380057D02*
X103666666Y-101475295D01*
X103666666Y-101475295D02*
X103666666Y-101522914D01*
X103666666Y-101522914D02*
X103619047Y-101618152D01*
X103619047Y-101618152D02*
X103571428Y-101665771D01*
X103571428Y-101665771D02*
X103476190Y-101713390D01*
X103476190Y-101713390D02*
X103285714Y-101713390D01*
X103285714Y-101713390D02*
X103190476Y-101761009D01*
X103190476Y-101761009D02*
X103142857Y-101808628D01*
X103142857Y-101808628D02*
X103095238Y-101903866D01*
X103095238Y-101903866D02*
X103095238Y-102094342D01*
X103095238Y-102094342D02*
X103142857Y-102189580D01*
X103142857Y-102189580D02*
X103190476Y-102237200D01*
X103190476Y-102237200D02*
X103285714Y-102284819D01*
X103285714Y-102284819D02*
X103476190Y-102284819D01*
X103476190Y-102284819D02*
X103571428Y-102237200D01*
X103571428Y-102237200D02*
X103619047Y-102189580D01*
X103619047Y-102189580D02*
X103666666Y-102094342D01*
X103666666Y-102094342D02*
X103666666Y-101903866D01*
X103666666Y-101903866D02*
X103619047Y-101808628D01*
X103619047Y-101808628D02*
X103571428Y-101761009D01*
X103571428Y-101761009D02*
X103476190Y-101713390D01*
X133390476Y-114254819D02*
X133390476Y-114969104D01*
X133390476Y-114969104D02*
X133342857Y-115111961D01*
X133342857Y-115111961D02*
X133247619Y-115207200D01*
X133247619Y-115207200D02*
X133104762Y-115254819D01*
X133104762Y-115254819D02*
X133009524Y-115254819D01*
X133819048Y-114350057D02*
X133866667Y-114302438D01*
X133866667Y-114302438D02*
X133961905Y-114254819D01*
X133961905Y-114254819D02*
X134200000Y-114254819D01*
X134200000Y-114254819D02*
X134295238Y-114302438D01*
X134295238Y-114302438D02*
X134342857Y-114350057D01*
X134342857Y-114350057D02*
X134390476Y-114445295D01*
X134390476Y-114445295D02*
X134390476Y-114540533D01*
X134390476Y-114540533D02*
X134342857Y-114683390D01*
X134342857Y-114683390D02*
X133771429Y-115254819D01*
X133771429Y-115254819D02*
X134390476Y-115254819D01*
X134771429Y-114350057D02*
X134819048Y-114302438D01*
X134819048Y-114302438D02*
X134914286Y-114254819D01*
X134914286Y-114254819D02*
X135152381Y-114254819D01*
X135152381Y-114254819D02*
X135247619Y-114302438D01*
X135247619Y-114302438D02*
X135295238Y-114350057D01*
X135295238Y-114350057D02*
X135342857Y-114445295D01*
X135342857Y-114445295D02*
X135342857Y-114540533D01*
X135342857Y-114540533D02*
X135295238Y-114683390D01*
X135295238Y-114683390D02*
X134723810Y-115254819D01*
X134723810Y-115254819D02*
X135342857Y-115254819D01*
X93874821Y-75009523D02*
X94589106Y-75009523D01*
X94589106Y-75009523D02*
X94731963Y-75057142D01*
X94731963Y-75057142D02*
X94827202Y-75152380D01*
X94827202Y-75152380D02*
X94874821Y-75295237D01*
X94874821Y-75295237D02*
X94874821Y-75390475D01*
X93970059Y-74580951D02*
X93922440Y-74533332D01*
X93922440Y-74533332D02*
X93874821Y-74438094D01*
X93874821Y-74438094D02*
X93874821Y-74199999D01*
X93874821Y-74199999D02*
X93922440Y-74104761D01*
X93922440Y-74104761D02*
X93970059Y-74057142D01*
X93970059Y-74057142D02*
X94065297Y-74009523D01*
X94065297Y-74009523D02*
X94160535Y-74009523D01*
X94160535Y-74009523D02*
X94303392Y-74057142D01*
X94303392Y-74057142D02*
X94874821Y-74628570D01*
X94874821Y-74628570D02*
X94874821Y-74009523D01*
X94874821Y-73533332D02*
X94874821Y-73342856D01*
X94874821Y-73342856D02*
X94827202Y-73247618D01*
X94827202Y-73247618D02*
X94779582Y-73199999D01*
X94779582Y-73199999D02*
X94636725Y-73104761D01*
X94636725Y-73104761D02*
X94446249Y-73057142D01*
X94446249Y-73057142D02*
X94065297Y-73057142D01*
X94065297Y-73057142D02*
X93970059Y-73104761D01*
X93970059Y-73104761D02*
X93922440Y-73152380D01*
X93922440Y-73152380D02*
X93874821Y-73247618D01*
X93874821Y-73247618D02*
X93874821Y-73438094D01*
X93874821Y-73438094D02*
X93922440Y-73533332D01*
X93922440Y-73533332D02*
X93970059Y-73580951D01*
X93970059Y-73580951D02*
X94065297Y-73628570D01*
X94065297Y-73628570D02*
X94303392Y-73628570D01*
X94303392Y-73628570D02*
X94398630Y-73580951D01*
X94398630Y-73580951D02*
X94446249Y-73533332D01*
X94446249Y-73533332D02*
X94493868Y-73438094D01*
X94493868Y-73438094D02*
X94493868Y-73247618D01*
X94493868Y-73247618D02*
X94446249Y-73152380D01*
X94446249Y-73152380D02*
X94398630Y-73104761D01*
X94398630Y-73104761D02*
X94303392Y-73057142D01*
X123854819Y-97809523D02*
X124569104Y-97809523D01*
X124569104Y-97809523D02*
X124711961Y-97857142D01*
X124711961Y-97857142D02*
X124807200Y-97952380D01*
X124807200Y-97952380D02*
X124854819Y-98095237D01*
X124854819Y-98095237D02*
X124854819Y-98190475D01*
X124854819Y-96809523D02*
X124854819Y-97380951D01*
X124854819Y-97095237D02*
X123854819Y-97095237D01*
X123854819Y-97095237D02*
X123997676Y-97190475D01*
X123997676Y-97190475D02*
X124092914Y-97285713D01*
X124092914Y-97285713D02*
X124140533Y-97380951D01*
X123854819Y-96476189D02*
X123854819Y-95809523D01*
X123854819Y-95809523D02*
X124854819Y-96238094D01*
X94684819Y-78859523D02*
X95399104Y-78859523D01*
X95399104Y-78859523D02*
X95541961Y-78907142D01*
X95541961Y-78907142D02*
X95637200Y-79002380D01*
X95637200Y-79002380D02*
X95684819Y-79145237D01*
X95684819Y-79145237D02*
X95684819Y-79240475D01*
X95684819Y-77859523D02*
X95684819Y-78430951D01*
X95684819Y-78145237D02*
X94684819Y-78145237D01*
X94684819Y-78145237D02*
X94827676Y-78240475D01*
X94827676Y-78240475D02*
X94922914Y-78335713D01*
X94922914Y-78335713D02*
X94970533Y-78430951D01*
X95684819Y-76907142D02*
X95684819Y-77478570D01*
X95684819Y-77192856D02*
X94684819Y-77192856D01*
X94684819Y-77192856D02*
X94827676Y-77288094D01*
X94827676Y-77288094D02*
X94922914Y-77383332D01*
X94922914Y-77383332D02*
X94970533Y-77478570D01*
X92757473Y-97444524D02*
X93471758Y-97444524D01*
X93471758Y-97444524D02*
X93614615Y-97492143D01*
X93614615Y-97492143D02*
X93709854Y-97587381D01*
X93709854Y-97587381D02*
X93757473Y-97730238D01*
X93757473Y-97730238D02*
X93757473Y-97825476D01*
X92852711Y-97015952D02*
X92805092Y-96968333D01*
X92805092Y-96968333D02*
X92757473Y-96873095D01*
X92757473Y-96873095D02*
X92757473Y-96635000D01*
X92757473Y-96635000D02*
X92805092Y-96539762D01*
X92805092Y-96539762D02*
X92852711Y-96492143D01*
X92852711Y-96492143D02*
X92947949Y-96444524D01*
X92947949Y-96444524D02*
X93043187Y-96444524D01*
X93043187Y-96444524D02*
X93186044Y-96492143D01*
X93186044Y-96492143D02*
X93757473Y-97063571D01*
X93757473Y-97063571D02*
X93757473Y-96444524D01*
X93186044Y-95873095D02*
X93138425Y-95968333D01*
X93138425Y-95968333D02*
X93090806Y-96015952D01*
X93090806Y-96015952D02*
X92995568Y-96063571D01*
X92995568Y-96063571D02*
X92947949Y-96063571D01*
X92947949Y-96063571D02*
X92852711Y-96015952D01*
X92852711Y-96015952D02*
X92805092Y-95968333D01*
X92805092Y-95968333D02*
X92757473Y-95873095D01*
X92757473Y-95873095D02*
X92757473Y-95682619D01*
X92757473Y-95682619D02*
X92805092Y-95587381D01*
X92805092Y-95587381D02*
X92852711Y-95539762D01*
X92852711Y-95539762D02*
X92947949Y-95492143D01*
X92947949Y-95492143D02*
X92995568Y-95492143D01*
X92995568Y-95492143D02*
X93090806Y-95539762D01*
X93090806Y-95539762D02*
X93138425Y-95587381D01*
X93138425Y-95587381D02*
X93186044Y-95682619D01*
X93186044Y-95682619D02*
X93186044Y-95873095D01*
X93186044Y-95873095D02*
X93233663Y-95968333D01*
X93233663Y-95968333D02*
X93281282Y-96015952D01*
X93281282Y-96015952D02*
X93376520Y-96063571D01*
X93376520Y-96063571D02*
X93566996Y-96063571D01*
X93566996Y-96063571D02*
X93662234Y-96015952D01*
X93662234Y-96015952D02*
X93709854Y-95968333D01*
X93709854Y-95968333D02*
X93757473Y-95873095D01*
X93757473Y-95873095D02*
X93757473Y-95682619D01*
X93757473Y-95682619D02*
X93709854Y-95587381D01*
X93709854Y-95587381D02*
X93662234Y-95539762D01*
X93662234Y-95539762D02*
X93566996Y-95492143D01*
X93566996Y-95492143D02*
X93376520Y-95492143D01*
X93376520Y-95492143D02*
X93281282Y-95539762D01*
X93281282Y-95539762D02*
X93233663Y-95587381D01*
X93233663Y-95587381D02*
X93186044Y-95682619D01*
X118990476Y-90254819D02*
X118990476Y-90969104D01*
X118990476Y-90969104D02*
X118942857Y-91111961D01*
X118942857Y-91111961D02*
X118847619Y-91207200D01*
X118847619Y-91207200D02*
X118704762Y-91254819D01*
X118704762Y-91254819D02*
X118609524Y-91254819D01*
X119419048Y-90350057D02*
X119466667Y-90302438D01*
X119466667Y-90302438D02*
X119561905Y-90254819D01*
X119561905Y-90254819D02*
X119800000Y-90254819D01*
X119800000Y-90254819D02*
X119895238Y-90302438D01*
X119895238Y-90302438D02*
X119942857Y-90350057D01*
X119942857Y-90350057D02*
X119990476Y-90445295D01*
X119990476Y-90445295D02*
X119990476Y-90540533D01*
X119990476Y-90540533D02*
X119942857Y-90683390D01*
X119942857Y-90683390D02*
X119371429Y-91254819D01*
X119371429Y-91254819D02*
X119990476Y-91254819D01*
X120847619Y-90588152D02*
X120847619Y-91254819D01*
X120609524Y-90207200D02*
X120371429Y-90921485D01*
X120371429Y-90921485D02*
X120990476Y-90921485D01*
X94557473Y-101644524D02*
X95271758Y-101644524D01*
X95271758Y-101644524D02*
X95414615Y-101692143D01*
X95414615Y-101692143D02*
X95509854Y-101787381D01*
X95509854Y-101787381D02*
X95557473Y-101930238D01*
X95557473Y-101930238D02*
X95557473Y-102025476D01*
X94652711Y-101215952D02*
X94605092Y-101168333D01*
X94605092Y-101168333D02*
X94557473Y-101073095D01*
X94557473Y-101073095D02*
X94557473Y-100835000D01*
X94557473Y-100835000D02*
X94605092Y-100739762D01*
X94605092Y-100739762D02*
X94652711Y-100692143D01*
X94652711Y-100692143D02*
X94747949Y-100644524D01*
X94747949Y-100644524D02*
X94843187Y-100644524D01*
X94843187Y-100644524D02*
X94986044Y-100692143D01*
X94986044Y-100692143D02*
X95557473Y-101263571D01*
X95557473Y-101263571D02*
X95557473Y-100644524D01*
X94557473Y-100311190D02*
X94557473Y-99644524D01*
X94557473Y-99644524D02*
X95557473Y-100073095D01*
X101254819Y-63409523D02*
X101969104Y-63409523D01*
X101969104Y-63409523D02*
X102111961Y-63457142D01*
X102111961Y-63457142D02*
X102207200Y-63552380D01*
X102207200Y-63552380D02*
X102254819Y-63695237D01*
X102254819Y-63695237D02*
X102254819Y-63790475D01*
X102254819Y-62409523D02*
X102254819Y-62980951D01*
X102254819Y-62695237D02*
X101254819Y-62695237D01*
X101254819Y-62695237D02*
X101397676Y-62790475D01*
X101397676Y-62790475D02*
X101492914Y-62885713D01*
X101492914Y-62885713D02*
X101540533Y-62980951D01*
X101254819Y-62076189D02*
X101254819Y-61457142D01*
X101254819Y-61457142D02*
X101635771Y-61790475D01*
X101635771Y-61790475D02*
X101635771Y-61647618D01*
X101635771Y-61647618D02*
X101683390Y-61552380D01*
X101683390Y-61552380D02*
X101731009Y-61504761D01*
X101731009Y-61504761D02*
X101826247Y-61457142D01*
X101826247Y-61457142D02*
X102064342Y-61457142D01*
X102064342Y-61457142D02*
X102159580Y-61504761D01*
X102159580Y-61504761D02*
X102207200Y-61552380D01*
X102207200Y-61552380D02*
X102254819Y-61647618D01*
X102254819Y-61647618D02*
X102254819Y-61933332D01*
X102254819Y-61933332D02*
X102207200Y-62028570D01*
X102207200Y-62028570D02*
X102159580Y-62076189D01*
X92757473Y-93168334D02*
X93471758Y-93168334D01*
X93471758Y-93168334D02*
X93614615Y-93215953D01*
X93614615Y-93215953D02*
X93709854Y-93311191D01*
X93709854Y-93311191D02*
X93757473Y-93454048D01*
X93757473Y-93454048D02*
X93757473Y-93549286D01*
X93757473Y-92644524D02*
X93757473Y-92454048D01*
X93757473Y-92454048D02*
X93709854Y-92358810D01*
X93709854Y-92358810D02*
X93662234Y-92311191D01*
X93662234Y-92311191D02*
X93519377Y-92215953D01*
X93519377Y-92215953D02*
X93328901Y-92168334D01*
X93328901Y-92168334D02*
X92947949Y-92168334D01*
X92947949Y-92168334D02*
X92852711Y-92215953D01*
X92852711Y-92215953D02*
X92805092Y-92263572D01*
X92805092Y-92263572D02*
X92757473Y-92358810D01*
X92757473Y-92358810D02*
X92757473Y-92549286D01*
X92757473Y-92549286D02*
X92805092Y-92644524D01*
X92805092Y-92644524D02*
X92852711Y-92692143D01*
X92852711Y-92692143D02*
X92947949Y-92739762D01*
X92947949Y-92739762D02*
X93186044Y-92739762D01*
X93186044Y-92739762D02*
X93281282Y-92692143D01*
X93281282Y-92692143D02*
X93328901Y-92644524D01*
X93328901Y-92644524D02*
X93376520Y-92549286D01*
X93376520Y-92549286D02*
X93376520Y-92358810D01*
X93376520Y-92358810D02*
X93328901Y-92263572D01*
X93328901Y-92263572D02*
X93281282Y-92215953D01*
X93281282Y-92215953D02*
X93186044Y-92168334D01*
X64245181Y-68661905D02*
X65245181Y-68661905D01*
X64245181Y-69233333D02*
X64816610Y-68804762D01*
X65245181Y-69233333D02*
X64673753Y-68661905D01*
X65149943Y-69614286D02*
X65197562Y-69661905D01*
X65197562Y-69661905D02*
X65245181Y-69757143D01*
X65245181Y-69757143D02*
X65245181Y-69995238D01*
X65245181Y-69995238D02*
X65197562Y-70090476D01*
X65197562Y-70090476D02*
X65149943Y-70138095D01*
X65149943Y-70138095D02*
X65054705Y-70185714D01*
X65054705Y-70185714D02*
X64959467Y-70185714D01*
X64959467Y-70185714D02*
X64816610Y-70138095D01*
X64816610Y-70138095D02*
X64245181Y-69566667D01*
X64245181Y-69566667D02*
X64245181Y-70185714D01*
X139790476Y-61654819D02*
X139790476Y-62369104D01*
X139790476Y-62369104D02*
X139742857Y-62511961D01*
X139742857Y-62511961D02*
X139647619Y-62607200D01*
X139647619Y-62607200D02*
X139504762Y-62654819D01*
X139504762Y-62654819D02*
X139409524Y-62654819D01*
X140790476Y-62654819D02*
X140219048Y-62654819D01*
X140504762Y-62654819D02*
X140504762Y-61654819D01*
X140504762Y-61654819D02*
X140409524Y-61797676D01*
X140409524Y-61797676D02*
X140314286Y-61892914D01*
X140314286Y-61892914D02*
X140219048Y-61940533D01*
X141361905Y-62083390D02*
X141266667Y-62035771D01*
X141266667Y-62035771D02*
X141219048Y-61988152D01*
X141219048Y-61988152D02*
X141171429Y-61892914D01*
X141171429Y-61892914D02*
X141171429Y-61845295D01*
X141171429Y-61845295D02*
X141219048Y-61750057D01*
X141219048Y-61750057D02*
X141266667Y-61702438D01*
X141266667Y-61702438D02*
X141361905Y-61654819D01*
X141361905Y-61654819D02*
X141552381Y-61654819D01*
X141552381Y-61654819D02*
X141647619Y-61702438D01*
X141647619Y-61702438D02*
X141695238Y-61750057D01*
X141695238Y-61750057D02*
X141742857Y-61845295D01*
X141742857Y-61845295D02*
X141742857Y-61892914D01*
X141742857Y-61892914D02*
X141695238Y-61988152D01*
X141695238Y-61988152D02*
X141647619Y-62035771D01*
X141647619Y-62035771D02*
X141552381Y-62083390D01*
X141552381Y-62083390D02*
X141361905Y-62083390D01*
X141361905Y-62083390D02*
X141266667Y-62131009D01*
X141266667Y-62131009D02*
X141219048Y-62178628D01*
X141219048Y-62178628D02*
X141171429Y-62273866D01*
X141171429Y-62273866D02*
X141171429Y-62464342D01*
X141171429Y-62464342D02*
X141219048Y-62559580D01*
X141219048Y-62559580D02*
X141266667Y-62607200D01*
X141266667Y-62607200D02*
X141361905Y-62654819D01*
X141361905Y-62654819D02*
X141552381Y-62654819D01*
X141552381Y-62654819D02*
X141647619Y-62607200D01*
X141647619Y-62607200D02*
X141695238Y-62559580D01*
X141695238Y-62559580D02*
X141742857Y-62464342D01*
X141742857Y-62464342D02*
X141742857Y-62273866D01*
X141742857Y-62273866D02*
X141695238Y-62178628D01*
X141695238Y-62178628D02*
X141647619Y-62131009D01*
X141647619Y-62131009D02*
X141552381Y-62083390D01*
X91640478Y-80654819D02*
X91640478Y-81369104D01*
X91640478Y-81369104D02*
X91592859Y-81511961D01*
X91592859Y-81511961D02*
X91497621Y-81607200D01*
X91497621Y-81607200D02*
X91354764Y-81654819D01*
X91354764Y-81654819D02*
X91259526Y-81654819D01*
X92069050Y-80750057D02*
X92116669Y-80702438D01*
X92116669Y-80702438D02*
X92211907Y-80654819D01*
X92211907Y-80654819D02*
X92450002Y-80654819D01*
X92450002Y-80654819D02*
X92545240Y-80702438D01*
X92545240Y-80702438D02*
X92592859Y-80750057D01*
X92592859Y-80750057D02*
X92640478Y-80845295D01*
X92640478Y-80845295D02*
X92640478Y-80940533D01*
X92640478Y-80940533D02*
X92592859Y-81083390D01*
X92592859Y-81083390D02*
X92021431Y-81654819D01*
X92021431Y-81654819D02*
X92640478Y-81654819D01*
X93497621Y-80654819D02*
X93307145Y-80654819D01*
X93307145Y-80654819D02*
X93211907Y-80702438D01*
X93211907Y-80702438D02*
X93164288Y-80750057D01*
X93164288Y-80750057D02*
X93069050Y-80892914D01*
X93069050Y-80892914D02*
X93021431Y-81083390D01*
X93021431Y-81083390D02*
X93021431Y-81464342D01*
X93021431Y-81464342D02*
X93069050Y-81559580D01*
X93069050Y-81559580D02*
X93116669Y-81607200D01*
X93116669Y-81607200D02*
X93211907Y-81654819D01*
X93211907Y-81654819D02*
X93402383Y-81654819D01*
X93402383Y-81654819D02*
X93497621Y-81607200D01*
X93497621Y-81607200D02*
X93545240Y-81559580D01*
X93545240Y-81559580D02*
X93592859Y-81464342D01*
X93592859Y-81464342D02*
X93592859Y-81226247D01*
X93592859Y-81226247D02*
X93545240Y-81131009D01*
X93545240Y-81131009D02*
X93497621Y-81083390D01*
X93497621Y-81083390D02*
X93402383Y-81035771D01*
X93402383Y-81035771D02*
X93211907Y-81035771D01*
X93211907Y-81035771D02*
X93116669Y-81083390D01*
X93116669Y-81083390D02*
X93069050Y-81131009D01*
X93069050Y-81131009D02*
X93021431Y-81226247D01*
X94684819Y-86609523D02*
X95399104Y-86609523D01*
X95399104Y-86609523D02*
X95541961Y-86657142D01*
X95541961Y-86657142D02*
X95637200Y-86752380D01*
X95637200Y-86752380D02*
X95684819Y-86895237D01*
X95684819Y-86895237D02*
X95684819Y-86990475D01*
X95684819Y-85609523D02*
X95684819Y-86180951D01*
X95684819Y-85895237D02*
X94684819Y-85895237D01*
X94684819Y-85895237D02*
X94827676Y-85990475D01*
X94827676Y-85990475D02*
X94922914Y-86085713D01*
X94922914Y-86085713D02*
X94970533Y-86180951D01*
X94684819Y-84704761D02*
X94684819Y-85180951D01*
X94684819Y-85180951D02*
X95161009Y-85228570D01*
X95161009Y-85228570D02*
X95113390Y-85180951D01*
X95113390Y-85180951D02*
X95065771Y-85085713D01*
X95065771Y-85085713D02*
X95065771Y-84847618D01*
X95065771Y-84847618D02*
X95113390Y-84752380D01*
X95113390Y-84752380D02*
X95161009Y-84704761D01*
X95161009Y-84704761D02*
X95256247Y-84657142D01*
X95256247Y-84657142D02*
X95494342Y-84657142D01*
X95494342Y-84657142D02*
X95589580Y-84704761D01*
X95589580Y-84704761D02*
X95637200Y-84752380D01*
X95637200Y-84752380D02*
X95684819Y-84847618D01*
X95684819Y-84847618D02*
X95684819Y-85085713D01*
X95684819Y-85085713D02*
X95637200Y-85180951D01*
X95637200Y-85180951D02*
X95589580Y-85228570D01*
X93874821Y-70809523D02*
X94589106Y-70809523D01*
X94589106Y-70809523D02*
X94731963Y-70857142D01*
X94731963Y-70857142D02*
X94827202Y-70952380D01*
X94827202Y-70952380D02*
X94874821Y-71095237D01*
X94874821Y-71095237D02*
X94874821Y-71190475D01*
X94874821Y-69809523D02*
X94874821Y-70380951D01*
X94874821Y-70095237D02*
X93874821Y-70095237D01*
X93874821Y-70095237D02*
X94017678Y-70190475D01*
X94017678Y-70190475D02*
X94112916Y-70285713D01*
X94112916Y-70285713D02*
X94160535Y-70380951D01*
X93874821Y-69190475D02*
X93874821Y-69095237D01*
X93874821Y-69095237D02*
X93922440Y-68999999D01*
X93922440Y-68999999D02*
X93970059Y-68952380D01*
X93970059Y-68952380D02*
X94065297Y-68904761D01*
X94065297Y-68904761D02*
X94255773Y-68857142D01*
X94255773Y-68857142D02*
X94493868Y-68857142D01*
X94493868Y-68857142D02*
X94684344Y-68904761D01*
X94684344Y-68904761D02*
X94779582Y-68952380D01*
X94779582Y-68952380D02*
X94827202Y-68999999D01*
X94827202Y-68999999D02*
X94874821Y-69095237D01*
X94874821Y-69095237D02*
X94874821Y-69190475D01*
X94874821Y-69190475D02*
X94827202Y-69285713D01*
X94827202Y-69285713D02*
X94779582Y-69333332D01*
X94779582Y-69333332D02*
X94684344Y-69380951D01*
X94684344Y-69380951D02*
X94493868Y-69428570D01*
X94493868Y-69428570D02*
X94255773Y-69428570D01*
X94255773Y-69428570D02*
X94065297Y-69380951D01*
X94065297Y-69380951D02*
X93970059Y-69333332D01*
X93970059Y-69333332D02*
X93922440Y-69285713D01*
X93922440Y-69285713D02*
X93874821Y-69190475D01*
X140190476Y-108284819D02*
X140190476Y-108999104D01*
X140190476Y-108999104D02*
X140142857Y-109141961D01*
X140142857Y-109141961D02*
X140047619Y-109237200D01*
X140047619Y-109237200D02*
X139904762Y-109284819D01*
X139904762Y-109284819D02*
X139809524Y-109284819D01*
X140619048Y-108380057D02*
X140666667Y-108332438D01*
X140666667Y-108332438D02*
X140761905Y-108284819D01*
X140761905Y-108284819D02*
X141000000Y-108284819D01*
X141000000Y-108284819D02*
X141095238Y-108332438D01*
X141095238Y-108332438D02*
X141142857Y-108380057D01*
X141142857Y-108380057D02*
X141190476Y-108475295D01*
X141190476Y-108475295D02*
X141190476Y-108570533D01*
X141190476Y-108570533D02*
X141142857Y-108713390D01*
X141142857Y-108713390D02*
X140571429Y-109284819D01*
X140571429Y-109284819D02*
X141190476Y-109284819D01*
X141523810Y-108284819D02*
X142142857Y-108284819D01*
X142142857Y-108284819D02*
X141809524Y-108665771D01*
X141809524Y-108665771D02*
X141952381Y-108665771D01*
X141952381Y-108665771D02*
X142047619Y-108713390D01*
X142047619Y-108713390D02*
X142095238Y-108761009D01*
X142095238Y-108761009D02*
X142142857Y-108856247D01*
X142142857Y-108856247D02*
X142142857Y-109094342D01*
X142142857Y-109094342D02*
X142095238Y-109189580D01*
X142095238Y-109189580D02*
X142047619Y-109237200D01*
X142047619Y-109237200D02*
X141952381Y-109284819D01*
X141952381Y-109284819D02*
X141666667Y-109284819D01*
X141666667Y-109284819D02*
X141571429Y-109237200D01*
X141571429Y-109237200D02*
X141523810Y-109189580D01*
X110190476Y-81424819D02*
X110190476Y-82139104D01*
X110190476Y-82139104D02*
X110142857Y-82281961D01*
X110142857Y-82281961D02*
X110047619Y-82377200D01*
X110047619Y-82377200D02*
X109904762Y-82424819D01*
X109904762Y-82424819D02*
X109809524Y-82424819D01*
X111190476Y-82424819D02*
X110619048Y-82424819D01*
X110904762Y-82424819D02*
X110904762Y-81424819D01*
X110904762Y-81424819D02*
X110809524Y-81567676D01*
X110809524Y-81567676D02*
X110714286Y-81662914D01*
X110714286Y-81662914D02*
X110619048Y-81710533D01*
X111571429Y-81520057D02*
X111619048Y-81472438D01*
X111619048Y-81472438D02*
X111714286Y-81424819D01*
X111714286Y-81424819D02*
X111952381Y-81424819D01*
X111952381Y-81424819D02*
X112047619Y-81472438D01*
X112047619Y-81472438D02*
X112095238Y-81520057D01*
X112095238Y-81520057D02*
X112142857Y-81615295D01*
X112142857Y-81615295D02*
X112142857Y-81710533D01*
X112142857Y-81710533D02*
X112095238Y-81853390D01*
X112095238Y-81853390D02*
X111523810Y-82424819D01*
X111523810Y-82424819D02*
X112142857Y-82424819D01*
D12*
%TO.C,J4*%
X91900000Y-123400000D02*
X76900000Y-123400000D01*
X91900000Y-115150000D02*
X91900000Y-123400000D01*
X91900000Y-115150000D02*
X76900000Y-115150000D01*
X76900000Y-115150000D02*
X76900000Y-123400000D01*
D10*
X92750000Y-119400000D02*
G75*
G03*
X92750000Y-119400000I-100000J0D01*
G01*
D13*
%TO.C,R7*%
X120177064Y-89735000D02*
X119722936Y-89735000D01*
X120177064Y-88265000D02*
X119722936Y-88265000D01*
%TO.C,J19*%
X139390000Y-67270000D02*
X139270000Y-67270000D01*
X139270000Y-67270000D02*
X139270000Y-69930000D01*
X141930000Y-68600000D02*
X141930000Y-69930000D01*
X141930000Y-69930000D02*
X140600000Y-69930000D01*
X139390000Y-69930000D02*
X139270000Y-69930000D01*
D12*
%TO.C,U9*%
X85190002Y-83485000D02*
X85190002Y-78915000D01*
X90110002Y-83485000D02*
X85190002Y-83485000D01*
X85190002Y-78915000D02*
X90110002Y-78915000D01*
X90110002Y-78915000D02*
X90110002Y-83485000D01*
X85507002Y-85026000D02*
G75*
G03*
X85507002Y-85026000I-127000J0D01*
G01*
D14*
%TO.C,U5*%
X118809300Y-102698500D02*
X120460300Y-102698500D01*
X118809300Y-101659640D02*
X118809300Y-102698500D01*
X120460300Y-101387860D02*
X120460300Y-100707140D01*
X118809300Y-99396500D02*
X118809300Y-100435360D01*
X120460300Y-99396500D02*
X118809300Y-99396500D01*
D13*
%TO.C,C8*%
X129735000Y-91776248D02*
X129735000Y-92298752D01*
X128265000Y-91776248D02*
X128265000Y-92298752D01*
%TO.C,R6*%
X132427064Y-89885000D02*
X131972936Y-89885000D01*
X132427064Y-88415000D02*
X131972936Y-88415000D01*
%TO.C,J25*%
X129010000Y-106330000D02*
X129130000Y-106330000D01*
X129130000Y-106330000D02*
X129130000Y-103670000D01*
X126470000Y-105000000D02*
X126470000Y-103670000D01*
X126470000Y-103670000D02*
X127800000Y-103670000D01*
X129010000Y-103670000D02*
X129130000Y-103670000D01*
D14*
%TO.C,U6*%
X134990700Y-99396500D02*
X133339700Y-99396500D01*
X134990700Y-100435360D02*
X134990700Y-99396500D01*
X133339700Y-100707140D02*
X133339700Y-101387860D01*
X134990700Y-102698500D02*
X134990700Y-101659640D01*
X133339700Y-102698500D02*
X134990700Y-102698500D01*
D12*
%TO.C,J5*%
X75047500Y-123500000D02*
X60047500Y-123500000D01*
X75047500Y-115250000D02*
X75047500Y-123500000D01*
X75047500Y-115250000D02*
X60047500Y-115250000D01*
X60047500Y-115250000D02*
X60047500Y-123500000D01*
D10*
X75897500Y-119500000D02*
G75*
G03*
X75897500Y-119500000I-100000J0D01*
G01*
D12*
%TO.C,D11*%
X78300002Y-68450000D02*
X78300002Y-71150000D01*
X76600002Y-68450000D02*
X76600002Y-71150000D01*
D10*
X77550002Y-67000000D02*
G75*
G03*
X77550002Y-67000000I-100000J0D01*
G01*
D12*
%TO.C,U3*%
X97450000Y-67550000D02*
X97450000Y-71250000D01*
X97450000Y-71250000D02*
X104150000Y-71250000D01*
X104150000Y-67550000D02*
X97450000Y-67550000D01*
X104150000Y-71250000D02*
X104150000Y-67550000D01*
D10*
X97400000Y-73000000D02*
G75*
G03*
X97400000Y-73000000I-100000J0D01*
G01*
D13*
%TO.C,R13*%
X114892064Y-64445000D02*
X114437936Y-64445000D01*
X114892064Y-62975000D02*
X114437936Y-62975000D01*
D15*
%TO.C,S1*%
X136350000Y-107725000D02*
X136350000Y-106925000D01*
X135850000Y-108925000D02*
X132650000Y-108925000D01*
X132650000Y-105725000D02*
X135850000Y-105725000D01*
X132150000Y-107725000D02*
X132150000Y-106925000D01*
X137250000Y-108325000D02*
G75*
G03*
X137250000Y-108425000I0J-50000D01*
G01*
X137250000Y-108425000D02*
G75*
G03*
X137250000Y-108325000I0J50000D01*
G01*
D13*
%TO.C,C1*%
X110778748Y-74175000D02*
X111301252Y-74175000D01*
X110778748Y-75645000D02*
X111301252Y-75645000D01*
%TO.C,R1*%
X81867654Y-102607937D02*
X81867654Y-103062065D01*
X80397654Y-102607937D02*
X80397654Y-103062065D01*
%TO.C,C10*%
X114888752Y-68845000D02*
X114366248Y-68845000D01*
X114888752Y-67375000D02*
X114366248Y-67375000D01*
%TO.C,C2*%
X107463752Y-75645000D02*
X106941248Y-75645000D01*
X107463752Y-74175000D02*
X106941248Y-74175000D01*
D12*
%TO.C,D1*%
X139120000Y-116160000D02*
X139120000Y-117360000D01*
X138080000Y-117360000D02*
X138080000Y-116160000D01*
%TO.C,U11*%
X81682654Y-95785001D02*
X81847654Y-95785001D01*
X88182654Y-95785001D02*
X88017654Y-95785001D01*
X88182654Y-95785001D02*
X88182654Y-92285001D01*
X81682654Y-92285001D02*
X81682654Y-95785001D01*
X82997654Y-92285001D02*
X81682654Y-92285001D01*
X88182654Y-92285001D02*
X86867654Y-92285001D01*
D13*
%TO.C,R18*%
X62774564Y-113835000D02*
X62320436Y-113835000D01*
X62774564Y-112365000D02*
X62320436Y-112365000D01*
%TO.C,R3*%
X132427064Y-87485000D02*
X131972936Y-87485000D01*
X132427064Y-86015000D02*
X131972936Y-86015000D01*
D15*
%TO.C,S2*%
X121650000Y-107725000D02*
X121650000Y-106925000D01*
X121150000Y-108925000D02*
X117950000Y-108925000D01*
X117950000Y-105725000D02*
X121150000Y-105725000D01*
X117450000Y-107725000D02*
X117450000Y-106925000D01*
X122550000Y-108325000D02*
G75*
G03*
X122550000Y-108425000I0J-50000D01*
G01*
X122550000Y-108425000D02*
G75*
G03*
X122550000Y-108325000I0J50000D01*
G01*
D13*
%TO.C,J20*%
X109070000Y-124410000D02*
X109070000Y-124530000D01*
X109070000Y-124530000D02*
X111730000Y-124530000D01*
X110400000Y-121870000D02*
X111730000Y-121870000D01*
X111730000Y-121870000D02*
X111730000Y-123200000D01*
X111730000Y-124410000D02*
X111730000Y-124530000D01*
D14*
%TO.C,K1*%
X73032651Y-82111000D02*
X73032651Y-83381000D01*
X73667651Y-82746000D02*
X72397651Y-82746000D01*
X75709651Y-83508000D02*
X53855653Y-83508000D01*
X75709651Y-99362000D02*
X75709651Y-83508000D01*
X75709651Y-99362000D02*
X53855653Y-99362000D01*
X53855653Y-99362000D02*
X53855653Y-83508000D01*
D12*
%TO.C,U1*%
X118000000Y-54650000D02*
X136000000Y-54650000D01*
X118000000Y-61370000D02*
X118000000Y-54650000D01*
X118000000Y-79420000D02*
X118000000Y-80150000D01*
X118000000Y-80150000D02*
X119245000Y-80150000D01*
X136000000Y-54650000D02*
X136000000Y-61370000D01*
X136000000Y-79420000D02*
X136000000Y-80150000D01*
X136000000Y-80150000D02*
X134755000Y-80150000D01*
D13*
%TO.C,R10*%
X126772936Y-99365000D02*
X127227064Y-99365000D01*
X126772936Y-100835000D02*
X127227064Y-100835000D01*
%TO.C,C4*%
X108530000Y-63371252D02*
X108530000Y-62848748D01*
X110000000Y-63371252D02*
X110000000Y-62848748D01*
%TO.C,D10*%
X79172654Y-95495001D02*
X81092654Y-95495001D01*
X81092654Y-95495001D02*
X81092654Y-92635001D01*
X79172654Y-92635001D02*
X79172654Y-95495001D01*
D12*
%TO.C,J1*%
X114500000Y-97600000D02*
X114500000Y-98750000D01*
X112550000Y-97600000D02*
X114500000Y-97600000D01*
X105500000Y-97600000D02*
X107350000Y-97600000D01*
X114500000Y-103850000D02*
X114500000Y-112000000D01*
X114500000Y-112000000D02*
X105500000Y-112000000D01*
X105500000Y-112000000D02*
X105500000Y-97600000D01*
D13*
%TO.C,R11*%
X118065000Y-97122064D02*
X118065000Y-96667936D01*
X119535000Y-97122064D02*
X119535000Y-96667936D01*
D12*
%TO.C,D3*%
X119020000Y-116160000D02*
X119020000Y-117360000D01*
X117980000Y-117360000D02*
X117980000Y-116160000D01*
D13*
%TO.C,J16*%
X142530000Y-95990000D02*
X142530000Y-95870000D01*
X142530000Y-95870000D02*
X139870000Y-95870000D01*
X141200000Y-98530000D02*
X139870000Y-98530000D01*
X139870000Y-98530000D02*
X139870000Y-97200000D01*
X139870000Y-95990000D02*
X139870000Y-95870000D01*
D12*
%TO.C,J2*%
X133200000Y-124850000D02*
X133200000Y-124620000D01*
X133200000Y-124850000D02*
X140800000Y-124850000D01*
X140800000Y-124850000D02*
X140800000Y-124620000D01*
%TO.C,U2*%
X105750000Y-71150000D02*
X105915000Y-71150000D01*
X112250000Y-71150000D02*
X112085000Y-71150000D01*
X112250000Y-71150000D02*
X112250000Y-67650000D01*
X105750000Y-67650000D02*
X105750000Y-71150000D01*
X107065000Y-67650000D02*
X105750000Y-67650000D01*
X112250000Y-67650000D02*
X110935000Y-67650000D01*
%TO.C,D4*%
X117420000Y-116140000D02*
X117420000Y-117340000D01*
X116380000Y-117340000D02*
X116380000Y-116140000D01*
D13*
%TO.C,C12*%
X114888752Y-71045000D02*
X114366248Y-71045000D01*
X114888752Y-69575000D02*
X114366248Y-69575000D01*
%TO.C,R9*%
X127227064Y-102835000D02*
X126772936Y-102835000D01*
X127227064Y-101365000D02*
X126772936Y-101365000D01*
%TO.C,C5*%
X110730000Y-63371252D02*
X110730000Y-62848748D01*
X112200000Y-63371252D02*
X112200000Y-62848748D01*
%TO.C,R19*%
X79397654Y-89662065D02*
X79397654Y-89207937D01*
X80867654Y-89662065D02*
X80867654Y-89207937D01*
D12*
%TO.C,D9*%
X78582654Y-90085001D02*
X78582654Y-92785001D01*
X76882654Y-90085001D02*
X76882654Y-92785001D01*
D10*
X77832654Y-88635001D02*
G75*
G03*
X77832654Y-88635001I-100000J0D01*
G01*
D13*
%TO.C,R5*%
X132427064Y-94735000D02*
X131972936Y-94735000D01*
X132427064Y-93265000D02*
X131972936Y-93265000D01*
%TO.C,J14*%
X99210000Y-83330000D02*
X99330000Y-83330000D01*
X99330000Y-83330000D02*
X99330000Y-80670000D01*
X96670000Y-82000000D02*
X96670000Y-80670000D01*
X96670000Y-80670000D02*
X98000000Y-80670000D01*
X99210000Y-80670000D02*
X99330000Y-80670000D01*
%TO.C,R17*%
X80227064Y-113735000D02*
X79772936Y-113735000D01*
X80227064Y-112265000D02*
X79772936Y-112265000D01*
%TO.C,R16*%
X66320436Y-112365000D02*
X66774564Y-112365000D01*
X66320436Y-113835000D02*
X66774564Y-113835000D01*
%TO.C,J8*%
X101670000Y-105810000D02*
X101670000Y-105930000D01*
X101670000Y-105930000D02*
X104330000Y-105930000D01*
X103000000Y-103270000D02*
X104330000Y-103270000D01*
X104330000Y-103270000D02*
X104330000Y-104600000D01*
X104330000Y-105810000D02*
X104330000Y-105930000D01*
%TO.C,C3*%
X102738748Y-74315000D02*
X103261252Y-74315000D01*
X102738748Y-75785000D02*
X103261252Y-75785000D01*
%TO.C,C13*%
X99223752Y-75785000D02*
X98701248Y-75785000D01*
X99223752Y-74315000D02*
X98701248Y-74315000D01*
%TO.C,J22*%
X135530000Y-110990000D02*
X135530000Y-110870000D01*
X135530000Y-110870000D02*
X132870000Y-110870000D01*
X134200000Y-113530000D02*
X132870000Y-113530000D01*
X132870000Y-113530000D02*
X132870000Y-112200000D01*
X132870000Y-110990000D02*
X132870000Y-110870000D01*
%TO.C,J29*%
X90440002Y-72870000D02*
X90320002Y-72870000D01*
X90320002Y-72870000D02*
X90320002Y-75530000D01*
X92980002Y-74200000D02*
X92980002Y-75530000D01*
X92980002Y-75530000D02*
X91650002Y-75530000D01*
X90440002Y-75530000D02*
X90320002Y-75530000D01*
D12*
%TO.C,U8*%
X85072654Y-105320001D02*
X85072654Y-100750001D01*
X89992654Y-105320001D02*
X85072654Y-105320001D01*
X85072654Y-100750001D02*
X89992654Y-100750001D01*
X89992654Y-100750001D02*
X89992654Y-105320001D01*
X85389654Y-106861001D02*
G75*
G03*
X85389654Y-106861001I-127000J0D01*
G01*
%TO.C,U4*%
X123500000Y-89250000D02*
X123500000Y-88705000D01*
X124045000Y-89250000D02*
X123500000Y-89250000D01*
X128500000Y-89250000D02*
X127955000Y-89250000D01*
X128500000Y-88705000D02*
X128500000Y-89250000D01*
X123500000Y-84795000D02*
X123500000Y-84250000D01*
X123500000Y-84250000D02*
X124045000Y-84250000D01*
X128500000Y-84250000D02*
X128500000Y-84795000D01*
X128500000Y-84250000D02*
X127955000Y-84250000D01*
%TO.C,J3*%
X113100000Y-124850000D02*
X113100000Y-124620000D01*
X113100000Y-124850000D02*
X120700000Y-124850000D01*
X120700000Y-124850000D02*
X120700000Y-124620000D01*
D14*
%TO.C,U10*%
X77640502Y-77851000D02*
X79291502Y-77851000D01*
X77640502Y-76812140D02*
X77640502Y-77851000D01*
X79291502Y-76540360D02*
X79291502Y-75859640D01*
X77640502Y-74549000D02*
X77640502Y-75587860D01*
X79291502Y-74549000D02*
X77640502Y-74549000D01*
D13*
%TO.C,J17*%
X120470000Y-98210000D02*
X120470000Y-98330000D01*
X120470000Y-98330000D02*
X123130000Y-98330000D01*
X121800000Y-95670000D02*
X123130000Y-95670000D01*
X123130000Y-95670000D02*
X123130000Y-97000000D01*
X123130000Y-98210000D02*
X123130000Y-98330000D01*
D12*
%TO.C,D7*%
X135920000Y-116160000D02*
X135920000Y-117360000D01*
X134880000Y-117360000D02*
X134880000Y-116160000D01*
D13*
%TO.C,J11*%
X99210000Y-79380000D02*
X99330000Y-79380000D01*
X99330000Y-79380000D02*
X99330000Y-76720000D01*
X96670000Y-78050000D02*
X96670000Y-76720000D01*
X96670000Y-76720000D02*
X98000000Y-76720000D01*
X99210000Y-76720000D02*
X99330000Y-76720000D01*
D14*
%TO.C,U7*%
X77491154Y-99733501D02*
X79142154Y-99733501D01*
X77491154Y-98694641D02*
X77491154Y-99733501D01*
X79142154Y-98422861D02*
X79142154Y-97742141D01*
X77491154Y-96431501D02*
X77491154Y-97470361D01*
X79142154Y-96431501D02*
X77491154Y-96431501D01*
D13*
%TO.C,D12*%
X79090002Y-73660000D02*
X81010002Y-73660000D01*
X81010002Y-73660000D02*
X81010002Y-70800000D01*
X79090002Y-70800000D02*
X79090002Y-73660000D01*
%TO.C,J28*%
X89322654Y-95305001D02*
X89202654Y-95305001D01*
X89202654Y-95305001D02*
X89202654Y-97965001D01*
X91862654Y-96635001D02*
X91862654Y-97965001D01*
X91862654Y-97965001D02*
X90532654Y-97965001D01*
X89322654Y-97965001D02*
X89202654Y-97965001D01*
D12*
%TO.C,D2*%
X137520000Y-116160000D02*
X137520000Y-117360000D01*
X136480000Y-117360000D02*
X136480000Y-116160000D01*
D13*
%TO.C,R22*%
X82877066Y-78535000D02*
X82422938Y-78535000D01*
X82877066Y-77065000D02*
X82422938Y-77065000D01*
%TO.C,R12*%
X134430200Y-97103064D02*
X134430200Y-96648936D01*
X135900200Y-97103064D02*
X135900200Y-96648936D01*
%TO.C,J24*%
X121210000Y-94530000D02*
X121330000Y-94530000D01*
X121330000Y-94530000D02*
X121330000Y-91870000D01*
X118670000Y-93200000D02*
X118670000Y-91870000D01*
X118670000Y-91870000D02*
X120000000Y-91870000D01*
X121210000Y-91870000D02*
X121330000Y-91870000D01*
D12*
%TO.C,D6*%
X131145000Y-117350000D02*
X128295000Y-117350000D01*
X128295000Y-115650000D02*
X131145000Y-115650000D01*
%TO.C,U12*%
X82400002Y-73950000D02*
X82565002Y-73950000D01*
X88900002Y-73950000D02*
X88735002Y-73950000D01*
X88900002Y-73950000D02*
X88900002Y-70450000D01*
X82400002Y-70450000D02*
X82400002Y-73950000D01*
X83715002Y-70450000D02*
X82400002Y-70450000D01*
X88900002Y-70450000D02*
X87585002Y-70450000D01*
D13*
%TO.C,R15*%
X83772936Y-112265000D02*
X84227064Y-112265000D01*
X83772936Y-113735000D02*
X84227064Y-113735000D01*
%TO.C,J27*%
X91122654Y-99505001D02*
X91002654Y-99505001D01*
X91002654Y-99505001D02*
X91002654Y-102165001D01*
X93662654Y-100835001D02*
X93662654Y-102165001D01*
X93662654Y-102165001D02*
X92332654Y-102165001D01*
X91122654Y-102165001D02*
X91002654Y-102165001D01*
%TO.C,R24*%
X79315002Y-67827064D02*
X79315002Y-67372936D01*
X80785002Y-67827064D02*
X80785002Y-67372936D01*
%TO.C,C9*%
X131938748Y-90815000D02*
X132461252Y-90815000D01*
X131938748Y-92285000D02*
X132461252Y-92285000D01*
%TO.C,R8*%
X120177064Y-86335000D02*
X119722936Y-86335000D01*
X120177064Y-84865000D02*
X119722936Y-84865000D01*
%TO.C,R23*%
X81985002Y-80772936D02*
X81985002Y-81227064D01*
X80515002Y-80772936D02*
X80515002Y-81227064D01*
D12*
%TO.C,J6*%
X44132654Y-98935001D02*
X44132654Y-83935001D01*
X52382654Y-98935001D02*
X44132654Y-98935001D01*
X52382654Y-98935001D02*
X52382654Y-83935001D01*
X52382654Y-83935001D02*
X44132654Y-83935001D01*
D10*
X48232654Y-99685001D02*
G75*
G03*
X48232654Y-99685001I-100000J0D01*
G01*
D12*
%TO.C,D8*%
X115820000Y-116140000D02*
X115820000Y-117340000D01*
X114780000Y-117340000D02*
X114780000Y-116140000D01*
D13*
%TO.C,J13*%
X103270000Y-64210000D02*
X103270000Y-64330000D01*
X103270000Y-64330000D02*
X105930000Y-64330000D01*
X104600000Y-61670000D02*
X105930000Y-61670000D01*
X105930000Y-61670000D02*
X105930000Y-63000000D01*
X105930000Y-64210000D02*
X105930000Y-64330000D01*
D12*
%TO.C,J7*%
X44150002Y-76847500D02*
X44150002Y-61847500D01*
X52400002Y-76847500D02*
X44150002Y-76847500D01*
X52400002Y-76847500D02*
X52400002Y-61847500D01*
X52400002Y-61847500D02*
X44150002Y-61847500D01*
D10*
X48250002Y-77597500D02*
G75*
G03*
X48250002Y-77597500I-100000J0D01*
G01*
D13*
%TO.C,J9*%
X89322654Y-91505001D02*
X89202654Y-91505001D01*
X89202654Y-91505001D02*
X89202654Y-94165001D01*
X91862654Y-92835001D02*
X91862654Y-94165001D01*
X91862654Y-94165001D02*
X90532654Y-94165001D01*
X89322654Y-94165001D02*
X89202654Y-94165001D01*
%TO.C,C7*%
X121865000Y-112523752D02*
X121865000Y-112001248D01*
X123335000Y-112523752D02*
X123335000Y-112001248D01*
D12*
%TO.C,D5*%
X122855000Y-115650000D02*
X125705000Y-115650000D01*
X125705000Y-117350000D02*
X122855000Y-117350000D01*
D14*
%TO.C,K2*%
X72950000Y-60076000D02*
X72950000Y-61346000D01*
X73585000Y-60711000D02*
X72315000Y-60711000D01*
X75627000Y-61473000D02*
X53773002Y-61473000D01*
X75627000Y-77327000D02*
X75627000Y-61473000D01*
X75627000Y-77327000D02*
X53773002Y-77327000D01*
X53773002Y-77327000D02*
X53773002Y-61473000D01*
D13*
%TO.C,R2*%
X82759718Y-100370001D02*
X82305590Y-100370001D01*
X82759718Y-98900001D02*
X82305590Y-98900001D01*
%TO.C,C11*%
X135038752Y-82895000D02*
X134516248Y-82895000D01*
X135038752Y-81425000D02*
X134516248Y-81425000D01*
%TO.C,R21*%
X82715002Y-81227064D02*
X82715002Y-80772936D01*
X84185002Y-81227064D02*
X84185002Y-80772936D01*
%TO.C,J18*%
X139390000Y-63470000D02*
X139270000Y-63470000D01*
X139270000Y-63470000D02*
X139270000Y-66130000D01*
X141930000Y-64800000D02*
X141930000Y-66130000D01*
X141930000Y-66130000D02*
X140600000Y-66130000D01*
X139390000Y-66130000D02*
X139270000Y-66130000D01*
%TO.C,J26*%
X91440002Y-77470000D02*
X91320002Y-77470000D01*
X91320002Y-77470000D02*
X91320002Y-80130000D01*
X93980002Y-78800000D02*
X93980002Y-80130000D01*
X93980002Y-80130000D02*
X92650002Y-80130000D01*
X91440002Y-80130000D02*
X91320002Y-80130000D01*
%TO.C,J15*%
X99210000Y-87130000D02*
X99330000Y-87130000D01*
X99330000Y-87130000D02*
X99330000Y-84470000D01*
X96670000Y-85800000D02*
X96670000Y-84470000D01*
X96670000Y-84470000D02*
X98000000Y-84470000D01*
X99210000Y-84470000D02*
X99330000Y-84470000D01*
%TO.C,J10*%
X90440002Y-68670000D02*
X90320002Y-68670000D01*
X90320002Y-68670000D02*
X90320002Y-71330000D01*
X92980002Y-70000000D02*
X92980002Y-71330000D01*
X92980002Y-71330000D02*
X91650002Y-71330000D01*
X90440002Y-71330000D02*
X90320002Y-71330000D01*
%TO.C,R20*%
X82597654Y-103062065D02*
X82597654Y-102607937D01*
X84067654Y-103062065D02*
X84067654Y-102607937D01*
%TO.C,J23*%
X139670000Y-112810000D02*
X139670000Y-112930000D01*
X139670000Y-112930000D02*
X142330000Y-112930000D01*
X141000000Y-110270000D02*
X142330000Y-110270000D01*
X142330000Y-110270000D02*
X142330000Y-111600000D01*
X142330000Y-112810000D02*
X142330000Y-112930000D01*
%TO.C,J12*%
X112330000Y-77990000D02*
X112330000Y-77870000D01*
X112330000Y-77870000D02*
X109670000Y-77870000D01*
X111000000Y-80530000D02*
X109670000Y-80530000D01*
X109670000Y-80530000D02*
X109670000Y-79200000D01*
X109670000Y-77990000D02*
X109670000Y-77870000D01*
%TO.C,R4*%
X132427064Y-85085000D02*
X131972936Y-85085000D01*
X132427064Y-83615000D02*
X131972936Y-83615000D01*
%TO.C,R14*%
X114437936Y-65175000D02*
X114892064Y-65175000D01*
X114437936Y-66645000D02*
X114892064Y-66645000D01*
%TO.C,C6*%
X130665000Y-112561252D02*
X130665000Y-112038748D01*
X132135000Y-112561252D02*
X132135000Y-112038748D01*
%TD*%
M02*
